<?xml version='1.0' encoding='UTF-8'?>
<!DOCTYPE svg PUBLIC "-//W3C//DTD SVG 1.0//EN" "http://www.w3.org/TR/2001/REC-SVG-20010904/DTD/svg10.dtd">
<svg viewBox="0 0 1104 670" xmlns="http://www.w3.org/2000/svg" xmlns:inkspace="http://www.inkscape.org/namespaces/inkscape" xmlns:xlink="http://www.w3.org/1999/xlink" width="1104px" height="670px">
  <defs id="defs_block">
    <filter height="1.504" id="filter_blur" inkspace:collect="always" width="1.1575" x="-0.07875" y="-0.252">
      <feGaussianBlur id="feGaussianBlur3780" inkspace:collect="always" stdDeviation="4.2" />
    </filter>
  </defs>
  <title>blockdiag</title>
  <desc>blockdiag {
default_fontsize = 14;
node_width = 158;
node_height = 40;
span_width = 44;
span_height = 20;
// edge_layout = flowchart;
//orientation = portrait
default_shape = roundedbox;
// database [shape = flowchart.database]
// B [style = dotted];
// C [style = dashed];
// A [width=192,height=64,fontsize=20,textcolor=blue,numbered = 1]
//note [color = none, style = dashed,shape = note];
//A -&gt; B, C;
//D, E -&gt; F;
    API [label="API对象",color=lightgreen,width=66];
    g [label="Group: API组"];
v [label="Version: API版本"];
  r[label="Version: API资源"];
    API -&gt; g,v,r;
    root [label ="/", color ="pink", width=66];
    healthz [label="/healthz",width=88];
    metrics [label="/metrics",width=88];
    api [label="/api\n核心对象",color=lightblue,width=88,height=60];
    apis [label="/apis\n非核心对象",color=orange,width=88,height=60];
    root -&gt; healthz, metrics, api, apis;
    v1namespaces [label = "/api/v1/namespaces"];
    apiv1 [label = "/api/v1\n(Group是空)",width=98,height=70];
    apibatch [label = "/apis/batch",width=98];
    api -&gt; apiv1 -&gt; "/api/v1/pods",v1namespaces;
    apis -&gt;  apibatch -&gt; "/apis/batch/v1";
    "/apis/batch/v1" -&gt; "/apis/batch/v1/jobs";
    default_group_color= none;
    default_node_color= lightyellow;
    group {
        //orientation = portrait ;
        Group [style = dashed,shape = note,label="Group: batch"];
        Version [style = dashed,shape = note,label="Version: v1"];
        Resource [style = dashed,shape = note,label="Resource: jobs"];
        "/apis/batch/v1/jobs" -- Group,Version,Resource [style = dashed];
    }
    apibatch -&gt; "/apis/batch/v1beta";
    apps [label ="/apis/apps" ,width=98]
    apis -&gt; apps;
}</desc>
  <rect fill="none" height="190" style="filter:url(#filter_blur)" width="370" x="695" y="465" />
  <path d="M 55 26 L 105 26 A8,8 0 0 1 113 34 L 113 58 A8,8 0 0 1 105 66 L 55 66 A8,8 0 0 1 47 58 L 47 34 A8,8 0 0 1 55 26" fill="rgb(0,0,0)" stroke="rgb(0,0,0)" style="filter:url(#filter_blur);opacity:0.7;fill-opacity:1" />
  <path d="M 165 26 L 307 26 A8,8 0 0 1 315 34 L 315 58 A8,8 0 0 1 307 66 L 165 66 A8,8 0 0 1 157 58 L 157 34 A8,8 0 0 1 165 26" fill="rgb(0,0,0)" stroke="rgb(0,0,0)" style="filter:url(#filter_blur);opacity:0.7;fill-opacity:1" />
  <path d="M 165 86 L 307 86 A8,8 0 0 1 315 94 L 315 118 A8,8 0 0 1 307 126 L 165 126 A8,8 0 0 1 157 118 L 157 94 A8,8 0 0 1 165 86" fill="rgb(0,0,0)" stroke="rgb(0,0,0)" style="filter:url(#filter_blur);opacity:0.7;fill-opacity:1" />
  <path d="M 165 146 L 307 146 A8,8 0 0 1 315 154 L 315 178 A8,8 0 0 1 307 186 L 165 186 A8,8 0 0 1 157 178 L 157 154 A8,8 0 0 1 165 146" fill="rgb(0,0,0)" stroke="rgb(0,0,0)" style="filter:url(#filter_blur);opacity:0.7;fill-opacity:1" />
  <path d="M 55 206 L 105 206 A8,8 0 0 1 113 214 L 113 238 A8,8 0 0 1 105 246 L 55 246 A8,8 0 0 1 47 238 L 47 214 A8,8 0 0 1 55 206" fill="rgb(0,0,0)" stroke="rgb(0,0,0)" style="filter:url(#filter_blur);opacity:0.7;fill-opacity:1" />
  <path d="M 200 206 L 272 206 A8,8 0 0 1 280 214 L 280 238 A8,8 0 0 1 272 246 L 200 246 A8,8 0 0 1 192 238 L 192 214 A8,8 0 0 1 200 206" fill="rgb(0,0,0)" stroke="rgb(0,0,0)" style="filter:url(#filter_blur);opacity:0.7;fill-opacity:1" />
  <path d="M 200 266 L 272 266 A8,8 0 0 1 280 274 L 280 298 A8,8 0 0 1 272 306 L 200 306 A8,8 0 0 1 192 298 L 192 274 A8,8 0 0 1 200 266" fill="rgb(0,0,0)" stroke="rgb(0,0,0)" style="filter:url(#filter_blur);opacity:0.7;fill-opacity:1" />
  <path d="M 200 331 L 272 331 A8,8 0 0 1 280 339 L 280 383 A8,8 0 0 1 272 391 L 200 391 A8,8 0 0 1 192 383 L 192 339 A8,8 0 0 1 200 331" fill="rgb(0,0,0)" stroke="rgb(0,0,0)" style="filter:url(#filter_blur);opacity:0.7;fill-opacity:1" />
  <path d="M 200 476 L 272 476 A8,8 0 0 1 280 484 L 280 528 A8,8 0 0 1 272 536 L 200 536 A8,8 0 0 1 192 528 L 192 484 A8,8 0 0 1 200 476" fill="rgb(0,0,0)" stroke="rgb(0,0,0)" style="filter:url(#filter_blur);opacity:0.7;fill-opacity:1" />
  <path d="M 509 341 L 651 341 A8,8 0 0 1 659 349 L 659 373 A8,8 0 0 1 651 381 L 509 381 A8,8 0 0 1 501 373 L 501 349 A8,8 0 0 1 509 341" fill="rgb(0,0,0)" stroke="rgb(0,0,0)" style="filter:url(#filter_blur);opacity:0.7;fill-opacity:1" />
  <path d="M 509 416 L 651 416 A8,8 0 0 1 659 424 L 659 448 A8,8 0 0 1 651 456 L 509 456 A8,8 0 0 1 501 448 L 501 424 A8,8 0 0 1 509 416" fill="rgb(0,0,0)" stroke="rgb(0,0,0)" style="filter:url(#filter_blur);opacity:0.7;fill-opacity:1" />
  <path d="M 367 326 L 449 326 A8,8 0 0 1 457 334 L 457 388 A8,8 0 0 1 449 396 L 367 396 A8,8 0 0 1 359 388 L 359 334 A8,8 0 0 1 367 326" fill="rgb(0,0,0)" stroke="rgb(0,0,0)" style="filter:url(#filter_blur);opacity:0.7;fill-opacity:1" />
  <path d="M 367 486 L 449 486 A8,8 0 0 1 457 494 L 457 518 A8,8 0 0 1 449 526 L 367 526 A8,8 0 0 1 359 518 L 359 494 A8,8 0 0 1 367 486" fill="rgb(0,0,0)" stroke="rgb(0,0,0)" style="filter:url(#filter_blur);opacity:0.7;fill-opacity:1" />
  <path d="M 367 556 L 449 556 A8,8 0 0 1 457 564 L 457 588 A8,8 0 0 1 449 596 L 367 596 A8,8 0 0 1 359 588 L 359 564 A8,8 0 0 1 367 556" fill="rgb(0,0,0)" stroke="rgb(0,0,0)" style="filter:url(#filter_blur);opacity:0.7;fill-opacity:1" />
  <path d="M 509 486 L 651 486 A8,8 0 0 1 659 494 L 659 518 A8,8 0 0 1 651 526 L 509 526 A8,8 0 0 1 501 518 L 501 494 A8,8 0 0 1 509 486" fill="rgb(0,0,0)" stroke="rgb(0,0,0)" style="filter:url(#filter_blur);opacity:0.7;fill-opacity:1" />
  <path d="M 509 556 L 651 556 A8,8 0 0 1 659 564 L 659 588 A8,8 0 0 1 651 596 L 509 596 A8,8 0 0 1 501 588 L 501 564 A8,8 0 0 1 509 556" fill="rgb(0,0,0)" stroke="rgb(0,0,0)" style="filter:url(#filter_blur);opacity:0.7;fill-opacity:1" />
  <polygon fill="rgb(0,0,0)" points="905,486 1047,486 1063,502 1063,526 905,526 905,486" stroke="rgb(0,0,0)" style="filter:url(#filter_blur);opacity:0.7;fill-opacity:1" />
  <polygon fill="rgb(0,0,0)" points="905,556 1047,556 1063,572 1063,596 905,596 905,556" stroke="rgb(0,0,0)" style="filter:url(#filter_blur);opacity:0.7;fill-opacity:1" />
  <polygon fill="rgb(0,0,0)" points="905,616 1047,616 1063,632 1063,656 905,656 905,616" stroke="rgb(0,0,0)" style="filter:url(#filter_blur);opacity:0.7;fill-opacity:1" />
  <path d="M 711 486 L 853 486 A8,8 0 0 1 861 494 L 861 518 A8,8 0 0 1 853 526 L 711 526 A8,8 0 0 1 703 518 L 703 494 A8,8 0 0 1 711 486" fill="rgb(0,0,0)" stroke="rgb(0,0,0)" style="filter:url(#filter_blur);opacity:0.7;fill-opacity:1" />
  <path d="M 52 20 L 102 20 A8,8 0 0 1 110 28 L 110 52 A8,8 0 0 1 102 60 L 52 60 A8,8 0 0 1 44 52 L 44 28 A8,8 0 0 1 52 20" fill="rgb(144,238,144)" stroke="rgb(0,0,0)" />
  <text fill="rgb(0,0,0)" font-family="sans-serif" font-size="14" font-style="normal" font-weight="normal" text-anchor="middle" textLength="49" x="77.5" y="49">API对象</text>
  <path d="M 162 20 L 304 20 A8,8 0 0 1 312 28 L 312 52 A8,8 0 0 1 304 60 L 162 60 A8,8 0 0 1 154 52 L 154 28 A8,8 0 0 1 162 20" fill="rgb(255,255,224)" stroke="rgb(0,0,0)" />
  <text fill="rgb(0,0,0)" font-family="sans-serif" font-size="14" font-style="normal" font-weight="normal" text-anchor="middle" textLength="86" x="233.0" y="49">Group: API组</text>
  <path d="M 162 80 L 304 80 A8,8 0 0 1 312 88 L 312 112 A8,8 0 0 1 304 120 L 162 120 A8,8 0 0 1 154 112 L 154 88 A8,8 0 0 1 162 80" fill="rgb(255,255,224)" stroke="rgb(0,0,0)" />
  <text fill="rgb(0,0,0)" font-family="sans-serif" font-size="14" font-style="normal" font-weight="normal" text-anchor="middle" textLength="109" x="233.5" y="109">Version: API版本</text>
  <path d="M 162 140 L 304 140 A8,8 0 0 1 312 148 L 312 172 A8,8 0 0 1 304 180 L 162 180 A8,8 0 0 1 154 172 L 154 148 A8,8 0 0 1 162 140" fill="rgb(255,255,224)" stroke="rgb(0,0,0)" />
  <text fill="rgb(0,0,0)" font-family="sans-serif" font-size="14" font-style="normal" font-weight="normal" text-anchor="middle" textLength="109" x="233.5" y="169">Version: API资源</text>
  <path d="M 52 200 L 102 200 A8,8 0 0 1 110 208 L 110 232 A8,8 0 0 1 102 240 L 52 240 A8,8 0 0 1 44 232 L 44 208 A8,8 0 0 1 52 200" fill="rgb(255,192,203)" stroke="rgb(0,0,0)" />
  <text fill="rgb(0,0,0)" font-family="sans-serif" font-size="14" font-style="normal" font-weight="normal" text-anchor="middle" textLength="7" x="77.5" y="228">/</text>
  <path d="M 197 200 L 269 200 A8,8 0 0 1 277 208 L 277 232 A8,8 0 0 1 269 240 L 197 240 A8,8 0 0 1 189 232 L 189 208 A8,8 0 0 1 197 200" fill="rgb(255,255,224)" stroke="rgb(0,0,0)" />
  <text fill="rgb(0,0,0)" font-family="sans-serif" font-size="14" font-style="normal" font-weight="normal" text-anchor="middle" textLength="58" x="233.0" y="228">/healthz</text>
  <path d="M 197 260 L 269 260 A8,8 0 0 1 277 268 L 277 292 A8,8 0 0 1 269 300 L 197 300 A8,8 0 0 1 189 292 L 189 268 A8,8 0 0 1 197 260" fill="rgb(255,255,224)" stroke="rgb(0,0,0)" />
  <text fill="rgb(0,0,0)" font-family="sans-serif" font-size="14" font-style="normal" font-weight="normal" text-anchor="middle" textLength="56" x="233.0" y="288">/metrics</text>
  <path d="M 197 325 L 269 325 A8,8 0 0 1 277 333 L 277 377 A8,8 0 0 1 269 385 L 197 385 A8,8 0 0 1 189 377 L 189 333 A8,8 0 0 1 197 325" fill="rgb(173,216,230)" stroke="rgb(0,0,0)" />
  <text fill="rgb(0,0,0)" font-family="sans-serif" font-size="14" font-style="normal" font-weight="normal" text-anchor="middle" textLength="29" x="233.5" y="355">/api</text>
  <text fill="rgb(0,0,0)" font-family="sans-serif" font-size="14" font-style="normal" font-weight="normal" text-anchor="middle" textLength="56" x="233.0" y="374">核心对象</text>
  <path d="M 197 470 L 269 470 A8,8 0 0 1 277 478 L 277 522 A8,8 0 0 1 269 530 L 197 530 A8,8 0 0 1 189 522 L 189 478 A8,8 0 0 1 197 470" fill="rgb(255,165,0)" stroke="rgb(0,0,0)" />
  <text fill="rgb(0,0,0)" font-family="sans-serif" font-size="14" font-style="normal" font-weight="normal" text-anchor="middle" textLength="36" x="233.0" y="500">/apis</text>
  <text fill="rgb(0,0,0)" font-family="sans-serif" font-size="14" font-style="normal" font-weight="normal" text-anchor="middle" textLength="70" x="233.0" y="519">非核心对象</text>
  <path d="M 506 335 L 648 335 A8,8 0 0 1 656 343 L 656 367 A8,8 0 0 1 648 375 L 506 375 A8,8 0 0 1 498 367 L 498 343 A8,8 0 0 1 506 335" fill="rgb(255,255,224)" stroke="rgb(0,0,0)" />
  <text fill="rgb(0,0,0)" font-family="sans-serif" font-size="14" font-style="normal" font-weight="normal" text-anchor="middle" textLength="144" x="577.0" y="364">/api/v1/namespaces</text>
  <path d="M 506 410 L 648 410 A8,8 0 0 1 656 418 L 656 442 A8,8 0 0 1 648 450 L 506 450 A8,8 0 0 1 498 442 L 498 418 A8,8 0 0 1 506 410" fill="rgb(255,255,224)" stroke="rgb(0,0,0)" />
  <text fill="rgb(0,0,0)" font-family="sans-serif" font-size="14" font-style="normal" font-weight="normal" text-anchor="middle" textLength="92" x="577.0" y="439">/api/v1/pods</text>
  <path d="M 364 320 L 446 320 A8,8 0 0 1 454 328 L 454 382 A8,8 0 0 1 446 390 L 364 390 A8,8 0 0 1 356 382 L 356 328 A8,8 0 0 1 364 320" fill="rgb(255,255,224)" stroke="rgb(0,0,0)" />
  <text fill="rgb(0,0,0)" font-family="sans-serif" font-size="14" font-style="normal" font-weight="normal" text-anchor="middle" textLength="51" x="405.5" y="354">/api/v1</text>
  <text fill="rgb(0,0,0)" font-family="sans-serif" font-size="14" font-style="normal" font-weight="normal" text-anchor="middle" textLength="80" x="405.0" y="374">(Group是空)</text>
  <path d="M 364 480 L 446 480 A8,8 0 0 1 454 488 L 454 512 A8,8 0 0 1 446 520 L 364 520 A8,8 0 0 1 356 512 L 356 488 A8,8 0 0 1 364 480" fill="rgb(255,255,224)" stroke="rgb(0,0,0)" />
  <text fill="rgb(0,0,0)" font-family="sans-serif" font-size="14" font-style="normal" font-weight="normal" text-anchor="middle" textLength="82" x="405.0" y="509">/apis/batch</text>
  <path d="M 364 550 L 446 550 A8,8 0 0 1 454 558 L 454 582 A8,8 0 0 1 446 590 L 364 590 A8,8 0 0 1 356 582 L 356 558 A8,8 0 0 1 364 550" fill="rgb(255,255,224)" stroke="rgb(0,0,0)" />
  <text fill="rgb(0,0,0)" font-family="sans-serif" font-size="14" font-style="normal" font-weight="normal" text-anchor="middle" textLength="77" x="405.5" y="579">/apis/apps</text>
  <path d="M 506 480 L 648 480 A8,8 0 0 1 656 488 L 656 512 A8,8 0 0 1 648 520 L 506 520 A8,8 0 0 1 498 512 L 498 488 A8,8 0 0 1 506 480" fill="rgb(255,255,224)" stroke="rgb(0,0,0)" />
  <text fill="rgb(0,0,0)" font-family="sans-serif" font-size="14" font-style="normal" font-weight="normal" text-anchor="middle" textLength="104" x="577.0" y="509">/apis/batch/v1</text>
  <path d="M 506 550 L 648 550 A8,8 0 0 1 656 558 L 656 582 A8,8 0 0 1 648 590 L 506 590 A8,8 0 0 1 498 582 L 498 558 A8,8 0 0 1 506 550" fill="rgb(255,255,224)" stroke="rgb(0,0,0)" />
  <text fill="rgb(0,0,0)" font-family="sans-serif" font-size="14" font-style="normal" font-weight="normal" text-anchor="middle" textLength="135" x="577.5" y="579">/apis/batch/v1beta</text>
  <polygon fill="rgb(255,255,224)" points="902,480 1044,480 1060,496 1060,520 902,520 902,480" stroke="rgb(0,0,0)" stroke-dasharray="4" />
  <path d="M 1044 480 L 1044 496" fill="none" stroke="rgb(0,0,0)" stroke-dasharray="4" />
  <path d="M 1044 496 L 1060 496" fill="none" stroke="rgb(0,0,0)" stroke-dasharray="4" />
  <text fill="rgb(0,0,0)" font-family="sans-serif" font-size="14" font-style="normal" font-weight="normal" text-anchor="middle" textLength="90" x="981.0" y="509">Group: batch</text>
  <polygon fill="rgb(255,255,224)" points="902,550 1044,550 1060,566 1060,590 902,590 902,550" stroke="rgb(0,0,0)" stroke-dasharray="4" />
  <path d="M 1044 550 L 1044 566" fill="none" stroke="rgb(0,0,0)" stroke-dasharray="4" />
  <path d="M 1044 566 L 1060 566" fill="none" stroke="rgb(0,0,0)" stroke-dasharray="4" />
  <text fill="rgb(0,0,0)" font-family="sans-serif" font-size="14" font-style="normal" font-weight="normal" text-anchor="middle" textLength="75" x="981.5" y="578">Version: v1</text>
  <polygon fill="rgb(255,255,224)" points="902,610 1044,610 1060,626 1060,650 902,650 902,610" stroke="rgb(0,0,0)" stroke-dasharray="4" />
  <path d="M 1044 610 L 1044 626" fill="none" stroke="rgb(0,0,0)" stroke-dasharray="4" />
  <path d="M 1044 626 L 1060 626" fill="none" stroke="rgb(0,0,0)" stroke-dasharray="4" />
  <text fill="rgb(0,0,0)" font-family="sans-serif" font-size="14" font-style="normal" font-weight="normal" text-anchor="middle" textLength="100" x="981.0" y="639">Resource: jobs</text>
  <path d="M 708 480 L 850 480 A8,8 0 0 1 858 488 L 858 512 A8,8 0 0 1 850 520 L 708 520 A8,8 0 0 1 700 512 L 700 488 A8,8 0 0 1 708 480" fill="rgb(255,255,224)" stroke="rgb(0,0,0)" />
  <text fill="rgb(0,0,0)" font-family="sans-serif" font-size="14" font-style="normal" font-weight="normal" text-anchor="middle" textLength="140" x="779.0" y="509">/apis/batch/v1/jobs</text>
  <path d="M 110 40 L 146 40" fill="none" stroke="rgb(0,0,0)" />
  <polygon fill="rgb(0,0,0)" points="153,40 146,36 146,44 153,40" stroke="rgb(0,0,0)" />
  <path d="M 110 40 L 132 40" fill="none" stroke="rgb(0,0,0)" />
  <path d="M 132 40 L 132 100" fill="none" stroke="rgb(0,0,0)" />
  <path d="M 132 100 L 146 100" fill="none" stroke="rgb(0,0,0)" />
  <polygon fill="rgb(0,0,0)" points="153,100 146,96 146,104 153,100" stroke="rgb(0,0,0)" />
  <path d="M 110 40 L 132 40" fill="none" stroke="rgb(0,0,0)" />
  <path d="M 132 40 L 132 160" fill="none" stroke="rgb(0,0,0)" />
  <path d="M 132 160 L 146 160" fill="none" stroke="rgb(0,0,0)" />
  <polygon fill="rgb(0,0,0)" points="153,160 146,156 146,164 153,160" stroke="rgb(0,0,0)" />
  <path d="M 110 220 L 181 220" fill="none" stroke="rgb(0,0,0)" />
  <polygon fill="rgb(0,0,0)" points="188,220 181,216 181,224 188,220" stroke="rgb(0,0,0)" />
  <path d="M 110 220 L 132 220" fill="none" stroke="rgb(0,0,0)" />
  <path d="M 132 220 L 132 280" fill="none" stroke="rgb(0,0,0)" />
  <path d="M 132 280 L 181 280" fill="none" stroke="rgb(0,0,0)" />
  <polygon fill="rgb(0,0,0)" points="188,280 181,276 181,284 188,280" stroke="rgb(0,0,0)" />
  <path d="M 110 220 L 132 220" fill="none" stroke="rgb(0,0,0)" />
  <path d="M 132 220 L 132 355" fill="none" stroke="rgb(0,0,0)" />
  <path d="M 132 355 L 181 355" fill="none" stroke="rgb(0,0,0)" />
  <polygon fill="rgb(0,0,0)" points="188,355 181,351 181,359 188,355" stroke="rgb(0,0,0)" />
  <path d="M 110 220 L 132 220" fill="none" stroke="rgb(0,0,0)" />
  <path d="M 132 220 L 132 500" fill="none" stroke="rgb(0,0,0)" />
  <path d="M 132 500 L 181 500" fill="none" stroke="rgb(0,0,0)" />
  <polygon fill="rgb(0,0,0)" points="188,500 181,496 181,504 188,500" stroke="rgb(0,0,0)" />
  <path d="M 277 355 L 348 355" fill="none" stroke="rgb(0,0,0)" />
  <polygon fill="rgb(0,0,0)" points="355,355 348,351 348,359 355,355" stroke="rgb(0,0,0)" />
  <path d="M 277 500 L 348 500" fill="none" stroke="rgb(0,0,0)" />
  <polygon fill="rgb(0,0,0)" points="355,500 348,496 348,504 355,500" stroke="rgb(0,0,0)" />
  <path d="M 277 500 L 334 500" fill="none" stroke="rgb(0,0,0)" />
  <path d="M 334 500 L 334 570" fill="none" stroke="rgb(0,0,0)" />
  <path d="M 334 570 L 348 570" fill="none" stroke="rgb(0,0,0)" />
  <polygon fill="rgb(0,0,0)" points="355,570 348,566 348,574 355,570" stroke="rgb(0,0,0)" />
  <path d="M 454 355 L 476 355" fill="none" stroke="rgb(0,0,0)" />
  <path d="M 476 355 L 476 430" fill="none" stroke="rgb(0,0,0)" />
  <path d="M 476 430 L 490 430" fill="none" stroke="rgb(0,0,0)" />
  <polygon fill="rgb(0,0,0)" points="497,430 490,426 490,434 497,430" stroke="rgb(0,0,0)" />
  <path d="M 454 355 L 490 355" fill="none" stroke="rgb(0,0,0)" />
  <polygon fill="rgb(0,0,0)" points="497,355 490,351 490,359 497,355" stroke="rgb(0,0,0)" />
  <path d="M 454 500 L 490 500" fill="none" stroke="rgb(0,0,0)" />
  <polygon fill="rgb(0,0,0)" points="497,500 490,496 490,504 497,500" stroke="rgb(0,0,0)" />
  <path d="M 454 500 L 476 500" fill="none" stroke="rgb(0,0,0)" />
  <path d="M 476 500 L 476 570" fill="none" stroke="rgb(0,0,0)" />
  <path d="M 476 570 L 490 570" fill="none" stroke="rgb(0,0,0)" />
  <polygon fill="rgb(0,0,0)" points="497,570 490,566 490,574 497,570" stroke="rgb(0,0,0)" />
  <path d="M 656 500 L 692 500" fill="none" stroke="rgb(0,0,0)" />
  <polygon fill="rgb(0,0,0)" points="699,500 692,496 692,504 699,500" stroke="rgb(0,0,0)" />
  <path d="M 858 500 L 902 500" fill="none" stroke="rgb(0,0,0)" stroke-dasharray="4" />
  <path d="M 858 500 L 880 500" fill="none" stroke="rgb(0,0,0)" stroke-dasharray="4" />
  <path d="M 880 500 L 880 570" fill="none" stroke="rgb(0,0,0)" stroke-dasharray="4" />
  <path d="M 880 570 L 902 570" fill="none" stroke="rgb(0,0,0)" stroke-dasharray="4" />
  <path d="M 858 500 L 880 500" fill="none" stroke="rgb(0,0,0)" stroke-dasharray="4" />
  <path d="M 880 500 L 880 630" fill="none" stroke="rgb(0,0,0)" stroke-dasharray="4" />
  <path d="M 880 630 L 902 630" fill="none" stroke="rgb(0,0,0)" stroke-dasharray="4" />
</svg>