<?xml version="1.0" encoding="us-ascii" standalone="no"?><svg xmlns="http://www.w3.org/2000/svg" xmlns:xlink="http://www.w3.org/1999/xlink" contentStyleType="text/css" height="551px" preserveAspectRatio="none" style="width:715px;height:551px;background:#EEEBDC;" version="1.1" viewBox="0 0 715 551" width="715px" zoomAndPan="magnify"><defs/><g><rect fill="#EEEBDC" height="551" style="stroke:none;stroke-width:1.0;" width="715" x="0" y="0"/><rect fill="#FFFFFF" height="90.8906" style="stroke:#181818;stroke-width:1.0;" width="10" x="145" y="101.9219"/><rect fill="#FFFFFF" height="60.5938" style="stroke:#181818;stroke-width:1.0;" width="10" x="145" y="253.4063"/><rect fill="#FFFFFF" height="121.1875" style="stroke:#181818;stroke-width:1.0;" width="10" x="145" y="404.8906"/><rect fill="#FFFFFF" height="30.2969" style="stroke:#181818;stroke-width:1.0;" width="10" x="289" y="132.2188"/><rect fill="#FFFFFF" height="30.2969" style="stroke:#181818;stroke-width:1.0;" width="10" x="289" y="283.7031"/><rect fill="#FFFFFF" height="30.2969" style="stroke:#181818;stroke-width:1.0;" width="10" x="289" y="465.4844"/><rect fill="#FFFFFF" height="30.2969" style="stroke:#181818;stroke-width:1.0;" width="10" x="373" y="223.1094"/><rect fill="#FFFFFF" height="181.7813" style="stroke:#181818;stroke-width:1.0;" width="10" x="474.5" y="344.2969"/><rect fill="#FFFFFF" height="60.5938" style="stroke:#181818;stroke-width:1.0;" width="10" x="614.5" y="374.5938"/><line style="stroke:#181818;stroke-width:0.5;stroke-dasharray:5.0,5.0;" x1="37" x2="37" y1="69.625" y2="544.0781"/><line style="stroke:#181818;stroke-width:0.5;stroke-dasharray:5.0,5.0;" x1="149.5" x2="149.5" y1="69.625" y2="544.0781"/><line style="stroke:#181818;stroke-width:0.5;stroke-dasharray:5.0,5.0;" x1="294" x2="294" y1="69.625" y2="544.0781"/><line style="stroke:#181818;stroke-width:0.5;stroke-dasharray:5.0,5.0;" x1="378" x2="378" y1="69.625" y2="544.0781"/><line style="stroke:#181818;stroke-width:0.5;stroke-dasharray:5.0,5.0;" x1="479" x2="479" y1="69.625" y2="544.0781"/><line style="stroke:#181818;stroke-width:0.5;stroke-dasharray:5.0,5.0;" x1="619" x2="619" y1="69.625" y2="544.0781"/><rect fill="#E2E2F0" height="32.625" rx="2.5" ry="2.5" style="stroke:#181818;stroke-width:0.5;" width="64" x="5" y="36"/><text fill="#000000" font-family="sans-serif" font-size="16" font-weight="bold" lengthAdjust="spacing" textLength="50" x="12" y="57.8516">Client</text><rect fill="#E2E2F0" height="32.625" rx="2.5" ry="2.5" style="stroke:#181818;stroke-width:0.5;" width="109" x="95.5" y="36"/><text fill="#000000" font-family="sans-serif" font-size="16" font-weight="bold" lengthAdjust="spacing" textLength="95" x="102.5" y="57.8516">API Server</text><text fill="#000000" font-family="sans-serif" font-size="16" font-weight="bold" lengthAdjust="spacing" textLength="40" x="271" y="65.8516">etcd</text><path d="M276,15 C276,5 294,5 294,5 C294,5 312,5 312,15 L312,41 C312,51 294,51 294,51 C294,51 276,51 276,41 L276,15 " fill="#E2E2F0" style="stroke:#181818;stroke-width:1.5;"/><path d="M276,15 C276,25 294,25 294,25 C294,25 312,25 312,15 " fill="none" style="stroke:#181818;stroke-width:1.5;"/><rect fill="#E2E2F0" height="32.625" rx="2.5" ry="2.5" style="stroke:#181818;stroke-width:0.5;" width="102" x="327" y="36"/><text fill="#000000" font-family="sans-serif" font-size="16" font-weight="bold" lengthAdjust="spacing" textLength="88" x="334" y="57.8516">Scheduler</text><rect fill="#E2E2F0" height="32.625" rx="2.5" ry="2.5" style="stroke:#181818;stroke-width:0.5;" width="81" x="439" y="36"/><text fill="#000000" font-family="sans-serif" font-size="16" font-weight="bold" lengthAdjust="spacing" textLength="67" x="446" y="57.8516">Kubelet</text><rect fill="#E2E2F0" height="32.625" rx="2.5" ry="2.5" style="stroke:#181818;stroke-width:0.5;" width="179" x="530" y="36"/><text fill="#000000" font-family="sans-serif" font-size="16" font-weight="bold" lengthAdjust="spacing" textLength="165" x="537" y="57.8516">Container Runtime</text><rect fill="#FFFFFF" height="90.8906" style="stroke:#181818;stroke-width:1.0;" width="10" x="145" y="101.9219"/><rect fill="#FFFFFF" height="60.5938" style="stroke:#181818;stroke-width:1.0;" width="10" x="145" y="253.4063"/><rect fill="#FFFFFF" height="121.1875" style="stroke:#181818;stroke-width:1.0;" width="10" x="145" y="404.8906"/><rect fill="#FFFFFF" height="30.2969" style="stroke:#181818;stroke-width:1.0;" width="10" x="289" y="132.2188"/><rect fill="#FFFFFF" height="30.2969" style="stroke:#181818;stroke-width:1.0;" width="10" x="289" y="283.7031"/><rect fill="#FFFFFF" height="30.2969" style="stroke:#181818;stroke-width:1.0;" width="10" x="289" y="465.4844"/><rect fill="#FFFFFF" height="30.2969" style="stroke:#181818;stroke-width:1.0;" width="10" x="373" y="223.1094"/><rect fill="#FFFFFF" height="181.7813" style="stroke:#181818;stroke-width:1.0;" width="10" x="474.5" y="344.2969"/><rect fill="#FFFFFF" height="60.5938" style="stroke:#181818;stroke-width:1.0;" width="10" x="614.5" y="374.5938"/><polygon fill="#00BFFF" points="133,97.9219,143,101.9219,133,105.9219" style="stroke:#00BFFF;stroke-width:1.0;"/><line style="stroke:#00BFFF;stroke-width:1.0;" x1="37" x2="139" y1="101.9219" y2="101.9219"/><text fill="#000000" font-family="sans-serif" font-size="14" lengthAdjust="spacing" textLength="59" x="44" y="96.6201">&#21019;&#24314; pod</text><polygon fill="#00BFFF" points="277,128.2188,287,132.2188,277,136.2188" style="stroke:#00BFFF;stroke-width:1.0;"/><line style="stroke:#00BFFF;stroke-width:1.0;" x1="155" x2="283" y1="132.2188" y2="132.2188"/><text fill="#000000" font-family="sans-serif" font-size="14" lengthAdjust="spacing" textLength="87" x="162" y="126.917">&#23384;&#20648; pod&#36164;&#28304;</text><polygon fill="#00BFFF" points="166,158.5156,156,162.5156,166,166.5156" style="stroke:#00BFFF;stroke-width:1.0;"/><line style="stroke:#00BFFF;stroke-width:1.0;" x1="160" x2="293" y1="162.5156" y2="162.5156"/><text fill="#000000" font-family="sans-serif" font-size="14" lengthAdjust="spacing" textLength="56" x="172" y="157.2139">&#23384;&#20648;&#23436;&#25104;</text><polygon fill="#00BFFF" points="48,188.8125,38,192.8125,48,196.8125" style="stroke:#00BFFF;stroke-width:1.0;"/><line style="stroke:#00BFFF;stroke-width:1.0;" x1="42" x2="149" y1="192.8125" y2="192.8125"/><text fill="#000000" font-family="sans-serif" font-size="14" lengthAdjust="spacing" textLength="84" x="54" y="187.5107">&#36820;&#22238;&#21019;&#24314;&#32467;&#26524;</text><polygon fill="#00BFFF" points="361,219.1094,371,223.1094,361,227.1094" style="stroke:#00BFFF;stroke-width:1.0;"/><line style="stroke:#00BFFF;stroke-width:1.0;" x1="150" x2="367" y1="223.1094" y2="223.1094"/><text fill="#000000" font-family="sans-serif" font-size="14" lengthAdjust="spacing" textLength="157" x="157" y="217.8076">&#36890;&#30693;&#35843;&#24230;&#22120;,&#26410;&#35843;&#24230;&#30340;pod</text><polygon fill="#00BFFF" points="166,249.4063,156,253.4063,166,257.4063" style="stroke:#00BFFF;stroke-width:1.0;"/><line style="stroke:#00BFFF;stroke-width:1.0;" x1="160" x2="377" y1="253.4063" y2="253.4063"/><text fill="#000000" font-family="sans-serif" font-size="14" lengthAdjust="spacing" textLength="170" x="172" y="248.1045">&#35843;&#24230; pod,&#35774;&#32622;node name</text><polygon fill="#00BFFF" points="277,279.7031,287,283.7031,277,287.7031" style="stroke:#00BFFF;stroke-width:1.0;"/><line style="stroke:#00BFFF;stroke-width:1.0;" x1="155" x2="283" y1="283.7031" y2="283.7031"/><text fill="#000000" font-family="sans-serif" font-size="14" lengthAdjust="spacing" textLength="115" x="162" y="278.4014">&#23384;&#20648; pod&#32465;&#23450;&#20449;&#24687;</text><polygon fill="#00BFFF" points="161,310,151,314,161,318" style="stroke:#00BFFF;stroke-width:1.0;"/><line style="stroke:#00BFFF;stroke-width:1.0;stroke-dasharray:2.0,2.0;" x1="155" x2="293" y1="314" y2="314"/><text fill="#000000" font-family="sans-serif" font-size="14" lengthAdjust="spacing" textLength="56" x="167" y="308.6982">&#23384;&#20648;&#23436;&#25104;</text><polygon fill="#00BFFF" points="462.5,340.2969,472.5,344.2969,462.5,348.2969" style="stroke:#00BFFF;stroke-width:1.0;"/><line style="stroke:#00BFFF;stroke-width:1.0;" x1="150" x2="468.5" y1="344.2969" y2="344.2969"/><text fill="#000000" font-family="sans-serif" font-size="14" lengthAdjust="spacing" textLength="255" x="157" y="338.9951">&#36890;&#30693;&#23545;&#24212;&#33410;&#28857;&#19978;&#30340;kubelet ,&#26377;&#32465;&#23450;&#30340;pod</text><polygon fill="#00BFFF" points="602.5,370.5938,612.5,374.5938,602.5,378.5938" style="stroke:#00BFFF;stroke-width:1.0;"/><line style="stroke:#00BFFF;stroke-width:1.0;" x1="484.5" x2="608.5" y1="374.5938" y2="374.5938"/><text fill="#000000" font-family="sans-serif" font-size="14" lengthAdjust="spacing" textLength="56" x="491.5" y="369.292">&#21019;&#24314;&#23481;&#22120;</text><polygon fill="#00BFFF" points="166,400.8906,156,404.8906,166,408.8906" style="stroke:#00BFFF;stroke-width:1.0;"/><line style="stroke:#00BFFF;stroke-width:1.0;stroke-dasharray:2.0,2.0;" x1="160" x2="473.5" y1="404.8906" y2="404.8906"/><text fill="#000000" font-family="sans-serif" font-size="14" lengthAdjust="spacing" textLength="119" x="172" y="399.5889">&#19978;&#25253; Pod &#36816;&#34892;&#29366;&#24577;</text><polygon fill="#00BFFF" points="495.5,431.1875,485.5,435.1875,495.5,439.1875" style="stroke:#00BFFF;stroke-width:1.0;"/><line style="stroke:#00BFFF;stroke-width:1.0;stroke-dasharray:2.0,2.0;" x1="489.5" x2="618.5" y1="435.1875" y2="435.1875"/><text fill="#000000" font-family="sans-serif" font-size="14" lengthAdjust="spacing" textLength="84" x="501.5" y="429.8857">&#21019;&#24314;&#23481;&#22120;&#23436;&#25104;</text><polygon fill="#00BFFF" points="277,461.4844,287,465.4844,277,469.4844" style="stroke:#00BFFF;stroke-width:1.0;"/><line style="stroke:#00BFFF;stroke-width:1.0;" x1="155" x2="283" y1="465.4844" y2="465.4844"/><text fill="#000000" font-family="sans-serif" font-size="14" lengthAdjust="spacing" textLength="115" x="162" y="460.1826">&#23384;&#20648; pod&#32465;&#23450;&#20449;&#24687;</text><polygon fill="#00BFFF" points="166,491.7813,156,495.7813,166,499.7813" style="stroke:#00BFFF;stroke-width:1.0;"/><line style="stroke:#00BFFF;stroke-width:1.0;stroke-dasharray:2.0,2.0;" x1="160" x2="293" y1="495.7813" y2="495.7813"/><text fill="#000000" font-family="sans-serif" font-size="14" lengthAdjust="spacing" textLength="56" x="172" y="490.4795">&#23384;&#20648;&#23436;&#25104;</text><polygon fill="#00BFFF" points="161,522.0781,151,526.0781,161,530.0781" style="stroke:#00BFFF;stroke-width:1.0;"/><line style="stroke:#00BFFF;stroke-width:1.0;stroke-dasharray:2.0,2.0;" x1="155" x2="478.5" y1="526.0781" y2="526.0781"/><text fill="#000000" font-family="sans-serif" font-size="14" lengthAdjust="spacing" textLength="119" x="167" y="520.7764">&#19978;&#25253; Pod &#36816;&#34892;&#29366;&#24577;</text><!--SRC=[lLDDJnH14BtFhwYiXxtWmSHev62ox492H4FONz0xKy1aPsU6tXuGYGaW1zrmmCX1WM0uO8Y9YnUDB57-3FFXlx1dUZvwUmQ35o-xFLNrNhzNLTtlchPBAEb1X-ZT9Ufujj5qB8V2dUdfwQbMK-ld5GOk4izYCuxDskOBX7ltfMIVhLl8VwcfCwzdQNKeSil4DjQeoHZQmAY74gp9oQXZmGO70CJKpqWFeJRRSudEQfg8jHFoZcCPMI2v_u7sKg9g4KOwf8yRcbnH8f0XVLpnqDQHNyzlXmQbpffmtq9qsztrAOkhhKD3PmwTSgY1j2ezPoxYd6cZND5HKcft6uzQpTQCnalc2MMcRhh4PZTV8HSfL2t7M49QhikRANgfAQciGMguw5I9hIHTz4NHGrOyakKAL4L32nKFvL2YkK5SVCvdvHOA06fDoqIRrO3qGHp7yr1hpCz26-agqgI8VuelpKYN8ov2fXj9EZwe36rz6GtFIWaW_-GAzNHNOo7YoEFmbDXaAIvFLENnDApIF_4wQA6ma9vLZvo2y8sXiE3PpEnXBIDEecbGqqG3uExZmkKa-AyF_SiHk8wXyP6RguIXr8Jy5ADYynpmvRs_VHO3ecyxmMYlW2NDYN_KAnA4FzmDNkzf1exNZzqW54v2TBNl7nuBQU7bk-3uICRT82zl_2JytZm8Fvv6Nr_veq_-XxE9uEYp-0WFTiQSIjFAJufw0OpzJaJ3N-7FeUqO23PVELbJmLCXimxZBjMHvrDOGDSoTTBc8wwNowedLs0WRV5VXnPUllM71zTN9y7MUUNe_c5sbJEvjTbvnxYzIrvSQIzz4Td8_VCBVxGV3RR3xOlh7mC-xgue0Bu3RuHtTGUoHvN-PwBbjvF9y8SNV9sq0bj-P3dBk0qk9XYS9ZQYgxteP3SSV0ysjwgsHULCg7AVif2q8V8SIeB-spAa2ZcakF9ctn8wwt_bDlq1]--></g></svg>