<?xml version="1.0" encoding="us-ascii" standalone="no"?><svg xmlns="http://www.w3.org/2000/svg" xmlns:xlink="http://www.w3.org/1999/xlink" contentStyleType="text/css" height="747.3958px" preserveAspectRatio="none" style="width:2207px;height:747px;background:#FFFFFF;" version="1.1" viewBox="0 0 2207 747" width="2207.0313px" zoomAndPan="magnify"><defs/><g><!--cluster user--><g id="cluster_user"><path d="M1026.6927,7.8125 L1076.1719,7.8125 A4.8828,4.8828 0 0 1 1079.4271,11.0677 L1088.5417,36.8449 L1367.8385,36.8449 A3.2552,3.2552 0 0 1 1371.0938,40.1001 L1371.0938,150.5599 A3.2552,3.2552 0 0 1 1367.8385,153.8151 L1026.6927,153.8151 A3.2552,3.2552 0 0 1 1023.4375,150.5599 L1023.4375,11.0677 A3.2552,3.2552 0 0 1 1026.6927,7.8125 " fill="none" style="stroke:#000000;stroke-width:1.953125;"/><line style="stroke:#000000;stroke-width:1.953125;" x1="1023.4375" x2="1088.5417" y1="36.8449" y2="36.8449"/><text fill="#000000" font-family="sans-serif" font-size="18.2292" font-weight="bold" lengthAdjust="spacing" textLength="48.1771" x="1028.6458" y="27.3374">User</text></g><!--cluster Master Nodes--><g id="cluster_Master Nodes"><path d="M671.224,256.6797 L814.4531,256.6797 A4.8828,4.8828 0 0 1 817.7083,259.9349 L826.8229,285.7121 L2022.7865,285.7121 A3.2552,3.2552 0 0 1 2026.0417,288.9673 L2026.0417,472.3437 A3.2552,3.2552 0 0 1 2022.7865,475.599 L671.224,475.599 A3.2552,3.2552 0 0 1 667.9688,472.3437 L667.9688,259.9349 A3.2552,3.2552 0 0 1 671.224,256.6797 " fill="none" style="stroke:#000000;stroke-width:1.953125;"/><line style="stroke:#000000;stroke-width:1.953125;" x1="667.9688" x2="826.8229" y1="285.7121" y2="285.7121"/><text fill="#000000" font-family="sans-serif" font-size="18.2292" font-weight="bold" lengthAdjust="spacing" textLength="141.9271" x="673.1771" y="276.2046">Master Nodes</text></g><!--cluster master3--><g id="cluster_master3"><polygon fill="none" points="1752.6042,325.6901,1765.625,312.6693,1994.7917,312.6693,1994.7917,431.3281,1981.7708,444.349,1752.6042,444.349,1752.6042,325.6901" style="stroke:#181818;stroke-width:1.3020833333333333;"/><line style="stroke:#181818;stroke-width:1.3020833333333333;" x1="1981.7708" x2="1994.7917" y1="325.6901" y2="312.6693"/><line style="stroke:#181818;stroke-width:1.3020833333333333;" x1="1752.6042" x2="1981.7708" y1="325.6901" y2="325.6901"/><line style="stroke:#181818;stroke-width:1.3020833333333333;" x1="1981.7708" x2="1981.7708" y1="325.6901" y2="444.349"/><text fill="#000000" font-family="sans-serif" font-size="18.2292" font-weight="bold" lengthAdjust="spacing" textLength="143.2292" x="1796.875" y="346.5171">Master Node3</text></g><!--cluster master2--><g id="cluster_master2"><polygon fill="none" points="1479.1667,325.6901,1492.1875,312.6693,1721.3542,312.6693,1721.3542,431.3281,1708.3333,444.349,1479.1667,444.349,1479.1667,325.6901" style="stroke:#181818;stroke-width:1.3020833333333333;"/><line style="stroke:#181818;stroke-width:1.3020833333333333;" x1="1708.3333" x2="1721.3542" y1="325.6901" y2="312.6693"/><line style="stroke:#181818;stroke-width:1.3020833333333333;" x1="1479.1667" x2="1708.3333" y1="325.6901" y2="325.6901"/><line style="stroke:#181818;stroke-width:1.3020833333333333;" x1="1708.3333" x2="1708.3333" y1="325.6901" y2="444.349"/><text fill="#000000" font-family="sans-serif" font-size="18.2292" font-weight="bold" lengthAdjust="spacing" textLength="143.2292" x="1523.4375" y="346.5171">Master Node2</text></g><!--cluster master1--><g id="cluster_master1"><polygon fill="none" points="699.2188,325.6901,712.2396,312.6693,1447.9167,312.6693,1447.9167,431.3281,1434.8958,444.349,699.2188,444.349,699.2188,325.6901" style="stroke:#181818;stroke-width:1.3020833333333333;"/><line style="stroke:#181818;stroke-width:1.3020833333333333;" x1="1434.8958" x2="1447.9167" y1="325.6901" y2="312.6693"/><line style="stroke:#181818;stroke-width:1.3020833333333333;" x1="699.2188" x2="1434.8958" y1="325.6901" y2="325.6901"/><line style="stroke:#181818;stroke-width:1.3020833333333333;" x1="1434.8958" x2="1434.8958" y1="325.6901" y2="444.349"/><text fill="#000000" font-family="sans-serif" font-size="18.2292" font-weight="bold" lengthAdjust="spacing" textLength="143.2292" x="996.7448" y="346.5171">Master Node1</text></g><!--cluster worker3--><g id="cluster_worker3"><polygon fill="none" points="20.8333,531.5885,33.8542,518.5677,734.375,518.5677,734.375,712.9687,721.3542,725.9896,20.8333,725.9896,20.8333,531.5885" style="stroke:#181818;stroke-width:1.3020833333333333;"/><line style="stroke:#181818;stroke-width:1.3020833333333333;" x1="721.3542" x2="734.375" y1="531.5885" y2="518.5677"/><line style="stroke:#181818;stroke-width:1.3020833333333333;" x1="20.8333" x2="721.3542" y1="531.5885" y2="531.5885"/><line style="stroke:#181818;stroke-width:1.3020833333333333;" x1="721.3542" x2="721.3542" y1="531.5885" y2="725.9896"/><text fill="#000000" font-family="sans-serif" font-size="18.2292" font-weight="bold" lengthAdjust="spacing" textLength="148.4375" x="298.1771" y="552.4155">Worker Node3</text></g><!--cluster pod--><g id="cluster_pod"><rect fill="none" height="113.6719" rx="3.2552" ry="3.2552" style="stroke:#181818;stroke-width:1.3020833333333333;" width="332.0313" x="371.0938" y="581.0677"/><text fill="#000000" font-family="sans-serif" font-size="18.2292" font-weight="bold" lengthAdjust="spacing" textLength="39.0625" x="375" y="600.5926">pod</text></g><!--cluster worker2--><g id="cluster_worker2"><polygon fill="none" points="765.625,581.8359,778.6458,568.8151,1110.6771,568.8151,1110.6771,687.474,1097.6563,700.4948,765.625,700.4948,765.625,581.8359" style="stroke:#181818;stroke-width:1.3020833333333333;"/><line style="stroke:#181818;stroke-width:1.3020833333333333;" x1="1097.6563" x2="1110.6771" y1="581.8359" y2="568.8151"/><line style="stroke:#181818;stroke-width:1.3020833333333333;" x1="765.625" x2="1097.6563" y1="581.8359" y2="581.8359"/><line style="stroke:#181818;stroke-width:1.3020833333333333;" x1="1097.6563" x2="1097.6563" y1="581.8359" y2="700.4948"/><text fill="#000000" font-family="sans-serif" font-size="18.2292" font-weight="bold" lengthAdjust="spacing" textLength="148.4375" x="858.724" y="602.6629">Worker Node2</text></g><!--cluster worker1--><g id="cluster_worker1"><polygon fill="none" points="1141.9271,581.8359,1154.9479,568.8151,1486.9792,568.8151,1486.9792,687.474,1473.9583,700.4948,1141.9271,700.4948,1141.9271,581.8359" style="stroke:#181818;stroke-width:1.3020833333333333;"/><line style="stroke:#181818;stroke-width:1.3020833333333333;" x1="1473.9583" x2="1486.9792" y1="581.8359" y2="568.8151"/><line style="stroke:#181818;stroke-width:1.3020833333333333;" x1="1141.9271" x2="1473.9583" y1="581.8359" y2="581.8359"/><line style="stroke:#181818;stroke-width:1.3020833333333333;" x1="1473.9583" x2="1473.9583" y1="581.8359" y2="700.4948"/><text fill="#000000" font-family="sans-serif" font-size="18.2292" font-weight="bold" lengthAdjust="spacing" textLength="148.4375" x="1235.026" y="602.6629">Worker Node1</text></g><!--entity kubectl--><g id="elem_kubectl"><rect fill="#FFFF00" height="58.7667" rx="3.2552" ry="3.2552" style="stroke:#000000;stroke-width:0.6510416666666666;" width="111.9792" x="1227.8646" y="63.8021"/><rect fill="#FFFF00" height="13.0208" style="stroke:#000000;stroke-width:0.6510416666666666;" width="19.5313" x="1313.8021" y="70.3125"/><rect fill="#FFFF00" height="2.6042" style="stroke:#000000;stroke-width:0.6510416666666666;" width="5.2083" x="1311.1979" y="72.9167"/><rect fill="#FFFF00" height="2.6042" style="stroke:#000000;stroke-width:0.6510416666666666;" width="5.2083" x="1311.1979" y="78.125"/><text fill="#000000" font-family="sans-serif" font-size="16.9271" lengthAdjust="spacing" textLength="59.8958" x="1247.3958" y="105.5559">kubectl</text></g><!--entity ???--><g id="elem_&#27983;&#35272;&#22120;"><rect fill="#FFFF00" height="58.7667" rx="3.2552" ry="3.2552" style="stroke:#000000;stroke-width:0.6510416666666666;" width="102.8646" x="1080.0781" y="63.8021"/><rect fill="#FFFF00" height="13.0208" style="stroke:#000000;stroke-width:0.6510416666666666;" width="19.5313" x="1156.901" y="70.3125"/><rect fill="#FFFF00" height="2.6042" style="stroke:#000000;stroke-width:0.6510416666666666;" width="5.2083" x="1154.2969" y="72.9167"/><rect fill="#FFFF00" height="2.6042" style="stroke:#000000;stroke-width:0.6510416666666666;" width="5.2083" x="1154.2969" y="78.125"/><text fill="#000000" font-family="sans-serif" font-size="16.9271" lengthAdjust="spacing" textLength="50.7813" x="1099.6094" y="105.5559">&#27983;&#35272;&#22120;</text></g><!--entity m3--><g id="elem_m3"><rect fill="#F1F1F1" height="58.7667" rx="3.2552" ry="3.2552" style="stroke:#000000;stroke-width:0.6510416666666666;" width="67.7083" x="1839.8438" y="364.7526"/><rect fill="#F1F1F1" height="13.0208" style="stroke:#000000;stroke-width:0.6510416666666666;" width="19.5313" x="1881.5104" y="371.263"/><rect fill="#F1F1F1" height="2.6042" style="stroke:#000000;stroke-width:0.6510416666666666;" width="5.2083" x="1878.9063" y="373.8672"/><rect fill="#F1F1F1" height="2.6042" style="stroke:#000000;stroke-width:0.6510416666666666;" width="5.2083" x="1878.9063" y="379.0755"/><text fill="#000000" font-family="sans-serif" font-size="16.9271" lengthAdjust="spacing" textLength="15.625" x="1859.375" y="406.5064">...</text></g><!--entity m2--><g id="elem_m2"><rect fill="#F1F1F1" height="58.7667" rx="3.2552" ry="3.2552" style="stroke:#000000;stroke-width:0.6510416666666666;" width="67.7083" x="1566.4063" y="364.7526"/><rect fill="#F1F1F1" height="13.0208" style="stroke:#000000;stroke-width:0.6510416666666666;" width="19.5313" x="1608.0729" y="371.263"/><rect fill="#F1F1F1" height="2.6042" style="stroke:#000000;stroke-width:0.6510416666666666;" width="5.2083" x="1605.4688" y="373.8672"/><rect fill="#F1F1F1" height="2.6042" style="stroke:#000000;stroke-width:0.6510416666666666;" width="5.2083" x="1605.4688" y="379.0755"/><text fill="#000000" font-family="sans-serif" font-size="16.9271" lengthAdjust="spacing" textLength="15.625" x="1585.9375" y="406.5064">...</text></g><!--entity apiserver--><g id="elem_apiserver"><rect fill="#FFD700" height="58.7667" rx="3.2552" ry="3.2552" style="stroke:#000000;stroke-width:0.6510416666666666;" width="175.7813" x="945.9635" y="364.7526"/><rect fill="#FFD700" height="13.0208" style="stroke:#000000;stroke-width:0.6510416666666666;" width="19.5313" x="1095.7031" y="371.263"/><rect fill="#FFD700" height="2.6042" style="stroke:#000000;stroke-width:0.6510416666666666;" width="5.2083" x="1093.099" y="373.8672"/><rect fill="#FFD700" height="2.6042" style="stroke:#000000;stroke-width:0.6510416666666666;" width="5.2083" x="1093.099" y="379.0755"/><text fill="#000000" font-family="sans-serif" font-size="16.9271" lengthAdjust="spacing" textLength="123.6979" x="965.4948" y="406.5064">kube-apiserver</text></g><!--entity controller--><g id="elem_controller"><rect fill="#F1F1F1" height="58.7667" rx="3.2552" ry="3.2552" style="stroke:#000000;stroke-width:0.6510416666666666;" width="259.1146" x="1167.3177" y="364.7526"/><rect fill="#F1F1F1" height="13.0208" style="stroke:#000000;stroke-width:0.6510416666666666;" width="19.5313" x="1400.3906" y="371.263"/><rect fill="#F1F1F1" height="2.6042" style="stroke:#000000;stroke-width:0.6510416666666666;" width="5.2083" x="1397.7865" y="373.8672"/><rect fill="#F1F1F1" height="2.6042" style="stroke:#000000;stroke-width:0.6510416666666666;" width="5.2083" x="1397.7865" y="379.0755"/><text fill="#000000" font-family="sans-serif" font-size="16.9271" lengthAdjust="spacing" textLength="207.0313" x="1186.849" y="406.5064">kube-controller-manager</text></g><!--entity scheduler--><g id="elem_scheduler"><rect fill="#F1F1F1" height="58.7667" rx="3.2552" ry="3.2552" style="stroke:#000000;stroke-width:0.6510416666666666;" width="179.6875" x="720.0521" y="364.7526"/><rect fill="#F1F1F1" height="13.0208" style="stroke:#000000;stroke-width:0.6510416666666666;" width="19.5313" x="873.6979" y="371.263"/><rect fill="#F1F1F1" height="2.6042" style="stroke:#000000;stroke-width:0.6510416666666666;" width="5.2083" x="871.0938" y="373.8672"/><rect fill="#F1F1F1" height="2.6042" style="stroke:#000000;stroke-width:0.6510416666666666;" width="5.2083" x="871.0938" y="379.0755"/><text fill="#000000" font-family="sans-serif" font-size="16.9271" lengthAdjust="spacing" textLength="127.6042" x="739.5833" y="406.5064">kube-scheduler</text></g><!--entity kubelet3--><g id="elem_kubelet3"><rect fill="#F1F1F1" height="58.7667" rx="3.2552" ry="3.2552" style="stroke:#000000;stroke-width:0.6510416666666666;" width="113.2813" x="232.4219" y="620.8984"/><rect fill="#F1F1F1" height="13.0208" style="stroke:#000000;stroke-width:0.6510416666666666;" width="19.5313" x="319.6615" y="627.4089"/><rect fill="#F1F1F1" height="2.6042" style="stroke:#000000;stroke-width:0.6510416666666666;" width="5.2083" x="317.0573" y="630.013"/><rect fill="#F1F1F1" height="2.6042" style="stroke:#000000;stroke-width:0.6510416666666666;" width="5.2083" x="317.0573" y="635.2214"/><text fill="#000000" font-family="sans-serif" font-size="16.9271" lengthAdjust="spacing" textLength="61.1979" x="251.9531" y="662.6522">kubelet</text></g><!--entity kubeproxy3--><g id="elem_kubeproxy3"><rect fill="#F1F1F1" height="58.7667" rx="3.2552" ry="3.2552" style="stroke:#000000;stroke-width:0.6510416666666666;" width="144.5313" x="42.3177" y="620.8984"/><rect fill="#F1F1F1" height="13.0208" style="stroke:#000000;stroke-width:0.6510416666666666;" width="19.5313" x="160.8073" y="627.4089"/><rect fill="#F1F1F1" height="2.6042" style="stroke:#000000;stroke-width:0.6510416666666666;" width="5.2083" x="158.2031" y="630.013"/><rect fill="#F1F1F1" height="2.6042" style="stroke:#000000;stroke-width:0.6510416666666666;" width="5.2083" x="158.2031" y="635.2214"/><text fill="#000000" font-family="sans-serif" font-size="16.9271" lengthAdjust="spacing" textLength="92.4479" x="61.849" y="662.6522">kube-proxy</text></g><!--entity container1--><g id="elem_container1"><rect fill="#F1F1F1" height="47.2616" rx="3.2552" ry="3.2552" style="stroke:#181818;stroke-width:0.6510416666666666;" width="122.3958" x="559.8958" y="626.6406"/><text fill="#000000" font-family="sans-serif" font-size="18.2292" lengthAdjust="spacing" textLength="96.3542" x="572.9167" y="656.5822">container1</text></g><!--entity container2--><g id="elem_container2"><rect fill="#F1F1F1" height="47.2616" rx="3.2552" ry="3.2552" style="stroke:#181818;stroke-width:0.6510416666666666;" width="122.3958" x="391.9271" y="626.6406"/><text fill="#000000" font-family="sans-serif" font-size="18.2292" lengthAdjust="spacing" textLength="96.3542" x="404.9479" y="656.5822">container2</text></g><!--entity kubelet2--><g id="elem_kubelet2"><rect fill="#F1F1F1" height="58.7667" rx="3.2552" ry="3.2552" style="stroke:#000000;stroke-width:0.6510416666666666;" width="113.2813" x="977.2135" y="620.8984"/><rect fill="#F1F1F1" height="13.0208" style="stroke:#000000;stroke-width:0.6510416666666666;" width="19.5313" x="1064.4531" y="627.4089"/><rect fill="#F1F1F1" height="2.6042" style="stroke:#000000;stroke-width:0.6510416666666666;" width="5.2083" x="1061.849" y="630.013"/><rect fill="#F1F1F1" height="2.6042" style="stroke:#000000;stroke-width:0.6510416666666666;" width="5.2083" x="1061.849" y="635.2214"/><text fill="#000000" font-family="sans-serif" font-size="16.9271" lengthAdjust="spacing" textLength="61.1979" x="996.7448" y="662.6522">kubelet</text></g><!--entity kubeproxy2--><g id="elem_kubeproxy2"><rect fill="#F1F1F1" height="58.7667" rx="3.2552" ry="3.2552" style="stroke:#000000;stroke-width:0.6510416666666666;" width="144.5313" x="787.1094" y="620.8984"/><rect fill="#F1F1F1" height="13.0208" style="stroke:#000000;stroke-width:0.6510416666666666;" width="19.5313" x="905.599" y="627.4089"/><rect fill="#F1F1F1" height="2.6042" style="stroke:#000000;stroke-width:0.6510416666666666;" width="5.2083" x="902.9948" y="630.013"/><rect fill="#F1F1F1" height="2.6042" style="stroke:#000000;stroke-width:0.6510416666666666;" width="5.2083" x="902.9948" y="635.2214"/><text fill="#000000" font-family="sans-serif" font-size="16.9271" lengthAdjust="spacing" textLength="92.4479" x="806.6406" y="662.6522">kube-proxy</text></g><!--entity kubelet1--><g id="elem_kubelet1"><rect fill="#F1F1F1" height="58.7667" rx="3.2552" ry="3.2552" style="stroke:#000000;stroke-width:0.6510416666666666;" width="113.2813" x="1353.5156" y="620.8984"/><rect fill="#F1F1F1" height="13.0208" style="stroke:#000000;stroke-width:0.6510416666666666;" width="19.5313" x="1440.7552" y="627.4089"/><rect fill="#F1F1F1" height="2.6042" style="stroke:#000000;stroke-width:0.6510416666666666;" width="5.2083" x="1438.151" y="630.013"/><rect fill="#F1F1F1" height="2.6042" style="stroke:#000000;stroke-width:0.6510416666666666;" width="5.2083" x="1438.151" y="635.2214"/><text fill="#000000" font-family="sans-serif" font-size="16.9271" lengthAdjust="spacing" textLength="61.1979" x="1373.0469" y="662.6522">kubelet</text></g><!--entity kubeproxy1--><g id="elem_kubeproxy1"><rect fill="#F1F1F1" height="58.7667" rx="3.2552" ry="3.2552" style="stroke:#000000;stroke-width:0.6510416666666666;" width="144.5313" x="1163.4115" y="620.8984"/><rect fill="#F1F1F1" height="13.0208" style="stroke:#000000;stroke-width:0.6510416666666666;" width="19.5313" x="1281.901" y="627.4089"/><rect fill="#F1F1F1" height="2.6042" style="stroke:#000000;stroke-width:0.6510416666666666;" width="5.2083" x="1279.2969" y="630.013"/><rect fill="#F1F1F1" height="2.6042" style="stroke:#000000;stroke-width:0.6510416666666666;" width="5.2083" x="1279.2969" y="635.2214"/><text fill="#000000" font-family="sans-serif" font-size="16.9271" lengthAdjust="spacing" textLength="92.4479" x="1182.9427" y="662.6522">kube-proxy</text></g><!--entity etcd--><g id="elem_etcd"><path d="M2046.875,367.0573 C2046.875,354.0365 2115.8854,354.0365 2115.8854,354.0365 C2115.8854,354.0365 2184.8958,354.0365 2184.8958,367.0573 L2184.8958,421.2158 C2184.8958,434.2367 2115.8854,434.2367 2115.8854,434.2367 C2115.8854,434.2367 2046.875,434.2367 2046.875,421.2158 L2046.875,367.0573 " fill="#F1F1F1" style="stroke:#181818;stroke-width:0.6510416666666666;"/><path d="M2046.875,367.0573 C2046.875,380.0781 2115.8854,380.0781 2115.8854,380.0781 C2115.8854,380.0781 2184.8958,380.0781 2184.8958,367.0573 " fill="none" style="stroke:#181818;stroke-width:0.6510416666666666;"/><text fill="#000000" font-family="sans-serif" font-size="18.2292" lengthAdjust="spacing" textLength="106.7708" x="2059.8958" y="402.2072">etcd cluster</text><text fill="#000000" font-family="sans-serif" font-size="18.2292" lengthAdjust="spacing" textLength="49.4792" x="2065.1042" y="423.4271">(&#23384;&#20648;)</text></g><!--link scheduler to apiserver--><g id="link_scheduler_apiserver"><path d="M900,394.1406 C912.6823,394.1406 925.3516,394.1406 938.0339,394.1406 " fill="none" id="scheduler-to-apiserver" style="stroke:#FF0000;stroke-width:1.3020833333333333;"/><polygon fill="#FF0000" points="944.1927,394.1406,932.474,388.9323,937.6823,394.1406,932.474,399.349,944.1927,394.1406" style="stroke:#FF0000;stroke-width:1.3020833333333333;"/></g><!--reverse link apiserver to controller--><g id="link_apiserver_controller"><path d="M1129.8958,394.1406 C1142.2266,394.1406 1154.5703,394.1406 1166.901,394.1406 " fill="none" id="apiserver-backto-controller" style="stroke:#FF0000;stroke-width:1.3020833333333333;"/><polygon fill="#FF0000" points="1123.5156,394.1406,1135.2344,399.349,1130.026,394.1406,1135.2344,388.9323,1123.5156,394.1406" style="stroke:#FF0000;stroke-width:1.3020833333333333;"/></g><!--link user to apiserver--><g id="link_user_apiserver"><path d="M1033.8542,154.6541 C1033.8542,155.0214 1033.8542,155.3898 1033.8542,155.7593 C1033.8542,157.2375 1033.8542,158.7336 1033.8542,160.2466 C1033.8542,172.3502 1033.8542,185.5334 1033.8542,199.2692 C1033.8542,254.2122 1033.8542,317.9948 1033.8542,356.875 " fill="none" id="user-to-apiserver" style="stroke:#FF0000;stroke-width:1.3020833333333333;"/><polygon fill="#FF0000" points="1033.8542,363.2161,1039.0625,351.4974,1033.8542,356.7057,1028.6458,351.4974,1033.8542,363.2161" style="stroke:#FF0000;stroke-width:1.3020833333333333;"/><text fill="#777777" font-family="Impact" font-size="16.9271" lengthAdjust="spacing" textLength="41.6667" x="1035.1563" y="216.4022">HTTP</text></g><!--link apiserver to etcd--><g id="link_apiserver_etcd"><path d="M1045.4557,364.388 C1063.8281,322.6432 1104.1536,249.9349 1167.3177,233.8932 C1207.0703,223.8021 1865.8464,223.8021 1905.599,233.8932 C1975.2083,251.5755 2038.2943,307.5 2076.8099,348.3203 " fill="none" id="apiserver-to-etcd" style="stroke:#FF0000;stroke-width:1.3020833333333333;"/><polygon fill="#FF0000" points="2080.5469,352.4219,2076.3569,340.3017,2076.104,347.663,2068.7427,347.4102,2080.5469,352.4219" style="stroke:#FF0000;stroke-width:1.3020833333333333;"/></g><!--reverse link apiserver to kubelet1--><g id="link_apiserver_kubelet1"><path d="M1064.5964,428.8281 C1085.1693,448.9062 1113.9844,473.0339 1144.5313,486.0156 C1221.224,518.6328 1261.3802,461.9401 1330.7292,508.151 C1370.2083,534.4531 1392.1745,587.4089 1402.5521,620.3516 " fill="none" id="apiserver-backto-kubelet1" style="stroke:#FF0000;stroke-width:1.3020833333333333;"/><polygon fill="#FF0000" points="1060.8464,425.1172,1065.4983,437.0677,1065.4685,429.7021,1072.8341,429.6723,1060.8464,425.1172" style="stroke:#FF0000;stroke-width:1.3020833333333333;"/></g><!--reverse link apiserver to kubelet2--><g id="link_apiserver_kubelet2"><path d="M1033.8542,431.8359 C1033.8542,482.7604 1033.8542,574.2057 1033.8542,620.4818 " fill="none" id="apiserver-backto-kubelet2" style="stroke:#FF0000;stroke-width:1.3020833333333333;"/><polygon fill="#FF0000" points="1033.8542,425.3255,1028.6458,437.0443,1033.8542,431.8359,1039.0625,437.0443,1033.8542,425.3255" style="stroke:#FF0000;stroke-width:1.3020833333333333;"/></g><!--reverse link apiserver to kubelet3--><g id="link_apiserver_kubelet3"><path d="M1003.8672,429.2318 C983.3984,449.7266 954.4141,474.1536 923.1771,486.0156 C865.7812,507.8125 423.6979,476.4974 371.0938,508.151 C329.8828,532.9557 307.2266,586.9141 296.6667,620.3776 " fill="none" id="apiserver-backto-kubelet3" style="stroke:#FF0000;stroke-width:1.3020833333333333;"/><polygon fill="#FF0000" points="1007.5781,425.4167,995.656,430.1409,1003.0213,430.0665,1003.0957,437.4318,1007.5781,425.4167" style="stroke:#FF0000;stroke-width:1.3020833333333333;"/></g><!--SRC=[ZLDDZzCm4BtxLupImy8X5N7KHK9LfUvA5HnOhKGH5ovkOh9M73jo7CgoweKJDwxm2zWBHtvI4J-3iPFD1-rgDoVxpNipupUJAXUgP8OLO9ZAAru2VKQg3anB0H6T3P2I9JdB-5fOoPTIPAhWoeBa7-o0bEYYrCe5RWZ0IYlxHdpc4CLuEpd339dHjKhFjTHcFbzYpYk-MC2bK3c14pZJ9kNc_-XajJezdSqSmMMyO0M7SrqRmGsc7MXW8x64JpGk1PcMANANnkXjb-DLWHNi7TmG3H_n6d3ot7zaHreJ87XRSHC0i0fgFDsG_k5vlU69bJ2vvbBgxI0I_FdzxU_Fh_iVjq4NtH6ICiishCAat2Of9BAkB3VmNi6J_Q_l-o-tJmDNnmL9ty1hvbaNEkLLW6uhF8pGsAiA3yGmx32OJgTDCCRw1q8w4D9xX1I500VIQ22D_0h0O2K2Pqt8Ie6EVNJs8RUxmQITqQ4YmK4OBIKtOS4KlhwHzl1HLONBazQo9NStp-rkeH7PbGt3HTT7cwkhw1Py52V8mAcvoU7NMF1Ectna-zO3iRTWl1gIMqTeZp4vRBmq-jDrS4VoDqSpk5LCPP93gTFMsnvp7JEXqFRx0jJtlJlic0uwfWzsJCaZ-gN7waI3Ej63TQB7EHFvEVHhD0_3kWpTFmdm0bwkrvUaNx5ksitFr0TGrTSz2jFZSFmF]--></g></svg>