<?xml version="1.0" encoding="us-ascii" standalone="no"?><svg xmlns="http://www.w3.org/2000/svg" xmlns:xlink="http://www.w3.org/1999/xlink" contentStyleType="text/css" height="626px" preserveAspectRatio="none" style="width:959px;height:626px;background:#FFFFFF;" version="1.1" viewBox="0 0 959 626" width="959px" zoomAndPan="magnify"><defs/><g><rect fill="#F1F1F1" height="36.2969" rx="12.5" ry="12.5" style="stroke:#181818;stroke-width:1.5;" width="45" x="10" y="294.3203"/><text fill="#000000" font-family="sans-serif" font-size="14" lengthAdjust="spacing" textLength="25" x="20" y="317.3154">k8s</text><rect fill="#90EE90" height="36.2969" rx="12.5" ry="12.5" style="stroke:#181818;stroke-width:1.5;" width="52" x="105" y="20"/><text fill="#000000" font-family="sans-serif" font-size="14" lengthAdjust="spacing" textLength="28" x="115" y="42.9951">&#30446;&#30340;</text><text fill="#000000" font-family="sans-serif" font-size="14" lengthAdjust="spacing" textLength="272" x="210" y="42.9951">&#23545;&#24320;&#21457;&#32773;&#35831;&#27714;&#30340;N&#20010;&#24212;&#29992;&#37096;&#32626;&#21040;&#26381;&#21153;&#22120;(&#33410;&#28857;)</text><path d="M157,38.1484 L167,38.1484 C182,38.1484 182,38.1484 197,38.1484 L207,38.1484 " fill="none" style="stroke:#181818;stroke-width:1.0;"/><path d="M55,312.4688 L65,312.4688 C80,312.4688 80,38.1484 95,38.1484 L105,38.1484 " fill="none" style="stroke:#181818;stroke-width:1.0;"/><rect fill="#FFBBCC" height="36.2969" rx="12.5" ry="12.5" style="stroke:#181818;stroke-width:1.5;" width="136" x="105" y="144.0781"/><text fill="#000000" font-family="sans-serif" font-size="14" lengthAdjust="spacing" textLength="112" x="115" y="167.0732">&#20026;&#20102;&#36798;&#21040;&#36825;&#20010;&#30446;&#30340;</text><rect fill="#FFFF00" height="52.5938" rx="12.5" ry="12.5" style="stroke:#181818;stroke-width:1.5;" width="192" x="291" y="66.7422"/><text fill="#000000" font-family="sans-serif" font-size="14" lengthAdjust="spacing" textLength="117" x="301" y="89.7373">&#21709;&#24212;&#24320;&#21457;&#32773;&#30340;&#35831;&#27714;:</text><text fill="#000000" font-family="sans-serif" font-size="14" lengthAdjust="spacing" textLength="168" x="301" y="106.0342">&#35753;&#25511;&#21046;&#33410;&#28857;&#19987;&#38376;&#20570;&#36825;&#20010;&#20107;&#24773;</text><text fill="#000000" font-family="sans-serif" font-size="14" lengthAdjust="spacing" textLength="84" x="536" y="61.292">&#38656;&#35201;&#26657;&#39564;&#35831;&#27714;</text><path d="M483,93.0391 L493,93.0391 C508,93.0391 508,56.4453 523,56.4453 L533,56.4453 " fill="none" style="stroke:#181818;stroke-width:1.0;"/><text fill="#000000" font-family="sans-serif" font-size="14" lengthAdjust="spacing" textLength="196" x="536" y="79.5889">&#24320;&#21457;&#32773;&#38656;&#35201;&#37096;&#32626;&#19981;&#21516;&#31867;&#22411;&#30340;&#24212;&#29992;</text><text fill="#000000" font-family="sans-serif" font-size="14" lengthAdjust="spacing" textLength="162" x="785" y="70.4404">&#36127;&#36733;&#22343;&#34913;, nginx web&#26381;&#21153;</text><path d="M732,74.7422 L742,74.7422 C757,74.7422 757,65.5938 772,65.5938 L782,65.5938 " fill="none" style="stroke:#181818;stroke-width:1.0;"/><text fill="#000000" font-family="sans-serif" font-size="14" lengthAdjust="spacing" textLength="158" x="785" y="88.7373">&#38598;&#32676;&#31867;&#30340;, &#27604;&#22914;redis &#38598;&#32676;</text><path d="M732,74.7422 L742,74.7422 C757,74.7422 757,83.8906 772,83.8906 L782,83.8906 " fill="none" style="stroke:#181818;stroke-width:1.0;"/><path d="M483,93.0391 L493,93.0391 C508,93.0391 508,74.7422 523,74.7422 L533,74.7422 " fill="none" style="stroke:#181818;stroke-width:1.0;"/><text fill="#000000" font-family="sans-serif" font-size="14" lengthAdjust="spacing" textLength="140" x="536" y="97.8857">&#38656;&#35201;&#23545;&#25968;&#25454;&#36827;&#34892;&#25345;&#20037;&#21270;</text><path d="M483,93.0391 L493,93.0391 C508,93.0391 508,93.0391 523,93.0391 L533,93.0391 " fill="none" style="stroke:#181818;stroke-width:1.0;"/><text fill="#000000" font-family="sans-serif" font-size="14" lengthAdjust="spacing" textLength="190" x="536" y="116.1826">&#38656;&#35201;&#30830;&#23450;&#37096;&#32626;&#21040;&#21738;&#20010;node&#33410;&#28857;</text><path d="M483,93.0391 L493,93.0391 C508,93.0391 508,111.3359 523,111.3359 L533,111.3359 " fill="none" style="stroke:#181818;stroke-width:1.0;"/><text fill="#000000" font-family="sans-serif" font-size="14" lengthAdjust="spacing" textLength="154" x="536" y="134.4795">&#30830;&#20445;&#37096;&#32626;&#30340;&#24212;&#29992;&#36798;&#21040;&#39044;&#26399;</text><path d="M483,93.0391 L493,93.0391 C508,93.0391 508,129.6328 523,129.6328 L533,129.6328 " fill="none" style="stroke:#181818;stroke-width:1.0;"/><path d="M241,162.2266 L251,162.2266 C266,162.2266 266,93.0391 281,93.0391 L291,93.0391 " fill="none" style="stroke:#181818;stroke-width:1.0;"/><rect fill="#ADD8E6" height="52.5938" rx="12.5" ry="12.5" style="stroke:#181818;stroke-width:1.5;" width="122" x="291" y="181.6719"/><text fill="#000000" font-family="sans-serif" font-size="14" lengthAdjust="spacing" textLength="56" x="301" y="204.667">&#24212;&#29992;&#37096;&#32626;</text><text fill="#000000" font-family="sans-serif" font-size="14" lengthAdjust="spacing" textLength="98" x="301" y="220.9639">&#35753;&#24037;&#20316;&#33410;&#28857;&#26469;&#20570;</text><text fill="#000000" font-family="sans-serif" font-size="14" lengthAdjust="spacing" textLength="4" x="466" y="152.7764">&#160;</text><text fill="#000000" font-family="sans-serif" font-size="14" lengthAdjust="spacing" textLength="228" x="466" y="169.0732">&#38656;&#35201;&#30417;&#21548;&#24212;&#29992;&#30340;&#29366;&#24577;,&#19978;&#25253;&#32473;&#25511;&#21046;&#33410;&#28857;</text><path d="M413,207.9688 L423,207.9688 C438,207.9688 438,156.0781 453,156.0781 L463,156.0781 " fill="none" style="stroke:#181818;stroke-width:1.0;"/><text fill="#000000" font-family="sans-serif" font-size="14" lengthAdjust="spacing" textLength="4" x="466" y="187.3701">&#160;</text><text fill="#000000" font-family="sans-serif" font-size="14" lengthAdjust="spacing" textLength="130" x="466" y="203.667">&#25289;&#21462;&#23481;&#22120;&#38236;&#20687;,&#21551;&#21160;&#31561;</text><text fill="#000000" font-family="sans-serif" font-size="14" lengthAdjust="spacing" textLength="4" x="466" y="219.9639">&#160;</text><path d="M413,207.9688 L423,207.9688 C438,207.9688 438,198.8203 453,198.8203 L463,198.8203 " fill="none" style="stroke:#181818;stroke-width:1.0;"/><text fill="#000000" font-family="sans-serif" font-size="14" lengthAdjust="spacing" textLength="255" x="466" y="238.2607">&#35775;&#38382;&#36127;&#36733;&#22343;&#34913;&#30340;&#24212;&#29992;&#26102;,&#21040;&#24213;&#35775;&#38382;&#21738;&#20010;pod</text><path d="M413,207.9688 L423,207.9688 C438,207.9688 438,233.4141 453,233.4141 L463,233.4141 " fill="none" style="stroke:#181818;stroke-width:1.0;"/><text fill="#000000" font-family="sans-serif" font-size="14" lengthAdjust="spacing" textLength="4" x="466" y="256.5576">&#160;</text><text fill="#000000" font-family="sans-serif" font-size="14" lengthAdjust="spacing" textLength="56" x="466" y="272.8545">&#22495;&#21517;&#35299;&#26512;</text><path d="M413,207.9688 L423,207.9688 C438,207.9688 438,259.8594 453,259.8594 L463,259.8594 " fill="none" style="stroke:#181818;stroke-width:1.0;"/><path d="M241,162.2266 L251,162.2266 C266,162.2266 266,207.9688 281,207.9688 L291,207.9688 " fill="none" style="stroke:#181818;stroke-width:1.0;"/><path d="M55,312.4688 L65,312.4688 C80,312.4688 80,162.2266 95,162.2266 L105,162.2266 " fill="none" style="stroke:#181818;stroke-width:1.0;"/><rect fill="#FFD700" height="36.2969" rx="12.5" ry="12.5" style="stroke:#181818;stroke-width:1.5;" width="90" x="105" y="427.8984"/><text fill="#000000" font-family="sans-serif" font-size="14" lengthAdjust="spacing" textLength="70" x="115" y="450.8936">&#26368;&#32456;&#30340;&#35774;&#35745;</text><rect fill="#F1F1F1" height="36.2969" rx="12.5" ry="12.5" style="stroke:#181818;stroke-width:1.5;" width="191" x="245" y="287.1563"/><text fill="#000000" font-family="sans-serif" font-size="14" lengthAdjust="spacing" textLength="171" x="255" y="310.1514">&#29992;&#25143;&#29992;yaml&#25991;&#20214;&#26469;&#25551;&#36848;&#35831;&#27714;</text><path d="M195,446.0469 L205,446.0469 C220,446.0469 220,305.3047 235,305.3047 L245,305.3047 " fill="none" style="stroke:#181818;stroke-width:1.0;"/><rect fill="#FFFF00" height="36.2969" rx="12.5" ry="12.5" style="stroke:#181818;stroke-width:1.5;" width="80" x="245" y="399.75"/><text fill="#000000" font-family="sans-serif" font-size="14" lengthAdjust="spacing" textLength="56" x="255" y="422.7451">&#25511;&#21046;&#33410;&#28857;</text><rect fill="#F1F1F1" height="36.2969" rx="12.5" ry="12.5" style="stroke:#181818;stroke-width:1.5;" width="83" x="375" y="343.4531"/><text fill="#000000" font-family="sans-serif" font-size="14" lengthAdjust="spacing" textLength="63" x="385" y="366.4482">apiserver</text><text fill="#000000" font-family="sans-serif" font-size="14" lengthAdjust="spacing" textLength="126" x="511" y="357.2998">&#25509;&#25910;&#29992;&#25143;&#21457;&#36215;&#30340;&#35831;&#27714;</text><path d="M458,361.6016 L468,361.6016 C483,361.6016 483,352.4531 498,352.4531 L508,352.4531 " fill="none" style="stroke:#181818;stroke-width:1.0;"/><text fill="#000000" font-family="sans-serif" font-size="14" lengthAdjust="spacing" textLength="28" x="511" y="375.5967">&#39564;&#35777;</text><path d="M458,361.6016 L468,361.6016 C483,361.6016 483,370.75 498,370.75 L508,370.75 " fill="none" style="stroke:#181818;stroke-width:1.0;"/><path d="M325,417.8984 L335,417.8984 C350,417.8984 350,361.6016 365,361.6016 L375,361.6016 " fill="none" style="stroke:#181818;stroke-width:1.0;"/><rect fill="#F1F1F1" height="36.2969" rx="12.5" ry="12.5" style="stroke:#181818;stroke-width:1.5;" width="51" x="375" y="399.75"/><text fill="#000000" font-family="sans-serif" font-size="14" lengthAdjust="spacing" textLength="31" x="385" y="422.7451">etcd</text><text fill="#000000" font-family="sans-serif" font-size="14" lengthAdjust="spacing" textLength="70" x="479" y="422.7451">&#25968;&#25454;&#25345;&#20037;&#21270;</text><path d="M426,417.8984 L436,417.8984 C451,417.8984 451,417.8984 466,417.8984 L476,417.8984 " fill="none" style="stroke:#181818;stroke-width:1.0;"/><path d="M325,417.8984 L335,417.8984 C350,417.8984 350,417.8984 365,417.8984 L375,417.8984 " fill="none" style="stroke:#181818;stroke-width:1.0;"/><rect fill="#F1F1F1" height="36.2969" rx="12.5" ry="12.5" style="stroke:#181818;stroke-width:1.5;" width="191" x="375" y="456.0469"/><text fill="#000000" font-family="sans-serif" font-size="14" lengthAdjust="spacing" textLength="171" x="385" y="479.042">kube-controller-manager</text><text fill="#000000" font-family="sans-serif" font-size="14" lengthAdjust="spacing" textLength="151" x="619" y="479.042">deployment controller</text><path d="M566,474.1953 L576,474.1953 C591,474.1953 591,474.1953 606,474.1953 L616,474.1953 " fill="none" style="stroke:#181818;stroke-width:1.0;"/><path d="M325,417.8984 L335,417.8984 C350,417.8984 350,474.1953 365,474.1953 L375,474.1953 " fill="none" style="stroke:#181818;stroke-width:1.0;"/><path d="M195,446.0469 L205,446.0469 C220,446.0469 220,417.8984 235,417.8984 L245,417.8984 " fill="none" style="stroke:#181818;stroke-width:1.0;"/><rect fill="#ADD8E6" height="36.2969" rx="12.5" ry="12.5" style="stroke:#181818;stroke-width:1.5;" width="80" x="245" y="540.4922"/><text fill="#000000" font-family="sans-serif" font-size="14" lengthAdjust="spacing" textLength="56" x="255" y="563.4873">&#24037;&#20316;&#33410;&#28857;</text><rect fill="#F1F1F1" height="36.2969" rx="12.5" ry="12.5" style="stroke:#181818;stroke-width:1.5;" width="72" x="375" y="512.3438"/><text fill="#000000" font-family="sans-serif" font-size="14" lengthAdjust="spacing" textLength="52" x="385" y="535.3389">kubelet</text><path d="M325,558.6406 L335,558.6406 C350,558.6406 350,530.4922 365,530.4922 L375,530.4922 " fill="none" style="stroke:#181818;stroke-width:1.0;"/><rect fill="#F1F1F1" height="36.2969" rx="12.5" ry="12.5" style="stroke:#181818;stroke-width:1.5;" width="97" x="375" y="568.6406"/><text fill="#000000" font-family="sans-serif" font-size="14" lengthAdjust="spacing" textLength="77" x="385" y="591.6357">kube-proxy</text><path d="M325,558.6406 L335,558.6406 C350,558.6406 350,586.7891 365,586.7891 L375,586.7891 " fill="none" style="stroke:#181818;stroke-width:1.0;"/><path d="M195,446.0469 L205,446.0469 C220,446.0469 220,558.6406 235,558.6406 L245,558.6406 " fill="none" style="stroke:#181818;stroke-width:1.0;"/><path d="M55,312.4688 L65,312.4688 C80,312.4688 80,446.0469 95,446.0469 L105,446.0469 " fill="none" style="stroke:#181818;stroke-width:1.0;"/><!--SRC=[VLHjJzDG5FxUNt4Ily0oKAQ9P19Y6692m1ZVlffklTQ6hbsw5bqCoSQxOtCpl0KOu5HW4YreT8mXxC_qtdR_mjlUhOn4_RAiESzvdlESy-JUJUgyfiSbHOZp2MuWgQTaDCYrleSbNjJuEBpX07f53I75-mimnCScH4qr526Yoge6iYI-r3q0BK-vQ4rDed-0husC30r58csarnkL3VG_RhVURaWXMLPV_HtCQcsagCh2tt5knKDDSGFNMwO3CD6Vv081iBTCUtCM1WOyHuEq4WWy1tnqYd-dSU6zavvpZax8zsaAUc3L3d5znLwfD6SgzlaFl7XCIdcSBUEDIfUJdRQdJxjTIgjMj-hppiK51JYD3ThbYxYROXfXl9odPBuAhJEXCEUONyYx0xnOPPnMRRcvNi6PJSPbrPV8p1pbOlO71- -uT7JcPYdjx6V8XtBpCCUeMWLVWo7Oy5OjZuiv-_iPtbcYsioNrq0xd9-xplavtbvmokKWAAAal8PNAChSja7DhNdxuZDbeEr184ShU7zQGuAKR5MkZ4KNIbQFITvq6bjEEKTo6Ujq3kVMhe3iiedDJN-vUFcG-bLK0R55jB0KPJMs6SgVd6sx-N6Mb7RPUZiEvMuKd-nPvoL6HBRtw3hf2lsu-LiCSwrHjjxZubT6GaNiR9MaCq6hbYNPFVjie_C-VYTPUeiBQzWyfNbehfRmJ268YqSuMx6_lUNQLtBCHdFTx5omxu6iLuEkxVeg0p7_2LLe2-3TNLpCEmUVo4xHvGDIIjjdYsvqp0l7BDCGqwYpV85Bk7X2VrDyN2Ph2zPPbVecXOBJEBwC1tGwwGYL9mbyGaeYRH9fxPkJTtjafSgetKpzEl5pwyV2JL-6zICz9lYjtlcl7XucZ2ZgYQcAhgcoZBIUEA_mugMSW1AoceeZHOTBa3Tsvpcl7lAIM4PwXqf2Kr-dkBk8FdQj1v1xAFEA_dHy3AZ3fAGgqDSRkX6wsNkxQqIJO9nFGLy8-cw7GpV3jqBmz4a4t78trtN_uHWaLKEB8Q1vrpKfQkYqlviRvITvU6GekXH7OL0CMUP6dus7uR4HfJ1UH_1id1j6BtX3rk6U4bC5IH73b7gafvyRunNHeFPRZH7wWkbQYdtz0G00]--></g></svg>