<?xml version="1.0" encoding="us-ascii" standalone="no"?><svg xmlns="http://www.w3.org/2000/svg" xmlns:xlink="http://www.w3.org/1999/xlink" contentStyleType="text/css" height="732px" preserveAspectRatio="none" style="width:1471px;height:732px;background:#FFFFFF;" version="1.1" viewBox="0 0 1471 732" width="1471px" zoomAndPan="magnify"><defs/><g><rect fill="#F1F1F1" height="36.2969" rx="12.5" ry="12.5" style="stroke:#181818;stroke-width:1.5;" width="45" x="10" y="347.1016"/><text fill="#000000" font-family="sans-serif" font-size="14" lengthAdjust="spacing" textLength="25" x="20" y="370.0967">k8s</text><rect fill="#F1F1F1" height="36.2969" rx="12.5" ry="12.5" style="stroke:#181818;stroke-width:1.5;" width="145" x="105" y="20"/><text fill="#000000" font-family="sans-serif" font-size="14" lengthAdjust="spacing" textLength="125" x="115" y="42.9951">kubectl &#21629;&#20196;&#34892;&#24037;&#20855;</text><text fill="#000000" font-family="sans-serif" font-size="14" lengthAdjust="spacing" textLength="345" x="303" y="33.8467">kubectl&#20197;&#21629;&#20196;&#34892;&#20132;&#20114;&#30340;&#26041;&#24335;&#23545;k8s API Server&#36827;&#34892;&#25805;&#20316;</text><path d="M250,38.1484 L260,38.1484 C275,38.1484 275,29 290,29 L300,29 " fill="none" style="stroke:#181818;stroke-width:1.0;"/><text fill="#000000" font-family="sans-serif" font-size="14" lengthAdjust="spacing" textLength="408" x="303" y="52.1436">&#21457;&#36865;http&#35831;&#27714;,kube-apiserver &#25509;&#25910;&#35831;&#27714;,&#22788;&#29702;,&#36820;&#22238;&#32467;&#26524;&#32473;kubectl</text><path d="M250,38.1484 L260,38.1484 C275,38.1484 275,47.2969 290,47.2969 L300,47.2969 " fill="none" style="stroke:#181818;stroke-width:1.0;"/><path d="M55,365.25 L65,365.25 C80,365.25 80,38.1484 95,38.1484 L105,38.1484 " fill="none" style="stroke:#181818;stroke-width:1.0;"/><rect fill="#FFFF00" height="36.2969" rx="12.5" ry="12.5" style="stroke:#181818;stroke-width:1.5;" width="112" x="105" y="184.0781"/><text fill="#000000" font-family="sans-serif" font-size="14" lengthAdjust="spacing" textLength="88" x="115" y="207.0732">master node</text><rect fill="#FFBBCC" height="36.2969" rx="12.5" ry="12.5" style="stroke:#181818;stroke-width:1.5;" width="127" x="267" y="84.7422"/><text fill="#000000" font-family="sans-serif" font-size="14" lengthAdjust="spacing" textLength="103" x="277" y="107.7373">kube-apiserver</text><text fill="#000000" font-family="sans-serif" font-size="14" lengthAdjust="spacing" textLength="289" x="447" y="80.292">&#38598;&#32676;&#30340;HTTP REST API&#25509;&#21475;,&#26159;&#38598;&#32676;&#25511;&#21046;&#30340;&#20837;&#21475;</text><path d="M394,102.8906 L404,102.8906 C419,102.8906 419,75.4453 434,75.4453 L444,75.4453 " fill="none" style="stroke:#181818;stroke-width:1.0;"/><text fill="#000000" font-family="sans-serif" font-size="14" lengthAdjust="spacing" textLength="456" x="447" y="98.5889">&#23558;k8s "&#36164;&#28304;&#32452;/&#36164;&#28304;&#29256;&#26412;/&#36164;&#28304;" &#20197;RESTful&#39118;&#26684;&#30340;&#24418;&#24335;&#23545;&#22806;&#26292;&#38706;&#24182;&#25552;&#20379;&#26381;&#21153;</text><path d="M394,102.8906 L404,102.8906 C419,102.8906 419,93.7422 434,93.7422 L444,93.7422 " fill="none" style="stroke:#181818;stroke-width:1.0;"/><text fill="#000000" font-family="sans-serif" font-size="14" lengthAdjust="spacing" textLength="608" x="447" y="116.8857">k8s&#38598;&#32676;&#20013;&#30340;&#25152;&#26377;&#32452;&#20214;&#37117;&#36890;&#36807;kube-apiserver&#32452;&#20214;&#25805;&#20316;&#36164;&#28304;&#23545;&#35937;,&#20063;&#36890;&#36807;&#23427;&#35753;&#21508;&#32452;&#20214;&#21487;&#20197;&#36890;&#20449;&#21644;&#20132;&#20114;</text><path d="M394,102.8906 L404,102.8906 C419,102.8906 419,112.0391 434,112.0391 L444,112.0391 " fill="none" style="stroke:#181818;stroke-width:1.0;"/><text fill="#000000" font-family="sans-serif" font-size="14" lengthAdjust="spacing" textLength="428" x="447" y="135.1826">kube-apiserver&#32452;&#20214;&#20063;&#26159;&#38598;&#32676;&#20013;&#21807;&#19968;&#19982;Etcd&#38598;&#32676;&#36827;&#34892;&#20132;&#20114;&#30340;&#26680;&#24515;&#32452;&#20214;</text><path d="M394,102.8906 L404,102.8906 C419,102.8906 419,130.3359 434,130.3359 L444,130.3359 " fill="none" style="stroke:#181818;stroke-width:1.0;"/><path d="M217,202.2266 L227,202.2266 C242,202.2266 242,102.8906 257,102.8906 L267,102.8906 " fill="none" style="stroke:#181818;stroke-width:1.0;"/><rect fill="#F1F1F1" height="36.2969" rx="12.5" ry="12.5" style="stroke:#181818;stroke-width:1.5;" width="191" x="267" y="184.0781"/><text fill="#000000" font-family="sans-serif" font-size="14" lengthAdjust="spacing" textLength="171" x="277" y="207.0732">kube-controller-manager</text><text fill="#000000" font-family="sans-serif" font-size="14" lengthAdjust="spacing" textLength="238" x="511" y="153.4795">&#38598;&#32676;&#20013;&#25152;&#26377;&#36164;&#28304;&#23545;&#35937;&#30340;&#33258;&#21160;&#21270;&#25511;&#21046;&#20013;&#24515;</text><path d="M458,202.2266 L468,202.2266 C483,202.2266 483,148.6328 498,148.6328 L508,148.6328 " fill="none" style="stroke:#181818;stroke-width:1.0;"/><rect fill="#F1F1F1" height="36.2969" rx="12.5" ry="12.5" style="stroke:#181818;stroke-width:1.5;" width="90" x="508" y="167.7813"/><text fill="#000000" font-family="sans-serif" font-size="14" lengthAdjust="spacing" textLength="70" x="518" y="190.7764">&#21508;&#31181;&#25511;&#21046;&#22120;</text><text fill="#000000" font-family="sans-serif" font-size="14" lengthAdjust="spacing" textLength="123" x="651" y="172.4795">namespace&#25511;&#21046;&#22120;</text><path d="M598,185.9297 L608,185.9297 C623,185.9297 623,167.6328 638,167.6328 L648,167.6328 " fill="none" style="stroke:#181818;stroke-width:1.0;"/><text fill="#000000" font-family="sans-serif" font-size="14" lengthAdjust="spacing" textLength="124" x="651" y="190.7764">deployment&#25511;&#21046;&#22120;</text><path d="M598,185.9297 L608,185.9297 C623,185.9297 623,185.9297 638,185.9297 L648,185.9297 " fill="none" style="stroke:#181818;stroke-width:1.0;"/><text fill="#000000" font-family="sans-serif" font-size="14" lengthAdjust="spacing" textLength="12" x="651" y="209.0732">...</text><path d="M598,185.9297 L608,185.9297 C623,185.9297 623,204.2266 638,204.2266 L648,204.2266 " fill="none" style="stroke:#181818;stroke-width:1.0;"/><path d="M458,202.2266 L468,202.2266 C483,202.2266 483,185.9297 498,185.9297 L508,185.9297 " fill="none" style="stroke:#181818;stroke-width:1.0;"/><text fill="#000000" font-family="sans-serif" font-size="14" lengthAdjust="spacing" textLength="525" x="515" y="228.0732">&#27599;&#20010;&#25511;&#21046;&#22120;&#36890;&#36807;apiserver&#32452;&#20214;&#25552;&#20379;&#30340;&#25509;&#21475;&#23454;&#26102;&#30417;&#25511;&#25972;&#20010;&#38598;&#32676;&#27599;&#20010;&#36164;&#28304;&#23545;&#35937;&#30340;&#24403;&#21069;&#29366;&#24577;</text><text fill="#000000" font-family="sans-serif" font-size="14" lengthAdjust="spacing" textLength="284" x="511" y="244.3701">&#24403;&#22240;&#21457;&#29983;&#21508;&#31181;&#25925;&#38556;&#32780;&#23548;&#33268;&#31995;&#32479;&#29366;&#24577;&#20986;&#29616;&#21464;&#21270;&#26102;,</text><text fill="#000000" font-family="sans-serif" font-size="14" lengthAdjust="spacing" textLength="220" x="511" y="260.667">&#20250;&#23581;&#35797;&#23558;&#31995;&#32479;&#29366;&#24577;&#20462;&#22797;&#21040;"&#26399;&#26395;&#29366;&#24577;"</text><path d="M458,202.2266 L468,202.2266 C483,202.2266 483,239.5234 498,239.5234 L508,239.5234 " fill="none" style="stroke:#181818;stroke-width:1.0;"/><path d="M217,202.2266 L227,202.2266 C242,202.2266 242,202.2266 257,202.2266 L267,202.2266 " fill="none" style="stroke:#181818;stroke-width:1.0;"/><rect fill="#F1F1F1" height="36.2969" rx="12.5" ry="12.5" style="stroke:#181818;stroke-width:1.5;" width="129" x="267" y="283.4141"/><text fill="#000000" font-family="sans-serif" font-size="14" lengthAdjust="spacing" textLength="109" x="277" y="306.4092">kube-scheduler</text><text fill="#000000" font-family="sans-serif" font-size="14" lengthAdjust="spacing" textLength="195" x="449" y="278.9639">&#38598;&#32676;&#20013;Pod&#36164;&#28304;&#23545;&#35937;&#30340;&#35843;&#24230;&#26381;&#21153;</text><path d="M396,301.5625 L406,301.5625 C421,301.5625 421,274.1172 436,274.1172 L446,274.1172 " fill="none" style="stroke:#181818;stroke-width:1.0;"/><text fill="#000000" font-family="sans-serif" font-size="14" lengthAdjust="spacing" textLength="209" x="449" y="297.2607">&#19968;&#20010;Pod&#36164;&#28304;&#23545;&#35937;&#25214;&#21040;&#21512;&#36866;&#30340;&#33410;&#28857;</text><path d="M396,301.5625 L406,301.5625 C421,301.5625 421,292.4141 436,292.4141 L446,292.4141 " fill="none" style="stroke:#181818;stroke-width:1.0;"/><text fill="#000000" font-family="sans-serif" font-size="14" lengthAdjust="spacing" textLength="223" x="449" y="315.5576">&#35843;&#24230;&#22120;&#27599;&#27425;&#21482;&#35843;&#24230;&#19968;&#20010;Pod&#36164;&#28304;&#23545;&#35937;</text><path d="M396,301.5625 L406,301.5625 C421,301.5625 421,310.7109 436,310.7109 L446,310.7109 " fill="none" style="stroke:#181818;stroke-width:1.0;"/><text fill="#000000" font-family="sans-serif" font-size="14" lengthAdjust="spacing" textLength="288" x="449" y="333.8545">&#30417;&#25511;&#25972;&#20010;&#38598;&#32676;&#30340;Pod&#36164;&#28304;&#23545;&#35937;&#21644;Node&#36164;&#28304;&#23545;&#35937;</text><path d="M396,301.5625 L406,301.5625 C421,301.5625 421,329.0078 436,329.0078 L446,329.0078 " fill="none" style="stroke:#181818;stroke-width:1.0;"/><path d="M217,202.2266 L227,202.2266 C242,202.2266 242,301.5625 257,301.5625 L267,301.5625 " fill="none" style="stroke:#181818;stroke-width:1.0;"/><path d="M55,365.25 L65,365.25 C80,365.25 80,202.2266 95,202.2266 L105,202.2266 " fill="none" style="stroke:#181818;stroke-width:1.0;"/><rect fill="#ADD8E6" height="36.2969" rx="12.5" ry="12.5" style="stroke:#181818;stroke-width:1.5;" width="111" x="105" y="511.1797"/><text fill="#000000" font-family="sans-serif" font-size="14" lengthAdjust="spacing" textLength="87" x="115" y="534.1748">worker node</text><rect fill="#F1F1F1" height="36.2969" rx="12.5" ry="12.5" style="stroke:#181818;stroke-width:1.5;" width="72" x="266" y="439.2891"/><text fill="#000000" font-family="sans-serif" font-size="14" lengthAdjust="spacing" textLength="52" x="276" y="462.2842">kubelet</text><text fill="#000000" font-family="sans-serif" font-size="14" lengthAdjust="spacing" textLength="498" x="391" y="352.1514">&#36127;&#36131;&#31649;&#29702;&#33410;&#28857;&#19978;pod&#36164;&#28304;&#23545;&#35937;&#30340;&#21019;&#24314;&#12289;&#21024;&#38500;&#12289;&#21551;&#20572;&#31561;&#20219;&#21153;,&#19982;Master&#33410;&#28857;&#36827;&#34892;&#36890;&#20449;</text><path d="M338,457.4375 L348,457.4375 C363,457.4375 363,347.3047 378,347.3047 L388,347.3047 " fill="none" style="stroke:#181818;stroke-width:1.0;"/><text fill="#000000" font-family="sans-serif" font-size="14" lengthAdjust="spacing" textLength="313" x="391" y="370.4482">&#25509;&#25910;&#12289;&#22788;&#29702;&#12289;&#19978;&#25253;kube-apiserver&#32452;&#20214;&#19979;&#21457;&#30340;&#20219;&#21153;</text><path d="M338,457.4375 L348,457.4375 C363,457.4375 363,365.6016 378,365.6016 L388,365.6016 " fill="none" style="stroke:#181818;stroke-width:1.0;"/><rect fill="#F1F1F1" height="36.2969" rx="12.5" ry="12.5" style="stroke:#181818;stroke-width:1.5;" width="141" x="388" y="457.5859"/><text fill="#000000" font-family="sans-serif" font-size="14" lengthAdjust="spacing" textLength="121" x="398" y="480.5811">&#23454;&#29616;&#20102;3&#31181;&#24320;&#25918;&#25509;&#21475;</text><rect fill="#F1F1F1" height="36.2969" rx="12.5" ry="12.5" style="stroke:#181818;stroke-width:1.5;" width="43" x="579" y="393.1953"/><text fill="#000000" font-family="sans-serif" font-size="14" lengthAdjust="spacing" textLength="23" x="589" y="416.1904">CRI</text><text fill="#000000" font-family="sans-serif" font-size="14" lengthAdjust="spacing" textLength="295" x="675" y="388.7451">Container Runtime Interface &#23481;&#22120;&#36816;&#34892;&#26102;&#25509;&#21475;</text><path d="M622,411.3438 L632,411.3438 C647,411.3438 647,383.8984 662,383.8984 L672,383.8984 " fill="none" style="stroke:#181818;stroke-width:1.0;"/><text fill="#000000" font-family="sans-serif" font-size="14" lengthAdjust="spacing" textLength="210" x="675" y="407.042">&#25552;&#20379;&#23481;&#22120;&#36816;&#34892;&#26102;&#36890;&#29992;&#25554;&#20214;&#25509;&#21475;&#26381;&#21153;</text><path d="M622,411.3438 L632,411.3438 C647,411.3438 647,402.1953 662,402.1953 L672,402.1953 " fill="none" style="stroke:#181818;stroke-width:1.0;"/><text fill="#000000" font-family="sans-serif" font-size="14" lengthAdjust="spacing" textLength="182" x="675" y="425.3389">&#23450;&#20041;&#20102;&#23481;&#22120;&#21644;&#38236;&#20687;&#26381;&#21153;&#30340;&#25509;&#21475;</text><path d="M622,411.3438 L632,411.3438 C647,411.3438 647,420.4922 662,420.4922 L672,420.4922 " fill="none" style="stroke:#181818;stroke-width:1.0;"/><text fill="#000000" font-family="sans-serif" font-size="14" lengthAdjust="spacing" textLength="784" x="675" y="443.6357">&#23558;&#21407;&#26469;&#23436;&#20840;&#38754;&#21521;Pod&#32423;&#21035;&#30340;&#20869;&#37096;&#25509;&#21475;&#25286;&#20998;&#25104;&#38754;&#21521;Sandbox&#21644;Container&#30340;gRPC&#25509;&#21475;,&#24182;&#23558;&#38236;&#20687;&#31649;&#29702;&#21644;&#23481;&#22120;&#31649;&#29702;&#20998;&#31163;&#32473;&#19981;&#21516;&#30340;&#26381;&#21153;</text><path d="M622,411.3438 L632,411.3438 C647,411.3438 647,438.7891 662,438.7891 L672,438.7891 " fill="none" style="stroke:#181818;stroke-width:1.0;"/><path d="M529,475.7344 L539,475.7344 C554,475.7344 554,411.3438 569,411.3438 L579,411.3438 " fill="none" style="stroke:#181818;stroke-width:1.0;"/><rect fill="#F1F1F1" height="36.2969" rx="12.5" ry="12.5" style="stroke:#181818;stroke-width:1.5;" width="43" x="579" y="466.3828"/><text fill="#000000" font-family="sans-serif" font-size="14" lengthAdjust="spacing" textLength="23" x="589" y="489.3779">CNI</text><text fill="#000000" font-family="sans-serif" font-size="14" lengthAdjust="spacing" textLength="280" x="675" y="461.9326">Container Network Interface &#23481;&#22120;&#32593;&#32476;&#25509;&#21475;</text><path d="M622,484.5313 L632,484.5313 C647,484.5313 647,457.0859 662,457.0859 L672,457.0859 " fill="none" style="stroke:#181818;stroke-width:1.0;"/><text fill="#000000" font-family="sans-serif" font-size="14" lengthAdjust="spacing" textLength="168" x="675" y="480.2295">&#25552;&#20379;&#32593;&#32476;&#36890;&#29992;&#25554;&#20214;&#25509;&#21475;&#26381;&#21153;</text><path d="M622,484.5313 L632,484.5313 C647,484.5313 647,475.3828 662,475.3828 L672,475.3828 " fill="none" style="stroke:#181818;stroke-width:1.0;"/><text fill="#000000" font-family="sans-serif" font-size="14" lengthAdjust="spacing" textLength="205" x="675" y="498.5264">&#23481;&#22120;&#21019;&#24314;&#26102;&#36890;&#36807;CNI&#25554;&#20214;&#37197;&#32622;&#32593;&#32476;</text><path d="M622,484.5313 L632,484.5313 C647,484.5313 647,493.6797 662,493.6797 L672,493.6797 " fill="none" style="stroke:#181818;stroke-width:1.0;"/><text fill="#000000" font-family="sans-serif" font-size="14" lengthAdjust="spacing" textLength="163" x="675" y="516.8232">&#25554;&#20214;&#30446;&#24405;: /etc/cni/net.d/</text><path d="M622,484.5313 L632,484.5313 C647,484.5313 647,511.9766 662,511.9766 L672,511.9766 " fill="none" style="stroke:#181818;stroke-width:1.0;"/><path d="M529,475.7344 L539,475.7344 C554,475.7344 554,484.5313 569,484.5313 L579,484.5313 " fill="none" style="stroke:#181818;stroke-width:1.0;"/><rect fill="#F1F1F1" height="36.2969" rx="12.5" ry="12.5" style="stroke:#181818;stroke-width:1.5;" width="42" x="579" y="530.4219"/><text fill="#000000" font-family="sans-serif" font-size="14" lengthAdjust="spacing" textLength="22" x="589" y="553.417">CSI</text><text fill="#000000" font-family="sans-serif" font-size="14" lengthAdjust="spacing" textLength="277" x="674" y="535.1201">Container Storage Interface &#23481;&#22120;&#23384;&#20648;&#25509;&#21475;</text><path d="M621,548.5703 L631,548.5703 C646,548.5703 646,530.2734 661,530.2734 L671,530.2734 " fill="none" style="stroke:#181818;stroke-width:1.0;"/><text fill="#000000" font-family="sans-serif" font-size="14" lengthAdjust="spacing" textLength="168" x="674" y="553.417">&#25552;&#20379;&#23384;&#20648;&#36890;&#29992;&#25554;&#20214;&#25509;&#21475;&#26381;&#21153;</text><path d="M621,548.5703 L631,548.5703 C646,548.5703 646,548.5703 661,548.5703 L671,548.5703 " fill="none" style="stroke:#181818;stroke-width:1.0;"/><text fill="#000000" font-family="sans-serif" font-size="14" lengthAdjust="spacing" textLength="218" x="674" y="571.7139">&#23481;&#22120;&#21019;&#24314;&#26102;&#36890;&#36807;CSI&#25554;&#20214;&#37197;&#32622;&#23384;&#20648;&#21367;</text><path d="M621,548.5703 L631,548.5703 C646,548.5703 646,566.8672 661,566.8672 L671,566.8672 " fill="none" style="stroke:#181818;stroke-width:1.0;"/><path d="M529,475.7344 L539,475.7344 C554,475.7344 554,548.5703 569,548.5703 L579,548.5703 " fill="none" style="stroke:#181818;stroke-width:1.0;"/><path d="M338,457.4375 L348,457.4375 C363,457.4375 363,475.7344 378,475.7344 L388,475.7344 " fill="none" style="stroke:#181818;stroke-width:1.0;"/><path d="M216,529.3281 L226,529.3281 C241,529.3281 241,457.4375 256,457.4375 L266,457.4375 " fill="none" style="stroke:#181818;stroke-width:1.0;"/><rect fill="#F1F1F1" height="36.2969" rx="12.5" ry="12.5" style="stroke:#181818;stroke-width:1.5;" width="97" x="266" y="602.3125"/><text fill="#000000" font-family="sans-serif" font-size="14" lengthAdjust="spacing" textLength="77" x="276" y="625.3076">kube-proxy</text><text fill="#000000" font-family="sans-serif" font-size="14" lengthAdjust="spacing" textLength="277" x="416" y="590.7139">&#36127;&#36131;Kubernetes&#26381;&#21153;&#30340;&#36890;&#20449;&#21450;&#36127;&#36733;&#22343;&#34913;&#26381;&#21153;</text><path d="M363,620.4609 L373,620.4609 C388,620.4609 388,585.8672 403,585.8672 L413,585.8672 " fill="none" style="stroke:#181818;stroke-width:1.0;"/><text fill="#000000" font-family="sans-serif" font-size="14" lengthAdjust="spacing" textLength="275" x="420" y="609.0107">&#30417;&#25511;kube-apiserver&#30340;&#26381;&#21153;&#21644;&#31471;&#28857;&#36164;&#28304;&#21464;&#21270;,</text><text fill="#000000" font-family="sans-serif" font-size="14" lengthAdjust="spacing" textLength="244" x="416" y="625.3076">&#24182;&#36890;&#36807;iptables/ipvs&#31561;&#37197;&#32622;&#36127;&#36733;&#22343;&#34913;&#22120;,</text><text fill="#000000" font-family="sans-serif" font-size="14" lengthAdjust="spacing" textLength="356" x="416" y="641.6045">&#20026;&#19968;&#32452;Pod&#25552;&#20379;&#32479;&#19968;&#30340;TCP/UDP&#27969;&#37327;&#36716;&#21457;&#21644;&#36127;&#36733;&#22343;&#34913;&#21151;&#33021;</text><path d="M363,620.4609 L373,620.4609 C388,620.4609 388,620.4609 403,620.4609 L413,620.4609 " fill="none" style="stroke:#181818;stroke-width:1.0;"/><text fill="#000000" font-family="sans-serif" font-size="14" lengthAdjust="spacing" textLength="557" x="416" y="659.9014">&#30456;&#24403;&#20110;&#20195;&#29702;&#27169;&#22411;,&#23545;&#20110;&#26576;&#20010;IP:Port&#30340;&#35831;&#27714;,&#36127;&#36131;&#23558;&#20854;&#36716;&#21457;&#32473;&#19987;&#29992;&#32593;&#32476;&#19978;&#30340;&#30456;&#24212;&#26381;&#21153;&#25110;&#24212;&#29992;&#31243;&#24207;</text><path d="M363,620.4609 L373,620.4609 C388,620.4609 388,655.0547 403,655.0547 L413,655.0547 " fill="none" style="stroke:#181818;stroke-width:1.0;"/><path d="M216,529.3281 L226,529.3281 C241,529.3281 241,620.4609 256,620.4609 L266,620.4609 " fill="none" style="stroke:#181818;stroke-width:1.0;"/><rect fill="#F1F1F1" height="36.2969" rx="12.5" ry="12.5" style="stroke:#181818;stroke-width:1.5;" width="113" x="266" y="674.2031"/><text fill="#000000" font-family="sans-serif" font-size="14" lengthAdjust="spacing" textLength="93" x="276" y="697.1982">container&#32452;&#20214;</text><text fill="#000000" font-family="sans-serif" font-size="14" lengthAdjust="spacing" textLength="322" x="432" y="697.1982">&#36127;&#36131;&#23481;&#22120;&#30340;&#22522;&#30784;&#31649;&#29702;&#26381;&#21153;,&#25509;&#25910;kubelet&#32452;&#20214;&#30340;&#25351;&#20196;&#12290;</text><path d="M379,692.3516 L389,692.3516 C404,692.3516 404,692.3516 419,692.3516 L429,692.3516 " fill="none" style="stroke:#181818;stroke-width:1.0;"/><path d="M216,529.3281 L226,529.3281 C241,529.3281 241,692.3516 256,692.3516 L266,692.3516 " fill="none" style="stroke:#181818;stroke-width:1.0;"/><path d="M55,365.25 L65,365.25 C80,365.25 80,529.3281 95,529.3281 L105,529.3281 " fill="none" style="stroke:#181818;stroke-width:1.0;"/><!--SRC=[dLPjKnfN5Fw-l-AE_P9a23IcCyaG9vE6nDOqPXWr-TfPOKEOBBlCiYHnEfb1KKGKmVYI22WIDR4c0TDQH13vCTbxT_aNFNVlWeYqdUadTkyvvxddvJaFUoUayeeQy4lU01_a1aBgX2ZSvgptUtxUf_01z1k7aDsd289aFY9qb_SyzoboMFAwP55MaEZtFLDD1p2_DbtiYXmI_i7zky71ktTTBilNRaQFYs7Xtz2flHKm8OYY_BAtCxErF7sowEtjHoscrsjkm66LpLr1ps-6k2lm4nuNFAg8y59Tg-qOXGLyj8jdZi1qvTUMKQljjirQTKUhlj4pqsJj69-aSEaOWD2FxY4qAYWl1CLePC6BB2UrUew1uDHICpBvJ5M3Hkc8V9soKTIhVD0VCWCGMTmbAsNBXdUczNJCPZHMS7PJhosJpPnUMxVoeFa6-90AGPBi5T300El1xTlq9jI5Ep101yDia4Op6zDFTo3ndyV6t6Za_kWOpHeknwbj6tbNOdQo-177o-25PwZ1YiK7CLfbd_7NDAcczTgqmtgQYvFSP-kb3q6VAExJiDZSNYHR9nIc_fvr2U-iaSnXC_S7FYwJL5expP9S4YSArWq0pnBGAbzeS-SY93S75scrSZDQRqOoHcFsV7tCo1hD4e1RZAy5ctQSP_wu63MAl-FqD7F5gH8a22QjKS1lh46shky13JZjja1MUAMaLI9QPV6-wl6oKpRhCqPiLN0ZoeAviubuP4bLP54KbAi1Nk9zWd9k8W3Dgkqi0j2CsNsSsCCBQsmaD8D6r8n4jAIFINQEr_VCGy2J-80G2l8UuOB5AmH5UI8WIEe5azrkP-au4IcbjCf-suCriRlVvkXeiIPnS76Jl2thsIM88gk746xHo8JggWZNb_5SKa-KIMIIeo_PBTWDVILlrRCwqypaZCW2BfqOiuVwdpMzbcVUUBQgBnxWr3lQZhTb6wUTPF31Xb5Q1MPsEcgD8jv9ulX17ydbIIxBJljkTOmZv7acUCFYnIcuPM_t20wYkFhX74zD2kntkPAvKxWIf-FDo1GDIqpfKyTM0CE0Ta9BoES2Jkspavv0Lip5VW9gboim-15emBbegWylPUNvcJwq1RL38aH1RULsc3SEj_LY0II79QrL4i4BRS3nBAvLly4OublDzHtwa2xXoPp-PKwhrQ0tDjYAOLEN60hR2xPfrbLCv6YeAN3m05UHn6xFnQlCKrvafXcwnVdY9b10gyQk0rNmIOIid38ACY8ZryWGUuBBNB1nl5-2Deo49TKV4D2G1CazXTK0d6COXj58KvL-M-x4W4Z4-Dtb19NeAtiazOOkW1dGmGap31Spsl4SPCSYOJZDrHoEffXVUrtQ0K1Rl9Wd6xkuk81dzfeRxt5w2IQiLs7vFj6UnsQQqJthilaOZiT8FCtSHdd9Eow_WZlQTKA0RyJjiiGS51RmMG9ikE3B4hDUup7z0opDkbP9ulG2JO_LWrhDVDIhcOy4bRBhGZFr-f9UotLLQ0c5QVhF_bbTCtd6-WtA0qcmaEPCKgyN6LG7FZNfsIAkhpgHGr0z3e_aTqY2QlSwk5OTextg65Lb1MJuGXtuopiyjTUp3cRwdtMCdgk3GU7aqPaa1HNvrSIvdVm5ZXMeHGYr6MJzSQKIrADUnnkpHg7GgKrEIpUwLgerNE20_gb4jvDjjoccDWx8mjBq1rL-N1H23d_mHGXMcsNRUHcK1ifRgO9qmQ82MwqPr_Bq93Czvd8x7jzpaxyccxCfe_uPbXWkFOUGo1lH-gssp5NWNq2hBcgrRM0bsIlWpNaRo0uSaNmQn6_8xNJBYaerbNqUiUxGxPafinjC5Y_3M1W_G5N0co9NLrZT9Bu6pzHXRnvNKsRNFUt5ON_MdQstE0qhcA_gXGZR60PbOofcYIYBfVrTc8Llms-HAUwE05_JrXSsvnPvINqy_131549-MKBNxFtVzr-ttxWqgFZHC3-1hlMZQpUS_TUTF_IZnsCkHCsNkKi_kH-Ya1nMW9XUVqXL_EDX5U8lSm_u5tnBqfn82eiYz-39i1EDXiV1ZLS5z6IOkoSyvSEYYkvB7jdhbtnEW1wyUfDxo4k-CD3U2dJ11xAgJB2tlm40]--></g></svg>