<svg version="1.1" xmlns="http://www.w3.org/2000/svg" viewBox="0 0 276.63555908203125 372.002197265625" width="276.63555908203125" height="372.002197265625">
  <!-- svg-source:excalidraw -->
  
  <defs>
    <style class="style-fonts">
      @font-face {
        font-family: "Virgil";
        src: url("https://unpkg.com/@excalidraw/excalidraw@0.15.3/dist/excalidraw-assets/Virgil.woff2");
      }
      @font-face {
        font-family: "Cascadia";
        src: url("https://unpkg.com/@excalidraw/excalidraw@0.15.3/dist/excalidraw-assets/Cascadia.woff2");
      }
    </style>
  </defs>
  <rect x="0" y="0" width="276.63555908203125" height="372.002197265625" fill="#ffffff"></rect><g stroke-linecap="round" transform="translate(19.63555908203125 289.002197265625) rotate(0 123.5 36.5)"><path d="M18.25 0 M18.25 0 C67.29 -0.19, 120 -2.66, 228.75 0 M18.25 0 C84.62 1.79, 150.59 2.04, 228.75 0 M228.75 0 C240.53 -1.99, 246.68 6.66, 247 18.25 M228.75 0 C241.36 0.84, 244.89 5.49, 247 18.25 M247 18.25 C246.26 30.77, 246.14 41.24, 247 54.75 M247 18.25 C246.56 28.75, 247.07 39.82, 247 54.75 M247 54.75 C245.6 64.96, 239.37 73.8, 228.75 73 M247 54.75 C247.99 67.21, 242.75 72.46, 228.75 73 M228.75 73 C162.82 71.61, 95.37 72.47, 18.25 73 M228.75 73 C148.9 73.79, 67.64 74.7, 18.25 73 M18.25 73 C5.81 72.96, 1.81 68.34, 0 54.75 M18.25 73 C4.04 72.98, 0.34 66.55, 0 54.75 M0 54.75 C-0.4 39.11, -0.98 25.17, 0 18.25 M0 54.75 C-0.81 46.27, -0.21 39.25, 0 18.25 M0 18.25 C-0.37 4.39, 5.36 -0.16, 18.25 0 M0 18.25 C-1.22 7.34, 5.75 -0.18, 18.25 0" stroke="#862e9c" stroke-width="1" fill="none"></path></g><g transform="translate(32.63555908203125 304.502197265625) rotate(0 110.5 21)"><text x="110.5" y="0" font-family="Segoe UI Emoji" font-size="20px" fill="#862e9c" text-anchor="middle" style="white-space: pre;" direction="ltr" dominant-baseline="text-before-edge">daemon再发送GRPC请求给</text><text x="110.5" y="21" font-family="Segoe UI Emoji" font-size="20px" fill="#862e9c" text-anchor="middle" style="white-space: pre;" direction="ltr" dominant-baseline="text-before-edge">containerd</text></g><g stroke-linecap="round"><g transform="translate(140.7170660613064 214.4532398326936) rotate(0 0.7787891917083982 35.75934561652514)"><path d="M0.59 -0.46 C0.9 28.11, 1.43 58.03, 0.04 72.46 M-0.57 -0.27 C0.23 14.51, 0.58 30.18, 1.99 72.04" stroke="#862e9c" stroke-width="1" fill="none"></path></g><g transform="translate(140.7170660613064 214.4532398326936) rotate(0 0.7787891917083982 35.75934561652514)"><path d="M2.74 73.65 L-5.7 58.31 L6.33 59.35 L3.72 71.05" stroke="none" stroke-width="0" fill="#862e9c" fill-rule="evenodd"></path><path d="M2.43 71.7 C0.03 66.69, -2.71 62.67, -5.93 59.37 M1.56 71.84 C1.04 68.35, -0.42 65.61, -4.47 59.06 M-3.72 59.62 C0.04 57.84, 4.17 59.49, 7.22 59.26 M-4.43 58.51 C-0.02 59.07, 4.34 58.71, 7.81 58.43 M7.71 58.81 C5.42 62.97, 3.91 65.6, 2.32 72.48 M8.63 58.38 C5.18 62.65, 3.46 68.68, 1.89 72.47 M1.99 72.04 C1.99 72.04, 1.99 72.04, 1.99 72.04 M1.99 72.04 C1.99 72.04, 1.99 72.04, 1.99 72.04" stroke="#862e9c" stroke-width="1" fill="none"></path></g></g><mask></mask><g stroke-linecap="round" transform="translate(10 10) rotate(0 101.5 41.5)"><path d="M20.75 0 M20.75 0 C65.67 1.51, 111.12 2.52, 182.25 0 M20.75 0 C64.35 -0.86, 107.71 0.15, 182.25 0 M182.25 0 C194.16 -0.03, 204.46 6.24, 203 20.75 M182.25 0 C194.87 1.44, 203.54 7.59, 203 20.75 M203 20.75 C200.64 35.12, 201.88 49.52, 203 62.25 M203 20.75 C203.64 36.48, 202 52.12, 203 62.25 M203 62.25 C204.2 76.73, 197.3 84.96, 182.25 83 M203 62.25 C201.85 76.38, 197.54 81.54, 182.25 83 M182.25 83 C137.41 82.53, 88.49 82.95, 20.75 83 M182.25 83 C130.58 82.54, 79.94 83.11, 20.75 83 M20.75 83 C7.03 81.52, 1.66 77.84, 0 62.25 M20.75 83 C6.04 80.9, 1.81 73.88, 0 62.25 M0 62.25 C-0.29 52.94, 1.73 45.01, 0 20.75 M0 62.25 C-1.28 45.63, -0.31 30.76, 0 20.75 M0 20.75 C1.23 8.22, 5.31 1.34, 20.75 0 M0 20.75 C-2.06 5.54, 7.63 2.15, 20.75 0" stroke="#862e9c" stroke-width="1" fill="none"></path></g><g transform="translate(45.5 41) rotate(0 66 10.5)"><text x="66" y="0" font-family="Segoe UI Emoji" font-size="20.025863647460934px" fill="#862e9c" text-anchor="middle" style="white-space: pre;" direction="ltr" dominant-baseline="text-before-edge">docker run ..</text></g><g stroke-linecap="round" transform="translate(18.4107666015625 141.4229736328125) rotate(0 121.5 35)"><path d="M17.5 0 M17.5 0 C90.24 -1.3, 160.54 -0.99, 225.5 0 M17.5 0 C62.45 1.44, 107.47 2.28, 225.5 0 M225.5 0 C238.99 0.37, 243.21 3.91, 243 17.5 M225.5 0 C236.08 -1.01, 241.13 5.18, 243 17.5 M243 17.5 C243.31 26.31, 243.86 33.69, 243 52.5 M243 17.5 C242.66 27.3, 244.02 35.27, 243 52.5 M243 52.5 C243.69 64.78, 239.07 71.98, 225.5 70 M243 52.5 C241.52 63.05, 237.45 69.35, 225.5 70 M225.5 70 C159.36 73.26, 95.54 72.29, 17.5 70 M225.5 70 C173.33 69.17, 119.99 70.12, 17.5 70 M17.5 70 C3.85 71.18, -0.74 63.51, 0 52.5 M17.5 70 C7.3 71.27, 1.21 63.19, 0 52.5 M0 52.5 C-1.06 39.37, -0.11 29.11, 0 17.5 M0 52.5 C1.2 45.56, 0.12 39.21, 0 17.5 M0 17.5 C0.92 7.75, 6.9 -1.82, 17.5 0 M0 17.5 C-0.62 5.04, 5.49 0.27, 17.5 0" stroke="#862e9c" stroke-width="1" fill="none"></path></g><g transform="translate(38.9107666015625 165.9229736328125) rotate(0 101 10.5)"><text x="101" y="0" font-family="Segoe UI Emoji" font-size="20px" fill="#862e9c" text-anchor="middle" style="white-space: pre;" direction="ltr" dominant-baseline="text-before-edge">发送post请求给daemon</text></g><g stroke-linecap="round"><g transform="translate(114.47111103713587 96.88758064269916) rotate(0 4.984227195257972 20.752563395116113)"><path d="M-0.21 1.08 C0.26 4.25, 0.12 12.97, 1.82 19.75 C3.52 26.53, 8.72 38.15, 9.98 41.75 M-1.77 0.6 C-1.33 3.87, -0.7 13.92, 1.13 21.02 C2.97 28.12, 7.86 39.64, 9.22 43.2" stroke="#862e9c" stroke-width="1" fill="none"></path></g><g transform="translate(114.47111103713587 96.88758064269916) rotate(0 4.984227195257972 20.752563395116113)"><path d="M9.54 44.58 L-0.33 31.91 L11.2 26.9 L10.91 42.33" stroke="none" stroke-width="0" fill="#862e9c" fill-rule="evenodd"></path><path d="M10.57 43.82 C6.14 40.95, 4.7 37.94, -1.9 32.83 M9.97 43.69 C4.98 39.59, 0.39 35.49, -1.16 32.97 M-1.71 34.02 C1.19 31.26, 4.69 30.61, 11.02 28.78 M-2.17 33.02 C1.59 31.4, 4.63 31.05, 10.21 27.98 M10.18 29.39 C11.3 32.21, 10.69 34.73, 10.23 42.35 M10.21 28.33 C10.6 31.76, 9.76 34.75, 8.6 42.72 M9.22 43.2 C9.22 43.2, 9.22 43.2, 9.22 43.2 M9.22 43.2 C9.22 43.2, 9.22 43.2, 9.22 43.2" stroke="#862e9c" stroke-width="1" fill="none"></path></g></g><mask></mask></svg>