<?xml version="1.0" encoding="us-ascii" standalone="no"?><svg xmlns="http://www.w3.org/2000/svg" xmlns:xlink="http://www.w3.org/1999/xlink" contentStyleType="text/css" height="359px" preserveAspectRatio="none" style="width:854px;height:359px;background:#FFFFFF;" version="1.1" viewBox="0 0 854 359" width="854px" zoomAndPan="magnify"><defs/><g><rect fill="#F1F1F1" height="36.2969" rx="12.5" ry="12.5" style="stroke:#181818;stroke-width:1.5;" width="90" x="10" y="160.7422"/><text fill="#000000" font-family="sans-serif" font-size="14" lengthAdjust="spacing" textLength="70" x="20" y="183.7373">&#20195;&#30721;&#29983;&#25104;&#22120;</text><rect fill="#F1F1F1" height="36.2969" rx="12.5" ry="12.5" style="stroke:#181818;stroke-width:1.5;" width="128" x="150" y="20"/><text fill="#000000" font-family="sans-serif" font-size="14" lengthAdjust="spacing" textLength="108" x="160" y="42.9951">conversion-gen</text><text fill="#000000" font-family="sans-serif" font-size="14" lengthAdjust="spacing" textLength="418" x="331" y="42.9951">&#33258;&#21160;&#29983;&#25104;Convert&#20989;&#25968;&#30340;&#20195;&#30721;&#29983;&#25104;&#22120;&#65292;&#29992;&#20110;&#36164;&#28304;&#23545;&#35937;&#30340;&#29256;&#26412;&#36716;&#25442;&#20989;&#25968;</text><path d="M278,38.1484 L288,38.1484 C303,38.1484 303,38.1484 318,38.1484 L328,38.1484 " fill="none" style="stroke:#181818;stroke-width:1.0;"/><path d="M100,178.8906 L110,178.8906 C125,178.8906 125,38.1484 140,38.1484 L150,38.1484 " fill="none" style="stroke:#181818;stroke-width:1.0;"/><rect fill="#F1F1F1" height="36.2969" rx="12.5" ry="12.5" style="stroke:#181818;stroke-width:1.5;" width="121" x="150" y="76.2969"/><text fill="#000000" font-family="sans-serif" font-size="14" lengthAdjust="spacing" textLength="101" x="160" y="99.292">deepcopy-gen</text><text fill="#000000" font-family="sans-serif" font-size="14" lengthAdjust="spacing" textLength="303" x="328" y="91.1436">&#29992;&#20110;&#29983;&#25104; Kubernetes &#36164;&#28304;&#23545;&#35937;&#30340;&#28145;&#24230;&#25335;&#36125;&#26041;&#27861;,</text><text fill="#000000" font-family="sans-serif" font-size="14" lengthAdjust="spacing" textLength="518" x="324" y="107.4404">&#29983;&#25104;&#30340;&#28145;&#24230;&#25335;&#36125;&#26041;&#27861;&#21487;&#20197;&#29992;&#20110;&#21019;&#24314;&#36164;&#28304;&#23545;&#35937;&#30340;&#21103;&#26412;&#65292;&#20197;&#20415;&#36827;&#34892;&#20462;&#25913;&#32780;&#19981;&#24433;&#21709;&#21407;&#22987;&#23545;&#35937;</text><path d="M271,94.4453 L281,94.4453 C296,94.4453 296,94.4453 311,94.4453 L321,94.4453 " fill="none" style="stroke:#181818;stroke-width:1.0;"/><path d="M100,178.8906 L110,178.8906 C125,178.8906 125,94.4453 140,94.4453 L150,94.4453 " fill="none" style="stroke:#181818;stroke-width:1.0;"/><rect fill="#F1F1F1" height="36.2969" rx="12.5" ry="12.5" style="stroke:#181818;stroke-width:1.5;" width="113" x="150" y="132.5938"/><text fill="#000000" font-family="sans-serif" font-size="14" lengthAdjust="spacing" textLength="93" x="160" y="155.5889">defaulter-gen</text><text fill="#000000" font-family="sans-serif" font-size="14" lengthAdjust="spacing" textLength="385" x="316" y="155.5889">&#29983;&#25104;Defaulter&#20989;&#25968;&#30340;&#20195;&#30721;&#29983;&#25104;&#22120;&#65292;&#29992;&#20110;&#23545;&#36164;&#28304;&#23545;&#35937;&#29983;&#25104;&#40664;&#35748;&#20540;</text><path d="M263,150.7422 L273,150.7422 C288,150.7422 288,150.7422 303,150.7422 L313,150.7422 " fill="none" style="stroke:#181818;stroke-width:1.0;"/><path d="M100,178.8906 L110,178.8906 C125,178.8906 125,150.7422 140,150.7422 L150,150.7422 " fill="none" style="stroke:#181818;stroke-width:1.0;"/><rect fill="#F1F1F1" height="36.2969" rx="12.5" ry="12.5" style="stroke:#181818;stroke-width:1.5;" width="85" x="150" y="188.8906"/><text fill="#000000" font-family="sans-serif" font-size="14" lengthAdjust="spacing" textLength="65" x="160" y="211.8857">go2make</text><text fill="#000000" font-family="sans-serif" font-size="14" lengthAdjust="spacing" textLength="525" x="288" y="211.8857">go2make &#20316;&#29992;&#26159;&#29983;&#25104;&#29992;&#20110;&#26500;&#24314;&#21644;&#31649;&#29702;&#39033;&#30446;&#30340; Makefile &#25991;&#20214;&#65292;&#20197;&#31616;&#21270;&#39033;&#30446;&#30340;&#26500;&#24314;&#36807;&#31243;</text><path d="M235,207.0391 L245,207.0391 C260,207.0391 260,207.0391 275,207.0391 L285,207.0391 " fill="none" style="stroke:#181818;stroke-width:1.0;"/><path d="M100,178.8906 L110,178.8906 C125,178.8906 125,207.0391 140,207.0391 L150,207.0391 " fill="none" style="stroke:#181818;stroke-width:1.0;"/><rect fill="#F1F1F1" height="36.2969" rx="12.5" ry="12.5" style="stroke:#181818;stroke-width:1.5;" width="108" x="150" y="245.1875"/><text fill="#000000" font-family="sans-serif" font-size="14" lengthAdjust="spacing" textLength="88" x="160" y="268.1826">openapi-gen</text><text fill="#000000" font-family="sans-serif" font-size="14" lengthAdjust="spacing" textLength="171" x="311" y="268.1826">&#33258;&#21160;&#29983;&#25104;OpenAPI&#23450;&#20041;&#25991;&#20214;</text><path d="M258,263.3359 L268,263.3359 C283,263.3359 283,263.3359 298,263.3359 L308,263.3359 " fill="none" style="stroke:#181818;stroke-width:1.0;"/><path d="M100,178.8906 L110,178.8906 C125,178.8906 125,263.3359 140,263.3359 L150,263.3359 " fill="none" style="stroke:#181818;stroke-width:1.0;"/><rect fill="#F1F1F1" height="36.2969" rx="12.5" ry="12.5" style="stroke:#181818;stroke-width:1.5;" width="185" x="150" y="301.4844"/><text fill="#000000" font-family="sans-serif" font-size="14" lengthAdjust="spacing" textLength="165" x="160" y="324.4795">prerelease-lifecycle-gen</text><path d="M100,178.8906 L110,178.8906 C125,178.8906 125,319.6328 140,319.6328 L150,319.6328 " fill="none" style="stroke:#181818;stroke-width:1.0;"/><!--SRC=[XPDTJnD158RlzrUSn1jef4enmLHYa6ADI6EZmgsPReTrmtItcTt5D8O44sAf52GA1075-jaOqahymBRK_fcTtUNAl-3ipXODgNgt9-_plkUSsPbHmqJKpAbQDeVoqeXX5WY-B8Nrk8eKYdBmG0A8AXHZBVW464Foh49rIyicTA9J8Afopmm0Biy7I9Jg1luBVYQP71jB948s6hWpnCB_IlVrhg602T7lzuQ5rYKLdMHxSxuIKFFIoBbmxGZOhJVkguVk-fwpjCQULwL816HTcyFKK7LjGE7xHIAHk-0LFxB7LO4b0jranRQpySdTNZmLyVEexAvNxUQgztNHQQwnUiCxg73CBIqvk_jUUzzPUIsyVhCindbPpnTEMiL1k4KUtB0oc6hOn0QSodCE3rZplRDyw7rvuMmsdCyRPoLXwYco9tMxzKvaiwKTrcgUocEbEf-FJyyn-qV7w-nubRBTgJdh3M-XR7zVOUq3zco5hUwn3yl2TKbiC8CiOcBw-xJ46EDTuRydvQVzEKm07BUslDfRjd3aDr7qM0xDOX4V5c2tTxdVsQg7QmTPpij5lXjxMdPh5NVjqN6buUxKU6z8SSkCIZ0ucqMxzKqiwjOMM7dp119chrDqgyj-MpsFDPHNUz-3croyahxEQjjseoH2VK-UOee9HWOU8EeCbWiomK70AEPlB7ntKfeWpPnAJK9urM0m6ZiV6ueEzoMfocSjm60C1eVZiQ7uXHXCtKc0B_TBVTVIas3e5fKnP5N3f6h6Chc_Nvf0SmXkMPgfvd0SD8iGQM8w5OVRLePZoCGmdPB2Vm9NDLdFgfeIvz79WOlI9D8K2obTOu8_6vCMHFKB]--></g></svg>