<?xml version="1.0" encoding="us-ascii" standalone="no"?><svg xmlns="http://www.w3.org/2000/svg" xmlns:xlink="http://www.w3.org/1999/xlink" contentStyleType="text/css" height="176px" preserveAspectRatio="none" style="width:1005px;height:176px;background:#FFFFFF;" version="1.1" viewBox="0 0 1005 176" width="1005px" zoomAndPan="magnify"><defs/><g><!--class Interface--><g id="elem_Interface"><rect codeLine="1" fill="#F1F1F1" height="162.0781" id="Interface" rx="2.5" ry="2.5" style="stroke:#181818;stroke-width:0.5;" width="284" x="714.5" y="7"/><ellipse cx="822.25" cy="23" fill="#B4A7E5" rx="11" ry="11" style="stroke:#181818;stroke-width:1.0;"/><path d="M818.1719,18.7656 L818.1719,16.6094 L825.5625,16.6094 L825.5625,18.7656 L823.0938,18.7656 L823.0938,26.8438 L825.5625,26.8438 L825.5625,29 L818.1719,29 L818.1719,26.8438 L820.6406,26.8438 L820.6406,18.7656 L818.1719,18.7656 Z " fill="#000000"/><text fill="#000000" font-family="sans-serif" font-size="14" font-style="italic" lengthAdjust="spacing" textLength="60" x="842.75" y="27.8467">Interface</text><line style="stroke:#181818;stroke-width:0.5;" x1="715.5" x2="997.5" y1="39" y2="39"/><line style="stroke:#181818;stroke-width:0.5;" x1="715.5" x2="997.5" y1="47" y2="47"/><text fill="#000000" font-family="sans-serif" font-size="14" lengthAdjust="spacing" textLength="149" x="720.5" y="63.9951">Add(item interface{})</text><text fill="#000000" font-family="sans-serif" font-size="14" lengthAdjust="spacing" textLength="56" x="720.5" y="80.292">Len() int</text><text fill="#000000" font-family="sans-serif" font-size="14" lengthAdjust="spacing" textLength="272" x="720.5" y="96.5889">Get() (item interface{}, shutdown bool)</text><text fill="#000000" font-family="sans-serif" font-size="14" lengthAdjust="spacing" textLength="160" x="720.5" y="112.8857">Done(item interface{})</text><text fill="#000000" font-family="sans-serif" font-size="14" lengthAdjust="spacing" textLength="82" x="720.5" y="129.1826">ShutDown()</text><text fill="#000000" font-family="sans-serif" font-size="14" lengthAdjust="spacing" textLength="148" x="720.5" y="145.4795">ShutDownWithDrain()</text><text fill="#000000" font-family="sans-serif" font-size="14" lengthAdjust="spacing" textLength="142" x="720.5" y="161.7764">ShuttingDown() bool</text></g><!--class DelayingInterface--><g id="elem_DelayingInterface"><rect codeLine="10" fill="#F1F1F1" height="80.5938" id="DelayingInterface" rx="2.5" ry="2.5" style="stroke:#181818;stroke-width:0.5;" width="355" x="317" y="48.04"/><ellipse cx="430.75" cy="64.04" fill="#B4A7E5" rx="11" ry="11" style="stroke:#181818;stroke-width:1.0;"/><path d="M426.6719,59.8056 L426.6719,57.6494 L434.0625,57.6494 L434.0625,59.8056 L431.5938,59.8056 L431.5938,67.8838 L434.0625,67.8838 L434.0625,70.04 L426.6719,70.04 L426.6719,67.8838 L429.1406,67.8838 L429.1406,59.8056 L426.6719,59.8056 Z " fill="#000000"/><text fill="#000000" font-family="sans-serif" font-size="14" font-style="italic" lengthAdjust="spacing" textLength="119" x="451.25" y="68.8867">DelayingInterface</text><line style="stroke:#181818;stroke-width:0.5;" x1="318" x2="671" y1="80.04" y2="80.04"/><text fill="#000000" font-family="sans-serif" font-size="14" lengthAdjust="spacing" textLength="60" x="323" y="97.0351">Interface</text><line style="stroke:#181818;stroke-width:0.5;" x1="318" x2="671" y1="104.3369" y2="104.3369"/><text fill="#000000" font-family="sans-serif" font-size="14" lengthAdjust="spacing" textLength="343" x="323" y="121.332">AddAfter(item interface{}, duration time.Duration)</text></g><!--class RateLimitingInterface--><g id="elem_RateLimitingInterface"><rect codeLine="15" fill="#F1F1F1" height="113.1875" id="RateLimitingInterface" rx="2.5" ry="2.5" style="stroke:#181818;stroke-width:0.5;" width="259" x="7" y="31.54"/><ellipse cx="60.25" cy="47.54" fill="#B4A7E5" rx="11" ry="11" style="stroke:#181818;stroke-width:1.0;"/><path d="M56.1719,43.3056 L56.1719,41.1494 L63.5625,41.1494 L63.5625,43.3056 L61.0938,43.3056 L61.0938,51.3838 L63.5625,51.3838 L63.5625,53.54 L56.1719,53.54 L56.1719,51.3838 L58.6406,51.3838 L58.6406,43.3056 L56.1719,43.3056 Z " fill="#000000"/><text fill="#000000" font-family="sans-serif" font-size="14" font-style="italic" lengthAdjust="spacing" textLength="144" x="80.75" y="52.3867">RateLimitingInterface</text><line style="stroke:#181818;stroke-width:0.5;" x1="8" x2="265" y1="63.54" y2="63.54"/><text fill="#000000" font-family="sans-serif" font-size="14" lengthAdjust="spacing" textLength="119" x="13" y="80.5351">DelayingInterface</text><line style="stroke:#181818;stroke-width:0.5;" x1="8" x2="265" y1="87.8369" y2="87.8369"/><text fill="#000000" font-family="sans-serif" font-size="14" lengthAdjust="spacing" textLength="230" x="13" y="104.832">AddRateLimited(item interface{})</text><text fill="#000000" font-family="sans-serif" font-size="14" lengthAdjust="spacing" textLength="167" x="13" y="121.1289">Forget(item interface{})</text><text fill="#000000" font-family="sans-serif" font-size="14" lengthAdjust="spacing" textLength="247" x="13" y="137.4257">NumRequeues(item interface{}) int</text></g><!--link DelayingInterface to Interface--><g id="link_DelayingInterface_Interface"><path codeLine="22" d="M673.5,92.04 C684.91,94.44 696.72,96.42 708.59,98 " fill="none" id="DelayingInterface-to-Interface" style="stroke:#181818;stroke-width:1.0;"/><polygon fill="#181818" points="713.42,98.75,705.0092,93.6258,708.4615,98.107,703.9803,101.5593,713.42,98.75" style="stroke:#181818;stroke-width:1.0;"/></g><!--link RateLimitingInterface to DelayingInterface--><g id="link_RateLimitingInterface_DelayingInterface"><path codeLine="23" d="M267.5,75.04 C279.26,77.03 291.35,78.96 303.55,80.8 " fill="none" id="RateLimitingInterface-to-DelayingInterface" style="stroke:#181818;stroke-width:1.0;"/><polygon fill="#181818" points="308.16,81.63,299.8373,76.3638,303.2131,80.9029,298.674,84.2788,308.16,81.63" style="stroke:#181818;stroke-width:1.0;"/></g><!--SRC=[RL51QiCm43nRhzXRRKZw01CC0UCI6bf83Zs475Hx4uj6KYglAC7uxrqvhHDYdxJQ6StChfGXT0TP8go6gXK042shAbQ46jG_q7Q9YDPeuYJqHFI2nEM8D8EczbJP7mEVrfxuJMuDJcbjcPSpBxwhFnJLkPDgQ98onokfbnET64GWnvEyC3vaRqKqr2ACi3pmRI9YvPqaPGsGqlYS_zqILh-JtqZ2jTAA7Yn6jhtLmCR9nHNM7NbX4yYRrnlyzkYn6SFzgZdLo3DDRpysT-fOqtoUtNvHJ8PFqv7EtUFnN4-m9UTB2X39ObMyWzBd4seqr01dRfdIF58M2uYtC-lAMbK9P5aWHM6o1hGyxvZF9lkUtmIednrs-oiGEbzuARmfuVLwSgiJlm00]--></g></svg>