<?xml version="1.0" encoding="us-ascii" standalone="no"?><svg xmlns="http://www.w3.org/2000/svg" xmlns:xlink="http://www.w3.org/1999/xlink" contentStyleType="text/css" height="605px" preserveAspectRatio="none" style="width:484px;height:605px;background:#FFFFFF;" version="1.1" viewBox="0 0 484 605" width="484px" zoomAndPan="magnify"><defs/><g><!--class Store--><g id="elem_Store"><rect codeLine="1" fill="#F1F1F1" height="194.6719" id="Store" rx="2.5" ry="2.5" style="stroke:#181818;stroke-width:0.5;" width="89" x="76.5" y="246.08"/><ellipse cx="100.5" cy="262.08" fill="#B4A7E5" rx="11" ry="11" style="stroke:#181818;stroke-width:1.0;"/><path d="M96.4219,257.8456 L96.4219,255.6894 L103.8125,255.6894 L103.8125,257.8456 L101.3438,257.8456 L101.3438,265.9238 L103.8125,265.9238 L103.8125,268.08 L96.4219,268.08 L96.4219,265.9238 L98.8906,265.9238 L98.8906,257.8456 L96.4219,257.8456 Z " fill="#000000"/><text fill="#000000" font-family="sans-serif" font-size="14" font-style="italic" lengthAdjust="spacing" textLength="37" x="116.5" y="266.9267">Store</text><line style="stroke:#181818;stroke-width:0.5;" x1="77.5" x2="164.5" y1="278.08" y2="278.08"/><line style="stroke:#181818;stroke-width:0.5;" x1="77.5" x2="164.5" y1="286.08" y2="286.08"/><text fill="#000000" font-family="sans-serif" font-size="14" lengthAdjust="spacing" textLength="37" x="82.5" y="303.0751">Add()</text><text fill="#000000" font-family="sans-serif" font-size="14" lengthAdjust="spacing" textLength="60" x="82.5" y="319.372">Update()</text><text fill="#000000" font-family="sans-serif" font-size="14" lengthAdjust="spacing" textLength="56" x="82.5" y="335.6689">Delete()</text><text fill="#000000" font-family="sans-serif" font-size="14" lengthAdjust="spacing" textLength="33" x="82.5" y="351.9657">List()</text><text fill="#000000" font-family="sans-serif" font-size="14" lengthAdjust="spacing" textLength="66" x="82.5" y="368.2626">ListKeys()</text><text fill="#000000" font-family="sans-serif" font-size="14" lengthAdjust="spacing" textLength="35" x="82.5" y="384.5595">Get()</text><text fill="#000000" font-family="sans-serif" font-size="14" lengthAdjust="spacing" textLength="77" x="82.5" y="400.8564">GetByKey()</text><text fill="#000000" font-family="sans-serif" font-size="14" lengthAdjust="spacing" textLength="66" x="82.5" y="417.1532">Replace()</text><text fill="#000000" font-family="sans-serif" font-size="14" lengthAdjust="spacing" textLength="61" x="82.5" y="433.4501">Resync()</text></g><!--class ThreadSafeStore--><g id="elem_ThreadSafeStore"><rect codeLine="12" fill="#F1F1F1" height="162.0781" id="ThreadSafeStore" rx="2.5" ry="2.5" style="stroke:#181818;stroke-width:0.5;" width="162" x="315" y="7"/><ellipse cx="336.3" cy="23" fill="#B4A7E5" rx="11" ry="11" style="stroke:#181818;stroke-width:1.0;"/><path d="M332.2219,18.7656 L332.2219,16.6094 L339.6125,16.6094 L339.6125,18.7656 L337.1438,18.7656 L337.1438,26.8438 L339.6125,26.8438 L339.6125,29 L332.2219,29 L332.2219,26.8438 L334.6906,26.8438 L334.6906,18.7656 L332.2219,18.7656 Z " fill="#000000"/><text fill="#000000" font-family="sans-serif" font-size="14" font-style="italic" lengthAdjust="spacing" textLength="116" x="351.7" y="27.8467">ThreadSafeStore</text><line style="stroke:#181818;stroke-width:0.5;" x1="316" x2="476" y1="39" y2="39"/><text fill="#000000" font-family="sans-serif" font-size="14" lengthAdjust="spacing" textLength="37" x="321" y="55.9951">Add()</text><text fill="#000000" font-family="sans-serif" font-size="14" lengthAdjust="spacing" textLength="60" x="321" y="72.292">Update()</text><text fill="#000000" font-family="sans-serif" font-size="14" lengthAdjust="spacing" textLength="12" x="321" y="88.5889">...</text><line style="stroke:#181818;stroke-width:1.0;stroke-dasharray:1.0,2.0;" x1="316" x2="476" y1="95.8906" y2="95.8906"/><text fill="#000000" font-family="sans-serif" font-size="14" lengthAdjust="spacing" textLength="150" x="321" y="112.8857">ListIndexFuncValues()</text><text fill="#000000" font-family="sans-serif" font-size="14" lengthAdjust="spacing" textLength="64" x="321" y="129.1826">ByIndex()</text><text fill="#000000" font-family="sans-serif" font-size="14" lengthAdjust="spacing" textLength="94" x="321" y="145.4795">GetIndexers()</text><text fill="#000000" font-family="sans-serif" font-size="14" lengthAdjust="spacing" textLength="96" x="321" y="161.7764">AddIndexers()</text></g><!--class que--><g id="elem_que"><rect codeLine="23" fill="#F1F1F1" height="129.4844" id="que" rx="2.5" ry="2.5" style="stroke:#181818;stroke-width:0.5;" width="134" x="138" y="23.54"/><ellipse cx="177.75" cy="39.54" fill="#B4A7E5" rx="11" ry="11" style="stroke:#181818;stroke-width:1.0;"/><path d="M173.6719,35.3056 L173.6719,33.1494 L181.0625,33.1494 L181.0625,35.3056 L178.5938,35.3056 L178.5938,43.3837 L181.0625,43.3837 L181.0625,45.54 L173.6719,45.54 L173.6719,43.3837 L176.1406,43.3837 L176.1406,35.3056 L173.6719,35.3056 Z " fill="#000000"/><text fill="#000000" font-family="sans-serif" font-size="14" font-style="italic" lengthAdjust="spacing" textLength="47" x="197.25" y="44.3867">Queue</text><line style="stroke:#181818;stroke-width:0.5;" x1="139" x2="271" y1="55.54" y2="55.54"/><text fill="#000000" font-family="sans-serif" font-size="14" lengthAdjust="spacing" textLength="101" x="144" y="72.5351">interface Store</text><line style="stroke:#181818;stroke-width:0.5;" x1="139" x2="271" y1="79.8369" y2="79.8369"/><text fill="#000000" font-family="sans-serif" font-size="14" lengthAdjust="spacing" textLength="37" x="144" y="96.832">Pop()</text><text fill="#000000" font-family="sans-serif" font-size="14" lengthAdjust="spacing" textLength="122" x="144" y="113.1289">AddIfNotPresent()</text><text fill="#000000" font-family="sans-serif" font-size="14" lengthAdjust="spacing" textLength="87" x="144" y="129.4257">HasSynced()</text><text fill="#000000" font-family="sans-serif" font-size="14" lengthAdjust="spacing" textLength="49" x="144" y="145.7226">Close()</text></g><!--class cache--><g id="elem_cache"><rect codeLine="31" fill="#F1F1F1" height="96.8906" id="cache" rx="2.5" ry="2.5" style="stroke:#181818;stroke-width:0.5;" width="228" x="7" y="501.75"/><ellipse cx="95.75" cy="517.75" fill="#DA70D6" rx="11" ry="11" style="stroke:#181818;stroke-width:1.0;"/><path d="M95.2344,518.3125 Q93.375,517.6094 92.7188,516.8438 Q92.0781,516.0625 92.0781,514.75 Q92.0781,513.0625 93.1563,512.0938 Q94.2344,511.125 96.1094,511.125 Q96.9688,511.125 97.8125,511.3281 Q98.6719,511.5156 99.5156,511.9063 L99.5156,514.2969 Q98.7344,513.7344 97.9063,513.4531 Q97.0938,513.1563 96.2969,513.1563 Q95.4219,513.1563 94.9375,513.5156 Q94.4688,513.875 94.4688,514.5313 Q94.4688,515.0469 94.8125,515.3906 Q95.1563,515.7188 96.25,516.125 L97.3125,516.5313 Q98.7969,517.0781 99.5,517.9844 Q100.2188,518.8906 100.2188,520.2656 Q100.2188,522.1406 99.1094,523.0625 Q98,523.9844 95.75,523.9844 Q94.8281,523.9844 93.9063,523.7656 Q92.9844,523.5469 92.125,523.125 L92.125,520.5938 Q93.0938,521.2813 94.0156,521.625 Q94.9375,521.9688 95.8281,521.9688 Q96.7344,521.9688 97.2344,521.5625 Q97.7344,521.1406 97.7344,520.4063 Q97.7344,519.8438 97.3906,519.4375 Q97.0625,519.0156 96.4375,518.7656 L95.2344,518.3125 Z " fill="#000000"/><text fill="#000000" font-family="sans-serif" font-size="14" lengthAdjust="spacing" textLength="42" x="116.25" y="522.5967">cache</text><line style="stroke:#181818;stroke-width:0.5;" x1="8" x2="234" y1="533.75" y2="533.75"/><text fill="#000000" font-family="sans-serif" font-size="14" lengthAdjust="spacing" textLength="216" x="13" y="550.7451">cacheStorage ThreadSafeStore</text><text fill="#000000" font-family="sans-serif" font-size="14" lengthAdjust="spacing" textLength="121" x="13" y="567.042">keyFunc KeyFunc</text><line style="stroke:#181818;stroke-width:1.0;" x1="8" x2="234" y1="574.3438" y2="574.3438"/><text fill="#000000" font-family="sans-serif" font-size="14" lengthAdjust="spacing" textLength="37" x="13" y="591.3389">Add()</text></g><!--class DeltaFIFO--><g id="elem_DeltaFIFO"><rect codeLine="38" fill="#F1F1F1" height="96.8906" id="DeltaFIFO" rx="2.5" ry="2.5" style="stroke:#181818;stroke-width:0.5;" width="177" x="200.5" y="294.97"/><ellipse cx="251.75" cy="310.97" fill="#DA70D6" rx="11" ry="11" style="stroke:#181818;stroke-width:1.0;"/><path d="M251.2344,311.5325 Q249.375,310.8294 248.7188,310.0637 Q248.0781,309.2825 248.0781,307.97 Q248.0781,306.2825 249.1563,305.3137 Q250.2344,304.345 252.1094,304.345 Q252.9688,304.345 253.8125,304.5481 Q254.6719,304.7356 255.5156,305.1262 L255.5156,307.5169 Q254.7344,306.9544 253.9063,306.6731 Q253.0938,306.3762 252.2969,306.3762 Q251.4219,306.3762 250.9375,306.7356 Q250.4688,307.095 250.4688,307.7512 Q250.4688,308.2669 250.8125,308.6106 Q251.1563,308.9387 252.25,309.345 L253.3125,309.7512 Q254.7969,310.2981 255.5,311.2044 Q256.2188,312.1106 256.2188,313.4856 Q256.2188,315.3606 255.1094,316.2825 Q254,317.2044 251.75,317.2044 Q250.8281,317.2044 249.9063,316.9856 Q248.9844,316.7669 248.125,316.345 L248.125,313.8137 Q249.0938,314.5012 250.0156,314.845 Q250.9375,315.1887 251.8281,315.1887 Q252.7344,315.1887 253.2344,314.7825 Q253.7344,314.3606 253.7344,313.6262 Q253.7344,313.0637 253.3906,312.6575 Q253.0625,312.2356 252.4375,311.9856 L251.2344,311.5325 Z " fill="#000000"/><text fill="#000000" font-family="sans-serif" font-size="14" lengthAdjust="spacing" textLength="66" x="272.25" y="315.8167">DeltaFIFO</text><line style="stroke:#181818;stroke-width:0.5;" x1="201.5" x2="376.5" y1="326.97" y2="326.97"/><text fill="#000000" font-family="sans-serif" font-size="14" lengthAdjust="spacing" textLength="165" x="206.5" y="343.9651">items map[string]Deltas</text><text fill="#000000" font-family="sans-serif" font-size="14" lengthAdjust="spacing" textLength="98" x="206.5" y="360.262">queue []string</text><text fill="#000000" font-family="sans-serif" font-size="14" lengthAdjust="spacing" textLength="121" x="206.5" y="376.5589">keyFunc KeyFunc</text><line style="stroke:#181818;stroke-width:0.5;" x1="201.5" x2="376.5" y1="383.8606" y2="383.8606"/></g><!--link que to Store--><g id="link_que_Store"><path codeLine="30" d="M137,67.04 C65.1,67.04 72.03,161.77 90.06,240.1 " fill="none" id="que-to-Store" style="stroke:#181818;stroke-width:1.0;"/><polygon fill="#181818" points="91.38,244.71,93.2186,235.0343,90.238,239.8422,85.4301,236.8615,91.38,244.71" style="stroke:#181818;stroke-width:1.0;"/></g><!--reverse link Store to cache--><g id="link_Store_cache"><path codeLine="44" d="M121,461.68 C121,475.62 121,489.18 121,501.31 " fill="none" id="Store-backto-cache" style="stroke:#181818;stroke-width:1.0;stroke-dasharray:7.0,7.0;"/><polygon fill="none" points="114,462.11,121,442.11,128,462.11,114,462.11" style="stroke:#181818;stroke-width:1.0;"/></g><!--reverse link que to DeltaFIFO--><g id="link_que_DeltaFIFO"><path codeLine="46" d="M233.86,176.1 C247.01,215.77 262.08,261.2 273.13,294.55 " fill="none" id="que-backto-DeltaFIFO" style="stroke:#181818;stroke-width:1.0;stroke-dasharray:7.0,7.0;"/><polygon fill="none" points="226.94,178.46,227.29,157.27,240.23,174.05,226.94,178.46" style="stroke:#181818;stroke-width:1.0;"/><text fill="#000000" font-family="sans-serif" font-size="13" lengthAdjust="spacing" textLength="94" x="248" y="212.1469">&#23454;&#29616;Queue&#25509;&#21475;</text></g><!--SRC=[TLB1RjGm43t7Np7QosP5Dt2ELYjHq49LA8K0bwe7AvdiMYHEQZiIgx8I792uj73Wm05nGN11Qf7uffJsBnZRsNQXoyKUpppFU_Di8GsgdAS8YQaKmY43WE1sbeK35pshCswG3i5TBD173uGsotqRvzh6zz1qs-QSSZP-WdL1ZNsevpAbQC749U7JcKAU9Jn7Htt8EjeLpYYAxEAfjcI6BoUDJ9_pea77kZbtoOxPnQXSXLgj71Ui3_2umGRXxDDf-_RNnSUJyzCZkFZy-lpxc_RTZ_R3qOgodeFsW6iuQAmmyRTBBDYjwYLBlbEPNOKQfNFWFjS9pOfkaZj5fT7nKvyuzXOFX-EkZJQgIGsaF9tXQ0HXib6fT2Qo0Op7nEho5icdrzm25hp0kNK3jltEWk5mQQ6TD_7DwTaCdsnD7e4ewm9BajbDfVy5h94W39OQIbxl4Lh8wRv3QnOSE3FtzdtwkfW5Orxdw5KK-GcT9c-05M0jyTKh1J6q9rz-7_zq_fyTVslVVwLR_nk1Ih8o24fCPmQgtBUFuuTe-0ulKTVqOaj1VH0v52Z3ageH_PPBH3YWOU4MVVq-10fDeoIi0S4DwDtiqRfQ2mSR84L1DwtbQovV0L1cJkuV]--></g></svg>