<?xml version="1.0" encoding="us-ascii" standalone="no"?><svg xmlns="http://www.w3.org/2000/svg" xmlns:xlink="http://www.w3.org/1999/xlink" contentStyleType="text/css" height="659.375px" preserveAspectRatio="none" style="width:1007px;height:659px;background:#FFFFFF;" version="1.1" viewBox="0 0 1007 659" width="1007.2917px" zoomAndPan="magnify"><defs/><g><polygon fill="none" points="397.3958,20.8333,397.3958,21.0523,407.8646,20.4017,418.3333,21.0347,428.8021,21.2497,439.2708,20.0902,449.7396,20.7524,460.2083,20.3891,470.6771,20.4339,481.1458,20.7623,491.6146,20.1132,502.0833,21.41,512.5521,20.1768,523.0208,20.6273,533.4896,21.2833,543.9583,20.744,554.4271,20.9044,564.8958,20.8001,575.3646,21.0193,585.8333,21.0824,596.3021,21.4434,606.7708,20.8333,606.86,21.0486,607.4503,21.2953,607.9832,21.4032,608.6002,21.7143,609.2212,22.0349,609.7171,22.0537,609.4858,21.9579,610.1788,22.7331,610.1102,23.1928,610.6206,23.8924,610.5346,24.345,610.9375,25,610.9137,25,611.195,32.7669,610.9206,40.5339,610.9741,48.3008,611.0551,56.0677,610.9375,63.8346,611.071,63.8899,610.6922,64.4234,610.5415,65.0513,610.0216,65.5263,610.0524,66.2294,609.7171,66.7809,609.79,66.9568,609.1869,67.1676,608.6201,67.4657,607.8852,67.3582,607.2734,67.548,606.7708,68.0013,606.7708,67.354,596.3021,67.94,585.8333,67.7966,575.3646,68.7111,564.8958,67.8193,554.4271,67.644,543.9583,68.2391,533.4896,67.3067,523.0208,67.4605,512.5521,68.6773,502.0833,68.4551,491.6146,68.7664,481.1458,67.6661,470.6771,68.3338,460.2083,68.6163,449.7396,67.5092,439.2708,67.9014,428.8021,68.1325,418.3333,68.6802,407.8646,67.9969,397.3958,68.0013,397.4573,68.1497,396.733,67.5796,396.1273,67.2959,395.695,67.4306,394.9435,66.795,394.4496,66.7809,394.6128,66.8485,394.2718,66.2191,393.8755,65.5668,393.6038,64.9661,393.6204,64.4848,393.2292,63.8346,393.1252,63.8346,393.4347,56.0677,393.0372,48.3008,393.4436,40.5339,393.3973,32.7669,393.2292,25,393.3078,25.0326,393.4884,24.417,393.9504,23.918,394.1582,23.3138,394.2598,22.6655,394.4496,22.0537,394.4852,22.1398,395.0215,21.7679,395.7233,21.7954,396.2379,21.3712,396.8295,21.1328,397.3958,20.8333" style="stroke:#4D4D4D;stroke-width:1.0416666666666667;"/><text fill="#2E2E2E" font-family="" font-size="20.8333" font-weight="bold" lengthAdjust="spacing" textLength="194.7917" x="404.6875" y="51.6296">&#22909;&#20687;&#23601;&#36825;&#20040;&#19968;&#22238;&#20107;!!!</text><polygon fill="none" points="121.875,80.5013,121.875,80.7202,132.2917,80.0697,142.7083,80.7026,153.125,80.9176,163.5417,79.7582,173.9583,80.4204,184.375,80.057,194.7917,80.1018,205.2083,80.4303,215.625,79.7811,226.0417,81.078,236.4583,79.8448,246.875,80.2953,257.2917,80.9512,267.7083,80.412,278.125,80.5724,288.5417,80.468,298.9583,80.6873,309.375,80.7504,319.7917,80.5013,319.8695,80.6892,320.4701,80.9606,321.0604,81.2074,321.5933,81.3152,322.2103,81.6263,322.7379,81.7217,322.9632,81.815,322.7507,82.2151,323.4438,82.9904,323.3751,83.4501,323.8855,84.1496,323.9583,84.668,323.7865,84.668,323.9345,91.4648,324.2158,98.2617,323.9414,105.0586,323.9949,111.8555,323.9583,118.6523,324.067,118.6973,323.8478,119.2969,323.4689,119.8303,323.3182,120.4583,322.7984,120.9333,322.7379,121.5986,322.7757,121.6899,322.2215,122.0186,321.6185,122.2294,321.0516,122.5275,320.3167,122.42,319.7917,122.819,319.7917,122.1397,309.375,122.1717,298.9583,122.7577,288.5417,122.6143,278.125,123.5288,267.7083,122.6371,257.2917,122.4617,246.875,123.0568,236.4583,122.1244,226.0417,122.2783,215.625,123.495,205.2083,123.2728,194.7917,123.5841,184.375,122.4838,173.9583,123.1515,163.5417,123.434,153.125,122.3269,142.7083,122.7192,132.2917,122.9502,121.875,122.819,121.9616,123.0281,121.2852,122.5736,120.758,122.4792,120.0336,121.9091,119.428,121.6254,118.9287,121.5986,119.0903,121.6655,118.4547,120.9141,118.6038,120.4877,118.2628,119.8583,117.8665,119.206,117.7083,118.6523,117.5855,118.6523,117.8676,111.8555,117.6044,105.0586,117.9138,98.2617,117.5164,91.4648,117.7083,84.668,117.9064,84.75,118.1078,84.1431,118.2751,83.522,118.4557,82.9065,118.9177,82.4075,118.9287,81.7217,119.0103,81.9185,119.5405,81.5319,120.1429,81.3196,120.6792,80.9477,121.3809,80.9752,121.875,80.5013" style="stroke:#333333;stroke-width:1.0416666666666667;"/><text fill="#2E2E2E" font-family="" font-size="16.6667" lengthAdjust="spacing" textLength="183.3333" x="129.1667" y="107.43">&#35753;&#36164;&#28304;&#23545;&#35937;&#36798;&#21040;&#26399;&#24453;&#29366;&#24577;</text><path d="M451.0417,134.9935 L451.2363,134.9935 L450.658,140.1237 L451.2206,145.2539 L451.4117,150.3841 L450.3811,155.5143 L451.0417,160.6445 L451.0276,160.574 L446.7976,161.0906 L442.6387,161.963 L438.5293,163.0826 L434.2495,163.3501 L430.2083,164.8112 L430.3089,165.3139 L434.2605,165.0723 L438.5058,166.2983 L442.7868,167.7034 L446.8594,168.0667 L451.0417,168.9779 L451.1049,168.9779 L451.0121,174.1081 L451.207,179.2383 L451.2631,184.3685 L451.584,189.4987 L451.0417,194.6289 L451.0417,194.6289 L451.0417,196.4929 L461.4379,196.5157 L471.8342,195.3362 L482.2304,195.9166 L492.6266,196.5795 L503.0229,192.6256 L513.4191,196.5137 L523.8154,193.8053 L534.2116,196.1117 L544.6078,193.2538 L555.0041,194.4386 L565.4003,196.6889 L575.7966,194.4935 L586.1928,194.9214 L596.5891,195.5695 L606.9853,195.7851 L617.3815,194.6181 L627.7778,195.4267 L638.174,193.0389 L648.5703,195.4189 L658.9665,196.1517 L669.3627,195.8637 L679.759,196.3318 L690.1552,193.287 L700.5515,192.8173 L710.9477,192.9028 L721.344,194.4653 L731.7402,194.083 L742.1364,196.5217 L752.5327,194.1437 L762.9289,193.676 L773.3252,195.263 L783.7214,192.7766 L794.1176,193.1869 L804.5139,196.4315 L814.9101,195.8391 L825.3064,196.6692 L835.7026,193.735 L846.0989,195.5156 L856.4951,196.269 L866.8913,193.3167 L877.2876,194.3626 L887.6838,194.9789 L898.0801,196.4393 L908.4763,194.6173 L918.8725,195.9138 L929.2688,193.0906 L939.665,192.7476 L950.0613,196.0278 L960.4575,192.6374 L970.8538,196.0427 L981.25,194.6289 L981.25,194.6289 L981.824,194.6289 L980.5058,184.7852 L980.2673,174.9414 L982.5243,165.0977 L980.4185,155.2539 L981.25,145.4102 L981.6375,145.7977 L978.8048,142.9649 L977.4876,141.6477 L975.3171,139.4772 L973.0771,137.2372 L970.8333,134.9935 L970.8333,135.1247 L960.4375,137.0119 L950.0417,136.6979 L939.6458,135.4636 L929.25,135.7385 L918.8542,134.6316 L908.4583,136.9836 L898.0625,135.4237 L887.6667,135.4729 L877.2708,133.3036 L866.875,133.8679 L856.4792,136.4678 L846.0833,136.1873 L835.6875,134.8742 L825.2917,134.0986 L814.8958,134.3854 L804.5,133.0874 L794.1042,136.1455 L783.7083,137.0478 L773.3125,136.4557 L762.9167,136.9239 L752.5208,134.6137 L742.125,135.2358 L731.7292,133.9168 L721.3333,135.7825 L710.9375,135.6789 L700.5417,136.5279 L690.1458,134.3556 L679.75,134.6201 L669.3542,136.2253 L658.9583,136.5694 L648.5625,133.5698 L638.1667,134.4549 L627.7708,135.4081 L617.375,133.2967 L606.9792,135.9751 L596.5833,135.7101 L586.1875,134.7136 L575.7917,135.3886 L565.3958,137.0176 L555,134.1244 L544.6042,135.8685 L534.2083,135.787 L523.8125,135.3151 L513.4167,135.3849 L503.0208,135.3087 L492.625,133.2597 L482.2292,133.8801 L471.8333,133.7115 L461.4375,135.1708 L451.0417,134.9935 L451.0417,134.9935 " fill="#17A2B8" style="stroke:#1592A6;stroke-width:1.0416666666666667;"/><path d="M970.8333,134.9935 L971.0279,134.9935 L970.4497,137.0768 L971.0123,139.1602 L971.2034,141.2435 L970.1728,143.3268 L970.8333,145.4102 L970.8333,145.3382 L972.9167,145.0153 L975,145.0551 L977.0833,145.347 L979.1667,144.77 L981.25,145.4102 L981.6125,145.7726 L978.754,142.9142 L976.9538,141.114 L975.2828,139.443 L972.8605,137.0207 L970.8333,134.9935 " fill="#17A2B8" style="stroke:#1592A6;stroke-width:1.0416666666666667;"/><text fill="#FFFFFF" font-family="" font-size="16.6667" lengthAdjust="spacing" textLength="417.7083" x="462.5" y="160.8805">&#24456;&#26174;&#28982;,&#19981;&#21487;&#33021;&#30452;&#30333;&#31616;&#21333;&#22320;&#26681;&#25454;&#25551;&#36848;&#29992;for&#24490;&#29615;&#19981;&#26029;&#30340;&#33719;&#21462;,</text><text fill="#FFFFFF" font-family="" font-size="16.6667" lengthAdjust="spacing" textLength="497.9167" x="462.5" y="180.2816">&#25105;&#20204;&#24456;&#23481;&#26131;&#24819;&#21040;, &#20808;&#33719;&#21462;&#25968;&#25454;,&#20043;&#21518;&#29992;&#30417;&#21548;&#30340;&#26041;&#24335;, &#26377;&#21464;&#21270;&#25165;&#37319;&#21462;&#34892;&#21160;.</text><polygon fill="none" points="15.625,143.6523,15.625,143.8713,26.1485,143.2208,36.672,143.8537,47.1955,144.0687,57.719,142.9092,68.2425,143.5714,78.766,143.2081,89.2895,143.2529,99.813,143.5813,110.3365,142.9322,120.86,144.2291,131.3835,142.9958,141.9071,143.4463,152.4306,144.1023,162.9541,143.563,173.4776,143.7234,184.0011,143.6191,194.5246,143.8383,205.0481,143.9014,215.5716,144.2624,226.0951,144.3514,236.6186,144.3599,247.1421,143.9176,257.6656,144.1352,268.1891,144.3838,278.7126,142.9011,289.2361,144.3591,299.7596,143.3435,310.2831,144.2084,320.8066,143.1367,331.3301,143.581,341.8536,144.4248,352.3771,143.6016,362.9006,143.762,373.4241,144.0051,383.9476,144.0859,394.4712,143.6483,404.9947,143.9515,415.5182,143.0561,426.0417,143.6523,426.0795,143.7436,426.7038,144.0723,427.2792,144.2831,427.8909,144.5812,428.3345,144.4737,428.9879,144.8727,428.7787,144.7861,429.0327,145.3794,429.4572,146.0434,429.6571,146.6144,430.1828,147.3203,430.2083,147.819,430.1477,147.819,430.0892,154.6159,430.2876,161.4128,429.9768,168.2096,430.0281,175.0065,430.2083,181.8034,430.4165,181.8896,430.104,182.4505,429.9558,183.0795,429.3729,183.5284,429.3344,184.2028,428.9879,184.7497,429.0664,184.9391,428.3359,184.8422,427.7967,185.2071,427.2369,185.5223,426.7175,185.9351,426.0417,185.9701,426.0417,185.9657,415.5182,186.4519,404.9947,185.3932,394.4712,185.2646,383.9476,186.4946,373.4241,185.2232,362.9006,186.5002,352.3771,186.1853,341.8536,185.691,331.3301,185.6015,320.8066,186.4479,310.2831,185.6582,299.7596,186.5866,289.2361,185.3943,278.7126,186.6132,268.1891,186.4745,257.6656,186.2252,247.1421,186.0192,236.6186,186.7269,226.0951,186.6092,215.5716,186.1464,205.0481,186.2494,194.5246,185.8344,184.0011,186.7164,173.4776,186.1314,162.9541,186.1498,152.4306,185.3364,141.9071,185.5479,131.3835,186.5229,120.86,186.4177,110.3365,185.9253,99.813,185.6345,89.2895,185.742,78.766,185.2553,68.2425,186.4021,57.719,186.7404,47.1955,186.5184,36.672,186.6939,26.1485,185.8276,15.625,185.9701,15.6366,185.998,14.9842,185.6016,14.4842,185.573,13.89,185.317,13.3414,185.1709,12.6787,184.7497,12.605,184.7191,12.3915,184.1425,12.3328,183.6301,12.1285,183.0573,11.538,182.3245,11.4583,181.8034,11.391,181.8034,11.5102,175.0065,11.2462,168.2096,11.581,161.4128,11.5479,154.6159,11.4583,147.819,11.426,147.8056,11.748,147.2487,12.1802,146.7373,12.0902,146.0097,12.5357,145.5038,12.6787,144.8727,12.7167,144.9644,13.2834,144.6658,13.876,144.4298,14.4616,144.1769,14.9528,143.6962,15.625,143.6523" style="stroke:#333333;stroke-width:1.0416666666666667;"/><text fill="#2E2E2E" font-family="" font-size="16.6667" lengthAdjust="spacing" textLength="395.8333" x="22.9167" y="170.5811">&#24517;&#39035;&#19981;&#26029;&#33719;&#21462;&#36164;&#28304;&#20449;&#24687;(&#24403;&#21069;&#29366;&#24577;&#21644;&#26399;&#24453;&#29366;&#24577;)&#36827;&#34892;&#23545;&#27604;</text><path d="M415.625,216.5039 L415.8196,216.5039 L415.2414,219.694 L415.804,222.8841 L415.9951,226.0742 L414.9644,229.2643 L415.625,232.4544 L415.6109,232.3839 L411.3809,232.9005 L407.222,233.7729 L403.1126,234.8925 L398.8328,235.16 L394.7917,236.6211 L394.8922,237.1238 L398.8439,236.8822 L403.0891,238.1082 L407.3701,239.5133 L411.4428,239.8765 L415.625,240.7878 L415.6882,240.7878 L415.5954,243.9779 L415.7903,247.168 L415.8464,250.3581 L416.1673,253.5482 L415.625,256.7383 L415.625,256.7383 L415.625,258.6023 L426.0938,258.6251 L436.5625,257.4456 L447.0313,258.026 L457.5,258.6889 L467.9688,254.735 L478.4375,258.623 L488.9063,255.9147 L499.375,258.2211 L509.8438,255.3632 L520.3125,256.548 L530.7813,258.7983 L541.25,256.6029 L551.7188,257.0308 L562.1875,257.6789 L572.6563,257.8945 L583.125,256.7274 L593.5938,257.5361 L604.0625,255.1482 L614.5313,257.5282 L625,256.7383 L625,256.7383 L625.5076,256.7383 L625.4116,250.7747 L625.5676,244.8112 L624.5527,238.8477 L624.3961,232.8841 L625,226.9206 L624.5932,226.5137 L622.8781,224.7987 L620.7047,222.6252 L619.1961,221.1167 L616.5523,218.4729 L614.5833,216.5039 L614.5833,215.551 L604.1118,217.138 L593.6404,214.6516 L583.1689,215.0619 L572.6974,218.3065 L562.2259,217.7141 L551.7544,218.5442 L541.2829,215.61 L530.8114,217.3906 L520.3399,218.144 L509.8684,215.1917 L499.3969,216.2376 L488.9254,216.8539 L478.4539,218.3143 L467.9825,216.4923 L457.511,217.7888 L447.0395,214.9656 L436.568,214.6226 L426.0965,217.9028 L415.625,216.5039 L415.625,216.5039 " fill="#17A2B8" style="stroke:#1592A6;stroke-width:1.0416666666666667;"/><path d="M614.5833,216.5039 L614.7779,216.5039 L614.1997,218.5872 L614.7623,220.6706 L614.9534,222.7539 L613.9228,224.8372 L614.5833,226.9206 L614.5833,226.8486 L616.6667,226.5257 L618.75,226.5655 L620.8333,226.8575 L622.9167,226.2804 L625,226.9206 L625.3625,227.2831 L622.504,224.4246 L620.7038,222.6244 L619.0328,220.9534 L616.6105,218.5311 L614.5833,216.5039 " fill="#17A2B8" style="stroke:#1592A6;stroke-width:1.0416666666666667;"/><text fill="#FFFFFF" font-family="" font-size="16.6667" lengthAdjust="spacing" textLength="177.0833" x="427.0833" y="242.391">&#24819;&#21040;&#36825;&#26679;&#30340;&#35774;&#35745;, &#27809;&#27611;&#30149;</text><polygon fill="none" points="51.0417,215.4622,51.0417,215.6812,61.3321,215.0307,71.6225,215.6636,81.9129,215.8786,92.2033,214.7191,102.4937,215.3813,112.7841,215.018,123.0745,215.0628,133.3649,215.3912,143.6553,214.7421,153.9457,216.0389,164.2361,214.8057,174.5265,215.2562,184.8169,215.9122,195.1073,215.3729,205.3977,215.5333,215.6881,215.429,225.9785,215.6482,236.2689,215.7113,246.5593,216.0723,256.8497,216.1613,267.1402,216.1698,277.4306,215.7275,287.721,215.9451,298.0114,216.1937,308.3018,214.711,318.5922,216.169,328.8826,215.1534,339.173,216.0183,349.4634,214.9466,359.7538,215.3909,370.0442,216.2347,380.3346,215.4115,390.625,215.4622,390.639,215.496,391.2593,215.8149,391.8588,216.0839,392.3922,216.1932,393.0202,216.5307,393.5713,216.6826,393.3877,216.6066,393.9066,217.3097,394.2353,217.934,394.4461,218.5095,394.7442,219.1211,394.7917,219.6289,394.6239,219.6289,394.5652,226.4258,394.5759,233.2227,394.7712,240.0195,394.7234,246.8164,394.7917,253.6133,395.0103,253.7038,394.4916,254.1793,394.1935,254.7462,394.1327,255.4114,393.6014,255.8817,393.5713,256.5596,393.5023,256.393,393.0683,257.0118,392.4507,257.1875,391.9011,257.5274,391.1715,257.4326,390.625,257.7799,390.625,258.1124,380.3346,258.395,370.0442,257.2879,359.7538,257.6801,349.4634,257.9112,339.173,258.4589,328.8826,257.7756,318.5922,258.2618,308.3018,257.2031,298.0114,257.0745,287.721,258.3045,277.4306,257.0331,267.1402,258.3101,256.8497,257.9952,246.5593,257.5009,236.2689,257.4114,225.9785,258.2578,215.6881,257.4681,205.3977,258.3965,195.1073,257.2042,184.8169,258.4231,174.5265,258.2844,164.2361,258.0351,153.9457,257.8291,143.6553,258.5368,133.3649,258.4191,123.0745,257.9563,112.7841,258.0593,102.4937,257.6443,92.2033,258.5263,81.9129,257.9413,71.6225,257.9597,61.3321,257.1462,51.0417,257.7799,50.9878,257.65,50.5229,257.7061,49.9203,257.4297,49.2682,257.0339,48.6418,256.7003,48.0954,256.5596,48.0252,256.5305,47.6312,255.8791,47.7403,255.4362,47.6004,254.8901,47.2879,254.2725,46.875,253.6133,47.1163,253.6133,46.8275,246.8164,46.9053,240.0195,46.7404,233.2227,46.9736,226.4258,46.875,219.6289,46.9542,219.6617,47.2963,219.113,47.2895,218.4199,47.5641,217.8433,47.9936,217.3308,48.0954,216.6826,48.1708,216.8646,48.6165,216.2741,49.2481,216.1323,49.883,215.9983,50.3712,215.5104,51.0417,215.4622" style="stroke:#333333;stroke-width:1.0416666666666667;"/><text fill="#2E2E2E" font-family="" font-size="16.6667" lengthAdjust="spacing" textLength="325" x="58.3333" y="242.391">&#20808;List&#33719;&#21462;&#20840;&#37096;, &#25509;&#30528;Watch&#30417;&#21548;&#25968;&#25454;&#30340;&#21464;&#21270;</text><path d="M341.1458,268.1966 L341.3404,268.1966 L340.7622,275.2669 L341.3248,282.3372 L341.5159,289.4076 L340.4853,296.4779 L341.1458,303.5482 L341.1317,303.4776 L336.9017,303.9943 L332.7429,304.8666 L328.6335,305.9863 L324.3536,306.2538 L320.3125,307.7148 L320.413,308.2175 L324.3647,307.9759 L328.6099,309.2019 L332.8909,310.607 L336.9636,310.9703 L341.1458,311.8815 L341.209,311.8815 L341.1163,318.9518 L341.3111,326.0221 L341.3673,333.0924 L341.6881,340.1628 L341.1458,347.2331 L341.1458,347.2331 L341.1458,349.0971 L351.6667,349.1199 L362.1875,347.9404 L372.7083,348.5208 L383.2292,349.1837 L393.75,345.2298 L404.2708,349.1178 L414.7917,346.4095 L425.3125,348.7159 L435.8333,345.858 L446.3542,347.0428 L456.875,349.2931 L467.3958,347.0977 L477.9167,347.5256 L488.4375,348.1737 L498.9583,348.3893 L509.4792,347.2222 L520,348.0309 L530.5208,345.643 L541.0417,348.023 L551.5625,348.7558 L562.0833,348.4679 L572.6042,348.9359 L583.125,345.8912 L593.6458,345.4215 L604.1667,345.507 L614.6875,347.0695 L625.2083,346.6872 L635.7292,349.1259 L646.25,346.7479 L656.7708,346.2801 L667.2917,347.8672 L677.8125,345.3807 L688.3333,345.7911 L698.8542,349.0357 L709.375,348.4433 L719.8958,349.2733 L730.4167,346.3392 L740.9375,348.1197 L751.4583,348.8731 L761.9792,347.2331 L761.9792,347.2331 L760.6669,347.2331 L761.7129,337.4302 L762.3291,327.6274 L763.7896,317.8246 L761.9675,308.0218 L763.2641,298.2189 L760.4409,288.4161 L761.9792,278.6133 L761.5357,278.1699 L760.2256,276.8597 L757.3431,273.9772 L756.0624,272.6965 L753.7811,270.4152 L751.5625,268.1966 L751.5625,267.4524 L741.039,267.2139 L730.5155,269.4709 L719.992,267.3651 L709.4685,269.8407 L698.945,266.6612 L688.4215,269.9117 L677.898,269.5419 L667.3745,268.8771 L656.851,268.3278 L646.3275,270.215 L635.804,269.901 L625.2804,268.6668 L614.7569,268.9416 L604.2334,267.8348 L593.7099,270.1868 L583.1864,268.6268 L572.6629,268.676 L562.1394,266.5068 L551.6159,267.071 L541.0924,269.6709 L530.5689,269.3904 L520.0454,268.0774 L509.5219,267.3017 L498.9984,267.5885 L488.4749,266.2906 L477.9514,269.3487 L467.4279,270.251 L456.9044,269.6588 L446.3809,270.127 L435.8574,267.8168 L425.3339,268.4389 L414.8104,267.12 L404.2869,268.9856 L393.7634,268.8821 L383.2399,269.731 L372.7163,267.5587 L362.1928,267.8233 L351.6693,269.4284 L341.1458,268.1966 L341.1458,268.1966 " fill="#17A2B8" style="stroke:#1592A6;stroke-width:1.0416666666666667;"/><path d="M751.5625,268.1966 L751.7571,268.1966 L751.1789,270.2799 L751.7415,272.3633 L751.9326,274.4466 L750.9019,276.5299 L751.5625,278.6133 L751.5625,278.5413 L753.6458,278.2184 L755.7292,278.2582 L757.8125,278.5502 L759.8958,277.9731 L761.9792,278.6133 L762.3417,278.9758 L759.4832,276.1173 L757.683,274.3171 L756.012,272.6461 L753.5897,270.2238 L751.5625,268.1966 " fill="#17A2B8" style="stroke:#1592A6;stroke-width:1.0416666666666667;"/><text fill="#FFFFFF" font-family="" font-size="16.6667" lengthAdjust="spacing" textLength="188.5417" x="352.6042" y="294.0837">&#23601;&#22909;&#27604;&#24555;&#36882;&#21253;&#35065;&#26469;&#20102;&#19968;&#22534;,</text><text fill="#FFFFFF" font-family="" font-size="16.6667" lengthAdjust="spacing" textLength="388.5417" x="352.6042" y="313.4847">&#20320;&#32943;&#23450;&#26159;&#20808;&#20174;&#24555;&#36882;&#21592;&#37027;&#37324;&#23558;&#25152;&#26377;&#24555;&#36882;&#25910;&#19979;&#25918;&#36827;&#23627;&#23376;&#37324;,</text><text fill="#FFFFFF" font-family="" font-size="16.6667" lengthAdjust="spacing" textLength="310.4167" x="352.6042" y="332.8857">&#28982;&#21518;&#33258;&#24049;&#24930;&#24930;&#24320;&#31665;&#22788;&#29702;,&#22240;&#20026;&#24320;&#31665;&#21861;&#30340;&#32791;&#26102;.</text><polygon fill="none" points="125.5208,286.556,125.5208,286.7749,136.1111,286.1244,146.7014,286.7573,157.2917,286.9723,167.8819,285.8129,178.4722,286.475,189.0625,286.1117,199.6528,286.1565,210.2431,286.485,220.8333,285.8358,231.4236,287.1327,242.0139,285.8994,252.6042,286.35,263.1944,287.0059,273.7847,286.4666,284.375,286.6271,294.9653,286.5227,305.5556,286.742,316.1458,286.556,316.1776,286.6327,316.8129,286.988,317.4135,287.2594,318.0039,287.5061,318.5367,287.614,319.0921,287.7764,319.2408,287.838,319.5615,288.4589,319.3489,288.8591,320.042,289.6343,319.9733,290.094,320.3125,290.7227,320.4979,290.7227,320.1406,297.5195,320.2887,304.3164,320.57,311.1133,320.2956,317.9102,320.3125,324.707,320.3463,324.721,320.1771,325.3413,319.9579,325.9408,319.579,326.4743,319.4283,327.1022,319.0921,327.6533,319.0161,327.4697,318.5406,327.9886,317.9864,328.3173,317.3834,328.5281,316.8165,328.8263,316.1458,328.8737,316.1458,328.3705,305.5556,328.1943,294.9653,328.2264,284.375,328.8124,273.7847,328.669,263.1944,329.5835,252.6042,328.6917,242.0139,328.5164,231.4236,329.1115,220.8333,328.1791,210.2431,328.3329,199.6528,329.5497,189.0625,329.3275,178.4722,329.6388,167.8819,328.5385,157.2917,329.2062,146.7014,329.4887,136.1111,328.3816,125.5208,328.8737,125.5081,328.8429,124.9483,328.67,124.4289,328.5946,123.7525,328.1401,123.2253,328.0458,122.5746,327.6533,122.3969,327.5797,122.1132,326.9741,122.248,326.5417,121.6123,325.7903,121.7615,325.3639,121.3542,324.707,121.4259,324.707,121.2611,317.9102,121.2313,311.1133,121.5135,304.3164,121.2502,297.5195,121.3542,290.7227,121.544,290.8013,121.4209,290.06,122.0404,289.6262,122.2418,289.0192,122.4091,288.3982,122.5746,287.7764,122.5808,287.7915,123.2604,287.7654,123.8346,287.4851,124.3648,287.0984,124.9672,286.8861,125.5208,286.556" style="stroke:#333333;stroke-width:1.0416666666666667;"/><text fill="#2E2E2E" font-family="" font-size="16.6667" lengthAdjust="spacing" textLength="176.0417" x="132.8125" y="313.4847">&#33719;&#21462;&#32780;&#25968;&#25454;&#30452;&#25509;&#22788;&#29702;&#21527;?</text><path d="M375,357.6497 L375.1946,357.6497 L374.6164,366.6602 L375.179,375.6706 L375.3701,384.681 L374.3394,393.6914 L375,402.7018 L374.9859,402.6313 L370.7559,403.1479 L366.597,404.0203 L362.4876,405.1399 L358.2078,405.4074 L354.1667,406.8685 L354.2672,407.3712 L358.2189,407.1296 L362.4641,408.3556 L366.7451,409.7607 L370.8178,410.1239 L375,411.0352 L375.0632,411.0352 L374.9704,420.0456 L375.1653,429.056 L375.2214,438.0664 L375.5423,447.0768 L375,456.0872 L375,456.0872 L375,457.9513 L385.3299,457.9741 L395.6597,456.7945 L405.9896,457.375 L416.3194,458.0379 L426.6493,454.0839 L436.9792,457.972 L447.309,455.2636 L457.6389,457.5701 L467.9688,454.7122 L478.2986,455.897 L488.6285,458.1473 L498.9583,455.9519 L509.2882,456.3797 L519.6181,457.0279 L529.9479,457.2434 L540.2778,456.0764 L550.6076,456.8851 L560.9375,454.4972 L571.2674,456.8772 L581.5972,457.61 L591.9271,457.3221 L602.2569,457.7901 L612.5868,454.7454 L622.9167,454.2756 L633.2465,454.3611 L643.5764,455.9237 L653.9063,455.5413 L664.2361,457.98 L674.566,455.602 L684.8958,455.1343 L695.2257,456.7213 L705.5556,454.2349 L715.8854,454.6452 L726.2153,457.8899 L736.5451,457.2974 L746.875,458.1275 L757.2049,455.1934 L767.5347,456.9739 L777.8646,457.7273 L788.1944,454.775 L798.5243,455.821 L808.8542,456.4372 L819.184,457.8977 L829.5139,456.0756 L839.8438,457.3722 L850.1736,454.5489 L860.5035,454.206 L870.8333,457.4862 L881.1632,454.0957 L891.4931,457.501 L901.8229,456.6612 L912.1528,455.343 L922.4826,455.1045 L932.8125,457.3616 L943.1424,455.2558 L953.4722,457.7313 L963.8021,454.5518 L974.1319,457.8023 L984.4618,457.4325 L994.7917,456.0872 L994.7917,456.0872 L995.4721,456.0872 L994.9228,445.0846 L996.81,434.082 L996.496,423.0794 L995.2618,412.0768 L995.5366,401.0742 L994.4298,390.0716 L996.7818,379.069 L994.7917,368.0664 L994.8931,368.1678 L992.8213,366.0961 L990.2267,363.5014 L988.2764,361.5511 L986.8058,360.0806 L984.375,357.6497 L984.375,358.8435 L974.0466,357.5305 L963.7182,356.7548 L953.3898,357.0416 L943.0614,355.7437 L932.7331,358.8018 L922.4047,359.7041 L912.0763,359.1119 L901.7479,359.5801 L891.4195,357.2699 L881.0911,357.892 L870.7627,356.5731 L860.4343,358.4387 L850.1059,358.3352 L839.7775,359.1842 L829.4492,357.0118 L819.1208,357.2764 L808.7924,358.8816 L798.464,359.2257 L788.1356,356.226 L777.8072,357.1112 L767.4788,358.0644 L757.1504,355.9529 L746.822,358.6314 L736.4936,358.3664 L726.1653,357.3698 L715.8369,358.0449 L705.5085,359.6738 L695.1801,356.7807 L684.8517,358.5247 L674.5233,358.4432 L664.1949,357.9713 L653.8665,358.0412 L643.5381,357.965 L633.2097,355.916 L622.8814,356.5364 L612.553,356.3677 L602.2246,357.827 L591.8962,357.8945 L581.5678,358.099 L571.2394,356.8415 L560.911,357.4622 L550.5826,357.3158 L540.2542,359.2521 L529.9258,358.8346 L519.5975,356.301 L509.2691,357.4472 L498.9407,356.0463 L488.6123,358.4508 L478.2839,359.34 L467.9555,359.1624 L457.6271,356.4399 L447.2987,358.9385 L436.9703,355.5864 L426.6419,358.2057 L416.3136,356.8183 L405.9852,357.9184 L395.6568,358.3173 L385.3284,358.9611 L375,357.6497 L375,357.6497 " fill="#17A2B8" style="stroke:#1592A6;stroke-width:1.0416666666666667;"/><path d="M984.375,357.6497 L984.5696,357.6497 L983.9914,359.7331 L984.554,361.8164 L984.7451,363.8997 L983.7144,365.9831 L984.375,368.0664 L984.375,367.9944 L986.4583,367.6715 L988.5417,367.7113 L990.625,368.0033 L992.7083,367.4262 L994.7917,368.0664 L995.1542,368.4289 L992.2957,365.5704 L990.4955,363.7703 L988.8245,362.0992 L986.4022,359.6769 L984.375,357.6497 " fill="#17A2B8" style="stroke:#1592A6;stroke-width:1.0416666666666667;"/><text fill="#FFFFFF" font-family="" font-size="16.6667" lengthAdjust="spacing" textLength="587.5" x="386.4583" y="383.5368">1.&#22240;&#20026;&#25105;&#20204;&#38656;&#35201;&#23545;&#36164;&#28304;&#30340;&#19981;&#21516;&#31867;&#22411;&#25805;&#20316;&#37319;&#21462;&#30456;&#24212;&#30340;&#34892;&#21160;,&#25152;&#20197;&#23427;&#30340;&#25805;&#20316;&#31867;&#22411;&#35201;&#23384;&#20648;</text><text fill="#FFFFFF" font-family="" font-size="16.6667" lengthAdjust="spacing" textLength="542.7083" x="386.4583" y="402.9378">2.&#30001;&#20110;&#19968;&#20010;&#36164;&#28304;&#23545;&#35937;,&#21487;&#33021;&#22810;&#27425;&#20256;&#36882;&#21516;&#19968;&#20010;&#20107;&#20214;,&#23454;&#38469;&#19978;&#25105;&#20204;&#21482;&#20445;&#30041;&#19968;&#20010;&#23601;&#34892;</text><text fill="#FFFFFF" font-family="" font-size="16.6667" lengthAdjust="spacing" textLength="176.0417" x="386.4583" y="422.3389">&#20195;&#30721;&#37324;&#21482;&#26377;&#21024;&#38500;&#30340;&#21435;&#37325;?</text><text fill="#FFFF00" font-family="" font-size="16.6667" lengthAdjust="spacing" textLength="159.375" x="562.5" y="422.3389">&#20026;&#21861;&#26356;&#26032;&#19981;&#36825;&#26679;&#25805;&#20316;?</text><text fill="#FFFFFF" font-family="" font-size="16.6667" lengthAdjust="spacing" textLength="476.0417" x="386.4583" y="441.7399">&#26356;&#26032;&#30340;&#38024;&#23545;&#36825;&#20010;&#36164;&#28304;&#23545;&#35937;&#30340;&#20010;&#20307;&#20445;&#30041;&#26368;&#21518;&#19968;&#20010;&#26356;&#26032;&#25805;&#20316;&#19981;&#23601;&#34892;&#20102;?</text><polygon fill="none" points="91.6667,385.7096,91.6667,385.9286,102,385.2781,112.3333,385.911,122.6667,386.126,133,384.9665,143.3333,385.6287,153.6667,385.2654,164,385.3102,174.3333,385.6386,184.6667,384.9895,195,386.2863,205.3333,385.0531,215.6667,385.5036,226,386.1596,236.3333,385.6203,246.6667,385.7807,257,385.6764,267.3333,385.8956,277.6667,385.9587,288,386.3197,298.3333,386.4086,308.6667,386.4172,319,385.9749,329.3333,386.1925,339.6667,386.4411,350,385.7096,349.9042,385.4783,350.6794,386.1714,351.1391,386.1027,351.8387,386.6131,352.2912,386.5271,352.9463,386.93,352.9243,386.9209,353.4283,387.6178,353.4188,388.1021,353.7123,388.7118,354.0312,389.332,354.1667,389.8763,354.3112,389.8763,354.1653,396.6732,354.2664,403.4701,353.9679,410.2669,354.2654,417.0638,354.1667,423.8607,354.3425,423.9335,354.0652,424.509,353.8752,425.1206,353.2795,425.5643,352.9811,426.131,352.9463,426.807,352.8637,426.6076,352.3492,427.0321,351.7417,427.2321,351.2691,427.7578,350.566,427.7272,350,428.0273,350,427.67,339.6667,428.2651,329.3333,427.3327,319,427.4866,308.6667,428.7033,298.3333,428.4812,288,428.7924,277.6667,427.6921,267.3333,428.3598,257,428.6424,246.6667,427.5353,236.3333,427.9275,226,428.1586,215.6667,428.7063,205.3333,428.023,195,428.5092,184.6667,427.4505,174.3333,427.3219,164,428.5519,153.6667,427.2805,143.3333,428.5575,133,428.2426,122.6667,427.7483,112.3333,427.6588,102,428.5052,91.6667,428.0273,91.6269,427.9313,91.1561,427.9731,90.4147,427.3619,89.9809,427.4932,89.374,427.2064,88.7204,426.807,88.799,426.8395,88.4915,426.224,88.4653,425.725,88.185,425.1207,87.7984,424.4724,87.5,423.8607,87.5931,423.8607,87.4548,417.0638,87.7488,410.2669,87.5538,403.4701,87.5599,396.6732,87.5,389.8763,87.3048,389.7955,87.6141,389.2332,88.1584,388.7683,88.3701,388.1656,88.4625,387.5136,88.7204,386.93,88.6776,386.8267,89.2806,386.6157,89.8077,386.2217,90.5433,386.3308,91.1757,386.191,91.6667,385.7096" style="stroke:#333333;stroke-width:1.0416666666666667;"/><text fill="#2E2E2E" font-family="" font-size="16.6667" lengthAdjust="spacing" textLength="243.75" x="98.9583" y="412.6383">&#35774;&#35745;&#19968;&#20010;&#38431;&#21015;, &#23558;&#25968;&#25454;&#25918;&#36827;&#35813;&#38431;&#21015;</text><polygon fill="none" points="138.5417,476.9206,138.5417,477.1395,148.8281,476.489,159.1146,477.1219,169.401,477.3369,179.6875,476.1775,189.974,476.8396,200.2604,476.4763,210.5469,476.5211,220.8333,476.8496,231.1198,476.2004,241.4063,477.4973,251.6927,476.264,261.9792,476.7146,272.2656,477.3705,282.5521,476.8312,292.8385,476.9917,303.125,476.9206,303.1208,476.9103,303.738,477.2219,304.3353,477.4854,304.9706,477.8407,305.5712,478.1122,306.0713,478.141,306.2892,478.2312,306.397,478.7641,306.7081,479.3811,307.0288,480.002,306.8162,480.4022,307.2917,481.0872,307.5273,481.0872,307.1887,487.8841,307.477,494.681,307.1198,501.4779,307.2679,508.2747,307.2917,515.0716,307.5296,515.1702,307.032,515.6544,306.8373,516.2641,306.6681,516.8844,306.4489,517.4839,306.0713,518.0179,306.0708,518.0166,305.5202,518.3541,304.8167,518.3224,304.3413,518.8414,303.7871,519.1701,303.125,519.2383,303.125,519.7013,292.8385,519.8768,282.5521,518.7351,272.2656,518.5589,261.9792,518.591,251.6927,519.1769,241.4063,519.0336,231.1198,519.9481,220.8333,519.0563,210.5469,518.8809,200.2604,519.4761,189.974,518.5437,179.6875,518.6975,169.401,519.9143,159.1146,519.6921,148.8281,520.0034,138.5417,519.2383,138.4989,519.1351,137.9948,519.0966,137.4416,518.9395,136.7111,518.3545,136.1719,518.2312,135.5954,518.0179,135.6358,518.0346,135.5604,517.5152,135.1059,516.8388,135.0115,516.3116,134.4414,515.5873,134.375,515.0716,134.1398,515.0716,134.5499,508.2747,134.1261,501.4779,134.5517,494.681,134.4467,487.8841,134.375,481.0872,134.2891,481.0516,134.5056,480.451,135.0103,479.9697,135.0112,479.2797,135.5412,478.8089,135.5954,478.141,135.5219,477.9636,136.2667,478.0949,136.8383,477.8082,137.3957,477.4873,137.9587,477.1798,138.5417,476.9206" style="stroke:#333333;stroke-width:1.0416666666666667;"/><text fill="#2E2E2E" font-family="" font-size="16.6667" lengthAdjust="spacing" textLength="150" x="145.8333" y="503.8493">&#38656;&#35201;&#28040;&#36153;&#36825;&#20010;&#38431;&#21015;&#20102;</text><path d="M390.1042,529.6549 L390.688,529.6549 L388.9533,540.3675 L390.6411,551.0801 L391.2144,561.7927 L388.1225,572.5053 L389.8883,583.2179 L388.9195,593.9305 L389.0389,604.6431 L389.9148,615.3557 L388.1837,626.0683 L391.6421,636.7809 L390.1042,647.4935 L390.1042,645.7427 L400.5208,646.9441 L410.9375,648.6933 L421.3542,647.2552 L431.7708,647.683 L442.1875,647.4047 L452.6042,647.9894 L463.0208,648.1578 L473.4375,649.1204 L483.8542,649.3575 L494.2708,649.3803 L504.6875,648.2008 L515.1042,648.7812 L525.5208,649.4441 L535.9375,645.4902 L546.3542,649.3782 L556.7708,646.6699 L567.1875,648.9763 L577.6042,646.1184 L588.0208,647.3032 L598.4375,649.5535 L608.8542,647.3581 L619.2708,647.786 L629.6875,648.4341 L640.1042,648.6497 L650.5208,647.4826 L660.9375,648.2913 L671.3542,645.9034 L681.7708,648.2835 L692.1875,649.0163 L702.6042,648.7283 L713.0208,649.1963 L723.4375,646.1516 L733.8542,645.6819 L744.2708,645.7674 L754.6875,647.3299 L765.1042,646.9476 L775.5208,649.3863 L785.9375,647.0083 L796.3542,646.5406 L806.7708,648.1276 L817.1875,645.6412 L827.6042,646.0515 L838.0208,649.2961 L848.4375,648.7037 L858.8542,649.5337 L869.2708,646.5996 L879.6875,648.3801 L890.1042,649.1335 L900.5208,646.1813 L910.9375,647.2272 L921.3542,647.8434 L931.7708,649.3039 L942.1875,647.4818 L952.6042,648.7784 L963.0208,645.9552 L973.4375,647.4935 L971.5562,647.4935 L974.8364,636.7513 L971.446,626.0091 L974.8513,615.2669 L974.0115,604.5247 L972.6933,593.7826 L972.4548,583.0404 L974.7118,572.2982 L972.606,561.556 L975.0816,550.8138 L973.4375,540.0716 L973.0756,539.7097 L971.7584,538.3925 L969.5879,536.222 L967.3479,533.982 L965.1351,531.7692 L963.0208,529.6549 L963.0208,531.6733 L952.6042,531.3593 L942.1875,530.1251 L931.7708,530.3999 L921.3542,529.2931 L910.9375,531.6451 L900.5208,530.0851 L890.1042,530.1343 L879.6875,527.9651 L869.2708,528.5293 L858.8542,531.1292 L848.4375,530.8487 L838.0208,529.5357 L827.6042,528.76 L817.1875,529.0468 L806.7708,527.7489 L796.3542,530.807 L785.9375,531.7093 L775.5208,531.1172 L765.1042,531.5853 L754.6875,529.2752 L744.2708,529.8972 L733.8542,528.5783 L723.4375,530.4439 L713.0208,530.3404 L702.6042,531.1894 L692.1875,529.017 L681.7708,529.2816 L671.3542,530.8868 L660.9375,531.2309 L650.5208,528.2312 L640.1042,529.1164 L629.6875,530.0696 L619.2708,527.9582 L608.8542,530.6366 L598.4375,530.3716 L588.0208,529.3751 L577.6042,530.0501 L567.1875,531.679 L556.7708,528.7859 L546.3542,530.5299 L535.9375,530.4484 L525.5208,529.9765 L515.1042,530.0464 L504.6875,529.9702 L494.2708,527.9212 L483.8542,528.5416 L473.4375,528.3729 L463.0208,529.8322 L452.6042,529.8997 L442.1875,530.1042 L431.7708,528.8467 L421.3542,529.4674 L410.9375,529.321 L400.5208,531.2573 L390.1042,529.6549 " fill="#17A2B8" style="stroke:#1592A6;stroke-width:1.0416666666666667;"/><path d="M963.0208,529.6549 L963.2154,529.6549 L962.6372,531.7383 L963.1998,533.8216 L963.3909,535.9049 L962.3603,537.9883 L963.0208,540.0716 L963.0208,539.9997 L965.1042,539.6767 L967.1875,539.7165 L969.2708,540.0085 L971.3542,539.4315 L973.4375,540.0716 L973.8,540.4341 L970.9415,537.5756 L969.1413,535.7755 L967.4703,534.1044 L965.048,531.6821 L963.0208,529.6549 " fill="#17A2B8" style="stroke:#1592A6;stroke-width:1.0416666666666667;"/><text fill="#FFFFFF" font-family="" font-size="16.6667" lengthAdjust="spacing" textLength="373.9583" x="401.5625" y="555.542">&#25105;&#20204;&#20551;&#35774;namespace&#25511;&#21046;&#22120;&#25509;&#25910;&#21040;&#19968;&#20010;delete&#20107;&#20214;</text><text fill="#FFFFFF" font-family="" font-size="16.6667" lengthAdjust="spacing" textLength="551.0417" x="401.5625" y="574.943">&#25105;&#20204;&#38656;&#35201;&#23558;&#35813;ns&#19979;&#30340;&#36164;&#28304;&#37117;&#21024;&#38500;,&#27604;&#22914;pod,&#37027;&#20040;&#23601;&#38656;&#35201;&#21435;apiserver&#33719;&#21462;pod</text><text fill="#FFFFFF" font-family="" font-size="16.6667" lengthAdjust="spacing" textLength="507.2917" x="401.5625" y="594.3441">&#20309;&#19981;&#23558;&#38431;&#21015;&#20013;&#30340;&#25968;&#25454;&#36827;&#34892;&#32531;&#23384;, &#35753;&#25968;&#25454;&#21644;apiserver&#30340;&#25968;&#25454;&#26159;&#20445;&#25345;&#19968;&#33268;,</text><text fill="#FFFFFF" font-family="" font-size="16.6667" lengthAdjust="spacing" textLength="321.875" x="401.5625" y="613.7451">&#28982;&#21518;&#20197;&#21518;&#26377;&#38656;&#35201;&#20160;&#20040;&#25968;&#25454;&#30452;&#25509;&#20174;&#32531;&#23384;&#20013;&#33719;&#21462;,</text><text fill="#FFFFFF" font-family="" font-size="16.6667" lengthAdjust="spacing" textLength="519.7917" x="401.5625" y="633.1462">&#36825;&#37324;&#25105;&#20204;&#36824;&#33021;&#24471;&#20986;&#36825;&#20010;&#32531;&#23384;&#26159;&#38656;&#35201;&#32034;&#24341;&#30340;,&#27604;&#22914;&#26681;&#25454;namespace&#26469;&#26597;&#35810;.</text><polygon fill="#28A745" points="75,540.332,75,540.551,85.4167,539.9004,95.8333,540.5334,106.25,540.7484,116.6667,539.5889,127.0833,540.2511,137.5,539.8878,147.9167,539.9326,158.3333,540.261,168.75,539.6119,179.1667,540.9087,189.5833,539.6755,200,540.126,210.4167,540.782,220.8333,540.2427,231.25,540.4031,241.6667,540.2988,252.0833,540.518,262.5,540.5811,272.9167,540.9421,283.3333,541.031,293.75,541.0396,304.1667,540.5973,314.5833,540.8149,325,541.0635,335.4167,539.5808,345.8333,541.0388,356.25,540.0232,366.6667,540.332,366.7376,540.5033,366.9692,540.3258,367.3941,540.6152,367.8701,541.0276,368.1333,540.9266,368.5081,541.0948,368.5419,541.1088,368.7693,541.5081,368.9467,541.8867,368.9645,542.1991,369.2104,542.6061,369.2708,542.9362,369.0721,542.9362,369.3696,543.1445,369.4612,543.3529,369.4252,543.5612,369.4837,543.7695,369.2708,543.9779,369.1159,543.9137,368.9091,544.2595,368.7664,544.6319,368.7943,545.0749,368.5976,545.4249,368.5081,545.8193,368.5986,546.0379,368.1166,545.9158,367.7259,546.0143,367.4336,546.3502,366.9463,546.2156,366.6667,546.582,366.6667,546.0413,356.25,547.258,345.8333,547.0359,335.4167,547.3471,325,546.2468,314.5833,546.9145,304.1667,547.1971,293.75,546.0899,283.3333,546.4822,272.9167,546.7133,262.5,547.2609,252.0833,546.5777,241.6667,547.0639,231.25,546.0052,220.8333,545.8766,210.4167,547.1066,200,545.8352,189.5833,547.1122,179.1667,546.7973,168.75,546.303,158.3333,546.2135,147.9167,547.0599,137.5,546.2702,127.0833,547.1986,116.6667,546.0063,106.25,547.2252,95.8333,547.0865,85.4167,546.8372,75,546.582,75.0063,546.5972,74.7283,546.6626,74.345,546.4738,73.9176,546.1787,73.5625,546.0579,73.1586,545.8193,73.1168,545.802,73.2359,545.5462,72.9032,545.1033,72.7563,544.7374,72.3532,544.2653,72.3958,543.9779,72.2551,543.9779,72.5801,543.7695,72.5451,543.5612,72.3809,543.3529,72.284,543.1445,72.3958,542.9362,72.3256,542.9071,72.3283,542.4767,72.834,542.2547,73.0907,541.9296,73.1749,541.533,73.1586,541.0948,73.2509,541.3177,73.5087,540.8984,73.9067,540.8177,74.2119,540.5128,74.6695,540.5757,75,540.332" style="stroke:#28A745;stroke-width:1.0416666666666667;"/><polygon fill="none" points="91.1458,567.4154,91.1458,567.6343,101.242,566.9838,111.3381,567.6167,121.4343,567.8317,131.5304,566.6722,141.6266,567.3344,151.7228,566.9711,161.8189,567.0159,171.9151,567.3444,182.0112,566.6952,192.1074,567.9921,202.2035,566.7588,212.2997,567.2094,222.3958,567.4154,222.4532,567.5539,222.9737,567.6319,223.5834,567.9254,224.1594,568.1373,224.7766,568.4489,225.3421,568.6358,225.4188,568.6675,225.7741,569.3028,226.0455,569.9034,226.2922,570.4938,226.4001,571.0266,226.5625,571.582,226.7235,571.582,226.8063,578.3789,226.3121,585.1758,226.7981,591.9727,226.4595,598.7695,226.5625,605.5664,226.7337,605.6373,226.1596,606.0899,226.0524,606.7358,226.0682,607.4327,225.5706,607.917,225.3421,608.5127,225.3561,608.5465,224.7979,608.8654,224.2189,609.1344,223.5738,609.2437,223.0233,609.5811,222.3958,609.7331,222.3958,609.1368,212.2997,610.0293,202.2035,610.3041,192.1074,610.1961,182.0112,610.3716,171.9151,609.2299,161.8189,609.0537,151.7228,609.0858,141.6266,609.6717,131.5304,609.5284,121.4343,610.4429,111.3381,609.5511,101.242,609.3757,91.1458,609.7331,91.1762,609.8063,90.468,609.2751,89.8983,609.0784,89.4643,609.209,88.8467,608.8965,88.1996,608.5127,88.4352,608.6103,87.8522,607.8807,87.8138,607.3766,87.6567,606.8234,87.0717,606.0929,86.9792,605.5664,86.9459,605.5664,87.0229,598.7695,87.2055,591.9727,86.9777,585.1758,87.1398,578.3789,86.9792,571.582,86.8015,571.5084,87.006,570.9028,87.6289,570.4704,87.4814,569.719,88.1187,569.2926,88.1996,568.6358,88.227,568.702,88.7532,568.3057,89.3311,568.0341,90.0283,568.0507,90.5168,567.5634,91.1458,567.4154" style="stroke:#333333;stroke-width:1.0416666666666667;"/><text fill="#2E2E2E" font-family="" font-size="16.6667" lengthAdjust="spacing" textLength="116.6667" x="98.4375" y="594.3441">&#19994;&#21153;&#36923;&#36753;&#30340;&#25805;&#20316;</text><polygon fill="none" points="259.8958,567.4154,259.8958,567.6343,269.9653,566.9838,280.0347,567.6167,290.1042,567.8317,300.1736,566.6722,310.2431,567.3344,320.3125,566.9711,330.3819,567.0159,340.4514,567.3444,350.5208,567.4154,350.429,567.1936,351.1837,567.837,351.6156,567.7013,352.2623,568.0842,352.9353,568.5302,353.4671,568.6358,353.4396,568.6244,353.7331,569.2341,353.945,569.81,354.2566,570.4272,354.5201,571.0246,354.6875,571.582,354.8909,571.582,354.9205,578.3789,354.9234,585.1758,354.7759,591.9727,354.8485,598.7695,354.6875,605.5664,354.9128,605.6597,354.2121,606.0598,354.417,606.8351,353.8602,607.2948,353.8824,607.9944,353.4671,608.5127,353.4013,608.3539,352.8688,608.7348,352.3871,609.2387,351.6929,609.2293,351.1241,609.5228,350.5208,609.7331,350.5208,610.0858,340.4514,610.1666,330.3819,609.729,320.3125,610.0323,310.2431,609.1368,300.1736,610.0293,290.1042,610.3041,280.0347,610.1961,269.9653,610.3716,259.8958,609.7331,259.8316,609.5781,259.2199,609.2798,258.6348,609.0456,258.1202,608.982,257.5127,608.6937,256.9496,608.5127,257.1681,608.6032,256.6494,607.9002,256.3514,607.2886,256.2905,606.7752,255.7593,606.0671,255.7292,605.5664,255.5489,605.5664,255.9545,598.7695,255.8804,591.9727,255.9842,585.1758,255.6174,578.3789,255.7292,571.582,255.8316,571.6244,256.1626,571.0712,256.0658,570.3407,256.4306,569.8015,256.7459,569.2417,256.9496,568.6358,257.0362,568.8448,257.5383,568.3903,258.1895,568.296,258.6437,567.7259,259.2166,567.4422,259.8958,567.4154" style="stroke:#333333;stroke-width:1.0416666666666667;"/><text fill="#2E2E2E" font-family="" font-size="16.6667" lengthAdjust="spacing" textLength="76.0417" x="267.1875" y="594.3441">&#20889;&#20837;&#32531;&#23384;?</text><polygon fill="#28A745" points="75,630.5664,75,630.7853,85.4167,630.1348,95.8333,630.7677,106.25,630.9827,116.6667,629.8233,127.0833,630.4855,137.5,630.1221,147.9167,630.1669,158.3333,630.4954,168.75,629.8462,179.1667,631.1431,189.5833,629.9099,200,630.3604,210.4167,631.0164,220.8333,630.4771,231.25,630.6375,241.6667,630.5331,252.0833,630.7524,262.5,630.8155,272.9167,631.1765,283.3333,631.2654,293.75,631.274,304.1667,630.8316,314.5833,631.0493,325,631.2979,335.4167,629.8152,345.8333,631.2732,356.25,630.2575,366.6667,630.5664,366.7376,630.7376,366.9692,630.5602,367.3941,630.8495,367.8701,631.262,368.1333,631.161,368.5081,631.3291,368.5419,631.3431,368.7693,631.7424,368.9467,632.121,368.9645,632.4335,369.2104,632.8405,369.2708,633.1706,369.0721,633.1706,369.3696,633.3789,369.4612,633.5872,369.4252,633.7956,369.4837,634.0039,369.2708,634.2122,369.1159,634.148,368.9091,634.4939,368.7664,634.8662,368.7943,635.3093,368.5976,635.6593,368.5081,636.0537,368.5986,636.2723,368.1166,636.1502,367.7259,636.2487,367.4336,636.5845,366.9463,636.4499,366.6667,636.8164,366.6667,636.2757,356.25,637.4924,345.8333,637.2702,335.4167,637.5815,325,636.4812,314.5833,637.1489,304.1667,637.4314,293.75,636.3243,283.3333,636.7166,272.9167,636.9476,262.5,637.4953,252.0833,636.812,241.6667,637.2982,231.25,636.2395,220.8333,636.1109,210.4167,637.341,200,636.0696,189.5833,637.3466,179.1667,637.0316,168.75,636.5373,158.3333,636.4479,147.9167,637.2943,137.5,636.5046,127.0833,637.4329,116.6667,636.2406,106.25,637.4596,95.8333,637.3209,85.4167,637.0716,75,636.8164,75.0063,636.8316,74.7283,636.8969,74.345,636.7081,73.9176,636.4131,73.5625,636.2922,73.1586,636.0537,73.1168,636.0364,73.2359,635.7806,72.9032,635.3377,72.7563,634.9717,72.3532,634.4997,72.3958,634.2122,72.2551,634.2122,72.5801,634.0039,72.5451,633.7956,72.3809,633.5872,72.284,633.3789,72.3958,633.1706,72.3256,633.1415,72.3283,632.7111,72.834,632.4891,73.0907,632.164,73.1749,631.7674,73.1586,631.3291,73.2509,631.5521,73.5087,631.1327,73.9067,631.052,74.2119,630.7472,74.6695,630.8101,75,630.5664" style="stroke:#28A745;stroke-width:1.0416666666666667;"/><path d="M220.8333,122.819 L220.9306,122.819 L220.6415,126.9857 L220.9228,131.1523 L221.0184,135.319 L220.5031,139.4857 L220.8333,143.6523 " fill="#333333" style="stroke:#333333;stroke-width:3.125;"/><polygon fill="#333333" points="216.6667,133.2357,216.7344,133.2628,217.3664,135.2656,218.3956,137.4273,219.2955,139.5372,219.77,141.477,220.8333,143.6523,220.8083,143.6423,221.5292,141.514,222.3764,139.4362,223.3114,137.3936,223.9438,135.2299,225,133.2357,225.1359,133.3716,224.0119,133.9143,223.2848,134.8538,222.6061,135.8417,221.6456,136.548,220.8333,137.4023,220.8501,137.4191,219.9922,136.5612,219.2105,135.7795,218.392,134.9611,217.6438,134.2128,216.6667,133.2357" style="stroke:#333333;stroke-width:1.0416666666666667;"/><path d="M220.8333,185.9701 L220.9306,185.9701 L220.6415,191.8685 L220.9228,197.7669 L221.0184,203.6654 L220.5031,209.5638 L220.8333,215.4622 " fill="#333333" style="stroke:#333333;stroke-width:3.125;"/><polygon fill="#333333" points="216.6667,205.0456,216.7344,205.0727,217.3664,207.0755,218.3956,209.2372,219.2955,211.3471,219.77,213.2869,220.8333,215.4622,220.8083,215.4522,221.5292,213.3239,222.3764,211.2461,223.3114,209.2035,223.9438,207.0398,225,205.0456,225.1359,205.1815,224.0119,205.7242,223.2848,206.6637,222.6061,207.6516,221.6456,208.3578,220.8333,209.2122,220.8501,209.229,219.9922,208.3711,219.2105,207.5894,218.392,206.771,217.6438,206.0227,216.6667,205.0456" style="stroke:#333333;stroke-width:1.0416666666666667;"/><path d="M220.8333,257.7799 L220.9306,257.7799 L220.6415,263.5352 L220.9228,269.2904 L221.0184,275.0456 L220.5031,280.8008 L220.8333,286.556 " fill="#333333" style="stroke:#333333;stroke-width:3.125;"/><polygon fill="#333333" points="216.6667,276.1393,216.7344,276.1664,217.3664,278.1692,218.3956,280.3309,219.2955,282.4409,219.77,284.3807,220.8333,286.556,220.8083,286.546,221.5292,284.4177,222.3764,282.3399,223.3114,280.2972,223.9438,278.1335,225,276.1393,225.1359,276.2753,224.0119,276.8179,223.2848,277.7574,222.6061,278.7454,221.6456,279.4516,220.8333,280.306,220.8501,280.3227,219.9922,279.4648,219.2105,278.6832,218.392,277.8647,217.6438,277.1165,216.6667,276.1393" style="stroke:#333333;stroke-width:1.0416666666666667;"/><path d="M220.8333,328.8737 L221.1253,328.8737 L220.2579,340.2409 L221.1018,351.6081 L221.3884,362.9753 L219.8425,374.3424 L220.8333,385.7096 " fill="#333333" style="stroke:#333333;stroke-width:3.125;"/><polygon fill="#333333" points="216.6667,375.293,216.7344,375.3201,217.3664,377.3229,218.3956,379.4846,219.2955,381.5945,219.77,383.5343,220.8333,385.7096,220.8083,385.6996,221.5292,383.5713,222.3764,381.4935,223.3114,379.4508,223.9438,377.2871,225,375.293,225.1359,375.4289,224.0119,375.9716,223.2848,376.9111,222.6061,377.899,221.6456,378.6052,220.8333,379.4596,220.8501,379.4764,219.9922,378.6185,219.2105,377.8368,218.392,377.0183,217.6438,376.2701,216.6667,375.293" style="stroke:#333333;stroke-width:1.0416666666666667;"/><path d="M220.8333,428.0273 L221.1253,428.0273 L220.2579,437.806 L221.1018,447.5846 L221.3884,457.3633 L219.8425,467.1419 L220.8333,476.9206 " fill="#333333" style="stroke:#333333;stroke-width:3.125;"/><polygon fill="#333333" points="216.6667,466.5039,216.7344,466.531,217.3664,468.5338,218.3956,470.6955,219.2955,472.8054,219.77,474.7452,220.8333,476.9206,220.8083,476.9106,221.5292,474.7822,222.3764,472.7045,223.3114,470.6618,223.9438,468.4981,225,466.5039,225.1359,466.6398,224.0119,467.1825,223.2848,468.122,222.6061,469.11,221.6456,469.8162,220.8333,470.6706,220.8501,470.6873,219.9922,469.8294,219.2105,469.0477,218.392,468.2293,217.6438,467.481,216.6667,466.5039" style="stroke:#333333;stroke-width:1.0416666666666667;"/><path d="M156.7708,546.582 L156.8681,546.582 L156.579,550.7487 L156.8603,554.9154 L156.9559,559.082 L156.4406,563.2487 L156.7708,567.4154 " fill="#333333" style="stroke:#333333;stroke-width:3.125;"/><polygon fill="#333333" points="152.6042,556.9987,152.6719,557.0258,153.3039,559.0286,154.3331,561.1903,155.233,563.3002,155.7075,565.24,156.7708,567.4154,156.7458,567.4053,157.4667,565.277,158.3139,563.1992,159.2489,561.1566,159.8813,558.9929,160.9375,556.9987,161.0734,557.1346,159.9494,557.6773,159.2223,558.6168,158.5436,559.6048,157.5831,560.311,156.7708,561.1654,156.7876,561.1821,155.9297,560.3242,155.148,559.5425,154.3295,558.7241,153.5813,557.9758,152.6042,556.9987" style="stroke:#333333;stroke-width:1.0416666666666667;"/><path d="M305.2083,546.582 L305.3056,546.582 L305.0165,550.7487 L305.2978,554.9154 L305.3934,559.082 L304.8781,563.2487 L305.2083,567.4154 " fill="#333333" style="stroke:#333333;stroke-width:3.125;"/><polygon fill="#333333" points="301.0417,556.9987,301.1094,557.0258,301.7414,559.0286,302.7706,561.1903,303.6705,563.3002,304.145,565.24,305.2083,567.4154,305.1833,567.4053,305.9042,565.277,306.7514,563.1992,307.6864,561.1566,308.3188,558.9929,309.375,556.9987,309.5109,557.1346,308.3869,557.6773,307.6598,558.6168,306.9811,559.6048,306.0206,560.311,305.2083,561.1654,305.2251,561.1821,304.3672,560.3242,303.5855,559.5425,302.767,558.7241,302.0188,557.9758,301.0417,556.9987" style="stroke:#333333;stroke-width:1.0416666666666667;"/><path d="M156.7708,609.7331 L156.8681,609.7331 L156.579,613.8997 L156.8603,618.0664 L156.9559,622.2331 L156.4406,626.3997 L156.7708,630.5664 " fill="#333333" style="stroke:#333333;stroke-width:3.125;"/><polygon fill="#333333" points="152.6042,620.1497,152.6719,620.1768,153.3039,622.1796,154.3331,624.3413,155.233,626.4513,155.7075,628.3911,156.7708,630.5664,156.7458,630.5564,157.4667,628.4281,158.3139,626.3503,159.2489,624.3076,159.8813,622.1439,160.9375,620.1497,161.0734,620.2857,159.9494,620.8283,159.2223,621.7678,158.5436,622.7558,157.5831,623.462,156.7708,624.3164,156.7876,624.3332,155.9297,623.4752,155.148,622.6936,154.3295,621.8751,153.5813,621.1269,152.6042,620.1497" style="stroke:#333333;stroke-width:1.0416666666666667;"/><path d="M305.2083,609.7331 L305.3056,609.7331 L305.0165,613.8997 L305.2978,618.0664 L305.3934,622.2331 L304.8781,626.3997 L305.2083,630.5664 " fill="#333333" style="stroke:#333333;stroke-width:3.125;"/><polygon fill="#333333" points="301.0417,620.1497,301.1094,620.1768,301.7414,622.1796,302.7706,624.3413,303.6705,626.4513,304.145,628.3911,305.2083,630.5664,305.1833,630.5564,305.9042,628.4281,306.7514,626.3503,307.6864,624.3076,308.3188,622.1439,309.375,620.1497,309.5109,620.2857,308.3869,620.8283,307.6598,621.7678,306.9811,622.7558,306.0206,623.462,305.2083,624.3164,305.2251,624.3332,304.3672,623.4752,303.5855,622.6936,302.767,621.8751,302.0188,621.1269,301.0417,620.1497" style="stroke:#333333;stroke-width:1.0416666666666667;"/><path d="M220.8333,519.2383 L220.9306,519.2383 L220.6415,523.457 L220.9228,527.6758 L221.0184,531.8945 L220.5031,536.1133 L220.8333,540.332 " fill="#333333" style="stroke:#333333;stroke-width:3.125;"/><polygon fill="#333333" points="216.6667,529.9154,216.7344,529.9425,217.3664,531.9453,218.3956,534.107,219.2955,536.2169,219.77,538.1567,220.8333,540.332,220.8083,540.322,221.5292,538.1937,222.3764,536.1159,223.3114,534.0732,223.9438,531.9095,225,529.9154,225.1359,530.0513,224.0119,530.5939,223.2848,531.5335,222.6061,532.5214,221.6456,533.2276,220.8333,534.082,220.8501,534.0988,219.9922,533.2409,219.2105,532.4592,218.392,531.6407,217.6438,530.8925,216.6667,529.9154" style="stroke:#333333;stroke-width:1.0416666666666667;"/><!--SRC=[xLfhKzHO6lwS_XKHFunMjGpTt1pM7LTGd9a2rn9dzlCXEK2MaFGcQP6TigfHkQZSL10GL1XbbdKTBhikSX7uCpdfxd-nxyb9qaawTCDkMsLj6RIAFkSzptk_d2RSAQC7zs5UxyM6q3DmJaqRigJW66T8Xenvih9FxasIZStSuRovCsfkPyZ2ItFtqQbJfsAStYifAQIXFbx4NIWj6wsgObn3W5PL5UCkwCQ0ZB-DnJXH5T9zM37udsDSCn9wkpKrhOWjggngV7-FP02tEp4E2OPqIp86Bakecs82CKS1EwI_OZxH09- -uZq6FF_75DQGeMhjgg9sTFITQyUYbEu3Af08P9TKnKRWRZ1Uce8rFb43Ay2AKrG3iss6oMHfba4ujjW6Dc2Brz2j0ROM5dq0oxBQpn3XtuMl7OMvfjpQttF_lc_jJf7rdTpcSkxWW8nkM8kloC5Gzk6MbHdy7H2Hmw7yyfwvFMuz-oqtyO5CFcDdpCDbQt3z3Db_IXwCCtBoPCn_-cpkS26tF0RWrleqGDdQQ59tZn7ZoC6eDNUGlRyL1sGokPwxjvzTU9-Tty-kPSZu35dSi9PshF4rQt8oTxYHdLxjKZLoy3OxiSuaoJw_puI9npXhzB6vzmuGoTgEDVVKklSlK2FEaw5HHcBDR01ItDnvHAOc02gxy9XClGC4wzaE-JWPvwt51sHoZemzinwCvqT6g8eWziFLwXY75P6dSbD338ssIRh1CCdGQlxUAXoTMCc-oFm9GL0oMCOCm1bYI6qc6mIfjVI1gh1sa5jR1fH_Bblh2zdPeG13nzgPCGTpuJrm8s_kPwU6oTJinR15DpOX2y3IvF0V-SmJCZQKUxrZlLWnTuTfEYmDWwNC_QNStNMozjoQMmTrpBq9X_ZnNFxkw_p86DaOjXvag3tiTMjwozn-P4qVW2V9vYFosnJG00xu3KoP6tbBFcnQGx_0F_8nartRPCB5oSAIkRthBCsiK4KpizRiLj2UJ7cGpTn-cvzxHKPdmMV0trQMySojhx2TaAw9QiQ2UJw_cCdzEaXZs0vCO4TZQceikxb7NZwodewR-ulChTc5RR8xJUMn_Hi7NSsz5R9sZmQ3JSVEKBZVviZTrHYNhCvERvgx4qnEVxh4MTYIDy-jTylcnoLgnwanHWUbnzpRYfErb_dv8NFxeHEYas_DmnVPcNb6HClLyXXuPUzrTccGMd_oBJNzw59-_WsDe8cz_CZunGjTaFcyG7FvzrKicQk-fVQTMR4W99vjWBOiefWA5ozyJKz0WhDjGCe_6QKoGsqCgc2Rwgsv_vI9PIrcmArCE7QM8L9psh92B5qC-92PtjeQpRrtu9c_W11S1ZaBTQh9t7vE7YxdCtkvWyUUeM7xAwZ71X9w626Fkf6aq3mRdYT3AzcFJy45DCY17GCA918pwE08H942bLPF8G5R4tyZerjaVXNo148NCetf8c8P6vZvn3tg1Ct6CCIOeaEKqwYmJPC7dzekYDDa-lLkIXNZa1tGLi08ph69FPIITApTmXhBKY2YwJLZcshOCS8sBLCidbafP4h5UIYyR1agfWVaqK9oWZ-iiK6GFZVotiit6gfJ4n0XJ0XpBmCo-Mi3v3FZ09ozwWXkWT1YIkSEvsZ47ioIaLtcBaOF71bczZrayWn8ukZEYd31m2zMh5ShkVLV0fdy1_WrtIV7w5FejPsXDcHeI04G3HgiZogjusO8WWxQalWk9ElOjzc35B5Vamm3At0yxT_IUv2ezajAjtE8FMulvtbDLMaVXmPSr0_zWj3zGcCzdSJqnrxzRW0QDxJNNcUhIsp4YJfxgz1q_GVewiqUIUXLiAxp2Nkj7MdTaaBxEVrq7OaYbRZ1_jJXQL1JJVVlm7z55J6JsgLDrDDFjlG26mwIDbXffIYMW5BET54idSkl2wm4aAL8A9FKTnY97bsOzUbw-mdRCj68aftdlLNcuKvL5XtW7ZzcD6yDTs7GIC0b-PVmPqYo8XbqJAC9fhEZLEkodn1i5CCYQ3QNmkpcpORWEAvPrK0H_wpdUywx-mLBSDvcedWc3GZ2-TIkjHyNBMmBEz3wHHXVVIEiWer-MeJjORCu8u9G7lxHdg0Y0vGlLTn3N2XHgcjYaHnXL6LriM8oiV5TqzH-RsWF8NB5gKtFs3bWdw7eLoC2970IDz2V8asJjgPEIQY7NzqShwTCd6n3Yc7ut68WlRU2-aVwer2a2Y8rs7fxrmyVyoY54_NV9553X7d2nlVdMm2XJgG_vH2Yv03KFad6kg4gHR8w9IXyFolagsGWMHAY_EfaIwIGT-Yjim_J-wSN5DsHXwFb5MHLnsBqKTo0S4t3KKTfa7ZtjwEljUofwi3TAkQlQv9YL4LJspPnwalIJvAI-E8dKLCJsO7zJxY5-pkNlz8LAAxJUx0WfI3otUY3fyxFgbczxTjodm19n3uyzJwAIpJndS9PU5nV-VI2ZeXL0zg_qnHQoZMSba0YEb52DowLEtafS39Pzqr3BHiclYztyll0IQ6XjiOvUQNSoIk1aqwyqOrhvKvU2vnqalwEptI1dcUJSKL155Mz8gZSN7EZr2Ofq5M-b_eVl-9t_3EjZBlfsFjpcJ8R5GyH1Jm0hVTBVJ9Y5ILePwU8XTL9nhYRrDwbfmAR99ArZxVxbTPHRV7aZQOPUK5z7ZNMGItiC23FGofTySgUkmAjhqzLnDAHw555ffsxMqxfLA7kL4vlNp4hzbUHqPq-M0dE8Mnto2cmX_CXk786ql5VqdJuBef85-28s2fj8NySk425E2XChhVBPDZjgE6MhXUF_znbBAE1YFKsgGlJ_Xu95TmCv9st5UxURgxJKI8LYMhlH8XojN3DYXXW6DvHOuRlR4cZNOOaZw3ntv9SaiYBGsZRRnBVPiJWSiEznvKKhq0LPJXlDy9uDuBtn0W3XYYED6M7r_oFLJxSh-yZqoFgGdRi31PKMSO2nTS_KOqG055JvK-43YkLR2X1y4vAXBHF1O-wZ_WZ40IqaAXf3360nKOwZnG7PX3MlKs5ioTY6War_T0rgpZ3mjNVaBgWlVpFSugp58wRlXJSjIhODOFuS5l16eYFeyG_Mdx-j2ZKrjD9evmVuAgeWOlBMGScYQX9sG_lB8NTB9vGTAzEbdCiN1pJ9vm-MvEjBQrNoZTx4Hce4-duKnKR6UcLAsJSCPfTP2KlZ0b5ANZ9C3IfCsr4aGVssFS8YP22QkUViL31GR9K8pgk-2xvCSHFwrYefFUZRYkHAZbWGMaqC2LIkkNFHPuK8FyN5QFK853cSj2bokmBxnCnTDjJe8xuErO9XXhzukY4_Dmk5J5mbUEd6yZ0bKoNuzmkevB4hRt7I1Au3gK_MO54sWahUyGqu7qb4_2i9EEJ8H-t7O4FXTuAskDpV9VdH6_fV7d1viiBDbzUiFdoWitdyeBDbzTg_YzUgxak8yNuiRsD1srqseeIrScQP6rruvbMJUBRqG2VIFA9ngPaRLDTal_nPWjFjy_6pboztiRhQbg3kxG8XTMUR-3ysTWFw1RYRwGL-cVC9bv9otBiXv_Qc_YET2UGqSdif_ROPTPW-IkAeDA_hJK1TEkvyx4s6CtJC0ux1rkW9HhQ0Flq7m00]--></g></svg>