<?xml version="1.0" encoding="us-ascii" standalone="no"?><svg xmlns="http://www.w3.org/2000/svg" xmlns:xlink="http://www.w3.org/1999/xlink" contentStyleType="text/css" height="795px" preserveAspectRatio="none" style="width:731px;height:795px;background:#EEEBDC;" version="1.1" viewBox="0 0 731 795" width="731px" zoomAndPan="magnify"><defs/><g><rect fill="#EEEBDC" height="795" style="stroke:none;stroke-width:1.0;" width="731" x="0" y="0"/><text fill="#000000" font-family="sans-serif" font-size="14" font-weight="bold" lengthAdjust="spacing" textLength="70" x="323.75" y="22.9951">k8s&#30340;&#35774;&#35745;</text><!--cluster Informer--><g id="cluster_Informer"><rect fill="none" height="427.89" style="stroke:#181818;stroke-width:1.0;" width="413" x="7" y="216.5869"/><text fill="#000000" font-family="sans-serif" font-size="14" font-weight="bold" lengthAdjust="spacing" textLength="68" x="179.5" y="231.582">Informer</text></g><!--cluster controller--><g id="cluster_controller"><rect fill="none" height="360.89" style="stroke:#181818;stroke-width:1.0;" width="365" x="31" y="259.5869"/><text fill="#000000" font-family="sans-serif" font-size="14" font-weight="bold" lengthAdjust="spacing" textLength="77" x="175" y="274.582">controller</text></g><!--cluster Reflector--><g id="cluster_Reflector"><rect fill="none" height="201.6" style="stroke:#181818;stroke-width:1.0;" width="144" x="228" y="302.5869"/><rect fill="none" height="10" style="stroke:#181818;stroke-width:1.0;" width="15" x="352" y="307.5869"/><rect fill="none" height="2" style="stroke:#181818;stroke-width:1.0;" width="4" x="350" y="309.5869"/><rect fill="none" height="2" style="stroke:#181818;stroke-width:1.0;" width="4" x="350" y="313.5869"/><text fill="#000000" font-family="sans-serif" font-size="14" font-weight="bold" lengthAdjust="spacing" textLength="72" x="264" y="328.582">Reflector</text></g><!--entity processLoop--><g id="elem_processLoop"><rect fill="#F1F1F1" height="36.2969" rx="2.5" ry="2.5" style="stroke:#181818;stroke-width:0.5;" width="110" x="270" y="568.1869"/><text fill="#000000" font-family="sans-serif" font-size="14" lengthAdjust="spacing" textLength="90" x="280" y="591.182">processLoop</text></g><g id="elem_GMN8"><path d="M99.5,342.5869 L99.5,368.8838 L208.5,368.8838 L208.5,352.5869 L198.5,342.5869 L99.5,342.5869 " fill="#FEFFDD" style="stroke:#181818;stroke-width:0.5;"/><path d="M198.5,342.5869 L198.5,352.5869 L208.5,352.5869 L198.5,342.5869 " fill="#FEFFDD" style="stroke:#181818;stroke-width:1.0;"/><text fill="#000000" font-family="sans-serif" font-size="14" lengthAdjust="spacing" textLength="88" x="105.5" y="360.582">&#20808;&#33719;&#21462;,&#20877;&#30417;&#21548;</text></g><g id="elem_GMN12"><path d="M135.5,456.8869 L135.5,483.1838 L212.5,483.1838 L212.5,466.8869 L202.5,456.8869 L135.5,456.8869 " fill="#FEFFDD" style="stroke:#181818;stroke-width:0.5;"/><path d="M202.5,456.8869 L202.5,466.8869 L212.5,466.8869 L202.5,456.8869 " fill="#FEFFDD" style="stroke:#181818;stroke-width:1.0;"/><text fill="#000000" font-family="sans-serif" font-size="14" lengthAdjust="spacing" textLength="56" x="141.5" y="474.882">&#25918;&#36827;&#38431;&#21015;</text></g><g id="elem_GMN16"><path d="M47,573.1869 L47,599.4838 L235,599.4838 L235,583.1869 L225,573.1869 L47,573.1869 " fill="#FEFFDD" style="stroke:#181818;stroke-width:0.5;"/><path d="M225,573.1869 L225,583.1869 L235,583.1869 L225,573.1869 " fill="#FEFFDD" style="stroke:#181818;stroke-width:1.0;"/><text fill="#000000" font-family="sans-serif" font-size="14" lengthAdjust="spacing" textLength="167" x="53" y="591.182">&#20869;&#37096;&#26159;DeltaFIFO pop&#25805;&#20316;</text></g><!--entity ListAndWatch--><g id="elem_ListAndWatch"><rect fill="#F1F1F1" height="36.2969" rx="2.5" ry="2.5" style="stroke:#181818;stroke-width:0.5;" width="113" x="243.5" y="337.5869"/><text fill="#000000" font-family="sans-serif" font-size="14" lengthAdjust="spacing" textLength="93" x="253.5" y="360.582">ListAndWatch</text></g><!--entity DeltaFIFO--><g id="elem_DeltaFIFO"><rect fill="#F1F1F1" height="36.2969" rx="2.5" ry="2.5" style="stroke:#181818;stroke-width:0.5;" width="86" x="255" y="451.8869"/><text fill="#000000" font-family="sans-serif" font-size="14" lengthAdjust="spacing" textLength="66" x="265" y="474.882">DeltaFIFO</text></g><!--entity indexer--><g id="elem_indexer"><rect fill="#F1F1F1" height="36.2969" rx="2.5" ry="2.5" style="stroke:#181818;stroke-width:0.5;" width="71" x="654.5" y="568.1869"/><text fill="#000000" font-family="sans-serif" font-size="14" lengthAdjust="spacing" textLength="51" x="664.5" y="591.182">indexer</text></g><!--entity HandleDeltas--><g id="elem_HandleDeltas"><rect fill="#F1F1F1" height="36.2969" rx="2.5" ry="2.5" style="stroke:#181818;stroke-width:0.5;" width="112" x="436" y="568.1869"/><text fill="#000000" font-family="sans-serif" font-size="14" lengthAdjust="spacing" textLength="92" x="446" y="591.182">HandleDeltas</text></g><!--entity APIServer--><g id="elem_APIServer"><rect fill="#F1F1F1" height="46.2969" rx="2.5" ry="2.5" style="stroke:#181818;stroke-width:0.5;" width="105" x="247.5" y="44.2969"/><rect fill="#F1F1F1" height="10" style="stroke:#181818;stroke-width:0.5;" width="15" x="332.5" y="49.2969"/><rect fill="#F1F1F1" height="2" style="stroke:#181818;stroke-width:0.5;" width="4" x="330.5" y="51.2969"/><rect fill="#F1F1F1" height="2" style="stroke:#181818;stroke-width:0.5;" width="4" x="330.5" y="55.2969"/><text fill="#000000" font-family="sans-serif" font-size="14" lengthAdjust="spacing" textLength="65" x="262.5" y="77.292">APIServer</text></g><!--entity distribute--><g id="elem_distribute"><rect fill="#F1F1F1" height="36.2969" rx="2.5" ry="2.5" style="stroke:#181818;stroke-width:0.5;" width="171" x="406.5" y="753.4769"/><text fill="#000000" font-family="sans-serif" font-size="14" lengthAdjust="spacing" textLength="151" x="416.5" y="776.472">s.processor.distribute</text></g><!--link GMN8 to ListAndWatch--><g id="link_GMN8_ListAndWatch"><path d="M208.75,355.7369 C220.28,355.7369 231.8,355.7369 243.33,355.7369 " fill="none" id="GMN8-ListAndWatch" style="stroke:#00BFFF;stroke-width:1.0;stroke-dasharray:7.0,7.0;"/></g><!--link ListAndWatch to DeltaFIFO--><g id="link_ListAndWatch_DeltaFIFO"><path d="M299.69,374.2869 C299.35,393.4869 298.8,424.3569 298.42,445.6169 " fill="none" id="ListAndWatch-to-DeltaFIFO" style="stroke:#00BFFF;stroke-width:1.0;"/><polygon fill="#00BFFF" points="298.31,450.6069,302.4892,441.6887,298.41,445.6079,294.4908,441.5287,298.31,450.6069" style="stroke:#00BFFF;stroke-width:1.0;"/><text fill="#000000" font-family="sans-serif" font-size="14" lengthAdjust="spacing" textLength="56" x="301" y="417.882">&#29983;&#20135;&#28040;&#24687;</text></g><!--link GMN12 to DeltaFIFO--><g id="link_GMN12_DeltaFIFO"><path d="M212.75,470.0369 C226.74,470.0369 240.72,470.0369 254.71,470.0369 " fill="none" id="GMN12-DeltaFIFO" style="stroke:#00BFFF;stroke-width:1.0;stroke-dasharray:7.0,7.0;"/></g><!--link DeltaFIFO to processLoop--><g id="link_DeltaFIFO_processLoop"><path d="M302.1,488.3969 C306.76,508.1169 314.38,540.3869 319.54,562.2169 " fill="none" id="DeltaFIFO-to-processLoop" style="stroke:#00BFFF;stroke-width:1.0;"/><polygon fill="#00BFFF" points="320.86,566.8069,322.6654,557.1249,319.7013,561.943,314.8832,558.9789,320.86,566.8069" style="stroke:#00BFFF;stroke-width:1.0;"/><text fill="#000000" font-family="sans-serif" font-size="14" lengthAdjust="spacing" textLength="56" x="315" y="534.182">&#28040;&#36153;&#28040;&#24687;</text></g><!--link GMN16 to processLoop--><g id="link_GMN16_processLoop"><path d="M235.16,586.3269 C246.62,586.3269 258.09,586.3269 269.55,586.3269 " fill="none" id="GMN16-processLoop" style="stroke:#00BFFF;stroke-width:1.0;stroke-dasharray:7.0,7.0;"/></g><!--link APIServer to ListAndWatch--><g id="link_APIServer_ListAndWatch"><path d="M300,90.9069 C300,144.0869 300,277.2769 300,331.3569 " fill="none" id="APIServer-to-ListAndWatch" style="stroke:#00BFFF;stroke-width:1.0;"/><polygon fill="#00BFFF" points="300,336.2569,304,327.2569,300,331.2569,296,327.2569,300,336.2569" style="stroke:#00BFFF;stroke-width:1.0;"/><text fill="#000000" font-family="sans-serif" font-size="14" lengthAdjust="spacing" textLength="71" x="301" y="165.582">List/Watch</text></g><!--link processLoop to HandleDeltas--><g id="link_processLoop_HandleDeltas"><path d="M380.45,586.3269 C397.02,586.3269 413.6,586.3269 430.17,586.3269 " fill="none" id="processLoop-to-HandleDeltas" style="stroke:#00BFFF;stroke-width:1.0;"/><polygon fill="#00BFFF" points="434.79,586.3269,425.79,582.3269,429.79,586.3269,425.79,590.3269,434.79,586.3269" style="stroke:#00BFFF;stroke-width:1.0;"/></g><!--link HandleDeltas to distribute--><g id="link_HandleDeltas_distribute"><path d="M492,604.9069 C492,638.1669 492,710.2869 492,747.4569 " fill="none" id="HandleDeltas-to-distribute" style="stroke:#00BFFF;stroke-width:1.0;"/><polygon fill="#00BFFF" points="492,752.1069,496,743.1069,492,747.1069,488,743.1069,492,752.1069" style="stroke:#00BFFF;stroke-width:1.0;"/></g><!--link HandleDeltas to indexer--><g id="link_HandleDeltas_indexer"><path d="M548.47,586.3269 C580.3,586.3269 619.37,586.3269 648.39,586.3269 " fill="none" id="HandleDeltas-to-indexer" style="stroke:#00BFFF;stroke-width:1.0;"/><polygon fill="#00BFFF" points="653.05,586.3269,644.05,582.3269,648.05,586.3269,644.05,590.3269,653.05,586.3269" style="stroke:#00BFFF;stroke-width:1.0;"/><text fill="#000000" font-family="sans-serif" font-size="14" lengthAdjust="spacing" textLength="70" x="566.25" y="579.322">&#26356;&#26032;&#21040;&#32531;&#23384;</text></g><!--SRC=[RLJFJnD153xl_1KlU874Lbk8a3qOItyef8qD5JnFTwTbq-dCEZCBLkB1AAGN_1484Z4XdlIWm85eD8h_3DkM_yBPRUdkDjxslVTzttlVsvanbACeWTQ2x7zuDJYv69nyGePiESp50hUXZgrMKt2FsNbEkO0RnM9niP2FGspIm1vL9SvKpNb683CNhqhLqV9I2STINfl6ItdD49p25Z92SeYiSsgFub3i3ZAUnqa5h70TIx8r0PfKI90aUU8HPf6WbP4JWcyEtHG8SMkjpYBrY2vKiL2EvRYOgOJqP3xH1Hc2M0gpfiujiGONRIA2Db7M6jgaHEYqnTikPuGfc5eX3Qf1N4m1bZ2EakIo8rMEsO-nijRZ-GAX2fUMIWz3fr7U5TmYKfOvTv71k290IKC1RoIKJF2tkuFNF_mt1pVzdTt-qJl_xLTan26GIjsDke09_VtZor-VUz-xlHUd4z9Zc0cz_Ol1twEhmsE_-nuP4JzGYysczRJIuFpdV_KI9loTxQkNNtg7fv6OoztUtkxbdu_88Co6W1kkOM8N3p2pAGbfCh7vN7MfHiG66Mv-725Z_0afcs-oOEZ4JimWkZNw6SY86qe9fxck0aQoRJIEJ8_mNAHj9xWHTK-RrXD44JBYx6YAE29IT9XDdeR7BNIUf8xdkKRfbH-TzmxE_EvP__UU_-qG6VVq-e9BYQfK7-xLIXcqT-bm1fbqzdPsDZq_NH8EL707Cbd8p9lPMNCk2wkFyX2KPz3q_MeP9FU4lblZ6JL_1YtZ3Gmh7bDEcvZ0F4hHybh5X9fNrp2iZQzLK67uT42HMTnsMDFKqgNK0YfhVnvkNXFp-lrHeZEC_W40]--></g></svg>