<?xml version="1.0" encoding="us-ascii" standalone="no"?><svg xmlns="http://www.w3.org/2000/svg" xmlns:xlink="http://www.w3.org/1999/xlink" contentStyleType="text/css" height="336.4583px" preserveAspectRatio="none" style="width:470px;height:336px;background:#FFFFFF;" version="1.1" viewBox="0 0 470 336" width="470.8333px" zoomAndPan="magnify"><defs/><g><polygon fill="none" points="178.125,11.4583,178.125,11.6773,188.5417,11.0267,198.9583,11.6597,209.375,11.8747,219.7917,10.7152,230.2083,11.3774,240.625,11.0141,251.0417,11.0589,261.4583,11.3873,271.875,10.7382,282.2917,12.035,292.7083,11.4583,292.6246,11.2561,293.2713,11.639,293.9442,12.0851,294.4647,12.163,295.0744,12.4565,295.6546,12.6787,295.6444,12.6745,295.956,13.2917,296.2195,13.889,296.5747,14.5243,296.8462,15.1249,296.875,15.625,297.1109,15.625,296.9634,21.4518,297.036,27.2786,297.1188,33.1055,296.6246,38.9323,296.875,44.7591,297.0927,44.8493,296.5358,45.309,296.5581,46.0086,295.984,46.4611,295.8767,47.107,295.6546,47.7054,295.7532,47.9433,295.0589,47.9338,294.4901,48.2273,293.9318,48.5463,293.3529,48.8152,292.7083,48.9258,292.7083,48.9217,282.2917,49.225,271.875,48.3295,261.4583,49.222,251.0417,49.4968,240.625,49.3888,230.2083,49.5643,219.7917,48.4226,209.375,48.2464,198.9583,48.2785,188.5417,48.8644,178.125,48.9258,178.0989,48.8627,177.6263,48.9003,176.9233,48.3816,176.3116,48.0835,175.7983,48.0227,175.1787,47.7054,174.9648,47.6168,174.7681,47.0472,174.8987,46.6131,174.5862,45.9955,174.438,45.446,173.9583,44.7591,173.8466,44.7591,174.0692,38.9323,174.1633,33.1055,173.7943,27.2786,173.925,21.4518,173.9583,15.625,173.9987,15.6417,174.4115,15.1223,174.4451,14.4459,174.839,13.9187,174.757,13.1944,175.1787,12.6787,175.0887,12.4615,175.8349,12.5962,176.262,11.9606,177.0141,12.1098,177.5632,11.7687,178.125,11.4583" style="stroke:#333333;stroke-width:1.0416666666666667;"/><text fill="#2E2E2E" font-family="" font-size="12.5" lengthAdjust="spacing" textLength="100" x="185.4167" y="34.5194">&#27604;&#22914;&#21024;&#38500;&#19968;&#20010;pod</text><polygon fill="none" points="15.625,69.7591,15.625,69.9781,26.0913,69.3275,36.5575,69.9605,47.0238,70.1754,57.4901,69.016,67.9563,69.6782,78.4226,69.3149,88.8889,69.3596,99.3552,69.6881,109.8214,69.0389,120.2877,70.3358,130.754,69.1026,141.2202,69.5531,151.6865,70.2091,162.1528,69.6698,172.619,69.8302,183.0853,69.7258,193.5516,69.9451,204.0179,70.0082,214.4841,70.3692,224.9504,70.4581,235.4167,70.4667,245.8829,70.0244,256.3492,70.242,266.8155,70.4906,277.2817,69.0079,287.748,70.4659,298.2143,69.4503,308.6806,70.3152,319.1468,69.2435,329.6131,69.6878,340.0794,70.5316,350.5456,69.7083,361.0119,69.8688,371.4782,70.1119,381.9444,70.1927,392.4107,69.755,402.877,70.0583,413.3433,69.1628,423.8095,70.0554,434.2758,70.3302,444.7421,70.2222,455.2083,69.7591,455.2898,69.9558,455.7334,69.8482,456.3002,70.0381,456.8935,70.292,457.5575,70.7165,458.1546,70.9795,458.0916,70.9534,458.6173,71.6593,458.5867,72.1348,458.7768,72.7017,459.2041,73.3669,459.375,73.9258,458.6804,73.9258,458.8342,83.6317,460.051,93.3377,459.8288,103.0436,460.1401,112.7496,459.0398,122.4555,459.375,132.1615,459.4774,132.2039,459.3203,132.8292,458.7353,133.2772,458.612,133.9165,458.4391,134.5352,458.1546,135.1077,458.2412,135.3168,457.5648,135.3505,457.0376,135.7443,456.3133,135.6623,455.7076,135.8668,455.2083,136.3281,455.2083,136.8527,444.7421,135.5813,434.2758,136.8583,423.8095,136.5434,413.3433,136.049,402.877,135.9596,392.4107,136.806,381.9444,136.0163,371.4782,136.9446,361.0119,135.7523,350.5456,136.9713,340.0794,136.8326,329.6131,136.5833,319.1468,136.3773,308.6806,137.085,298.2143,136.9673,287.748,136.5044,277.2817,136.6075,266.8155,136.1924,256.3492,137.0744,245.8829,136.4894,235.4167,136.5079,224.9504,135.6944,214.4841,135.906,204.0179,136.881,193.5516,136.7758,183.0853,136.2834,172.619,135.9925,162.1528,136.1001,151.6865,135.6134,141.2202,136.7601,130.754,137.0985,120.2877,136.8765,109.8214,137.052,99.3552,136.1857,88.8889,136.419,78.4226,135.9244,67.9563,136.624,57.4901,136.5852,47.0238,136.9035,36.5575,136.0889,26.0913,136.1881,15.625,136.3281,15.6839,136.4704,15.1111,136.266,14.3784,135.6756,13.8315,135.5337,13.2878,135.3997,12.6787,135.1077,12.4828,135.0266,12.548,134.5654,12.2733,133.9635,11.9142,133.3266,11.748,132.7696,11.4583,132.1615,12.2174,132.1615,11.1324,122.4555,11.7864,112.7496,11.7559,103.0436,11.5789,93.3377,11.6051,83.6317,11.4583,73.9258,11.4947,73.9409,11.5022,73.2536,11.8179,72.694,12.0425,72.0967,12.4551,71.5772,12.6787,70.9795,12.6904,71.0078,13.2895,70.7873,13.8186,70.398,14.4375,70.2256,15.0198,69.9646,15.625,69.7591" style="stroke:#333333;stroke-width:1.0416666666666667;"/><text fill="#2E2E2E" font-family="" font-size="12.5" lengthAdjust="spacing" textLength="104.1667" x="22.9167" y="92.8202">&#26631;&#35760;&#35201;&#21024;&#38500;&#30340;&#23545;&#35937;,</text><text fill="#2E2E2E" font-family="" font-size="12.5" lengthAdjust="spacing" textLength="425" x="22.9167" y="107.371">&#36890;&#36807;&#35774;&#32622;&#23545;&#35937;&#30340;.metadata.deletionTimestamp&#20026;&#20320;&#24320;&#22987;&#25191;&#34892;&#21024;&#38500;&#30340;&#26102;&#38388;,</text><text fill="#2E2E2E" font-family="" font-size="12.5" lengthAdjust="spacing" textLength="386.4583" x="22.9167" y="121.9218">&#36820;&#22238; 202 &#29366;&#24577;&#30721;(HTTP "&#24050;&#25509;&#21463;") &#20351;&#20854;&#36827;&#20837;&#21482;&#35835;&#29366;&#24577;,&#31105;&#27490;&#23545;&#35937;&#34987;&#21024;&#38500;</text><polygon fill="none" points="147.9167,157.1615,147.9167,157.3804,158.2108,156.7299,168.5049,157.3628,178.799,157.5778,189.0931,156.4183,199.3873,157.0805,209.6814,156.7172,219.9755,156.762,230.2696,157.0905,240.5637,156.4413,250.8578,157.7382,261.152,156.5049,271.4461,156.9555,281.7402,157.6114,292.0343,157.0721,302.3284,157.2325,312.6225,157.1282,322.9167,157.1615,322.9404,157.2187,323.5377,157.4822,324.173,157.8375,324.7736,158.109,325.3639,158.3557,325.8629,158.3818,325.9446,158.4157,326.2557,159.0327,326.5764,159.6537,326.3638,160.0538,327.0569,160.829,327.0833,161.3281,326.9804,161.3281,327.2687,167.1549,326.9115,172.9818,327.0595,178.8086,327.3408,184.6354,327.0833,190.4622,327.0677,190.4558,326.873,191.0655,326.7038,191.6857,326.4846,192.2853,326.1058,192.8187,325.8629,193.4085,325.9011,193.5007,325.1976,193.469,324.7222,193.9879,324.168,194.3166,323.565,194.5274,322.9167,194.6289,322.9167,195.2675,312.6225,194.1257,302.3284,193.9495,292.0343,193.9816,281.7402,194.5676,271.4461,194.4242,261.152,195.3387,250.8578,194.447,240.5637,194.2716,230.2696,194.8667,219.9755,193.9343,209.6814,194.0882,199.3873,195.3049,189.0931,195.0827,178.799,195.394,168.5049,194.2937,158.2108,194.9614,147.9167,194.6289,147.9951,194.8183,147.2646,194.2333,146.7254,194.11,146.1656,193.9371,145.6462,193.8617,144.9704,193.4085,144.969,193.408,144.8747,192.8807,144.3046,192.1564,144.0209,191.5508,144.1556,191.1184,143.75,190.4622,143.5011,190.4622,143.9267,184.6354,143.8217,178.8086,143.657,172.9818,143.6272,167.1549,143.75,161.3281,143.8972,161.3891,143.8981,160.6991,144.428,160.2283,144.3049,159.4869,144.9244,159.0531,144.9704,158.3818,145.0347,158.5372,145.5922,158.2164,146.1552,157.9088,146.8347,157.8827,147.4089,157.6024,147.9167,157.1615" style="stroke:#333333;stroke-width:1.0416666666666667;"/><text fill="#2E2E2E" font-family="" font-size="12.5" lengthAdjust="spacing" textLength="160.4167" x="155.2083" y="180.2226">&#25191;&#34892; Finalizer &#25152;&#23450;&#20041;&#30340;&#34892;&#21160;</text><polygon fill="none" points="81.25,215.4622,81.25,215.6812,91.5278,215.0307,101.8056,215.6636,112.0833,215.8786,122.3611,214.7191,132.6389,215.3813,142.9167,215.018,153.1944,215.0628,163.4722,215.3912,173.75,214.7421,184.0278,216.0389,194.3056,214.8057,204.5833,215.2562,214.8611,215.9122,225.1389,215.3729,235.4167,215.5333,245.6944,215.429,255.9722,215.6482,266.25,215.7113,276.5278,216.0723,286.8056,216.1613,297.0833,216.1698,307.3611,215.7275,317.6389,215.9451,327.9167,216.1937,338.1944,214.711,348.4722,216.169,358.75,215.1534,369.0278,216.0183,379.3056,214.9466,389.5833,215.4622,389.5742,215.4403,390.2711,215.9442,390.7554,215.9348,391.3651,216.2283,391.9854,216.5472,392.5296,216.6826,392.6631,216.7379,392.7724,217.2714,393.1099,217.8993,393.0782,218.3743,393.5972,219.0774,393.75,219.6289,393.9403,219.6289,393.9044,225.4557,393.9629,231.2826,393.5823,237.1094,393.5235,242.9362,393.75,248.763,393.5507,248.6805,393.487,249.3445,393.1988,249.9154,393.2364,250.6213,392.7177,251.0968,392.5296,251.7093,392.484,251.5993,391.9707,252.0266,391.2625,251.9835,390.6929,252.275,390.2588,252.8938,389.5833,252.9297,389.5833,253.3835,379.3056,253.6948,369.0278,252.5945,358.75,253.2622,348.4722,253.5447,338.1944,252.4376,327.9167,252.8298,317.6389,253.0609,307.3611,253.6086,297.0833,252.9253,286.8056,253.4115,276.5278,252.3528,266.25,252.2242,255.9722,253.4543,245.6944,252.1829,235.4167,253.4599,225.1389,253.1449,214.8611,252.6506,204.5833,252.5612,194.3056,253.4076,184.0278,252.6179,173.75,253.5462,163.4722,252.3539,153.1944,253.5728,142.9167,253.4342,132.6389,253.1849,122.3611,252.9789,112.0833,253.6866,101.8056,253.5688,91.5278,253.106,81.25,252.9297,81.2856,253.0157,80.6434,252.6438,80.1667,252.6714,79.5028,252.2471,78.9159,252.0087,78.3037,251.7093,78.1086,251.6285,77.9297,251.0662,77.9858,250.6013,77.7094,249.9986,77.3136,249.3466,77.0833,248.763,76.9715,248.763,77.0073,242.9362,76.8451,237.1094,77.2273,231.2826,77.3401,225.4557,77.0833,219.6289,77.2522,219.6989,77.5503,219.132,77.5276,218.4322,77.8435,217.8727,77.9353,217.2204,78.3037,216.6826,78.3415,216.7737,78.9258,216.5177,79.5556,216.3717,80.041,215.8767,80.6429,215.6632,81.25,215.4622" style="stroke:#333333;stroke-width:1.0416666666666667;"/><text fill="#2E2E2E" font-family="" font-size="12.5" lengthAdjust="spacing" textLength="293.75" x="88.5417" y="238.5234">&#34892;&#21160;&#23436;&#25104;&#21518;&#65292;&#25511;&#21046;&#22120;&#20250;&#21024;&#38500;&#30446;&#26631;&#23545;&#35937;&#30456;&#20851;&#30340; Finalizer</text><polygon fill="none" points="113.5417,273.763,113.5417,273.982,124.1395,273.3314,134.7373,273.9644,145.3351,274.1794,155.933,273.0199,166.5308,273.6821,177.1286,273.3188,187.7264,273.3635,198.3243,273.692,208.9221,273.0428,219.5199,274.3397,230.1178,273.1065,240.7156,273.557,251.3134,274.213,261.9112,273.6737,272.5091,273.8341,283.1069,273.7297,293.7047,273.949,304.3025,274.0121,314.9004,274.3731,325.4982,274.462,336.096,274.4706,346.6938,274.0283,357.2917,273.763,357.3533,273.9117,357.9742,274.2324,358.3743,274.0198,359.1496,274.7129,359.6093,274.6442,360.2379,274.9834,360.4092,275.0543,360.3232,275.5069,360.7041,276.1528,361.2081,276.8497,361.1986,277.334,361.4583,277.9297,361.4949,277.9297,361.5759,286.6667,361.6029,295.4036,361.457,304.1406,361.5581,312.8776,361.4583,321.6146,361.2747,321.5385,361.3055,322.2416,361.146,322.8659,360.8687,323.4414,360.6787,324.0531,360.2379,324.5609,360.1738,324.4059,359.562,324.5957,358.9769,324.8497,358.4624,325.2742,357.8548,325.4741,357.2917,325.7813,357.2917,326.4911,346.6938,325.5993,336.096,325.4239,325.4982,326.019,314.9004,325.0866,304.3025,325.2405,293.7047,326.4572,283.1069,326.2351,272.5091,326.5463,261.9112,325.446,251.3134,326.1137,240.7156,326.3963,230.1178,325.2892,219.5199,325.6814,208.9221,325.9125,198.3243,326.4602,187.7264,325.7769,177.1286,326.2631,166.5308,325.2044,155.933,325.0758,145.3351,326.3058,134.7373,325.0344,124.1395,326.3114,113.5417,325.7813,113.5691,325.8475,112.9168,325.4512,112.3161,325.1796,111.8349,325.1962,111.1449,324.7089,110.5954,324.5609,110.7853,324.6395,110.174,323.8982,110.3053,323.4644,110.0185,322.8574,109.6977,322.2364,109.375,321.6146,109.3914,321.6146,109.6273,312.8776,109.588,304.1406,109.4338,295.4036,109.4681,286.6667,109.375,277.9297,109.3332,277.9124,109.8489,277.4356,109.9128,276.7718,110.1626,276.1849,110.1562,275.4918,110.5954,274.9834,110.5415,274.8534,111.2552,274.9096,111.831,274.6331,112.3575,274.2374,112.9096,273.9037,113.5417,273.763" style="stroke:#333333;stroke-width:1.0416666666666667;"/><text fill="#2E2E2E" font-family="" font-size="12.5" lengthAdjust="spacing" textLength="194.7917" x="120.8333" y="296.8241">metadata.finalizers &#23383;&#27573;&#20026;&#31354;&#26102;,</text><text fill="#2E2E2E" font-family="" font-size="12.5" lengthAdjust="spacing" textLength="229.1667" x="120.8333" y="311.3749">Kubernetes &#35748;&#20026;&#21024;&#38500;&#24050;&#23436;&#25104;&#24182;&#21024;&#38500;&#23545;&#35937;</text><path d="M235.4167,48.9258 L235.514,48.9258 L235.2249,53.0924 L235.5062,57.2591 L235.6017,61.4258 L235.0864,65.5924 L235.4167,69.7591 " fill="#333333" style="stroke:#333333;stroke-width:3.125;"/><polygon fill="#333333" points="231.25,59.3424,231.3178,59.3696,231.9498,61.3724,232.979,63.534,233.8789,65.644,234.3533,67.5838,235.4167,69.7591,235.3916,69.7491,236.1125,67.6208,236.9597,65.543,237.8947,63.5003,238.5271,61.3366,239.5833,59.3424,239.7193,59.4784,238.5953,60.021,237.8681,60.9606,237.1894,61.9485,236.2289,62.6547,235.4167,63.5091,235.4334,63.5259,234.5755,62.6679,233.7938,61.8863,232.9754,61.0678,232.2271,60.3196,231.25,59.3424" style="stroke:#333333;stroke-width:1.0416666666666667;"/><path d="M235.4167,136.3281 L235.514,136.3281 L235.2249,140.4948 L235.5062,144.6615 L235.6017,148.8281 L235.0864,152.9948 L235.4167,157.1615 " fill="#333333" style="stroke:#333333;stroke-width:3.125;"/><polygon fill="#333333" points="231.25,146.7448,231.3178,146.7719,231.9498,148.7747,232.979,150.9364,233.8789,153.0463,234.3533,154.9861,235.4167,157.1615,235.3916,157.1514,236.1125,155.0231,236.9597,152.9453,237.8947,150.9027,238.5271,148.739,239.5833,146.7448,239.7193,146.8807,238.5953,147.4234,237.8681,148.3629,237.1894,149.3508,236.2289,150.0571,235.4167,150.9115,235.4334,150.9282,234.5755,150.0703,233.7938,149.2886,232.9754,148.4702,232.2271,147.7219,231.25,146.7448" style="stroke:#333333;stroke-width:1.0416666666666667;"/><path d="M235.4167,194.6289 L235.514,194.6289 L235.2249,198.7956 L235.5062,202.9622 L235.6017,207.1289 L235.0864,211.2956 L235.4167,215.4622 " fill="#333333" style="stroke:#333333;stroke-width:3.125;"/><polygon fill="#333333" points="231.25,205.0456,231.3178,205.0727,231.9498,207.0755,232.979,209.2372,233.8789,211.3471,234.3533,213.2869,235.4167,215.4622,235.3916,215.4522,236.1125,213.3239,236.9597,211.2461,237.8947,209.2035,238.5271,207.0398,239.5833,205.0456,239.7193,205.1815,238.5953,205.7242,237.8681,206.6637,237.1894,207.6516,236.2289,208.3578,235.4167,209.2122,235.4334,209.229,234.5755,208.3711,233.7938,207.5894,232.9754,206.771,232.2271,206.0227,231.25,205.0456" style="stroke:#333333;stroke-width:1.0416666666666667;"/><path d="M235.4167,252.9297 L235.514,252.9297 L235.2249,257.0964 L235.5062,261.263 L235.6017,265.4297 L235.0864,269.5964 L235.4167,273.763 " fill="#333333" style="stroke:#333333;stroke-width:3.125;"/><polygon fill="#333333" points="231.25,263.3464,231.3178,263.3735,231.9498,265.3763,232.979,267.5379,233.8789,269.6479,234.3533,271.5877,235.4167,273.763,235.3916,273.753,236.1125,271.6247,236.9597,269.5469,237.8947,267.5042,238.5271,265.3405,239.5833,263.3464,239.7193,263.4823,238.5953,264.0249,237.8681,264.9645,237.1894,265.9524,236.2289,266.6586,235.4167,267.513,235.4334,267.5298,234.5755,266.6718,233.7938,265.8902,232.9754,265.0717,232.2271,264.3235,231.25,263.3464" style="stroke:#333333;stroke-width:1.0416666666666667;"/><!--SRC=[HL1DInj16BxFhnXpgf1gyQZYGK4AWlIGFp1cHxDaFyBkB69BOICD9Z7470B112HAJVp0JLjrJTAa-JFxpavE_eMExXflBy_xy7pDiGpLARQpbAKp1nzDXscgGP6TLOqSiOYE5RfB78rjcWRR9fAPIA1LcnreT0qfPjhHgS7mDuGnNYVfx9vbEeQoOMgcXVSpAgFeErfTZEbecVVgq3c4Odjw-ZFekq7_9cSgAn9l7mdlb-ZaerVO_06zWVXzdaHJjoacylal77iH9fyBEcL48OmiA5IZJ3MDbAfJcn4z5_I7mRWD8nUwnxpK5UULcIHl-DF6GnA9IHrQPtZfqn8Eopvtys4x_-5pAlK59-3f3wzUmaaZCO-3yGGAlfYqe22H6z7x6x6JOIVFxowYCEBYDj9_AV5gXpTLWsZgLsfXNdB1QmQ3aZH_2LA-agpe0A_2YpMeLPz75LxjGj67qwjWr8p3jZovI5otrOV2lLHu5vOgim5stq0Rmrs3UuzoWF1wABicqPQpGos3CcfZuSczXv6wB1dR3_mOUNLQ-Gy0]--></g></svg>