<svg version="1.1" xmlns="http://www.w3.org/2000/svg" viewBox="0 0 677.1788330078125 370.6051678820136" width="677.1788330078125" height="370.6051678820136">
  <!-- svg-source:excalidraw -->
  
  <defs>
    <style class="style-fonts">
      @font-face {
        font-family: "Virgil";
        src: url("https://unpkg.com/@excalidraw/excalidraw@0.15.3/dist/excalidraw-assets/Virgil.woff2");
      }
      @font-face {
        font-family: "Cascadia";
        src: url("https://unpkg.com/@excalidraw/excalidraw@0.15.3/dist/excalidraw-assets/Cascadia.woff2");
      }
    </style>
  </defs>
  <rect x="0" y="0" width="677.1788330078125" height="370.6051678820136" fill="#ffffff"></rect><g stroke-linecap="round" transform="translate(95.84062218552327 144.944587909338) rotate(0 67.79761974042862 26.029443293200302)"><path d="M1.23 1.44 C55.04 0.91, 107.62 1.23, 135.23 -0.69 M-0.93 -0.42 C35.04 -1.32, 71.01 -0.75, 135.24 0.35 M136.59 -1.5 C134.03 17.91, 137.63 35.43, 134.41 52 M135.85 0.57 C135.58 11.91, 135.66 24.51, 135.9 52.62 M135.76 51.39 C96.37 54.06, 58.75 54.2, -1.22 51.63 M135.07 51.42 C93 51.92, 50.49 51.47, -0.33 51.93 M1.86 52.77 C-1.62 33.55, -0.34 13.61, -1.61 1.52 M-0.88 52.23 C-1.22 38.11, -0.67 21.76, -0.98 -0.82" stroke="#000000" stroke-width="1" fill="none"></path></g><g stroke-linecap="round" transform="translate(94.5870796858578 199.79759279845462) rotate(0 68 26.5)"><path d="M1.44 1.24 C38.32 -0.82, 76.39 -1.21, 135.31 -0.75 M-0.42 -0.55 C48.47 1.1, 98.47 0.9, 136.35 0.39 M134.5 -1.64 C136.02 18.63, 135.89 32.14, 135.95 51.84 M136.57 -0.32 C134.86 18.77, 134.87 38.35, 136.56 52.89 M135.33 52.97 C99.97 54.66, 62.86 51.89, -0.43 53.29 M135.36 53.05 C92.99 52.47, 48.88 51.95, -0.13 53.57 M0.71 51.46 C0.57 36.08, -0.77 18.1, 1.52 -0.32 M0.17 52.09 C0.64 33.54, -0.92 13.82, -0.82 0.41" stroke="#5c940d" stroke-width="1" fill="none"></path></g><g transform="translate(109.0870796858578 216.79759279845462) rotate(0 53.5 9.5)"><text x="53.5" y="0" font-family="Helvetica, Segoe UI Emoji" font-size="16px" fill="#5c940d" text-anchor="middle" style="white-space: pre;" direction="ltr" dominant-baseline="text-before-edge">0xc000090000</text></g><g stroke-linecap="round" transform="translate(94.8603706229928 253.22271969969665) rotate(0 67.79761974042862 26.029443293200302)"><path d="M1.24 0.56 C37.13 -0.11, 73.86 -1.67, 134.84 1.27 M-0.55 -0.95 C44.22 0.19, 88.4 0.92, 135.99 0.14 M133.96 0.26 C137.82 13.38, 134.67 26.44, 134.43 53.24 M135.27 -0.68 C135.48 10.45, 136.04 22.79, 135.49 51.8 M135.57 53.3 C88.88 52.99, 37.85 51.18, 0.29 52.48 M135.65 52.72 C103.07 51.4, 69.83 51.06, 0.57 52.2 M-1.54 52.16 C-0.75 39.83, -2.09 31.61, -0.32 1.21 M-0.91 52.91 C0.1 33.64, -0.52 15.82, 0.41 -0.21" stroke="#000000" stroke-width="1" fill="none"></path></g><g stroke-linecap="round" transform="translate(93.8092083828987 308.54628129561297) rotate(0 67.79761974042862 26.029443293200302)"><path d="M0.56 0.02 C49.92 -1.21, 97.41 -1.59, 136.86 0.55 M-0.95 -0.16 C27.7 0.38, 56.51 1.13, 135.74 -0.46 M135.86 1.96 C135.34 17.02, 135.15 35.25, 136.77 50.33 M134.92 -0.24 C135.22 17.23, 136.45 33.74, 135.34 52.62 M136.83 53.6 C95.19 50.82, 51.58 52.33, 0.42 50.88 M136.25 52.25 C102.29 51.8, 68.42 52.7, 0.14 51.17 M0.1 51.79 C-1.43 30, 1.33 10.85, 1.21 0.8 M0.85 51.7 C-0.8 40.02, -0.91 30.36, -0.21 0.67" stroke="#000000" stroke-width="1" fill="none"></path></g><g transform="translate(10 221.97833251953125) rotate(0 27 9.5)"><text x="0" y="0" font-family="Helvetica, Segoe UI Emoji" font-size="16px" fill="#000000" text-anchor="start" style="white-space: pre;" direction="ltr" dominant-baseline="text-before-edge">closure</text></g><g stroke-linecap="round" transform="translate(413.2869958522899 38.93948540428687) rotate(0 67.79761974042862 26.029443293200302)"><path d="M-1.36 1.15 C50.93 1.8, 98.51 -1.53, 134.26 -0.51 M0.73 0.29 C37.93 -0.67, 77.03 -0.66, 136.29 0.28 M136.01 -1.45 C134.48 15.09, 136.9 32.16, 137.25 52.13 M134.65 0.73 C134.86 13.04, 134.54 27.32, 135.72 52.67 M134.6 53.92 C85.35 50.26, 37.57 50.09, 1.52 52.99 M136.04 52.14 C95.44 52.84, 55.96 52.6, 0.82 52.99 M1.98 51.57 C0.78 34.41, -0.47 16.57, -0.47 -1.89 M0.33 51.8 C0.78 37.58, 0 21.26, 0.63 0.3" stroke="#000000" stroke-width="1" fill="none"></path></g><g stroke-linecap="round" transform="translate(414.03345335262446 93.79249029340394) rotate(0 68 26.5)"><path d="M1.15 1.63 C47.55 0.82, 90.36 -0.41, 135.49 -0.33 M0.29 -0.52 C54 -0.85, 108.27 -0.29, 136.28 0.08 M134.55 -1.54 C135.53 21.17, 136.56 42.24, 136.07 52.09 M136.73 -0.38 C136.13 11.54, 137.17 24.6, 136.61 53.62 M137.86 51.81 C102.77 52.41, 70.63 53.84, 0.93 52.91 M136.08 52.91 C83.07 54.12, 30.26 54.42, 0.93 53.48 M-0.49 53.84 C0.97 36.1, 1.24 19.56, -1.89 -0.08 M-0.26 53.76 C1.09 37.31, 0.18 22.29, 0.3 0.05" stroke="#000000" stroke-width="1" fill="none"></path></g><g stroke-linecap="round" transform="translate(414.10436403018804 146.74706048784628) rotate(0 68 26.5)"><path d="M1.41 -0.11 C29.62 -2.44, 62.57 -1.44, 137.98 0.61 M-0.26 0.14 C50.43 1.4, 101.62 0.79, 136.83 0.91 M135.05 0.88 C135.7 18.64, 135.68 33.07, 134.62 54.26 M135.8 -0.69 C137.22 11.02, 136.99 22.39, 135.35 52.59 M134.75 53.09 C100.58 53.71, 68.92 52.1, 1.73 54.66 M135.66 53.52 C88.55 53.7, 43.19 53.36, 0.11 52.06 M0.47 52.59 C0.87 31.39, -1.77 10.64, -0.09 -0.59 M0.94 52.98 C0.16 36, 0.43 17.78, -0.66 0.04" stroke="#5c940d" stroke-width="1" fill="none"></path></g><g transform="translate(420.10436403018804 163.74706048784628) rotate(0 62 9.5)"><text x="62" y="0" font-family="Helvetica, Segoe UI Emoji" font-size="16px" fill="#5c940d" text-anchor="middle" style="white-space: pre;" direction="ltr" dominant-baseline="text-before-edge">x=0xc00008e000</text></g><g stroke-linecap="round" transform="translate(413.05320179009396 202.07062208376237) rotate(0 68 26.5)"><path d="M-1.92 -1.34 C51.36 -0.26, 105.7 0.69, 137.45 0.58 M-0.24 0.69 C34.04 -0.1, 68.35 0.73, 136.21 -0.72 M136.08 1.65 C135.81 10.9, 134.36 24.88, 134.11 54.46 M136.83 0.13 C136.5 14.51, 135.24 27.37, 135.5 53.93 M134.59 54.52 C104.24 52.97, 72.34 54.72, 0.89 53.17 M135.42 53.82 C97.3 54.18, 56.84 52.76, 0.99 52.76 M0.74 52.53 C-2.02 34.8, -0.21 16.17, 0.65 -0.52 M0.02 53.63 C-0.2 33.12, -1.15 13.19, -0.24 -0.33" stroke="#5c940d" stroke-width="1" fill="none"></path></g><g transform="translate(431.05320179009396 219.07062208376237) rotate(0 50 9.5)"><text x="50" y="0" font-family="Helvetica, Segoe UI Emoji" font-size="16px" fill="#5c940d" text-anchor="middle" style="white-space: pre;" direction="ltr" dominant-baseline="text-before-edge">F=0x1057820</text></g><g transform="translate(560.1788330078125 244.83648681640625) rotate(0 53.5 9.5)"><text x="0" y="0" font-family="Helvetica, Segoe UI Emoji" font-size="16px" fill="#000000" text-anchor="start" style="white-space: pre;" direction="ltr" dominant-baseline="text-before-edge">0xc000090000</text></g><g stroke-linecap="round" transform="translate(412.3861571150401 255.0127930349247) rotate(0 67.79761974042862 26.029443293200302)"><path d="M-1.37 0.16 C39.36 1.56, 77.59 0.33, 135.36 -0.72 M-0.32 0.5 C28.02 -0.66, 55.39 -0.1, 135.84 -0.71 M137.03 0.06 C134 18.61, 136.92 40.58, 136.96 52.88 M135.83 0.56 C136.21 19.3, 136.54 37.72, 135.61 52.7 M134.76 52.2 C102.02 52.15, 72.54 52.34, 0.64 50.46 M135.82 51.63 C105.68 51.46, 74.77 51.27, 0.17 52.97 M1.32 52.87 C0.74 34.49, -0.38 17.94, -1.17 -1.05 M-0.16 52.98 C1.27 37.33, 0.87 21.25, -0.16 0.2" stroke="#000000" stroke-width="1" fill="none"></path></g><g stroke-linecap="round" transform="translate(413.3384276228526 308.3339600271122) rotate(0 67.79761974042862 26.029443293200302)"><path d="M-1.61 0.16 C40.85 0.26, 80.61 -1.7, 134.02 0.8 M0.08 0 C33.79 0.39, 69.42 1.49, 135.74 -0.13 M136.27 -1.21 C135.5 15.34, 134.77 32.44, 135.46 50.61 M136.49 0.53 C136.01 15.22, 135.35 31.23, 134.63 51.41 M135.82 51.93 C97.83 52.09, 57.96 53.58, 0.01 50.37 M136.06 51.45 C101.66 51.55, 67.3 51.92, 0.78 52.63 M-0.16 52.73 C0.49 33.76, 1.05 17.36, 1.99 0.32 M-0.55 52.27 C0.23 33.61, 0.19 15.38, 0.17 0.1" stroke="#000000" stroke-width="1" fill="none"></path></g><g transform="translate(477.59063720703125 10) rotate(0 9 11.5)"><text x="0" y="0" font-family="Helvetica, Segoe UI Emoji" font-size="16px" fill="#000000" text-anchor="start" style="white-space: pre;" direction="ltr" dominant-baseline="text-before-edge">堆</text></g><g transform="translate(153.79766845703125 108.29745483398438) rotate(0 9 11.5)"><text x="0" y="0" font-family="Helvetica, Segoe UI Emoji" font-size="16px" fill="#000000" text-anchor="start" style="white-space: pre;" direction="ltr" dominant-baseline="text-before-edge">栈</text></g><g stroke-linecap="round"><g transform="translate(239.73425292968747 226.47747813179944) rotate(0 88.9581360758262 13.241912789569028)"><path d="M0.78 -0.09 C30.11 4.48, 147.37 21.81, 176.9 26.4 M-0.27 -1.19 C29.35 3.67, 149.5 23.42, 179.08 27.89" stroke="#000000" stroke-width="1" fill="none"></path></g><g transform="translate(239.73425292968747 226.47747813179944) rotate(0 88.9581360758262 13.241912789569028)"><path d="M179.56 29.48 L162.7 33.44 L165.71 19.86 L179.59 28.73" stroke="none" stroke-width="0" fill="#000000" fill-rule="evenodd"></path><path d="M178.97 26.62 C173.51 29.58, 169.39 31.19, 164.11 31.83 M179.13 27.49 C173.62 28.68, 168.91 31.53, 165.25 31.77 M163.55 33.13 C164.84 27.86, 165.55 23.67, 166.18 18.61 M164.08 31.59 C165.28 28.51, 165.65 24.49, 166.68 19.62 M166.33 20.17 C172.72 22.88, 175.66 26.2, 180.57 26.44 M166.68 19.35 C169.57 21.9, 172.89 23.91, 179.36 27.24 M179.08 27.89 C179.08 27.89, 179.08 27.89, 179.08 27.89 M179.08 27.89 C179.08 27.89, 179.08 27.89, 179.08 27.89" stroke="#000000" stroke-width="1" fill="none"></path></g></g><mask></mask></svg>