<?xml version="1.0" encoding="us-ascii" standalone="no"?><svg xmlns="http://www.w3.org/2000/svg" xmlns:xlink="http://www.w3.org/1999/xlink" contentStyleType="text/css" height="428px" preserveAspectRatio="none" style="width:826px;height:428px;background:#EEEBDC;" version="1.1" viewBox="0 0 826 428" width="826px" zoomAndPan="magnify"><defs/><g><rect fill="#EEEBDC" height="428" style="stroke:none;stroke-width:1.0;" width="826" x="0" y="0"/><text fill="#000000" font-family="sans-serif" font-size="14" font-weight="bold" lengthAdjust="spacing" textLength="154" x="337" y="27.9951">&#38750;&#23545;&#31216;&#21152;&#23494;&#32467;&#21512;&#23545;&#31216;&#21152;&#23494;</text><line style="stroke:#181818;stroke-width:0.5;stroke-dasharray:5.0,5.0;" x1="24" x2="24" y1="118.5938" y2="421.2656"/><line style="stroke:#181818;stroke-width:0.5;stroke-dasharray:5.0,5.0;" x1="103" x2="103" y1="118.5938" y2="421.2656"/><line style="stroke:#181818;stroke-width:0.5;stroke-dasharray:5.0,5.0;" x1="406.5" x2="406.5" y1="118.5938" y2="421.2656"/><text fill="#000000" font-family="sans-serif" font-size="14" lengthAdjust="spacing" textLength="32" x="5" y="115.292">User</text><ellipse cx="24" cy="50.7969" fill="#E2E2F0" rx="8" ry="8" style="stroke:#181818;stroke-width:0.5;"/><path d="M24,58.7969 L24,85.7969 M11,66.7969 L37,66.7969 M24,85.7969 L11,100.7969 M24,85.7969 L37,100.7969 " fill="none" style="stroke:#181818;stroke-width:0.5;"/><rect fill="#E2E2F0" height="32.625" rx="2.5" ry="2.5" style="stroke:#181818;stroke-width:0.5;" width="62" x="72" y="84.9688"/><text fill="#000000" font-family="sans-serif" font-size="16" font-weight="bold" lengthAdjust="spacing" textLength="48" x="79" y="106.8203">&#27983;&#35272;&#22120;</text><rect fill="#E2E2F0" height="32.625" rx="2.5" ry="2.5" style="stroke:#181818;stroke-width:0.5;" width="83" x="365.5" y="84.9688"/><text fill="#000000" font-family="sans-serif" font-size="16" font-weight="bold" lengthAdjust="spacing" textLength="69" x="372.5" y="106.8203">web&#26381;&#21153;</text><polygon fill="#00BFFF" points="91,146.8906,101,150.8906,91,154.8906" style="stroke:#00BFFF;stroke-width:1.0;"/><line style="stroke:#00BFFF;stroke-width:1.0;" x1="24" x2="97" y1="150.8906" y2="150.8906"/><text fill="#000000" font-family="sans-serif" font-size="14" lengthAdjust="spacing" textLength="55" x="31" y="145.5889">&#36755;&#20837;URL</text><polygon fill="#00BFFF" points="395,177.1875,405,181.1875,395,185.1875" style="stroke:#00BFFF;stroke-width:1.0;"/><line style="stroke:#00BFFF;stroke-width:1.0;" x1="103" x2="401" y1="181.1875" y2="181.1875"/><text fill="#000000" font-family="sans-serif" font-size="14" lengthAdjust="spacing" textLength="56" x="110" y="175.8857">&#25569;&#25163;&#38454;&#27573;</text><polygon fill="#00BFFF" points="114,210.4844,104,214.4844,114,218.4844" style="stroke:#00BFFF;stroke-width:1.0;"/><line style="stroke:#00BFFF;stroke-width:1.0;" x1="108" x2="406" y1="214.4844" y2="214.4844"/><text fill="#000000" font-family="sans-serif" font-size="14" lengthAdjust="spacing" textLength="154" x="120" y="209.1826">&#26381;&#21153;&#22120;&#21457;&#36865;&#20844;&#38053;&#32473;&#27983;&#35272;&#22120;</text><path d="M412,194.1875 L412,220.1875 L559,220.1875 L559,204.1875 L549,194.1875 L412,194.1875 " fill="#FEFFDD" style="stroke:#181818;stroke-width:0.5;"/><path d="M549,194.1875 L549,204.1875 L559,204.1875 L549,194.1875 " fill="#FEFFDD" style="stroke:#181818;stroke-width:0.5;"/><text fill="#000000" font-family="sans-serif" font-size="14" lengthAdjust="spacing" textLength="126" x="418" y="212.1826">&#20844;&#38053;&#21487;&#20197;&#34987;&#40657;&#23458;&#33719;&#21462;</text><polygon fill="#00BFFF" points="395,260.0781,405,264.0781,395,268.0781" style="stroke:#00BFFF;stroke-width:1.0;"/><line style="stroke:#00BFFF;stroke-width:1.0;" x1="103" x2="401" y1="264.0781" y2="264.0781"/><text fill="#000000" font-family="sans-serif" font-size="14" lengthAdjust="spacing" textLength="220" x="110" y="242.4795">&#29983;&#25104;&#19968;&#20010;&#23545;&#31216;&#21152;&#23494;&#29992;&#30340;&#38543;&#26426;&#23494;&#38053;(&#30416;)</text><text fill="#000000" font-family="sans-serif" font-size="14" lengthAdjust="spacing" textLength="280" x="110" y="258.7764">&#25509;&#30528;&#29992;&#26381;&#21153;&#31471;&#21457;&#26469;&#30340;&#20844;&#38053;&#21152;&#23494;&#21518;&#21457;&#36865;&#32473;&#26381;&#21153;&#31471;</text><path d="M412,235.6328 L412,261.6328 L819,261.6328 L819,245.6328 L809,235.6328 L412,235.6328 " fill="#FEFFDD" style="stroke:#181818;stroke-width:0.5;"/><path d="M809,235.6328 L809,245.6328 L819,245.6328 L809,235.6328 " fill="#FEFFDD" style="stroke:#181818;stroke-width:0.5;"/><text fill="#000000" font-family="sans-serif" font-size="14" lengthAdjust="spacing" textLength="386" x="418" y="253.6279">&#21363;&#20351;&#34987;&#25130;&#21462;,&#30001;&#20110;&#40657;&#23458;&#21482;&#26377;&#20844;&#38053;,&#26080;&#27861;&#29992;&#20844;&#38053;&#35299;&#23494;&#20844;&#38053;&#21152;&#23494;&#30340;&#25968;&#25454;</text><line style="stroke:#00BFFF;stroke-width:1.0;" x1="407" x2="449" y1="294.375" y2="294.375"/><line style="stroke:#00BFFF;stroke-width:1.0;" x1="449" x2="449" y1="294.375" y2="307.375"/><line style="stroke:#00BFFF;stroke-width:1.0;" x1="408" x2="449" y1="307.375" y2="307.375"/><polygon fill="#00BFFF" points="418,303.375,408,307.375,418,311.375" style="stroke:#00BFFF;stroke-width:1.0;"/><text fill="#000000" font-family="sans-serif" font-size="14" lengthAdjust="spacing" textLength="214" x="414" y="289.0732">&#20351;&#29992;&#31169;&#38053;&#35299;&#23494;&#24471;&#21040; &#23545;&#31216;&#21152;&#23494;&#30340;&#23494;&#38053;</text><polygon fill="#00BFFF" points="395,336.6719,405,340.6719,395,344.6719" style="stroke:#00BFFF;stroke-width:1.0;"/><line style="stroke:#00BFFF;stroke-width:1.0;" x1="103" x2="401" y1="340.6719" y2="340.6719"/><text fill="#000000" font-family="sans-serif" font-size="14" lengthAdjust="spacing" textLength="238" x="110" y="335.3701">&#23558;&#35831;&#27714;&#29992;&#23545;&#31216;&#21152;&#23494;&#21152;&#23494;&#21518;&#21457;&#36865;&#32473;&#26381;&#21153;&#31471;</text><path d="M412,320.375 L412,346.375 L803,346.375 L803,330.375 L793,320.375 L412,320.375 " fill="#FEFFDD" style="stroke:#181818;stroke-width:0.5;"/><path d="M793,320.375 L793,330.375 L803,330.375 L793,320.375 " fill="#FEFFDD" style="stroke:#181818;stroke-width:0.5;"/><text fill="#000000" font-family="sans-serif" font-size="14" lengthAdjust="spacing" textLength="370" x="418" y="338.3701">&#21363;&#20351;&#34987;&#40657;&#23458;&#25130;&#21462;, &#30001;&#20110;&#19981;&#30693;&#36947; &#23545;&#31216;&#21152;&#23494;&#31639;&#27861;&#30340;&#23494;&#38053;, &#26080;&#27861;&#35299;&#23494;</text><line style="stroke:#00BFFF;stroke-width:1.0;" x1="407" x2="449" y1="390.2656" y2="390.2656"/><line style="stroke:#00BFFF;stroke-width:1.0;" x1="449" x2="449" y1="390.2656" y2="403.2656"/><line style="stroke:#00BFFF;stroke-width:1.0;" x1="408" x2="449" y1="403.2656" y2="403.2656"/><polygon fill="#00BFFF" points="418,399.2656,408,403.2656,418,407.2656" style="stroke:#00BFFF;stroke-width:1.0;"/><text fill="#000000" font-family="sans-serif" font-size="14" lengthAdjust="spacing" textLength="266" x="414" y="368.667">&#20351;&#29992;&#20043;&#21069;&#27983;&#35272;&#22120;&#21457;&#36865;&#30340;&#23545;&#31216;&#21152;&#23494;&#31639;&#27861;&#30340;&#23494;&#38053;</text><text fill="#000000" font-family="sans-serif" font-size="14" lengthAdjust="spacing" textLength="154" x="414" y="384.9639">&#36827;&#34892;&#35299;&#23494;&#24471;&#21040;&#35831;&#27714;&#30340;&#25968;&#25454;</text><!--SRC=[bP9FJnD16CRlyoaczQ0czM1YF70miQKc9iOO6svSfkq8csvtw-pK1ea96245RBS8Y40hVqnJ0gOj8KYX4RxCpkpkjt2squMfQ8oNJURzypo_vyrQMSt88u9oC8NIsGbY5enCtDHD0cyb4edOQ1nOLnCP_0eLTFh4D6XIUulX_GTAqw9JEXPVegLf8QU3s_2wDucCJ95eb683KbB0obfSY15JXzDY0S90-ZdAOHXvcikZD8q0MKlsnLEcdWaBVV-7u9qYDOeeIY4BJmDrueQ0kcBXrmLifB6m5-xmCI5cKQOVnJYVp4x5T47x0X6gfRKyCgYg_7jPjQ0Q5G-__fMrpzncXotkiFQysrjXrP9Q0K2456vZ5YOWVwq78_p4zfebjh4VWSY2CS5rOwI8KxnMPekx_P4a9c_410YauBr7uSe8z2vMs5nZxEKpC2W5NJaz0hczonUM_2y_UEi4oEBGiZGG6CnUzcTcsTnt_rF3xMrSuG73f1WIRMAIZa3PPdRRwJMylKE_jynQUrxbbDcV_sJkhcxpKjNfpZZTWw4xhUwxcn_yJPlNpiLJIDvnjwftnmrUQRZr6T6MMEvXMs3nUaDC3wpx-wnQaRW1Q3YfW09MFdP-NWf2NZeGR55tzSWvhqXSPX_mseAKY_Br7Nwy9Wpbssj-2-GLA-7Crpgyt0BOoC30GhbYc5Du1P6QizSI5-kir853eKM6VjRmKee0wynxxLD-z3uWKNR-DwvCE0WDPMgdMtQt6_xioZ1DQpq87Z95eRo4fFztLkTiYIsKhtwI0LwWzbUBSSExtF9sFwe76eGER_mB]--></g></svg>