<svg version="1.1" xmlns="http://www.w3.org/2000/svg" viewBox="0 0 777.5244140625 255.68900606809962" width="777.5244140625" height="255.68900606809962">
  <!-- svg-source:excalidraw -->
  
  <defs>
    <style class="style-fonts">
      @font-face {
        font-family: "Virgil";
        src: url("/stylesheets/font/Virgil-hand.woff2");
      }
      @font-face {
        font-family: "Cascadia";
        src: url("https://unpkg.com/@excalidraw/excalidraw@0.15.3/dist/excalidraw-assets/Cascadia.woff2");
      }
    </style>
  </defs>
  <rect x="0" y="0" width="777.5244140625" height="255.68900606809962" fill="#ffffff"></rect><g stroke-linecap="round" transform="translate(94.28456488070145 32.91034335478162) rotate(0 29.5 28.5)"><path d="M35.63 1.17 C41.73 2.11, 49.87 6.11, 53.86 11.06 C57.86 16.01, 59.93 24.67, 59.6 30.85 C59.28 37.03, 56.42 43.94, 51.9 48.14 C47.38 52.34, 38.73 55.34, 32.47 56.05 C26.22 56.76, 19.56 55.45, 14.37 52.38 C9.18 49.3, 3.41 43.48, 1.32 37.6 C-0.78 31.73, -0.6 22.74, 1.8 17.14 C4.21 11.55, 9.44 6.81, 15.74 4.06 C22.04 1.31, 35.22 0.73, 39.58 0.63 C43.94 0.53, 42.33 2.95, 41.91 3.47 M28.56 0.24 C34.57 -0.57, 42.23 1.61, 47.03 5.43 C51.83 9.26, 55.99 16.88, 57.33 23.19 C58.68 29.5, 58.05 38.08, 55.12 43.28 C52.18 48.49, 45.63 52.47, 39.74 54.42 C33.85 56.37, 25.5 56.92, 19.79 54.99 C14.07 53.06, 8.52 47.87, 5.43 42.84 C2.35 37.8, 0.41 30.77, 1.28 24.8 C2.14 18.83, 6.01 11.11, 10.64 7.02 C15.26 2.93, 25.96 1.39, 29.02 0.28 C32.08 -0.84, 28.76 0, 28.99 0.31" stroke="#000000" stroke-width="1" fill="none"></path></g><g transform="translate(114.78456488070145 45.41034335478162) rotate(0 9 16)"><text x="9" y="0" font-family="Helvetica, Segoe UI Emoji" font-size="28px" fill="#000000" text-anchor="middle" style="white-space: pre;" direction="ltr" dominant-baseline="text-before-edge">2</text></g><g stroke-linecap="round" transform="translate(19.309638576474136 97.33733260509553) rotate(0 29.5 28.5)"><path d="M31.29 0.24 C37.26 0.2, 44.47 3.14, 49.21 7.31 C53.95 11.48, 58.89 18.94, 59.72 25.26 C60.56 31.57, 57.92 40.15, 54.21 45.19 C50.49 50.24, 43.48 54.02, 37.41 55.55 C31.35 57.07, 23.65 56.78, 17.79 54.34 C11.93 51.9, 5.03 46.34, 2.25 40.91 C-0.53 35.47, -0.4 27.77, 1.1 21.74 C2.59 15.71, 5.47 8.4, 11.2 4.74 C16.93 1.07, 30.53 0.26, 35.46 -0.25 C40.4 -0.76, 40.94 0.9, 40.81 1.69 M34.59 -0.29 C40.76 0.75, 49.76 6.09, 53.6 11.14 C57.45 16.19, 57.92 24.11, 57.68 30 C57.43 35.89, 56.11 41.78, 52.12 46.49 C48.13 51.2, 39.94 57.28, 33.73 58.25 C27.51 59.22, 20.18 55.76, 14.83 52.33 C9.47 48.89, 3.48 43.68, 1.58 37.64 C-0.32 31.6, 1.09 21.75, 3.42 16.07 C5.76 10.39, 10.15 6.08, 15.59 3.56 C21.03 1.04, 32.55 1.15, 36.07 0.92 C39.59 0.7, 37 1.59, 36.7 2.2" stroke="#000000" stroke-width="1" fill="none"></path></g><g transform="translate(39.809638576474136 109.83733260509553) rotate(0 9 16)"><text x="9" y="0" font-family="Helvetica, Segoe UI Emoji" font-size="28px" fill="#000000" text-anchor="middle" style="white-space: pre;" direction="ltr" dominant-baseline="text-before-edge">1</text></g><g stroke-linecap="round" transform="translate(179.08862285524424 100.20932299824119) rotate(0 29.5 28.5)"><path d="M29.65 -0.5 C35.88 -1.1, 44.5 1.78, 49.22 5.84 C53.94 9.9, 56.86 17.87, 57.98 23.84 C59.09 29.81, 59.03 36.32, 55.9 41.68 C52.76 47.05, 45.19 53.74, 39.18 56.02 C33.17 58.3, 25.76 57.54, 19.84 55.36 C13.93 53.18, 6.96 48.17, 3.69 42.93 C0.43 37.7, -0.92 29.94, 0.25 23.94 C1.42 17.93, 5.06 10.72, 10.7 6.9 C16.35 3.09, 29.63 1.8, 34.13 1.03 C38.63 0.26, 37.95 1.88, 37.71 2.28 M23.69 0.33 C29.2 -1.1, 36.33 1, 41.77 3.62 C47.22 6.24, 53.94 10.46, 56.36 16.05 C58.78 21.65, 57.98 31.27, 56.31 37.21 C54.63 43.15, 51.29 48.24, 46.32 51.68 C41.34 55.12, 32.63 58.23, 26.45 57.85 C20.27 57.47, 13.54 53.74, 9.23 49.37 C4.92 45, 1.02 37.72, 0.58 31.65 C0.15 25.58, 2.87 18.06, 6.63 12.96 C10.38 7.86, 20.63 2.81, 23.13 1.06 C25.62 -0.69, 21.69 2.09, 21.58 2.45" stroke="#000000" stroke-width="1" fill="none"></path></g><g transform="translate(199.58862285524424 112.70932299824119) rotate(0 9 16)"><text x="9" y="0" font-family="Helvetica, Segoe UI Emoji" font-size="28px" fill="#000000" text-anchor="middle" style="white-space: pre;" direction="ltr" dominant-baseline="text-before-edge">4</text></g><g stroke-linecap="round" transform="translate(124.00228380934243 166.18623217670756) rotate(0 29.5 28.5)"><path d="M4.77 12.1 C4.77 12.1, 4.77 12.1, 4.77 12.1 M4.77 12.1 C4.77 12.1, 4.77 12.1, 4.77 12.1 M2.82 18.5 C8.46 14.83, 13.64 10.73, 14.66 4.05 M3.59 20.72 C6.94 16.13, 8.7 13.29, 17.01 5.19 M0.28 27.95 C8.57 21.35, 13.72 14.31, 23.47 3.2 M1.54 28.5 C7 21.85, 13.74 14.32, 23.81 2.25 M3.33 30.57 C10.23 23.3, 18.28 17.97, 28.99 4.43 M3.9 32.09 C9.88 24.45, 16.18 17.28, 28.73 1.7 M3.95 38.17 C14.97 23.82, 22.73 13.73, 33.31 2.4 M4.1 36.8 C15.81 24.47, 25.59 11.54, 33.93 2.6 M6.71 41.67 C16.25 29.53, 31.02 14.41, 39.12 2.76 M6.51 40.85 C18.83 28.22, 29.85 13.29, 38.06 4.65 M8.55 46.45 C16.45 36.88, 22.58 29.51, 41.41 4.64 M7.99 44.34 C19.99 31.26, 32.71 17.09, 42.86 5.43 M8.61 50.14 C20.91 36.1, 31.76 20.31, 46.04 6.04 M8.65 49.71 C21.35 34.78, 34.07 21.88, 45.53 7.34 M11.89 52.91 C22.13 40.57, 30.64 30.25, 48.64 10.53 M13.33 51.73 C22.18 41.23, 31.41 29.37, 48.49 9.06 M17.21 54.13 C29.52 38.06, 43.56 22.58, 52.52 13.42 M16.37 54.73 C28.32 40.22, 38.97 26.21, 53.16 13.28 M18.81 56.32 C28.97 46.72, 33.62 37.78, 57.08 16.02 M21.06 54.28 C34.67 38.97, 47.52 24.67, 55.17 15.67 M23.53 55.78 C35.92 44.63, 45.67 32.02, 58.25 16.2 M23.73 56.45 C34.4 45.88, 44.83 32.84, 58.66 17.11 M27.22 60.64 C39.48 47.18, 50.96 31.43, 60.28 24.01 M27.91 59.5 C38.31 47.4, 47.88 34.88, 58.93 23.9 M34.47 57.85 C41.04 51.08, 45.28 43.43, 60.73 26.39 M34.95 55.55 C41.87 49.12, 47.52 40.55, 59.26 28.21 M43.87 52.65 C48.72 48.99, 49.6 43.32, 57.09 33.32 M43.17 53.71 C46.97 48.91, 51.28 43.51, 58.35 34.82" stroke="#82c91e" stroke-width="0.5" fill="none"></path><path d="M22.89 0.85 C28.66 -0.8, 36.81 0.89, 42.3 3.36 C47.79 5.82, 53.16 10.34, 55.8 15.61 C58.45 20.89, 59.81 29.08, 58.16 35 C56.51 40.92, 51.12 47.38, 45.9 51.15 C40.67 54.91, 33.19 57.84, 26.82 57.56 C20.45 57.28, 11.97 54.02, 7.65 49.46 C3.34 44.9, 1.35 36.47, 0.91 30.18 C0.48 23.9, 0.71 16.88, 5.07 11.76 C9.42 6.64, 22.59 1.36, 27.06 -0.51 C31.52 -2.38, 31.9 0.04, 31.84 0.53 M25.63 0.72 C31.37 -0.94, 39.36 0.49, 44.76 3.55 C50.16 6.62, 56.02 13.15, 58.03 19.11 C60.03 25.07, 58.96 33.74, 56.79 39.32 C54.61 44.9, 50.33 49.84, 44.98 52.59 C39.64 55.33, 30.98 56.92, 24.71 55.79 C18.43 54.67, 11.34 50.45, 7.36 45.82 C3.39 41.2, 0.79 33.78, 0.86 28.05 C0.92 22.32, 3.85 16.07, 7.76 11.44 C11.67 6.81, 21.59 2.25, 24.32 0.28 C27.06 -1.69, 23.86 -1.05, 24.17 -0.37" stroke="#c92a2a" stroke-width="1" fill="none"></path></g><g transform="translate(144.50228380934243 178.68623217670756) rotate(0 9 16)"><text x="9" y="0" font-family="Helvetica, Segoe UI Emoji" font-size="28px" fill="#c92a2a" text-anchor="middle" style="white-space: pre;" direction="ltr" dominant-baseline="text-before-edge">3</text></g><g stroke-linecap="round" transform="translate(241.18541757586962 167.66027081718516) rotate(0 29.5 28.5)"><path d="M37.1 0.7 C42.8 1.95, 49.08 7.09, 52.73 12.18 C56.38 17.27, 59.24 25.33, 59 31.23 C58.75 37.14, 55.77 43.42, 51.27 47.6 C46.76 51.79, 38.32 55.46, 31.95 56.34 C25.58 57.21, 18.13 56.08, 13.05 52.84 C7.97 49.6, 3.13 42.91, 1.48 36.89 C-0.17 30.86, 0.78 22.24, 3.16 16.7 C5.55 11.16, 9.16 5.93, 15.8 3.66 C22.43 1.39, 37.8 2.68, 42.96 3.08 C48.11 3.48, 47.22 5.79, 46.73 6.06 M29.2 0.7 C35.08 0.43, 43.52 3.93, 48.32 7.54 C53.12 11.15, 56.71 16.46, 57.99 22.34 C59.26 28.22, 58.93 37.5, 55.97 42.84 C53.01 48.18, 46.17 52.24, 40.22 54.38 C34.28 56.51, 26.38 57.64, 20.28 55.64 C14.19 53.63, 6.93 47.82, 3.64 42.34 C0.34 36.86, -0.6 28.49, 0.5 22.75 C1.59 17.01, 5.34 11.87, 10.22 7.9 C15.09 3.92, 26.5 0.21, 29.76 -1.11 C33.02 -2.42, 29.63 -0.87, 29.8 0" stroke="#c92a2a" stroke-width="1" fill="none"></path></g><g transform="translate(261.6854175758696 180.16027081718516) rotate(0 9 16)"><text x="9" y="0" font-family="Helvetica, Segoe UI Emoji" font-size="28px" fill="#c92a2a" text-anchor="middle" style="white-space: pre;" direction="ltr" dominant-baseline="text-before-edge">5</text></g><g stroke-linecap="round"><g transform="translate(102.07198453899153 85.33501068296005) rotate(0 -13.288609439286468 10.862360845624522)"><path d="M-1.03 0.67 C-6.97 4.42, -11.78 8.41, -27.05 19.77 M0.27 -0.27 C-7.08 5.51, -16.18 13.34, -26.62 21.65" stroke="#000000" stroke-width="1" fill="none"></path></g><g transform="translate(102.07198453899153 85.33501068296005) rotate(0 -13.288609439286468 10.862360845624522)"><path d="M-25.09 19.71 L-20.12 6.8 L-12.12 17.94 L-25.6 20.71" stroke="none" stroke-width="0" fill="#000000" fill-rule="evenodd"></path><path d="M-27.4 22.16 C-26.04 18.69, -24.04 15.39, -20.41 6.7 M-26.42 21.45 C-24.11 17.03, -22.97 13.96, -20.08 8.12 M-19.52 7.7 C-18.16 9.33, -15.47 12.22, -12.02 18.12 M-20.45 8.6 C-18.1 10.36, -15.61 13.49, -12.07 17.78 M-11.25 18.43 C-16.08 18.72, -21.67 21.85, -25.76 21.41 M-11.35 17.32 C-15.35 19.28, -19.78 20.42, -26.09 21.7 M-26.62 21.65 C-26.62 21.65, -26.62 21.65, -26.62 21.65 M-26.62 21.65 C-26.62 21.65, -26.62 21.65, -26.62 21.65" stroke="#000000" stroke-width="1" fill="none"></path></g></g><mask></mask><g stroke-linecap="round"><g transform="translate(155.25496789193713 81.83195028612784) rotate(0 13.331708229187129 15.934462865162686)"><path d="M-1.27 1.36 C6.54 7.11, 14.78 17.21, 26.66 31.11 M0.55 0.27 C9.47 10.37, 18.04 22.41, 27.24 31.71" stroke="#000000" stroke-width="1" fill="none"></path></g><g transform="translate(155.25496789193713 81.83195028612784) rotate(0 13.331708229187129 15.934462865162686)"><path d="M27.71 30.27 L13.85 27.27 L20.95 18.41 L27.11 30.68" stroke="none" stroke-width="0" fill="#000000" fill-rule="evenodd"></path><path d="M26.29 32.73 C23.48 28.98, 20.79 28.77, 13.41 25.32 M27.65 31.91 C23.06 29.48, 18.05 28.47, 13.84 25.76 M14.63 24.7 C16.18 24.17, 16.92 22.56, 23.71 17.46 M13.75 26.44 C15.99 23.54, 18.38 21.21, 23.33 17.02 M23.9 17.22 C23.71 22.37, 25.21 25.7, 28.49 31.17 M22.3 17.36 C24.31 23.16, 25.65 27.9, 27.27 32.39 M27.24 31.71 C27.24 31.71, 27.24 31.71, 27.24 31.71 M27.24 31.71 C27.24 31.71, 27.24 31.71, 27.24 31.71" stroke="#000000" stroke-width="1" fill="none"></path></g></g><mask></mask><g stroke-linecap="round"><g transform="translate(189.23360919320737 156.47798876259333) rotate(0 -8.84213092679164 7.1303149767002765)"><path d="M1.64 -1.12 C-4.39 5.08, -9.8 9.09, -17.89 13.46 M0.84 -0.36 C-5.1 3.63, -11.73 8.62, -17.71 14.22" stroke="#000000" stroke-width="1" fill="none"></path></g><g transform="translate(189.23360919320737 156.47798876259333) rotate(0 -8.84213092679164 7.1303149767002765)"><path d="M-15.94 14.35 L-12.47 2.54 L-5.38 9.63 L-17.02 13.24" stroke="none" stroke-width="0" fill="#000000" fill-rule="evenodd"></path><path d="M-16.78 13.59 C-16.33 12.17, -15.44 9.41, -13.28 3.36 M-17.23 14.02 C-15.74 10.27, -14.7 7, -13.18 3.79 M-13.12 4.69 C-10.66 5.93, -8.41 8.45, -6.27 10.9 M-13.03 4.11 C-10.85 5.68, -8.63 8.68, -6.71 11.12 M-6.14 11.46 C-10.75 11.52, -14.97 14.36, -18.77 14.81 M-6.62 11.25 C-10.06 11.76, -12.95 12.51, -17.92 14.67 M-17.71 14.22 C-17.71 14.22, -17.71 14.22, -17.71 14.22 M-17.71 14.22 C-17.71 14.22, -17.71 14.22, -17.71 14.22" stroke="#000000" stroke-width="1" fill="none"></path></g></g><mask></mask><g stroke-linecap="round"><g transform="translate(231.83247027550402 150.24985109936625) rotate(0 9.566686578415386 11.921556883611316)"><path d="M-0.92 1.14 C6 8.43, 11.93 17.71, 19.7 25.08 M0.4 0.22 C6.73 9.1, 13.28 17.45, 19.73 24.23" stroke="#000000" stroke-width="1" fill="none"></path></g><g transform="translate(231.83247027550402 150.24985109936625) rotate(0 9.566686578415386 11.921556883611316)"><path d="M18.65 24.03 L4.4 20.17 L17.28 10.78 L21.48 23.36" stroke="none" stroke-width="0" fill="#000000" fill-rule="evenodd"></path><path d="M19.04 25.09 C15 22.76, 10.11 21.83, 6.36 19.26 M20.03 24.4 C15.09 22.91, 10.09 20.8, 6.38 18.63 M6.81 17.16 C9.71 15.49, 11.46 14, 15.81 10.4 M5.39 18.1 C9.26 15.56, 11.2 13.01, 15.53 10.08 M15.54 8.85 C15.02 12.92, 18.03 16.63, 21.08 24.05 M14.66 9.71 C15.82 14.2, 17.5 17.41, 19.25 24.77 M19.73 24.23 C19.73 24.23, 19.73 24.23, 19.73 24.23 M19.73 24.23 C19.73 24.23, 19.73 24.23, 19.73 24.23" stroke="#000000" stroke-width="1" fill="none"></path></g></g><mask></mask><g stroke-linecap="round" transform="translate(10 10) rotate(0 378.76220703125 117.84450303404981)"><path d="M0.2 -0.16 C176.04 0.16, 354.08 -0.81, 756.82 -0.52 M757.13 0.55 C757.53 60.7, 759.23 122.68, 758.51 234.56 M757.38 235.6 C566.54 238.76, 376.72 237.81, -0.03 236.14 M0.15 236.88 C0.5 143.24, 2.55 50.63, -0.83 0.05" stroke="#087f5b" stroke-width="1.5" fill="none" stroke-dasharray="8 9"></path></g><g stroke-linecap="round"><g transform="translate(170.06463623046875 55.905029296875) rotate(0 29.1103515625 -0.8538055419921875)"><path d="M0.89 -1.69 C18.36 -0.87, 34.08 -2.05, 58.99 -1.02" stroke="#000000" stroke-width="1.5" fill="none" stroke-dasharray="8 9"></path></g><g transform="translate(170.06463623046875 55.905029296875) rotate(0 29.1103515625 -0.8538055419921875)"><path d="M58.96 -1.74 L46.28 5.48 L45.77 -6.06 L57.98 -1.36" stroke="none" stroke-width="0" fill="#000000" fill-rule="evenodd"></path><path d="M59.66 -2.29 C56.24 0.95, 51.47 2.18, 45.84 5.54 M46.52 5.85 C45.44 0.22, 45.54 -1.95, 46.78 -7.85 M46.04 -6.77 C48.74 -4.39, 52.53 -4.99, 58.09 -1.16 M58.99 -1.02 C58.99 -1.02, 58.99 -1.02, 58.99 -1.02" stroke="#000000" stroke-width="1.5" fill="none"></path></g></g><mask></mask><g transform="translate(249.76727294921875 37.96099853515625) rotate(0 73 14)"><text x="0" y="0" font-family="Helvetica, Segoe UI Emoji" font-size="20px" fill="#000000" text-anchor="start" style="white-space: pre;" direction="ltr" dominant-baseline="text-before-edge">第1层  2⁰ 条记录</text></g><g transform="translate(292.828125 112.20297241210938) rotate(0 74 14)"><text x="0" y="0" font-family="Helvetica, Segoe UI Emoji" font-size="20px" fill="#19be76" text-anchor="start" style="white-space: pre;" direction="ltr" dominant-baseline="text-before-edge">第2层 2¹ 条记录 </text></g><g stroke-linecap="round"><g transform="translate(279.5106335275766 127.99099650786667) rotate(0 -15.774466000698268 1.6315677963992812)"><path d="M-0.96 -0.04 C-5.81 0.19, -15.68 1.26, -33.15 1.47" stroke="#19be76" stroke-width="1.5" fill="none" stroke-dasharray="8 9"></path></g><g transform="translate(279.5106335275766 127.99099650786667) rotate(0 -15.774466000698268 1.6315677963992812)"><path d="M-31.82 1.99 L-20.49 -4.26 L-19.25 9.12 L-31.53 0.4" stroke="none" stroke-width="0" fill="#19be76" fill-rule="evenodd"></path><path d="M-33.87 1.44 C-28.56 -0.3, -26.95 -1.72, -20.93 -6.58 M-19.14 -5.15 C-18.47 -1.01, -19.63 3.42, -18.34 6.89 M-20.18 8.06 C-25.11 6.09, -29.56 4.08, -33.25 1.15 M-33.15 1.47 C-33.15 1.47, -33.15 1.47, -33.15 1.47" stroke="#19be76" stroke-width="1.5" fill="none"></path></g></g><mask></mask><g stroke-linecap="round"><g transform="translate(347.26483154296875 197.47659301757812) rotate(0 -18.830588574377487 0.14251807857590393)"><path d="M-1.82 1.57 C-10.41 -1.24, -18.74 -0.15, -39.19 1.46" stroke="#c92a2a" stroke-width="1.5" fill="none" stroke-dasharray="8 9"></path></g><g transform="translate(347.26483154296875 197.47659301757812) rotate(0 -18.830588574377487 0.14251807857590393)"><path d="M-37.77 0.46 L-28.11 -4.55 L-23.64 6.86 L-38.61 3.4" stroke="none" stroke-width="0" fill="#c92a2a" fill-rule="evenodd"></path><path d="M-40.55 2.64 C-37.28 -1.15, -33.77 -2.12, -27.28 -5.04 M-26.12 -5.15 C-25.94 -1.95, -25.83 -0.17, -25.75 7.58 M-24.5 7.96 C-29.15 6.07, -34.9 3.55, -40.5 2.71 M-39.19 1.46 C-39.19 1.46, -39.19 1.46, -39.19 1.46" stroke="#c92a2a" stroke-width="1.5" fill="none"></path></g></g><mask></mask><g transform="translate(358.73114013671875 188.16372680664062) rotate(0 94 14)"><text x="0" y="0" font-family="Helvetica, Segoe UI Emoji" font-size="20px" fill="#c92a2a" text-anchor="start" style="white-space: pre;" direction="ltr" dominant-baseline="text-before-edge">第3层  最多2² 条记录</text></g><g transform="translate(572.1480102539062 51.300201416015625) rotate(0 10.2745361328125 79.30743408203125)" stroke="none"><path fill="#0b7285" d="M 0,-2.62 Q 0,-2.62 1.08,-2.64 2.17,-2.67 3.47,-2.39 4.78,-2.12 5.85,-1.65 6.92,-1.18 7.96,-0.49 9.01,0.20 10.96,1.56 12.92,2.93 14.50,4.44 16.08,5.95 17.24,7.39 18.40,8.83 19.36,10.43 20.33,12.02 21.01,13.58 21.68,15.13 22.26,16.57 22.84,18.01 23.22,19.53 23.61,21.05 23.70,22.35 23.79,23.65 23.83,25.24 23.88,26.82 23.41,28.62 22.95,30.42 22.22,32.20 21.49,33.98 20.72,35.80 19.95,37.63 18.97,39.84 17.99,42.05 17.25,44.11 16.51,46.18 16.07,48.11 15.63,50.05 15.54,51.75 15.45,53.46 15.53,55.16 15.60,56.87 16.16,58.44 16.73,60.00 17.64,61.53 18.54,63.05 19.29,64.36 20.03,65.67 20.79,66.83 21.54,67.99 22.23,69.04 22.91,70.08 22.80,71.21 22.68,72.33 22.21,73.37 21.73,74.42 20.82,75.75 19.91,77.07 19.42,78.27 18.93,79.46 18.52,80.48 18.11,81.50 17.68,83.33 17.26,85.15 17.04,86.92 16.82,88.70 16.62,89.97 16.43,91.25 16.32,92.53 16.22,93.81 16.14,95.20 16.07,96.59 16.03,98.92 15.99,101.24 16.02,103.07 16.05,104.90 16.02,106.24 15.99,107.58 15.96,110.06 15.93,112.53 16.11,114.53 16.29,116.53 16.71,118.56 17.13,120.58 17.28,121.73 17.42,122.87 17.62,124.18 17.81,125.49 18.01,126.55 18.22,127.61 18.32,128.94 18.43,130.27 18.50,132.48 18.57,134.68 18.62,136.50 18.67,138.31 18.71,139.86 18.75,141.40 18.69,143.10 18.63,144.80 18.27,146.55 17.90,148.30 17.58,149.58 17.26,150.85 16.67,152.37 16.07,153.89 15.53,154.88 14.99,155.87 13.76,157.85 12.54,159.83 12.19,160.22 11.84,160.62 11.39,160.89 10.93,161.15 10.41,161.26 9.90,161.36 9.37,161.30 8.85,161.23 8.37,161.01 7.90,160.78 7.52,160.41 7.14,160.04 6.90,159.57 6.66,159.10 6.58,158.58 6.50,158.06 6.60,157.54 6.69,157.02 6.94,156.56 7.20,156.10 7.59,155.74 7.97,155.38 8.45,155.17 8.94,154.95 9.46,154.90 9.99,154.85 10.50,154.97 11.01,155.09 11.46,155.37 11.91,155.65 12.25,156.06 12.58,156.46 12.77,156.96 12.96,157.45 12.98,157.98 13.00,158.50 12.85,159.01 12.70,159.52 12.40,159.95 12.10,160.38 11.68,160.69 11.25,161.01 10.75,161.17 10.25,161.33 9.72,161.32 9.19,161.32 8.70,161.14 8.20,160.96 7.78,160.64 7.37,160.31 7.08,159.87 6.79,159.43 6.65,158.92 6.52,158.41 6.56,157.89 6.59,157.36 6.79,156.87 7.00,156.39 7.00,156.39 6.99,156.39 8.55,153.87 10.11,151.35 10.60,150.19 11.10,149.03 11.46,147.83 11.82,146.63 12.14,145.40 12.46,144.17 12.57,142.79 12.67,141.40 12.71,139.87 12.75,138.33 12.77,136.54 12.80,134.76 12.79,133.65 12.78,132.55 12.69,130.60 12.61,128.65 12.42,127.55 12.23,126.46 11.87,124.11 11.50,121.77 11.07,119.57 10.64,117.38 10.44,114.95 10.25,112.53 10.22,110.06 10.19,107.58 10.16,106.24 10.13,104.89 10.17,103.05 10.21,101.22 10.20,98.85 10.20,96.48 10.18,95.00 10.16,93.52 10.18,92.02 10.21,90.51 10.32,89.20 10.43,87.89 10.65,86.01 10.86,84.12 11.06,82.70 11.25,81.28 11.54,80.23 11.83,79.18 12.49,77.31 13.15,75.44 13.91,73.99 14.67,72.55 15.28,71.62 15.88,70.69 16.69,69.95 17.49,69.20 16.80,70.32 16.11,71.44 15.37,70.08 14.62,68.72 14.00,67.47 13.38,66.23 12.80,65.29 12.23,64.35 11.66,63.28 11.10,62.21 10.55,60.87 10.00,59.52 9.76,58.44 9.51,57.36 9.45,55.31 9.39,53.25 9.55,51.12 9.71,48.98 9.93,47.70 10.15,46.42 10.46,45.33 10.76,44.23 11.49,41.97 12.23,39.72 13.04,37.57 13.86,35.42 14.29,34.12 14.72,32.83 15.38,31.25 16.05,29.66 16.63,28.20 17.21,26.74 17.23,25.27 17.25,23.81 17.25,22.52 17.24,21.22 16.84,19.98 16.43,18.75 15.85,17.32 15.27,15.89 14.78,14.65 14.29,13.41 13.47,12.18 12.65,10.95 11.62,9.72 10.59,8.49 9.16,7.21 7.72,5.93 6.07,4.86 4.42,3.80 3.27,3.23 2.12,2.67 1.06,2.64 0,2.62 -0.31,2.58 -0.62,2.54 -0.92,2.43 -1.21,2.32 -1.47,2.14 -1.73,1.96 -1.94,1.72 -2.15,1.48 -2.30,1.20 -2.45,0.92 -2.52,0.62 -2.60,0.31 -2.60,-0.00 -2.60,-0.31 -2.52,-0.62 -2.45,-0.92 -2.30,-1.20 -2.15,-1.48 -1.94,-1.72 -1.73,-1.96 -1.47,-2.14 -1.21,-2.32 -0.92,-2.43 -0.62,-2.54 -0.31,-2.58 0.00,-2.62 0.00,-2.62 L 0,-2.62 Z"></path></g><g transform="translate(610.8128051757812 99.78375244140625) rotate(0 76.5 28)"><text x="0" y="0" font-family="Helvetica, Segoe UI Emoji" font-size="20px" fill="#0b7285" text-anchor="start" style="white-space: pre;" direction="ltr" dominant-baseline="text-before-edge">三层的话</text><text x="0" y="28" font-family="Helvetica, Segoe UI Emoji" font-size="20px" fill="#0b7285" text-anchor="start" style="white-space: pre;" direction="ltr" dominant-baseline="text-before-edge">最多能放7条数据</text></g></svg>