<?xml version="1.0" encoding="us-ascii" standalone="no"?><svg xmlns="http://www.w3.org/2000/svg" xmlns:xlink="http://www.w3.org/1999/xlink" contentStyleType="text/css" height="476.0417px" preserveAspectRatio="none" style="width:659px;height:476px;background:#FFFFFF;" version="1.1" viewBox="0 0 659 476" width="659.375px" zoomAndPan="magnify"><defs/><g><polygon fill="none" points="255.2083,20.8333,255.2083,21.0523,265.625,20.4017,276.0417,21.0347,286.4583,21.2497,296.875,20.0902,307.2917,20.7524,317.7083,20.3891,328.125,20.4339,338.5417,20.7623,348.9583,20.1132,359.375,21.41,369.7917,20.1768,380.2083,20.6273,390.625,21.2833,401.0417,20.8333,401.0303,20.8058,401.64,21.0993,402.2159,21.3112,402.8332,21.6228,403.4305,21.8864,403.9879,22.0537,404.1758,22.1315,404.4473,22.7321,404.694,23.3225,404.8019,23.8553,405.113,24.4723,405.2083,25,405.4522,25,404.9579,32.7669,405.4439,40.5339,405.1054,48.3008,405.3937,56.0677,405.2083,63.8346,405.0495,63.7689,404.9423,64.4148,404.9581,65.1117,404.4605,65.5959,404.2658,66.2057,403.9879,66.7809,404.0329,66.8895,403.454,67.1585,402.8089,67.2678,402.2583,67.6053,401.5549,67.5736,401.0417,68.0013,401.0417,68.2975,390.625,68.5723,380.2083,68.4644,369.7917,68.6399,359.375,67.4981,348.9583,67.3219,338.5417,67.354,328.125,67.94,317.7083,67.7966,307.2917,68.7111,296.875,67.8193,286.4583,67.644,276.0417,68.2391,265.625,67.3067,255.2083,68.0013,255.1394,67.8348,254.7053,67.9654,254.0877,67.6529,253.5382,67.5047,252.8086,66.9218,252.2621,66.7809,252.3645,66.8233,252.2074,66.2701,251.6224,65.5396,251.4991,65.0004,251.3262,64.4406,251.0417,63.8346,251.268,63.8346,251.0402,56.0677,251.2023,48.3008,250.8494,40.5339,250.8065,32.7669,251.0417,25,251.2032,25.0669,251.0558,24.3155,251.6931,23.8891,251.8402,23.2597,251.932,22.6074,252.2621,22.0537,252.215,21.9402,252.9123,21.9568,253.4008,21.4695,254.1085,21.5114,254.5456,20.9001,255.2083,20.8333" style="stroke:#4D4D4D;stroke-width:1.0416666666666667;"/><text fill="#2E2E2E" font-family="" font-size="20.8333" font-weight="bold" lengthAdjust="spacing" textLength="131.25" x="262.5" y="51.6296">&#35775;&#38382;k8s &#26381;&#21153;</text><polygon fill="none" points="44.7917,80.5013,44.7917,80.7202,55.6713,80.0697,66.5509,80.7026,77.4306,80.9176,88.3102,79.7582,99.1898,80.4204,110.0694,80.057,120.9491,80.1018,131.8287,80.4303,142.7083,80.5013,142.6165,80.2795,143.3712,80.923,143.8031,80.7873,144.4498,81.1701,145.1228,81.6162,145.6546,81.7217,145.6271,81.7103,145.9206,82.32,146.1325,82.896,146.4441,83.5132,146.7076,84.1105,146.875,84.668,147.0784,84.668,147.108,91.4648,147.1109,98.2617,146.9634,105.0586,147.036,111.8555,146.875,118.6523,147.1003,118.7457,146.3996,119.1458,146.6045,119.921,146.0477,120.3807,146.0699,121.0803,145.6546,121.5986,145.5888,121.4398,145.0563,121.8207,144.5746,122.3247,143.8804,122.3152,143.3116,122.6087,142.7083,122.819,142.7083,123.1717,131.8287,123.2526,120.9491,122.8149,110.0694,123.1182,99.1898,122.2227,88.3102,123.1152,77.4306,123.39,66.5509,123.2821,55.6713,123.4576,44.7917,122.819,44.7275,122.664,44.1158,122.3657,43.5306,122.1315,43.0161,122.0679,42.4085,121.7797,41.8454,121.5986,42.064,121.6892,41.5453,120.9862,41.2472,120.3745,41.1864,119.8612,40.6552,119.153,40.625,118.6523,40.4447,118.6523,40.8503,111.8555,40.7763,105.0586,40.88,98.2617,40.5133,91.4648,40.625,84.668,40.7274,84.7104,41.0585,84.1572,40.9616,83.4267,41.3265,82.8875,41.6417,82.3277,41.8454,81.7217,41.932,81.9308,42.4341,81.4763,43.0854,81.3819,43.5396,80.8118,44.1124,80.5281,44.7917,80.5013" style="stroke:#333333;stroke-width:1.0416666666666667;"/><text fill="#2E2E2E" font-family="" font-size="16.6667" lengthAdjust="spacing" textLength="83.3333" x="52.0833" y="107.43">&#27983;&#35272;&#22120;&#35775;&#38382;</text><polygon fill="none" points="52.0833,143.6523,52.0833,143.8713,62.5,143.2208,72.9167,143.8537,83.3333,144.0687,93.75,142.9092,104.1667,143.5714,114.5833,143.2081,125,143.2529,135.4167,143.6523,135.4076,143.6305,135.9141,143.6746,136.6687,144.3181,137.1007,144.1824,137.7474,144.5652,138.3629,144.8727,138.5015,144.9301,138.5795,145.4506,138.873,146.0603,139.0849,146.6363,139.3965,147.2535,139.5833,147.819,139.6664,147.819,139.7867,154.6159,139.8163,161.4128,139.8192,168.2096,139.6717,175.0065,139.5833,181.8034,139.732,181.865,139.5645,182.486,138.8638,182.8861,139.0688,183.6613,138.5119,184.121,138.3629,184.7497,138.4339,184.9209,137.7079,184.8349,137.1753,185.2158,136.6937,185.7198,135.9994,185.7103,135.4167,185.9701,135.4167,186.0797,125,186.3228,114.5833,186.4036,104.1667,185.966,93.75,186.2692,83.3333,185.3738,72.9167,186.2663,62.5,186.5411,52.0833,185.9701,52.1424,186.1127,51.5755,185.9226,50.8406,185.3269,50.2289,185.0286,49.6437,184.7944,49.1371,184.7497,49.1182,184.7418,48.8299,184.1343,48.8675,183.6617,48.3488,182.9587,48.0507,182.3471,47.9167,181.8034,47.9959,181.8034,47.6851,175.0065,47.7364,168.2096,48.142,161.4128,48.0679,154.6159,47.9167,147.819,48.1523,147.9166,48.0575,147.187,48.5072,146.6829,48.8383,146.1297,48.7414,145.3992,49.1371,144.8727,49.1243,144.842,49.7431,144.6691,50.4022,144.5937,50.9043,144.1392,51.5555,144.0448,52.0833,143.6523" style="stroke:#333333;stroke-width:1.0416666666666667;"/><text fill="#2E2E2E" font-family="" font-size="16.6667" lengthAdjust="spacing" textLength="68.75" x="59.375" y="170.5811">DNS&#35299;&#26512;</text><polygon fill="none" points="53.125,206.8034,53.125,207.0223,63.2813,206.3718,73.4375,207.0047,83.5938,207.2197,93.75,206.0603,103.9063,206.7224,114.0625,206.3591,124.2188,206.4039,134.375,206.8034,134.3659,206.7815,134.8724,206.8257,135.6271,207.4691,136.059,207.3334,136.7057,207.7163,137.3213,208.0238,137.4598,208.0812,137.5378,208.6016,137.8313,209.2114,138.0433,209.7873,138.3549,210.4045,138.5417,210.9701,138.6247,210.9701,138.745,217.7669,138.7747,224.5638,138.7775,231.3607,138.6301,238.1576,138.5417,244.9544,138.6904,245.016,138.5229,245.637,137.8222,246.0371,138.0271,246.8124,137.4702,247.2721,137.3213,247.9007,137.3922,248.0719,136.6662,247.986,136.1337,248.3669,135.6521,248.8708,134.9578,248.8614,134.375,249.1211,134.375,249.2308,124.2188,249.4738,114.0625,249.5547,103.9063,249.117,93.75,249.4203,83.5938,248.5248,73.4375,249.4173,63.2813,249.6921,53.125,249.1211,53.1841,249.2637,52.6172,249.0737,51.8823,248.478,51.2706,248.1796,50.6854,247.9454,50.1787,247.9007,50.1598,247.8929,49.8716,247.2853,49.9092,246.8127,49.3905,246.1097,49.0924,245.4981,48.9583,244.9544,49.0376,244.9544,48.7268,238.1576,48.7781,231.3607,49.1837,224.5638,49.1096,217.7669,48.9583,210.9701,49.194,211.0676,49.0992,210.338,49.5489,209.834,49.88,209.2807,49.7831,208.5503,50.1787,208.0238,50.166,207.993,50.7847,207.8201,51.4438,207.7447,51.9459,207.2902,52.5972,207.1959,53.125,206.8034" style="stroke:#333333;stroke-width:1.0416666666666667;"/><text fill="#2E2E2E" font-family="" font-size="16.6667" lengthAdjust="spacing" textLength="66.6667" x="60.4167" y="233.7321">&#20837;&#21475;&#32593;&#20851;</text><path d="M196.875,259.5378 L197.0696,259.5378 L196.4914,266.6081 L197.054,273.6784 L197.2451,280.7487 L196.2144,287.819 L196.875,294.8893 L196.8609,294.8188 L192.6309,295.3354 L188.472,296.2078 L184.3626,297.3274 L180.0828,297.5949 L176.0417,299.056 L176.1422,299.5587 L180.0939,299.3171 L184.3391,300.5431 L188.6201,301.9482 L192.6928,302.3114 L196.875,303.2227 L196.9382,303.2227 L196.8454,310.293 L197.0403,317.3633 L197.0964,324.4336 L197.4173,331.5039 L196.875,338.5742 L196.875,338.5742 L196.875,340.4383 L207.3401,340.461 L217.8052,339.2815 L228.2703,339.862 L238.7355,340.5249 L249.2006,336.5709 L259.6657,340.459 L270.1308,337.7506 L280.5959,340.057 L291.061,337.1992 L301.5262,338.3839 L311.9913,340.6342 L322.4564,338.4388 L332.9215,338.8667 L343.3866,339.5149 L353.8517,339.7304 L364.3169,338.5634 L374.782,339.372 L385.2471,336.9842 L395.7122,339.3642 L406.1773,340.097 L416.6424,339.809 L427.1076,340.2771 L437.5727,337.2323 L448.0378,336.7626 L458.5029,336.8481 L468.968,338.4107 L479.4331,338.0283 L489.8983,340.467 L500.3634,338.089 L510.8285,337.6213 L521.2936,339.2083 L531.7587,336.7219 L542.2238,337.1322 L552.689,340.3769 L563.1541,339.7844 L573.6192,340.6145 L584.0843,337.6803 L594.5494,339.4609 L605.0145,340.2143 L615.4797,337.262 L625.9448,338.3079 L636.4099,338.9242 L646.875,338.5742 L646.875,338.5742 L648.6854,338.5742 L646.8634,328.7714 L648.1599,318.9686 L645.3367,309.1657 L644.9937,299.3629 L648.2739,289.5601 L644.8835,279.7573 L646.875,269.9544 L647.2082,270.2877 L644.927,268.0064 L642.5329,265.6123 L640.3934,263.4728 L638.842,261.9215 L636.4583,259.5378 L636.4583,258.7063 L625.9921,261.1818 L615.5258,258.0024 L605.0595,261.2528 L594.5933,260.883 L584.127,260.2182 L573.6607,259.6689 L563.1944,261.5561 L552.7282,261.2421 L542.2619,260.0079 L531.7956,260.2827 L521.3294,259.1759 L510.8631,261.5279 L500.3968,259.9679 L489.9306,260.0171 L479.4643,257.8479 L468.998,258.4121 L458.5317,261.0121 L448.0655,260.7315 L437.5992,259.4185 L427.1329,258.6428 L416.6667,258.9296 L406.2004,257.6317 L395.7341,260.6898 L385.2679,261.5921 L374.8016,261 L364.3353,261.4681 L353.869,259.158 L343.4028,259.78 L332.9365,258.4611 L322.4702,260.3268 L312.004,260.2232 L301.5377,261.0722 L291.0714,258.8998 L280.6052,259.1644 L270.1389,260.7696 L259.6726,261.1137 L249.2063,258.1141 L238.7401,258.9992 L228.2738,259.9524 L217.8075,257.841 L207.3413,260.5194 L196.875,259.5378 L196.875,259.5378 " fill="#17A2B8" style="stroke:#1592A6;stroke-width:1.0416666666666667;"/><path d="M636.4583,259.5378 L636.6529,259.5378 L636.0747,261.6211 L636.6373,263.7044 L636.8284,265.7878 L635.7978,267.8711 L636.4583,269.9544 L636.4583,269.8825 L638.5417,269.5595 L640.625,269.5993 L642.7083,269.8913 L644.7917,269.3143 L646.875,269.9544 L647.2375,270.3169 L644.379,267.4584 L642.5788,265.6583 L640.9078,263.9872 L638.4855,261.5649 L636.4583,259.5378 " fill="#17A2B8" style="stroke:#1592A6;stroke-width:1.0416666666666667;"/><text fill="#FFFFFF" font-family="" font-size="16.6667" lengthAdjust="spacing" textLength="133.3333" x="208.3333" y="285.4248">&#30456;&#24403;&#20110; nginx&#31243;&#24207;</text><text fill="#FFFFFF" font-family="" font-size="16.6667" lengthAdjust="spacing" textLength="417.7083" x="208.3333" y="304.8258">&#27599;&#21019;&#24314;&#19968;&#20010;ingress,&#30456;&#24403;&#20110;&#22312;nginx.conf&#37324;&#22686;&#21152;&#19968;&#20010;&#37197;&#32622;</text><text fill="#FFFFFF" font-family="" font-size="16.6667" lengthAdjust="spacing" textLength="321.875" x="208.3333" y="324.2269">&#27604;&#22914;&#20256;&#32479;&#37324;&#25105;&#20204;nginx.conf&#37197;&#32622;&#19968;&#20010;server</text><polygon fill="none" points="15.625,277.8971,15.625,278.1161,26.0417,277.4656,36.4583,278.0985,46.875,278.3135,57.2917,277.154,67.7083,277.8162,78.125,277.4529,88.5417,277.4977,98.9583,277.8261,109.375,277.177,119.7917,278.4738,130.2083,277.2406,140.625,277.6911,151.0417,278.3471,161.4583,277.8078,171.875,277.8971,171.8841,277.919,172.46,278.131,173.0772,278.4426,173.6745,278.7061,174.3098,279.0613,174.8213,279.1175,175.0365,279.2067,175.2833,279.797,175.3911,280.3299,175.7022,280.9469,176.0229,281.5679,176.0417,282.0638,175.7913,282.0638,176.2773,288.8607,175.9387,295.6576,176.227,302.4544,175.8698,309.2513,176.0417,316.0482,176.0197,316.0391,176.0355,316.736,175.5379,317.2202,175.3432,317.8299,175.174,318.4502,174.8213,318.9945,174.8766,319.128,174.2315,319.2373,173.6809,319.5747,172.9775,319.5431,172.502,320.062,171.875,320.2148,171.875,320.7859,161.4583,320.6779,151.0417,320.8534,140.625,319.7116,130.2083,319.5355,119.7917,319.5676,109.375,320.1535,98.9583,320.0101,88.5417,320.9246,78.125,320.0329,67.7083,319.8575,57.2917,320.4526,46.875,319.5202,36.4583,319.6741,26.0417,320.8908,15.625,320.2148,15.6829,320.3546,15.1333,320.2064,14.4037,319.6235,13.8996,319.585,13.3464,319.4279,12.6787,318.9945,12.5272,318.9317,12.4039,318.3925,12.231,317.8327,12.1556,317.3133,11.7011,316.6369,11.4583,316.0482,11.6189,316.0482,11.266,309.2513,11.2232,302.4544,11.6332,295.6576,11.2094,288.8607,11.4583,282.0638,11.6216,282.1314,11.7687,281.502,11.8605,280.8497,12.0771,280.249,12.5818,279.7677,12.6787,279.1175,12.6389,279.0215,13.3466,279.0633,13.7838,278.4521,14.5285,278.5834,15.1001,278.2966,15.625,277.8971" style="stroke:#333333;stroke-width:1.0416666666666667;"/><text fill="#2E2E2E" font-family="" font-size="16.6667" lengthAdjust="spacing" textLength="141.6667" x="22.9167" y="304.8258">ingress controller</text><polygon fill="none" points="53.125,359.4076,53.125,359.6265,63.2813,358.976,73.4375,359.6089,83.5938,359.8239,93.75,358.6644,103.9063,359.3266,114.0625,358.9633,124.2188,359.0081,134.375,359.4076,134.3659,359.3857,134.8724,359.4298,135.6271,360.0733,136.059,359.9376,136.7057,360.3204,137.3213,360.6279,137.4598,360.6853,137.5378,361.2058,137.8313,361.8155,138.0433,362.3915,138.3549,363.0087,138.5417,363.5742,138.6247,363.5742,138.745,370.3711,138.7747,377.168,138.7775,383.9648,138.6301,390.7617,138.5417,397.5586,138.6904,397.6202,138.5229,398.2412,137.8222,398.6413,138.0271,399.4165,137.4702,399.8762,137.3213,400.5049,137.3922,400.6761,136.6662,400.5902,136.1337,400.9711,135.6521,401.475,134.9578,401.4655,134.375,401.7253,134.375,401.835,124.2188,402.078,114.0625,402.1588,103.9063,401.7212,93.75,402.0244,83.5938,401.129,73.4375,402.0215,63.2813,402.2963,53.125,401.7253,53.1841,401.8679,52.6172,401.6778,51.8823,401.0821,51.2706,400.7838,50.6854,400.5496,50.1787,400.5049,50.1598,400.497,49.8716,399.8895,49.9092,399.4169,49.3905,398.7139,49.0924,398.1023,48.9583,397.5586,49.0376,397.5586,48.7268,390.7617,48.7781,383.9648,49.1837,377.168,49.1096,370.3711,48.9583,363.5742,49.194,363.6718,49.0992,362.9422,49.5489,362.4381,49.88,361.8849,49.7831,361.1544,50.1787,360.6279,50.166,360.5972,50.7847,360.4243,51.4438,360.3489,51.9459,359.8944,52.5972,359.8,53.125,359.4076" style="stroke:#333333;stroke-width:1.0416666666666667;"/><text fill="#2E2E2E" font-family="" font-size="16.6667" lengthAdjust="spacing" textLength="66.6667" x="60.4167" y="386.3363">services</text><polygon fill="none" points="70.8333,422.5586,70.8333,422.6316,80,422.4147,89.1667,422.6257,98.3333,422.6974,107.5,422.3109,116.6667,422.5586,116.6563,422.5337,117.1993,422.6659,117.7942,422.9237,118.4254,423.269,118.9318,423.3131,119.6129,423.779,119.7905,423.8525,119.6548,424.2845,120.0377,424.9312,120.4837,425.6041,120.5617,426.1246,120.8333,426.7253,120.857,426.7253,120.8222,433.5221,120.8953,440.319,120.9164,447.1159,121.0367,453.9128,120.8333,460.7096,121.0486,460.7988,120.8072,461.3891,120.4269,461.922,120.2498,462.539,120.0823,463.16,119.6129,463.6559,119.5171,463.4246,119.1138,464.1177,118.395,464.049,117.9161,464.5594,117.1901,464.4734,116.6667,464.8763,116.6667,464.8525,107.5,465.1338,98.3333,464.8594,89.1667,464.9129,80,464.9939,70.8333,464.8763,70.8886,465.0098,70.2436,464.631,69.693,464.4803,68.9895,463.9604,68.5141,463.9912,67.8871,463.6559,68.0629,463.7288,67.7856,463.1257,67.5956,462.5589,66.9999,461.824,66.7015,461.2122,66.6667,460.7096,66.4509,460.7096,66.6462,453.9128,66.5984,447.1159,66.9033,440.319,66.606,433.5221,66.6667,426.7253,66.5566,426.6797,66.984,426.1663,66.9409,425.4581,67.2324,424.8885,67.8512,424.4545,67.8871,423.779,67.9449,423.9187,68.5739,423.7705,69.0228,423.1876,69.6972,423.1491,70.3225,422.9921,70.8333,422.5586" style="stroke:#333333;stroke-width:1.0416666666666667;"/><text fill="#2E2E2E" font-family="" font-size="16.6667" lengthAdjust="spacing" textLength="31.25" x="78.125" y="449.4873">pod</text><path d="M93.75,122.819 L93.8473,122.819 L93.5582,126.9857 L93.8395,131.1523 L93.935,135.319 L93.4197,139.4857 L93.75,143.6523 " fill="#333333" style="stroke:#333333;stroke-width:3.125;"/><polygon fill="#333333" points="89.5833,133.2357,89.6511,133.2628,90.2831,135.2656,91.3123,137.4273,92.2122,139.5372,92.6867,141.477,93.75,143.6523,93.7249,143.6423,94.4458,141.514,95.293,139.4362,96.228,137.3936,96.8604,135.2299,97.9167,133.2357,98.0526,133.3716,96.9286,133.9143,96.2014,134.8538,95.5227,135.8417,94.5623,136.548,93.75,137.4023,93.7668,137.4191,92.9088,136.5612,92.1272,135.7795,91.3087,134.9611,90.5605,134.2128,89.5833,133.2357" style="stroke:#333333;stroke-width:1.0416666666666667;"/><path d="M93.75,185.9701 L93.8473,185.9701 L93.5582,190.1367 L93.8395,194.3034 L93.935,198.4701 L93.4197,202.6367 L93.75,206.8034 " fill="#333333" style="stroke:#333333;stroke-width:3.125;"/><polygon fill="#333333" points="89.5833,196.3867,89.6511,196.4138,90.2831,198.4166,91.3123,200.5783,92.2122,202.6883,92.6867,204.6281,93.75,206.8034,93.7249,206.7934,94.4458,204.6651,95.293,202.5873,96.228,200.5446,96.8604,198.3809,97.9167,196.3867,98.0526,196.5227,96.9286,197.0653,96.2014,198.0048,95.5227,198.9928,94.5623,199.699,93.75,200.5534,93.7668,200.5701,92.9088,199.7122,92.1272,198.9306,91.3087,198.1121,90.5605,197.3639,89.5833,196.3867" style="stroke:#333333;stroke-width:1.0416666666666667;"/><path d="M93.75,249.1211 L93.8473,249.1211 L93.5582,254.8763 L93.8395,260.6315 L93.935,266.3867 L93.4197,272.1419 L93.75,277.8971 " fill="#333333" style="stroke:#333333;stroke-width:3.125;"/><polygon fill="#333333" points="89.5833,267.4805,89.6511,267.5076,90.2831,269.5104,91.3123,271.6721,92.2122,273.782,92.6867,275.7218,93.75,277.8971,93.7249,277.8871,94.4458,275.7588,95.293,273.681,96.228,271.6383,96.8604,269.4746,97.9167,267.4805,98.0526,267.6164,96.9286,268.1591,96.2014,269.0986,95.5227,270.0865,94.5623,270.7927,93.75,271.6471,93.7668,271.6639,92.9088,270.806,92.1272,270.0243,91.3087,269.2058,90.5605,268.4576,89.5833,267.4805" style="stroke:#333333;stroke-width:1.0416666666666667;"/><path d="M93.75,320.2148 L93.8473,320.2148 L93.5582,328.0534 L93.8395,335.8919 L93.935,343.7305 L93.4197,351.569 L93.75,359.4076 " fill="#333333" style="stroke:#333333;stroke-width:3.125;"/><polygon fill="#333333" points="89.5833,348.9909,89.6511,349.018,90.2831,351.0208,91.3123,353.1825,92.2122,355.2924,92.6867,357.2322,93.75,359.4076,93.7249,359.3975,94.4458,357.2692,95.293,355.1914,96.228,353.1488,96.8604,350.9851,97.9167,348.9909,98.0526,349.1268,96.9286,349.6695,96.2014,350.609,95.5227,351.5969,94.5623,352.3032,93.75,353.1576,93.7668,353.1743,92.9088,352.3164,92.1272,351.5347,91.3087,350.7163,90.5605,349.968,89.5833,348.9909" style="stroke:#333333;stroke-width:1.0416666666666667;"/><path d="M93.75,401.7253 L93.8473,401.7253 L93.5582,405.8919 L93.8395,410.0586 L93.935,414.2253 L93.4197,418.3919 L93.75,422.5586 " fill="#333333" style="stroke:#333333;stroke-width:3.125;"/><polygon fill="#333333" points="89.5833,412.1419,89.6511,412.169,90.2831,414.1718,91.3123,416.3335,92.2122,418.4435,92.6867,420.3833,93.75,422.5586,93.7249,422.5486,94.4458,420.4203,95.293,418.3425,96.228,416.2998,96.8604,414.1361,97.9167,412.1419,98.0526,412.2779,96.9286,412.8205,96.2014,413.76,95.5227,414.748,94.5623,415.4542,93.75,416.3086,93.7668,416.3253,92.9088,415.4674,92.1272,414.6858,91.3087,413.8673,90.5605,413.1191,89.5833,412.1419" style="stroke:#333333;stroke-width:1.0416666666666667;"/><!--SRC=[NP3TIXj15CVlvob6RthZHtCZaaWlL7hLH6YUODWzReRCpeJPsQHh28WG37v5KP2YgAseGIIzA8MGDFHbTdQJjt2o6oLqBeOvv_pFx_pdpAaIk82zCYYh52mANp7A0Icg6E1Hzz_uibjUzN1qVQmFVY2lJ7c5IE9Y6xQ9pzHdmLM16C3yF5hpLC3W4qAsi7mNkC9rj4wiiYE5p-qDmOJ4jH9LW1g8M8fMgGesAN4ck3h2vaneHRe3EBEIn1_mEn_ZhGf8eeJC2owAHNSn3pRrtKHdB1d3LF0fPtA-faCb1uap7vDq8xcvK32ZIsUaxjQPiJjJ-M9MaLOAf1hC5Fx_LW2CYTfqI0EjBR-j8XlzQO-UMlfx9zrb3cKt2yNHqtrqSshUklcWs_Vny4mtVvkGSaU2vs7BE9A2CP0vbDYLr2af55_rzF0yx9zWxb3-BUuSwduRHR_QkdMb1_smjnlsdgUCXNUnlkuayYL3tHxl7-cVD_hWBXMFcyVni6iG5_fnB_nx5mzkZI9gdOM3bvccH9LsU22h815mEraaoauIr0BFsAy8E_SA]--></g></svg>