<svg version="1.1" xmlns="http://www.w3.org/2000/svg" viewBox="0 0 998.0285034179688 973.8389374683818" width="998.0285034179688" height="973.8389374683818">
  <!-- svg-source:excalidraw -->
  
  <defs>
    <style class="style-fonts">
      @font-face {
        font-family: "Virgil";
        src: url("/stylesheets/font/Virgil-hand.woff2");
      }
      @font-face {
        font-family: "Cascadia";
        src: url("https://unpkg.com/@excalidraw/excalidraw@0.15.3/dist/excalidraw-assets/Cascadia.woff2");
      }
    </style>
  </defs>
  <rect x="0" y="0" width="998.0285034179688" height="973.8389374683818" fill="#ffffff"></rect><g stroke-linecap="round" transform="translate(206.09197998046875 122.96231842041016) rotate(0 11.296905517578125 36.8800048828125)"><path d="M0.79 -1.13 C4.5 -0.41, 13.41 0.77, 24.21 1.11 M0.83 0.4 C7.82 -0.05, 15.83 -0.7, 21.8 0.74 M24.3 -1.66 C22.46 16.56, 22.26 34.82, 23.18 73.58 M23.06 0.81 C22.62 17.66, 23.94 33.5, 22.14 74.67 M21.02 72.94 C15.06 74.53, 7.73 74.85, -0.84 74.24 M22.5 73.7 C16.37 73.6, 8.99 74.41, 0.65 74.19 M-1.35 73.47 C-0.05 52.45, -1.5 31.03, 0.99 -0.08 M0.3 74.54 C-0.23 56.13, -0.79 37.73, 0.58 0.6" stroke="#2b8a3e" stroke-width="1" fill="none"></path></g><g stroke-linecap="round" transform="translate(230.49819946289062 122.48499298095703) rotate(0 11.296905517578125 36.8800048828125)"><path d="M-1.13 -1.83 C5.67 0.67, 12.72 1.53, 23.7 0.58 M0.4 0.38 C6.71 0.78, 12.88 -0.98, 23.34 -0.52 M20.93 0.25 C20.41 18.4, 20.38 37.3, 22.41 72.28 M23.41 -0.48 C23.12 28.03, 22.27 53.93, 23.51 74.11 M21.77 73.79 C16.58 73.85, 10.34 72.74, 0.48 74.05 M22.54 74.64 C15.31 74.35, 9.22 74.38, 0.43 73.72 M-0.29 74.28 C0.26 45.07, 0.68 19.25, -0.08 -1.07 M0.78 73.71 C1.1 49.17, 0.88 26.37, 0.6 0.66" stroke="#2b8a3e" stroke-width="1" fill="none"></path></g><g stroke-linecap="round" transform="translate(255.31236267089844 123.62691497802734) rotate(0 11.296905517578125 36.8800048828125)"><path d="M-1.83 -0.21 C9.58 1.1, 19.25 1.24, 23.17 0.04 M0.38 -0.12 C7.05 -0.86, 11.37 0.65, 22.07 -0.51 M22.84 -1.73 C23.27 15.86, 23.81 35.07, 21.12 75.13 M22.12 0.98 C23.78 17.7, 22.48 36.05, 22.94 73.67 M22.63 74.31 C13.89 74.54, 3.82 74.15, 0.29 73.87 M23.48 73.39 C14.31 74.19, 5.46 74.17, -0.04 74.52 M0.52 74.28 C-0.44 50.04, 1.49 24.38, -1.07 0.5 M-0.05 74.31 C-0.82 57.43, 0.36 41.04, 0.66 0.2" stroke="#2b8a3e" stroke-width="1" fill="none"></path></g><g stroke-linecap="round" transform="translate(279.6679229736328 122.5517807006836) rotate(0 11.296905517578125 36.8800048828125)"><path d="M-0.21 0.76 C8.65 1.83, 16.45 0.79, 22.64 -0.61 M-0.12 0.97 C7.89 -0.88, 18.06 -0.61, 22.08 -0.61 M20.86 0.04 C20.22 29.03, 21.8 55.4, 23.97 72.52 M23.58 0.84 C23.33 25.1, 24.11 51.46, 22.5 74.73 M23.15 74.02 C18.47 72.93, 13.07 74.05, 0.11 75.63 M22.22 74.37 C16.47 74.61, 9.89 73.92, 0.76 74.1 M0.52 72.82 C1.04 57.6, 0.03 38.38, 0.5 -1.48 M0.55 73.16 C-0.24 50.02, 0.03 25.78, 0.2 -0.56" stroke="#2b8a3e" stroke-width="1" fill="none"></path></g><g stroke-linecap="round" transform="translate(200.395751953125 85.78697967529297) rotate(0 75.5 17)"><path d="M0.76 0.98 C38.4 1.26, 74.14 0.2, 150.39 1.66 M0.97 -0.77 C50.61 0.92, 102.29 -0.34, 150.39 0.86 M151.04 -1.77 C151.63 7.19, 149.57 16.12, 149.76 34.93 M151.84 0.14 C150.38 13.88, 151.19 25.84, 151.97 33.21 M151.26 34.88 C111.07 34.9, 73.12 34.53, 1.87 33.81 M151.61 34.44 C107.18 33.86, 62.03 34.2, 0.34 33.33 M-0.94 34.93 C0.9 24.22, -1.16 15.1, -1.48 0.6 M-0.6 34.33 C0.6 21.76, 0.68 8.52, -0.56 -0.15" stroke="#e67700" stroke-width="1" fill="none"></path></g><g transform="translate(254.895751953125 92.28697967529297) rotate(0 21 10.5)"><text x="21" y="0" font-family="Segoe UI Emoji" font-size="20.059870363191795px" fill="#e67700" text-anchor="middle" style="white-space: pre;" direction="ltr" dominant-baseline="text-before-edge">小学</text></g><g stroke-linecap="round" transform="translate(303.73899841308594 120.7051010131836) rotate(0 11.296905517578125 36.8800048828125)"><path d="M1.62 1.11 C7.12 -0.07, 12.48 1.55, 23.4 0.77 M-0.8 0.74 C5.99 -0.34, 12.42 1.03, 21.76 0.12 M23.18 -0.18 C21.13 17.11, 21.37 32.41, 24.22 72.8 M22.14 0.91 C23.56 29.28, 24.18 57.96, 22.18 73.78 M21.76 74.24 C15.48 73.97, 9.65 73.67, -0.11 75.53 M23.24 74.19 C16.62 74.62, 11.07 73.19, -0.15 74.02 M0.99 73.68 C-0.72 50.23, -1.13 26.29, 1.55 -0.1 M0.58 74.36 C1.11 47.75, -0.11 21.18, 0.8 -0.3" stroke="#2b8a3e" stroke-width="1" fill="none"></path></g><g stroke-linecap="round" transform="translate(328.1452178955078 120.22777557373047) rotate(0 11.296905517578125 36.8800048828125)"><path d="M1.11 0.58 C7.68 -0.8, 16.95 0.63, 23.36 -0.23 M0.74 -0.52 C8.45 -0.43, 18.78 -0.65, 22.72 -0.87 M22.41 -1.48 C23.32 21.05, 22.87 46.2, 21.64 75.73 M23.51 0.35 C22.6 29.29, 21.91 56.23, 22.61 74.04 M23.07 74.05 C15.63 75.53, 8.25 73.55, 1.77 73.01 M23.02 73.72 C15.2 74.25, 5.61 73.76, 0.26 74.02 M-0.08 72.69 C0.16 53.62, 0.25 38, -0.1 1.11 M0.6 74.42 C-0.04 55.53, -0.39 39.22, -0.3 0.12" stroke="#2b8a3e" stroke-width="1" fill="none"></path></g><g stroke-linecap="round" transform="translate(381.841796875 121.7768325805664) rotate(0 11.296905517578125 36.8800048828125)"><path d="M0.58 0.04 C7.27 1.54, 16.57 0.64, 22.36 1.94 M-0.52 -0.51 C4.43 0.69, 9.24 -0.04, 21.73 0.02 M21.12 1.37 C21.57 16.55, 24.44 30.27, 24.56 75.44 M22.94 -0.09 C23.23 22.35, 21.85 46.29, 22.87 73.89 M22.88 73.87 C16.69 73.63, 6.95 75.58, -0.75 74.98 M22.55 74.52 C15.16 73.18, 6.9 74.11, 0.26 73.29 M-1.07 74.26 C-1.85 48.79, 1.19 22.54, 1.11 -1.21 M0.66 73.96 C-0.99 49.06, 0.37 24.36, 0.12 0.95" stroke="#2b8a3e" stroke-width="1" fill="none"></path></g><g stroke-linecap="round" transform="translate(406.2480163574219 121.29950714111328) rotate(0 11.296905517578125 36.8800048828125)"><path d="M0.04 -0.61 C10.27 0.74, 17.98 -0.3, 24.53 -1.54 M-0.51 -0.61 C5.83 -0.71, 10.08 -0.75, 22.62 -0.88 M23.97 -1.24 C23.46 25.93, 21.57 50.57, 24.27 74.03 M22.5 0.97 C22.48 18.37, 23.28 37.85, 22.73 74.2 M22.71 75.63 C16.57 73.68, 12.7 73.04, 1.22 74.64 M23.36 74.1 C13.68 73.6, 6.38 74.01, -0.47 74.23 M0.5 72.28 C0.62 49.53, -0.07 23.3, -1.21 0.66 M0.2 73.2 C-0.6 48.14, -0.74 21.04, 0.95 -0.24" stroke="#2b8a3e" stroke-width="1" fill="none"></path></g><g stroke-linecap="round" transform="translate(431.0621795654297 122.4414291381836) rotate(0 11.296905517578125 36.8800048828125)"><path d="M-0.61 1.66 C8.84 0.76, 15.83 1.93, 21.05 -1.59 M-0.61 0.86 C7.63 0.24, 16.05 0.14, 21.71 0.29 M21.36 0.93 C23.68 20.49, 24.01 44.57, 22.87 72.85 M23.56 -0.79 C22.44 28.89, 23.13 57.88, 23.03 73.34 M24.46 73.57 C15.16 75.54, 7.21 74.99, 0.88 75.05 M22.94 73.09 C14.7 74.19, 7.37 73.46, 0.47 74.26 M-1.48 74.36 C1.95 51.82, 1.5 28.87, 0.66 1.16 M-0.56 73.61 C0.31 46.89, -0.37 21.56, -0.24 -0.65" stroke="#2b8a3e" stroke-width="1" fill="none"></path></g><g stroke-linecap="round" transform="translate(455.41773986816406 121.36629486083984) rotate(0 11.296905517578125 36.8800048828125)"><path d="M1.66 0.81 C8.2 -0.16, 16.8 -1.47, 21 1.49 M0.86 -0.83 C5.73 -0.73, 11.23 -0.75, 22.89 -0.09 M23.52 1.63 C22.14 18.65, 24.78 33.64, 21.69 75.59 M21.81 -0.41 C22.54 24.98, 22.66 49.84, 22.17 74 M22.41 73.65 C17.26 73.22, 9.6 74.85, 1.29 74.61 M21.92 73.61 C16.17 74.1, 8.75 74.3, 0.5 73.72 M0.6 75.31 C-0.28 56.69, -1.39 38.06, 1.16 1.21 M-0.15 74.56 C-0.45 46.85, 0.8 19.46, -0.65 0.47" stroke="#2b8a3e" stroke-width="1" fill="none"></path></g><g stroke-linecap="round" transform="translate(376.14556884765625 84.60149383544922) rotate(0 75.5 17)"><path d="M0.81 0.77 C45.39 0.68, 89.71 -2.85, 152.49 -1.04 M-0.83 0.12 C36.71 -1.27, 74.27 -1, 150.91 -0.74 M152.63 -0.96 C152.75 14.21, 151.06 24.16, 152.83 34.7 M150.59 0.02 C151.61 10.01, 151.77 19.34, 151.24 34.15 M150.89 35.77 C104.1 35.07, 59.58 35.15, 0.85 33.92 M150.85 34.26 C94.45 32.51, 37.84 33.48, -0.04 33.46 M1.55 33.9 C1.36 21.73, 0.91 13.05, 1.21 1.33 M0.8 33.7 C0.31 24.06, -0.05 11.56, 0.47 0.79" stroke="#e67700" stroke-width="1" fill="none"></path></g><g transform="translate(430.64556884765625 91.10149383544922) rotate(0 21 10.5)"><text x="21" y="0" font-family="Segoe UI Emoji" font-size="20.059870363191795px" fill="#e67700" text-anchor="middle" style="white-space: pre;" direction="ltr" dominant-baseline="text-before-edge">初中</text></g><g stroke-linecap="round" transform="translate(479.4888153076172 119.51961517333984) rotate(0 11.296905517578125 36.8800048828125)"><path d="M-0.23 1.94 C7.12 -1.68, 18.8 -1.13, 21.57 -1.22 M-0.87 0.02 C7.83 0.27, 17.33 -0.77, 23.28 -0.62 M24.56 1.68 C23.47 24.65, 25.02 51.81, 22.4 75.7 M22.87 0.13 C22.73 15.9, 22.53 32.79, 22.65 74.69 M21.85 74.98 C16.91 75.25, 10.32 73.88, 1.52 74.44 M22.85 73.29 C17.8 74.31, 12.05 73.28, 0.25 73.02 M1.11 72.55 C0.08 50.6, 0.63 26.44, 0.41 -1.11 M0.12 74.71 C-0.82 52.1, -0.12 32.54, 0.82 0.87" stroke="#2b8a3e" stroke-width="1" fill="none"></path></g><g stroke-linecap="round" transform="translate(503.89503479003906 119.04228973388672) rotate(0 11.296905517578125 36.8800048828125)"><path d="M1.94 -1.54 C6.1 1.51, 14.34 -1, 21.37 1.71 M0.02 -0.88 C5.2 0.1, 9.06 0.88, 21.98 0.46 M24.27 0.27 C21.33 29.96, 22.94 56.08, 24.53 72.19 M22.73 0.44 C22.19 19.33, 22.75 38.24, 23.53 73.67 M23.81 74.64 C17.23 74.53, 9.21 75.2, 0.68 72.41 M22.12 74.23 C16.64 73.78, 9.17 74.07, -0.74 74.06 M-1.21 74.42 C1.2 47.11, 1.37 18.46, -1.11 -0.3 M0.95 73.52 C-0.43 46.23, 1.01 18.57, 0.87 0.64" stroke="#2b8a3e" stroke-width="1" fill="none"></path></g><g stroke-linecap="round" transform="translate(566.6213989257812 123.1993637084961) rotate(0 11.296905517578125 36.8800048828125)"><path d="M-1.54 -1.59 C9.13 -1.26, 14.27 -1.44, 24.3 -1.66 M-0.88 0.29 C6.96 -0.74, 14.8 -0.62, 23.06 0.81 M22.87 -0.91 C25.15 19.29, 23.13 39.13, 21.02 72.94 M23.03 -0.42 C23.04 22.39, 22.85 45.42, 22.5 73.7 M23.47 75.05 C14.67 73.82, 6.56 74.58, -1.35 73.47 M23.06 74.26 C15.19 73.12, 8.12 72.91, 0.3 74.54 M0.66 74.92 C0.8 53.32, 0 29.11, -0.3 1.59 M-0.24 73.11 C0.38 54.61, 0.73 34.76, 0.64 0.46" stroke="#2b8a3e" stroke-width="1" fill="none"></path></g><g stroke-linecap="round" transform="translate(591.0276184082031 122.72203826904297) rotate(0 11.296905517578125 36.8800048828125)"><path d="M-1.59 1.49 C5.47 -0.85, 11.81 1.89, 20.93 0.25 M0.29 -0.09 C4.08 0.89, 9.02 0.66, 23.41 -0.48 M21.69 1.83 C23.91 29.19, 25.15 57.18, 21.77 73.79 M22.17 0.24 C22.84 24.23, 23.63 48.25, 22.54 74.64 M23.89 74.61 C16.58 75.38, 11.41 72.51, -0.29 74.28 M23.09 73.72 C14.7 74.12, 7.13 74.16, 0.78 73.71 M1.16 74.97 C1.78 47.95, -0.67 21.03, 1.59 -0.59 M-0.65 74.23 C0.09 51.57, 0.17 28.39, 0.46 0.49" stroke="#2b8a3e" stroke-width="1" fill="none"></path></g><g stroke-linecap="round" transform="translate(615.8417816162109 123.86396026611328) rotate(0 11.296905517578125 36.8800048828125)"><path d="M1.49 -1.04 C7.94 -1.04, 19.64 -1.48, 22.84 -1.73 M-0.09 -0.74 C7.51 -0.68, 14.12 0.75, 22.12 0.98 M24.42 0.7 C22.51 30.26, 21.12 55.82, 22.63 74.31 M22.83 0.15 C22.97 24.04, 22.82 46.15, 23.48 73.39 M23.45 73.68 C15.97 74.59, 4.94 73.61, 0.52 74.28 M22.56 73.22 C17.13 73.13, 11.46 74.65, -0.05 74.31 M1.21 75.09 C0.16 54.98, -0.55 40.02, -0.59 0.24 M0.47 74.55 C0.99 45.5, 0.82 15.96, 0.49 -0.76" stroke="#2b8a3e" stroke-width="1" fill="none"></path></g><g stroke-linecap="round" transform="translate(640.1973419189453 122.78882598876953) rotate(0 11.296905517578125 36.8800048828125)"><path d="M-1.04 -1.02 C3.82 1.54, 8.41 0.08, 20.86 0.04 M-0.74 0.69 C4.16 0.49, 10.38 -0.46, 23.58 0.84 M23.29 -0.19 C24.2 21.56, 21.44 46.3, 23.15 74.02 M22.74 0.06 C23.22 25.26, 22.23 51.6, 22.22 74.37 M22.51 75.28 C15.5 72.51, 6.75 74.37, 0.52 72.82 M22.06 74.01 C14.02 74.05, 7.71 73.7, 0.55 73.16 M1.33 74.17 C-1.54 48.9, 1.16 24.06, 0.24 1.9 M0.79 74.58 C1.35 54.02, 0.94 33.49, -0.76 -0.94" stroke="#2b8a3e" stroke-width="1" fill="none"></path></g><g stroke-linecap="round" transform="translate(560.9251708984375 86.0240249633789) rotate(0 75.5 17)"><path d="M-1.02 -1.22 C34.98 -0.88, 66.79 -0.95, 151.04 -1.77 M0.69 -0.62 C50.21 1.93, 99.02 2.1, 151.84 0.14 M150.81 1.94 C149.74 7.84, 151.34 17.87, 151.26 34.88 M151.06 0.93 C150.99 8.72, 151.97 17.18, 151.61 34.44 M152.52 34.68 C94.6 33.65, 41.42 34.46, -0.94 34.93 M151.25 33.26 C98.52 33.97, 45.39 33.75, -0.6 34.33 M0.41 32.89 C-0.51 23.42, -0.8 9.88, 1.9 -0.47 M0.82 34.87 C0.48 26.48, 0.33 17.29, -0.94 -0.72" stroke="#e67700" stroke-width="1" fill="none"></path></g><g transform="translate(615.4251708984375 92.5240249633789) rotate(0 21 10.5)"><text x="21" y="0" font-family="Segoe UI Emoji" font-size="20.059870363191795px" fill="#e67700" text-anchor="middle" style="white-space: pre;" direction="ltr" dominant-baseline="text-before-edge">高中</text></g><g stroke-linecap="round" transform="translate(664.2684173583984 120.94214630126953) rotate(0 11.296905517578125 36.8800048828125)"><path d="M1.71 -1.66 C5.85 -1.59, 11.25 -1.63, 23.18 -0.18 M0.46 0.81 C4.63 1.12, 11.06 0.28, 22.14 0.91 M21.02 -0.82 C22.56 25.25, 22.79 50.28, 21.76 74.24 M22.5 -0.06 C23.52 22.83, 23.24 46.84, 23.24 74.19 M21.24 73.47 C16.42 74.35, 8.28 74.77, 0.99 73.68 M22.89 74.54 C16.98 74.15, 10.85 73.92, 0.58 74.36 M-0.3 75.35 C-0.75 46.97, 1.75 19.22, -1.31 0.94 M0.64 74.22 C-0.11 45.06, -1.54 17.17, 0.61 0.62" stroke="#2b8a3e" stroke-width="1" fill="none"></path></g><g stroke-linecap="round" transform="translate(688.6746368408203 120.4648208618164) rotate(0 11.296905517578125 36.8800048828125)"><path d="M-1.66 0.25 C3.89 -0.15, 9.48 0.4, 22.41 -1.48 M0.81 -0.48 C9.31 0.73, 16.79 -0.56, 23.51 0.35 M21.77 0.03 C23.86 21.69, 24.18 42.02, 23.07 74.05 M22.54 0.88 C22.91 23.15, 23.72 45.73, 23.02 73.72 M22.3 74.28 C14.61 72.67, 6.52 74.6, -0.08 72.69 M23.37 73.71 C15.8 73.22, 8.23 74.41, 0.6 74.42 M1.59 73.17 C0.65 52.03, -0.06 25.19, 0.94 1.57 M0.46 74.25 C-1.4 44.66, -1.36 18.06, 0.62 0.43" stroke="#2b8a3e" stroke-width="1" fill="none"></path></g><g transform="translate(380.40765380859375 10) rotate(0 71 14)"><text x="0" y="0" font-family="Virgil, Segoe UI Emoji" font-size="20px" fill="#000000" text-anchor="start" style="white-space: pre;" direction="ltr" dominant-baseline="text-before-edge">图书馆初始书架</text></g><g transform="translate(10 229.49453735351562) rotate(0 68 42.5)"><text x="0" y="0" font-family="Virgil, Segoe UI Emoji" font-size="20px" fill="#000000" text-anchor="start" style="white-space: pre;" direction="ltr" dominant-baseline="text-before-edge">随着时间推移, </text><text x="0" y="28.33333333333333" font-family="Virgil, Segoe UI Emoji" font-size="20px" fill="#000000" text-anchor="start" style="white-space: pre;" direction="ltr" dominant-baseline="text-before-edge">小学这个书架,</text><text x="0" y="56.66666666666666" font-family="Virgil, Segoe UI Emoji" font-size="20px" fill="#000000" text-anchor="start" style="white-space: pre;" direction="ltr" dominant-baseline="text-before-edge">书满了</text></g><g stroke-linecap="round"><g transform="translate(225.48797607421875 224.00344848632812) rotate(0 -1.386322021484375 63.39002990722656)"><path d="M-0.25 0.81 C-0.62 21.93, -1.18 105.8, -1.57 126.96 M1.82 0.18 C1.34 21.52, -1.03 107.63, -1.89 128.59" stroke="#1864ab" stroke-width="1" fill="none"></path></g><g transform="translate(225.48797607421875 224.00344848632812) rotate(0 -1.386322021484375 63.39002990722656)"><path d="M-1.16 127.89 L-9.54 114.38 L6.8 114.93 L-2.97 128.19" stroke="none" stroke-width="0" fill="#1864ab" fill-rule="evenodd"></path><path d="M-0.89 130.09 C-3.77 123.86, -4.86 119.33, -7.55 114.25 M-2.51 129.21 C-4.14 123.58, -5.36 119.22, -8.18 115.14 M-7.98 113.88 C-3.97 115.4, 1.04 115.96, 3.96 116.29 M-7.69 115.12 C-4.87 115.47, -2.07 115.3, 4.91 114.74 M4.45 115.34 C3.09 121.5, 0.07 124.73, -2.47 127.23 M4.22 115.54 C2.59 119.36, 0.89 124.49, -2.14 128.9 M-1.89 128.59 C-1.89 128.59, -1.89 128.59, -1.89 128.59 M-1.89 128.59 C-1.89 128.59, -1.89 128.59, -1.89 128.59" stroke="#1864ab" stroke-width="1" fill="none"></path></g></g><mask></mask><g stroke-linecap="round" transform="translate(79.3880615234375 453.4852294921875) rotate(0 11.296905517578125 36.8800048828125)"><path d="M-1.87 0.34 C8.32 -2.07, 16.21 -1.31, 21.09 -0.57 M-0.54 -0.69 C7.92 -1.14, 15.92 0.37, 22.88 0.22 M23.38 -0.16 C20.54 18.49, 24.17 40.84, 22.94 74.76 M22.07 -0.04 C22.18 23.24, 22.19 45.08, 22.22 73.1 M21.77 75.08 C17.96 74.2, 11.97 71.65, 1.8 74.2 M21.71 73.38 C14.03 73.27, 6.11 73.53, -0.1 74 M0.5 75.22 C1.91 59.13, 1.86 44.81, 0.18 -1.14 M-0.51 73.59 C0.56 45.2, 0.95 17.33, -0.24 -0.84" stroke="#2b8a3e" stroke-width="1" fill="none"></path></g><g stroke-linecap="round" transform="translate(103.79428100585938 453.0079040527344) rotate(0 11.296905517578125 36.8800048828125)"><path d="M0.34 0.93 C5.95 1.62, 14.62 -1.29, 22.02 0.9 M-0.69 0.13 C5.82 0.46, 14.08 0.41, 22.82 -0.35 M22.43 -1.96 C20.89 22.87, 23.71 42.75, 23.59 73.93 M22.56 -0.05 C22.9 18.44, 21.98 36.58, 21.93 73.46 M23.92 75.22 C18.1 75.23, 10.43 75.46, 0.44 75.27 M22.22 73.68 C17.01 74.05, 12.19 73.46, 0.24 72.81 M1.46 75.58 C0.33 54.27, 1.15 31.43, -1.14 1.55 M-0.17 73.75 C-1.42 57.72, -1.46 40.68, -0.84 0.26" stroke="#2b8a3e" stroke-width="1" fill="none"></path></g><g stroke-linecap="round" transform="translate(128.6084442138672 454.1498260498047) rotate(0 11.296905517578125 36.8800048828125)"><path d="M0.93 -1.95 C9.37 -1.23, 14.42 -0.61, 23.49 -0.03 M0.13 -0.92 C9.34 0.75, 18.29 0.38, 22.24 -0.13 M20.63 -1.04 C24.55 17.31, 23.23 32.08, 22.76 72.77 M22.55 0.49 C22.17 19.92, 21.84 40.04, 22.29 73.03 M24.06 74.39 C19.33 71.99, 14.74 74.35, 1.51 72.26 M22.52 73.27 C16.33 73.45, 8.98 73.91, -0.95 73.64 M1.82 74.28 C1.58 51.13, 0 24.7, 1.55 -1.55 M-0.01 73.04 C0.76 43.89, 0.14 14.71, 0.26 -0.53" stroke="#2b8a3e" stroke-width="1" fill="none"></path></g><g stroke-linecap="round" transform="translate(152.96400451660156 453.07469177246094) rotate(0 11.296905517578125 36.8800048828125)"><path d="M-1.95 1.41 C3.47 -1.6, 8.75 0.79, 22.56 1.97 M-0.92 0.33 C6.14 0.25, 11.32 -0.38, 22.47 -0.89 M21.55 1.67 C24.31 25.36, 23.53 50.2, 21.6 73.28 M23.08 -0.04 C22.13 17.92, 21.91 36.3, 21.86 72.9 M23.23 75.33 C14.83 75.72, 11.34 75.44, -1.5 73.74 M22.1 74.25 C17.59 73.64, 13.28 72.8, -0.12 74.01 M0.52 75.53 C0.8 49.97, -1.68 27.37, -1.55 1.89 M-0.72 74.14 C-0.64 55.14, -0.71 37.26, -0.53 0.56" stroke="#2b8a3e" stroke-width="1" fill="none"></path></g><g stroke-linecap="round" transform="translate(73.69183349609375 416.3098907470703) rotate(0 75.5 17)"><path d="M1.41 -1.19 C46.37 0.9, 96.63 1.44, 152.97 -1.09 M0.33 0.59 C35.18 1.61, 69.44 1.26, 150.11 0.39 M152.67 1.77 C151.01 10.92, 150.84 18.86, 150.52 32.96 M150.96 -0.43 C150.61 9.41, 150.68 19.42, 150.14 33.59 M152.57 32.08 C97.52 34.92, 41.96 32.98, -0.02 32.23 M151.49 33.77 C111.31 33.5, 70.87 33.14, 0.25 34.25 M1.77 35.33 C-0.13 20.18, 1.24 7.09, 1.89 -1.02 M0.38 33.23 C-0.23 23.55, 0.26 14.25, 0.56 0.96" stroke="#e67700" stroke-width="1" fill="none"></path></g><g transform="translate(128.19183349609375 422.8098907470703) rotate(0 21 10.5)"><text x="21" y="0" font-family="Segoe UI Emoji" font-size="20.059870363191795px" fill="#e67700" text-anchor="middle" style="white-space: pre;" direction="ltr" dominant-baseline="text-before-edge">小学</text></g><g stroke-linecap="round" transform="translate(177.0350799560547 451.22801208496094) rotate(0 11.296905517578125 36.8800048828125)"><path d="M-1.5 -0.57 C5.47 0.1, 11.12 -0.95, 21.22 0.26 M0.28 0.22 C4.35 -0.26, 8.51 0.26, 22.51 -0.98 M22.94 1 C23.38 17.3, 22.73 35.54, 22.52 73.67 M22.22 -0.66 C22.26 24.97, 21.7 51, 23.25 74.49 M24.39 74.2 C16.61 72.05, 7.58 71.77, -0.76 73.6 M22.49 74 C15.98 73.59, 11.51 73.96, 0.73 74.67 M0.18 72.62 C0.89 48.18, 1.24 24.68, -0.35 -0.02 M-0.24 72.92 C-0.02 56.45, 0.28 41.16, -0.49 0.28" stroke="#2b8a3e" stroke-width="1" fill="none"></path></g><g stroke-linecap="round" transform="translate(201.44129943847656 450.7506866455078) rotate(0 11.296905517578125 36.8800048828125)"><path d="M-0.57 0.9 C8.34 2.14, 15.66 -1.21, 22.85 -1.84 M0.22 -0.35 C7.41 -0.96, 15.46 -0.15, 21.61 -0.52 M23.59 0.17 C22.26 27.79, 22.21 56.48, 22.5 74.73 M21.93 -0.3 C21.54 20.99, 21.86 44.37, 23.33 74.08 M23.03 75.27 C12.55 73.94, 3.73 73.21, -0.16 72.78 M22.83 72.81 C14.59 73.99, 7.07 74.47, 0.91 74.02 M-1.14 75.31 C-2.04 47, -1.51 16.11, -0.02 -1.45 M-0.84 74.02 C0.03 49.38, 1.53 23.39, 0.28 -0.37" stroke="#2b8a3e" stroke-width="1" fill="none"></path></g><g stroke-linecap="round" transform="translate(240.5738525390625 454.42181396484375) rotate(0 11.296905517578125 36.8800048828125)"><path d="M-0.22 0.84 C7.03 -0.8, 11.77 -0.6, 20.84 -0.89 M-0.32 0.78 C8.47 -0.16, 16.19 0.64, 22.67 0.43 M23.94 -1.26 C22.95 17.94, 24.25 36.59, 21.48 73.56 M22.1 -0.61 C21.46 18.39, 23.08 35.91, 23.56 73.39 M22.57 72.79 C15.6 73.62, 11.05 73.57, 0.29 72.48 M23.17 74.62 C16.79 73.39, 9.68 73.36, 0.28 73.27 M1.97 73.35 C-0.09 54.92, -1.56 35.73, 1.93 -1.02 M-0.59 74.47 C1.17 55.55, 1.09 37.67, 0.87 0.55" stroke="#2b8a3e" stroke-width="1" fill="none"></path></g><g stroke-linecap="round" transform="translate(264.9800720214844 453.9444885253906) rotate(0 11.296905517578125 36.8800048828125)"><path d="M0.84 1.96 C4.47 1.66, 9.79 -1.72, 21.7 1.31 M0.78 0.22 C8.57 -0.24, 17.94 0.15, 23.02 -0.48 M21.33 -0.03 C21.75 27.24, 21.83 50.83, 22.39 72.62 M21.98 -0.66 C22.6 18.42, 22.19 35.9, 22.22 73.71 M21.62 73.44 C15.22 75.56, 7.92 74.05, -1.28 73.62 M23.45 74.58 C13.87 74.21, 5.39 74.17, -0.49 73.39 M-0.41 74.15 C0.17 45.69, 0.4 21.69, -1.02 -1.08 M0.71 74.41 C0.05 57.34, 0.3 40.64, 0.55 0.81" stroke="#2b8a3e" stroke-width="1" fill="none"></path></g><g stroke-linecap="round" transform="translate(289.7942352294922 455.08641052246094) rotate(0 11.296905517578125 36.8800048828125)"><path d="M1.96 -0.64 C9.96 -0.54, 14.91 -0.99, 23.9 1.59 M0.22 0 C8.09 0.62, 16.88 0.25, 22.11 0.52 M22.56 -0.63 C24.36 19.41, 21.98 39.7, 21.45 72.5 M21.93 0.47 C23.18 17.57, 23.2 34.66, 22.55 73.97 M22.27 73.65 C17.91 73.49, 9.91 72.37, -0.14 75.24 M23.41 73.49 C17.13 73.65, 11.3 73.46, -0.37 74.42 M0.39 74.33 C-1.8 48.46, 1.2 20.54, -1.08 -1.39 M0.65 73.69 C1.01 52.97, 1.31 32.37, 0.81 0.04" stroke="#2b8a3e" stroke-width="1" fill="none"></path></g><g stroke-linecap="round" transform="translate(314.14979553222656 454.0112762451172) rotate(0 11.296905517578125 36.8800048828125)"><path d="M-0.64 1.63 C6.09 -1.97, 12.17 1.08, 24.18 1.44 M0 -0.31 C6.84 0.03, 12.52 -0.53, 23.11 -0.3 M21.96 1.27 C21.58 25.98, 21.93 53.04, 21.33 72.51 M23.06 0.95 C22.2 19.47, 21.77 36.95, 22.81 73.63 M22.48 75.56 C15.68 74.02, 7.8 73.58, 1.48 72.88 M22.32 74.08 C14.22 74.22, 5.96 73.58, 0.66 74.3 M0.57 72.68 C0.95 46.3, -0.87 13.9, -1.39 -0.31 M-0.07 74.34 C-0.34 56.85, 0.02 38.99, 0.04 0.67" stroke="#2b8a3e" stroke-width="1" fill="none"></path></g><g stroke-linecap="round" transform="translate(234.87762451171875 417.24647521972656) rotate(0 75.5 17)"><path d="M1.63 -0.44 C49.89 -0.41, 104.58 2.07, 152.44 -0.65 M-0.31 0.8 C57.17 0.43, 113.7 0.52, 150.7 0.67 M152.27 -0.54 C149.89 7.85, 149.86 14.84, 149.75 33.02 M151.95 0.06 C151.74 7.74, 150.73 16.44, 150.87 33.99 M152.8 33.84 C113.32 32.63, 74.92 35.39, -0.88 35.14 M151.32 33.7 C93 33.09, 34.08 34.25, 0.54 34.98 M-1.08 34.8 C1.86 23.47, -1.15 13.59, -0.31 -1.18 M0.58 34.18 C0.65 21.92, 0.59 8.79, 0.67 -0.78" stroke="#e67700" stroke-width="1" fill="none"></path></g><g transform="translate(289.37762451171875 423.74647521972656) rotate(0 21 10.5)"><text x="21" y="0" font-family="Segoe UI Emoji" font-size="20.059870363191795px" fill="#e67700" text-anchor="middle" style="white-space: pre;" direction="ltr" dominant-baseline="text-before-edge">小学</text></g><g stroke-linecap="round" transform="translate(338.2208709716797 452.1645965576172) rotate(0 11.296905517578125 36.8800048828125)"><path d="M-1.75 -0.89 C7.36 1.64, 13.54 -0.6, 24.16 0.43 M0.08 0.43 C6.29 0.34, 13.26 0.49, 21.96 -0.01 M21.48 -0.2 C21.92 18.54, 21.81 38.62, 21.37 72.43 M23.56 -0.37 C23.25 25.77, 23.17 51.11, 22.11 73.6 M22.89 72.48 C15.8 75.22, 8.42 74.89, 1.72 75.39 M22.87 73.27 C16.07 74.35, 10.82 74.68, -0.2 73.96 M1.93 72.74 C-0.69 48.13, 0.08 24.11, 1.43 1.31 M0.87 74.31 C0.38 52.19, 0.24 29.74, -0.8 -0.31" stroke="#2b8a3e" stroke-width="1" fill="none"></path></g><g stroke-linecap="round" transform="translate(362.62709045410156 451.68727111816406) rotate(0 11.296905517578125 36.8800048828125)"><path d="M-0.89 1.31 C10.21 1.63, 16.59 1.76, 23.02 0 M0.43 -0.48 C6.6 -0.31, 12.82 -0.65, 22.58 -0.32 M22.39 -1.14 C21.13 25.57, 21.41 52.42, 21.27 74.69 M22.22 -0.05 C22.85 29.02, 22.63 57.81, 22.43 73.7 M21.31 73.62 C15.26 72.91, 6.11 75.51, 1.63 73.21 M22.1 73.39 C15.74 74.36, 8.56 73.62, 0.2 74.05 M-1.02 72.68 C-1.69 55.28, -1.47 38.86, 1.31 -0.14 M0.55 74.57 C-0.09 48.03, -0.91 20.17, -0.31 -0.97" stroke="#2b8a3e" stroke-width="1" fill="none"></path></g><g transform="translate(109.259521484375 364.37371826171875) rotate(0 131 14)"><text x="0" y="0" font-family="Virgil, Segoe UI Emoji" font-size="20px" fill="#1864ab" text-anchor="start" style="white-space: pre;" direction="ltr" dominant-baseline="text-before-edge">你就再买一个书架放小学的书</text></g><g stroke-linecap="round"><g transform="translate(423.20977783203125 365.197265625) rotate(0 49.5484619140625 0.6995086669921875)"><path d="M-0.61 1.05 C15.86 1.39, 82.35 2.16, 98.97 2.07 M1.27 0.55 C17.56 0.55, 81.77 0.17, 97.96 0.3" stroke="#c92a2a" stroke-width="1" fill="none"></path></g><g transform="translate(423.20977783203125 365.197265625) rotate(0 49.5484619140625 0.6995086669921875)"><path d="M99.78 -0.54 L85.66 6.2 L83.8 -4.39 L96.56 -1.57" stroke="none" stroke-width="0" fill="#c92a2a" fill-rule="evenodd"></path><path d="M99.27 0.14 C94.58 2.24, 88.39 4.8, 84.79 8.13 M98.46 0.51 C94.92 1.33, 90.59 4.17, 84.19 6.2 M84.6 6.69 C85.57 1.31, 85.2 -2.17, 84.48 -5.78 M84.4 7.11 C83.66 2.5, 84.37 -1.93, 84.4 -5.73 M84.44 -7.28 C86.25 -3.27, 91.59 -4.59, 99.08 -0.53 M84.6 -6.56 C87.33 -3.72, 91.81 -3.06, 97.82 0.43 M97.96 0.3 C97.96 0.3, 97.96 0.3, 97.96 0.3 M97.96 0.3 C97.96 0.3, 97.96 0.3, 97.96 0.3" stroke="#c92a2a" stroke-width="1" fill="none"></path></g></g><mask></mask><g stroke-linecap="round"><g transform="translate(425.72442626953125 390.667724609375) rotate(0 49.061859130859375 0)"><path d="M1.1 0.56 C17.42 0.64, 82.21 0.95, 98.2 0.89 M0.21 -0.19 C16.37 -0.48, 80.77 -1.06, 97.29 -0.76" stroke="#c92a2a" stroke-width="1" fill="none"></path></g><g transform="translate(425.72442626953125 390.667724609375) rotate(0 49.061859130859375 0)"><path d="M97.41 -0.29 L82.31 5.88 L85.61 -5.79 L99.01 1" stroke="none" stroke-width="0" fill="#c92a2a" fill-rule="evenodd"></path><path d="M97.99 -0.67 C94.07 -0.01, 88.83 3.69, 83.44 5.63 M97.22 -0.72 C91.87 0.83, 88.4 4.16, 82.96 6.1 M83.02 5.93 C82.85 1.43, 84.69 -0.22, 82.93 -7.38 M83.05 5.32 C84.09 1.61, 83.62 -2.94, 83.76 -6.71 M82.69 -6.57 C85.93 -6.13, 90.18 -3.96, 96.76 -0.24 M84.19 -7.3 C88.75 -4.02, 93.64 -2.89, 96.66 -1.32 M97.29 -0.76 C97.29 -0.76, 97.29 -0.76, 97.29 -0.76 M97.29 -0.76 C97.29 -0.76, 97.29 -0.76, 97.29 -0.76" stroke="#c92a2a" stroke-width="1" fill="none"></path></g></g><mask></mask><g transform="translate(558.0128784179688 348.0981750488281) rotate(0 176 28.5)"><text x="0" y="0" font-family="Virgil, Segoe UI Emoji" font-size="20px" fill="#c92a2a" text-anchor="start" style="white-space: pre;" direction="ltr" dominant-baseline="text-before-edge">时间继续, 书架都满了, </text><text x="0" y="28.5" font-family="Virgil, Segoe UI Emoji" font-size="20px" fill="#c92a2a" text-anchor="start" style="white-space: pre;" direction="ltr" dominant-baseline="text-before-edge">你给小学 初中 高中 都买了好几个书架</text></g><g stroke-linecap="round"><g transform="translate(605.9613647460938 440.0415954589844) rotate(0 2.035127692882625 55.23576354980469)"><path d="M-0.51 1.12 C-0.03 19.5, 2.65 91.43, 3.53 109.46 M1.42 0.67 C1.64 19.23, 1.81 92.24, 2.3 110.47" stroke="#1864ab" stroke-width="1" fill="none"></path></g><g transform="translate(605.9613647460938 440.0415954589844) rotate(0 2.035127692882625 55.23576354980469)"><path d="M0.37 111.5 L-2.9 97.66 L7.93 96.11 L3.95 109.77" stroke="none" stroke-width="0" fill="#1864ab" fill-rule="evenodd"></path><path d="M3.71 109.8 C-1.18 106.52, -3.63 100.96, -5.18 97.44 M2.47 110.78 C1.2 107.06, -1.44 102.43, -4.83 96.86 M-3.38 97.3 C-0.46 96.28, 2.48 95.94, 9.15 97.76 M-4.56 97.16 C-0.08 97.36, 4.77 96.27, 8.72 96.8 M7.14 96.98 C5.7 101.15, 4.94 107.93, 3.37 111.5 M8.46 97.46 C5.99 101.89, 3.21 106.97, 1.82 110.69 M2.3 110.47 C2.3 110.47, 2.3 110.47, 2.3 110.47 M2.3 110.47 C2.3 110.47, 2.3 110.47, 2.3 110.47" stroke="#1864ab" stroke-width="1" fill="none"></path></g></g><mask></mask><g transform="translate(628.0285034179688 464.04827880859375) rotate(0 180 28.5)"><text x="0" y="0" font-family="Virgil, Segoe UI Emoji" font-size="20px" fill="#1864ab" text-anchor="start" style="white-space: pre;" direction="ltr" dominant-baseline="text-before-edge">一小学生来找小学的书, 愣是找了10分钟,</text><text x="0" y="28.5" font-family="Virgil, Segoe UI Emoji" font-size="20px" fill="#1864ab" text-anchor="start" style="white-space: pre;" direction="ltr" dominant-baseline="text-before-edge">还没找到,当然也找完</text></g><g stroke-linecap="round" transform="translate(521.3775024414062 552.7633056640625) rotate(0 205.7547912597656 25.089080810546875)"><path d="M12.54 0 M12.54 0 C126.5 1.79, 241.08 2.4, 398.97 0 M12.54 0 C124.46 1.81, 236.37 1.85, 398.97 0 M398.97 0 C406.44 0.22, 409.65 2.18, 411.51 12.54 M398.97 0 C409.37 -0.3, 413.57 2.01, 411.51 12.54 M411.51 12.54 C409.46 16.43, 411.53 23.9, 411.51 37.63 M411.51 12.54 C411.66 21.8, 411.39 31.88, 411.51 37.63 M411.51 37.63 C410.64 46.23, 408.7 51.08, 398.97 50.18 M411.51 37.63 C410.76 45.78, 408.62 50.9, 398.97 50.18 M398.97 50.18 C252.98 50.67, 106.54 50.67, 12.54 50.18 M398.97 50.18 C245.99 51.49, 93.74 50.69, 12.54 50.18 M12.54 50.18 C3.89 48.42, -0.05 44.57, 0 37.63 M12.54 50.18 C5.31 50.09, 1.48 46.97, 0 37.63 M0 37.63 C-1.53 28.27, -0.17 20.31, 0 12.54 M0 37.63 C-0.71 29.96, 1.02 23.89, 0 12.54 M0 12.54 C0.37 6.02, 3.7 1.28, 12.54 0 M0 12.54 C2.1 3.76, 2.27 -2.02, 12.54 0" stroke="#1864ab" stroke-width="1" fill="none"></path></g><g transform="translate(573.5397338867188 564.2068481445312) rotate(0 175 14)"><text x="0" y="0" font-family="Virgil, Segoe UI Emoji" font-size="20px" fill="#1864ab" text-anchor="start" style="white-space: pre;" direction="ltr" dominant-baseline="text-before-edge">怒喷管理员,"你他妈的就不会分类多点?"</text></g><g stroke-linecap="round"><g transform="translate(607.5863647460938 618.259033203125) rotate(0 0.6396484375 34.54132080078125)"><path d="M0.32 -0.5 C0.78 10.89, 1.42 57.07, 1.68 68.64 M-0.98 -1.81 C-0.55 9.72, 0.54 57.95, 0.95 69.95" stroke="#c92a2a" stroke-width="1" fill="none"></path></g><g transform="translate(607.5863647460938 618.259033203125) rotate(0 0.6396484375 34.54132080078125)"><path d="M-0.01 70.85 L-4.85 55.03 L8.77 55.21 L2.17 71.66" stroke="none" stroke-width="0" fill="#c92a2a" fill-rule="evenodd"></path><path d="M0.32 70.45 C-1.05 67.91, -2.09 64.77, -5.11 55.21 M1.13 70.63 C-0.05 67.39, -2.17 63.2, -5.21 56.33 M-5.84 56.08 C-2.38 56.32, 2.37 57.42, 7.94 55.89 M-6.03 57.02 C-1.86 57.17, 1.82 56.24, 7.01 56.06 M7.41 56.29 C4.01 60.64, 4.81 61.97, 2.36 69.83 M6.87 56.59 C4.46 59.41, 3.08 64.35, 1 70.51 M0.95 69.95 C0.95 69.95, 0.95 69.95, 0.95 69.95 M0.95 69.95 C0.95 69.95, 0.95 69.95, 0.95 69.95" stroke="#c92a2a" stroke-width="1" fill="none"></path></g></g><mask></mask><g transform="translate(571.5397338867188 695.2068481445312) rotate(0 41 14)"><text x="0" y="0" font-family="Virgil, Segoe UI Emoji" font-size="20px" fill="#c92a2a" text-anchor="start" style="white-space: pre;" direction="ltr" dominant-baseline="text-before-edge">你丢人啊</text></g><g stroke-linecap="round"><g transform="translate(610.7586059570312 731.6229248046875) rotate(0 1.37188720703125 24.192291259765625)"><path d="M0.97 0.02 C1.39 8.06, 2.56 39.44, 2.86 47.35 M0.02 -1.01 C0.26 7.21, 1.63 40.12, 1.97 48.35" stroke="#c92a2a" stroke-width="1" fill="none"></path></g><g transform="translate(610.7586059570312 731.6229248046875) rotate(0 1.37188720703125 24.192291259765625)"><path d="M1.61 48.43 L-4.6 36.26 L5.8 35.12 L3.01 48.6" stroke="none" stroke-width="0" fill="#c92a2a" fill-rule="evenodd"></path><path d="M1.99 48.49 C-1.49 44.06, -3.56 40.58, -3.65 34.44 M1.61 48.68 C0.52 44.31, -0.92 41.04, -4.47 35.66 M-4.75 33.82 C-0.16 33.91, 2.97 35.06, 6.85 34.17 M-4.73 34.44 C-0.92 34.59, 2.16 35.06, 7.97 34.17 M6.95 33.63 C5.47 38.29, 3.2 44.04, 0.48 49.15 M7.58 35 C6.42 38.87, 4.55 41.27, 2.55 48.88 M1.97 48.35 C1.97 48.35, 1.97 48.35, 1.97 48.35 M1.97 48.35 C1.97 48.35, 1.97 48.35, 1.97 48.35" stroke="#c92a2a" stroke-width="1" fill="none"></path></g></g><mask></mask><g stroke-linecap="round" transform="translate(209.732421875 820.0072326660156) rotate(0 11.296905517578125 36.8800048828125)"><path d="M0.33 -0.94 C4.41 0.57, 10.08 1.09, 22.15 -1.06 M0.37 -0.31 C6.27 1.17, 13.22 0.02, 23.01 -0.2 M21.48 -1.68 C24.36 17.54, 25.01 40.46, 20.72 74.81 M22.68 0.62 C22.86 28.45, 23.14 55.88, 22.41 74 M21.39 73.78 C14.12 72.03, 7.7 73.39, -1.38 74.7 M22.3 74.45 C14.32 74.56, 5.41 74.81, -0.22 73.95 M-1.86 74.85 C2.24 52.76, 1.71 31.08, 0.49 0.68 M-0.88 73.89 C-0.61 45, 1.01 15, 0.11 0.21" stroke="#2b8a3e" stroke-width="1" fill="none"></path></g><g stroke-linecap="round" transform="translate(234.13864135742188 819.5299072265625) rotate(0 11.296905517578125 36.8800048828125)"><path d="M-0.94 -0.76 C9.04 -0.31, 17.92 -0.48, 21.53 -0.49 M-0.31 0.05 C5.81 0.69, 9.5 0.33, 22.4 -0.35 M20.91 1.33 C20.28 28.42, 23.69 50.99, 23.65 75.43 M23.22 -0.4 C22.05 28.73, 21.19 57.52, 22.83 74.07 M22.62 72.76 C16.16 73.68, 12.8 72.24, 0.94 75.38 M23.29 74.09 C14.57 73.72, 6.14 73.48, 0.19 73.54 M1.09 75.26 C-1.22 59.96, -2.43 44.69, 0.68 1.85 M0.13 72.82 C0.3 55.57, -0.75 36.11, 0.21 -0.16" stroke="#2b8a3e" stroke-width="1" fill="none"></path></g><g stroke-linecap="round" transform="translate(258.9528045654297 820.6718292236328) rotate(0 11.296905517578125 36.8800048828125)"><path d="M-0.76 0.68 C7.54 1.3, 15.18 -0.96, 22.1 -1.72 M0.05 0.97 C5.62 -0.1, 10.1 -0.13, 22.24 0.58 M23.93 -1.99 C24.17 20.26, 20.31 38.73, 24.26 75.58 M22.19 0.16 C22.53 14.38, 22.47 30.38, 22.9 72.85 M21.6 72.06 C16.24 73.43, 8.39 74.7, 1.62 75.45 M22.92 74.43 C14.53 74.83, 6.2 74.11, -0.22 72.76 M1.5 73.24 C1.67 42.96, 1.17 16.3, 1.85 -0.88 M-0.94 73.95 C1.33 51.94, 0.75 32.08, -0.16 0.25" stroke="#2b8a3e" stroke-width="1" fill="none"></path></g><g stroke-linecap="round" transform="translate(283.30836486816406 819.5966949462891) rotate(0 11.296905517578125 36.8800048828125)"><path d="M0.68 -0.27 C8.34 -0.36, 13.24 -0.41, 20.87 -1.71 M0.97 0.77 C7.44 0.4, 15.02 -0.36, 23.18 -0.45 M20.61 1.99 C23.4 16.14, 23.03 37.71, 24.42 71.85 M22.75 -0.12 C22.36 22.58, 23.29 45.84, 21.69 73.6 M20.9 73.82 C16.85 72.26, 12.7 75.26, 1.69 74.92 M23.26 73.79 C17.39 73.62, 10.54 73.61, -1 74.7 M-0.52 74.74 C-2.14 58.98, 0.28 45.07, -0.88 -0.32 M0.19 74.44 C-0.96 58.21, 0.12 42.3, 0.25 0.36" stroke="#2b8a3e" stroke-width="1" fill="none"></path></g><g stroke-linecap="round" transform="translate(202.64630126953125 784.9017181396484) rotate(0 78 15.5)"><path d="M-0.27 1.19 C39.05 -1.59, 78.5 -2.25, 154.29 0.74 M0.77 -0.17 C42.44 -1.72, 83.69 -0.94, 155.55 -0.56 M157.99 1.42 C154.33 7.75, 157.88 15.22, 154.09 31.17 M155.88 -0.7 C155.69 11.47, 156.18 21.57, 155.84 30.4 M156.06 30.67 C107.62 30.61, 63.63 31.37, 1.16 30.42 M156.03 31.92 C98.2 32.23, 40.61 31.04, 0.94 30.07 M0.98 29.26 C0.25 20.69, 1.62 8.14, -0.32 -1.76 M0.68 30.13 C0.4 21.52, 0.13 11.87, 0.36 -0.89" stroke="#e67700" stroke-width="1" fill="none"></path></g><g transform="translate(209.64630126953125 789.9017181396484) rotate(0 71 10.5)"><text x="71" y="0" font-family="Segoe UI Emoji" font-size="20.059870363191795px" fill="#e67700" text-anchor="middle" style="white-space: pre;" direction="ltr" dominant-baseline="text-before-edge">小学一年级语文</text></g><g stroke-linecap="round" transform="translate(307.3794403076172 817.7500152587891) rotate(0 11.296905517578125 36.8800048828125)"><path d="M-0.44 -1.06 C7.05 -1.85, 13.38 0.6, 21.98 0.09 M0.41 -0.2 C8.63 0.62, 17.51 -0.52, 21.75 0.67 M20.72 1.05 C25 16.63, 21.41 29.78, 23.84 72.95 M22.41 0.24 C22.81 22.39, 22.34 45.99, 22.61 73.26 M21.21 74.7 C19.35 75.41, 14.03 73.14, 1.38 74.41 M22.38 73.95 C14.09 72.97, 6.97 73.04, 0.54 74.51 M0.49 74.44 C1.49 52.67, -0.68 31.59, 0.25 -1.87 M0.11 73.97 C-0.66 50.51, -0.15 25.86, -0.37 -0.91" stroke="#2b8a3e" stroke-width="1" fill="none"></path></g><g stroke-linecap="round" transform="translate(331.78565979003906 817.2726898193359) rotate(0 11.296905517578125 36.8800048828125)"><path d="M-1.06 -0.49 C4.76 -1.66, 13.68 -0.56, 22.69 1.95 M-0.2 -0.35 C9.11 -0.54, 16.5 -0.93, 23.26 -0.99 M23.65 1.67 C24.94 27.55, 23.29 60.17, 21.79 74.08 M22.83 0.31 C21.18 21.05, 21.48 42.45, 22.1 72.91 M23.53 75.38 C17.44 74.76, 8.33 74.99, 0.65 75.09 M22.79 73.54 C14.76 74.65, 7.99 74.26, 0.75 73.5 M0.68 75.61 C-0.24 47.7, -1.12 22.53, -1.87 0.37 M0.21 73.6 C0.89 46.95, -0.25 19.05, -0.91 0.72" stroke="#2b8a3e" stroke-width="1" fill="none"></path></g><g stroke-linecap="round" transform="translate(370.918212890625 820.9438171386719) rotate(0 11.296905517578125 36.8800048828125)"><path d="M-0.49 -1.72 C6.41 0.86, 15.63 0.21, 24.54 1.55 M-0.35 0.58 C5.94 -0.51, 11.94 0.71, 21.6 0.99 M24.26 1.82 C19.99 27.54, 23.15 53.94, 22.91 73.51 M22.9 -0.91 C22.29 16.39, 22.47 33.49, 21.75 73.79 M24.21 75.45 C17.35 73.29, 11.16 74.52, 1.33 73.81 M22.37 72.76 C14.68 72.87, 5.44 74.56, -0.26 74.25 M1.85 72.88 C-0.5 56.28, 0.07 40.44, 0.37 1.37 M-0.16 74.01 C0.28 57.16, -0.45 41.43, 0.72 0.38" stroke="#2b8a3e" stroke-width="1" fill="none"></path></g><g stroke-linecap="round" transform="translate(395.3244323730469 820.4664916992188) rotate(0 11.296905517578125 36.8800048828125)"><path d="M-1.72 -1.71 C7.01 -0.56, 12.65 2, 24.14 -0.34 M0.58 -0.45 C7.15 -0.76, 16.08 -0.91, 23.59 0.71 M24.42 -1.91 C23.15 16.46, 22.17 30.74, 22.35 72.37 M21.69 -0.16 C22.17 20.77, 22.27 40.67, 22.62 73.6 M24.28 74.92 C16.8 75.33, 12.82 75.27, 0.05 75.59 M21.6 74.7 C15.37 74.25, 10.77 73.45, 0.49 72.89 M-0.88 73.44 C-2.01 50.09, -2.12 26.29, 1.37 -1.74 M0.25 74.12 C-1.04 50.49, -1.06 28.67, 0.38 -0.69" stroke="#2b8a3e" stroke-width="1" fill="none"></path></g><g stroke-linecap="round" transform="translate(420.1385955810547 821.6084136962891) rotate(0 11.296905517578125 36.8800048828125)"><path d="M-1.71 0.74 C4.97 0.29, 13.1 1.74, 22.25 0.82 M-0.45 -0.56 C5.49 0.53, 11.67 0.86, 23.3 -0.94 M20.68 0.17 C24.46 25.21, 23.53 51.78, 21.2 73.39 M22.43 -0.6 C22.83 23.39, 21.97 47.8, 22.43 73.07 M23.75 73.18 C16.14 74.6, 8.25 74, 1.83 73.33 M23.53 72.83 C15.93 74.29, 7.91 74.02, -0.87 74 M-0.32 72 C-0.43 47.25, -0.31 25.85, -1.74 0.21 M0.36 72.87 C-0.25 49.19, 0.83 26.82, -0.69 0.52" stroke="#2b8a3e" stroke-width="1" fill="none"></path></g><g stroke-linecap="round" transform="translate(444.49415588378906 820.5332794189453) rotate(0 11.296905517578125 36.8800048828125)"><path d="M0.74 -0.61 C6.32 2.14, 13.99 -0.15, 23.42 -0.4 M-0.56 -0.84 C6.65 -0.89, 12.95 0.81, 21.66 0.53 M22.77 1.25 C22.46 28.6, 23.02 55.18, 22.22 74.24 M21.99 0.01 C21.43 23.56, 21.95 48.65, 21.9 74.23 M22.02 75.14 C14.64 75.22, 5.44 75.72, -0.43 74.14 M21.66 74.3 C17.07 73.71, 10.54 73.1, 0.24 74.1 M-1.76 74.01 C-1.55 45.19, 1.69 14.13, 0.21 0.42 M-0.89 73.39 C-1.1 53.52, 0.2 31.14, 0.52 -0.7" stroke="#2b8a3e" stroke-width="1" fill="none"></path></g><g stroke-linecap="round" transform="translate(365.22198486328125 783.7684783935547) rotate(0 77 17)"><path d="M-0.61 0.09 C34.91 0.98, 65.58 0.26, 153.6 -0.71 M-0.84 0.67 C54.2 1.85, 111.09 -0.08, 154.53 0.84 M155.25 -0.81 C153.99 13.05, 152.28 26.23, 154.48 34.62 M154.01 -0.5 C153.1 7.15, 153.78 13.55, 154.47 34.81 M155.38 34.65 C96.12 33.61, 37.42 33.12, 0.38 33.55 M154.54 34.75 C122.88 33.06, 91.42 32.81, 0.34 34.92 M0.25 32.13 C0.43 26.67, -1.69 16.81, 0.42 -0.32 M-0.37 33.09 C0.6 23.33, -0.81 12.4, -0.7 -0.2" stroke="#e67700" stroke-width="1" fill="none"></path></g><g transform="translate(371.22198486328125 790.2684783935547) rotate(0 71 10.5)"><text x="71" y="0" font-family="Segoe UI Emoji" font-size="20.059870363191795px" fill="#e67700" text-anchor="middle" style="white-space: pre;" direction="ltr" dominant-baseline="text-before-edge">小学一年级数学</text></g><g stroke-linecap="round" transform="translate(468.5652313232422 818.6865997314453) rotate(0 11.296905517578125 36.8800048828125)"><path d="M1.95 1.55 C7.27 0.81, 14.82 -0.72, 23.76 -0.89 M-0.99 0.99 C6.23 -1.09, 11.57 0.68, 23.51 -0.96 M22.91 -0.25 C21.66 22.39, 23.53 46.14, 20.78 73.43 M21.75 0.03 C22.44 16.99, 23.07 36.17, 23.44 74.34 M23.92 73.81 C18.3 73.4, 10.73 73.39, -1.99 75.64 M22.33 74.25 C17.05 74.17, 13.58 74.85, -0.44 73.6 M0.37 75.13 C-1.83 58.32, 0.32 42.14, 0.51 0.72 M0.72 74.14 C-0.42 58.7, -0.43 42.4, 0.35 0.71" stroke="#2b8a3e" stroke-width="1" fill="none"></path></g><g stroke-linecap="round" transform="translate(492.97145080566406 818.2092742919922) rotate(0 11.296905517578125 36.8800048828125)"><path d="M1.55 -0.34 C6.91 -0.62, 11.47 0.95, 21.7 -1.11 M0.99 0.71 C3.94 0.75, 10.6 1.14, 21.64 0.09 M22.35 -1.39 C21.92 27.21, 22.91 51.66, 22.27 72.55 M22.62 -0.16 C21.53 22.69, 23.03 45.28, 23.17 73.47 M22.64 75.59 C13.82 74.29, 5.47 71.92, 1.88 71.9 M23.08 72.89 C14.83 74.04, 7.5 73.26, -0.16 72.88 M1.37 72.02 C0.9 51.12, 0.37 28.15, 0.72 -1.78 M0.38 73.07 C1.19 53.64, 0.47 35.27, 0.71 -0.57" stroke="#2b8a3e" stroke-width="1" fill="none"></path></g><g stroke-linecap="round" transform="translate(700.4085693359375 826.3358154296875) rotate(0 11.296905517578125 36.8800048828125)"><path d="M1.43 -1.05 C7.71 -1.78, 12.71 -0.54, 21.24 0.97 M0.75 -0.19 C5.25 0.17, 10.64 0.35, 23.3 -0.95 M21.5 -1.67 C22.83 29.38, 22.86 54.73, 22.03 74.93 M23.04 1 C22.4 20.72, 22.11 40.81, 22.09 74.18 M21.01 73.82 C15.51 75.14, 9.17 75.49, -1.37 75.07 M23.3 73.17 C17.7 73.93, 10.39 74.54, 0.62 73.3 M-1.43 72.37 C2 49.35, 2.48 21.06, -0.58 -0.27 M0.55 73.85 C-1.09 48.85, 0.66 22.62, 0.71 0.12" stroke="#2b8a3e" stroke-width="1" fill="none"></path></g><g stroke-linecap="round" transform="translate(724.8147888183594 825.8584899902344) rotate(0 11.296905517578125 36.8800048828125)"><path d="M-1.05 0.4 C2.93 -2.07, 9.06 -1.52, 23.56 -1.4 M-0.19 0.06 C5.55 0.09, 11.33 0.54, 21.65 0.73 M20.93 0.96 C23.75 15.89, 21.6 29.23, 23.77 73.26 M23.59 -0.46 C22.4 24.06, 22.22 49.12, 23.02 73.77 M22.66 73.47 C17.91 73.74, 12.12 72.21, 1.31 72.9 M22 74.67 C14.68 73.32, 7.42 74.53, -0.46 74.33 M-1.39 75.16 C1.7 59.5, -0.25 40.9, -0.27 0.96 M0.09 72.87 C0.72 50.46, 0.16 26.14, 0.12 0.91" stroke="#2b8a3e" stroke-width="1" fill="none"></path></g><g stroke-linecap="round" transform="translate(749.6289520263672 827.0004119873047) rotate(0 11.296905517578125 36.8800048828125)"><path d="M0.4 -1.96 C3.04 -0.61, 8.55 1.09, 21.19 -1.04 M0.06 -0.05 C4.79 0.17, 9.78 -0.9, 23.32 -0.98 M23.56 1.87 C23.18 14.72, 21.63 31.2, 22.09 74.49 M22.13 0.43 C22.16 16.13, 22.42 32.19, 22.6 73.48 M22.3 75.22 C16.73 75.57, 9.17 75.08, -0.86 74.72 M23.5 73.71 C13 74.18, 5.21 73.17, 0.57 72.95 M1.4 75.69 C2.41 49.37, -0.05 24.74, 0.96 0.55 M-0.89 74.52 C0.46 51.49, 0.3 28.96, 0.91 -0.59" stroke="#2b8a3e" stroke-width="1" fill="none"></path></g><g stroke-linecap="round" transform="translate(773.9845123291016 825.9252777099609) rotate(0 11.296905517578125 36.8800048828125)"><path d="M-1.96 -1.91 C7.67 -1.4, 17.75 -1.45, 21.56 -1.99 M-0.05 0.26 C8.6 0.69, 16 0.72, 21.61 -0.96 M24.47 0.99 C21.69 17.53, 23.15 35.69, 23.32 72.07 M23.03 -0.76 C23.58 24.9, 23.75 50.8, 22.31 73.43 M24.05 73.92 C19.42 72.36, 13.94 72.86, 0.96 75.72 M22.55 73.16 C14.79 74.58, 5.41 74.54, -0.81 74.06 M1.93 75.64 C0.49 56.32, 0.24 40.99, 0.55 0.09 M0.76 74.63 C0.12 48.25, 0.05 22.23, -0.59 0.58" stroke="#2b8a3e" stroke-width="1" fill="none"></path></g><g stroke-linecap="round" transform="translate(694.7123413085938 789.1604766845703) rotate(0 77 17)"><path d="M-1.91 -0.73 C36.79 2.48, 74.9 0.47, 152.01 1.5 M0.26 0.12 C43.94 -0.87, 87.2 -0.9, 153.04 -0.55 M154.99 -0.29 C153.6 8.54, 153.66 15.47, 152.31 34.89 M153.24 0.25 C153.34 14.02, 153.85 26.91, 153.67 33.21 M154.16 35.81 C105.94 36.43, 59.74 36.08, 1.96 35.4 M153.4 34.55 C117.55 33.47, 80.45 33.11, 0.3 33.29 M1.88 33.98 C-0.82 25.88, 0.72 18.86, 0.09 1.11 M0.87 34.19 C1.01 23.6, 1.22 12.38, 0.58 -0.38" stroke="#e67700" stroke-width="1" fill="none"></path></g><g transform="translate(730.7123413085938 795.6604766845703) rotate(0 41 10.5)"><text x="41" y="0" font-family="Segoe UI Emoji" font-size="20.059870363191795px" fill="#e67700" text-anchor="middle" style="white-space: pre;" direction="ltr" dominant-baseline="text-before-edge">大一英语</text></g><g stroke-linecap="round" transform="translate(798.0555877685547 824.0785980224609) rotate(0 11.296905517578125 36.8800048828125)"><path d="M-1.36 0.97 C3.15 -0.96, 7.13 1.58, 22.21 0.12 M0.71 -0.95 C7.39 -1.01, 12.35 -0.57, 21.76 0.48 M22.03 1.17 C22.46 29.76, 21.27 58.96, 24.59 72.83 M22.09 0.42 C22.04 25.05, 21.7 49.87, 22.63 73.61 M21.23 75.07 C13.3 74.92, 7.71 75.37, -1.19 75.58 M23.21 73.3 C16.5 73.07, 9.56 73.17, -0.69 74.46 M-0.58 73.49 C0.26 45.07, -0.6 16.39, 0.19 -1.78 M0.71 73.88 C0.27 45.45, -0.06 17.94, -0.91 0.58" stroke="#2b8a3e" stroke-width="1" fill="none"></path></g><g stroke-linecap="round" transform="translate(822.4618072509766 823.6012725830078) rotate(0 11.296905517578125 36.8800048828125)"><path d="M0.97 -1.4 C3.58 -1.83, 10.74 -0.23, 22.72 -0.11 M-0.95 0.73 C6.38 -1.12, 14.18 -0.99, 23.08 0.94 M23.77 -0.5 C23.22 24.1, 23.37 53.58, 21.66 74.63 M23.02 0.01 C22.49 16.22, 21.98 33.13, 22.45 74.49 M23.9 72.9 C16.59 75.57, 10.08 72.42, 1.82 73.66 M22.14 74.33 C16.36 74.2, 11.03 73.21, 0.7 74.72 M-0.27 74.72 C0.56 44.78, 1.12 15.8, -1.78 1.52 M0.12 74.67 C-0.74 45.82, -0.52 15.8, 0.58 -0.49" stroke="#2b8a3e" stroke-width="1" fill="none"></path></g><g transform="translate(562.7171630859375 794.58349609375) rotate(0 47.5 12.5)"><text x="0" y="0" font-family="Virgil, Segoe UI Emoji" font-size="20px" fill="#c92a2a" text-anchor="start" style="white-space: pre;" direction="ltr" dominant-baseline="text-before-edge">. . . . . . </text></g><g transform="translate(540.7697337863808 935.8389374683818) rotate(0 80 14)"><text x="0" y="0" font-family="Virgil, Segoe UI Emoji" font-size="20px" fill="#c92a2a" text-anchor="start" style="white-space: pre;" direction="ltr" dominant-baseline="text-before-edge">这下应该快了吧!!!</text></g></svg>