<svg version="1.1" xmlns="http://www.w3.org/2000/svg" viewBox="0 0 1046.0044555664062 754.6982727050781" width="1046.0044555664062" height="754.6982727050781">
  <!-- svg-source:excalidraw -->
  
  <defs>
    <style class="style-fonts">
      @font-face {
        font-family: "Virgil";
        src: url("https://unpkg.com/@excalidraw/excalidraw@0.15.2/dist/excalidraw-assets/Virgil.woff2");
      }
      @font-face {
        font-family: "Cascadia";
        src: url("https://unpkg.com/@excalidraw/excalidraw@0.15.2/dist/excalidraw-assets/Cascadia.woff2");
      }
    </style>
  </defs>
  <rect x="0" y="0" width="1046.0044555664062" height="754.6982727050781" fill="#ffffff"></rect><g stroke-linecap="round" transform="translate(10.0535888671875 102.62689208984375) rotate(0 63.168731689453125 17.2393798828125)"><path d="M0 0 C27.93 0, 55.86 0, 126.34 0 M0 0 C29.34 0, 58.69 0, 126.34 0 M126.34 0 C126.34 7.81, 126.34 15.61, 126.34 34.48 M126.34 0 C126.34 12.2, 126.34 24.4, 126.34 34.48 M126.34 34.48 C81.51 34.48, 36.67 34.48, 0 34.48 M126.34 34.48 C81.03 34.48, 35.72 34.48, 0 34.48 M0 34.48 C0 22.72, 0 10.96, 0 0 M0 34.48 C0 26.69, 0 18.9, 0 0" stroke="#000000" stroke-width="1" fill="none"></path></g><g transform="translate(48.1141357421875 110.02877807617188) rotate(0 25.5 11.5)"><text x="0" y="0" font-family="Helvetica, Segoe UI Emoji" font-size="20px" fill="#000000" text-anchor="start" style="white-space: pre;" direction="ltr" dominant-baseline="text-before-edge">count</text></g><g stroke-linecap="round" transform="translate(10 137.23138427734375) rotate(0 63.5 17.5)"><path d="M0 0 C41.67 0, 83.35 0, 127 0 M0 0 C33.19 0, 66.37 0, 127 0 M127 0 C127 10.55, 127 21.11, 127 35 M127 0 C127 7.51, 127 15.03, 127 35 M127 35 C95.7 35, 64.39 35, 0 35 M127 35 C76.21 35, 25.43 35, 0 35 M0 35 C0 23.18, 0 11.36, 0 0 M0 35 C0 25.97, 0 16.94, 0 0" stroke="#000000" stroke-width="1" fill="none"></path></g><g transform="translate(51.5 143.23138427734375) rotate(0 22 11.5)"><text x="22" y="0" font-family="Helvetica, Segoe UI Emoji" font-size="20px" fill="#000000" text-anchor="middle" style="white-space: pre;" direction="ltr" dominant-baseline="text-before-edge">flags</text></g><g stroke-linecap="round" transform="translate(10.3028564453125 172.49575805664062) rotate(0 63.5 17.5)"><path d="M0 0 C0 0, 0 0, 0 0 M0 0 C0 0, 0 0, 0 0 M-0.26 6.4 C1.16 4.76, 2.59 3.12, 4.99 0.36 M-0.26 6.4 C1.09 4.84, 2.45 3.28, 4.99 0.36 M0.13 12.04 C2.96 8.79, 5.78 5.54, 10.63 -0.03 M0.13 12.04 C3.03 8.71, 5.92 5.39, 10.63 -0.03 M-0.13 18.44 C6.06 11.31, 12.26 4.19, 15.62 0.33 M-0.13 18.44 C4.21 13.45, 8.55 8.46, 15.62 0.33 M0.27 24.08 C6.24 17.21, 12.21 10.34, 21.26 -0.07 M0.27 24.08 C5.2 18.41, 10.13 12.74, 21.26 -0.07 M0 30.48 C7.71 21.61, 15.42 12.75, 26.25 0.29 M0 30.48 C7.98 21.31, 15.95 12.13, 26.25 0.29 M1.06 35.37 C12.29 22.45, 23.52 9.53, 31.89 -0.1 M1.06 35.37 C7.99 27.39, 14.93 19.41, 31.89 -0.1 M6.04 35.73 C15.71 24.61, 25.37 13.49, 36.88 0.26 M6.04 35.73 C16.87 23.27, 27.71 10.81, 36.88 0.26 M11.69 35.33 C21.34 24.22, 31 13.12, 42.52 -0.14 M11.69 35.33 C19.87 25.92, 28.05 16.51, 42.52 -0.14 M16.67 35.69 C28.13 22.51, 39.59 9.33, 47.51 0.22 M16.67 35.69 C28.95 21.57, 41.22 7.45, 47.51 0.22 M21.66 36.05 C28.41 28.29, 35.15 20.53, 53.15 -0.17 M21.66 36.05 C29.44 27.1, 37.23 18.15, 53.15 -0.17 M27.3 35.66 C38.57 22.7, 49.83 9.74, 58.14 0.19 M27.3 35.66 C39.52 21.6, 51.74 7.55, 58.14 0.19 M32.29 36.02 C39.49 27.73, 46.7 19.45, 63.78 -0.21 M32.29 36.02 C42.79 23.94, 53.29 11.86, 63.78 -0.21 M37.93 35.62 C49.33 22.51, 60.73 9.39, 68.77 0.15 M37.93 35.62 C46.25 26.05, 54.58 16.48, 68.77 0.15 M42.92 35.98 C55.39 21.64, 67.85 7.3, 74.41 -0.24 M42.92 35.98 C54.22 22.98, 65.53 9.98, 74.41 -0.24 M48.56 35.59 C55.91 27.14, 63.26 18.68, 79.4 0.12 M48.56 35.59 C58.27 24.43, 67.97 13.26, 79.4 0.12 M53.55 35.95 C60.89 27.5, 68.24 19.06, 85.04 -0.28 M53.55 35.95 C60.81 27.59, 68.08 19.24, 85.04 -0.28 M59.19 35.56 C65.44 28.37, 71.68 21.19, 90.03 0.08 M59.19 35.56 C71.48 21.42, 83.77 7.28, 90.03 0.08 M64.18 35.92 C74.76 23.74, 85.35 11.56, 95.67 -0.31 M64.18 35.92 C74.48 24.06, 84.78 12.21, 95.67 -0.31 M69.82 35.52 C78.21 25.87, 86.6 16.22, 100.66 0.05 M69.82 35.52 C80.95 22.72, 92.08 9.91, 100.66 0.05 M74.81 35.88 C86.73 22.17, 98.64 8.46, 106.3 -0.34 M74.81 35.88 C84.22 25.05, 93.64 14.22, 106.3 -0.34 M80.45 35.49 C87.68 27.17, 94.91 18.85, 111.29 0.02 M80.45 35.49 C87.03 27.92, 93.61 20.35, 111.29 0.02 M85.44 35.85 C95.06 24.78, 104.67 13.72, 116.27 0.38 M85.44 35.85 C93.72 26.32, 102 16.8, 116.27 0.38 M91.08 35.45 C98.97 26.38, 106.86 17.3, 121.92 -0.02 M91.08 35.45 C101.54 23.42, 112.01 11.38, 121.92 -0.02 M96.07 35.81 C107.37 22.81, 118.67 9.81, 126.91 0.34 M96.07 35.81 C103.17 27.65, 110.26 19.49, 126.91 0.34 M101.71 35.42 C108.88 27.18, 116.04 18.93, 127.3 5.98 M101.71 35.42 C109.23 26.77, 116.74 18.13, 127.3 5.98 M106.7 35.78 C111.79 29.92, 116.88 24.07, 127.04 12.38 M106.7 35.78 C111.78 29.93, 116.86 24.09, 127.04 12.38 M112.34 35.38 C115.8 31.4, 119.26 27.43, 127.43 18.02 M112.34 35.38 C115.42 31.84, 118.5 28.3, 127.43 18.02 M117.33 35.74 C120.77 31.79, 124.2 27.84, 127.17 24.42 M117.33 35.74 C119.95 32.73, 122.56 29.72, 127.17 24.42 M122.97 35.35 C123.77 34.43, 124.58 33.5, 126.91 30.82 M122.97 35.35 C124.43 33.68, 125.88 32.01, 126.91 30.82" stroke="#82c91e" stroke-width="0.5" fill="none"></path><path d="M0 0 C41.93 0, 83.86 0, 127 0 M0 0 C34.14 0, 68.28 0, 127 0 M127 0 C127 10.17, 127 20.35, 127 35 M127 0 C127 9.83, 127 19.67, 127 35 M127 35 C101.42 35, 75.84 35, 0 35 M127 35 C84.81 35, 42.62 35, 0 35 M0 35 C0 22.21, 0 9.41, 0 0 M0 35 C0 27.49, 0 19.98, 0 0" stroke="#0b7285" stroke-width="1" fill="none"></path></g><g transform="translate(66.3028564453125 178.49575805664062) rotate(0 7.5 11.5)"><text x="7.5" y="0" font-family="Helvetica, Segoe UI Emoji" font-size="20px" fill="#0b7285" text-anchor="middle" style="white-space: pre;" direction="ltr" dominant-baseline="text-before-edge">B</text></g><g stroke-linecap="round" transform="translate(10.30853271484375 208.12161254882812) rotate(0 63.5 17.5)"><path d="M0 0 C40.55 0, 81.1 0, 127 0 M0 0 C27.93 0, 55.86 0, 127 0 M127 0 C127 13.35, 127 26.71, 127 35 M127 0 C127 13.48, 127 26.96, 127 35 M127 35 C79.78 35, 32.57 35, 0 35 M127 35 C90.79 35, 54.59 35, 0 35 M0 35 C0 21.14, 0 7.28, 0 0 M0 35 C0 23.47, 0 11.93, 0 0" stroke="#000000" stroke-width="1" fill="none"></path></g><g transform="translate(29.80853271484375 214.12161254882812) rotate(0 44 11.5)"><text x="44" y="0" font-family="Helvetica, Segoe UI Emoji" font-size="20px" fill="#000000" text-anchor="middle" style="white-space: pre;" direction="ltr" dominant-baseline="text-before-edge">noverflow</text></g><g stroke-linecap="round" transform="translate(10.40631103515625 242.79037475585938) rotate(0 63.5 17.5)"><path d="M0 0 C0 0, 0 0, 0 0 M0 0 C0 0, 0 0, 0 0 M-0.26 6.4 C1.65 4.2, 3.55 2.01, 4.99 0.36 M-0.26 6.4 C1.34 4.56, 2.94 2.72, 4.99 0.36 M0.13 12.04 C2.82 8.95, 5.5 5.86, 10.63 -0.03 M0.13 12.04 C3.74 7.89, 7.34 3.74, 10.63 -0.03 M-0.13 18.44 C3.12 14.7, 6.37 10.96, 15.62 0.33 M-0.13 18.44 C3.4 14.38, 6.92 10.33, 15.62 0.33 M0.27 24.08 C5.82 17.69, 11.38 11.3, 21.26 -0.07 M0.27 24.08 C6.18 17.28, 12.1 10.47, 21.26 -0.07 M0 30.48 C9.29 19.79, 18.58 9.11, 26.25 0.29 M0 30.48 C6.94 22.5, 13.88 14.52, 26.25 0.29 M1.06 35.37 C11.93 22.86, 22.81 10.35, 31.89 -0.1 M1.06 35.37 C11.78 23.03, 22.5 10.7, 31.89 -0.1 M6.04 35.73 C17.61 22.42, 29.18 9.11, 36.88 0.26 M6.04 35.73 C17.03 23.08, 28.03 10.44, 36.88 0.26 M11.69 35.33 C19.49 26.36, 27.29 17.38, 42.52 -0.14 M11.69 35.33 C23.47 21.77, 35.26 8.21, 42.52 -0.14 M16.67 35.69 C23.36 28, 30.05 20.3, 47.51 0.22 M16.67 35.69 C22.91 28.51, 29.16 21.33, 47.51 0.22 M21.66 36.05 C33.53 22.39, 45.41 8.73, 53.15 -0.17 M21.66 36.05 C31.07 25.23, 40.47 14.41, 53.15 -0.17 M27.3 35.66 C33.62 28.4, 39.93 21.13, 58.14 0.19 M27.3 35.66 C35.82 25.86, 44.33 16.07, 58.14 0.19 M32.29 36.02 C39.02 28.27, 45.76 20.52, 63.78 -0.21 M32.29 36.02 C41.16 25.81, 50.04 15.61, 63.78 -0.21 M37.93 35.62 C45.39 27.05, 52.85 18.47, 68.77 0.15 M37.93 35.62 C44.82 27.7, 51.71 19.78, 68.77 0.15 M42.92 35.98 C53.34 24, 63.76 12.01, 74.41 -0.24 M42.92 35.98 C55.15 21.92, 67.38 7.85, 74.41 -0.24 M48.56 35.59 C55.03 28.15, 61.49 20.72, 79.4 0.12 M48.56 35.59 C56.64 26.3, 64.72 17, 79.4 0.12 M53.55 35.95 C65.32 22.41, 77.09 8.86, 85.04 -0.28 M53.55 35.95 C64.48 23.38, 75.4 10.81, 85.04 -0.28 M59.19 35.56 C70.54 22.5, 81.88 9.45, 90.03 0.08 M59.19 35.56 C70.96 22.02, 82.72 8.49, 90.03 0.08 M64.18 35.92 C72.56 26.27, 80.95 16.62, 95.67 -0.31 M64.18 35.92 C75.46 22.93, 86.75 9.95, 95.67 -0.31 M69.82 35.52 C80.75 22.95, 91.67 10.38, 100.66 0.05 M69.82 35.52 C80.41 23.34, 91 11.16, 100.66 0.05 M74.81 35.88 C81.42 28.27, 88.04 20.67, 106.3 -0.34 M74.81 35.88 C84.09 25.2, 93.38 14.52, 106.3 -0.34 M80.45 35.49 C92.32 21.84, 104.18 8.19, 111.29 0.02 M80.45 35.49 C89.12 25.52, 97.79 15.55, 111.29 0.02 M85.44 35.85 C94.23 25.74, 103.01 15.63, 116.27 0.38 M85.44 35.85 C94.71 25.18, 103.98 14.52, 116.27 0.38 M91.08 35.45 C98.89 26.47, 106.7 17.49, 121.92 -0.02 M91.08 35.45 C100.33 24.82, 109.57 14.19, 121.92 -0.02 M96.07 35.81 C103.76 26.97, 111.44 18.13, 126.91 0.34 M96.07 35.81 C108.16 21.91, 120.24 8.01, 126.91 0.34 M101.71 35.42 C110.2 25.65, 118.69 15.89, 127.3 5.98 M101.71 35.42 C108.79 27.28, 115.86 19.15, 127.3 5.98 M106.7 35.78 C113.6 27.85, 120.49 19.91, 127.04 12.38 M106.7 35.78 C111.92 29.77, 117.15 23.76, 127.04 12.38 M112.34 35.38 C117.94 28.95, 123.53 22.51, 127.43 18.02 M112.34 35.38 C116.27 30.87, 120.19 26.35, 127.43 18.02 M117.33 35.74 C119.97 32.7, 122.62 29.66, 127.17 24.42 M117.33 35.74 C119.84 32.85, 122.35 29.96, 127.17 24.42 M122.97 35.35 C124.15 34, 125.32 32.65, 126.91 30.82 M122.97 35.35 C124.04 34.12, 125.11 32.89, 126.91 30.82" stroke="#12b886" stroke-width="0.5" fill="none"></path><path d="M0 0 C44.02 0, 88.05 0, 127 0 M0 0 C45.79 0, 91.58 0, 127 0 M127 0 C127 7.2, 127 14.39, 127 35 M127 0 C127 12.93, 127 25.86, 127 35 M127 35 C84.5 35, 42.01 35, 0 35 M127 35 C95.97 35, 64.93 35, 0 35 M0 35 C0 26.81, 0 18.62, 0 0 M0 35 C0 22.79, 0 10.58, 0 0" stroke="#e67700" stroke-width="1" fill="none"></path></g><g transform="translate(38.40631103515625 248.79037475585938) rotate(0 35.5 11.5)"><text x="35.5" y="0" font-family="Helvetica, Segoe UI Emoji" font-size="20px" fill="#e67700" text-anchor="middle" style="white-space: pre;" direction="ltr" dominant-baseline="text-before-edge">buckets</text></g><g stroke-linecap="round" transform="translate(10.68792724609375 277.1718444824219) rotate(0 63.5 17.5)"><path d="M0 0 C42.43 0, 84.87 0, 127 0 M0 0 C33.83 0, 67.66 0, 127 0 M127 0 C127 13.22, 127 26.44, 127 35 M127 0 C127 7.9, 127 15.79, 127 35 M127 35 C88.92 35, 50.85 35, 0 35 M127 35 C76.84 35, 26.68 35, 0 35 M0 35 C0 23.57, 0 12.14, 0 0 M0 35 C0 26.25, 0 17.51, 0 0" stroke="#000000" stroke-width="1" fill="none"></path></g><g transform="translate(25.18792724609375 283.1718444824219) rotate(0 49 11.5)"><text x="49" y="0" font-family="Helvetica, Segoe UI Emoji" font-size="20px" fill="#000000" text-anchor="middle" style="white-space: pre;" direction="ltr" dominant-baseline="text-before-edge">oldbuckets</text></g><g stroke-linecap="round" transform="translate(10.96044921875 312.1148376464844) rotate(0 63.5 17.5)"><path d="M0 0 C48.06 0, 96.12 0, 127 0 M0 0 C37.97 0, 75.94 0, 127 0 M127 0 C127 8.21, 127 16.42, 127 35 M127 0 C127 7.47, 127 14.94, 127 35 M127 35 C87.39 35, 47.78 35, 0 35 M127 35 C92.9 35, 58.8 35, 0 35 M0 35 C0 26.05, 0 17.09, 0 0 M0 35 C0 23.13, 0 11.25, 0 0" stroke="#000000" stroke-width="1" fill="none"></path></g><g transform="translate(27.46044921875 318.1148376464844) rotate(0 47 11.5)"><text x="47" y="0" font-family="Helvetica, Segoe UI Emoji" font-size="20px" fill="#000000" text-anchor="middle" style="white-space: pre;" direction="ltr" dominant-baseline="text-before-edge">nevacuate</text></g><g stroke-linecap="round" transform="translate(11.08734130859375 346.5918273925781) rotate(0 63.5 17.5)"><path d="M0 0 C49 0, 97.99 0, 127 0 M0 0 C47.86 0, 95.73 0, 127 0 M127 0 C127 10.42, 127 20.83, 127 35 M127 0 C127 9.56, 127 19.11, 127 35 M127 35 C92.24 35, 57.47 35, 0 35 M127 35 C98.89 35, 70.77 35, 0 35 M0 35 C0 23.07, 0 11.14, 0 0 M0 35 C0 27.84, 0 20.68, 0 0" stroke="#000000" stroke-width="1" fill="none"></path></g><g transform="translate(51.58734130859375 352.5918273925781) rotate(0 23 11.5)"><text x="23" y="0" font-family="Helvetica, Segoe UI Emoji" font-size="20px" fill="#000000" text-anchor="middle" style="white-space: pre;" direction="ltr" dominant-baseline="text-before-edge">extra</text></g><g stroke-linecap="round" transform="translate(252.60696411132812 40.37117004394531) rotate(0 63.168731689453125 17.2393798828125)"><path d="M0 0 C39.82 0, 79.63 0, 126.34 0 M0 0 C47.24 0, 94.48 0, 126.34 0 M126.34 0 C126.34 13.25, 126.34 26.5, 126.34 34.48 M126.34 0 C126.34 12.59, 126.34 25.18, 126.34 34.48 M126.34 34.48 C91.49 34.48, 56.65 34.48, 0 34.48 M126.34 34.48 C90.43 34.48, 54.52 34.48, 0 34.48 M0 34.48 C0 24.83, 0 15.18, 0 0 M0 34.48 C0 24.54, 0 14.59, 0 0" stroke="#000000" stroke-width="1" fill="none"></path></g><g transform="translate(290.6675109863281 47.77305603027344) rotate(0 26 11.5)"><text x="0" y="0" font-family="Helvetica, Segoe UI Emoji" font-size="20px" fill="#000000" text-anchor="start" style="white-space: pre;" direction="ltr" dominant-baseline="text-before-edge">bmap</text></g><g stroke-linecap="round" transform="translate(252.55337524414062 74.97566223144531) rotate(0 63.5 17.5)"><path d="M0 0 C40.1 0, 80.2 0, 127 0 M0 0 C47.14 0, 94.29 0, 127 0 M127 0 C127 13.76, 127 27.52, 127 35 M127 0 C127 7.51, 127 15.01, 127 35 M127 35 C91.91 35, 56.82 35, 0 35 M127 35 C78.63 35, 30.26 35, 0 35 M0 35 C0 24.94, 0 14.88, 0 0 M0 35 C0 24.78, 0 14.56, 0 0" stroke="#000000" stroke-width="1" fill="none"></path></g><g transform="translate(290.0533752441406 80.97566223144531) rotate(0 26 11.5)"><text x="26" y="0" font-family="Helvetica, Segoe UI Emoji" font-size="20px" fill="#000000" text-anchor="middle" style="white-space: pre;" direction="ltr" dominant-baseline="text-before-edge">bmap</text></g><g stroke-linecap="round" transform="translate(252.85623168945312 110.24003601074219) rotate(0 63.5 17.5)"><path d="M0 0 C36.32 0, 72.63 0, 127 0 M0 0 C32.65 0, 65.29 0, 127 0 M127 0 C127 12.65, 127 25.3, 127 35 M127 0 C127 7.36, 127 14.73, 127 35 M127 35 C89.2 35, 51.39 35, 0 35 M127 35 C88.78 35, 50.56 35, 0 35 M0 35 C0 27.37, 0 19.75, 0 0 M0 35 C0 22.88, 0 10.77, 0 0" stroke="#000000" stroke-width="1" fill="none"></path></g><g transform="translate(290.3562316894531 116.24003601074219) rotate(0 26 11.5)"><text x="26" y="0" font-family="Helvetica, Segoe UI Emoji" font-size="20px" fill="#000000" text-anchor="middle" style="white-space: pre;" direction="ltr" dominant-baseline="text-before-edge">bmap</text></g><g stroke-linecap="round" transform="translate(252.86190795898438 145.8658905029297) rotate(0 63.5 17.5)"><path d="M0 0 C27.26 0, 54.52 0, 127 0 M0 0 C41.07 0, 82.15 0, 127 0 M127 0 C127 7.63, 127 15.26, 127 35 M127 0 C127 13.18, 127 26.37, 127 35 M127 35 C86.99 35, 46.98 35, 0 35 M127 35 C76.97 35, 26.95 35, 0 35 M0 35 C0 21.05, 0 7.09, 0 0 M0 35 C0 23.81, 0 12.62, 0 0" stroke="#000000" stroke-width="1" fill="none"></path></g><g transform="translate(306.8619079589844 151.8658905029297) rotate(0 9.5 11.5)"><text x="9.5" y="0" font-family="Helvetica, Segoe UI Emoji" font-size="20px" fill="#000000" text-anchor="middle" style="white-space: pre;" direction="ltr" dominant-baseline="text-before-edge">...</text></g><g stroke-linecap="round" transform="translate(252.95968627929688 180.53465270996094) rotate(0 63.5 17.5)"><path d="M0 0 C36.29 0, 72.58 0, 127 0 M0 0 C35.91 0, 71.81 0, 127 0 M127 0 C127 7.2, 127 14.39, 127 35 M127 0 C127 11.86, 127 23.72, 127 35 M127 35 C84.3 35, 41.61 35, 0 35 M127 35 C77.21 35, 27.41 35, 0 35 M0 35 C0 24.19, 0 13.37, 0 0 M0 35 C0 26.41, 0 17.81, 0 0" stroke="#000000" stroke-width="1" fill="none"></path></g><g transform="translate(306.9596862792969 186.53465270996094) rotate(0 9.5 11.5)"><text x="9.5" y="0" font-family="Helvetica, Segoe UI Emoji" font-size="20px" fill="#000000" text-anchor="middle" style="white-space: pre;" direction="ltr" dominant-baseline="text-before-edge">...</text></g><g stroke-linecap="round" transform="translate(253.24130249023438 214.91612243652344) rotate(0 63.5 17.5)"><path d="M0 0 C29.79 0, 59.58 0, 127 0 M0 0 C26.89 0, 53.77 0, 127 0 M127 0 C127 8.3, 127 16.59, 127 35 M127 0 C127 9.38, 127 18.75, 127 35 M127 35 C81.56 35, 36.13 35, 0 35 M127 35 C81.97 35, 36.93 35, 0 35 M0 35 C0 23.26, 0 11.52, 0 0 M0 35 C0 25.74, 0 16.48, 0 0" stroke="#000000" stroke-width="1" fill="none"></path></g><g transform="translate(290.7413024902344 220.91612243652344) rotate(0 26 11.5)"><text x="26" y="0" font-family="Helvetica, Segoe UI Emoji" font-size="20px" fill="#000000" text-anchor="middle" style="white-space: pre;" direction="ltr" dominant-baseline="text-before-edge">bmap</text></g><g transform="translate(287.35577392578125 10) rotate(0 31.5 11.5)"><text x="0" y="0" font-family="Helvetica, Segoe UI Emoji" font-size="20px" fill="#e67700" text-anchor="start" style="white-space: pre;" direction="ltr" dominant-baseline="text-before-edge">[]bmap</text></g><g stroke-linecap="round"><g transform="translate(139.533935546875 257.6824645996094) rotate(0 70.0450439453125 -118.68707275390625)"><path d="M0 0 C18.93 0.11, 37.87 0.22, 48.76 0.28 M0 0 C16.16 0.09, 32.32 0.18, 48.76 0.28 M48.76 0.28 C48.76 -79.48, 48.76 -159.23, 48.75 -237.16 M48.76 0.28 C48.76 -89.2, 48.75 -178.69, 48.75 -237.16 M48.75 -237.16 C71.6 -237.28, 94.45 -237.4, 140.09 -237.65 M48.75 -237.16 C84.16 -237.35, 119.57 -237.54, 140.09 -237.65" stroke="#087f5b" stroke-width="2" fill="none"></path></g><g transform="translate(139.533935546875 257.6824645996094) rotate(0 70.0450439453125 -118.68707275390625)"><path d="M140.09 -237.65 L126.53 -231.24 L126.46 -243.92 L140.09 -237.65" stroke="none" stroke-width="0" fill="#087f5b" fill-rule="evenodd"></path><path d="M140.09 -237.65 C134.83 -235.16, 129.56 -232.67, 126.53 -231.24 M140.09 -237.65 C135.6 -235.53, 131.1 -233.4, 126.53 -231.24 M126.53 -231.24 C126.51 -235.5, 126.48 -239.76, 126.46 -243.92 M126.53 -231.24 C126.5 -236.02, 126.48 -240.8, 126.46 -243.92 M126.46 -243.92 C129.87 -242.35, 133.28 -240.78, 140.09 -237.65 M126.46 -243.92 C131.75 -241.49, 137.03 -239.06, 140.09 -237.65 M140.09 -237.65 C140.09 -237.65, 140.09 -237.65, 140.09 -237.65 M140.09 -237.65 C140.09 -237.65, 140.09 -237.65, 140.09 -237.65" stroke="#087f5b" stroke-width="2" fill="none"></path></g></g><mask></mask><g stroke-linecap="round" transform="translate(491.7658386230469 45.618896484375) rotate(0 24.02783203125 16.146591186523438)"><path d="M0 0 C13.33 0, 26.66 0, 48.06 0 M0 0 C10.86 0, 21.72 0, 48.06 0 M48.06 0 C48.06 9.25, 48.06 18.5, 48.06 32.29 M48.06 0 C48.06 12.55, 48.06 25.1, 48.06 32.29 M48.06 32.29 C30.63 32.29, 13.2 32.29, 0 32.29 M48.06 32.29 C34.51 32.29, 20.97 32.29, 0 32.29 M0 32.29 C0 22.24, 0 12.19, 0 0 M0 32.29 C0 20.07, 0 7.85, 0 0" stroke="#000000" stroke-width="1" fill="none"></path></g><g transform="translate(896.355712890625 49.584503173828125) rotate(0 30.5 11.5)"><text x="0" y="0" font-family="Helvetica, Segoe UI Emoji" font-size="20px" fill="#087f5b" text-anchor="start" style="white-space: pre;" direction="ltr" dominant-baseline="text-before-edge">topbits</text></g><g stroke-linecap="round" transform="translate(540.4930419921875 46.18690490722656) rotate(0 24.02783203125 16.146591186523438)"><path d="M0 0 C13.15 0, 26.3 0, 48.06 0 M0 0 C10.44 0, 20.88 0, 48.06 0 M48.06 0 C48.06 11.92, 48.06 23.85, 48.06 32.29 M48.06 0 C48.06 6.83, 48.06 13.66, 48.06 32.29 M48.06 32.29 C29.99 32.29, 11.93 32.29, 0 32.29 M48.06 32.29 C33.19 32.29, 18.32 32.29, 0 32.29 M0 32.29 C0 23.75, 0 15.2, 0 0 M0 32.29 C0 22.69, 0 13.08, 0 0" stroke="#000000" stroke-width="1" fill="none"></path></g><g stroke-linecap="round" transform="translate(589.5088958740234 46.60352325439453) rotate(0 24.02783203125 16.146591186523438)"><path d="M0 0 C12.31 0, 24.62 0, 48.06 0 M0 0 C13.2 0, 26.39 0, 48.06 0 M48.06 0 C48.06 9.79, 48.06 19.58, 48.06 32.29 M48.06 0 C48.06 11.82, 48.06 23.64, 48.06 32.29 M48.06 32.29 C34.33 32.29, 20.6 32.29, 0 32.29 M48.06 32.29 C37.3 32.29, 26.54 32.29, 0 32.29 M0 32.29 C0 25.77, 0 19.24, 0 0 M0 32.29 C0 23.29, 0 14.28, 0 0" stroke="#000000" stroke-width="1" fill="none"></path></g><g stroke-linecap="round" transform="translate(638.2360992431641 46.171531677246094) rotate(0 24.02783203125 16.146591186523438)"><path d="M0 0 C11.06 0, 22.13 0, 48.06 0 M0 0 C17.45 0, 34.9 0, 48.06 0 M48.06 0 C48.06 10.91, 48.06 21.83, 48.06 32.29 M48.06 0 C48.06 7.65, 48.06 15.31, 48.06 32.29 M48.06 32.29 C32.48 32.29, 16.9 32.29, 0 32.29 M48.06 32.29 C35.14 32.29, 22.22 32.29, 0 32.29 M0 32.29 C0 20.91, 0 9.53, 0 0 M0 32.29 C0 24.99, 0 17.68, 0 0" stroke="#000000" stroke-width="1" fill="none"></path></g><g stroke-linecap="round" transform="translate(687.3716812133789 46.69474411010742) rotate(0 24.02783203125 16.146591186523438)"><path d="M0 0 C15.42 0, 30.84 0, 48.06 0 M0 0 C13.14 0, 26.28 0, 48.06 0 M48.06 0 C48.06 11.77, 48.06 23.54, 48.06 32.29 M48.06 0 C48.06 11.89, 48.06 23.77, 48.06 32.29 M48.06 32.29 C37.51 32.29, 26.97 32.29, 0 32.29 M48.06 32.29 C38.41 32.29, 28.76 32.29, 0 32.29 M0 32.29 C0 22.05, 0 11.8, 0 0 M0 32.29 C0 23.8, 0 15.31, 0 0" stroke="#000000" stroke-width="1" fill="none"></path></g><g stroke-linecap="round" transform="translate(736.0988845825195 47.262752532958984) rotate(0 24.02783203125 16.146591186523438)"><path d="M0 0 C18.25 0, 36.51 0, 48.06 0 M0 0 C18.83 0, 37.67 0, 48.06 0 M48.06 0 C48.06 6.48, 48.06 12.95, 48.06 32.29 M48.06 0 C48.06 12.51, 48.06 25.01, 48.06 32.29 M48.06 32.29 C32.4 32.29, 16.75 32.29, 0 32.29 M48.06 32.29 C33.57 32.29, 19.08 32.29, 0 32.29 M0 32.29 C0 23.67, 0 15.05, 0 0 M0 32.29 C0 20.65, 0 9.01, 0 0" stroke="#000000" stroke-width="1" fill="none"></path></g><g stroke-linecap="round" transform="translate(785.1147384643555 47.67937088012695) rotate(0 24.02783203125 16.146591186523438)"><path d="M0 0 C10.13 0, 20.27 0, 48.06 0 M0 0 C16.51 0, 33.02 0, 48.06 0 M48.06 0 C48.06 8.5, 48.06 17.01, 48.06 32.29 M48.06 0 C48.06 10.87, 48.06 21.75, 48.06 32.29 M48.06 32.29 C35.01 32.29, 21.96 32.29, 0 32.29 M48.06 32.29 C35.76 32.29, 23.46 32.29, 0 32.29 M0 32.29 C0 21.37, 0 10.45, 0 0 M0 32.29 C0 20.19, 0 8.09, 0 0" stroke="#000000" stroke-width="1" fill="none"></path></g><g stroke-linecap="round" transform="translate(833.8419418334961 47.247379302978516) rotate(0 24.02783203125 16.146591186523438)"><path d="M0 0 C15.2 0, 30.4 0, 48.06 0 M0 0 C9.7 0, 19.39 0, 48.06 0 M48.06 0 C48.06 6.8, 48.06 13.61, 48.06 32.29 M48.06 0 C48.06 10.97, 48.06 21.94, 48.06 32.29 M48.06 32.29 C29.66 32.29, 11.26 32.29, 0 32.29 M48.06 32.29 C34.92 32.29, 21.79 32.29, 0 32.29 M0 32.29 C0 23.15, 0 14.02, 0 0 M0 32.29 C0 23.02, 0 13.76, 0 0" stroke="#000000" stroke-width="1" fill="none"></path></g><g stroke-linecap="round" transform="translate(491.7259521484375 80.29750061035156) rotate(0 196 18)"><path d="M0 0 C89.28 0, 178.55 0, 392 0 M0 0 C121.51 0, 243.01 0, 392 0 M392 0 C392 8.21, 392 16.42, 392 36 M392 0 C392 9.42, 392 18.85, 392 36 M392 36 C294.81 36, 197.63 36, 0 36 M392 36 C236.66 36, 81.31 36, 0 36 M0 36 C0 22.93, 0 9.86, 0 0 M0 36 C0 26.59, 0 17.19, 0 0" stroke="#087f5b" stroke-width="1" fill="none"></path></g><g transform="translate(655.2259521484375 86.79750061035156) rotate(0 32.5 11.5)"><text x="32.5" y="0" font-family="Helvetica, Segoe UI Emoji" font-size="20px" fill="#087f5b" text-anchor="middle" style="white-space: pre;" direction="ltr" dominant-baseline="text-before-edge">keys[0]</text></g><g transform="translate(968.0044555664062 49.528778076171875) rotate(0 34 11.5)"><text x="0" y="0" font-family="Helvetica, Segoe UI Emoji" font-size="20px" fill="#087f5b" text-anchor="start" style="white-space: pre;" direction="ltr" dominant-baseline="text-before-edge">[8]uint8</text></g><g stroke-linecap="round" transform="translate(491.83404541015625 117.27175903320312) rotate(0 196 18)"><path d="M0 0 C112.53 0, 225.07 0, 392 0 M0 0 C87.92 0, 175.85 0, 392 0 M392 0 C392 11.84, 392 23.68, 392 36 M392 0 C392 8.58, 392 17.16, 392 36 M392 36 C311.26 36, 230.52 36, 0 36 M392 36 C271.96 36, 151.93 36, 0 36 M0 36 C0 25.65, 0 15.31, 0 0 M0 36 C0 25.44, 0 14.88, 0 0" stroke="#087f5b" stroke-width="1" fill="none"></path></g><g transform="translate(655.3340454101562 123.77175903320312) rotate(0 32.5 11.5)"><text x="32.5" y="0" font-family="Helvetica, Segoe UI Emoji" font-size="20px" fill="#087f5b" text-anchor="middle" style="white-space: pre;" direction="ltr" dominant-baseline="text-before-edge">keys[1]</text></g><g stroke-linecap="round" transform="translate(493.5373229980469 154.1458969116211) rotate(0 196 18)"><path d="M0 0 C84.53 0, 169.05 0, 392 0 M0 0 C137.69 0, 275.38 0, 392 0 M392 0 C392 12.91, 392 25.82, 392 36 M392 0 C392 9.23, 392 18.47, 392 36 M392 36 C249.33 36, 106.66 36, 0 36 M392 36 C247.98 36, 103.97 36, 0 36 M0 36 C0 23.38, 0 10.75, 0 0 M0 36 C0 23.09, 0 10.18, 0 0" stroke="#087f5b" stroke-width="1" fill="none"></path></g><g transform="translate(657.0373229980469 160.6458969116211) rotate(0 32.5 11.5)"><text x="32.5" y="0" font-family="Helvetica, Segoe UI Emoji" font-size="20px" fill="#087f5b" text-anchor="middle" style="white-space: pre;" direction="ltr" dominant-baseline="text-before-edge">keys[2]</text></g><g stroke-linecap="round" transform="translate(493.6454162597656 191.12015533447266) rotate(0 196 18)"><path d="M0 0 C96.86 0, 193.72 0, 392 0 M0 0 C138.13 0, 276.26 0, 392 0 M392 0 C392 9.73, 392 19.46, 392 36 M392 0 C392 10.9, 392 21.8, 392 36 M392 36 C313.03 36, 234.07 36, 0 36 M392 36 C300.96 36, 209.92 36, 0 36 M0 36 C0 26.62, 0 17.24, 0 0 M0 36 C0 24.79, 0 13.58, 0 0" stroke="#087f5b" stroke-width="1" fill="none"></path></g><g transform="translate(657.1454162597656 197.62015533447266) rotate(0 32.5 11.5)"><text x="32.5" y="0" font-family="Helvetica, Segoe UI Emoji" font-size="20px" fill="#087f5b" text-anchor="middle" style="white-space: pre;" direction="ltr" dominant-baseline="text-before-edge">keys[3]</text></g><g stroke-linecap="round" transform="translate(494.18528747558594 227.62892532348633) rotate(0 196 18)"><path d="M0 0 C83.45 0, 166.89 0, 392 0 M0 0 C85.89 0, 171.78 0, 392 0 M392 0 C392 13.87, 392 27.74, 392 36 M392 0 C392 13.82, 392 27.65, 392 36 M392 36 C290.21 36, 188.42 36, 0 36 M392 36 C257.71 36, 123.41 36, 0 36 M0 36 C0 28.42, 0 20.84, 0 0 M0 36 C0 28.17, 0 20.34, 0 0" stroke="#087f5b" stroke-width="1" fill="none"></path></g><g transform="translate(657.6852874755859 234.12892532348633) rotate(0 32.5 11.5)"><text x="32.5" y="0" font-family="Helvetica, Segoe UI Emoji" font-size="20px" fill="#087f5b" text-anchor="middle" style="white-space: pre;" direction="ltr" dominant-baseline="text-before-edge">keys[4]</text></g><g stroke-linecap="round" transform="translate(494.2933807373047 264.6031837463379) rotate(0 196 18)"><path d="M0 0 C140.35 0, 280.71 0, 392 0 M0 0 C106.44 0, 212.88 0, 392 0 M392 0 C392 12.24, 392 24.48, 392 36 M392 0 C392 11.63, 392 23.27, 392 36 M392 36 C289.9 36, 187.81 36, 0 36 M392 36 C289.87 36, 187.73 36, 0 36 M0 36 C0 27.86, 0 19.73, 0 0 M0 36 C0 22.65, 0 9.3, 0 0" stroke="#087f5b" stroke-width="1" fill="none"></path></g><g transform="translate(657.7933807373047 271.1031837463379) rotate(0 32.5 11.5)"><text x="32.5" y="0" font-family="Helvetica, Segoe UI Emoji" font-size="20px" fill="#087f5b" text-anchor="middle" style="white-space: pre;" direction="ltr" dominant-baseline="text-before-edge">keys[5]</text></g><g stroke-linecap="round" transform="translate(495.9966583251953 301.47732162475586) rotate(0 196 18)"><path d="M0 0 C142.76 0, 285.52 0, 392 0 M0 0 C89.78 0, 179.56 0, 392 0 M392 0 C392 10.98, 392 21.95, 392 36 M392 0 C392 11.38, 392 22.76, 392 36 M392 36 C238.28 36, 84.56 36, 0 36 M392 36 C274.5 36, 156.99 36, 0 36 M0 36 C0 27.59, 0 19.18, 0 0 M0 36 C0 22.92, 0 9.85, 0 0" stroke="#087f5b" stroke-width="1" fill="none"></path></g><g transform="translate(659.4966583251953 307.97732162475586) rotate(0 32.5 11.5)"><text x="32.5" y="0" font-family="Helvetica, Segoe UI Emoji" font-size="20px" fill="#087f5b" text-anchor="middle" style="white-space: pre;" direction="ltr" dominant-baseline="text-before-edge">keys[6]</text></g><g stroke-linecap="round" transform="translate(496.10475158691406 338.4515800476074) rotate(0 196 18)"><path d="M0 0 C116.9 0, 233.8 0, 392 0 M0 0 C100.13 0, 200.25 0, 392 0 M392 0 C392 13.92, 392 27.85, 392 36 M392 0 C392 12.9, 392 25.8, 392 36 M392 36 C271.26 36, 150.51 36, 0 36 M392 36 C281.67 36, 171.34 36, 0 36 M0 36 C0 23.79, 0 11.58, 0 0 M0 36 C0 27.53, 0 19.07, 0 0" stroke="#087f5b" stroke-width="1" fill="none"></path></g><g transform="translate(659.6047515869141 344.9515800476074) rotate(0 32.5 11.5)"><text x="32.5" y="0" font-family="Helvetica, Segoe UI Emoji" font-size="20px" fill="#087f5b" text-anchor="middle" style="white-space: pre;" direction="ltr" dominant-baseline="text-before-edge">keys[7]</text></g><g stroke-linecap="round" transform="translate(496.30065155029297 376.7296314239502) rotate(0 196 18)"><path d="M0 0 C148.37 0, 296.75 0, 392 0 M0 0 C92.79 0, 185.58 0, 392 0 M392 0 C392 7.33, 392 14.67, 392 36 M392 0 C392 8.59, 392 17.18, 392 36 M392 36 C311.99 36, 231.98 36, 0 36 M392 36 C279.61 36, 167.22 36, 0 36 M0 36 C0 23.76, 0 11.51, 0 0 M0 36 C0 27.26, 0 18.51, 0 0" stroke="#e67700" stroke-width="1" fill="none"></path></g><g transform="translate(651.300651550293 383.2296314239502) rotate(0 41 11.5)"><text x="41" y="0" font-family="Helvetica, Segoe UI Emoji" font-size="20px" fill="#e67700" text-anchor="middle" style="white-space: pre;" direction="ltr" dominant-baseline="text-before-edge">values[0]</text></g><g stroke-linecap="round" transform="translate(496.4087448120117 413.70388984680176) rotate(0 196 18)"><path d="M0 0 C116.48 0, 232.95 0, 392 0 M0 0 C100.69 0, 201.39 0, 392 0 M392 0 C392 9.28, 392 18.56, 392 36 M392 0 C392 10.69, 392 21.38, 392 36 M392 36 C239.98 36, 87.96 36, 0 36 M392 36 C277.3 36, 162.59 36, 0 36 M0 36 C0 27.72, 0 19.45, 0 0 M0 36 C0 28.08, 0 20.16, 0 0" stroke="#e67700" stroke-width="1" fill="none"></path></g><g transform="translate(651.4087448120117 420.20388984680176) rotate(0 41 11.5)"><text x="41" y="0" font-family="Helvetica, Segoe UI Emoji" font-size="20px" fill="#e67700" text-anchor="middle" style="white-space: pre;" direction="ltr" dominant-baseline="text-before-edge">values[1]</text></g><g stroke-linecap="round" transform="translate(498.11202239990234 450.5780277252197) rotate(0 196 18)"><path d="M0 0 C146.2 0, 292.4 0, 392 0 M0 0 C85.41 0, 170.83 0, 392 0 M392 0 C392 10.5, 392 20.99, 392 36 M392 0 C392 10.67, 392 21.35, 392 36 M392 36 C276.15 36, 160.29 36, 0 36 M392 36 C310.2 36, 228.39 36, 0 36 M0 36 C0 25.97, 0 15.95, 0 0 M0 36 C0 22.44, 0 8.88, 0 0" stroke="#e67700" stroke-width="1" fill="none"></path></g><g transform="translate(653.1120223999023 457.0780277252197) rotate(0 41 11.5)"><text x="41" y="0" font-family="Helvetica, Segoe UI Emoji" font-size="20px" fill="#e67700" text-anchor="middle" style="white-space: pre;" direction="ltr" dominant-baseline="text-before-edge">values[2]</text></g><g stroke-linecap="round" transform="translate(498.2201156616211 487.5522861480713) rotate(0 196 18)"><path d="M0 0 C114.95 0, 229.91 0, 392 0 M0 0 C93.41 0, 186.81 0, 392 0 M392 0 C392 10.17, 392 20.34, 392 36 M392 0 C392 12.14, 392 24.29, 392 36 M392 36 C274.05 36, 156.09 36, 0 36 M392 36 C270.15 36, 148.3 36, 0 36 M0 36 C0 22.97, 0 9.94, 0 0 M0 36 C0 23.11, 0 10.21, 0 0" stroke="#e67700" stroke-width="1" fill="none"></path></g><g transform="translate(653.2201156616211 494.0522861480713) rotate(0 41 11.5)"><text x="41" y="0" font-family="Helvetica, Segoe UI Emoji" font-size="20px" fill="#e67700" text-anchor="middle" style="white-space: pre;" direction="ltr" dominant-baseline="text-before-edge">values[3]</text></g><g stroke-linecap="round" transform="translate(498.7599868774414 524.061056137085) rotate(0 196 18)"><path d="M0 0 C153.03 0, 306.05 0, 392 0 M0 0 C81.16 0, 162.32 0, 392 0 M392 0 C392 13.38, 392 26.75, 392 36 M392 0 C392 9.78, 392 19.56, 392 36 M392 36 C290.05 36, 188.09 36, 0 36 M392 36 C310.46 36, 228.92 36, 0 36 M0 36 C0 23.13, 0 10.25, 0 0 M0 36 C0 24.34, 0 12.69, 0 0" stroke="#e67700" stroke-width="1" fill="none"></path></g><g transform="translate(653.7599868774414 530.561056137085) rotate(0 41 11.5)"><text x="41" y="0" font-family="Helvetica, Segoe UI Emoji" font-size="20px" fill="#e67700" text-anchor="middle" style="white-space: pre;" direction="ltr" dominant-baseline="text-before-edge">values[4]</text></g><g stroke-linecap="round" transform="translate(498.86808013916016 561.0353145599365) rotate(0 196 18)"><path d="M0 0 C156.05 0, 312.1 0, 392 0 M0 0 C128.35 0, 256.71 0, 392 0 M392 0 C392 7.93, 392 15.86, 392 36 M392 0 C392 8.9, 392 17.79, 392 36 M392 36 C286.88 36, 181.75 36, 0 36 M392 36 C240.73 36, 89.46 36, 0 36 M0 36 C0 25.17, 0 14.34, 0 0 M0 36 C0 25.52, 0 15.03, 0 0" stroke="#e67700" stroke-width="1" fill="none"></path></g><g transform="translate(653.8680801391602 567.5353145599365) rotate(0 41 11.5)"><text x="41" y="0" font-family="Helvetica, Segoe UI Emoji" font-size="20px" fill="#e67700" text-anchor="middle" style="white-space: pre;" direction="ltr" dominant-baseline="text-before-edge">values[5]</text></g><g stroke-linecap="round" transform="translate(500.5713577270508 597.9094524383545) rotate(0 196 18)"><path d="M0 0 C81.43 0, 162.87 0, 392 0 M0 0 C102.21 0, 204.42 0, 392 0 M392 0 C392 13.18, 392 26.36, 392 36 M392 0 C392 9.02, 392 18.03, 392 36 M392 36 C307.58 36, 223.16 36, 0 36 M392 36 C254.54 36, 117.08 36, 0 36 M0 36 C0 23.74, 0 11.49, 0 0 M0 36 C0 25.93, 0 15.86, 0 0" stroke="#e67700" stroke-width="1" fill="none"></path></g><g transform="translate(655.5713577270508 604.4094524383545) rotate(0 41 11.5)"><text x="41" y="0" font-family="Helvetica, Segoe UI Emoji" font-size="20px" fill="#e67700" text-anchor="middle" style="white-space: pre;" direction="ltr" dominant-baseline="text-before-edge">values[6]</text></g><g stroke-linecap="round" transform="translate(500.67945098876953 634.883710861206) rotate(0 196 18)"><path d="M0 0 C88.03 0, 176.07 0, 392 0 M0 0 C105.84 0, 211.67 0, 392 0 M392 0 C392 13.66, 392 27.32, 392 36 M392 0 C392 9.06, 392 18.11, 392 36 M392 36 C257.47 36, 122.94 36, 0 36 M392 36 C245.87 36, 99.74 36, 0 36 M0 36 C0 25.36, 0 14.72, 0 0 M0 36 C0 26.85, 0 17.71, 0 0" stroke="#e67700" stroke-width="1" fill="none"></path></g><g transform="translate(655.6794509887695 641.383710861206) rotate(0 41 11.5)"><text x="41" y="0" font-family="Helvetica, Segoe UI Emoji" font-size="20px" fill="#e67700" text-anchor="middle" style="white-space: pre;" direction="ltr" dominant-baseline="text-before-edge">values[7]</text></g><g stroke-linecap="round" transform="translate(500.6527099609375 671.5436706542969) rotate(0 196 18)"><path d="M0 0 C119.98 0, 239.96 0, 392 0 M0 0 C139.05 0, 278.11 0, 392 0 M392 0 C392 11.32, 392 22.63, 392 36 M392 0 C392 13.8, 392 27.59, 392 36 M392 36 C301.98 36, 211.97 36, 0 36 M392 36 C293.16 36, 194.33 36, 0 36 M0 36 C0 24.03, 0 12.06, 0 0 M0 36 C0 25.6, 0 15.21, 0 0" stroke="#000000" stroke-width="1" fill="none"></path></g><g transform="translate(679.1527099609375 678.0436706542969) rotate(0 17.5 11.5)"><text x="17.5" y="0" font-family="Helvetica, Segoe UI Emoji" font-size="20px" fill="#000000" text-anchor="middle" style="white-space: pre;" direction="ltr" dominant-baseline="text-before-edge">pad</text></g><g stroke-linecap="round" transform="translate(502.65777587890625 708.6982727050781) rotate(0 196 18)"><path d="M0 0 C151.99 0, 303.98 0, 392 0 M0 0 C141.84 0, 283.67 0, 392 0 M392 0 C392 7.71, 392 15.41, 392 36 M392 0 C392 13.84, 392 27.69, 392 36 M392 36 C262.19 36, 132.39 36, 0 36 M392 36 C302.52 36, 213.04 36, 0 36 M0 36 C0 23.39, 0 10.79, 0 0 M0 36 C0 23.71, 0 11.42, 0 0" stroke="#000000" stroke-width="1" fill="none"></path></g><g transform="translate(660.6577758789062 715.1982727050781) rotate(0 38 11.5)"><text x="38" y="0" font-family="Helvetica, Segoe UI Emoji" font-size="20px" fill="#000000" text-anchor="middle" style="white-space: pre;" direction="ltr" dominant-baseline="text-before-edge">overflow</text></g><g stroke-linecap="round"><g transform="translate(385.3575439453125 53.46832275390625) rotate(0 43.870880126953125 0.6543426513671875)"><path d="M0 0 C17.61 0.26, 35.21 0.53, 87.74 1.31 M0 0 C23.4 0.35, 46.79 0.7, 87.74 1.31" stroke="#000000" stroke-width="1" fill="none"></path></g><g transform="translate(385.3575439453125 53.46832275390625) rotate(0 43.870880126953125 0.6543426513671875)"><path d="M87.74 1.31 L74.05 7.44 L74.24 -5.23 L87.74 1.31" stroke="none" stroke-width="0" fill="#000000" fill-rule="evenodd"></path><path d="M87.74 1.31 C85 2.54, 82.25 3.77, 74.05 7.44 M87.74 1.31 C84.09 2.94, 80.44 4.58, 74.05 7.44 M74.05 7.44 C74.11 3.82, 74.16 0.2, 74.24 -5.23 M74.05 7.44 C74.09 4.85, 74.13 2.26, 74.24 -5.23 M74.24 -5.23 C77.78 -3.52, 81.32 -1.8, 87.74 1.31 M74.24 -5.23 C77.81 -3.5, 81.38 -1.78, 87.74 1.31 M87.74 1.31 C87.74 1.31, 87.74 1.31, 87.74 1.31 M87.74 1.31 C87.74 1.31, 87.74 1.31, 87.74 1.31" stroke="#000000" stroke-width="1" fill="none"></path></g></g><mask></mask></svg>