<?xml version="1.0" encoding="us-ascii" standalone="no"?><svg xmlns="http://www.w3.org/2000/svg" xmlns:xlink="http://www.w3.org/1999/xlink" contentStyleType="text/css" height="514px" preserveAspectRatio="none" style="width:502px;height:514px;background:#FFFFFF;" version="1.1" viewBox="0 0 502 514" width="502px" zoomAndPan="magnify"><defs><filter height="300%" id="f14mu3vptnl2xu" width="300%" x="-1" y="-1"><feGaussianBlur result="blurOut" stdDeviation="2.0"/><feColorMatrix in="blurOut" result="blurOut2" type="matrix" values="0 0 0 0 0 0 0 0 0 0 0 0 0 0 0 0 0 0 .4 0"/><feOffset dx="4.0" dy="4.0" in="blurOut2" result="blurOut3"/><feBlend in="SourceGraphic" in2="blurOut3" mode="normal"/></filter></defs><g><text fill="#888888" font-family="sans-serif" font-size="10" lengthAdjust="spacing" textLength="52" x="430" y="19.2822">made by x</text><text fill="#000000" font-family="sans-serif" font-size="14" font-weight="bold" lengthAdjust="spacing" textLength="112" x="190" y="45.6357">&#31243;&#24207;&#20869;&#23384;&#20998;&#24067;&#24773;&#20917;</text><rect fill="#A8EB99" filter="url(#f14mu3vptnl2xu)" height="40.2969" rx="7.5" ry="7.5" style="stroke:#000000;stroke-width:1.0;" width="52" x="10" y="220.6797"/><text fill="#000000" font-family="sans-serif" font-size="14" lengthAdjust="spacing" textLength="28" x="22" y="245.6748">&#31243;&#24207;</text><rect fill="#FBE972" filter="url(#f14mu3vptnl2xu)" height="40.2969" rx="7.5" ry="7.5" style="stroke:#000000;stroke-width:1.0;" width="38" x="112" y="69.9375"/><text fill="#000000" font-family="sans-serif" font-size="14" lengthAdjust="spacing" textLength="14" x="124" y="94.9326">&#26632;</text><rect fill="#FBE972" filter="url(#f14mu3vptnl2xu)" height="40.2969" rx="7.5" ry="7.5" style="stroke:#000000;stroke-width:1.0;" width="154" x="200" y="69.9375"/><text fill="#000000" font-family="sans-serif" font-size="14" lengthAdjust="spacing" textLength="130" x="212" y="94.9326">&#23616;&#37096;&#21464;&#37327;,&#20989;&#25968;&#21442;&#25968;&#31561;</text><path d="M150,90.0859 L160,90.0859 C175,90.0859 175,90.0859 190,90.0859 L200,90.0859 " fill="none" style="stroke:#FF0000;stroke-width:1.0;stroke-dasharray:5.0,5.0;"/><path d="M62,240.8281 L72,240.8281 C87,240.8281 87,90.0859 102,90.0859 L112,90.0859 " fill="none" style="stroke:#008000;stroke-width:1.0;stroke-dasharray:5.0,5.0;"/><rect fill="#94C644" filter="url(#f14mu3vptnl2xu)" height="40.2969" rx="7.5" ry="7.5" style="stroke:#000000;stroke-width:1.0;" width="38" x="112" y="130.2344"/><text fill="#000000" font-family="sans-serif" font-size="14" lengthAdjust="spacing" textLength="14" x="124" y="155.2295">&#22534;</text><path d="M62,240.8281 L72,240.8281 C87,240.8281 87,150.3828 102,150.3828 L112,150.3828 " fill="none" style="stroke:#008000;stroke-width:1.0;stroke-dasharray:5.0,5.0;"/><rect fill="#E0FFFF" filter="url(#f14mu3vptnl2xu)" height="40.2969" rx="7.5" ry="7.5" style="stroke:#000000;stroke-width:1.0;" width="66" x="112" y="190.5313"/><text fill="#000000" font-family="sans-serif" font-size="14" lengthAdjust="spacing" textLength="42" x="124" y="215.5264">&#20840;&#23616;&#21306;</text><rect fill="#E0FFFF" filter="url(#f14mu3vptnl2xu)" height="40.2969" rx="7.5" ry="7.5" style="stroke:#000000;stroke-width:1.0;" width="246" x="228" y="160.3828"/><text fill="#000000" font-family="sans-serif" font-size="14" lengthAdjust="spacing" textLength="222" x="240" y="185.3779">&#21021;&#22987;&#21270;&#30340;&#20840;&#23616;&#21464;&#37327;&#21644;&#38745;&#24577;&#21464;&#37327;(data)</text><path d="M178,210.6797 L188,210.6797 C203,210.6797 203,180.5313 218,180.5313 L228,180.5313 " fill="none" style="stroke:#FF0000;stroke-width:1.0;stroke-dasharray:5.0,5.0;"/><rect fill="#E0FFFF" filter="url(#f14mu3vptnl2xu)" height="40.2969" rx="7.5" ry="7.5" style="stroke:#000000;stroke-width:1.0;" width="255" x="228" y="220.6797"/><text fill="#000000" font-family="sans-serif" font-size="14" lengthAdjust="spacing" textLength="231" x="240" y="245.6748">&#26410;&#21021;&#22987;&#21270;&#30340;&#20840;&#23616;&#21464;&#37327;&#21644;&#38745;&#24577;&#21464;&#37327;(bss)</text><path d="M178,210.6797 L188,210.6797 C203,210.6797 203,240.8281 218,240.8281 L228,240.8281 " fill="none" style="stroke:#FF0000;stroke-width:1.0;stroke-dasharray:5.0,5.0;"/><path d="M62,240.8281 L72,240.8281 C87,240.8281 87,210.6797 102,210.6797 L112,210.6797 " fill="none" style="stroke:#008000;stroke-width:1.0;stroke-dasharray:5.0,5.0;"/><rect fill="#FFFFE0" filter="url(#f14mu3vptnl2xu)" height="40.2969" rx="7.5" ry="7.5" style="stroke:#000000;stroke-width:1.0;" width="104" x="112" y="311.125"/><text fill="#000000" font-family="sans-serif" font-size="14" lengthAdjust="spacing" textLength="80" x="124" y="336.1201">&#24120;&#37327;&#21306;(&#21482;&#35835;)</text><rect fill="#FFFFE0" filter="url(#f14mu3vptnl2xu)" height="40.2969" rx="7.5" ry="7.5" style="stroke:#000000;stroke-width:1.0;" width="108" x="266" y="280.9766"/><text fill="#000000" font-family="sans-serif" font-size="14" lengthAdjust="spacing" textLength="84" x="278" y="305.9717">&#23383;&#31526;&#20018;&#23383;&#38754;&#37327;</text><path d="M216,331.2734 L226,331.2734 C241,331.2734 241,301.125 256,301.125 L266,301.125 " fill="none" style="stroke:#FF0000;stroke-width:1.0;stroke-dasharray:5.0,5.0;"/><rect fill="#FFFFE0" filter="url(#f14mu3vptnl2xu)" height="40.2969" rx="7.5" ry="7.5" style="stroke:#000000;stroke-width:1.0;" width="94" x="266" y="341.2734"/><text fill="#000000" font-family="sans-serif" font-size="14" lengthAdjust="spacing" textLength="70" x="278" y="366.2686">&#23450;&#20041;&#30340;&#24120;&#37327;</text><path d="M216,331.2734 L226,331.2734 C241,331.2734 241,361.4219 256,361.4219 L266,361.4219 " fill="none" style="stroke:#FF0000;stroke-width:1.0;stroke-dasharray:5.0,5.0;"/><path d="M62,240.8281 L72,240.8281 C87,240.8281 87,331.2734 102,331.2734 L112,331.2734 " fill="none" style="stroke:#008000;stroke-width:1.0;stroke-dasharray:5.0,5.0;"/><rect fill="#FFBBCC" filter="url(#f14mu3vptnl2xu)" height="40.2969" rx="7.5" ry="7.5" style="stroke:#000000;stroke-width:1.0;" width="104" x="112" y="371.4219"/><text fill="#000000" font-family="sans-serif" font-size="14" lengthAdjust="spacing" textLength="80" x="124" y="396.417">&#20195;&#30721;&#21306;(&#21482;&#35835;)</text><path d="M62,240.8281 L72,240.8281 C87,240.8281 87,391.5703 102,391.5703 L112,391.5703 " fill="none" style="stroke:#008000;stroke-width:1.0;stroke-dasharray:5.0,5.0;"/><rect fill="#F3FBEC" height="36.2969" id="_legend" rx="0.5" ry="0.5" style="stroke:#F3FBEC;stroke-width:1.0;stroke-dasharray:4.0,4.0;" width="154" x="316" y="433.7188"/><text fill="#808080" font-family="sans-serif" font-size="14" lengthAdjust="spacing" textLength="134" x="326" y="456.7139">&#38745;&#24577;&#21464;&#37327; go&#26159;&#27809;&#26377;&#30340;</text><text fill="#000000" font-family="sans-serif" font-size="14" lengthAdjust="spacing" textLength="27" x="232.5" y="497.0107">&#22270; 1</text><!--SRC=[xLNhJXj75Fu_Jp4IgdmHTJ6O00v253UaYY128KdLNzNOEzWhrhFHUXrmAoG7mZLGeuOaXe0AD0IBrdP2qzQO45x6isk_HSzUZ1t7H5HgqrOAGkkPEPVvpZdVdDCVKucYHaKcHCaTr1jJ4nBjGmvSIMxeQvboxer-aaDC5YZ-3c7u6o628B8mzhQRss6YX4M6lMtcxajP4R-LcKgapoKnpAAKgJW47wgOuY6HqO0ioGeEIYGqVdPsCoA6nXcDnR3NOpaQ075OaUDCiFHRA0bs2zIKtR2E5KOLxEqqZnouF7_0bpBQocvvPxaLQ_aK_6gRIVvil_Beb1UVss0dnMWy-fKeg160R5qr6Y62F664TCc-t84bIiQkGypwnltIwpIVNT2B-zhJLvMVqmvJmo_GEsh4sU6oarA5VBKEyaH4L2t0KsWADLeqrvv2YYohrslPTfZv6JMAWhizRPSxR8XDSj1Gc7SoIBffiAS7hgW6PrzHAqfObeJpCzpWlrajQwdqdLV7iI3jwMe754HHv8aw25QCdU_XH1rGXL867EMfl4LGp5zEGucWN5ZFPVcpLzhs7_nrghvMtlfQrLmfL3YhaGExtUvliFPaMzkPWtzmLrwQrgUFO64x3CgJae79SZK8LBVS24GPjr0P-GrJ9ZH6vditiqs9q3BM0JaADKHSVtfMYBO6400WOOPHcLs1f9GAoLBX82IHMCp9Jnvg2wlcseNBf-j6EAbywNYlT9hJrewq7rT1bLcCjqDrOFt-xtprUxwPmURxXtLbQzV8yMLxZKidfz0aS6-l8iTeNn_cAx-2M-GnjdL4Vui1WuC30u60YPEVlEGFLyhvFIlD08UdbdXknW2ncDGs5tbsbMVNBIdo38dXY1f848RTpNsVAO1tZsHi4bIIW6Rdw5i6NviwDiljh9XnGPxq_HNjyH6aGzlQm-KNCvNTpVBYOIlc-IDUN2kVfW6aMNpA7BQ7nai-CO5GvhImjEBEDfU1x_tGQW_52iGarxbnjFJuGfTyFaFRUCJdwPaFV0hrVcPt-H2veueom_pf6s2ZAgh0KptpW1TJV6wMPzDyOOuNPhIPMJxt6tBR8kHsOsrx0OfkHT3N1oTkU879oao6fzAL-LGhdp_H7htWgMduwjb5muHlpu59BHRJ3FFP31ZovIB8pgfNzRYmnVSVyEN7G0TRp_JEVrYkRArhoNlMrYaGbRXC2stpuA96GNW89e12mP0k5vqyTL3E7xkg8DyEBlj4_-LvgN082-0zM5Z7kOtIqQ9na-d5y5Sw_adVlbVdh_esK8GI0UPW5BuucC2J29g4VMPr3AmOzw9wc50nBPtN3dU0Pd2DOO8jPTGFd-hKHlrDX_X_VMfVS1n_i67xmOVglpz3_zg0_3zClulDddzubdnixn_R-z_OtaSamjHRmqFuBbLYHaMzdlQszWvFbtDG4Q6D9g0_OM-Nlxt3xsl7jsu6i25s8UVLaI4Sa-DAY691ZAcA68mRZ72XQ-GkmJVYJ1MZr8zPN9BGjTl3VZmQ3u8QKIc-FOo-e6CaBgdu2Wl9nflpW-l1JxlH467XE0bN3GF0G5L9MBi_0G00]--></g></svg>