<?xml version="1.0" encoding="us-ascii" standalone="no"?><svg xmlns="http://www.w3.org/2000/svg" xmlns:xlink="http://www.w3.org/1999/xlink" contentStyleType="text/css" height="544px" preserveAspectRatio="none" style="width:502px;height:544px;background:#FFFFFF;" version="1.1" viewBox="0 0 502 544" width="502px" zoomAndPan="magnify"><defs><filter height="300%" id="fcvkx74g1dvl0" width="300%" x="-1" y="-1"><feGaussianBlur result="blurOut" stdDeviation="2.0"/><feColorMatrix in="blurOut" result="blurOut2" type="matrix" values="0 0 0 0 0 0 0 0 0 0 0 0 0 0 0 0 0 0 .4 0"/><feOffset dx="4.0" dy="4.0" in="blurOut2" result="blurOut3"/><feBlend in="SourceGraphic" in2="blurOut3" mode="normal"/></filter></defs><g><text fill="#888888" font-family="sans-serif" font-size="10" lengthAdjust="spacing" textLength="52" x="430" y="19.2822">made by x</text><text fill="#000000" font-family="sans-serif" font-size="14" font-weight="bold" lengthAdjust="spacing" textLength="112" x="190" y="45.6357">&#31243;&#24207;&#20869;&#23384;&#20998;&#24067;&#24773;&#20917;</text><rect fill="#A8EB99" filter="url(#fcvkx74g1dvl0)" height="40.2969" rx="7.5" ry="7.5" style="stroke:#000000;stroke-width:1.0;" width="52" x="10" y="235.7539"/><text fill="#000000" font-family="sans-serif" font-size="14" lengthAdjust="spacing" textLength="28" x="22" y="260.749">&#31243;&#24207;</text><rect fill="#FBE972" filter="url(#fcvkx74g1dvl0)" height="40.2969" rx="7.5" ry="7.5" style="stroke:#000000;stroke-width:1.0;" width="38" x="112" y="69.9375"/><text fill="#000000" font-family="sans-serif" font-size="14" lengthAdjust="spacing" textLength="14" x="124" y="94.9326">&#26632;</text><rect fill="#FBE972" filter="url(#fcvkx74g1dvl0)" height="40.2969" rx="7.5" ry="7.5" style="stroke:#000000;stroke-width:1.0;" width="154" x="200" y="69.9375"/><text fill="#000000" font-family="sans-serif" font-size="14" lengthAdjust="spacing" textLength="130" x="212" y="94.9326">&#23616;&#37096;&#21464;&#37327;,&#20989;&#25968;&#21442;&#25968;&#31561;</text><path d="M150,90.0859 L160,90.0859 C175,90.0859 175,90.0859 190,90.0859 L200,90.0859 " fill="none" style="stroke:#FF0000;stroke-width:1.0;stroke-dasharray:5.0,5.0;"/><path d="M62,255.9023 L72,255.9023 C87,255.9023 87,90.0859 102,90.0859 L112,90.0859 " fill="none" style="stroke:#008000;stroke-width:1.0;stroke-dasharray:5.0,5.0;"/><rect fill="#94C644" filter="url(#fcvkx74g1dvl0)" height="40.2969" rx="7.5" ry="7.5" style="stroke:#000000;stroke-width:1.0;" width="38" x="112" y="130.2344"/><text fill="#000000" font-family="sans-serif" font-size="14" lengthAdjust="spacing" textLength="14" x="124" y="155.2295">&#22534;</text><rect fill="#94C644" filter="url(#fcvkx74g1dvl0)" height="40.2969" rx="7.5" ry="7.5" style="stroke:#000000;stroke-width:1.0;" width="262" x="200" y="130.2344"/><text fill="#000000" font-family="sans-serif" font-size="14" lengthAdjust="spacing" textLength="238" x="212" y="155.2295">&#22534;&#19978;&#20998;&#37197;&#30340;&#20869;&#23384;&#24517;&#23450;&#26377;&#19968;&#20010;&#25351;&#38024;&#25351;&#21521;&#23427;</text><path d="M150,150.3828 L160,150.3828 C175,150.3828 175,150.3828 190,150.3828 L200,150.3828 " fill="none" style="stroke:#FF0000;stroke-width:1.0;stroke-dasharray:5.0,5.0;"/><path d="M62,255.9023 L72,255.9023 C87,255.9023 87,150.3828 102,150.3828 L112,150.3828 " fill="none" style="stroke:#008000;stroke-width:1.0;stroke-dasharray:5.0,5.0;"/><rect fill="#E0FFFF" filter="url(#fcvkx74g1dvl0)" height="40.2969" rx="7.5" ry="7.5" style="stroke:#000000;stroke-width:1.0;" width="66" x="112" y="220.6797"/><text fill="#000000" font-family="sans-serif" font-size="14" lengthAdjust="spacing" textLength="42" x="124" y="245.6748">&#20840;&#23616;&#21306;</text><rect fill="#E0FFFF" filter="url(#fcvkx74g1dvl0)" height="40.2969" rx="7.5" ry="7.5" style="stroke:#000000;stroke-width:1.0;" width="246" x="228" y="190.5313"/><text fill="#000000" font-family="sans-serif" font-size="14" lengthAdjust="spacing" textLength="222" x="240" y="215.5264">&#21021;&#22987;&#21270;&#30340;&#20840;&#23616;&#21464;&#37327;&#21644;&#38745;&#24577;&#21464;&#37327;(data)</text><path d="M178,240.8281 L188,240.8281 C203,240.8281 203,210.6797 218,210.6797 L228,210.6797 " fill="none" style="stroke:#FF0000;stroke-width:1.0;stroke-dasharray:5.0,5.0;"/><rect fill="#E0FFFF" filter="url(#fcvkx74g1dvl0)" height="40.2969" rx="7.5" ry="7.5" style="stroke:#000000;stroke-width:1.0;" width="255" x="228" y="250.8281"/><text fill="#000000" font-family="sans-serif" font-size="14" lengthAdjust="spacing" textLength="231" x="240" y="275.8232">&#26410;&#21021;&#22987;&#21270;&#30340;&#20840;&#23616;&#21464;&#37327;&#21644;&#38745;&#24577;&#21464;&#37327;(bss)</text><path d="M178,240.8281 L188,240.8281 C203,240.8281 203,270.9766 218,270.9766 L228,270.9766 " fill="none" style="stroke:#FF0000;stroke-width:1.0;stroke-dasharray:5.0,5.0;"/><path d="M62,255.9023 L72,255.9023 C87,255.9023 87,240.8281 102,240.8281 L112,240.8281 " fill="none" style="stroke:#008000;stroke-width:1.0;stroke-dasharray:5.0,5.0;"/><rect fill="#FFFFE0" filter="url(#fcvkx74g1dvl0)" height="40.2969" rx="7.5" ry="7.5" style="stroke:#000000;stroke-width:1.0;" width="104" x="112" y="341.2734"/><text fill="#000000" font-family="sans-serif" font-size="14" lengthAdjust="spacing" textLength="80" x="124" y="366.2686">&#24120;&#37327;&#21306;(&#21482;&#35835;)</text><rect fill="#FFFFE0" filter="url(#fcvkx74g1dvl0)" height="40.2969" rx="7.5" ry="7.5" style="stroke:#000000;stroke-width:1.0;" width="108" x="266" y="311.125"/><text fill="#000000" font-family="sans-serif" font-size="14" lengthAdjust="spacing" textLength="84" x="278" y="336.1201">&#23383;&#31526;&#20018;&#23383;&#38754;&#37327;</text><path d="M216,361.4219 L226,361.4219 C241,361.4219 241,331.2734 256,331.2734 L266,331.2734 " fill="none" style="stroke:#FF0000;stroke-width:1.0;stroke-dasharray:5.0,5.0;"/><rect fill="#FFFFE0" filter="url(#fcvkx74g1dvl0)" height="40.2969" rx="7.5" ry="7.5" style="stroke:#000000;stroke-width:1.0;" width="94" x="266" y="371.4219"/><text fill="#000000" font-family="sans-serif" font-size="14" lengthAdjust="spacing" textLength="70" x="278" y="396.417">&#23450;&#20041;&#30340;&#24120;&#37327;</text><path d="M216,361.4219 L226,361.4219 C241,361.4219 241,391.5703 256,391.5703 L266,391.5703 " fill="none" style="stroke:#FF0000;stroke-width:1.0;stroke-dasharray:5.0,5.0;"/><path d="M62,255.9023 L72,255.9023 C87,255.9023 87,361.4219 102,361.4219 L112,361.4219 " fill="none" style="stroke:#008000;stroke-width:1.0;stroke-dasharray:5.0,5.0;"/><rect fill="#FFBBCC" filter="url(#fcvkx74g1dvl0)" height="40.2969" rx="7.5" ry="7.5" style="stroke:#000000;stroke-width:1.0;" width="104" x="112" y="401.5703"/><text fill="#000000" font-family="sans-serif" font-size="14" lengthAdjust="spacing" textLength="80" x="124" y="426.5654">&#20195;&#30721;&#21306;(&#21482;&#35835;)</text><path d="M62,255.9023 L72,255.9023 C87,255.9023 87,421.7188 102,421.7188 L112,421.7188 " fill="none" style="stroke:#008000;stroke-width:1.0;stroke-dasharray:5.0,5.0;"/><rect fill="#F3FBEC" height="36.2969" id="_legend" rx="0.5" ry="0.5" style="stroke:#F3FBEC;stroke-width:1.0;stroke-dasharray:4.0,4.0;" width="154" x="316" y="463.8672"/><text fill="#808080" font-family="sans-serif" font-size="14" lengthAdjust="spacing" textLength="134" x="326" y="486.8623">&#38745;&#24577;&#21464;&#37327; go&#26159;&#27809;&#26377;&#30340;</text><text fill="#000000" font-family="sans-serif" font-size="14" lengthAdjust="spacing" textLength="27" x="232.5" y="527.1592">&#22270; 1</text><!--SRC=[xLNjJrfd5Fz-_uedCGilSKmGgr9Zd6nsQRGnjUsoJyi3zn5klDpRN2vLjfXG5KIBmxMsHQiPkbg96z2wRaMivP_XkHV-YvtxWb2AZVkmhajgpELvEI-_ypldF6SaB6D93d426yAtcQ6m7EN9C6D1zTYMkf6h5TwefmL645c2VcGG_4rYbkM407AwzEq4bWASW9mz-kuRKU9-40KPyr_oN4084K56VlWGIRyUvmJY5NbHGZuU-sVEpcu4EV-CGC9Xv7GOXaRXEY294O4rvBi8zWsmHB-xRXnB0f6Giqy_ig3QyY5TpIbhUxNTL3TIYcduLRPZzEb1_M65bf-POEUuK2JqBSVAGO1ik9eAObQSrKAwP3gt89xWwMiGixgrL7sTeV6aMZvGdhoi_vQnw18UbjoMWzPUcqbA0_AL5iYpGKus0CypyqoxHcVfUKOIHVbQassBpi-KbXGquEYvt6j2xC11MsBUOH0F4D_W8BXe16UwQ2Ob8FBi-GotsU-KooQLxlFoEEqZW_qkG84bIPnjWM34sFUUccW1AX4YG8tITD4eK4HVB42A85r8BUJfqvTAzXLzdMxDbRCrLqrJ4c7FScH1ThlzUwGypYgx2VW7SxNL1NNX61QcGPyunskO35DZKEg66HPBCmOgZTy04TZsoDplCjkn4BgcUu4ZVrl4hQTdYUXf0m40edeOzVWQa58jnQgbGp-Fms4hFNsW9DVrjGtLAfjQEEbYzMI_MYae6yVAB-iWAXWLRuPgGUhINtJz9xgTGth_mxg-iwTnVDbSe-ff1Hu9D3GaYM4oF8pesXzWbd5esvP2Vwi2niP6HxrU7ISzVK4VhDMA-mRD08UcLsbXKGEn4bEsLsX-dUOtZLl6CSu5Wh8tYWLaxspxJ02iEtXj4oKy3sLsZhoXy9qkOrQvoOeU5_2a7gmfZuw13cLd7zMUBzRtjcihHzs85ezfUQDMoG18FVb4i9WMsfryfWCXWjN0qetwUcmQllT3QpQA4OXUNEV6qJNezbzokpLfhOdFazCRV9uP-i9yvVtujio90g9Fta0rofmCTQhcxj5ocYRYD9-XoGGjBIgBSPhuax6RLupTZfHi4f9kH30y32TswC1OVJ57qvdwShgRBfyg3v_Jz09yrVoAfaAp2L1fnj9GooQgfLLmfDNirfBfjnAdXIsWrYXX9RLSlv-4Brt_6Qf3jnRFWKEQAeFDiwmtJ2PtwC4zcdgasJFaT5JqVgg-iwd4xXfRAujbRDCrbEt3Yohve85q0AMITfigMsdwi5OyiJM2UvkK_6FrzsVLqX4ie5z0mpWkR5MFLpHFkXNDNlNaLpLxjyLUewUO8C4ipCyGV94lYkOOU5pCC-EbGPBcbsc52PbMCaNbQ1Su13UQ2ZA4cH7uDAOzCz9n-7_iq_w2O_o33UaFFep_-zdxpmRh_s5gNcnc_SipwDDO-3GMFeAnCCbZGRuvCOxk42ciLOBJuUfnzJhwhMCI1yzl5DurvEptk7ezRXUwUSEBj6iROxqoEOx2OaJo4yHoOLdYV16jacpCLNm7e-iHGUP2n8E42CypLszDUD1Kn0TYM2RerWJp5Pd64Lv6Nmj-KUjL3vWU-to06ST288833KKlLAuiHOtTtm00]--></g></svg>