<svg version="1.1" xmlns="http://www.w3.org/2000/svg" viewBox="0 0 176.4951171875 177.7977294921875" width="176.4951171875" height="177.7977294921875">
  <!-- svg-source:excalidraw -->
  
  <defs>
    <style class="style-fonts">
      @font-face {
        font-family: "Virgil";
        src: url("https://unpkg.com/@excalidraw/excalidraw@0.15.3/dist/excalidraw-assets/Virgil.woff2");
      }
      @font-face {
        font-family: "Cascadia";
        src: url("https://unpkg.com/@excalidraw/excalidraw@0.15.3/dist/excalidraw-assets/Cascadia.woff2");
      }
    </style>
  </defs>
  <rect x="0" y="0" width="176.4951171875" height="177.7977294921875" fill="#ffffff"></rect><g stroke-linecap="round" transform="translate(10 46.55792236328125) rotate(0 78 30.5)"><path d="M0 0 C0 0, 0 0, 0 0 M0 0 C0 0, 0 0, 0 0 M-0.26 6.4 C1.21 4.71, 2.67 3.02, 4.99 0.36 M-0.26 6.4 C1.69 4.16, 3.63 1.92, 4.99 0.36 M0.13 12.04 C3.03 8.71, 5.93 5.38, 10.63 -0.03 M0.13 12.04 C2.62 9.18, 5.11 6.32, 10.63 -0.03 M-0.13 18.44 C3.41 14.37, 6.95 10.29, 15.62 0.33 M-0.13 18.44 C4.11 13.56, 8.35 8.68, 15.62 0.33 M0.27 24.08 C6.32 17.12, 12.37 10.15, 21.26 -0.07 M0.27 24.08 C7.48 15.78, 14.7 7.47, 21.26 -0.07 M0 30.48 C8.26 20.98, 16.52 11.48, 26.25 0.29 M0 30.48 C6.63 22.86, 13.25 15.24, 26.25 0.29 M-0.26 36.88 C12.04 22.73, 24.33 8.59, 31.89 -0.1 M-0.26 36.88 C8.1 27.27, 16.45 17.65, 31.89 -0.1 M0.14 42.52 C12.79 27.97, 25.43 13.42, 36.88 0.26 M0.14 42.52 C9.7 31.52, 19.26 20.52, 36.88 0.26 M-0.12 48.92 C15.68 30.74, 31.48 12.56, 42.52 -0.14 M-0.12 48.92 C14.07 32.59, 28.26 16.26, 42.52 -0.14 M0.27 54.56 C14.12 38.63, 27.98 22.69, 47.51 0.22 M0.27 54.56 C14.37 38.34, 28.47 22.13, 47.51 0.22 M0.01 60.96 C18.59 39.59, 37.16 18.22, 53.15 -0.17 M0.01 60.96 C14.67 44.09, 29.33 27.23, 53.15 -0.17 M3.03 63.58 C20.98 42.94, 38.93 22.29, 58.14 0.19 M3.03 63.58 C16.15 48.49, 29.27 33.4, 58.14 0.19 M8.02 63.94 C24.78 44.66, 41.55 25.37, 63.78 -0.21 M8.02 63.94 C28.54 40.33, 49.07 16.72, 63.78 -0.21 M13.66 63.55 C35.15 38.83, 56.64 14.11, 68.77 0.15 M13.66 63.55 C25.55 49.86, 37.45 36.18, 68.77 0.15 M18.65 63.91 C34.78 45.34, 50.92 26.78, 74.41 -0.24 M18.65 63.91 C32.81 47.62, 46.97 31.32, 74.41 -0.24 M24.29 63.51 C36.35 49.64, 48.41 35.77, 79.4 0.12 M24.29 63.51 C37.2 48.66, 50.11 33.81, 79.4 0.12 M29.28 63.87 C44.1 46.83, 58.92 29.78, 85.04 -0.28 M29.28 63.87 C48.45 41.82, 67.62 19.77, 85.04 -0.28 M34.92 63.48 C53.07 42.6, 71.22 21.72, 90.03 0.08 M34.92 63.48 C54.83 40.58, 74.74 17.67, 90.03 0.08 M39.91 63.84 C54.63 46.9, 69.36 29.96, 95.67 -0.31 M39.91 63.84 C51.8 50.16, 63.7 36.47, 95.67 -0.31 M45.55 63.45 C57.85 49.29, 70.15 35.14, 100.66 0.05 M45.55 63.45 C63.77 42.49, 81.98 21.53, 100.66 0.05 M50.54 63.81 C61.86 50.78, 73.18 37.76, 106.3 -0.34 M50.54 63.81 C61.91 50.72, 73.29 37.63, 106.3 -0.34 M56.18 63.41 C77.46 38.93, 98.74 14.45, 111.29 0.02 M56.18 63.41 C74.99 41.77, 93.8 20.13, 111.29 0.02 M61.17 63.77 C76.91 45.66, 92.65 27.55, 116.27 0.38 M61.17 63.77 C73.46 49.63, 85.75 35.49, 116.27 0.38 M66.81 63.38 C82.71 45.09, 98.61 26.79, 121.92 -0.02 M66.81 63.38 C81.06 46.98, 95.31 30.59, 121.92 -0.02 M71.8 63.74 C93.81 38.41, 115.83 13.08, 126.91 0.34 M71.8 63.74 C90.7 41.99, 109.6 20.25, 126.91 0.34 M77.44 63.34 C98.65 38.94, 119.86 14.54, 132.55 -0.05 M77.44 63.34 C89.16 49.85, 100.89 36.36, 132.55 -0.05 M82.43 63.7 C99.86 43.65, 117.29 23.6, 137.54 0.31 M82.43 63.7 C93.57 50.88, 104.72 38.05, 137.54 0.31 M88.07 63.31 C105.39 43.38, 122.72 23.45, 143.18 -0.09 M88.07 63.31 C99.09 50.63, 110.11 37.95, 143.18 -0.09 M93.06 63.67 C109.17 45.13, 125.28 26.6, 148.17 0.27 M93.06 63.67 C104.34 50.68, 115.63 37.7, 148.17 0.27 M98.7 63.27 C115.24 44.24, 131.79 25.21, 153.81 -0.12 M98.7 63.27 C114.25 45.39, 129.79 27.5, 153.81 -0.12 M103.69 63.63 C118.11 47.04, 132.53 30.45, 157.48 1.75 M103.69 63.63 C120.91 43.82, 138.14 24, 157.48 1.75 M109.33 63.24 C126.33 43.68, 143.34 24.11, 157.88 7.39 M109.33 63.24 C128.09 41.66, 146.85 20.08, 157.88 7.39 M114.32 63.6 C125.95 50.22, 137.58 36.84, 157.62 13.79 M114.32 63.6 C126.6 49.47, 138.88 35.35, 157.62 13.79 M119.3 63.96 C129.24 52.53, 139.17 41.1, 158.01 19.43 M119.3 63.96 C131.15 50.33, 142.99 36.71, 158.01 19.43 M124.95 63.56 C131.61 55.9, 138.28 48.23, 157.75 25.83 M124.95 63.56 C137.93 48.63, 150.92 33.69, 157.75 25.83 M129.93 63.92 C140.84 51.37, 151.75 38.82, 157.49 32.23 M129.93 63.92 C138.19 54.43, 146.44 44.94, 157.49 32.23 M135.58 63.53 C141.5 56.72, 147.42 49.9, 157.88 37.87 M135.58 63.53 C142.79 55.23, 150.01 46.93, 157.88 37.87 M140.56 63.89 C146.17 57.44, 151.78 50.98, 157.62 44.27 M140.56 63.89 C145.53 58.18, 150.5 52.46, 157.62 44.27 M146.21 63.49 C150.15 58.96, 154.09 54.43, 158.02 49.91 M146.21 63.49 C149.73 59.44, 153.26 55.38, 158.02 49.91 M151.19 63.86 C152.51 62.34, 153.83 60.82, 157.75 56.31 M151.19 63.86 C152.97 61.81, 154.75 59.77, 157.75 56.31" stroke="#fab005" stroke-width="0.5" fill="none"></path><path d="M0 0 C42.01 0, 84.01 0, 156 0 M0 0 C58.98 0, 117.97 0, 156 0 M156 0 C156 22.17, 156 44.34, 156 61 M156 0 C156 24.27, 156 48.54, 156 61 M156 61 C114.21 61, 72.43 61, 0 61 M156 61 C111.13 61, 66.25 61, 0 61 M0 61 C0 44.65, 0 28.31, 0 0 M0 61 C0 43.71, 0 26.41, 0 0" stroke="#000000" stroke-width="1" fill="none"></path></g><g transform="translate(46 65.55792236328125) rotate(0 42 11.5)"><text x="42" y="0" font-family="Helvetica, Segoe UI Emoji" font-size="20px" fill="#000000" text-anchor="middle" style="white-space: pre;" direction="ltr" dominant-baseline="text-before-edge">RDB格式</text></g><g stroke-linecap="round" transform="translate(10.4951171875 106.7977294921875) rotate(0 78 30.5)"><path d="M0 0 C0 0, 0 0, 0 0 M0 0 C0 0, 0 0, 0 0 M-0.26 6.4 C1.13 4.8, 2.52 3.2, 4.99 0.36 M-0.26 6.4 C1.66 4.19, 3.58 1.98, 4.99 0.36 M0.13 12.04 C2.57 9.24, 5 6.44, 10.63 -0.03 M0.13 12.04 C3.08 8.66, 6.02 5.27, 10.63 -0.03 M-0.13 18.44 C5.67 11.77, 11.46 5.1, 15.62 0.33 M-0.13 18.44 C4.9 12.66, 9.92 6.88, 15.62 0.33 M0.27 24.08 C4.59 19.11, 8.91 14.14, 21.26 -0.07 M0.27 24.08 C4.69 18.99, 9.12 13.9, 21.26 -0.07 M0 30.48 C8.38 20.85, 16.75 11.22, 26.25 0.29 M0 30.48 C10.23 18.72, 20.45 6.96, 26.25 0.29 M-0.26 36.88 C8.74 26.53, 17.73 16.18, 31.89 -0.1 M-0.26 36.88 C10.62 24.36, 21.5 11.84, 31.89 -0.1 M0.14 42.52 C8 33.48, 15.86 24.43, 36.88 0.26 M0.14 42.52 C12.38 28.43, 24.63 14.35, 36.88 0.26 M-0.12 48.92 C15.14 31.36, 30.41 13.8, 42.52 -0.14 M-0.12 48.92 C16.36 29.95, 32.85 10.99, 42.52 -0.14 M0.27 54.56 C10.41 42.89, 20.55 31.23, 47.51 0.22 M0.27 54.56 C18.73 33.32, 37.2 12.08, 47.51 0.22 M0.01 60.96 C16.48 42.01, 32.95 23.06, 53.15 -0.17 M0.01 60.96 C13.98 44.89, 27.95 28.81, 53.15 -0.17 M3.03 63.58 C22.24 41.48, 41.45 19.38, 58.14 0.19 M3.03 63.58 C18.86 45.38, 34.68 27.17, 58.14 0.19 M8.02 63.94 C28.7 40.15, 49.38 16.36, 63.78 -0.21 M8.02 63.94 C22.5 47.28, 36.98 30.63, 63.78 -0.21 M13.66 63.55 C30.67 43.98, 47.68 24.41, 68.77 0.15 M13.66 63.55 C26.42 48.86, 39.19 34.18, 68.77 0.15 M18.65 63.91 C37.7 41.99, 56.75 20.07, 74.41 -0.24 M18.65 63.91 C32.77 47.66, 46.9 31.4, 74.41 -0.24 M24.29 63.51 C38.26 47.44, 52.24 31.36, 79.4 0.12 M24.29 63.51 C41.81 43.36, 59.33 23.21, 79.4 0.12 M29.28 63.87 C50.95 38.94, 72.63 14.01, 85.04 -0.28 M29.28 63.87 C46.27 44.32, 63.27 24.76, 85.04 -0.28 M34.92 63.48 C46.36 50.32, 57.8 37.15, 90.03 0.08 M34.92 63.48 C52.78 42.94, 70.63 22.4, 90.03 0.08 M39.91 63.84 C53.52 48.18, 67.13 32.53, 95.67 -0.31 M39.91 63.84 C54.37 47.2, 68.83 30.56, 95.67 -0.31 M45.55 63.45 C59.91 46.92, 74.28 30.4, 100.66 0.05 M45.55 63.45 C62.77 43.63, 79.99 23.82, 100.66 0.05 M50.54 63.81 C62 50.62, 73.45 37.44, 106.3 -0.34 M50.54 63.81 C69.87 41.57, 89.19 19.33, 106.3 -0.34 M56.18 63.41 C76.47 40.07, 96.76 16.73, 111.29 0.02 M56.18 63.41 C68.86 48.82, 81.55 34.23, 111.29 0.02 M61.17 63.77 C79.7 42.45, 98.23 21.13, 116.27 0.38 M61.17 63.77 C82.14 39.64, 103.11 15.52, 116.27 0.38 M66.81 63.38 C86.17 41.1, 105.54 18.82, 121.92 -0.02 M66.81 63.38 C83.79 43.84, 100.77 24.3, 121.92 -0.02 M71.8 63.74 C86.42 46.91, 101.05 30.08, 126.91 0.34 M71.8 63.74 C91.62 40.94, 111.44 18.14, 126.91 0.34 M77.44 63.34 C93.81 44.51, 110.18 25.68, 132.55 -0.05 M77.44 63.34 C91.88 46.73, 106.33 30.11, 132.55 -0.05 M82.43 63.7 C103.78 39.14, 125.14 14.57, 137.54 0.31 M82.43 63.7 C97.12 46.8, 111.81 29.9, 137.54 0.31 M88.07 63.31 C107.77 40.65, 127.47 17.99, 143.18 -0.09 M88.07 63.31 C104.16 44.8, 120.25 26.29, 143.18 -0.09 M93.06 63.67 C107.53 47.01, 122.01 30.36, 148.17 0.27 M93.06 63.67 C107.86 46.64, 122.66 29.62, 148.17 0.27 M98.7 63.27 C118.03 41.04, 137.36 18.8, 153.81 -0.12 M98.7 63.27 C114.24 45.39, 129.78 27.51, 153.81 -0.12 M103.69 63.63 C115.35 50.21, 127.02 36.79, 157.48 1.75 M103.69 63.63 C120.74 44.01, 137.8 24.39, 157.48 1.75 M109.33 63.24 C126.83 43.11, 144.33 22.97, 157.88 7.39 M109.33 63.24 C119.09 52.01, 128.85 40.79, 157.88 7.39 M114.32 63.6 C129.1 46.59, 143.88 29.59, 157.62 13.79 M114.32 63.6 C129.38 46.27, 144.45 28.94, 157.62 13.79 M119.3 63.96 C132.31 49, 145.31 34.04, 158.01 19.43 M119.3 63.96 C130.99 50.51, 142.68 37.06, 158.01 19.43 M124.95 63.56 C134.57 52.49, 144.2 41.42, 157.75 25.83 M124.95 63.56 C134.18 52.94, 143.41 42.32, 157.75 25.83 M129.93 63.92 C137.98 54.67, 146.03 45.41, 157.49 32.23 M129.93 63.92 C138.82 53.7, 147.7 43.48, 157.49 32.23 M135.58 63.53 C142.17 55.94, 148.77 48.36, 157.88 37.87 M135.58 63.53 C140.54 57.82, 145.5 52.12, 157.88 37.87 M140.56 63.89 C145.84 57.82, 151.12 51.75, 157.62 44.27 M140.56 63.89 C145.41 58.31, 150.26 52.74, 157.62 44.27 M146.21 63.49 C150.18 58.92, 154.15 54.35, 158.02 49.91 M146.21 63.49 C149.27 59.97, 152.34 56.44, 158.02 49.91 M151.19 63.86 C153.38 61.33, 155.58 58.81, 157.75 56.31 M151.19 63.86 C153.12 61.64, 155.04 59.43, 157.75 56.31" stroke="#fab005" stroke-width="0.5" fill="none"></path><path d="M0 0 C55.7 0, 111.41 0, 156 0 M0 0 C31.71 0, 63.43 0, 156 0 M156 0 C156 21.12, 156 42.23, 156 61 M156 0 C156 12.64, 156 25.28, 156 61 M156 61 C93.98 61, 31.96 61, 0 61 M156 61 C118.71 61, 81.42 61, 0 61 M0 61 C0 37.86, 0 14.71, 0 0 M0 61 C0 45.29, 0 29.58, 0 0" stroke="#000000" stroke-width="1" fill="none"></path></g><g transform="translate(46.9951171875 125.7977294921875) rotate(0 41.5 11.5)"><text x="41.5" y="0" font-family="Helvetica, Segoe UI Emoji" font-size="20px" fill="#000000" text-anchor="middle" style="white-space: pre;" direction="ltr" dominant-baseline="text-before-edge">AOF格式</text></g><g transform="translate(19.41473388671875 10) rotate(0 68.5 11.5)"><text x="0" y="0" font-family="Helvetica, Segoe UI Emoji" font-size="20px" fill="#000000" text-anchor="start" style="white-space: pre;" direction="ltr" dominant-baseline="text-before-edge">appendonly.aof</text></g></svg>