<?xml version="1.0" encoding="us-ascii" standalone="no"?><svg xmlns="http://www.w3.org/2000/svg" xmlns:xlink="http://www.w3.org/1999/xlink" contentStyleType="text/css" height="692px" preserveAspectRatio="none" style="width:1002px;height:692px;background:#FFFFFF;" version="1.1" viewBox="0 0 1002 692" width="1002px" zoomAndPan="magnify"><defs><filter height="1" id="bt9bnnn0xkx0c0" width="1" x="0" y="0"><feFlood flood-color="#FFA500" result="flood"/><feComposite in="SourceGraphic" in2="flood" operator="over"/></filter><filter height="1" id="bt9bnnn0xkx0c1" width="1" x="0" y="0"><feFlood flood-color="#FFFF00" result="flood"/><feComposite in="SourceGraphic" in2="flood" operator="over"/></filter></defs><g><rect fill="#F1F1F1" height="36.2969" rx="12.5" ry="12.5" style="stroke:#181818;stroke-width:1.5;" width="62" x="10" y="327.1484"/><text fill="#000000" font-family="sans-serif" font-size="14" lengthAdjust="spacing" textLength="42" x="20" y="350.1436">&#25345;&#20037;&#21270;</text><rect fill="#FFBBCC" height="36.2969" rx="12.5" ry="12.5" style="stroke:#181818;stroke-width:1.5;" width="164" x="122" y="37.5938"/><text fill="#000000" font-family="sans-serif" font-size="14" lengthAdjust="spacing" textLength="140" x="132" y="60.5889">&#30452;&#25509;&#25346;&#36733;&#21367;&#23384;&#22312;&#30340;&#38382;&#39064;</text><text fill="#000000" font-family="sans-serif" font-size="14" lengthAdjust="spacing" textLength="343" x="339" y="23.9951">&#24403;&#26576;&#20010;&#25968;&#25454;&#21367;&#19981;&#20877;&#34987;&#25346;&#36733;&#20351;&#29992;&#26102;&#65292;&#37324;&#38754;&#30340;&#25968;&#25454;&#22914;&#20309;&#22788;&#29702;?</text><path d="M286,55.7422 L296,55.7422 C311,55.7422 311,19.1484 326,19.1484 L336,19.1484 " fill="none" style="stroke:#181818;stroke-width:1.0;"/><text fill="#000000" font-family="sans-serif" font-size="14" lengthAdjust="spacing" textLength="119" x="339" y="42.292">&#22914;&#20309;&#23454;&#29616;&#21482;&#35835;&#25346;&#36733;?</text><path d="M286,55.7422 L296,55.7422 C311,55.7422 311,37.4453 326,37.4453 L336,37.4453 " fill="none" style="stroke:#181818;stroke-width:1.0;"/><text fill="#000000" font-family="sans-serif" font-size="14" lengthAdjust="spacing" textLength="174" x="339" y="60.5889">&#22914;&#20309;&#23454;&#29616;&#21482;&#35753;&#19968;&#20010;Pod&#25346;&#36733;?</text><path d="M286,55.7422 L296,55.7422 C311,55.7422 311,55.7422 326,55.7422 L336,55.7422 " fill="none" style="stroke:#181818;stroke-width:1.0;"/><text fill="#000000" font-family="sans-serif" font-size="14" lengthAdjust="spacing" textLength="231" x="339" y="78.8857">&#22914;&#20309;&#21482;&#20801;&#35768;&#26576;&#20010;Pod&#20351;&#29992;10G&#30340;&#31354;&#38388;?</text><path d="M286,55.7422 L296,55.7422 C311,55.7422 311,74.0391 326,74.0391 L336,74.0391 " fill="none" style="stroke:#181818;stroke-width:1.0;"/><text fill="#000000" font-family="sans-serif" font-size="14" lengthAdjust="spacing" textLength="497" x="339" y="97.1826">&#20854;&#20182;&#24320;&#21457;&#20154;&#21592;&#24819;&#35201;&#29992;? &#33021;&#19981;&#33021;&#24456;&#31616;&#21333;&#30340;&#25630;&#36215;&#26469;? &#24471;&#21483;&#36816;&#32500;&#20154;&#21592;&#24110;&#24537;&#21019;&#24314; &#20960;&#20010;pv&#20808;?</text><path d="M286,55.7422 L296,55.7422 C311,55.7422 311,92.3359 326,92.3359 L336,92.3359 " fill="none" style="stroke:#181818;stroke-width:1.0;"/><path d="M72,345.2969 L82,345.2969 C97,345.2969 97,55.7422 112,55.7422 L122,55.7422 " fill="none" style="stroke:#181818;stroke-width:1.0;"/><rect fill="#F1F1F1" height="36.2969" rx="12.5" ry="12.5" style="stroke:#181818;stroke-width:1.5;" width="115" x="122" y="372.8906"/><text fill="#000000" font-family="sans-serif" font-size="14" lengthAdjust="spacing" textLength="95" x="132" y="395.8857">k8s&#30340;&#35299;&#20915;&#26041;&#26696;</text><rect fill="#90EE90" height="36.2969" rx="12.5" ry="12.5" style="stroke:#181818;stroke-width:1.5;" width="40" x="287" y="176.9688"/><text fill="#000000" font-family="sans-serif" font-size="14" lengthAdjust="spacing" textLength="16" x="297" y="199.9639">pv</text><text fill="#000000" font-family="sans-serif" font-size="14" lengthAdjust="spacing" textLength="126" x="380" y="115.4795">Persistent Volume</text><text fill="#000000" font-family="sans-serif" font-size="14" lengthAdjust="spacing" textLength="4" x="380" y="131.7764">&#160;</text><path d="M327,195.1172 L337,195.1172 C352,195.1172 352,118.7813 367,118.7813 L377,118.7813 " fill="none" style="stroke:#181818;stroke-width:1.0;"/><text fill="#000000" font-family="sans-serif" font-size="14" lengthAdjust="spacing" textLength="228" x="380" y="150.0732">&#20195;&#34920;&#30528;&#38598;&#32676;&#20013;&#30340;&#19968;&#20010;&#25345;&#20037;&#21270;&#23384;&#20648;&#36164;&#28304;,</text><text fill="#000000" font-family="sans-serif" font-size="14" lengthAdjust="spacing" textLength="304" x="380" y="166.3701">&#27604;&#22914;&#29702;&#35299;&#20026;&#19968;&#22359;5G&#30340;"&#30913;&#30424;",&#36825;&#26679;&#30340;&#21487;&#20197;&#21019;&#24314;&#24456;&#22810;,</text><text fill="#000000" font-family="sans-serif" font-size="14" lengthAdjust="spacing" textLength="350" x="380" y="182.667">&#23427;&#21487;&#20197;&#26159;&#29289;&#29702;&#23384;&#20648;&#35774;&#22791;&#12289;&#32593;&#32476;&#23384;&#20648;&#21367;&#12289;&#20113;&#25552;&#20379;&#21830;&#30340;&#23384;&#20648;&#31561;</text><text fill="#000000" font-family="sans-serif" font-size="14" lengthAdjust="spacing" textLength="4" x="380" y="198.9639">&#160;</text><path d="M327,195.1172 L337,195.1172 C352,195.1172 352,169.6719 367,169.6719 L377,169.6719 " fill="none" style="stroke:#181818;stroke-width:1.0;"/><text fill="#000000" font-family="sans-serif" font-size="14" lengthAdjust="spacing" textLength="281" x="380" y="217.2607">PV &#26159;&#38598;&#32676;&#20013;&#30340;&#19968;&#20010;&#29420;&#31435;&#23454;&#20307;&#65292;&#19982; Pod &#35299;&#32806;&#65292;</text><text fill="#000000" font-family="sans-serif" font-size="14" lengthAdjust="spacing" textLength="203" x="380" y="233.5576">&#21487;&#20197;&#29420;&#31435;&#20110; Pod &#30340;&#29983;&#21629;&#21608;&#26399;&#23384;&#22312;</text><text fill="#000000" font-family="sans-serif" font-size="14" lengthAdjust="spacing" textLength="4" x="380" y="249.8545">&#160;</text><path d="M327,195.1172 L337,195.1172 C352,195.1172 352,228.7109 367,228.7109 L377,228.7109 " fill="none" style="stroke:#181818;stroke-width:1.0;"/><text fill="#000000" font-family="sans-serif" font-size="14" lengthAdjust="spacing" textLength="294" x="380" y="268.1514">&#33021;&#22815;&#35774;&#32622;&#36825;&#22359;"&#30913;&#30424;"&#21019;&#24314;&#26102;&#30340;&#35775;&#38382;&#26435;&#38480;,&#22823;&#23567;&#31561;&#31561;</text><text fill="#000000" font-family="sans-serif" font-size="14" lengthAdjust="spacing" textLength="4" x="380" y="284.4482">&#160;</text><path d="M327,195.1172 L337,195.1172 C352,195.1172 352,271.4531 367,271.4531 L377,271.4531 " fill="none" style="stroke:#181818;stroke-width:1.0;"/><path d="M237,391.0391 L247,391.0391 C262,391.0391 262,195.1172 277,195.1172 L287,195.1172 " fill="none" style="stroke:#181818;stroke-width:1.0;"/><rect fill="#FFFF00" height="36.2969" rx="12.5" ry="12.5" style="stroke:#181818;stroke-width:1.5;" width="48" x="287" y="390.6797"/><text fill="#000000" font-family="sans-serif" font-size="14" lengthAdjust="spacing" textLength="24" x="297" y="413.6748">pvc</text><text fill="#000000" font-family="sans-serif" font-size="14" lengthAdjust="spacing" textLength="167" x="392" y="302.7451">Persistent Volume Claim</text><text fill="#000000" font-family="sans-serif" font-size="14" lengthAdjust="spacing" textLength="4" x="388" y="319.042">&#160;</text><path d="M335,408.8281 L345,408.8281 C360,408.8281 360,306.0469 375,306.0469 L385,306.0469 " fill="none" style="stroke:#181818;stroke-width:1.0;"/><text fill="#000000" font-family="sans-serif" font-size="14" lengthAdjust="spacing" textLength="291" x="388" y="337.3389">&#26159;Pod &#23545; PV &#30340;&#35831;&#27714;, &#23450;&#20041;&#20102;&#20320;&#38656;&#35201;&#20160;&#20040;&#26679;&#30340;pv</text><text fill="#000000" font-family="sans-serif" font-size="14" lengthAdjust="spacing" textLength="56" x="732" y="319.042">&#23384;&#20648;&#23481;&#37327;</text><path d="M679,332.4922 L689,332.4922 C704,332.4922 704,314.1953 719,314.1953 L729,314.1953 " fill="none" style="stroke:#181818;stroke-width:1.0;"/><text fill="#000000" font-family="sans-serif" font-size="14" lengthAdjust="spacing" textLength="56" x="732" y="337.3389">&#35775;&#38382;&#27169;&#24335;</text><path d="M679,332.4922 L689,332.4922 C704,332.4922 704,332.4922 719,332.4922 L729,332.4922 " fill="none" style="stroke:#181818;stroke-width:1.0;"/><text fill="#000000" font-family="sans-serif" font-size="14" lengthAdjust="spacing" textLength="84" x="732" y="355.6357">&#31561;&#31561;&#20854;&#20182;&#23646;&#24615;</text><path d="M679,332.4922 L689,332.4922 C704,332.4922 704,350.7891 719,350.7891 L729,350.7891 " fill="none" style="stroke:#181818;stroke-width:1.0;"/><path d="M335,408.8281 L345,408.8281 C360,408.8281 360,332.4922 375,332.4922 L385,332.4922 " fill="none" style="stroke:#181818;stroke-width:1.0;"/><text fill="#000000" font-family="sans-serif" font-size="14" lengthAdjust="spacing" textLength="424" x="388" y="373.9326">Pod yaml&#25991;&#20214;&#37324;&#25351;&#23450;&#19968;&#20010; PVC &#26469;&#22768;&#26126;&#23545;&#25345;&#20037;&#21270;&#23384;&#20648;&#26377;&#20160;&#20040;&#26679;&#30340;&#38656;&#27714;,</text><text fill="#000000" font-family="sans-serif" font-size="14" lengthAdjust="spacing" textLength="106" x="388" y="390.2295">&#19981;&#21435;&#31649;&#20855;&#20307;&#30340; PV</text><text fill="#000000" font-family="sans-serif" font-size="14" lengthAdjust="spacing" textLength="4" x="388" y="406.5264">&#160;</text><path d="M335,408.8281 L345,408.8281 C360,408.8281 360,385.3828 375,385.3828 L385,385.3828 " fill="none" style="stroke:#181818;stroke-width:1.0;"/><text fill="#000000" filter="url(#bt9bnnn0xkx0c0)" font-family="sans-serif" font-size="14" lengthAdjust="spacing" textLength="228" x="388" y="424.8232">k8s &#20250;&#26681;&#25454;&#20320;pod&#35774;&#32622;&#30340;PVC&#30340;&#23450;&#20041;,</text><text fill="#000000" filter="url(#bt9bnnn0xkx0c0)" font-family="sans-serif" font-size="14" lengthAdjust="spacing" textLength="208" x="388" y="441.1201">&#20250;&#33258;&#21160;&#21305;&#37197;&#24182;&#32465;&#23450;&#19968;&#20010;&#21512;&#36866;&#30340; PV,</text><text fill="#000000" filter="url(#bt9bnnn0xkx0c0)" font-family="sans-serif" font-size="14" lengthAdjust="spacing" textLength="352" x="388" y="457.417">&#28982;&#21518;&#23558;&#35813; PV &#25346;&#36733;&#21040; Pod &#20013;,&#20351; Pod &#21487;&#20197;&#20351;&#29992;&#25345;&#20037;&#21270;&#23384;&#20648;</text><text fill="#000000" font-family="sans-serif" font-size="14" lengthAdjust="spacing" textLength="4" x="388" y="473.7139">&#160;</text><path d="M335,408.8281 L345,408.8281 C360,408.8281 360,444.4219 375,444.4219 L385,444.4219 " fill="none" style="stroke:#181818;stroke-width:1.0;"/><text fill="#000000" font-family="sans-serif" font-size="14" lengthAdjust="spacing" textLength="536" x="388" y="492.0107">PVC &#20805;&#24403;&#20102; Pod &#21644; PV &#20043;&#38388;&#30340;&#20013;&#38388;&#23618;, &#23427;&#23558; Pod &#19982;&#23454;&#38469;&#30340;&#25345;&#20037;&#21270;&#23384;&#20648;&#36164;&#28304;&#65288;PV&#65289;&#35299;&#32806;,</text><text fill="#000000" font-family="sans-serif" font-size="14" lengthAdjust="spacing" textLength="251" x="388" y="508.3076">Pod &#21482;&#35201;&#30003;&#26126;&#20320;&#30340;&#38656;&#27714;&#21363;&#21487;, &#19981;&#29992;&#20851;&#24515;pv</text><text fill="#000000" font-family="sans-serif" font-size="14" lengthAdjust="spacing" textLength="4" x="388" y="524.6045">&#160;</text><path d="M335,408.8281 L345,408.8281 C360,408.8281 360,503.4609 375,503.4609 L385,503.4609 " fill="none" style="stroke:#181818;stroke-width:1.0;"/><path d="M237,391.0391 L247,391.0391 C262,391.0391 262,408.8281 277,408.8281 L287,408.8281 " fill="none" style="stroke:#181818;stroke-width:1.0;"/><rect fill="#FFD700" height="36.2969" rx="12.5" ry="12.5" style="stroke:#181818;stroke-width:1.5;" width="114" x="287" y="586.6016"/><text fill="#000000" font-family="sans-serif" font-size="14" lengthAdjust="spacing" textLength="90" x="297" y="609.5967">storageClass</text><rect fill="#F1F1F1" height="36.2969" rx="12.5" ry="12.5" style="stroke:#181818;stroke-width:1.5;" width="48" x="451" y="555.6641"/><text fill="#000000" font-family="sans-serif" font-size="14" lengthAdjust="spacing" textLength="28" x="461" y="578.6592">&#30446;&#30340;</text><text fill="#000000" font-family="sans-serif" font-size="14" lengthAdjust="spacing" textLength="314" x="552" y="542.9014">&#35299;&#20915;&#26469;&#19968;&#20010;&#23384;&#20648;&#38656;&#27714;,&#23601;&#38656;&#35201;&#25163;&#21160;&#21019;&#24314;&#19968;&#20010;pv&#30340;&#38382;&#39064;</text><path d="M499,573.8125 L509,573.8125 C524,573.8125 524,538.0547 539,538.0547 L549,538.0547 " fill="none" style="stroke:#181818;stroke-width:1.0;"/><text fill="#000000" font-family="sans-serif" font-size="16" font-weight="bold" lengthAdjust="spacing" textLength="85" x="552" y="563.0547">&#21160;&#24577;&#21019;&#24314;pv</text><path d="M499,573.8125 L509,573.8125 C524,573.8125 524,557.5156 539,557.5156 L549,557.5156 " fill="none" style="stroke:#181818;stroke-width:1.0;"/><text fill="#000000" font-family="sans-serif" font-size="14" lengthAdjust="spacing" textLength="362" x="552" y="581.8232">&#36824;&#21487;&#20197;&#24403;&#25104;pv&#30340;&#19968;&#31181;&#31867;&#22411;,pvc&#36873;&#25321;&#36825;&#31181;&#31867;&#22411;&#30340;pv,&#20570;&#36807;&#28388;&#29992;,</text><text fill="#000000" font-family="sans-serif" font-size="14" lengthAdjust="spacing" textLength="188" x="552" y="598.1201">&#19981;&#38656;&#35201;&#26377;&#30495;&#23454;&#30340;storageClass</text><text fill="#000000" font-family="sans-serif" font-size="14" lengthAdjust="spacing" textLength="4" x="552" y="614.417">&#160;</text><path d="M499,573.8125 L509,573.8125 C524,573.8125 524,593.2734 539,593.2734 L549,593.2734 " fill="none" style="stroke:#181818;stroke-width:1.0;"/><path d="M401,604.75 L411,604.75 C426,604.75 426,573.8125 441,573.8125 L451,573.8125 " fill="none" style="stroke:#181818;stroke-width:1.0;"/><rect fill="#F1F1F1" height="36.2969" rx="12.5" ry="12.5" style="stroke:#181818;stroke-width:1.5;" width="76" x="451" y="631.5078"/><text fill="#000000" font-family="sans-serif" font-size="14" lengthAdjust="spacing" textLength="56" x="461" y="654.5029">&#23454;&#29616;&#26041;&#26696;</text><text fill="#000000" font-family="sans-serif" font-size="14" lengthAdjust="spacing" textLength="372" x="580" y="632.7139">pvc &#25351;&#23450; storageClassName ,&#34920;&#31034;&#36873;&#25321;&#21738;&#20010;storageClass</text><path d="M527,649.6563 L537,649.6563 C552,649.6563 552,627.8672 567,627.8672 L577,627.8672 " fill="none" style="stroke:#181818;stroke-width:1.0;"/><text fill="#000000" font-family="sans-serif" font-size="14" lengthAdjust="spacing" textLength="118" x="580" y="651.0107">&#21019;&#24314;storageClass</text><path d="M527,649.6563 L537,649.6563 C552,649.6563 552,646.1641 567,646.1641 L577,646.1641 " fill="none" style="stroke:#181818;stroke-width:1.0;"/><text fill="#000000" font-family="sans-serif" font-size="14" lengthAdjust="spacing" textLength="146" x="580" y="676.292">&#19982;storageClass&#20851;&#32852;&#30340;</text><text fill="#000000" filter="url(#bt9bnnn0xkx0c1)" font-family="sans-serif" font-size="20" lengthAdjust="spacing" textLength="150" x="726" y="674.877">Provisioner&#32452;&#20214;</text><text fill="#000000" font-family="sans-serif" font-size="14" lengthAdjust="spacing" textLength="114" x="876" y="676.292">&#26469;&#23454;&#29616;&#21160;&#24577;&#21019;&#24314;pv</text><path d="M527,649.6563 L537,649.6563 C552,649.6563 552,667.9531 567,667.9531 L577,667.9531 " fill="none" style="stroke:#181818;stroke-width:1.0;"/><path d="M401,604.75 L411,604.75 C426,604.75 426,649.6563 441,649.6563 L451,649.6563 " fill="none" style="stroke:#181818;stroke-width:1.0;"/><path d="M237,391.0391 L247,391.0391 C262,391.0391 262,604.75 277,604.75 L287,604.75 " fill="none" style="stroke:#181818;stroke-width:1.0;"/><path d="M72,345.2969 L82,345.2969 C97,345.2969 97,391.0391 112,391.0391 L122,391.0391 " fill="none" style="stroke:#181818;stroke-width:1.0;"/><!--SRC=[VLPRJnjN47xVNt6KlYJ89O6qIkGwJXIdH8f2PRKDhz62jwwLjHUjBnMj8jc0RyNNSZDt22OOKjP6961xCVuntNDs_PI_q3bxrbj8I5-izLo_cVbcTX-58xmS2GP2lY0_oRd2aIbHS7FM_oS1tY_pGVG7Xz2WNnQ4aFc8q6D-ufLVbg8XdqSI9Hc90V-l4TC0rA-fjIo5XIyOVpKoylYnnzEtD7t7nQZmVx6flkym9OYYzDlrnapNj_HBekzwEwenhLvphjjMqTm08hc4rahYt18tC83qjVUai4ToqqQdW_Dd-AY2rslwwcnlMUczgI2NYzReTeFfm4k4E_DagwGr3ybYW-GLiDUQUPpA6s_UiGXQfwilrCZowSVpN2-TwssyWL2MyTjfhRE8gxDwAVNG2iT4ogPUQE3YeL5NMPGlg9K3hHc7v5x9TvrTyH0d4uRIP0Z1Y84PklCKCEW7xTxo-xv3ybHJb_1v71VBMhkDonKoSsAyJO3rGsJCTA0e-CKN6Ls9u_mYBQ6qQNmu8njx3n6-MCR5TqQtfAllcJDkAhYxWZDhM6qZdDw6x9CndCpGREZL_J3u6_kxE7L2bbfa9qCneCaOjDRa4kljm4kdLv33WN1424NGc2H6WmBtdQNHr5rZfwPln7jhAVsYgZMF82JhXJrBEhZfcl5XbhHB3exK5w0hq6b8h3NRO8itbh-bZRYXxoRqjSeDXz5T8Tjd8C75kgRkCVXGCwwkEZYip30ngTJrx044ik8h5xYQ_YUUq3jbNLrdGg01IBHscHHBsiKQNapHgAPAFyhQLNZ744Jxl0Hzxc_ztHoCMUlC0ssqPW71y10WD-9lGS0n9CnCQpCj7Ud25YvtSBb6rhSORUrKT7hLBG2hTnIe4shlbytA18BIeIXTO3dPcEcjb1oukeyRHS1hGuOPJS2GsBBPKqAVZGbvH3uGxEUcDLA0kDv2K35DKpyZnzCEX9LLhPNLsYcjizrRZmFVD3MkjJ9i2fCnqv-oapLLQVNInRxCWbhRmUUsZ66rk7oyIUBx_KP3-Ya-A9AbjAQUmXgIN9ecDxiDe3m8Y8nt6wHI09IVC8YiPo_30g0KF4VtlA3goWvEdi6SG0E1x7wxnk7oE2MP3_a5Dp0UQUUhPBi5Mm-rJae-DWbmWkIK6sOd7DmLDt0nqeVupnhEjNh9F6wTwchPXerBcLvycgNzn56VFSMb0cwaZFeURRbrop8DaoZ0D0SS0lEP4ScwKLVBTjsc8TsNoEg1Cv64WmS3Oyv_vMXqhJK7XyGaxn4yO3RP6KXlfIi0atihINeqhjlDZ-SPxzZ7yooZjuDZk0xDwtC24u66sMt7-HE0x82WUK2CaoUuEmCyOUmCHw1-lm3a2uVfBO5RRv4KRZhjjSqTTdiszgnEcc2ikUB6CQCYoSxHrflRmUmcO_PRe1_fmGEm8V44CxCPwpIw5Uk8mFiXKp8z8OY-dzUFLRmvvu1DwiMpPEu0bj6McgHtuCIgqKqJjGeLcZIpyAndTLXhkFshivShjGQ4s5lXluDAuT5zPLI_qfmVUDXH1psWrJP3WUSFeS0hOVkxPrPsdGO6UraCmp0I2m2EKT4w4gvmu7V1ENp7xPMbM20Sa4A2hAkpi8Nm_WMLsw8PtJ_sMhlQpqS2V95ONocSL-H3aHUZpr6CNXmfX8O6X-yCtnsyTtD43g1HVWeD3QEXUyxXkyvlXj6Bdps8gcznDvzwdwEm59Kd1EI3IoK7ngCHyB_5FUDZFFen6ee4We8JXQAYo3qR6tMYdwBZOCP713GsoZqHVk6ZOWHz7vgGV86GtmcXHxw-pps7POj2-PQZ1pup8l8K-_Sl]--></g></svg>