<svg version="1.1" xmlns="http://www.w3.org/2000/svg" viewBox="0 0 756.9112829047281 471.89367559862103" width="756.9112829047281" height="471.89367559862103">
  <!-- svg-source:excalidraw -->
  
  <defs>
    <style class="style-fonts">
      @font-face {
        font-family: "Virgil";
        src: url("https://unpkg.com/@excalidraw/excalidraw@0.15.3/dist/excalidraw-assets/Virgil.woff2");
      }
      @font-face {
        font-family: "Cascadia";
        src: url("https://unpkg.com/@excalidraw/excalidraw@0.15.3/dist/excalidraw-assets/Cascadia.woff2");
      }
    </style>
  </defs>
  <rect x="0" y="0" width="756.9112829047281" height="471.89367559862103" fill="#ffffff"></rect><g stroke-linecap="round" transform="translate(171.0910284570208 55.92188409098753) rotate(0 81.19435830152673 202.98589575381675)"><path d="M0 0 L162.39 0 L162.39 405.97 L0 405.97" stroke="none" stroke-width="0" fill="rgb(0,0,0)"></path><path d="M0 0 C36.89 0, 73.77 0, 162.39 0 M0 0 C62.79 0, 125.59 0, 162.39 0 M162.39 0 C162.39 147.05, 162.39 294.09, 162.39 405.97 M162.39 0 C162.39 146.14, 162.39 292.28, 162.39 405.97 M162.39 405.97 C102.31 405.97, 42.24 405.97, 0 405.97 M162.39 405.97 C110.4 405.97, 58.4 405.97, 0 405.97 M0 405.97 C0 267.2, 0 128.42, 0 0 M0 405.97 C0 316.43, 0 226.88, 0 0" stroke="#000000" stroke-width="1" fill="none"></path></g><g stroke-linecap="round" transform="translate(167.28504291163676 48.30991300021947) rotate(0 81.19435830152673 202.98589575381686)"><path d="M0 0 L162.39 0 L162.39 405.97 L0 405.97" stroke="none" stroke-width="0" fill="white"></path><path d="M0 0 C47.96 0, 95.92 0, 162.39 0 M0 0 C40.51 0, 81.03 0, 162.39 0 M162.39 0 C162.39 110.62, 162.39 221.25, 162.39 405.97 M162.39 0 C162.39 102.04, 162.39 204.08, 162.39 405.97 M162.39 405.97 C128.98 405.97, 95.57 405.97, 0 405.97 M162.39 405.97 C115.4 405.97, 68.42 405.97, 0 405.97 M0 405.97 C0 262.14, 0 118.31, 0 0 M0 405.97 C0 301.59, 0 197.21, 0 0" stroke="rgb(0,0,0)" stroke-width="1" fill="none"></path></g><g stroke-linecap="round" transform="translate(166.97940121316356 403.4084675386259) rotate(0 81.5 25.5)"><path d="M0 0 L163 0 L163 51 L0 51" stroke="none" stroke-width="0" fill="rgb(255,255,255)"></path><path d="M0 0 C59.15 0, 118.3 0, 163 0 M0 0 C39.51 0, 79.01 0, 163 0 M163 0 C163 16.62, 163 33.25, 163 51 M163 0 C163 15.53, 163 31.06, 163 51 M163 51 C124.2 51, 85.4 51, 0 51 M163 51 C129.55 51, 96.11 51, 0 51 M0 51 C0 38.52, 0 26.04, 0 0 M0 51 C0 35.14, 0 19.28, 0 0" stroke="rgb(0,0,0)" stroke-width="1" fill="none"></path></g><g stroke-linecap="round" transform="translate(166.97940121316356 352.6619936001716) rotate(0 81.5 25.5)"><path d="M0 0 L163 0 L163 51 L0 51" stroke="none" stroke-width="0" fill="rgb(255,255,255)"></path><path d="M0 0 C55.77 0, 111.55 0, 163 0 M0 0 C39.8 0, 79.6 0, 163 0 M163 0 C163 16.23, 163 32.46, 163 51 M163 0 C163 19.16, 163 38.31, 163 51 M163 51 C127.27 51, 91.55 51, 0 51 M163 51 C114.21 51, 65.42 51, 0 51 M0 51 C0 34.86, 0 18.72, 0 0 M0 51 C0 31.97, 0 12.93, 0 0" stroke="rgb(0,0,0)" stroke-width="1" fill="none"></path></g><g transform="translate(208.47940121316356 368.6619936001716) rotate(0 40 9.5)"><text x="40" y="0" font-family="Helvetica, Segoe UI Emoji" font-size="16px" fill="#0b7285" text-anchor="middle" style="white-space: pre;" direction="ltr" dominant-baseline="text-before-edge">return addr</text></g><g stroke-linecap="round" transform="translate(166.97940121316356 301.91551966171755) rotate(0 81.5 25.5)"><path d="M0 0 L163 0 L163 51 L0 51" stroke="none" stroke-width="0" fill="rgb(255,255,255)"></path><path d="M0 0 C38.73 0, 77.45 0, 163 0 M0 0 C58.63 0, 117.26 0, 163 0 M163 0 C163 16.45, 163 32.91, 163 51 M163 0 C163 11.96, 163 23.92, 163 51 M163 51 C126.54 51, 90.08 51, 0 51 M163 51 C115.43 51, 67.85 51, 0 51 M0 51 C0 35.2, 0 19.4, 0 0 M0 51 C0 32.69, 0 14.39, 0 0" stroke="rgb(0,0,0)" stroke-width="1" fill="none"></path></g><g stroke-linecap="round" transform="translate(166.97940121316356 251.16904572326348) rotate(0 81.5 25.5)"><path d="M0 0 L163 0 L163 51 L0 51" stroke="none" stroke-width="0" fill="rgb(255,255,255)"></path><path d="M0 0 C47.65 0, 95.31 0, 163 0 M0 0 C65.2 0, 130.39 0, 163 0 M163 0 C163 17.36, 163 34.72, 163 51 M163 0 C163 19.85, 163 39.69, 163 51 M163 51 C109.83 51, 56.66 51, 0 51 M163 51 C126.85 51, 90.71 51, 0 51 M0 51 C0 31.19, 0 11.37, 0 0 M0 51 C0 31.99, 0 12.99, 0 0" stroke="rgb(0,0,0)" stroke-width="1" fill="none"></path></g><g stroke-linecap="round" transform="translate(166.97940121316356 200.42257178480918) rotate(0 81.5 25.5)"><path d="M0 0 L163 0 L163 51 L0 51" stroke="none" stroke-width="0" fill="rgb(255,255,255)"></path><path d="M0 0 C42.52 0, 85.05 0, 163 0 M0 0 C37.31 0, 74.61 0, 163 0 M163 0 C163 11.76, 163 23.52, 163 51 M163 0 C163 15.46, 163 30.92, 163 51 M163 51 C113.07 51, 63.14 51, 0 51 M163 51 C116.21 51, 69.42 51, 0 51 M0 51 C0 32.22, 0 13.44, 0 0 M0 51 C0 31.57, 0 12.13, 0 0" stroke="rgb(0,0,0)" stroke-width="1" fill="none"></path></g><g transform="translate(242.97940121316356 216.42257178480918) rotate(0 5.5 9.5)"><text x="5.5" y="0" font-family="Helvetica, Segoe UI Emoji" font-size="16px" fill="#0b7285" text-anchor="middle" style="white-space: pre;" direction="ltr" dominant-baseline="text-before-edge">0</text></g><g stroke-linecap="round" transform="translate(166.97940121316356 149.67609784635488) rotate(0 81.5 25.5)"><path d="M0 0 L163 0 L163 51 L0 51" stroke="none" stroke-width="0" fill="rgb(255,255,255)"></path><path d="M0 0 C40.67 0, 81.33 0, 163 0 M0 0 C44.42 0, 88.83 0, 163 0 M163 0 C163 12.82, 163 25.64, 163 51 M163 0 C163 10.49, 163 20.98, 163 51 M163 51 C115.84 51, 68.67 51, 0 51 M163 51 C105.25 51, 47.5 51, 0 51 M0 51 C0 37.89, 0 24.77, 0 0 M0 51 C0 39.65, 0 28.31, 0 0" stroke="rgb(0,0,0)" stroke-width="1" fill="none"></path></g><g transform="translate(242.97940121316356 165.67609784635488) rotate(0 5.5 9.5)"><text x="5.5" y="0" font-family="Helvetica, Segoe UI Emoji" font-size="16px" fill="#0b7285" text-anchor="middle" style="white-space: pre;" direction="ltr" dominant-baseline="text-before-edge">2</text></g><g stroke-linecap="round" transform="translate(166.97940121316356 98.9296239079008) rotate(0 81.5 25.5)"><path d="M0 0 L163 0 L163 51 L0 51" stroke="none" stroke-width="0" fill="rgb(255,255,255)"></path><path d="M0 0 C41.88 0, 83.75 0, 163 0 M0 0 C53.54 0, 107.09 0, 163 0 M163 0 C163 15.29, 163 30.58, 163 51 M163 0 C163 10.23, 163 20.47, 163 51 M163 51 C116.27 51, 69.54 51, 0 51 M163 51 C103.05 51, 43.1 51, 0 51 M0 51 C0 35.88, 0 20.77, 0 0 M0 51 C0 34.88, 0 18.76, 0 0" stroke="rgb(0,0,0)" stroke-width="1" fill="none"></path></g><g transform="translate(242.97940121316356 114.9296239079008) rotate(0 5.5 9.5)"><text x="5.5" y="0" font-family="Helvetica, Segoe UI Emoji" font-size="16px" fill="#0b7285" text-anchor="middle" style="white-space: pre;" direction="ltr" dominant-baseline="text-before-edge">1</text></g><g stroke-linecap="round" transform="translate(166.97940121316356 48.183149969446504) rotate(0 81.5 28)"><path d="M0 0 L163 0 L163 56 L0 56" stroke="none" stroke-width="0" fill="rgb(255,255,255)"></path><path d="M0 0 C35.05 0, 70.11 0, 163 0 M0 0 C44.91 0, 89.81 0, 163 0 M163 0 C163 14.19, 163 28.38, 163 56 M163 0 C163 15.45, 163 30.9, 163 56 M163 56 C124.42 56, 85.83 56, 0 56 M163 56 C120.76 56, 78.53 56, 0 56 M0 56 C0 39.14, 0 22.28, 0 0 M0 56 C0 40.8, 0 25.59, 0 0" stroke="rgb(0,0,0)" stroke-width="1" fill="none"></path></g><g transform="translate(177.47940121316356 66.6831499694465) rotate(0 71 9.5)"><text x="71" y="0" font-family="Helvetica, Segoe UI Emoji" font-size="16px" fill="#0b7285" text-anchor="middle" style="white-space: pre;" direction="ltr" dominant-baseline="text-before-edge">main的调用者的 BP</text></g><g transform="translate(245.22608053883846 10) rotate(0 11 14)"><text x="0" y="0" font-family="Helvetica, Segoe UI Emoji" font-size="20px" fill="rgb(0,0,0)" text-anchor="start" style="white-space: pre;" direction="ltr" dominant-baseline="text-before-edge">栈</text></g><g transform="translate(10 370.0293713473541) rotate(0 56.5 9.5)"><text x="0" y="0" font-family="Helvetica, Segoe UI Emoji" font-size="16px" fill="#0b7285" text-anchor="start" style="white-space: pre;" direction="ltr" dominant-baseline="text-before-edge">SUBQ  $48, SP</text></g><g transform="translate(63.23960712208657 344.5015272445496) rotate(0 14.5 11.5)"><text x="0" y="0" font-family="Helvetica, Segoe UI Emoji" font-size="20px" fill="#0b7285" text-anchor="start" style="white-space: pre;" direction="ltr" dominant-baseline="text-before-edge">SP</text></g><g stroke-linecap="round"><g transform="translate(99.71283134904411 353.0436167710279) rotate(0 32.81970724681156 -0.009955760437037497)"><path d="M-1.23 -0.35 C14.44 0.41, 31.53 1, 63.76 0 M0.36 0.28 C23.8 -0.36, 45.84 0.38, 65.04 0.59" stroke="#0b7285" stroke-width="1" fill="none"></path></g><g transform="translate(99.71283134904411 353.0436167710279) rotate(0 32.81970724681156 -0.009955760437037497)"><path d="M64.66 2.55 L51.98 8.56 L50.84 -7.11 L64.09 -1.15" stroke="none" stroke-width="0" fill="#0b7285" fill-rule="evenodd"></path><path d="M64.12 0.33 C60.93 2.12, 58.77 4.03, 49.94 6.74 M65.31 0.8 C60.85 2.34, 55.34 5.04, 50.9 7.18 M52.53 7.08 C52.36 2.14, 52.54 -0.17, 52.09 -5.46 M51.44 6.91 C51.8 2.53, 51.36 -0.49, 50.98 -6.03 M50.19 -5.07 C56.14 -4.64, 59.01 -2.49, 65.44 0.96 M51.86 -6.35 C55.59 -4.69, 60.08 -1.63, 64.94 -0.09 M65.04 0.59 C65.04 0.59, 65.04 0.59, 65.04 0.59 M65.04 0.59 C65.04 0.59, 65.04 0.59, 65.04 0.59" stroke="#0b7285" stroke-width="1" fill="none"></path></g></g><mask></mask><g transform="translate(39.21783925137072 87.3762431210921) rotate(0 31.5 11.5)"><text x="0" y="0" font-family="Helvetica, Segoe UI Emoji" font-size="20px" fill="#0b7285" text-anchor="start" style="white-space: pre;" direction="ltr" dominant-baseline="text-before-edge">SP+40</text></g><g stroke-linecap="round"><g transform="translate(110.36958383522415 99.85010013244687) rotate(0 26.723492168687812 2.8022396764717996)"><path d="M0.32 1.44 C18.82 2.22, 37.6 2.21, 54.78 4.9 M0.23 -0.24 C22.01 2.16, 43.43 4.89, 54.37 5.25" stroke="#0b7285" stroke-width="1" fill="none"></path></g><g transform="translate(110.36958383522415 99.85010013244687) rotate(0 26.723492168687812 2.8022396764717996)"><path d="M52.46 3.94 L39.59 11.05 L41.01 -2.43 L56.05 4.1" stroke="none" stroke-width="0" fill="#0b7285" fill-rule="evenodd"></path><path d="M54.61 6.33 C49.33 7.37, 44.27 7.77, 41.35 10.07 M54.54 5.07 C49.38 7.2, 43.96 9.7, 41.04 10.33 M39.64 11.31 C40.71 6.59, 40.39 4.25, 40.5 -3.21 M39.95 10.94 C41.1 7.06, 41.4 3.44, 41.65 -2.06 M41.61 -2.45 C42.94 -0.22, 46.12 -0.09, 54.48 5.24 M41.72 -1.54 C44.91 -0.31, 47.07 0.81, 53.63 5.45 M54.37 5.25 C54.37 5.25, 54.37 5.25, 54.37 5.25 M54.37 5.25 C54.37 5.25, 54.37 5.25, 54.37 5.25" stroke="#0b7285" stroke-width="1" fill="none"></path></g></g><mask></mask><g transform="translate(38.8495098860833 236.5014155763838) rotate(0 31.5 11.5)"><text x="0" y="0" font-family="Helvetica, Segoe UI Emoji" font-size="20px" fill="#0b7285" text-anchor="start" style="white-space: pre;" direction="ltr" dominant-baseline="text-before-edge">SP+16</text></g><g stroke-linecap="round"><g transform="translate(110.55084276389823 249.97756414013838) rotate(0 26.77659746738624 1.0573350246465907)"><path d="M-1.71 1.87 C14.52 1.1, 28.31 1.9, 51.76 1.42 M0.64 -0.01 C19.54 1.36, 39.04 0.42, 53.78 1.72" stroke="#0b7285" stroke-width="1" fill="none"></path></g><g transform="translate(110.55084276389823 249.97756414013838) rotate(0 26.77659746738624 1.0573350246465907)"><path d="M52.58 0.86 L39.6 8.87 L40.32 -3.82 L54.31 1.43" stroke="none" stroke-width="0" fill="#0b7285" fill-rule="evenodd"></path><path d="M52.5 3.12 C49.88 3.84, 45.45 5.56, 38.55 6.88 M54.26 1.71 C48.95 4.6, 44.12 5.36, 40.06 7.11 M40.79 6.97 C39.43 4.52, 40.01 -0.45, 41.16 -5 M39.33 7.39 C40.37 4.64, 39.86 2.23, 40.2 -4.64 M40 -3.86 C42.85 -4.57, 44.75 -2.26, 53.6 1.01 M40.66 -5.93 C43.91 -2.77, 47.02 -1.05, 53.73 2.15 M53.78 1.72 C53.78 1.72, 53.78 1.72, 53.78 1.72 M53.78 1.72 C53.78 1.72, 53.78 1.72, 53.78 1.72" stroke="#0b7285" stroke-width="1" fill="none"></path></g></g><mask></mask><g transform="translate(346.54996789724396 215.4855750387153) rotate(0 4.5 11.5)"><text x="0" y="0" font-family="Helvetica, Segoe UI Emoji" font-size="20px" fill="#0b7285" text-anchor="start" style="white-space: pre;" direction="ltr" dominant-baseline="text-before-edge">r</text></g><g transform="translate(38.687689449483855 187.49131584631073) rotate(0 31.5 11.5)"><text x="0" y="0" font-family="Helvetica, Segoe UI Emoji" font-size="20px" fill="#0b7285" text-anchor="start" style="white-space: pre;" direction="ltr" dominant-baseline="text-before-edge">SP+24</text></g><g stroke-linecap="round"><g transform="translate(109.87650744605673 197.9042358414481) rotate(0 27.747821196233815 0.6606079755287055)"><path d="M1.63 0.43 C20.41 2.05, 40.84 0.52, 55.84 1.77 M0.59 -0.55 C14.99 -0.64, 29 1.47, 55.38 0.59" stroke="#0b7285" stroke-width="1" fill="none"></path></g><g transform="translate(109.87650744605673 197.9042358414481) rotate(0 27.747821196233815 0.6606079755287055)"><path d="M53.4 2.22 L43.78 8.62 L40.8 -4.62 L56.29 0.9" stroke="none" stroke-width="0" fill="#0b7285" fill-rule="evenodd"></path><path d="M56.6 0.91 C50.83 4.14, 46.25 4.95, 42.08 7.35 M55.82 0.18 C51.79 1.58, 47.45 4.62, 41.73 6.46 M42.7 7.48 C41.59 3.57, 41.76 0.95, 42.04 -5.92 M41.93 7.57 C41.54 3.12, 42.01 0.94, 41.89 -5.06 M42.11 -4.7 C45.4 -3.97, 48.65 -1.43, 55.34 -0.54 M41.06 -5.27 C46.15 -4.24, 49.8 -1.89, 54.92 -0.05 M55.38 0.59 C55.38 0.59, 55.38 0.59, 55.38 0.59 M55.38 0.59 C55.38 0.59, 55.38 0.59, 55.38 0.59" stroke="#0b7285" stroke-width="1" fill="none"></path></g></g><mask></mask><g transform="translate(345.60700063480647 161.74984261748) rotate(0 6.5 11.5)"><text x="0" y="0" font-family="Helvetica, Segoe UI Emoji" font-size="20px" fill="#0b7285" text-anchor="start" style="white-space: pre;" direction="ltr" dominant-baseline="text-before-edge">b</text></g><g transform="translate(38.12440028045603 136.2257602629188) rotate(0 31.5 11.5)"><text x="0" y="0" font-family="Helvetica, Segoe UI Emoji" font-size="20px" fill="#0b7285" text-anchor="start" style="white-space: pre;" direction="ltr" dominant-baseline="text-before-edge">SP+32</text></g><g stroke-linecap="round"><g transform="translate(111.37201885563195 151.11587336007233) rotate(0 26.643328412895016 0)"><path d="M-0.81 1.82 C19.32 -0.32, 36.38 -0.31, 51.88 0.26 M-0.02 -0.93 C16.06 0.85, 34.22 0.99, 52.97 0.92" stroke="#0b7285" stroke-width="1" fill="none"></path></g><g transform="translate(111.37201885563195 151.11587336007233) rotate(0 26.643328412895016 0)"><path d="M54.78 1.96 L37.85 8.78 L37.69 -4.39 L52.43 1.45" stroke="none" stroke-width="0" fill="#0b7285" fill-rule="evenodd"></path><path d="M52.37 2.28 C49.1 3.29, 43.56 5.46, 38.31 7.43 M52.96 0.22 C48.13 3.41, 44.8 5.51, 39.13 7.92 M39.18 8.33 C39.47 4.96, 40.36 -0.15, 38.53 -6.03 M38.81 7.63 C40.03 4.28, 39.91 0.37, 39.04 -5.68 M40.45 -6.56 C41.34 -4.49, 45.82 -2.82, 52.38 0.12 M39.52 -5.97 C44.08 -4.21, 47.89 -1.16, 53.07 1.48 M52.97 0.92 C52.97 0.92, 52.97 0.92, 52.97 0.92 M52.97 0.92 C52.97 0.92, 52.97 0.92, 52.97 0.92" stroke="#0b7285" stroke-width="1" fill="none"></path></g></g><mask></mask><g transform="translate(344.68472434460284 115.15512582528004) rotate(0 6.5 11.5)"><text x="0" y="0" font-family="Helvetica, Segoe UI Emoji" font-size="20px" fill="#0b7285" text-anchor="start" style="white-space: pre;" direction="ltr" dominant-baseline="text-before-edge">a</text></g><g stroke-linecap="round" transform="translate(510.11127200248166 81.88546053721916) rotate(0 81.5 25.5)"><path d="M0 0 L163 0 L163 51 L0 51" stroke="none" stroke-width="0" fill="rgb(255,255,255)"></path><path d="M0 0 C60.08 0, 120.17 0, 163 0 M0 0 C38.3 0, 76.61 0, 163 0 M163 0 C163 19.45, 163 38.91, 163 51 M163 0 C163 17.94, 163 35.88, 163 51 M163 51 C112.08 51, 61.16 51, 0 51 M163 51 C102.03 51, 41.06 51, 0 51 M0 51 C0 39.92, 0 28.85, 0 0 M0 51 C0 34.16, 0 17.31, 0 0" stroke="rgb(0,0,0)" stroke-width="1" fill="none"></path></g><g transform="translate(585.1112720024817 95.88546053721916) rotate(0 6.5 11.5)"><text x="6.5" y="0" font-family="Helvetica, Segoe UI Emoji" font-size="20px" fill="#0b7285" text-anchor="middle" style="white-space: pre;" direction="ltr" dominant-baseline="text-before-edge">2</text></g><g stroke-linecap="round" transform="translate(510.11127200248166 31.138986598765086) rotate(0 81.5 25.5)"><path d="M0 0 L163 0 L163 51 L0 51" stroke="none" stroke-width="0" fill="rgb(255,255,255)"></path><path d="M0 0 C61.69 0, 123.39 0, 163 0 M0 0 C53.2 0, 106.39 0, 163 0 M163 0 C163 14.58, 163 29.16, 163 51 M163 0 C163 12.28, 163 24.56, 163 51 M163 51 C129.11 51, 95.21 51, 0 51 M163 51 C110.37 51, 57.74 51, 0 51 M0 51 C0 33.89, 0 16.79, 0 0 M0 51 C0 37.04, 0 23.07, 0 0" stroke="rgb(0,0,0)" stroke-width="1" fill="none"></path></g><g transform="translate(585.1112720024817 45.13898659876509) rotate(0 6.5 11.5)"><text x="6.5" y="0" font-family="Helvetica, Segoe UI Emoji" font-size="20px" fill="#0b7285" text-anchor="middle" style="white-space: pre;" direction="ltr" dominant-baseline="text-before-edge">1</text></g><g transform="translate(450.3171976185738 44.459459366684314) rotate(0 14.5 11.5)"><text x="0" y="0" font-family="Helvetica, Segoe UI Emoji" font-size="20px" fill="#0b7285" text-anchor="start" style="white-space: pre;" direction="ltr" dominant-baseline="text-before-edge">AX</text></g><g transform="translate(453.022354366134 95.27328082396684) rotate(0 14.5 11.5)"><text x="0" y="0" font-family="Helvetica, Segoe UI Emoji" font-size="20px" fill="#0b7285" text-anchor="start" style="white-space: pre;" direction="ltr" dominant-baseline="text-before-edge">BX</text></g><g transform="translate(394.91128290472807 391.6305166053776) rotate(0 176 11.5)"><text x="0" y="0" font-family="Helvetica, Segoe UI Emoji" font-size="16px" fill="#0b7285" text-anchor="start" style="white-space: pre;" direction="ltr" dominant-baseline="text-before-edge">执行 指令CALL  main.add(SB)  时, SP会指向这里</text></g><g stroke-linecap="round"><g transform="translate(391.2047432200941 403.49490896895486) rotate(0 -26.93824307077648 0)"><path d="M0.38 -0.61 C-13.39 -1.08, -24.96 0.07, -53.42 -1.85 M0.94 -0.64 C-16.72 0.3, -35.09 0.31, -54.01 -0.66" stroke="#0b7285" stroke-width="1" fill="none"></path></g><g transform="translate(391.2047432200941 403.49490896895486) rotate(0 -26.93824307077648 0)"><path d="M-52.86 1.19 L-39.17 -7.25 L-41.02 5.07 L-52.16 -0.73" stroke="none" stroke-width="0" fill="#0b7285" fill-rule="evenodd"></path><path d="M-53.72 -1.11 C-52.41 -2.97, -49.48 -3.36, -39.85 -7.89 M-53.3 -1.14 C-49.3 -1.93, -45.84 -3.77, -40.29 -7 M-39.86 -6.18 C-41.04 -2.12, -41.64 -0.03, -41.13 7.08 M-40.56 -6.89 C-40.6 -3.03, -40.68 -0.94, -40.72 5.55 M-40.11 7.49 C-44.34 4.37, -47.9 3.4, -53.72 -2.07 M-41.19 6.37 C-43.83 4.84, -46.86 3.48, -54.24 0.06 M-54.01 -0.66 C-54.01 -0.66, -54.01 -0.66, -54.01 -0.66 M-54.01 -0.66 C-54.01 -0.66, -54.01 -0.66, -54.01 -0.66" stroke="#0b7285" stroke-width="1" fill="none"></path></g></g><mask></mask></svg>