<svg version="1.1" xmlns="http://www.w3.org/2000/svg" viewBox="0 0 731.0663515188787 617.5120914795104" width="731.0663515188787" height="617.5120914795104">
  <!-- svg-source:excalidraw -->
  
  <defs>
    <style class="style-fonts">
      @font-face {
        font-family: "Virgil";
        src: url("/stylesheets/font/Virgil-hand.woff2");
      }
      @font-face {
        font-family: "Cascadia";
        src: url("https://unpkg.com/@excalidraw/excalidraw@0.15.3/dist/excalidraw-assets/Cascadia.woff2");
      }
    </style>
  </defs>
  <rect x="0" y="0" width="731.0663515188787" height="617.5120914795104" fill="#ffffff"></rect><g stroke-linecap="round" transform="translate(166.7935862924378 53.3113271698694) rotate(0 81.07254208121986 277.1003821548205)"><path d="M0 0 L162.15 0 L162.15 554.2 L0 554.2" stroke="none" stroke-width="0" fill="rgb(0,0,0)"></path><path d="M0 0 C35.17 0, 70.33 0, 162.15 0 M0 0 C34.99 0, 69.98 0, 162.15 0 M162.15 0 C162.15 116.03, 162.15 232.06, 162.15 554.2 M162.15 0 C162.15 125.08, 162.15 250.16, 162.15 554.2 M162.15 554.2 C101.71 554.2, 41.28 554.2, 0 554.2 M162.15 554.2 C110.72 554.2, 59.3 554.2, 0 554.2 M0 554.2 C0 347.43, 0 140.66, 0 0 M0 554.2 C0 424.15, 0 294.09, 0 0" stroke="#000000" stroke-width="1" fill="none"></path></g><g stroke-linecap="round" transform="translate(162.79213793293866 45.911213098070675) rotate(0 81.19435830152673 202.98589575381686)"><path d="M0 0 L162.39 0 L162.39 405.97 L0 405.97" stroke="none" stroke-width="0" fill="white"></path><path d="M0 0 C64.78 0, 129.57 0, 162.39 0 M0 0 C49.76 0, 99.52 0, 162.39 0 M162.39 0 C162.39 101.44, 162.39 202.88, 162.39 405.97 M162.39 0 C162.39 111.95, 162.39 223.91, 162.39 405.97 M162.39 405.97 C117.09 405.97, 71.79 405.97, 0 405.97 M162.39 405.97 C127.65 405.97, 92.91 405.97, 0 405.97 M0 405.97 C0 274.76, 0 143.55, 0 0 M0 405.97 C0 299.17, 0 192.37, 0 0" stroke="rgb(0,0,0)" stroke-width="1" fill="none"></path></g><g stroke-linecap="round" transform="translate(162.68195904858067 400.797910617508) rotate(0 81.5 25.5)"><path d="M0 0 L163 0 L163 51 L0 51" stroke="none" stroke-width="0" fill="rgb(255,255,255)"></path><path d="M0 0 C40.03 0, 80.05 0, 163 0 M0 0 C36.09 0, 72.17 0, 163 0 M163 0 C163 10.95, 163 21.89, 163 51 M163 0 C163 14.12, 163 28.25, 163 51 M163 51 C114.92 51, 66.84 51, 0 51 M163 51 C128.44 51, 93.87 51, 0 51 M0 51 C0 32.98, 0 14.96, 0 0 M0 51 C0 34.26, 0 17.51, 0 0" stroke="rgb(0,0,0)" stroke-width="1" fill="none"></path></g><g transform="translate(173.68195904858067 407.297910617508) rotate(0 70.5 20.5)"><text x="70.5" y="0" font-family="Helvetica, Segoe UI Emoji" font-size="16px" fill="#0b7285" text-anchor="middle" style="white-space: pre;" direction="ltr" dominant-baseline="text-before-edge">add调用者(main)的 </text><text x="70.5" y="20.5" font-family="Helvetica, Segoe UI Emoji" font-size="16px" fill="#0b7285" text-anchor="middle" style="white-space: pre;" direction="ltr" dominant-baseline="text-before-edge">bp</text></g><g stroke-linecap="round" transform="translate(162.68195904858067 350.0514366790535) rotate(0 81.5 25.5)"><path d="M0 0 L163 0 L163 51 L0 51" stroke="none" stroke-width="0" fill="rgb(255,255,255)"></path><path d="M0 0 C49.39 0, 98.79 0, 163 0 M0 0 C46.14 0, 92.27 0, 163 0 M163 0 C163 13.27, 163 26.54, 163 51 M163 0 C163 14.67, 163 29.35, 163 51 M163 51 C100.52 51, 38.03 51, 0 51 M163 51 C129.67 51, 96.34 51, 0 51 M0 51 C0 35.33, 0 19.65, 0 0 M0 51 C0 33.41, 0 15.81, 0 0" stroke="rgb(0,0,0)" stroke-width="1" fill="none"></path></g><g transform="translate(194.18195904858067 364.0514366790535) rotate(0 50 11.5)"><text x="50" y="0" font-family="Helvetica, Segoe UI Emoji" font-size="20px" fill="#0b7285" text-anchor="middle" style="white-space: pre;" direction="ltr" dominant-baseline="text-before-edge">return addr</text></g><g stroke-linecap="round" transform="translate(162.68195904858067 299.3049627405994) rotate(0 81.5 25.5)"><path d="M0 0 L163 0 L163 51 L0 51" stroke="none" stroke-width="0" fill="rgb(255,255,255)"></path><path d="M0 0 C47.52 0, 95.03 0, 163 0 M0 0 C40.2 0, 80.41 0, 163 0 M163 0 C163 17.02, 163 34.04, 163 51 M163 0 C163 19.64, 163 39.29, 163 51 M163 51 C115.4 51, 67.8 51, 0 51 M163 51 C128.76 51, 94.53 51, 0 51 M0 51 C0 40.18, 0 29.36, 0 0 M0 51 C0 33.05, 0 15.1, 0 0" stroke="rgb(0,0,0)" stroke-width="1" fill="none"></path></g><g transform="translate(237.68195904858067 313.3049627405994) rotate(0 6.5 11.5)"><text x="6.5" y="0" font-family="Helvetica, Segoe UI Emoji" font-size="20px" fill="#0b7285" text-anchor="middle" style="white-space: pre;" direction="ltr" dominant-baseline="text-before-edge">1</text></g><g stroke-linecap="round" transform="translate(162.68195904858067 248.55848880214535) rotate(0 81.5 25.5)"><path d="M0 0 L163 0 L163 51 L0 51" stroke="none" stroke-width="0" fill="rgb(255,255,255)"></path><path d="M0 0 C44.09 0, 88.17 0, 163 0 M0 0 C56.66 0, 113.32 0, 163 0 M163 0 C163 14.2, 163 28.39, 163 51 M163 0 C163 11.11, 163 22.22, 163 51 M163 51 C102.53 51, 42.06 51, 0 51 M163 51 C111.76 51, 60.53 51, 0 51 M0 51 C0 38.11, 0 25.22, 0 0 M0 51 C0 35.9, 0 20.79, 0 0" stroke="rgb(0,0,0)" stroke-width="1" fill="none"></path></g><g transform="translate(237.68195904858067 262.55848880214535) rotate(0 6.5 11.5)"><text x="6.5" y="0" font-family="Helvetica, Segoe UI Emoji" font-size="20px" fill="#0b7285" text-anchor="middle" style="white-space: pre;" direction="ltr" dominant-baseline="text-before-edge">2</text></g><g stroke-linecap="round" transform="translate(162.68195904858067 197.81201486369082) rotate(0 81.5 25.5)"><path d="M0 0 L163 0 L163 51 L0 51" stroke="none" stroke-width="0" fill="rgb(255,255,255)"></path><path d="M0 0 C35.92 0, 71.84 0, 163 0 M0 0 C62.5 0, 125.01 0, 163 0 M163 0 C163 10.88, 163 21.76, 163 51 M163 0 C163 14.35, 163 28.69, 163 51 M163 51 C109.83 51, 56.66 51, 0 51 M163 51 C98.31 51, 33.61 51, 0 51 M0 51 C0 37.65, 0 24.31, 0 0 M0 51 C0 32.55, 0 14.1, 0 0" stroke="rgb(0,0,0)" stroke-width="1" fill="none"></path></g><g transform="translate(237.68195904858067 211.81201486369082) rotate(0 6.5 11.5)"><text x="6.5" y="0" font-family="Helvetica, Segoe UI Emoji" font-size="20px" fill="#0b7285" text-anchor="middle" style="white-space: pre;" direction="ltr" dominant-baseline="text-before-edge">0</text></g><g stroke-linecap="round" transform="translate(162.68195904858067 147.06554092523675) rotate(0 81.5 25.5)"><path d="M0 0 L163 0 L163 51 L0 51" stroke="none" stroke-width="0" fill="rgb(255,255,255)"></path><path d="M0 0 C33.21 0, 66.42 0, 163 0 M0 0 C45.41 0, 90.83 0, 163 0 M163 0 C163 10.68, 163 21.35, 163 51 M163 0 C163 20.31, 163 40.62, 163 51 M163 51 C102.36 51, 41.72 51, 0 51 M163 51 C129.24 51, 95.47 51, 0 51 M0 51 C0 39.3, 0 27.59, 0 0 M0 51 C0 35.21, 0 19.43, 0 0" stroke="rgb(0,0,0)" stroke-width="1" fill="none"></path></g><g transform="translate(237.68195904858067 161.06554092523675) rotate(0 6.5 11.5)"><text x="6.5" y="0" font-family="Helvetica, Segoe UI Emoji" font-size="20px" fill="#0b7285" text-anchor="middle" style="white-space: pre;" direction="ltr" dominant-baseline="text-before-edge">2</text></g><g stroke-linecap="round" transform="translate(162.68195904858067 96.31906698678267) rotate(0 81.5 25.5)"><path d="M0 0 L163 0 L163 51 L0 51" stroke="none" stroke-width="0" fill="rgb(255,255,255)"></path><path d="M0 0 C53.55 0, 107.11 0, 163 0 M0 0 C61.05 0, 122.1 0, 163 0 M163 0 C163 15.1, 163 30.2, 163 51 M163 0 C163 10.78, 163 21.55, 163 51 M163 51 C126.23 51, 89.46 51, 0 51 M163 51 C119.87 51, 76.73 51, 0 51 M0 51 C0 32.24, 0 13.48, 0 0 M0 51 C0 31.45, 0 11.9, 0 0" stroke="rgb(0,0,0)" stroke-width="1" fill="none"></path></g><g transform="translate(237.68195904858067 110.31906698678267) rotate(0 6.5 11.5)"><text x="6.5" y="0" font-family="Helvetica, Segoe UI Emoji" font-size="20px" fill="#0b7285" text-anchor="middle" style="white-space: pre;" direction="ltr" dominant-baseline="text-before-edge">1</text></g><g stroke-linecap="round" transform="translate(162.10684000007166 40.54484961790854) rotate(0 82 28)"><path d="M0 0 L164 0 L164 56 L0 56" stroke="none" stroke-width="0" fill="rgb(255,255,255)"></path><path d="M0 0 C50.25 0, 100.5 0, 164 0 M0 0 C40.98 0, 81.96 0, 164 0 M164 0 C164 15.44, 164 30.89, 164 56 M164 0 C164 15.62, 164 31.24, 164 56 M164 56 C128.91 56, 93.83 56, 0 56 M164 56 C110.99 56, 57.99 56, 0 56 M0 56 C0 41.27, 0 26.54, 0 0 M0 56 C0 42.11, 0 28.22, 0 0" stroke="rgb(0,0,0)" stroke-width="1" fill="none"></path></g><g transform="translate(173.10684000007166 59.04484961790854) rotate(0 71 11.5)"><text x="71" y="0" font-family="Helvetica, Segoe UI Emoji" font-size="16px" fill="#0b7285" text-anchor="middle" style="white-space: pre;" direction="ltr" dominant-baseline="text-before-edge">main的调用者的 BP</text></g><g transform="translate(229.78948062986638 10) rotate(0 11 14)"><text x="0" y="0" font-family="Helvetica, Segoe UI Emoji" font-size="20px" fill="rgb(0,0,0)" text-anchor="start" style="white-space: pre;" direction="ltr" dominant-baseline="text-before-edge">栈</text></g><g transform="translate(352.5740644289692 215.3192080991371) rotate(0 4.5 11.5)"><text x="0" y="0" font-family="Helvetica, Segoe UI Emoji" font-size="20px" fill="#0b7285" text-anchor="start" style="white-space: pre;" direction="ltr" dominant-baseline="text-before-edge">r</text></g><g transform="translate(349.6629999431973 164.2238541516158) rotate(0 6.5 11.5)"><text x="0" y="0" font-family="Helvetica, Segoe UI Emoji" font-size="20px" fill="#0b7285" text-anchor="start" style="white-space: pre;" direction="ltr" dominant-baseline="text-before-edge">b</text></g><g transform="translate(347.46960658878356 115.95705129696307) rotate(0 6.5 11.5)"><text x="0" y="0" font-family="Helvetica, Segoe UI Emoji" font-size="20px" fill="#0b7285" text-anchor="start" style="white-space: pre;" direction="ltr" dominant-baseline="text-before-edge">a</text></g><g stroke-linecap="round" transform="translate(162.6228096560959 452.1326299125642) rotate(0 81.5 25.5)"><path d="M0 0 L163 0 L163 51 L0 51" stroke="none" stroke-width="0" fill="rgb(255,255,255)"></path><path d="M0 0 C53.84 0, 107.68 0, 163 0 M0 0 C61.31 0, 122.61 0, 163 0 M163 0 C163 16.61, 163 33.23, 163 51 M163 0 C163 11.65, 163 23.29, 163 51 M163 51 C104.08 51, 45.15 51, 0 51 M163 51 C101 51, 38.99 51, 0 51 M0 51 C0 36.33, 0 21.65, 0 0 M0 51 C0 34.48, 0 17.95, 0 0" stroke="rgb(0,0,0)" stroke-width="1" fill="none"></path></g><g transform="translate(237.6228096560959 466.1326299125642) rotate(0 6.5 11.5)"><text x="6.5" y="0" font-family="Helvetica, Segoe UI Emoji" font-size="20px" fill="#0b7285" text-anchor="middle" style="white-space: pre;" direction="ltr" dominant-baseline="text-before-edge">3</text></g><g stroke-linecap="round" transform="translate(162.9985537039271 502.60888291727565) rotate(0 81.5 25.5)"><path d="M0 0 L163 0 L163 51 L0 51" stroke="none" stroke-width="0" fill="rgb(255,255,255)"></path><path d="M0 0 C63.05 0, 126.1 0, 163 0 M0 0 C33.09 0, 66.19 0, 163 0 M163 0 C163 14.6, 163 29.21, 163 51 M163 0 C163 17.49, 163 34.98, 163 51 M163 51 C105.42 51, 47.84 51, 0 51 M163 51 C127.2 51, 91.41 51, 0 51 M0 51 C0 32.28, 0 13.55, 0 0 M0 51 C0 37.94, 0 24.88, 0 0" stroke="rgb(0,0,0)" stroke-width="1" fill="none"></path></g><g transform="translate(237.9985537039271 516.6088829172757) rotate(0 6.5 11.5)"><text x="6.5" y="0" font-family="Helvetica, Segoe UI Emoji" font-size="20px" fill="#0b7285" text-anchor="middle" style="white-space: pre;" direction="ltr" dominant-baseline="text-before-edge">6</text></g><g stroke-linecap="round" transform="translate(162.8508612435263 553.4748576483978) rotate(0 81.5 25.5)"><path d="M0 0 L163 0 L163 51 L0 51" stroke="none" stroke-width="0" fill="rgb(255,255,255)"></path><path d="M0 0 C46.23 0, 92.45 0, 163 0 M0 0 C65.03 0, 130.06 0, 163 0 M163 0 C163 13.53, 163 27.06, 163 51 M163 0 C163 14.86, 163 29.72, 163 51 M163 51 C123.62 51, 84.25 51, 0 51 M163 51 C118.76 51, 74.53 51, 0 51 M0 51 C0 35.38, 0 19.76, 0 0 M0 51 C0 36.61, 0 22.22, 0 0" stroke="rgb(0,0,0)" stroke-width="1" fill="none"></path></g><g transform="translate(105.70035570883579 341.2247416948908) rotate(0 23 9.5)"><text x="0" y="0" font-family="Helvetica, Segoe UI Emoji" font-size="16px" fill="#0b7285" text-anchor="start" style="white-space: pre;" direction="ltr" dominant-baseline="text-before-edge">sp+32</text></g><g transform="translate(351.67924275258224 310.95999688725374) rotate(0 6 11.5)"><text x="0" y="0" font-family="Helvetica, Segoe UI Emoji" font-size="20px" fill="#0b7285" text-anchor="start" style="white-space: pre;" direction="ltr" dominant-baseline="text-before-edge">c</text></g><g transform="translate(350.51358451779663 267.542772160341) rotate(0 6.5 11.5)"><text x="0" y="0" font-family="Helvetica, Segoe UI Emoji" font-size="20px" fill="#0b7285" text-anchor="start" style="white-space: pre;" direction="ltr" dominant-baseline="text-before-edge">d</text></g><g transform="translate(107.78206356341661 290.2985581355001) rotate(0 23 9.5)"><text x="0" y="0" font-family="Helvetica, Segoe UI Emoji" font-size="16px" fill="#0b7285" text-anchor="start" style="white-space: pre;" direction="ltr" dominant-baseline="text-before-edge">sp+40</text></g><g transform="translate(348.3959411634255 520.2704731959973) rotate(0 20 11.5)"><text x="0" y="0" font-family="Helvetica, Segoe UI Emoji" font-size="20px" fill="#0b7285" text-anchor="start" style="white-space: pre;" direction="ltr" dominant-baseline="text-before-edge">sum</text></g><g stroke-linecap="round" transform="translate(558.0663515188787 81.07996487209039) rotate(0 81.5 25.5)"><path d="M0 0 L163 0 L163 51 L0 51" stroke="none" stroke-width="0" fill="rgb(255,255,255)"></path><path d="M0 0 C58.44 0, 116.87 0, 163 0 M0 0 C58.48 0, 116.96 0, 163 0 M163 0 C163 16.5, 163 33.01, 163 51 M163 0 C163 17.79, 163 35.58, 163 51 M163 51 C120.53 51, 78.07 51, 0 51 M163 51 C113.37 51, 63.74 51, 0 51 M0 51 C0 39.99, 0 28.97, 0 0 M0 51 C0 34.33, 0 17.66, 0 0" stroke="rgb(0,0,0)" stroke-width="1" fill="none"></path></g><g transform="translate(633.066351518879 95.07996487209039) rotate(0 6.5 11.5)"><text x="6.5" y="0" font-family="Helvetica, Segoe UI Emoji" font-size="20px" fill="#0b7285" text-anchor="middle" style="white-space: pre;" direction="ltr" dominant-baseline="text-before-edge">2</text></g><g stroke-linecap="round" transform="translate(558.0663515188787 30.333490933636313) rotate(0 81.5 25.5)"><path d="M0 0 L163 0 L163 51 L0 51" stroke="none" stroke-width="0" fill="rgb(255,255,255)"></path><path d="M0 0 C44.42 0, 88.84 0, 163 0 M0 0 C44.77 0, 89.53 0, 163 0 M163 0 C163 19.03, 163 38.06, 163 51 M163 0 C163 18.72, 163 37.43, 163 51 M163 51 C128.33 51, 93.66 51, 0 51 M163 51 C114.88 51, 66.75 51, 0 51 M0 51 C0 34.51, 0 18.03, 0 0 M0 51 C0 38.64, 0 26.27, 0 0" stroke="rgb(0,0,0)" stroke-width="1" fill="none"></path></g><g transform="translate(633.0663515188787 44.33349093363631) rotate(0 6.5 11.5)"><text x="6.5" y="0" font-family="Helvetica, Segoe UI Emoji" font-size="20px" fill="#0b7285" text-anchor="middle" style="white-space: pre;" direction="ltr" dominant-baseline="text-before-edge">6</text></g><g transform="translate(498.2722771349711 43.65396370155531) rotate(0 14.5 11.5)"><text x="0" y="0" font-family="Helvetica, Segoe UI Emoji" font-size="20px" fill="#0b7285" text-anchor="start" style="white-space: pre;" direction="ltr" dominant-baseline="text-before-edge">AX</text></g><g transform="translate(500.97743388253116 94.46778515883761) rotate(0 14.5 11.5)"><text x="0" y="0" font-family="Helvetica, Segoe UI Emoji" font-size="20px" fill="#0b7285" text-anchor="start" style="white-space: pre;" direction="ltr" dominant-baseline="text-before-edge">BX</text></g><g transform="translate(80.53687702398241 400.9510351271772) rotate(0 -11.42575025447178 76.64712653140305)" stroke="none"><path fill="#0b7285" d="M 0.95,2.49 Q 0.95,2.49 -0.12,2.92 -1.19,3.34 -2.22,4.02 -3.26,4.69 -4.44,5.67 -5.63,6.66 -6.35,7.46 -7.06,8.25 -7.93,9.27 -8.79,10.28 -9.65,11.62 -10.52,12.96 -11.04,14.16 -11.56,15.36 -11.86,16.85 -12.17,18.33 -12.19,19.63 -12.21,20.94 -12.22,22.37 -12.23,23.80 -12.23,25.25 -12.23,26.71 -12.23,27.96 -12.22,29.21 -12.21,30.35 -12.20,31.48 -11.96,33.29 -11.72,35.10 -11.47,36.92 -11.21,38.75 -11.07,40.33 -10.92,41.92 -10.91,43.42 -10.89,44.93 -10.90,46.43 -10.91,47.93 -10.92,49.43 -10.93,50.94 -10.94,52.45 -10.95,53.96 -11.16,55.57 -11.38,57.18 -11.86,58.32 -12.35,59.46 -13.02,60.86 -13.70,62.26 -14.36,63.39 -15.02,64.52 -15.84,65.71 -16.66,66.90 -17.51,67.88 -18.37,68.87 -19.43,69.73 -20.49,70.59 -21.50,71.00 -22.51,71.42 -23.67,71.59 -24.83,71.76 -25.08,71.77 -25.33,71.78 -25.76,71.73 -26.19,71.69 -26.60,71.54 -27.01,71.39 -27.37,71.14 -27.73,70.90 -28.02,70.58 -28.31,70.26 -28.52,69.88 -28.73,69.49 -28.84,69.07 -28.95,68.65 -28.95,68.22 -28.96,67.79 -28.86,67.36 -28.76,66.94 -28.56,66.55 -28.36,66.17 -28.08,65.84 -27.80,65.51 -27.44,65.26 -27.09,65.01 -26.68,64.85 -26.28,64.69 -25.85,64.63 -25.42,64.57 -23.92,64.86 -22.43,65.14 -21.44,65.89 -20.45,66.65 -19.61,67.33 -18.77,68.02 -17.92,68.96 -17.06,69.89 -16.43,70.75 -15.80,71.61 -15.30,72.64 -14.80,73.67 -14.31,74.65 -13.81,75.62 -13.21,77.15 -12.61,78.67 -12.32,79.72 -12.03,80.78 -11.80,82.36 -11.57,83.95 -11.43,85.57 -11.29,87.19 -11.30,88.54 -11.30,89.89 -11.32,91.37 -11.34,92.85 -11.37,94.43 -11.39,96.01 -11.39,97.76 -11.39,99.52 -11.40,100.82 -11.41,102.13 -11.41,103.46 -11.42,104.79 -11.42,106.02 -11.42,107.25 -11.42,108.57 -11.43,109.88 -11.44,111.31 -11.45,112.74 -11.46,114.23 -11.47,115.72 -11.48,117.33 -11.50,118.93 -11.50,120.36 -11.51,121.78 -11.49,123.45 -11.48,125.12 -11.46,126.50 -11.44,127.89 -11.22,129.26 -11.01,130.64 -10.61,132.30 -10.20,133.96 -9.89,135.26 -9.58,136.56 -9.30,137.62 -9.02,138.68 -8.61,140.17 -8.20,141.67 -7.74,142.94 -7.29,144.21 -6.54,145.50 -5.80,146.78 -4.95,147.45 -4.10,148.12 -2.86,148.50 -1.61,148.89 2.19,150.19 5.99,151.50 6.18,152.07 6.37,152.65 6.37,153.26 6.37,153.87 6.17,154.45 5.97,155.02 5.60,155.50 5.22,155.99 4.72,156.33 4.21,156.66 3.62,156.82 3.03,156.98 2.43,156.94 1.82,156.91 1.25,156.68 0.69,156.45 0.23,156.05 -0.22,155.65 -0.53,155.13 -0.84,154.60 -0.97,154.01 -1.10,153.41 -1.03,152.81 -0.96,152.20 -0.70,151.65 -0.44,151.10 -0.01,150.66 0.40,150.22 0.94,149.94 1.48,149.66 2.08,149.56 2.68,149.47 3.28,149.57 3.88,149.68 4.42,149.96 4.96,150.25 5.37,150.70 5.79,151.14 6.04,151.70 6.29,152.25 6.35,152.86 6.41,153.47 6.28,154.06 6.14,154.65 5.82,155.17 5.51,155.69 5.04,156.08 4.57,156.48 4.00,156.70 3.44,156.92 2.83,156.95 2.22,156.97 1.63,156.81 1.05,156.64 0.55,156.29 0.04,155.95 -0.31,155.46 -0.68,154.97 -0.67,154.97 -0.67,154.97 -1.53,155.69 -2.38,156.40 -3.57,156.13 -4.77,155.86 -5.86,155.43 -6.95,155.00 -8.35,154.13 -9.75,153.26 -10.51,152.44 -11.27,151.62 -11.88,150.72 -12.49,149.82 -13.13,148.57 -13.76,147.32 -14.29,145.85 -14.81,144.39 -15.22,143.01 -15.62,141.63 -15.95,140.24 -16.28,138.86 -16.67,137.44 -17.06,136.02 -17.32,134.73 -17.57,133.44 -17.83,132.33 -18.09,131.23 -18.27,129.56 -18.46,127.89 -18.44,126.50 -18.42,125.12 -18.40,123.45 -18.39,121.78 -18.39,120.36 -18.39,118.93 -18.41,117.33 -18.43,115.72 -18.44,114.23 -18.45,112.74 -18.46,111.31 -18.47,109.88 -18.47,108.57 -18.47,107.25 -18.47,106.02 -18.47,104.79 -18.48,103.46 -18.49,102.13 -18.49,100.82 -18.50,99.52 -18.50,98.32 -18.51,97.12 -18.52,95.79 -18.52,94.45 -18.54,93.06 -18.56,91.67 -18.58,90.26 -18.61,88.85 -18.66,87.38 -18.71,85.92 -18.95,84.22 -19.19,82.53 -19.51,81.38 -19.83,80.24 -20.31,79.16 -20.78,78.08 -21.48,76.70 -22.19,75.32 -22.99,74.36 -23.80,73.39 -24.57,72.59 -25.33,71.78 -25.76,71.73 -26.19,71.69 -26.60,71.54 -27.01,71.39 -27.37,71.15 -27.73,70.90 -28.02,70.58 -28.31,70.26 -28.52,69.88 -28.73,69.50 -28.84,69.07 -28.95,68.65 -28.95,68.22 -28.96,67.79 -28.86,67.36 -28.76,66.94 -28.56,66.55 -28.36,66.17 -28.08,65.84 -27.80,65.51 -27.44,65.26 -27.09,65.01 -26.68,64.85 -26.28,64.69 -25.85,64.63 -25.42,64.57 -25.14,64.58 -24.87,64.59 -23.88,64.13 -22.90,63.67 -22.24,62.72 -21.57,61.77 -20.69,60.43 -19.80,59.09 -19.22,57.83 -18.63,56.58 -18.26,55.27 -17.89,53.95 -17.90,52.45 -17.91,50.94 -17.93,49.44 -17.94,47.94 -17.96,46.47 -17.97,45.00 -18.00,43.71 -18.03,42.42 -18.14,41.25 -18.26,40.07 -18.39,38.89 -18.53,37.70 -18.63,36.64 -18.73,35.58 -18.84,34.35 -18.96,33.12 -19.04,31.72 -19.12,30.31 -19.11,29.23 -19.10,28.15 -19.09,26.77 -19.09,25.38 -19.09,23.99 -19.08,22.60 -19.08,21.18 -19.07,19.76 -18.97,18.43 -18.87,17.11 -18.67,16.00 -18.46,14.88 -17.86,13.34 -17.26,11.80 -16.60,10.59 -15.94,9.37 -15.19,8.30 -14.44,7.22 -13.48,6.09 -12.52,4.97 -11.49,3.91 -10.46,2.86 -9.39,2.02 -8.33,1.18 -7.34,0.55 -6.36,-0.07 -4.74,-0.88 -3.12,-1.70 -2.03,-2.10 -0.95,-2.49 -0.63,-2.57 -0.32,-2.65 -0.00,-2.65 0.31,-2.65 0.63,-2.57 0.94,-2.50 1.22,-2.35 1.51,-2.20 1.75,-1.98 1.99,-1.77 2.18,-1.51 2.36,-1.24 2.47,-0.94 2.59,-0.64 2.63,-0.32 2.67,-0.00 2.63,0.31 2.59,0.63 2.48,0.93 2.36,1.23 2.18,1.50 2.00,1.76 1.76,1.98 1.52,2.19 1.23,2.34 0.95,2.49 0.95,2.49 L 0.95,2.49 Z"></path></g><g transform="translate(10 459.80357633530343) rotate(0 14.5 9.5)"><text x="0" y="0" font-family="Helvetica, Segoe UI Emoji" font-size="16px" fill="#0b7285" text-anchor="start" style="white-space: pre;" direction="ltr" dominant-baseline="text-before-edge">add</text></g><g transform="translate(127.37823220917903 543.8396344185014) rotate(0 11.5 9.5)"><text x="0" y="0" font-family="Helvetica, Segoe UI Emoji" font-size="16px" fill="#0b7285" text-anchor="start" style="white-space: pre;" direction="ltr" dominant-baseline="text-before-edge">SP</text></g><g transform="translate(110.70000600927926 493.32971474710416) rotate(0 21 9.5)"><text x="0" y="0" font-family="Helvetica, Segoe UI Emoji" font-size="16px" fill="#0b7285" text-anchor="start" style="white-space: pre;" direction="ltr" dominant-baseline="text-before-edge">SP+8</text></g><g transform="translate(103.6156275330543 442.6154404128938) rotate(0 25 9.5)"><text x="0" y="0" font-family="Helvetica, Segoe UI Emoji" font-size="16px" fill="#0b7285" text-anchor="start" style="white-space: pre;" direction="ltr" dominant-baseline="text-before-edge">SP+16</text></g><g transform="translate(347.8786668575773 470.4879319918616) rotate(0 51.5 9.5)"><text x="0" y="0" font-family="Helvetica, Segoe UI Emoji" font-size="16px" fill="#0b7285" text-anchor="start" style="white-space: pre;" direction="ltr" dominant-baseline="text-before-edge">add_local_arg</text></g></svg>