<svg version="1.1" xmlns="http://www.w3.org/2000/svg" viewBox="0 0 731.0663515188787 617.5120914795102" width="731.0663515188787" height="617.5120914795102">
  <!-- svg-source:excalidraw -->
  
  <defs>
    <style class="style-fonts">
      @font-face {
        font-family: "Virgil";
        src: url("/stylesheets/font/Virgil-hand.woff2");
      }
      @font-face {
        font-family: "Cascadia";
        src: url("https://unpkg.com/@excalidraw/excalidraw@0.15.3/dist/excalidraw-assets/Cascadia.woff2");
      }
    </style>
  </defs>
  <rect x="0" y="0" width="731.0663515188787" height="617.5120914795102" fill="#ffffff"></rect><g stroke-linecap="round" transform="translate(166.7935862924378 53.3113271698694) rotate(0 81.07254208121986 277.1003821548204)"><path d="M0 0 L162.15 0 L162.15 554.2 L0 554.2" stroke="none" stroke-width="0" fill="rgb(0,0,0)"></path><path d="M0 0 C38.51 0, 77.03 0, 162.15 0 M0 0 C33.73 0, 67.46 0, 162.15 0 M162.15 0 C162.15 156.62, 162.15 313.25, 162.15 554.2 M162.15 0 C162.15 172.82, 162.15 345.63, 162.15 554.2 M162.15 554.2 C102.29 554.2, 42.44 554.2, 0 554.2 M162.15 554.2 C127.16 554.2, 92.17 554.2, 0 554.2 M0 554.2 C0 365.97, 0 177.75, 0 0 M0 554.2 C0 441.33, 0 328.46, 0 0" stroke="#000000" stroke-width="1" fill="none"></path></g><g stroke-linecap="round" transform="translate(162.79213793293866 45.91121309807113) rotate(0 81.19435830152673 202.98589575381675)"><path d="M0 0 L162.39 0 L162.39 405.97 L0 405.97" stroke="none" stroke-width="0" fill="white"></path><path d="M0 0 C58.69 0, 117.39 0, 162.39 0 M0 0 C54.34 0, 108.68 0, 162.39 0 M162.39 0 C162.39 106.56, 162.39 213.11, 162.39 405.97 M162.39 0 C162.39 128.37, 162.39 256.73, 162.39 405.97 M162.39 405.97 C119.33 405.97, 76.28 405.97, 0 405.97 M162.39 405.97 C114.81 405.97, 67.23 405.97, 0 405.97 M0 405.97 C0 313.84, 0 221.71, 0 0 M0 405.97 C0 275.62, 0 145.27, 0 0" stroke="rgb(0,0,0)" stroke-width="1" fill="none"></path></g><g stroke-linecap="round" transform="translate(162.68195904858067 400.797910617508) rotate(0 81.5 25.5)"><path d="M0 0 L163 0 L163 51 L0 51" stroke="none" stroke-width="0" fill="rgb(255,255,255)"></path><path d="M0 0 C59.42 0, 118.84 0, 163 0 M0 0 C39.94 0, 79.89 0, 163 0 M163 0 C163 12.69, 163 25.37, 163 51 M163 0 C163 17.19, 163 34.38, 163 51 M163 51 C102.88 51, 42.75 51, 0 51 M163 51 C110.86 51, 58.72 51, 0 51 M0 51 C0 34.46, 0 17.92, 0 0 M0 51 C0 31.71, 0 12.42, 0 0" stroke="rgb(0,0,0)" stroke-width="1" fill="none"></path></g><g transform="translate(173.68195904858067 407.297910617508) rotate(0 70.5 20.5)"><text x="70.5" y="0" font-family="Helvetica, Segoe UI Emoji" font-size="16px" fill="#0b7285" text-anchor="middle" style="white-space: pre;" direction="ltr" dominant-baseline="text-before-edge">add调用者(main)的 </text><text x="70.5" y="20.5" font-family="Helvetica, Segoe UI Emoji" font-size="16px" fill="#0b7285" text-anchor="middle" style="white-space: pre;" direction="ltr" dominant-baseline="text-before-edge">bp</text></g><g stroke-linecap="round" transform="translate(162.68195904858067 350.05143667905395) rotate(0 81.5 25.5)"><path d="M0 0 L163 0 L163 51 L0 51" stroke="none" stroke-width="0" fill="rgb(255,255,255)"></path><path d="M0 0 C56.84 0, 113.68 0, 163 0 M0 0 C63.46 0, 126.93 0, 163 0 M163 0 C163 15.6, 163 31.19, 163 51 M163 0 C163 10.71, 163 21.42, 163 51 M163 51 C126.06 51, 89.13 51, 0 51 M163 51 C121.84 51, 80.68 51, 0 51 M0 51 C0 38.48, 0 25.95, 0 0 M0 51 C0 31.92, 0 12.84, 0 0" stroke="rgb(0,0,0)" stroke-width="1" fill="none"></path></g><g transform="translate(194.18195904858067 364.05143667905395) rotate(0 50 11.5)"><text x="50" y="0" font-family="Helvetica, Segoe UI Emoji" font-size="20px" fill="#0b7285" text-anchor="middle" style="white-space: pre;" direction="ltr" dominant-baseline="text-before-edge">return addr</text></g><g stroke-linecap="round" transform="translate(162.68195904858067 299.3049627405999) rotate(0 81.5 25.5)"><path d="M0 0 L163 0 L163 51 L0 51" stroke="none" stroke-width="0" fill="rgb(255,255,255)"></path><path d="M0 0 C63.99 0, 127.98 0, 163 0 M0 0 C51.79 0, 103.58 0, 163 0 M163 0 C163 12.43, 163 24.87, 163 51 M163 0 C163 17.37, 163 34.74, 163 51 M163 51 C121.58 51, 80.16 51, 0 51 M163 51 C118.67 51, 74.35 51, 0 51 M0 51 C0 32.07, 0 13.13, 0 0 M0 51 C0 35, 0 19.01, 0 0" stroke="rgb(0,0,0)" stroke-width="1" fill="none"></path></g><g transform="translate(237.68195904858067 313.3049627405999) rotate(0 6.5 11.5)"><text x="6.5" y="0" font-family="Helvetica, Segoe UI Emoji" font-size="20px" fill="#0b7285" text-anchor="middle" style="white-space: pre;" direction="ltr" dominant-baseline="text-before-edge">1</text></g><g stroke-linecap="round" transform="translate(162.68195904858067 248.5584888021458) rotate(0 81.5 25.5)"><path d="M0 0 L163 0 L163 51 L0 51" stroke="none" stroke-width="0" fill="rgb(255,255,255)"></path><path d="M0 0 C36.41 0, 72.82 0, 163 0 M0 0 C55.94 0, 111.89 0, 163 0 M163 0 C163 19.4, 163 38.8, 163 51 M163 0 C163 16.4, 163 32.8, 163 51 M163 51 C98.77 51, 34.55 51, 0 51 M163 51 C119.58 51, 76.15 51, 0 51 M0 51 C0 40.63, 0 30.26, 0 0 M0 51 C0 35.9, 0 20.79, 0 0" stroke="rgb(0,0,0)" stroke-width="1" fill="none"></path></g><g transform="translate(237.68195904858067 262.5584888021458) rotate(0 6.5 11.5)"><text x="6.5" y="0" font-family="Helvetica, Segoe UI Emoji" font-size="20px" fill="#0b7285" text-anchor="middle" style="white-space: pre;" direction="ltr" dominant-baseline="text-before-edge">2</text></g><g stroke-linecap="round" transform="translate(162.68195904858067 197.81201486369082) rotate(0 81.5 25.5)"><path d="M0 0 L163 0 L163 51 L0 51" stroke="none" stroke-width="0" fill="rgb(255,255,255)"></path><path d="M0 0 C49.3 0, 98.6 0, 163 0 M0 0 C41.67 0, 83.35 0, 163 0 M163 0 C163 13.81, 163 27.61, 163 51 M163 0 C163 13.74, 163 27.49, 163 51 M163 51 C125.6 51, 88.21 51, 0 51 M163 51 C98.66 51, 34.32 51, 0 51 M0 51 C0 31.25, 0 11.51, 0 0 M0 51 C0 33.75, 0 16.49, 0 0" stroke="rgb(0,0,0)" stroke-width="1" fill="none"></path></g><g transform="translate(237.68195904858067 211.81201486369082) rotate(0 6.5 11.5)"><text x="6.5" y="0" font-family="Helvetica, Segoe UI Emoji" font-size="20px" fill="#0b7285" text-anchor="middle" style="white-space: pre;" direction="ltr" dominant-baseline="text-before-edge">6</text></g><g stroke-linecap="round" transform="translate(162.68195904858067 147.06554092523675) rotate(0 81.5 25.5)"><path d="M0 0 L163 0 L163 51 L0 51" stroke="none" stroke-width="0" fill="rgb(255,255,255)"></path><path d="M0 0 C54.54 0, 109.09 0, 163 0 M0 0 C42.78 0, 85.57 0, 163 0 M163 0 C163 16.13, 163 32.25, 163 51 M163 0 C163 13.52, 163 27.04, 163 51 M163 51 C115.24 51, 67.48 51, 0 51 M163 51 C126.01 51, 89.02 51, 0 51 M0 51 C0 34.62, 0 18.25, 0 0 M0 51 C0 40.03, 0 29.07, 0 0" stroke="rgb(0,0,0)" stroke-width="1" fill="none"></path></g><g transform="translate(237.68195904858067 161.06554092523675) rotate(0 6.5 11.5)"><text x="6.5" y="0" font-family="Helvetica, Segoe UI Emoji" font-size="20px" fill="#0b7285" text-anchor="middle" style="white-space: pre;" direction="ltr" dominant-baseline="text-before-edge">2</text></g><g stroke-linecap="round" transform="translate(162.68195904858067 96.31906698678267) rotate(0 81.5 25.5)"><path d="M0 0 L163 0 L163 51 L0 51" stroke="none" stroke-width="0" fill="rgb(255,255,255)"></path><path d="M0 0 C45.23 0, 90.46 0, 163 0 M0 0 C37.34 0, 74.69 0, 163 0 M163 0 C163 14, 163 27.99, 163 51 M163 0 C163 15.02, 163 30.04, 163 51 M163 51 C117.92 51, 72.84 51, 0 51 M163 51 C100.25 51, 37.5 51, 0 51 M0 51 C0 37.46, 0 23.92, 0 0 M0 51 C0 30.61, 0 10.22, 0 0" stroke="rgb(0,0,0)" stroke-width="1" fill="none"></path></g><g transform="translate(237.68195904858067 110.31906698678267) rotate(0 6.5 11.5)"><text x="6.5" y="0" font-family="Helvetica, Segoe UI Emoji" font-size="20px" fill="#0b7285" text-anchor="middle" style="white-space: pre;" direction="ltr" dominant-baseline="text-before-edge">1</text></g><g stroke-linecap="round" transform="translate(162.10684000007166 40.54484961790877) rotate(0 82 28)"><path d="M0 0 L164 0 L164 56 L0 56" stroke="none" stroke-width="0" fill="rgb(255,255,255)"></path><path d="M0 0 C41.15 0, 82.29 0, 164 0 M0 0 C36.04 0, 72.07 0, 164 0 M164 0 C164 15.03, 164 30.05, 164 56 M164 0 C164 16.19, 164 32.37, 164 56 M164 56 C108.18 56, 52.36 56, 0 56 M164 56 C117.55 56, 71.09 56, 0 56 M0 56 C0 36.26, 0 16.52, 0 0 M0 56 C0 38.89, 0 21.77, 0 0" stroke="rgb(0,0,0)" stroke-width="1" fill="none"></path></g><g transform="translate(173.10684000007166 59.04484961790877) rotate(0 71 11.5)"><text x="71" y="0" font-family="Helvetica, Segoe UI Emoji" font-size="16px" fill="#0b7285" text-anchor="middle" style="white-space: pre;" direction="ltr" dominant-baseline="text-before-edge">main的调用者的 BP</text></g><g transform="translate(229.78948062986638 10) rotate(0 11 14)"><text x="0" y="0" font-family="Helvetica, Segoe UI Emoji" font-size="20px" fill="rgb(0,0,0)" text-anchor="start" style="white-space: pre;" direction="ltr" dominant-baseline="text-before-edge">栈</text></g><g transform="translate(352.5740644289692 215.31920809913754) rotate(0 4.5 11.5)"><text x="0" y="0" font-family="Helvetica, Segoe UI Emoji" font-size="20px" fill="#0b7285" text-anchor="start" style="white-space: pre;" direction="ltr" dominant-baseline="text-before-edge">r</text></g><g transform="translate(349.6629999431973 164.22385415161625) rotate(0 6.5 11.5)"><text x="0" y="0" font-family="Helvetica, Segoe UI Emoji" font-size="20px" fill="#0b7285" text-anchor="start" style="white-space: pre;" direction="ltr" dominant-baseline="text-before-edge">b</text></g><g transform="translate(347.46960658878356 115.95705129696307) rotate(0 6.5 11.5)"><text x="0" y="0" font-family="Helvetica, Segoe UI Emoji" font-size="20px" fill="#0b7285" text-anchor="start" style="white-space: pre;" direction="ltr" dominant-baseline="text-before-edge">a</text></g><g stroke-linecap="round" transform="translate(162.6228096560959 452.1326299125649) rotate(0 81.5 25.5)"><path d="M0 0 L163 0 L163 51 L0 51" stroke="none" stroke-width="0" fill="rgb(255,255,255)"></path><path d="M0 0 C46.07 0, 92.13 0, 163 0 M0 0 C50.83 0, 101.66 0, 163 0 M163 0 C163 18.83, 163 37.65, 163 51 M163 0 C163 11.01, 163 22.01, 163 51 M163 51 C107.64 51, 52.28 51, 0 51 M163 51 C129.8 51, 96.61 51, 0 51 M0 51 C0 37.75, 0 24.5, 0 0 M0 51 C0 39.68, 0 28.36, 0 0" stroke="rgb(0,0,0)" stroke-width="1" fill="none"></path></g><g transform="translate(237.6228096560959 466.1326299125649) rotate(0 6.5 11.5)"><text x="6.5" y="0" font-family="Helvetica, Segoe UI Emoji" font-size="20px" fill="#0b7285" text-anchor="middle" style="white-space: pre;" direction="ltr" dominant-baseline="text-before-edge">3</text></g><g stroke-linecap="round" transform="translate(162.9985537039271 502.6088829172759) rotate(0 81.5 25.5)"><path d="M0 0 L163 0 L163 51 L0 51" stroke="none" stroke-width="0" fill="rgb(255,255,255)"></path><path d="M0 0 C40.55 0, 81.09 0, 163 0 M0 0 C54.93 0, 109.87 0, 163 0 M163 0 C163 18.81, 163 37.62, 163 51 M163 0 C163 16.31, 163 32.63, 163 51 M163 51 C110.13 51, 57.27 51, 0 51 M163 51 C101.34 51, 39.69 51, 0 51 M0 51 C0 30.74, 0 10.48, 0 0 M0 51 C0 33.14, 0 15.28, 0 0" stroke="rgb(0,0,0)" stroke-width="1" fill="none"></path></g><g transform="translate(237.9985537039271 516.6088829172759) rotate(0 6.5 11.5)"><text x="6.5" y="0" font-family="Helvetica, Segoe UI Emoji" font-size="20px" fill="#0b7285" text-anchor="middle" style="white-space: pre;" direction="ltr" dominant-baseline="text-before-edge">6</text></g><g stroke-linecap="round" transform="translate(162.8508612435263 553.474857648398) rotate(0 81.5 25.5)"><path d="M0 0 L163 0 L163 51 L0 51" stroke="none" stroke-width="0" fill="rgb(255,255,255)"></path><path d="M0 0 C49.85 0, 99.7 0, 163 0 M0 0 C34.24 0, 68.48 0, 163 0 M163 0 C163 11.56, 163 23.11, 163 51 M163 0 C163 12.88, 163 25.76, 163 51 M163 51 C122.97 51, 82.94 51, 0 51 M163 51 C102.02 51, 41.04 51, 0 51 M0 51 C0 33.7, 0 16.4, 0 0 M0 51 C0 31.81, 0 12.61, 0 0" stroke="rgb(0,0,0)" stroke-width="1" fill="none"></path></g><g transform="translate(82.74076307751159 339.22406715697616) rotate(0 9.5 9.5)"><text x="0" y="0" font-family="Helvetica, Segoe UI Emoji" font-size="16px" fill="#0b7285" text-anchor="start" style="white-space: pre;" direction="ltr" dominant-baseline="text-before-edge">sp</text></g><g transform="translate(351.67924275258224 310.9599968872544) rotate(0 6 11.5)"><text x="0" y="0" font-family="Helvetica, Segoe UI Emoji" font-size="20px" fill="#0b7285" text-anchor="start" style="white-space: pre;" direction="ltr" dominant-baseline="text-before-edge">c</text></g><g transform="translate(350.5135845177965 267.542772160341) rotate(0 6.5 11.5)"><text x="0" y="0" font-family="Helvetica, Segoe UI Emoji" font-size="20px" fill="#0b7285" text-anchor="start" style="white-space: pre;" direction="ltr" dominant-baseline="text-before-edge">d</text></g><g transform="translate(64.53352840716661 285.6334580378443) rotate(0 18.5 9.5)"><text x="0" y="0" font-family="Helvetica, Segoe UI Emoji" font-size="16px" fill="#0b7285" text-anchor="start" style="white-space: pre;" direction="ltr" dominant-baseline="text-before-edge">sp+8</text></g><g transform="translate(348.3959411634255 520.2704731959975) rotate(0 20 11.5)"><text x="0" y="0" font-family="Helvetica, Segoe UI Emoji" font-size="20px" fill="#0b7285" text-anchor="start" style="white-space: pre;" direction="ltr" dominant-baseline="text-before-edge">sum</text></g><g stroke-linecap="round" transform="translate(558.0663515188787 81.07996487209039) rotate(0 81.5 25.5)"><path d="M0 0 L163 0 L163 51 L0 51" stroke="none" stroke-width="0" fill="rgb(255,255,255)"></path><path d="M0 0 C44.12 0, 88.24 0, 163 0 M0 0 C43.92 0, 87.84 0, 163 0 M163 0 C163 11.7, 163 23.4, 163 51 M163 0 C163 20.13, 163 40.26, 163 51 M163 51 C99.89 51, 36.79 51, 0 51 M163 51 C107.85 51, 52.71 51, 0 51 M0 51 C0 37.11, 0 23.22, 0 0 M0 51 C0 39.62, 0 28.24, 0 0" stroke="rgb(0,0,0)" stroke-width="1" fill="none"></path></g><g transform="translate(633.066351518879 95.07996487209039) rotate(0 6.5 11.5)"><text x="6.5" y="0" font-family="Helvetica, Segoe UI Emoji" font-size="20px" fill="#0b7285" text-anchor="middle" style="white-space: pre;" direction="ltr" dominant-baseline="text-before-edge">2</text></g><g stroke-linecap="round" transform="translate(558.0663515188787 30.333490933636313) rotate(0 81.5 25.5)"><path d="M0 0 L163 0 L163 51 L0 51" stroke="none" stroke-width="0" fill="rgb(255,255,255)"></path><path d="M0 0 C51.54 0, 103.08 0, 163 0 M0 0 C43.22 0, 86.44 0, 163 0 M163 0 C163 14.94, 163 29.89, 163 51 M163 0 C163 11.57, 163 23.15, 163 51 M163 51 C110.66 51, 58.33 51, 0 51 M163 51 C127.95 51, 92.91 51, 0 51 M0 51 C0 33.87, 0 16.74, 0 0 M0 51 C0 40.64, 0 30.29, 0 0" stroke="rgb(0,0,0)" stroke-width="1" fill="none"></path></g><g transform="translate(633.0663515188787 44.33349093363631) rotate(0 6.5 11.5)"><text x="6.5" y="0" font-family="Helvetica, Segoe UI Emoji" font-size="20px" fill="#0b7285" text-anchor="middle" style="white-space: pre;" direction="ltr" dominant-baseline="text-before-edge">6</text></g><g transform="translate(498.2722771349711 43.65396370155577) rotate(0 14.5 11.5)"><text x="0" y="0" font-family="Helvetica, Segoe UI Emoji" font-size="20px" fill="#0b7285" text-anchor="start" style="white-space: pre;" direction="ltr" dominant-baseline="text-before-edge">AX</text></g><g transform="translate(500.97743388253116 94.46778515883761) rotate(0 14.5 11.5)"><text x="0" y="0" font-family="Helvetica, Segoe UI Emoji" font-size="20px" fill="#0b7285" text-anchor="start" style="white-space: pre;" direction="ltr" dominant-baseline="text-before-edge">BX</text></g><g transform="translate(80.53687702398247 400.9510351271774) rotate(0 -11.42575025447178 76.64712653140305)" stroke="none"><path fill="#0b7285" d="M 0.95,2.49 Q 0.95,2.49 -0.12,2.92 -1.19,3.34 -2.22,4.02 -3.26,4.69 -4.44,5.67 -5.63,6.66 -6.35,7.46 -7.06,8.25 -7.93,9.27 -8.79,10.28 -9.65,11.62 -10.52,12.96 -11.04,14.16 -11.56,15.36 -11.86,16.85 -12.17,18.33 -12.19,19.63 -12.21,20.94 -12.22,22.37 -12.23,23.80 -12.23,25.25 -12.23,26.71 -12.23,27.96 -12.22,29.21 -12.21,30.35 -12.20,31.48 -11.96,33.29 -11.72,35.10 -11.47,36.92 -11.21,38.75 -11.07,40.33 -10.92,41.92 -10.91,43.42 -10.89,44.93 -10.90,46.43 -10.91,47.93 -10.92,49.43 -10.93,50.94 -10.94,52.45 -10.95,53.96 -11.16,55.57 -11.38,57.18 -11.86,58.32 -12.35,59.46 -13.02,60.86 -13.70,62.26 -14.36,63.39 -15.02,64.52 -15.84,65.71 -16.66,66.90 -17.51,67.88 -18.37,68.87 -19.43,69.73 -20.49,70.59 -21.50,71.00 -22.51,71.42 -23.67,71.59 -24.83,71.76 -25.08,71.77 -25.33,71.78 -25.76,71.73 -26.19,71.69 -26.60,71.54 -27.01,71.39 -27.37,71.14 -27.73,70.90 -28.02,70.58 -28.31,70.26 -28.52,69.88 -28.73,69.49 -28.84,69.07 -28.95,68.65 -28.95,68.22 -28.96,67.79 -28.86,67.36 -28.76,66.94 -28.56,66.55 -28.36,66.17 -28.08,65.84 -27.80,65.51 -27.44,65.26 -27.09,65.01 -26.68,64.85 -26.28,64.69 -25.85,64.63 -25.42,64.57 -23.92,64.86 -22.43,65.14 -21.44,65.89 -20.45,66.65 -19.61,67.33 -18.77,68.02 -17.92,68.96 -17.06,69.89 -16.43,70.75 -15.80,71.61 -15.30,72.64 -14.80,73.67 -14.31,74.65 -13.81,75.62 -13.21,77.15 -12.61,78.67 -12.32,79.72 -12.03,80.78 -11.80,82.36 -11.57,83.95 -11.43,85.57 -11.29,87.19 -11.30,88.54 -11.30,89.89 -11.32,91.37 -11.34,92.85 -11.37,94.43 -11.39,96.01 -11.39,97.76 -11.39,99.52 -11.40,100.82 -11.41,102.13 -11.41,103.46 -11.42,104.79 -11.42,106.02 -11.42,107.25 -11.42,108.57 -11.43,109.88 -11.44,111.31 -11.45,112.74 -11.46,114.23 -11.47,115.72 -11.48,117.33 -11.50,118.93 -11.50,120.36 -11.51,121.78 -11.49,123.45 -11.48,125.12 -11.46,126.50 -11.44,127.89 -11.22,129.26 -11.01,130.64 -10.61,132.30 -10.20,133.96 -9.89,135.26 -9.58,136.56 -9.30,137.62 -9.02,138.68 -8.61,140.17 -8.20,141.67 -7.74,142.94 -7.29,144.21 -6.54,145.50 -5.80,146.78 -4.95,147.45 -4.10,148.12 -2.86,148.50 -1.61,148.89 2.19,150.19 5.99,151.50 6.18,152.07 6.37,152.65 6.37,153.26 6.37,153.87 6.17,154.45 5.97,155.02 5.60,155.50 5.22,155.99 4.72,156.33 4.21,156.66 3.62,156.82 3.03,156.98 2.43,156.94 1.82,156.91 1.25,156.68 0.69,156.45 0.23,156.05 -0.22,155.65 -0.53,155.13 -0.84,154.60 -0.97,154.01 -1.10,153.41 -1.03,152.81 -0.96,152.20 -0.70,151.65 -0.44,151.10 -0.01,150.66 0.40,150.22 0.94,149.94 1.48,149.66 2.08,149.56 2.68,149.47 3.28,149.57 3.88,149.68 4.42,149.96 4.96,150.25 5.37,150.70 5.79,151.14 6.04,151.70 6.29,152.25 6.35,152.86 6.41,153.47 6.28,154.06 6.14,154.65 5.82,155.17 5.51,155.69 5.04,156.08 4.57,156.48 4.00,156.70 3.44,156.92 2.83,156.95 2.22,156.97 1.63,156.81 1.05,156.64 0.55,156.29 0.04,155.95 -0.31,155.46 -0.68,154.97 -0.67,154.97 -0.67,154.97 -1.53,155.69 -2.38,156.40 -3.57,156.13 -4.77,155.86 -5.86,155.43 -6.95,155.00 -8.35,154.13 -9.75,153.26 -10.51,152.44 -11.27,151.62 -11.88,150.72 -12.49,149.82 -13.13,148.57 -13.76,147.32 -14.29,145.85 -14.81,144.39 -15.22,143.01 -15.62,141.63 -15.95,140.24 -16.28,138.86 -16.67,137.44 -17.06,136.02 -17.32,134.73 -17.57,133.44 -17.83,132.33 -18.09,131.23 -18.27,129.56 -18.46,127.89 -18.44,126.50 -18.42,125.12 -18.40,123.45 -18.39,121.78 -18.39,120.36 -18.39,118.93 -18.41,117.33 -18.43,115.72 -18.44,114.23 -18.45,112.74 -18.46,111.31 -18.47,109.88 -18.47,108.57 -18.47,107.25 -18.47,106.02 -18.47,104.79 -18.48,103.46 -18.49,102.13 -18.49,100.82 -18.50,99.52 -18.50,98.32 -18.51,97.12 -18.52,95.79 -18.52,94.45 -18.54,93.06 -18.56,91.67 -18.58,90.26 -18.61,88.85 -18.66,87.38 -18.71,85.92 -18.95,84.22 -19.19,82.53 -19.51,81.38 -19.83,80.24 -20.31,79.16 -20.78,78.08 -21.48,76.70 -22.19,75.32 -22.99,74.36 -23.80,73.39 -24.57,72.59 -25.33,71.78 -25.76,71.73 -26.19,71.69 -26.60,71.54 -27.01,71.39 -27.37,71.15 -27.73,70.90 -28.02,70.58 -28.31,70.26 -28.52,69.88 -28.73,69.50 -28.84,69.07 -28.95,68.65 -28.95,68.22 -28.96,67.79 -28.86,67.36 -28.76,66.94 -28.56,66.55 -28.36,66.17 -28.08,65.84 -27.80,65.51 -27.44,65.26 -27.09,65.01 -26.68,64.85 -26.28,64.69 -25.85,64.63 -25.42,64.57 -25.14,64.58 -24.87,64.59 -23.88,64.13 -22.90,63.67 -22.24,62.72 -21.57,61.77 -20.69,60.43 -19.80,59.09 -19.22,57.83 -18.63,56.58 -18.26,55.27 -17.89,53.95 -17.90,52.45 -17.91,50.94 -17.93,49.44 -17.94,47.94 -17.96,46.47 -17.97,45.00 -18.00,43.71 -18.03,42.42 -18.14,41.25 -18.26,40.07 -18.39,38.89 -18.53,37.70 -18.63,36.64 -18.73,35.58 -18.84,34.35 -18.96,33.12 -19.04,31.72 -19.12,30.31 -19.11,29.23 -19.10,28.15 -19.09,26.77 -19.09,25.38 -19.09,23.99 -19.08,22.60 -19.08,21.18 -19.07,19.76 -18.97,18.43 -18.87,17.11 -18.67,16.00 -18.46,14.88 -17.86,13.34 -17.26,11.80 -16.60,10.59 -15.94,9.37 -15.19,8.30 -14.44,7.22 -13.48,6.09 -12.52,4.97 -11.49,3.91 -10.46,2.86 -9.39,2.02 -8.33,1.18 -7.34,0.55 -6.36,-0.07 -4.74,-0.88 -3.12,-1.70 -2.03,-2.10 -0.95,-2.49 -0.63,-2.57 -0.32,-2.65 -0.00,-2.65 0.31,-2.65 0.63,-2.57 0.94,-2.50 1.22,-2.35 1.51,-2.20 1.75,-1.98 1.99,-1.77 2.18,-1.51 2.36,-1.24 2.47,-0.94 2.59,-0.64 2.63,-0.32 2.67,-0.00 2.63,0.31 2.59,0.63 2.48,0.93 2.36,1.23 2.18,1.50 2.00,1.76 1.76,1.98 1.52,2.19 1.23,2.34 0.95,2.49 0.95,2.49 L 0.95,2.49 Z"></path></g><g transform="translate(10 459.80357633530366) rotate(0 14.5 9.5)"><text x="0" y="0" font-family="Helvetica, Segoe UI Emoji" font-size="16px" fill="#0b7285" text-anchor="start" style="white-space: pre;" direction="ltr" dominant-baseline="text-before-edge">add</text></g><g transform="translate(347.8786668575772 470.48793199186184) rotate(0 51.5 9.5)"><text x="0" y="0" font-family="Helvetica, Segoe UI Emoji" font-size="16px" fill="#0b7285" text-anchor="start" style="white-space: pre;" direction="ltr" dominant-baseline="text-before-edge">add_local_arg</text></g><g transform="translate(56.8018906701011 236.73615486129438) rotate(0 23 9.5)"><text x="0" y="0" font-family="Helvetica, Segoe UI Emoji" font-size="16px" fill="#0b7285" text-anchor="start" style="white-space: pre;" direction="ltr" dominant-baseline="text-before-edge">sp+16</text></g><g stroke-linecap="round"><g transform="translate(108.29915822860016 348.929158889518) rotate(0 24.40413560954778 1.2844905143854248)"><path d="M0.33 1.03 C11.16 2.19, 22.13 3, 49.47 2.65 M0.37 -0.64 C12.07 0.56, 25.51 0.08, 49.14 1.92" stroke="#0b7285" stroke-width="1" fill="none"></path></g><g transform="translate(108.29915822860016 348.929158889518) rotate(0 24.40413560954778 1.2844905143854248)"><path d="M47.8 0.65 L34.85 5.54 L35.73 -3.89 L47.7 1.73" stroke="none" stroke-width="0" fill="#0b7285" fill-rule="evenodd"></path><path d="M49.39 2.69 C46.06 4.3, 42.8 5.71, 35.69 7.49 M49.42 1.44 C44.9 3.76, 41.7 4.33, 35.44 6.94 M35.25 7.87 C35.64 5.87, 36.57 1.67, 35.25 -4.85 M35.44 7.19 C35.53 4.68, 34.97 2.07, 35.5 -5.29 M35.94 -4.24 C41.55 -2.43, 44.82 0.38, 49.64 1.2 M35.69 -4.76 C40.64 -2.41, 44.94 -0.54, 49.64 1.6 M49.14 1.92 C49.14 1.92, 49.14 1.92, 49.14 1.92 M49.14 1.92 C49.14 1.92, 49.14 1.92, 49.14 1.92" stroke="#0b7285" stroke-width="1" fill="none"></path></g></g><mask></mask><g stroke-linecap="round"><g transform="translate(112.48934377547516 246.50075570089075) rotate(0 20.781982421875 0.65911865234375)"><path d="M-1.47 0.78 C10.38 0.78, 18.23 1.53, 43.47 3.28 M0.25 0.61 C16.53 -0.11, 31.72 1.58, 41.3 1.12" stroke="#0b7285" stroke-width="1" fill="none"></path></g><g transform="translate(112.48934377547516 246.50075570089075) rotate(0 20.781982421875 0.65911865234375)"><path d="M41.49 1.19 L27.46 6.95 L28.46 -6.08 L39.48 -0.21" stroke="none" stroke-width="0" fill="#0b7285" fill-rule="evenodd"></path><path d="M40.2 1.71 C39.03 2.84, 34.84 4.59, 29.11 8.87 M41.49 1.58 C36.68 3.15, 31.03 6.42, 27.49 7.25 M26.41 6.51 C27.61 5.12, 28.48 0.66, 27.46 -6.48 M27.41 8.01 C27.46 4.5, 27.45 2.14, 27.14 -5.5 M28.32 -5.11 C32.94 -3.12, 35.96 -0.41, 41.23 1.33 M28.14 -5.14 C32.67 -2.24, 38.86 -0.35, 41.06 1.82 M41.3 1.12 C41.3 1.12, 41.3 1.12, 41.3 1.12 M41.3 1.12 C41.3 1.12, 41.3 1.12, 41.3 1.12" stroke="#0b7285" stroke-width="1" fill="none"></path></g></g><mask></mask><g stroke-linecap="round"><g transform="translate(107.15261281844391 296.559166345422) rotate(0 24.385498046875 0.55780029296875)"><path d="M1.54 0.3 C14.73 1.64, 29.12 0.89, 50.45 2.99 M-0.44 0.64 C11.8 0.04, 21.53 1.34, 49.38 2.08" stroke="#0b7285" stroke-width="1" fill="none"></path></g><g transform="translate(107.15261281844391 296.559166345422) rotate(0 24.385498046875 0.55780029296875)"><path d="M49.85 3.93 L33.6 6.29 L36.69 -4.31 L49 0.28" stroke="none" stroke-width="0" fill="#0b7285" fill-rule="evenodd"></path><path d="M50.54 2.31 C45.36 4.87, 41.05 5.81, 36.82 9.33 M49.05 2.56 C46.97 3.33, 42.98 5.43, 36.03 8.65 M36.6 6.87 C34.77 4.36, 35.84 0.77, 36.05 -5.43 M35.41 7.9 C35.7 3.98, 35.34 0.65, 36.09 -4.72 M35.43 -6.11 C38.87 -3.61, 42.3 -1.05, 48.59 1.54 M35.66 -4.54 C39.46 -3.33, 41.76 -2.01, 48.66 2.24 M49.38 2.08 C49.38 2.08, 49.38 2.08, 49.38 2.08 M49.38 2.08 C49.38 2.08, 49.38 2.08, 49.38 2.08" stroke="#0b7285" stroke-width="1" fill="none"></path></g></g><mask></mask><g stroke-linecap="round"><g transform="translate(398.1911870371939 349.41518441182825) rotate(0 -33.998779296875 -0.069366455078125)"><path d="M0.06 -0.23 C-15.13 0.76, -30.17 -1.82, -69.33 -1.19 M-0.36 -0.64 C-13.68 -0.46, -28.41 -0.15, -67.65 -0.41" stroke="#0b7285" stroke-width="1" fill="none"></path></g><g transform="translate(398.1911870371939 349.41518441182825) rotate(0 -33.998779296875 -0.069366455078125)"><path d="M-67.7 -2.02 L-55.02 -5.41 L-55.19 7.73 L-69.35 -0.89" stroke="none" stroke-width="0" fill="#0b7285" fill-rule="evenodd"></path><path d="M-67.6 -0.58 C-65 -1.24, -62.33 -4.51, -55.03 -7.49 M-67.92 -0.89 C-64.63 -1.69, -62.41 -2.72, -53.77 -6.91 M-53.78 -7.58 C-52.96 -4.85, -54.17 -1.31, -55.14 7.08 M-54.2 -6.46 C-54.5 -3.46, -53.78 0.67, -53.54 5.5 M-53.26 6.33 C-57.03 2.35, -63.99 2.28, -67.32 -0.7 M-54.19 5.24 C-57.6 4.37, -59.14 2.83, -67.9 -0.21 M-67.65 -0.41 C-67.65 -0.41, -67.65 -0.41, -67.65 -0.41 M-67.65 -0.41 C-67.65 -0.41, -67.65 -0.41, -67.65 -0.41" stroke="#0b7285" stroke-width="1" fill="none"></path></g></g><mask></mask><g transform="translate(410.1537114512564 337.17043343526575) rotate(0 59.5 11.5)"><text x="0" y="0" font-family="Helvetica, Segoe UI Emoji" font-size="16px" fill="#0b7285" text-anchor="start" style="white-space: pre;" direction="ltr" dominant-baseline="text-before-edge">SP重新指向这里</text></g></svg>