<svg version="1.1" xmlns="http://www.w3.org/2000/svg" viewBox="0 0 1060.9091706452427 806.9682071318075" width="1060.9091706452427" height="806.9682071318075">
  <!-- svg-source:excalidraw -->
  
  <defs>
    <style class="style-fonts">
      @font-face {
        font-family: "Virgil";
        src: url("https://unpkg.com/@excalidraw/excalidraw@0.15.2/dist/excalidraw-assets/Virgil.woff2");
      }
      @font-face {
        font-family: "Cascadia";
        src: url("https://unpkg.com/@excalidraw/excalidraw@0.15.2/dist/excalidraw-assets/Cascadia.woff2");
      }
    </style>
  </defs>
  <rect x="0" y="0" width="1060.9091706452427" height="806.9682071318075" fill="#ffffff"></rect><g transform="translate(113.97357177734375 275.6887419118944) rotate(0 296.09100341796875 0.001495361328125)" stroke="none"><path fill="#5c940d" d="M 0.00,-1.56 Q 0.00,-1.56 2.95,-1.52 5.90,-1.49 21.10,-1.46 36.30,-1.44 54.35,-1.42 72.40,-1.40 109.16,-1.39 145.92,-1.37 177.15,-1.37 208.37,-1.36 241.62,-1.35 274.86,-1.34 313.66,-1.34 352.45,-1.33 384.85,-1.33 417.25,-1.32 435.17,-1.32 453.10,-1.32 471.38,-1.32 489.67,-1.32 502.79,-1.31 515.91,-1.31 528.75,-1.31 541.59,-1.31 549.55,-1.31 557.50,-1.31 562.98,-1.31 568.46,-1.31 571.83,-1.31 575.20,-1.31 578.02,-1.31 580.84,-1.31 582.43,-1.40 584.02,-1.50 585.23,-1.61 586.45,-1.72 588.11,-1.90 589.78,-2.08 591.85,-2.15 593.93,-2.22 594.28,-2.16 594.64,-2.10 594.96,-1.93 595.27,-1.76 595.52,-1.50 595.77,-1.24 595.92,-0.91 596.07,-0.59 596.11,-0.23 596.15,0.12 596.07,0.47 595.99,0.82 595.81,1.13 595.62,1.44 595.35,1.67 595.07,1.90 594.74,2.04 594.41,2.17 594.05,2.19 593.69,2.21 593.34,2.11 592.99,2.02 592.69,1.82 592.40,1.61 592.18,1.33 591.96,1.04 591.85,0.70 591.73,0.36 591.73,0.00 591.73,-0.35 591.85,-0.69 591.96,-1.03 592.18,-1.32 592.40,-1.61 592.69,-1.81 592.99,-2.01 593.34,-2.11 593.69,-2.20 594.05,-2.18 594.41,-2.17 594.74,-2.03 595.07,-1.90 595.35,-1.67 595.62,-1.43 595.81,-1.12 595.99,-0.82 596.07,-0.46 596.15,-0.11 596.11,0.24 596.07,0.59 595.92,0.92 595.77,1.25 595.52,1.51 595.27,1.77 594.95,1.94 594.64,2.11 594.28,2.17 593.93,2.22 593.93,2.22 593.93,2.22 591.85,2.16 589.78,2.09 588.11,1.91 586.45,1.73 585.23,1.62 584.02,1.51 582.43,1.41 580.84,1.31 578.02,1.31 575.20,1.31 571.83,1.31 568.46,1.31 562.98,1.31 557.50,1.32 549.55,1.32 541.59,1.32 528.75,1.32 515.91,1.32 502.79,1.32 489.67,1.32 471.38,1.32 453.10,1.33 435.17,1.33 417.25,1.33 384.85,1.33 352.45,1.34 313.66,1.34 274.86,1.35 241.62,1.35 208.37,1.36 177.15,1.37 145.92,1.38 109.16,1.39 72.40,1.41 54.35,1.42 36.30,1.44 21.10,1.47 5.90,1.49 2.95,1.52 -0.00,1.56 -0.18,1.53 -0.37,1.51 -0.55,1.44 -0.72,1.38 -0.88,1.27 -1.03,1.16 -1.16,1.02 -1.28,0.88 -1.37,0.72 -1.46,0.55 -1.50,0.37 -1.55,0.18 -1.55,-0.00 -1.55,-0.18 -1.50,-0.37 -1.46,-0.55 -1.37,-0.72 -1.28,-0.88 -1.16,-1.02 -1.03,-1.16 -0.88,-1.27 -0.72,-1.38 -0.54,-1.45 -0.37,-1.51 -0.18,-1.53 0.00,-1.56 0.00,-1.56 L 0.00,-1.56 Z"></path></g><g stroke-linecap="round"><g transform="translate(116.20355784179287 320.7081510915819) rotate(0 -1.034701284177686 -23.616058349609375)"><path d="M-0.91 -0.57 C-1.39 -8.67, -2.58 -40.31, -2.94 -48.28 M0.81 1.74 C0.71 -6.27, -0.43 -39.06, -0.69 -47.29" stroke="#e67700" stroke-width="1" fill="none"></path></g><g transform="translate(116.20355784179287 320.7081510915819) rotate(0 -1.034701284177686 -23.616058349609375)"><path d="M-0.94 -48.03 L7.55 -35.7 L-5.12 -33.61 L-0.21 -49.24" stroke="none" stroke-width="0" fill="#e67700" fill-rule="evenodd"></path><path d="M-1.4 -48.39 C0.05 -44.57, 1.93 -39.64, 6.52 -33.26 M-0.38 -47.07 C1.42 -42.73, 3.76 -39.23, 6.67 -33.56 M5.12 -32.76 C3.64 -33.49, -0.29 -33.09, -5.9 -34.22 M6.2 -33.8 C1.23 -33.8, -4.21 -32.98, -6.32 -33.77 M-5.44 -32.88 C-4.57 -39.3, -3.49 -41.46, 0.07 -46.45 M-6.67 -34.22 C-4.35 -38.37, -2.66 -42.86, -1.04 -47.76 M-0.69 -47.29 C-0.69 -47.29, -0.69 -47.29, -0.69 -47.29 M-0.69 -47.29 C-0.69 -47.29, -0.69 -47.29, -0.69 -47.29" stroke="#e67700" stroke-width="1" fill="none"></path></g></g><mask></mask><g transform="translate(10 333.5523588552538) rotate(0 55.0244140625 11.5)"><text x="0" y="0" font-family="Helvetica, Segoe UI Emoji" font-size="20px" fill="#000000" text-anchor="start" style="white-space: pre;" direction="ltr" dominant-baseline="text-before-edge">preStop开始</text></g><g stroke-linecap="round"><g transform="translate(310.9598212066994 321.9354443307805) rotate(0 -0.5819793752452824 -24.195709228515625)"><path d="M-0.91 -0.57 C-1.24 -8.86, -1.82 -41.28, -2.04 -49.44 M0.81 1.74 C0.86 -6.46, 0.33 -40.02, 0.22 -48.45" stroke="#e67700" stroke-width="1" fill="none"></path></g><g transform="translate(310.9598212066994 321.9354443307805) rotate(0 -0.5819793752452824 -24.195709228515625)"><path d="M-0.03 -49.18 L8.2 -36.74 L-4.47 -34.89 L0.7 -50.4" stroke="none" stroke-width="0" fill="#e67700" fill-rule="evenodd"></path><path d="M-0.5 -49.55 C0.88 -45.69, 2.69 -40.73, 7.17 -34.29 M0.53 -48.23 C2.25 -43.86, 4.52 -40.31, 7.32 -34.59 M5.77 -33.79 C4.29 -34.59, 0.36 -34.25, -5.25 -35.49 M6.86 -34.84 C1.88 -34.92, -3.57 -34.2, -5.68 -35.04 M-4.79 -34.15 C-3.83 -40.53, -2.66 -42.66, 0.98 -47.61 M-6.02 -35.49 C-3.61 -39.6, -1.83 -44.05, -0.14 -48.92 M0.22 -48.45 C0.22 -48.45, 0.22 -48.45, 0.22 -48.45 M0.22 -48.45 C0.22 -48.45, 0.22 -48.45, 0.22 -48.45" stroke="#e67700" stroke-width="1" fill="none"></path></g></g><mask></mask><g transform="translate(202.73828125 337.72798751736315) rotate(0 55.0244140625 11.5)"><text x="0" y="0" font-family="Helvetica, Segoe UI Emoji" font-size="20px" fill="#000000" text-anchor="start" style="white-space: pre;" direction="ltr" dominant-baseline="text-before-edge">preStop结束</text></g><g stroke-linecap="round"><g transform="translate(315.9821981592552 221.2888395681444) rotate(0 -1.5109965405650883 23.20849609375)"><path d="M0.52 -0.39 C0.09 7.01, -2.92 37.95, -3.5 45.63 M-0.66 -1.65 C-1.21 6.4, -4.19 38.71, -4.7 46.75" stroke="#5f3dc4" stroke-width="1" fill="none"></path></g><g transform="translate(315.9821981592552 221.2888395681444) rotate(0 -1.5109965405650883 23.20849609375)"><path d="M-4.68 45.21 L-9.95 32.29 L2.09 34.46 L-4.28 45.59" stroke="none" stroke-width="0" fill="#5f3dc4" fill-rule="evenodd"></path><path d="M-5.19 46.16 C-6.99 43.73, -8.06 39.46, -8.56 31.27 M-5.19 47.37 C-5.3 43.62, -7.43 40.79, -10.28 32.18 M-8.79 33.41 C-5.38 32.38, 0.91 33.48, 3.07 34.23 M-10.11 33.13 C-6.31 33.06, -1.3 33.37, 3.3 33.57 M1.95 32.26 C0.86 36.68, -0.97 41.86, -4.8 46.23 M3.05 33.36 C1.34 36.55, -0.8 38.57, -5.18 46.2 M-4.7 46.75 C-4.7 46.75, -4.7 46.75, -4.7 46.75 M-4.7 46.75 C-4.7 46.75, -4.7 46.75, -4.7 46.75" stroke="#5f3dc4" stroke-width="1" fill="none"></path></g></g><mask></mask><g transform="translate(305.95074462890625 159.94222091580065) rotate(0 122.7783203125 23)"><text x="0" y="0" font-family="Helvetica, Segoe UI Emoji" font-size="20px" fill="#862e9c" text-anchor="start" style="white-space: pre;" direction="ltr" dominant-baseline="text-before-edge">发送sigterm信号</text><text x="0" y="23" font-family="Helvetica, Segoe UI Emoji" font-size="20px" fill="#862e9c" text-anchor="start" style="white-space: pre;" direction="ltr" dominant-baseline="text-before-edge">给容器,让容器自己优雅退出</text></g><g stroke-linecap="round"><g transform="translate(528.9974146874006 220.4637228001057) rotate(0 -1.4458814159659141 25.23714334495685)"><path d="M-0.4 -0.12 C-0.92 8.45, -2.55 42.01, -2.82 50.49 M1.6 -1.22 C0.9 7.63, -3.08 43.13, -3.73 52.03" stroke="#1864ab" stroke-width="1" fill="none"></path></g><g transform="translate(528.9974146874006 220.4637228001057) rotate(0 -1.4458814159659141 25.23714334495685)"><path d="M-4.57 50.76 L-9.79 37.64 L2.23 39.73 L-4.7 52.06" stroke="none" stroke-width="0" fill="#1864ab" fill-rule="evenodd"></path><path d="M-3.88 52.12 C-5.24 48.5, -6.54 42.1, -7.86 36.88 M-3.52 51.55 C-4.53 48.73, -6.35 45.49, -8.79 37.22 M-9.79 38.89 C-5.99 37.48, -2.24 38.4, 3.71 37.94 M-8.63 38.09 C-4.82 38.48, -1.8 37.95, 3.58 39.55 M2.44 38.34 C2.24 44.07, -1.28 47.23, -2.39 52.6 M3.56 38.97 C0.51 43.8, -1.63 47.95, -4.33 52.43 M-3.73 52.03 C-3.73 52.03, -3.73 52.03, -3.73 52.03 M-3.73 52.03 C-3.73 52.03, -3.73 52.03, -3.73 52.03" stroke="#1864ab" stroke-width="1" fill="none"></path></g></g><mask></mask><g transform="translate(548.3130413233037 221.9499091396313) rotate(0 149.462890625 11.5)"><text x="0" y="0" font-family="Helvetica, Segoe UI Emoji" font-size="20px" fill="#1864ab" text-anchor="start" style="white-space: pre;" direction="ltr" dominant-baseline="text-before-edge">容器结束退出了,然后pod被删除了</text></g><g transform="translate(108.77825927734375 175.7668669118944) rotate(0 300.07220458984375 -59.50807189941406)" stroke="none"><path fill="#495057" d="M -2.29,-0.00 Q -2.29,-0.00 -2.33,-1.21 -2.37,-2.43 -2.44,-4.64 -2.50,-6.86 -2.54,-7.95 -2.57,-9.03 -2.41,-10.79 -2.25,-12.55 -2.09,-14.01 -1.93,-15.47 -1.05,-17.96 -0.18,-20.44 0.17,-21.82 0.53,-23.19 1.05,-24.58 1.57,-25.98 2.56,-27.78 3.55,-29.58 4.39,-31.33 5.23,-33.08 5.90,-34.57 6.57,-36.06 7.15,-37.28 7.73,-38.50 8.67,-40.01 9.61,-41.51 10.29,-42.61 10.97,-43.71 12.10,-45.17 13.23,-46.63 13.97,-47.69 14.71,-48.76 15.83,-50.08 16.95,-51.40 17.87,-52.38 18.79,-53.36 19.91,-54.47 21.03,-55.57 21.95,-56.44 22.87,-57.31 24.31,-58.33 25.75,-59.35 27.08,-60.17 28.41,-60.99 29.90,-61.81 31.40,-62.64 32.59,-63.27 33.79,-63.90 36.15,-64.68 38.51,-65.45 40.16,-66.05 41.81,-66.64 44.10,-67.28 46.40,-67.92 48.17,-68.56 49.95,-69.20 52.49,-69.92 55.03,-70.65 56.95,-71.21 58.87,-71.77 61.45,-72.35 64.02,-72.93 65.94,-73.43 67.85,-73.93 70.63,-74.37 73.42,-74.82 75.44,-75.14 77.46,-75.46 79.92,-75.71 82.38,-75.96 84.25,-76.22 86.13,-76.49 88.46,-76.80 90.79,-77.11 92.68,-77.30 94.58,-77.49 96.59,-77.67 98.61,-77.86 100.85,-78.03 103.09,-78.21 105.11,-78.30 107.14,-78.40 109.71,-78.42 112.29,-78.43 114.92,-78.43 117.55,-78.43 119.53,-78.46 121.50,-78.49 123.19,-78.56 124.89,-78.63 127.54,-78.59 130.18,-78.56 131.99,-78.60 133.80,-78.64 136.15,-78.60 138.49,-78.56 140.01,-78.65 141.54,-78.73 144.11,-78.68 146.69,-78.63 148.64,-78.63 150.59,-78.64 153.28,-78.73 155.97,-78.82 157.95,-78.99 159.93,-79.17 162.86,-79.47 165.78,-79.78 168.07,-80.03 170.36,-80.29 173.38,-80.77 176.41,-81.26 178.72,-81.72 181.04,-82.18 184.13,-82.77 187.21,-83.35 189.55,-83.86 191.88,-84.36 195.61,-85.01 199.34,-85.66 202.18,-86.07 205.02,-86.49 209.14,-87.10 213.26,-87.71 216.23,-88.25 219.21,-88.78 223.17,-89.57 227.14,-90.37 229.86,-90.96 232.58,-91.56 235.12,-92.16 237.65,-92.76 239.38,-93.30 241.11,-93.84 242.50,-94.36 243.89,-94.88 245.18,-95.50 246.47,-96.12 248.36,-97.23 250.25,-98.34 251.72,-99.51 253.18,-100.68 254.73,-101.98 256.27,-103.28 257.71,-104.67 259.15,-106.06 259.98,-107.12 260.81,-108.18 261.38,-109.19 261.95,-110.19 262.03,-111.58 262.11,-112.98 262.06,-114.26 262.01,-115.55 262.12,-116.67 262.24,-117.80 262.57,-118.88 262.90,-119.97 264.15,-121.14 265.40,-122.32 266.85,-122.08 268.31,-121.85 269.36,-121.12 270.42,-120.38 272.16,-119.05 273.89,-117.72 274.88,-117.05 275.86,-116.37 278.01,-114.72 280.16,-113.07 282.01,-111.81 283.86,-110.55 286.69,-108.92 289.51,-107.29 291.75,-106.03 293.98,-104.77 296.99,-103.17 300.01,-101.56 302.32,-100.33 304.63,-99.11 306.65,-98.05 308.66,-96.99 312.19,-95.41 315.71,-93.82 318.46,-92.58 321.22,-91.34 325.06,-89.82 328.90,-88.30 332.01,-87.06 335.12,-85.81 339.35,-84.27 343.57,-82.72 346.61,-81.64 349.65,-80.57 353.85,-79.24 358.04,-77.91 361.27,-77.05 364.49,-76.20 368.56,-75.27 372.62,-74.34 375.60,-73.67 378.58,-72.99 382.34,-72.15 386.09,-71.31 388.73,-70.69 391.37,-70.07 394.93,-69.54 398.48,-69.02 400.70,-68.67 402.93,-68.33 406.78,-67.89 410.64,-67.46 413.33,-67.14 416.03,-66.82 419.23,-66.56 422.43,-66.30 425.06,-66.05 427.68,-65.80 431.06,-65.55 434.44,-65.31 436.91,-65.21 439.37,-65.10 442.92,-64.92 446.47,-64.74 449.42,-64.66 452.37,-64.58 456.37,-64.26 460.38,-63.95 463.73,-63.81 467.09,-63.68 470.01,-63.47 472.93,-63.27 476.86,-63.05 480.78,-62.82 483.72,-62.59 486.65,-62.35 490.19,-61.98 493.73,-61.61 496.27,-61.33 498.82,-61.04 502.18,-60.65 505.55,-60.26 508.25,-59.81 510.96,-59.37 514.41,-58.64 517.86,-57.91 520.36,-57.34 522.87,-56.77 526.22,-55.99 529.56,-55.21 532.03,-54.62 534.50,-54.02 536.96,-53.31 539.42,-52.59 541.92,-51.85 544.42,-51.11 546.59,-50.36 548.75,-49.62 550.37,-49.16 551.99,-48.70 553.89,-48.03 555.80,-47.36 557.18,-46.95 558.56,-46.53 560.21,-45.92 561.86,-45.31 563.12,-44.90 564.37,-44.50 565.75,-43.93 567.12,-43.36 568.21,-42.96 569.30,-42.57 570.60,-42.00 571.90,-41.42 573.97,-40.47 576.05,-39.51 576.95,-38.93 577.86,-38.36 579.73,-37.15 581.60,-35.94 582.93,-34.91 584.25,-33.87 585.19,-33.14 586.13,-32.41 588.00,-30.93 589.87,-29.45 591.62,-27.88 593.36,-26.30 594.72,-24.71 596.08,-23.12 596.93,-21.88 597.79,-20.65 598.46,-19.60 599.13,-18.54 599.72,-17.55 600.30,-16.56 600.82,-15.29 601.33,-14.03 601.65,-12.63 601.98,-11.24 602.24,-10.20 602.49,-9.17 602.78,-7.07 603.07,-4.97 603.26,-4.45 603.46,-3.93 603.47,-3.38 603.48,-2.83 603.32,-2.30 603.16,-1.77 602.83,-1.32 602.51,-0.87 602.06,-0.55 601.61,-0.22 601.08,-0.06 600.55,0.09 600.00,0.08 599.44,0.06 598.92,-0.12 598.41,-0.31 597.97,-0.66 597.54,-1.01 597.24,-1.47 596.95,-1.94 596.81,-2.48 596.68,-3.02 596.73,-3.57 596.77,-4.12 596.99,-4.63 597.21,-5.14 597.58,-5.55 597.95,-5.96 598.43,-6.23 598.92,-6.51 599.46,-6.61 600.00,-6.71 600.55,-6.64 601.10,-6.56 601.60,-6.32 602.09,-6.07 602.48,-5.68 602.88,-5.29 603.12,-4.79 603.37,-4.29 603.44,-3.74 603.51,-3.19 603.41,-2.65 603.30,-2.11 603.03,-1.63 602.76,-1.14 602.35,-0.77 601.93,-0.40 601.42,-0.19 600.92,0.02 600.36,0.07 599.81,0.11 599.27,-0.01 598.74,-0.15 598.27,-0.45 597.80,-0.75 597.46,-1.18 597.11,-1.61 597.11,-1.61 597.11,-1.61 596.82,-3.47 596.52,-5.34 596.23,-6.54 595.94,-7.74 595.71,-9.20 595.49,-10.67 595.26,-11.80 595.04,-12.93 594.49,-14.19 593.93,-15.46 593.36,-16.53 592.80,-17.60 592.18,-18.69 591.56,-19.78 590.59,-21.10 589.62,-22.42 588.07,-23.92 586.52,-25.42 585.49,-26.27 584.46,-27.12 582.88,-28.48 581.30,-29.85 579.95,-30.78 578.60,-31.71 577.53,-32.46 576.46,-33.22 575.10,-34.23 573.75,-35.25 571.87,-36.32 569.99,-37.39 568.79,-38.00 567.60,-38.61 566.52,-39.15 565.44,-39.68 564.20,-40.31 562.97,-40.94 561.78,-41.49 560.59,-42.05 558.98,-42.71 557.38,-43.37 556.09,-43.96 554.80,-44.54 552.92,-45.21 551.03,-45.89 549.46,-46.51 547.90,-47.13 545.79,-47.86 543.68,-48.59 541.18,-49.33 538.69,-50.07 536.29,-50.77 533.89,-51.47 531.43,-52.06 528.97,-52.65 525.63,-53.43 522.28,-54.20 519.80,-54.77 517.31,-55.34 513.92,-56.06 510.53,-56.77 507.89,-57.21 505.25,-57.65 501.89,-58.04 498.52,-58.43 495.99,-58.72 493.46,-59.00 489.95,-59.37 486.44,-59.73 483.54,-59.97 480.63,-60.20 476.69,-60.42 472.74,-60.65 469.86,-60.85 466.98,-61.05 463.57,-61.19 460.17,-61.33 456.23,-61.64 452.30,-61.96 449.32,-62.04 446.33,-62.11 442.80,-62.30 439.26,-62.48 436.76,-62.58 434.25,-62.69 430.84,-62.93 427.43,-63.18 424.82,-63.43 422.22,-63.68 418.97,-63.95 415.72,-64.21 413.03,-64.53 410.34,-64.84 406.43,-65.29 402.52,-65.73 400.31,-66.07 398.09,-66.41 394.43,-66.96 390.77,-67.51 388.14,-68.12 385.51,-68.74 381.76,-69.57 378.00,-70.41 375.02,-71.08 372.03,-71.75 367.92,-72.69 363.81,-73.63 360.53,-74.49 357.24,-75.36 353.00,-76.69 348.76,-78.03 345.70,-79.09 342.64,-80.16 338.38,-81.71 334.11,-83.25 331.00,-84.47 327.88,-85.69 323.97,-87.20 320.06,-88.72 317.29,-89.91 314.52,-91.11 310.90,-92.67 307.28,-94.23 305.23,-95.21 303.17,-96.19 300.80,-97.32 298.44,-98.44 295.34,-99.91 292.25,-101.38 289.90,-102.45 287.56,-103.53 284.52,-104.95 281.48,-106.37 279.32,-107.39 277.16,-108.41 274.77,-109.68 272.39,-110.94 271.28,-111.61 270.17,-112.27 268.85,-113.07 267.53,-113.86 266.13,-114.88 264.73,-115.91 265.79,-115.77 266.85,-115.64 267.83,-116.42 268.81,-117.20 268.63,-116.10 268.45,-115.00 268.38,-113.86 268.31,-112.71 268.14,-111.40 267.96,-110.09 267.48,-108.69 267.00,-107.29 266.13,-106.07 265.26,-104.84 264.02,-103.54 262.78,-102.24 261.03,-100.74 259.28,-99.24 258.33,-98.58 257.39,-97.91 255.70,-96.81 254.02,-95.70 253.07,-95.15 252.12,-94.60 249.97,-93.72 247.83,-92.83 246.33,-92.30 244.83,-91.76 243.35,-91.41 241.87,-91.06 240.07,-90.63 238.26,-90.20 235.70,-89.59 233.14,-88.98 230.40,-88.38 227.66,-87.78 223.67,-86.98 219.67,-86.18 216.66,-85.63 213.65,-85.09 209.52,-84.48 205.40,-83.86 202.60,-83.45 199.80,-83.03 196.13,-82.39 192.45,-81.74 190.09,-81.22 187.72,-80.70 184.66,-80.10 181.59,-79.50 179.22,-79.01 176.86,-78.52 173.78,-77.99 170.69,-77.47 168.40,-77.18 166.11,-76.88 163.15,-76.52 160.20,-76.15 158.16,-75.97 156.11,-75.79 153.35,-75.62 150.59,-75.45 148.64,-75.46 146.69,-75.46 144.11,-75.41 141.54,-75.36 140.01,-75.44 138.49,-75.53 136.15,-75.49 133.81,-75.45 132.00,-75.49 130.19,-75.53 127.54,-75.49 124.89,-75.45 123.20,-75.52 121.51,-75.58 119.54,-75.60 117.57,-75.62 114.95,-75.59 112.33,-75.55 109.80,-75.50 107.26,-75.44 105.31,-75.37 103.35,-75.30 101.13,-75.07 98.90,-74.84 96.86,-74.64 94.81,-74.43 93.01,-74.33 91.20,-74.23 88.85,-73.87 86.50,-73.50 84.60,-73.30 82.70,-73.10 80.31,-72.81 77.92,-72.53 75.92,-72.21 73.92,-71.89 71.28,-71.40 68.64,-70.92 66.70,-70.41 64.76,-69.90 62.29,-69.26 59.82,-68.62 57.93,-68.03 56.04,-67.44 53.63,-66.62 51.22,-65.79 49.38,-65.08 47.55,-64.37 45.39,-63.56 43.22,-62.76 41.62,-62.16 40.02,-61.56 37.95,-60.62 35.88,-59.67 34.78,-59.17 33.67,-58.67 32.25,-57.82 30.83,-56.98 29.66,-56.28 28.48,-55.59 27.25,-54.66 26.01,-53.74 25.14,-53.03 24.26,-52.32 23.14,-51.20 22.02,-50.08 21.19,-49.33 20.35,-48.58 19.32,-47.32 18.30,-46.07 17.49,-45.06 16.68,-44.06 15.67,-42.64 14.66,-41.23 13.94,-40.25 13.22,-39.27 12.37,-37.89 11.52,-36.50 10.88,-35.42 10.25,-34.34 9.56,-32.91 8.86,-31.49 8.11,-29.59 7.36,-27.68 6.59,-25.98 5.83,-24.27 5.33,-23.12 4.83,-21.97 4.41,-20.59 3.99,-19.21 3.50,-17.05 3.00,-14.90 2.84,-13.56 2.68,-12.23 2.63,-10.63 2.58,-9.03 2.55,-7.95 2.51,-6.86 2.44,-4.64 2.37,-2.42 2.33,-1.21 2.29,0.00 2.26,0.27 2.22,0.55 2.12,0.81 2.03,1.06 1.87,1.29 1.71,1.52 1.50,1.70 1.30,1.88 1.05,2.01 0.81,2.14 0.54,2.21 0.27,2.27 -0.00,2.27 -0.27,2.27 -0.54,2.21 -0.81,2.14 -1.06,2.01 -1.30,1.88 -1.51,1.70 -1.71,1.51 -1.87,1.29 -2.03,1.06 -2.13,0.80 -2.22,0.54 -2.26,0.27 -2.29,-0.00 -2.29,-0.00 L -2.29,-0.00 Z"></path></g><g transform="translate(229.6764681710289 10) rotate(0 193.42285156249994 11.5)"><text x="0" y="0" font-family="Helvetica, Segoe UI Emoji" font-size="20px" fill="#495057" text-anchor="start" style="white-space: pre;" direction="ltr" dominant-baseline="text-before-edge">terminationGracePeriodSeconds 默认是30s</text></g><g transform="translate(117.31954956054688 517.9814054861131) rotate(0 296.09100341796875 0.001495361328125)" stroke="none"><path fill="#5c940d" d="M 0.00,-1.56 Q 0.00,-1.56 2.95,-1.52 5.90,-1.49 21.10,-1.46 36.30,-1.44 54.35,-1.42 72.40,-1.40 109.16,-1.39 145.92,-1.37 177.15,-1.37 208.37,-1.36 241.62,-1.35 274.86,-1.34 313.66,-1.34 352.45,-1.33 384.85,-1.33 417.25,-1.32 435.17,-1.32 453.10,-1.32 471.38,-1.32 489.67,-1.32 502.79,-1.31 515.91,-1.31 528.75,-1.31 541.59,-1.31 549.55,-1.31 557.50,-1.31 562.98,-1.31 568.46,-1.31 571.83,-1.31 575.20,-1.31 578.02,-1.31 580.84,-1.31 582.43,-1.40 584.02,-1.50 585.23,-1.61 586.45,-1.72 588.11,-1.90 589.78,-2.08 591.85,-2.15 593.93,-2.22 594.28,-2.16 594.64,-2.10 594.96,-1.93 595.27,-1.76 595.52,-1.50 595.77,-1.24 595.92,-0.91 596.07,-0.59 596.11,-0.23 596.15,0.12 596.07,0.47 595.99,0.82 595.81,1.13 595.62,1.44 595.35,1.67 595.07,1.90 594.74,2.04 594.41,2.17 594.05,2.19 593.69,2.21 593.34,2.11 592.99,2.02 592.69,1.82 592.40,1.61 592.18,1.33 591.96,1.04 591.85,0.70 591.73,0.36 591.73,0.00 591.73,-0.35 591.85,-0.69 591.96,-1.03 592.18,-1.32 592.40,-1.61 592.69,-1.81 592.99,-2.01 593.34,-2.11 593.69,-2.20 594.05,-2.18 594.41,-2.17 594.74,-2.03 595.07,-1.90 595.35,-1.67 595.62,-1.43 595.81,-1.12 595.99,-0.82 596.07,-0.46 596.15,-0.11 596.11,0.24 596.07,0.59 595.92,0.92 595.77,1.25 595.52,1.51 595.27,1.77 594.95,1.94 594.64,2.11 594.28,2.17 593.93,2.22 593.93,2.22 593.93,2.22 591.85,2.16 589.78,2.09 588.11,1.91 586.45,1.73 585.23,1.62 584.02,1.51 582.43,1.41 580.84,1.31 578.02,1.31 575.20,1.31 571.83,1.31 568.46,1.31 562.98,1.31 557.50,1.32 549.55,1.32 541.59,1.32 528.75,1.32 515.91,1.32 502.79,1.32 489.67,1.32 471.38,1.32 453.10,1.33 435.17,1.33 417.25,1.33 384.85,1.33 352.45,1.34 313.66,1.34 274.86,1.35 241.62,1.35 208.37,1.36 177.15,1.37 145.92,1.38 109.16,1.39 72.40,1.41 54.35,1.42 36.30,1.44 21.10,1.47 5.90,1.49 2.95,1.52 -0.00,1.56 -0.18,1.53 -0.37,1.51 -0.55,1.44 -0.72,1.38 -0.88,1.27 -1.03,1.16 -1.16,1.02 -1.28,0.88 -1.37,0.72 -1.46,0.55 -1.50,0.37 -1.55,0.18 -1.55,-0.00 -1.55,-0.18 -1.50,-0.37 -1.46,-0.55 -1.37,-0.72 -1.28,-0.88 -1.16,-1.02 -1.03,-1.16 -0.88,-1.27 -0.72,-1.38 -0.54,-1.45 -0.37,-1.51 -0.18,-1.53 0.00,-1.56 0.00,-1.56 L 0.00,-1.56 Z"></path></g><g stroke-linecap="round"><g transform="translate(119.549535624996 563.0008146658006) rotate(0 -1.034701284177686 -23.616058349609375)"><path d="M-0.91 -0.57 C-1.39 -8.67, -2.58 -40.31, -2.94 -48.28 M0.81 1.74 C0.71 -6.27, -0.43 -39.06, -0.69 -47.29" stroke="#e67700" stroke-width="1" fill="none"></path></g><g transform="translate(119.549535624996 563.0008146658006) rotate(0 -1.034701284177686 -23.616058349609375)"><path d="M-0.94 -48.03 L7.55 -35.7 L-5.12 -33.61 L-0.21 -49.24" stroke="none" stroke-width="0" fill="#e67700" fill-rule="evenodd"></path><path d="M-1.4 -48.39 C0.05 -44.57, 1.93 -39.64, 6.52 -33.26 M-0.38 -47.07 C1.42 -42.73, 3.76 -39.23, 6.67 -33.56 M5.12 -32.76 C3.64 -33.49, -0.29 -33.09, -5.9 -34.22 M6.2 -33.8 C1.23 -33.8, -4.21 -32.98, -6.32 -33.77 M-5.44 -32.88 C-4.57 -39.3, -3.49 -41.46, 0.07 -46.45 M-6.67 -34.22 C-4.35 -38.37, -2.66 -42.86, -1.04 -47.76 M-0.69 -47.29 C-0.69 -47.29, -0.69 -47.29, -0.69 -47.29 M-0.69 -47.29 C-0.69 -47.29, -0.69 -47.29, -0.69 -47.29" stroke="#e67700" stroke-width="1" fill="none"></path></g></g><mask></mask><g transform="translate(13.345977783203125 575.8450224294725) rotate(0 55.0244140625 11.5)"><text x="0" y="0" font-family="Helvetica, Segoe UI Emoji" font-size="20px" fill="#000000" text-anchor="start" style="white-space: pre;" direction="ltr" dominant-baseline="text-before-edge">preStop开始</text></g><g stroke-linecap="round"><g transform="translate(314.30579898990254 564.2281079049992) rotate(0 -0.5819793752452824 -24.195709228515625)"><path d="M-0.91 -0.57 C-1.24 -8.86, -1.82 -41.28, -2.04 -49.44 M0.81 1.74 C0.86 -6.46, 0.33 -40.02, 0.22 -48.45" stroke="#e67700" stroke-width="1" fill="none"></path></g><g transform="translate(314.30579898990254 564.2281079049992) rotate(0 -0.5819793752452824 -24.195709228515625)"><path d="M-0.03 -49.18 L8.2 -36.74 L-4.47 -34.89 L0.7 -50.4" stroke="none" stroke-width="0" fill="#e67700" fill-rule="evenodd"></path><path d="M-0.5 -49.55 C0.88 -45.69, 2.69 -40.73, 7.17 -34.29 M0.53 -48.23 C2.25 -43.86, 4.52 -40.31, 7.32 -34.59 M5.77 -33.79 C4.29 -34.59, 0.36 -34.25, -5.25 -35.49 M6.86 -34.84 C1.88 -34.92, -3.57 -34.2, -5.68 -35.04 M-4.79 -34.15 C-3.83 -40.53, -2.66 -42.66, 0.98 -47.61 M-6.02 -35.49 C-3.61 -39.6, -1.83 -44.05, -0.14 -48.92 M0.22 -48.45 C0.22 -48.45, 0.22 -48.45, 0.22 -48.45 M0.22 -48.45 C0.22 -48.45, 0.22 -48.45, 0.22 -48.45" stroke="#e67700" stroke-width="1" fill="none"></path></g></g><mask></mask><g transform="translate(206.08425903320312 580.0206510915818) rotate(0 55.0244140625 11.5)"><text x="0" y="0" font-family="Helvetica, Segoe UI Emoji" font-size="20px" fill="#000000" text-anchor="start" style="white-space: pre;" direction="ltr" dominant-baseline="text-before-edge">preStop结束</text></g><g stroke-linecap="round"><g transform="translate(319.3281759424583 463.58150314236315) rotate(0 -1.5109965405650883 23.20849609375)"><path d="M0.52 -0.39 C0.09 7.01, -2.92 37.95, -3.5 45.63 M-0.66 -1.65 C-1.21 6.4, -4.19 38.71, -4.7 46.75" stroke="#5f3dc4" stroke-width="1" fill="none"></path></g><g transform="translate(319.3281759424583 463.58150314236315) rotate(0 -1.5109965405650883 23.20849609375)"><path d="M-4.68 45.21 L-9.95 32.29 L2.09 34.46 L-4.28 45.59" stroke="none" stroke-width="0" fill="#5f3dc4" fill-rule="evenodd"></path><path d="M-5.19 46.16 C-6.99 43.73, -8.06 39.46, -8.56 31.27 M-5.19 47.37 C-5.3 43.62, -7.43 40.79, -10.28 32.18 M-8.79 33.41 C-5.38 32.38, 0.91 33.48, 3.07 34.23 M-10.11 33.13 C-6.31 33.06, -1.3 33.37, 3.3 33.57 M1.95 32.26 C0.86 36.68, -0.97 41.86, -4.8 46.23 M3.05 33.36 C1.34 36.55, -0.8 38.57, -5.18 46.2 M-4.7 46.75 C-4.7 46.75, -4.7 46.75, -4.7 46.75 M-4.7 46.75 C-4.7 46.75, -4.7 46.75, -4.7 46.75" stroke="#5f3dc4" stroke-width="1" fill="none"></path></g></g><mask></mask><g transform="translate(309.2967224121094 402.2348844900194) rotate(0 122.7783203125 23)"><text x="0" y="0" font-family="Helvetica, Segoe UI Emoji" font-size="20px" fill="#862e9c" text-anchor="start" style="white-space: pre;" direction="ltr" dominant-baseline="text-before-edge">发送sigterm信号</text><text x="0" y="23" font-family="Helvetica, Segoe UI Emoji" font-size="20px" fill="#862e9c" text-anchor="start" style="white-space: pre;" direction="ltr" dominant-baseline="text-before-edge">给容器,让容器自己优雅退出</text></g><g stroke-linecap="round"><g transform="translate(707.8019714355469 462.59297775173815) rotate(0 0.8316650390625 24.5660400390625)"><path d="M-0.4 -0.12 C-0.16 8.23, 1.24 40.89, 1.73 49.15 M1.6 -1.22 C1.66 7.4, 0.72 42.01, 0.82 50.69" stroke="#1864ab" stroke-width="1" fill="none"></path></g><g transform="translate(707.8019714355469 462.59297775173815) rotate(0 0.8316650390625 24.5660400390625)"><path d="M-0.01 49.42 L-6.41 36.77 L5.66 37.79 L-0.15 50.72" stroke="none" stroke-width="0" fill="#1864ab" fill-rule="evenodd"></path><path d="M0.68 50.78 C-1.08 47.31, -2.75 41.06, -4.48 36.01 M1.03 50.21 C-0.27 47.5, -2.38 44.38, -5.41 36.36 M-6.41 38.03 C-2.59 36.29, 1.17 36.88, 7.15 36 M-5.25 37.23 C-1.44 37.29, 1.6 36.44, 7.01 37.61 M5.87 36.4 C6.08 42.35, 2.96 45.72, 2.17 51.26 M6.99 37.03 C4.33 42.07, 2.59 46.43, 0.23 51.09 M0.82 50.69 C0.82 50.69, 0.82 50.69, 0.82 50.69 M0.82 50.69 C0.82 50.69, 0.82 50.69, 0.82 50.69" stroke="#1864ab" stroke-width="1" fill="none"></path></g></g><mask></mask><g transform="translate(718.8988952636719 465.1655790700975) rotate(0 68.3349609375 11.5)"><text x="0" y="0" font-family="Helvetica, Segoe UI Emoji" font-size="20px" fill="#1864ab" text-anchor="start" style="white-space: pre;" direction="ltr" dominant-baseline="text-before-edge">容器还没结束...</text></g><g stroke-linecap="round"><g transform="translate(710.9970092773438 579.7434294118943) rotate(0 -0.254364013671875 -28.00592041015625)"><path d="M-0.18 0.63 C-0.3 -8.78, -0.75 -46.18, -0.64 -55.52 M-1.73 -0.08 C-2.03 -9.94, -1.98 -47.83, -1.66 -57.38" stroke="#c92a2a" stroke-width="1" fill="none"></path></g><g transform="translate(710.9970092773438 579.7434294118943) rotate(0 -0.254364013671875 -28.00592041015625)"><path d="M-3.22 -57.37 L3.34 -43.09 L-6.66 -44.65 L-0.21 -57.52" stroke="none" stroke-width="0" fill="#c92a2a" fill-rule="evenodd"></path><path d="M-0.87 -57.55 C0.96 -51.95, 3.01 -47.87, 5.6 -43.26 M-2.18 -56.98 C0.63 -53.38, 3.1 -48.64, 3.74 -43.6 M5.47 -42.71 C0.86 -42.9, -3.84 -43.8, -8.84 -44.21 M4.66 -43.4 C1.73 -43.99, -2.03 -43.41, -8.22 -44.43 M-8.45 -43.88 C-5.76 -45.89, -4.75 -50.56, -2.59 -58.53 M-7.72 -43.25 C-7.31 -47.93, -5.19 -50.57, -1.48 -57.92 M-1.66 -57.38 C-1.66 -57.38, -1.66 -57.38, -1.66 -57.38 M-1.66 -57.38 C-1.66 -57.38, -1.66 -57.38, -1.66 -57.38" stroke="#c92a2a" stroke-width="1" fill="none"></path></g></g><mask></mask><g transform="translate(726.5751342773438 562.3762419118943) rotate(0 152.7783203125 23)"><text x="0" y="0" font-family="Helvetica, Segoe UI Emoji" font-size="20px" fill="#c92a2a" text-anchor="start" style="white-space: pre;" direction="ltr" dominant-baseline="text-before-edge">这个时候就会发送一个sigkill信号</text><text x="0" y="23" font-family="Helvetica, Segoe UI Emoji" font-size="20px" fill="#c92a2a" text-anchor="start" style="white-space: pre;" direction="ltr" dominant-baseline="text-before-edge">将容器直接杀死,可能导致数据丢失</text></g><g transform="translate(114.99981946417267 705.317403498223) rotate(0 296.0910034179687 0.001495361328125)" stroke="none"><path fill="#5c940d" d="M 0.00,-1.56 Q 0.00,-1.56 2.95,-1.52 5.90,-1.49 21.10,-1.46 36.30,-1.44 54.35,-1.42 72.40,-1.40 109.16,-1.39 145.92,-1.37 177.15,-1.37 208.37,-1.36 241.62,-1.35 274.86,-1.34 313.66,-1.34 352.45,-1.33 384.85,-1.33 417.25,-1.32 435.17,-1.32 453.10,-1.32 471.38,-1.32 489.67,-1.32 502.79,-1.31 515.91,-1.31 528.75,-1.31 541.59,-1.31 549.55,-1.31 557.50,-1.31 562.98,-1.31 568.46,-1.31 571.83,-1.31 575.20,-1.31 578.02,-1.31 580.84,-1.31 582.43,-1.40 584.02,-1.50 585.23,-1.61 586.45,-1.72 588.11,-1.90 589.78,-2.08 591.85,-2.15 593.93,-2.22 594.28,-2.16 594.64,-2.10 594.96,-1.93 595.27,-1.76 595.52,-1.50 595.77,-1.24 595.92,-0.91 596.07,-0.59 596.11,-0.23 596.15,0.12 596.07,0.47 595.99,0.82 595.81,1.13 595.62,1.44 595.35,1.67 595.07,1.90 594.74,2.04 594.41,2.17 594.05,2.19 593.69,2.21 593.34,2.11 592.99,2.02 592.69,1.82 592.40,1.61 592.18,1.33 591.96,1.04 591.85,0.70 591.73,0.36 591.73,0.00 591.73,-0.35 591.85,-0.69 591.96,-1.03 592.18,-1.32 592.40,-1.61 592.69,-1.81 592.99,-2.01 593.34,-2.11 593.69,-2.20 594.05,-2.18 594.41,-2.17 594.74,-2.03 595.07,-1.90 595.35,-1.67 595.62,-1.43 595.81,-1.12 595.99,-0.82 596.07,-0.46 596.15,-0.11 596.11,0.24 596.07,0.59 595.92,0.92 595.77,1.25 595.52,1.51 595.27,1.77 594.95,1.94 594.64,2.11 594.28,2.17 593.93,2.22 593.93,2.22 593.93,2.22 591.85,2.16 589.78,2.09 588.11,1.91 586.45,1.73 585.23,1.62 584.02,1.51 582.43,1.41 580.84,1.31 578.02,1.31 575.20,1.31 571.83,1.31 568.46,1.31 562.98,1.31 557.50,1.32 549.55,1.32 541.59,1.32 528.75,1.32 515.91,1.32 502.79,1.32 489.67,1.32 471.38,1.32 453.10,1.33 435.17,1.33 417.25,1.33 384.85,1.33 352.45,1.34 313.66,1.34 274.86,1.35 241.62,1.35 208.37,1.36 177.15,1.37 145.92,1.38 109.16,1.39 72.40,1.41 54.35,1.42 36.30,1.44 21.10,1.47 5.90,1.49 2.95,1.52 -0.00,1.56 -0.18,1.53 -0.37,1.51 -0.55,1.44 -0.72,1.38 -0.88,1.27 -1.03,1.16 -1.16,1.02 -1.28,0.88 -1.37,0.72 -1.46,0.55 -1.50,0.37 -1.55,0.18 -1.55,-0.00 -1.55,-0.18 -1.50,-0.37 -1.46,-0.55 -1.37,-0.72 -1.28,-0.88 -1.16,-1.02 -1.03,-1.16 -0.88,-1.27 -0.72,-1.38 -0.54,-1.45 -0.37,-1.51 -0.18,-1.53 0.00,-1.56 0.00,-1.56 L 0.00,-1.56 Z"></path></g><g stroke-linecap="round"><g transform="translate(117.2298055286218 750.3368126779105) rotate(0 -1.034701284177686 -23.616058349609375)"><path d="M-0.91 -0.57 C-1.39 -8.67, -2.58 -40.31, -2.94 -48.28 M0.81 1.74 C0.71 -6.27, -0.43 -39.06, -0.69 -47.29" stroke="#e67700" stroke-width="1" fill="none"></path></g><g transform="translate(117.2298055286218 750.3368126779105) rotate(0 -1.034701284177686 -23.616058349609375)"><path d="M-0.94 -48.03 L7.55 -35.7 L-5.12 -33.61 L-0.21 -49.24" stroke="none" stroke-width="0" fill="#e67700" fill-rule="evenodd"></path><path d="M-1.4 -48.39 C0.05 -44.57, 1.93 -39.64, 6.52 -33.26 M-0.38 -47.07 C1.42 -42.73, 3.76 -39.23, 6.67 -33.56 M5.12 -32.76 C3.64 -33.49, -0.29 -33.09, -5.9 -34.22 M6.2 -33.8 C1.23 -33.8, -4.21 -32.98, -6.32 -33.77 M-5.44 -32.88 C-4.57 -39.3, -3.49 -41.46, 0.07 -46.45 M-6.67 -34.22 C-4.35 -38.37, -2.66 -42.86, -1.04 -47.76 M-0.69 -47.29 C-0.69 -47.29, -0.69 -47.29, -0.69 -47.29 M-0.69 -47.29 C-0.69 -47.29, -0.69 -47.29, -0.69 -47.29" stroke="#e67700" stroke-width="1" fill="none"></path></g></g><mask></mask><g transform="translate(11.026247686828924 763.1810204415824) rotate(0 55.0244140625 11.5)"><text x="0" y="0" font-family="Helvetica, Segoe UI Emoji" font-size="20px" fill="#000000" text-anchor="start" style="white-space: pre;" direction="ltr" dominant-baseline="text-before-edge">preStop开始</text></g><g stroke-linecap="round"><g transform="translate(712.2518717211792 763.8058371125558) rotate(0 -1.1251251230411299 -26.056064887028697)"><path d="M-0.91 -0.57 C-1.42 -9.48, -2.73 -44.38, -3.12 -53.16 M0.81 1.74 C0.68 -7.08, -0.58 -43.13, -0.87 -52.17" stroke="#e67700" stroke-width="1" fill="none"></path></g><g transform="translate(712.2518717211792 763.8058371125558) rotate(0 -1.1251251230411299 -26.056064887028697)"><path d="M-1.12 -52.91 L7.37 -40.59 L-5.3 -38.49 L-0.39 -54.12" stroke="none" stroke-width="0" fill="#e67700" fill-rule="evenodd"></path><path d="M-1.58 -53.27 C-0.13 -49.45, 1.75 -44.53, 6.34 -38.14 M-0.56 -51.95 C1.24 -47.62, 3.58 -44.11, 6.49 -38.44 M4.94 -37.64 C3.47 -38.38, -0.46 -37.97, -6.07 -39.09 M6.03 -38.68 C1.05 -38.68, -4.39 -37.86, -6.5 -38.65 M-5.61 -37.76 C-4.74 -44.18, -3.67 -46.34, -0.11 -51.33 M-6.85 -39.1 C-4.52 -43.25, -2.84 -47.74, -1.22 -52.64 M-0.87 -52.17 C-0.87 -52.17, -0.87 -52.17, -0.87 -52.17 M-0.87 -52.17 C-0.87 -52.17, -0.87 -52.17, -0.87 -52.17" stroke="#e67700" stroke-width="1" fill="none"></path></g></g><mask></mask><g transform="translate(552.2283326152588 773.9682071318075) rotate(0 77.802734375 11.5)"><text x="0" y="0" font-family="Helvetica, Segoe UI Emoji" font-size="20px" fill="#000000" text-anchor="start" style="white-space: pre;" direction="ltr" dominant-baseline="text-before-edge">preStop 还没结束</text></g><g stroke-linecap="round"><g transform="translate(710.4056215238099 645.0814002954476) rotate(0 0.5833363974327312 26.290261379846015)"><path d="M0.01 0.83 C0.11 9.86, 0.26 45.07, 0.6 53.57 M-1.44 0.21 C-1.55 8.99, -1.17 43.22, -0.65 51.97" stroke="#c92a2a" stroke-width="1" fill="none"></path></g><g transform="translate(710.4056215238099 645.0814002954476) rotate(0 0.5833363974327312 26.290261379846015)"><path d="M-0.7 50.73 L-8.67 37.53 L3.76 37.25 L-2.56 53.18" stroke="none" stroke-width="0" fill="#c92a2a" fill-rule="evenodd"></path><path d="M0.39 51.26 C-1.36 49.05, -5.59 42.57, -6.91 37.71 M-1.24 51.48 C-3.86 47.53, -6.11 42.26, -7.8 39.17 M-6.45 38.45 C-3.59 37.2, 0.67 38.48, 5.94 39.29 M-7.88 39.02 C-3.4 38.34, 0.25 37.83, 5.3 38.15 M4.17 37.35 C5.39 42.46, 2.01 45.74, -2.08 51.41 M5.4 38.86 C3.79 41.47, 2.22 44.42, -0.8 52.49 M-0.65 51.97 C-0.65 51.97, -0.65 51.97, -0.65 51.97 M-0.65 51.97 C-0.65 51.97, -0.65 51.97, -0.65 51.97" stroke="#c92a2a" stroke-width="1" fill="none"></path></g></g><mask></mask><g transform="translate(719.7861237702427 645.5434875900783) rotate(0 165.5615234375 11.5)"><text x="0" y="0" font-family="Helvetica, Segoe UI Emoji" font-size="20px" fill="#c92a2a" text-anchor="start" style="white-space: pre;" direction="ltr" dominant-baseline="text-before-edge">根据测试发现是会先发送sigterm 信号</text></g></svg>