<?xml version="1.0" encoding="us-ascii" standalone="no"?><svg xmlns="http://www.w3.org/2000/svg" xmlns:xlink="http://www.w3.org/1999/xlink" contentStyleType="text/css" height="738px" preserveAspectRatio="none" style="width:941px;height:738px;background:#FFFFFF;" version="1.1" viewBox="0 0 941 738" width="941px" zoomAndPan="magnify"><defs><filter height="300%" id="f1fban6zxh52bp" width="300%" x="-1" y="-1"><feGaussianBlur result="blurOut" stdDeviation="2.0"/><feColorMatrix in="blurOut" result="blurOut2" type="matrix" values="0 0 0 0 0 0 0 0 0 0 0 0 0 0 0 0 0 0 .4 0"/><feOffset dx="4.0" dy="4.0" in="blurOut2" result="blurOut3"/><feBlend in="SourceGraphic" in2="blurOut3" mode="normal"/></filter></defs><g><text fill="#888888" font-family="sans-serif" font-size="10" lengthAdjust="spacing" textLength="52" x="869" y="19.2822">made by x</text><text fill="#000000" font-family="sans-serif" font-size="14" font-weight="bold" lengthAdjust="spacing" textLength="96" x="417.5" y="45.6357">reflect.Type</text><rect fill="#A8EB99" filter="url(#f1fban6zxh52bp)" height="40.2969" rx="7.5" ry="7.5" style="stroke:#000000;stroke-width:1.0;" width="58" x="10" y="324.7188"/><text fill="#000000" font-family="sans-serif" font-size="14" lengthAdjust="spacing" textLength="34" x="22" y="349.7139">Type</text><rect fill="#FFBBCC" filter="url(#f1fban6zxh52bp)" height="66.5938" rx="7.5" ry="7.5" style="stroke:#000000;stroke-width:1.0;" width="108" x="118" y="186.6797"/><text fill="#000000" font-family="sans-serif" font-size="14" lengthAdjust="spacing" textLength="84" x="130" y="211.6748">&#33719;&#21462;&#31867;&#22411;&#31181;&#31867;</text><line style="stroke:#000000;stroke-width:1.0;stroke-dasharray:1.0,2.0;" x1="118" x2="226" y1="219.9766" y2="219.9766"/><text fill="#000000" font-family="sans-serif" font-size="14" lengthAdjust="spacing" textLength="4" x="148" y="237.9717">&#160;</text><text fill="#000000" font-family="sans-serif" font-size="14" lengthAdjust="spacing" textLength="44" x="152" y="237.9717">.Kind()</text><path d="M68,344.8672 L78,344.8672 C93,344.8672 93,219.9766 108,219.9766 L118,219.9766 " fill="none" style="stroke:#008000;stroke-width:1.0;stroke-dasharray:5.0,5.0;"/><rect fill="#FBE972" filter="url(#f1fban6zxh52bp)" height="40.2969" rx="7.5" ry="7.5" style="stroke:#000000;stroke-width:1.0;" width="180" x="118" y="273.2734"/><text fill="#000000" font-family="sans-serif" font-size="14" lengthAdjust="spacing" textLength="156" x="130" y="298.2686">.Kind()==reflect.Struct</text><rect fill="#FBE972" filter="url(#f1fban6zxh52bp)" height="40.2969" rx="7.5" ry="7.5" style="stroke:#000000;stroke-width:1.0;" width="80" x="348" y="126.3828"/><text fill="#000000" font-family="sans-serif" font-size="14" lengthAdjust="spacing" textLength="56" x="360" y="151.3779">&#26041;&#27861;&#30456;&#20851;</text><rect fill="#FBE972" filter="url(#f1fban6zxh52bp)" height="66.5938" rx="7.5" ry="7.5" style="stroke:#000000;stroke-width:1.0;" width="123" x="478" y="69.9375"/><text fill="#000000" font-family="sans-serif" font-size="14" lengthAdjust="spacing" textLength="84" x="497.5" y="94.9326">&#33719;&#21462;&#26041;&#27861;&#20010;&#25968;</text><line style="stroke:#000000;stroke-width:1.0;stroke-dasharray:1.0,2.0;" x1="478" x2="601" y1="103.2344" y2="103.2344"/><text fill="#000000" font-family="sans-serif" font-size="14" lengthAdjust="spacing" textLength="99" x="490" y="121.2295">.NumMethod()</text><path d="M428,146.5313 L438,146.5313 C453,146.5313 453,103.2344 468,103.2344 L478,103.2344 " fill="none" style="stroke:#008000;stroke-width:1.0;stroke-dasharray:5.0,5.0;"/><rect fill="#FBE972" filter="url(#f1fban6zxh52bp)" height="66.5938" rx="7.5" ry="7.5" style="stroke:#000000;stroke-width:1.0;" width="108" x="478" y="156.5313"/><text fill="#000000" font-family="sans-serif" font-size="14" lengthAdjust="spacing" textLength="56" x="504" y="181.5264">&#33719;&#21462;&#26041;&#27861;</text><line style="stroke:#000000;stroke-width:1.0;stroke-dasharray:1.0,2.0;" x1="478" x2="586" y1="189.8281" y2="189.8281"/><text fill="#000000" font-family="sans-serif" font-size="14" lengthAdjust="spacing" textLength="84" x="490" y="207.8232">.Method(int)</text><path d="M428,146.5313 L438,146.5313 C453,146.5313 453,189.8281 468,189.8281 L478,189.8281 " fill="none" style="stroke:#008000;stroke-width:1.0;stroke-dasharray:5.0,5.0;"/><path d="M298,293.4219 L308,293.4219 C323,293.4219 323,146.5313 338,146.5313 L348,146.5313 " fill="none" style="stroke:#89C6FA;stroke-width:1.0;stroke-dasharray:5.0,5.0;"/><rect fill="#FBE972" filter="url(#f1fban6zxh52bp)" height="40.2969" rx="7.5" ry="7.5" style="stroke:#000000;stroke-width:1.0;" width="80" x="348" y="359.8672"/><text fill="#000000" font-family="sans-serif" font-size="14" lengthAdjust="spacing" textLength="56" x="360" y="384.8623">&#23383;&#27573;&#30456;&#20851;</text><rect fill="#FBE972" filter="url(#f1fban6zxh52bp)" height="66.5938" rx="7.5" ry="7.5" style="stroke:#000000;stroke-width:1.0;" width="108" x="478" y="260.125"/><text fill="#000000" font-family="sans-serif" font-size="14" lengthAdjust="spacing" textLength="84" x="490" y="285.1201">&#33719;&#21462;&#23383;&#27573;&#20010;&#25968;</text><line style="stroke:#000000;stroke-width:1.0;stroke-dasharray:1.0,2.0;" x1="478" x2="586" y1="293.4219" y2="293.4219"/><text fill="#000000" font-family="sans-serif" font-size="14" lengthAdjust="spacing" textLength="78" x="493" y="311.417">.NumField()</text><path d="M428,380.0156 L438,380.0156 C453,380.0156 453,293.4219 468,293.4219 L478,293.4219 " fill="none" style="stroke:#008000;stroke-width:1.0;stroke-dasharray:5.0,5.0;"/><rect fill="#FBE972" filter="url(#f1fban6zxh52bp)" height="66.5938" rx="7.5" ry="7.5" style="stroke:#000000;stroke-width:1.0;" width="150" x="478" y="346.7188"/><text fill="#000000" font-family="sans-serif" font-size="14" lengthAdjust="spacing" textLength="126" x="490" y="371.7139">&#33719;&#21462;&#23383;&#27573;&#30340;&#31867;&#22411;&#20449;&#24687;</text><line style="stroke:#000000;stroke-width:1.0;stroke-dasharray:1.0,2.0;" x1="478" x2="628" y1="380.0156" y2="380.0156"/><text fill="#000000" font-family="sans-serif" font-size="14" lengthAdjust="spacing" textLength="63" x="521.5" y="398.0107">.Field(int)</text><rect fill="#FBE972" filter="url(#f1fban6zxh52bp)" height="40.2969" rx="7.5" ry="7.5" style="stroke:#000000;stroke-width:1.0;" width="68" x="678" y="243.125"/><text fill="#000000" font-family="sans-serif" font-size="14" lengthAdjust="spacing" textLength="44" x="690" y="268.1201">.Name</text><path d="M628,380.0156 L638,380.0156 C653,380.0156 653,263.2734 668,263.2734 L678,263.2734 " fill="none" style="stroke:#008000;stroke-width:1.0;stroke-dasharray:5.0,5.0;"/><rect fill="#FBE972" filter="url(#f1fban6zxh52bp)" height="66.5938" rx="7.5" ry="7.5" style="stroke:#000000;stroke-width:1.0;" width="244" x="678" y="303.4219"/><text fill="#000000" font-family="sans-serif" font-size="14" lengthAdjust="spacing" textLength="220" x="690" y="328.417">&#23383;&#27573;&#22312;&#32467;&#26500;&#20307;&#20869;&#30340;&#20559;&#31227;&#37327;(&#36215;&#22987;&#20301;&#32622;)</text><line style="stroke:#000000;stroke-width:1.0;stroke-dasharray:1.0,2.0;" x1="678" x2="922" y1="336.7188" y2="336.7188"/><text fill="#000000" font-family="sans-serif" font-size="14" lengthAdjust="spacing" textLength="45" x="777.5" y="354.7139">.Offset</text><path d="M628,380.0156 L638,380.0156 C653,380.0156 653,336.7188 668,336.7188 L678,336.7188 " fill="none" style="stroke:#008000;stroke-width:1.0;stroke-dasharray:5.0,5.0;"/><rect fill="#FBE972" filter="url(#f1fban6zxh52bp)" height="66.5938" rx="7.5" ry="7.5" style="stroke:#000000;stroke-width:1.0;" width="115" x="678" y="390.0156"/><text fill="#000000" font-family="sans-serif" font-size="14" lengthAdjust="spacing" textLength="84" x="693.5" y="415.0107">&#23383;&#27573;&#26159;&#21542;&#20844;&#26377;</text><line style="stroke:#000000;stroke-width:1.0;stroke-dasharray:1.0,2.0;" x1="678" x2="793" y1="423.3125" y2="423.3125"/><text fill="#000000" font-family="sans-serif" font-size="14" lengthAdjust="spacing" textLength="4" x="690" y="441.3076">&#160;</text><text fill="#000000" font-family="sans-serif" font-size="14" lengthAdjust="spacing" textLength="87" x="694" y="441.3076">.IsExported()</text><path d="M628,380.0156 L638,380.0156 C653,380.0156 653,423.3125 668,423.3125 L678,423.3125 " fill="none" style="stroke:#008000;stroke-width:1.0;stroke-dasharray:5.0,5.0;"/><rect fill="#FBE972" filter="url(#f1fban6zxh52bp)" height="40.2969" rx="7.5" ry="7.5" style="stroke:#000000;stroke-width:1.0;" width="54" x="678" y="476.6094"/><text fill="#000000" font-family="sans-serif" font-size="14" lengthAdjust="spacing" textLength="30" x="690" y="501.6045">.Tag</text><path d="M628,380.0156 L638,380.0156 C653,380.0156 653,496.7578 668,496.7578 L678,496.7578 " fill="none" style="stroke:#008000;stroke-width:1.0;stroke-dasharray:5.0,5.0;"/><path d="M428,380.0156 L438,380.0156 C453,380.0156 453,380.0156 468,380.0156 L478,380.0156 " fill="none" style="stroke:#008000;stroke-width:1.0;stroke-dasharray:5.0,5.0;"/><path d="M298,293.4219 L308,293.4219 C323,293.4219 323,380.0156 338,380.0156 L348,380.0156 " fill="none" style="stroke:#89C6FA;stroke-width:1.0;stroke-dasharray:5.0,5.0;"/><path d="M68,344.8672 L78,344.8672 C93,344.8672 93,293.4219 108,293.4219 L118,293.4219 " fill="none" style="stroke:#008000;stroke-width:1.0;stroke-dasharray:5.0,5.0;"/><rect fill="#E0FFFF" filter="url(#f1fban6zxh52bp)" height="40.2969" rx="7.5" ry="7.5" style="stroke:#000000;stroke-width:1.0;" width="158" x="118" y="558.2031"/><text fill="#000000" font-family="sans-serif" font-size="14" lengthAdjust="spacing" textLength="134" x="130" y="583.1982">.Kind()==reflect.Ptr</text><rect fill="#E0FFFF" filter="url(#f1fban6zxh52bp)" height="82.8906" rx="7.5" ry="7.5" style="stroke:#000000;stroke-width:1.0;" width="254" x="326" y="536.9063"/><text fill="#000000" font-family="sans-serif" font-size="14" lengthAdjust="spacing" textLength="230" x="338" y="561.9014">&#33719;&#21462;&#25351;&#38024;&#25351;&#21521;&#30340;&#25968;&#25454;&#30340;&#31867;&#22411;&#20449;&#24687;Type</text><text fill="#000000" font-family="sans-serif" font-size="14" lengthAdjust="spacing" textLength="226" x="340" y="578.1982">&#25509;&#30528;&#36824;&#26159;&#26681;&#25454;.Kind()&#31867;&#21035;&#20570;&#30456;&#20851;&#25805;&#20316;</text><line style="stroke:#000000;stroke-width:1.0;stroke-dasharray:1.0,2.0;" x1="326" x2="580" y1="586.5" y2="586.5"/><text fill="#000000" font-family="sans-serif" font-size="14" lengthAdjust="spacing" textLength="48" x="429" y="604.4951">.Elem()</text><path d="M276,578.3516 L286,578.3516 C301,578.3516 301,578.3516 316,578.3516 L326,578.3516 " fill="none" style="stroke:#89C6FA;stroke-width:1.0;stroke-dasharray:5.0,5.0;"/><path d="M68,344.8672 L78,344.8672 C93,344.8672 93,578.3516 108,578.3516 L118,578.3516 " fill="none" style="stroke:#008000;stroke-width:1.0;stroke-dasharray:5.0,5.0;"/><rect fill="#F3FBEC" height="52.5938" id="_legend" rx="0.5" ry="0.5" style="stroke:#F3FBEC;stroke-width:1.0;stroke-dasharray:4.0,4.0;" width="178" x="731" y="641.7969"/><text fill="#808080" font-family="sans-serif" font-size="14" lengthAdjust="spacing" textLength="158" x="741" y="664.792">&#36890;&#36807;type.Kind()&#21028;&#26029;&#31867;&#22411;</text><text fill="#808080" font-family="sans-serif" font-size="14" lengthAdjust="spacing" textLength="140" x="741" y="681.0889">&#19981;&#21516;&#30340;&#31867;&#22411;&#26377;&#19981;&#21516;&#20449;&#24687;</text><text fill="#000000" font-family="sans-serif" font-size="14" lengthAdjust="spacing" textLength="27" x="452" y="721.3857">&#22270; 1</text><!--SRC=[xLPjJnj74Fv-ls8bL65RrCM6y688eb18cm95WQJgfsfzjxPFET-XyphWLaYGG7W91hUy924a9L48A2sO52M1KCT_ndis_wApjsTmZK7vKAbKucJvxdQVdNdcsPcRROzHRDAegYjHF2IrncX28srIDJgQJEOpExdziTp-Qrd3iPYBPHQjwPJzx4Q5x6Dh_JrRIESEDtBP7MlfmFej1L3TK4X-TOBF_RK0Pl8JxrXgdgrj8Jw3uFdewGi0e1Rd6UKosVpI5cfjDOqOQMj3BBa7PYLEOMmLPWex7u68P2__MK9mzMD5KVKmyldjrrviXbKT-MhjjwyDK_t9q2dMljJKi1ubEaKo_17JdkvHTT9fQ8Q9WXgMRn-F3KPK-RPEOZ7aymf37J0TDesuhWXyLNTtHqTdfprtGmoREZ6HxuezL8qAKw_Px9QLV55uFbU3hFG2tAsrCVPoysWvopwySiYEgD5uz7jLeH6WB5mDHB1Y3FEG6Xpd0OKCqOZBxnOH5_bSA-4p754fiMT7IvVKVU8I2NwIQHYqxqJOQbkA0Pu2gCbRsrBdiAaGxYbrS1C9DZTpgnh1eHAZ9ug73KqvorwbVJcHfVwiFGa5INEZdtl5fcaCbxWKKLmvPuDBY9c4wAKY-joegE89gggfMMu8OKU_KPwX7e_dHsGzNBUUtuSVf7LXzcx-xi590GID4Otx5DQw8I-5BGMRjuNNKT0hJ7Ibd7dzQQMaIdjQ5Qe34UIoY4f7Zykbjem444Y0__- -rhtyrT7ez1Q7Wa5Pjdcop1ksc2oaDuJCG8SjpBATUvp4p9YrDiEsKspxiPYLl53_4MghZ3oLZQEgvdgveRuUh7jxEBepWSy67oCut3QU89e6MNVkWXziZ5DVZeYs321hVZDfhHo0UjRJ3LJOlNVqOgqmysSDOka3zc6fa7q4CTcvGlHgnqAvayzi8aHtbJYhGJutvyWBxYnoTZ42vlmGJWgizGkdDSXuYAg6ZjYJZv2ILAMGh2O9QKIcti74494yIDmyWS8yPCrA_iqXU_O0GeK7oGkNXBpVGhznkLkAYG3WujZLgqLZ0zIConIIHL2qKHu4Ubbxo_ad-snoZmyKlOXno4fhULTuyVR5exs4HWpkwJJK0Ja8LQS2XDZsGsldxMa7OhpSGRTAj7BxZeNL2H5vBllS6ayxImJ-s1kFkmz7YNWEY9LGGVd3HUlPH2wpoEvFWY4slf3VF3oQMd0Lthvdcmzo6LwmRiVcTw5GZD2MVzYm7gLPwXMR_0Cog2ZwDx6kaI73fEIOC7WVnE6AwlTJ4wItaqk6b1Vg5mMScphwTHh-MUeNNdlBkrPofonUEmUi-Otyqp6Unu_Irle1e1m_73dzEnjV5JfRYybSPiq9fqiZKKuGhWZ12ZJkAFoZO0ADIF2XTCR4LnEPdA2Tkd1QA6IdABXrVB3fbzRAjk1a8tBxIPQQE-O9oeWHPuF0d30AZjlXLZmJIUqLZqWN_aHoeOyQbqUAYaUA_yDvuTEwzSNglfVDyB8PNZR3VwCPzcjOfpTxUz0TOiPuwlky_bf_dRVHrMsgq7CIq0IHhp7WhmlK-z7DmKx4fzsIwrf_3uePSLCcI55Zr5I3SLuwRkawleFHZRXErIW983skQTBrMxq1D10F0WnJWcxrIb-H48vh57Nfii6_JW4mtVrvazI3zN0SXuiBEw5QgPaGRty3]--></g></svg>