<svg version="1.1" xmlns="http://www.w3.org/2000/svg" viewBox="0 0 589.169921875 416.1169128417969" width="589.169921875" height="416.1169128417969">
  <!-- svg-source:excalidraw -->
  
  <defs>
    <style class="style-fonts">
      @font-face {
        font-family: "Virgil";
        src: url("https://unpkg.com/@excalidraw/excalidraw@0.14.2/dist/excalidraw-assets/Virgil.woff2");
      }
      @font-face {
        font-family: "Cascadia";
        src: url("https://unpkg.com/@excalidraw/excalidraw@0.14.2/dist/excalidraw-assets/Cascadia.woff2");
      }
    </style>
  </defs>
  <rect x="0" y="0" width="589.169921875" height="416.1169128417969" fill="#ffffff"></rect><g transform="translate(93.71292114257812 219.10565948486328) rotate(0 37 16)"><text x="0" y="26" font-family="Helvetica, Segoe UI Emoji" font-size="28px" fill="#0b7285" text-anchor="start" style="white-space: pre;" direction="ltr">[addr]</text></g><g transform="translate(46.043548583984375 90.43404388427734) rotate(0 20 11.5)"><text x="0" y="19" font-family="Helvetica, Segoe UI Emoji" font-size="20px" fill="#000000" text-anchor="start" style="white-space: pre;" direction="ltr">sed </text></g><g transform="translate(94.51754760742188 91.42742156982422) rotate(0 56 11.5)"><text x="0" y="19" font-family="Helvetica, Segoe UI Emoji" font-size="20px" fill="#2b8a3e" text-anchor="start" style="white-space: pre;" direction="ltr">[OPTION]... </text></g><g transform="translate(218.75247192382812 86.92964935302734) rotate(0 34.5 11.5)"><text x="0" y="19" font-family="Helvetica, Segoe UI Emoji" font-size="20px" fill="#c92a2a" text-anchor="start" style="white-space: pre;" direction="ltr">{script} </text></g><g transform="translate(323.6216735839844 91.16515350341797) rotate(0 52.5 11.5)"><text x="0" y="19" font-family="Helvetica, Segoe UI Emoji" font-size="20px" fill="#495057" text-anchor="start" style="white-space: pre;" direction="ltr">[input-file]...</text></g><g stroke-linecap="round" transform="translate(207.24600219726562 75.03185272216797) rotate(0 46.295989990234375 24.014404296875)"><path d="M1.18 -0.32 C27.19 2.03, 56.42 -0.16, 91.61 1.26 M94.56 0.36 C91.09 9.32, 93.31 19.71, 92.84 46.17 M91.09 46.72 C67.07 49.22, 41.32 47.49, -0.74 48.73 M-1.18 46.42 C-0.47 32.61, 1.89 13.1, -0.43 -1.52" stroke="#c92a2a" stroke-width="1.5" fill="none" stroke-dasharray="8 9"></path></g><g transform="translate(234.74591064453125 218.37149047851562) rotate(0 10.5 16)"><text x="0" y="26" font-family="Helvetica, Segoe UI Emoji" font-size="28px" fill="#e67700" text-anchor="start" style="white-space: pre;" direction="ltr">X</text></g><g transform="translate(336.55926513671875 218.07754516601562) rotate(0 54 16)"><text x="0" y="26" font-family="Helvetica, Segoe UI Emoji" font-size="28px" fill="#000000" text-anchor="start" style="white-space: pre;" direction="ltr">[options]</text></g><g stroke-linecap="round"><g transform="translate(249.9838305628258 135.77520751953125) rotate(0 -3.0681603701464724 35.47590637207031)"><path d="M-0.1 0.61 C-0.87 12.36, -4.5 58.28, -5.57 69.92 M-1.62 -0.11 C-2.41 11.79, -5.25 58.99, -6.23 70.91" stroke="#c92a2a" stroke-width="1" fill="none"></path></g><g transform="translate(249.9838305628258 135.77520751953125) rotate(0 -3.0681603701464724 35.47590637207031)"><path d="M-4.76 69.21 L-10.61 58.2 L0.21 56.22 L-6.47 70.33" stroke="none" stroke-width="0" fill="#c92a2a" fill-rule="evenodd"></path><path d="M-5.46 71.62 C-8.64 67.33, -9.21 65.12, -12.29 56.01 M-5.84 71.45 C-8.28 66.5, -9.62 61.37, -12.16 57.32 M-12.65 56.76 C-7.35 56.72, -1.28 58.08, 1.85 57.22 M-12.12 56.64 C-9.3 57.26, -6.65 56.84, 0.86 58.06 M0.09 56.65 C-0.98 60.35, -3.35 64.99, -5.53 69.7 M0.61 58.32 C-1.23 62.79, -3.66 66.67, -6.25 71.22 M-6.23 70.91 C-6.23 70.91, -6.23 70.91, -6.23 70.91 M-6.23 70.91 C-6.23 70.91, -6.23 70.91, -6.23 70.91" stroke="#c92a2a" stroke-width="1" fill="none"></path></g></g><mask></mask><g stroke-linecap="round"><g transform="translate(125.8315879858264 260.3377380371094) rotate(0 -25.724269592553604 47.2547607421875)"><path d="M-0.48 -0.86 C-9.04 15.17, -42.18 79.62, -50.78 95.55 M1.47 1.3 C-7.24 17.08, -42.28 78.16, -51.37 93.98" stroke="#0b7285" stroke-width="1" fill="none"></path></g><g transform="translate(125.8315879858264 260.3377380371094) rotate(0 -25.724269592553604 47.2547607421875)"><path d="M-49.86 95.29 L-49.99 80.34 L-37.42 83.89 L-53.19 94.94" stroke="none" stroke-width="0" fill="#0b7285" fill-rule="evenodd"></path><path d="M-52.45 94.82 C-49.54 88.02, -50.1 82.91, -48.76 78.17 M-50.8 94.01 C-51.15 89.83, -50.56 83.95, -49.56 78.39 M-51.1 78.88 C-46.59 82, -43.29 84.32, -39.92 85.98 M-50.12 79.46 C-45.49 81.29, -41.87 83.56, -39.58 85.97 M-39.52 85.81 C-44.37 88.12, -48.39 90.4, -50.34 92.85 M-39.81 85.91 C-42.36 87.12, -45.22 90.08, -51.86 93.26 M-51.37 93.98 C-51.37 93.98, -51.37 93.98, -51.37 93.98 M-51.37 93.98 C-51.37 93.98, -51.37 93.98, -51.37 93.98" stroke="#0b7285" stroke-width="1" fill="none"></path></g></g><mask></mask><g transform="translate(10 363.8013000488281) rotate(0 51 14)"><text x="0" y="21" font-family="Helvetica, Segoe UI Emoji" font-size="20px" fill="#0b7285" text-anchor="start" style="white-space: pre;" direction="ltr">寻找匹配行</text></g><g transform="translate(153.53485107421875 350.1169128417969) rotate(0 101 28)"><text x="0" y="21" font-family="Helvetica, Segoe UI Emoji" font-size="20px" fill="#e67700" text-anchor="start" style="white-space: pre;" direction="ltr">单个字母的指令</text><text x="0" y="49" font-family="Helvetica, Segoe UI Emoji" font-size="20px" fill="#e67700" text-anchor="start" style="white-space: pre;" direction="ltr">对匹配的行执行该指令</text></g><g stroke-linecap="round"><g transform="translate(242.63544154658933 262.0980224609375) rotate(0 -2.996212317096848 41.61662292480469)"><path d="M-0.73 0.46 C-1.88 14.15, -5.88 69.17, -6.64 82.82 M1.09 -0.34 C0.31 13.45, -3.14 70.22, -4.27 84.14" stroke="#e67700" stroke-width="1" fill="none"></path></g><g transform="translate(242.63544154658933 262.0980224609375) rotate(0 -2.996212317096848 41.61662292480469)"><path d="M-4.95 83.18 L-9.46 72.09 L2.97 70.14 L-4.82 82.36" stroke="none" stroke-width="0" fill="#e67700" fill-rule="evenodd"></path><path d="M-3.69 83.32 C-6.62 80.45, -8.96 73.9, -9.8 70.44 M-4.12 83.83 C-5.7 80.83, -6.99 76.71, -10.1 70.64 M-9.96 71.14 C-5.46 70.6, -3 69.49, 1.98 70.23 M-10.19 70.62 C-4.19 70.86, 0.66 71.33, 2.7 70.61 M3.81 70.97 C1.93 75.1, 0.9 79.05, -5.15 84.69 M3.13 71.03 C0.92 73.73, -0.06 76.99, -3.61 83.83 M-4.27 84.14 C-4.27 84.14, -4.27 84.14, -4.27 84.14 M-4.27 84.14 C-4.27 84.14, -4.27 84.14, -4.27 84.14" stroke="#e67700" stroke-width="1" fill="none"></path></g></g><mask></mask><g transform="translate(367.55780029296875 363.328369140625) rotate(0 91 14)"><text x="0" y="21" font-family="Helvetica, Segoe UI Emoji" font-size="20px" fill="#000000" text-anchor="start" style="white-space: pre;" direction="ltr">某些指令的额外选项</text></g><g stroke-linecap="round"><g transform="translate(396.887925347958 258.88238525390625) rotate(0 32.27458315826118 48.0650634765625)"><path d="M0.01 0.04 C10.92 15.82, 54.79 79.4, 65.37 95.58 M-1.44 -0.98 C9.39 14.88, 53.64 80.79, 64.86 96.84" stroke="#000000" stroke-width="1" fill="none"></path></g><g transform="translate(396.887925347958 258.88238525390625) rotate(0 32.27458315826118 48.0650634765625)"><path d="M65.3 96.1 L51.99 88.97 L62.39 82.19 L64.04 95.27" stroke="none" stroke-width="0" fill="#000000" fill-rule="evenodd"></path><path d="M64.91 97.86 C60.33 93.27, 58.47 91.31, 50.75 90.2 M64.57 97.11 C61.26 95.52, 58.12 92.25, 52.05 88.86 M51.94 90.06 C55.69 87.59, 60.11 84.39, 62.43 83.27 M51.56 89.81 C55.79 87.01, 58.89 84.62, 61.86 81.68 M61.78 81.52 C61.89 86.71, 62.83 89.47, 63.37 95.82 M62.02 82.6 C63.12 88.19, 64.74 94.4, 64.71 96.65 M64.86 96.84 C64.86 96.84, 64.86 96.84, 64.86 96.84 M64.86 96.84 C64.86 96.84, 64.86 96.84, 64.86 96.84" stroke="#000000" stroke-width="1" fill="none"></path></g></g><mask></mask><g stroke-linecap="round"><g transform="translate(579.169921875 302.6676330566406) rotate(0 0 0)"><path d="M0 0 C0 0, 0 0, 0 0 M0 0 C0 0, 0 0, 0 0" stroke="#000000" stroke-width="1" fill="none"></path></g></g><mask></mask><g stroke-linecap="round" transform="translate(72.8580322265625 201.44296264648438) rotate(0 199.08538818359375 31.365814208984375)"><path d="M-0.93 1.08 C85.06 0.67, 171.54 -0.74, 399.01 0.02 M396.48 0.57 C398.91 20.74, 398.18 43.1, 399.92 61.8 M397.57 63.5 C242.38 61.82, 86.35 62.43, -0.79 63.32 M1.21 64.29 C0.95 37.72, 1.66 17.36, 0.4 -0.35" stroke="#2b8a3e" stroke-width="1.5" fill="none" stroke-dasharray="8 9"></path></g><g transform="translate(254.89990234375 159.50949096679688) rotate(0 61 14)"><text x="0" y="21" font-family="Helvetica, Segoe UI Emoji" font-size="20px" fill="#343a40" text-anchor="start" style="white-space: pre;" direction="ltr">三个部分组成</text></g><g transform="translate(183.77911376953125 10) rotate(0 64.5 14)"><text x="0" y="21" font-family="Helvetica, Segoe UI Emoji" font-size="20px" fill="#000000" text-anchor="start" style="white-space: pre;" direction="ltr">SED 命令结构</text></g></svg>