<?xml version="1.0" encoding="UTF-8" standalone="no"?><svg xmlns="http://www.w3.org/2000/svg" xmlns:xlink="http://www.w3.org/1999/xlink" contentStyleType="text/css" height="856.25px" preserveAspectRatio="none" style="width:735px;height:856px;background:#FFFFFF;" version="1.1" viewBox="0 0 735 856" width="735.4167px" zoomAndPan="magnify"><defs/><g><polygon fill="#17A2B8" points="513.5992,23.3671,512.0723,25.4534,510.2663,28.5092,507.6834,30.5686,504.9691,31.6947,502.8049,31.7924,500.0234,30.384,497.3988,29.4639,495.4068,27.5958,494.3618,25.4572,493.7421,23.7543,493.135,21.53,492.1496,19.616,492.9068,17.7472,493.5703,15.7,496.0599,14.0809,497.8115,11.9802,499.9795,11.2826,502.5569,10.6819,505.8621,11.0388,507.6724,11.8925,509.7772,12.2795,512.3363,14.9015,513.2285,17.6695,513.6161,19.5581,513.177,22.6703" style="stroke:#2E2E2E;stroke-width:1.0416666666666667;"/><polygon fill="none" points="418.75,127.0508,418.75,127.2697,429.2969,126.6192,439.8438,127.2521,450.3906,127.4671,460.9375,126.3077,471.4844,126.9698,482.0313,126.6065,492.5781,126.6513,503.125,126.9798,513.6719,126.3306,524.2188,127.6275,534.7656,126.3942,545.3125,126.8448,555.8594,127.5007,566.4063,126.9614,576.9531,127.1219,587.5,127.0508,587.4958,127.0405,588.113,127.3521,588.7103,127.6156,589.3456,127.9709,589.9462,128.2424,590.4463,128.2712,590.6642,128.3614,590.772,128.8943,591.0831,129.5113,591.4038,130.1322,591.1912,130.5324,591.6667,131.2174,591.9023,131.2174,591.5637,137.0443,591.852,142.8711,591.4948,148.6979,591.6429,154.5247,591.6667,160.3516,591.9046,160.4501,591.407,160.9343,591.2123,161.5441,591.0431,162.1643,590.8239,162.7639,590.4463,163.2978,590.4458,163.2966,589.8952,163.6341,589.1917,163.6024,588.7163,164.1213,588.1621,164.45,587.5,164.5182,587.5,164.9813,576.9531,165.1568,566.4063,164.015,555.8594,163.8389,545.3125,163.8709,534.7656,164.4569,524.2188,164.3135,513.6719,165.228,503.125,164.3363,492.5781,164.1609,482.0313,164.756,471.4844,163.8236,460.9375,163.9775,450.3906,165.1942,439.8438,164.972,429.2969,165.2833,418.75,164.5182,418.7072,164.415,418.2032,164.3765,417.6499,164.2195,416.9195,163.6345,416.3802,163.5112,415.8037,163.2978,415.8441,163.3146,415.7687,162.7952,415.3142,162.1188,415.2199,161.5915,414.6498,160.8672,414.5833,160.3516,414.3482,160.3516,414.7582,154.5247,414.3344,148.6979,414.7601,142.8711,414.6551,137.0443,414.5833,131.2174,414.4974,131.1818,414.7139,130.5812,415.2187,130.0999,415.2195,129.4099,415.7495,128.9391,415.8037,128.2712,415.7303,128.0939,416.475,128.2252,417.0466,127.9384,417.604,127.6175,418.167,127.31,418.75,127.0508" style="stroke:#333333;stroke-width:1.0416666666666667;"/><text fill="#2E2E2E" font-family="&quot;&quot;" font-size="12.5" lengthAdjust="spacing" textLength="154.1667" x="426.0417" y="150.1119">读取一行内容,移除其换行符</text><path d="M158.3333,179.1178 L158.9172,179.1178 L157.1824,189.1048 L158.8702,199.0918 L159.4436,209.0788 L156.3517,219.0658 L158.3333,229.0527 L158.3333,229.0527 L158.3333,228.8369 L168.5133,227.868 L178.6932,227.9875 L188.8731,228.8634 L199.053,227.1323 L209.233,230.5906 L219.4129,227.302 L229.5928,228.5034 L239.7727,230.2526 L249.9527,228.8145 L260.1326,229.2423 L270.3125,228.964 L280.4924,229.5486 L290.6723,229.717 L300.8523,230.6797 L311.0322,230.9168 L321.2121,230.9396 L331.392,229.76 L341.572,230.3405 L351.7519,231.0034 L361.9318,227.0494 L372.1117,230.9375 L382.2917,229.0527 L382.2917,229.0527 L382.0171,229.0527 L382.7859,224.8926 L381.8333,220.7324 L382.2282,216.5723 L382.9783,212.4121 L382.2917,208.252 L382.2828,208.2077 L386.4775,207.5142 L390.6865,206.8927 L394.8672,206.1299 L398.9576,204.9151 L403.125,204.0853 L403.1772,204.3461 L398.8544,202.7322 L394.8433,202.6768 L390.7245,202.083 L386.5391,201.1556 L382.2917,199.9186 L382.8593,199.9186 L381.8444,197.8418 L381.6878,195.765 L381.7163,193.6882 L382.2371,191.6113 L382.2917,189.5345 L382.163,189.4058 L380.6545,187.8973 L378.0106,185.2535 L375.8171,183.0599 L374.1078,181.3506 L371.875,179.1178 L371.875,177.2655 L361.7063,177.6758 L351.5377,180.9205 L341.369,180.328 L331.2004,181.1581 L321.0317,178.224 L310.8631,180.0045 L300.6944,180.7579 L290.5258,177.8056 L280.3571,178.8516 L270.1885,179.4678 L260.0198,180.9283 L249.8512,179.1062 L239.6825,180.4028 L229.5139,177.5795 L219.3452,177.2366 L209.1766,180.5168 L199.0079,177.1263 L188.8393,180.5316 L178.6706,179.6918 L168.502,178.3736 L158.3333,179.1178 L158.3333,179.1178 " fill="#17A2B8" style="stroke:#2E2E2E;stroke-width:1.0416666666666667;"/><path d="M371.875,179.1178 L372.0696,179.1178 L371.4914,181.2012 L372.054,183.2845 L372.2451,185.3678 L371.2144,187.4512 L371.875,189.5345 L371.875,189.4625 L373.9583,189.1396 L376.0417,189.1794 L378.125,189.4714 L380.2083,188.8943 L382.2917,189.5345 L382.6542,189.897 L379.7957,187.0385 L377.9955,185.2384 L376.3245,183.5673 L373.9022,181.145 L371.875,179.1178 " fill="#17A2B8" style="stroke:#2E2E2E;stroke-width:1.0416666666666667;"/><text fill="#FFFFFF" font-family="&quot;&quot;" font-size="12.5" lengthAdjust="spacing" textLength="191.6667" x="169.7917" y="201.1373">sed 处理过程中一共有2个buffer,</text><text fill="#FFFFFF" font-family="&quot;&quot;" font-size="12.5" lengthAdjust="spacing" textLength="138.5417" x="169.7917" y="215.6881">另外一个叫 hold space</text><polygon fill="none" points="407.2917,185.3516,407.2917,185.5705,417.9398,184.92,428.588,185.5529,439.2361,185.7679,449.8843,184.6084,460.5324,185.2706,471.1806,184.9073,481.8287,184.9521,492.4769,185.2806,503.125,184.6314,513.7731,185.9283,524.4213,184.695,535.0694,185.1456,545.7176,185.8015,556.3657,185.2622,567.0139,185.4226,577.662,185.3183,588.3102,185.5375,598.9583,185.3516,598.9901,185.4283,599.6254,185.7835,600.226,186.055,600.8164,186.3017,601.3492,186.4096,601.9046,186.572,602.0533,186.6336,602.374,187.2545,602.1614,187.6546,602.8545,188.4299,602.7858,188.8896,603.125,189.5182,603.3104,189.5182,602.9531,195.3451,603.1012,201.1719,603.3825,206.9987,603.1081,212.8255,603.125,218.6523,603.1588,218.6663,602.9896,219.2866,602.7704,219.8862,602.3915,220.4196,602.2408,221.0475,601.9046,221.5986,601.8286,221.415,601.3531,221.9339,600.7989,222.2626,600.1959,222.4735,599.629,222.7716,598.9583,222.819,598.9583,222.3158,588.3102,222.1397,577.662,222.1717,567.0139,222.7577,556.3657,222.6143,545.7176,223.5288,535.0694,222.6371,524.4213,222.4617,513.7731,223.0568,503.125,222.1244,492.4769,222.2783,481.8287,223.495,471.1806,223.2728,460.5324,223.5841,449.8843,222.4838,439.2361,223.1515,428.588,223.434,417.9398,222.3269,407.2917,222.819,407.2789,222.7883,406.7192,222.6153,406.1998,222.5399,405.5233,222.0854,404.9961,221.9911,404.3454,221.5986,404.1677,221.525,403.8841,220.9194,404.0188,220.487,403.3832,219.7356,403.5323,219.3092,403.125,218.6523,403.1967,218.6523,403.032,212.8255,403.0022,206.9987,403.2843,201.1719,403.0211,195.3451,403.125,189.5182,403.3149,189.5969,403.1918,188.8555,403.8112,188.4218,404.0126,187.8148,404.1799,187.1938,404.3454,186.572,404.3517,186.5871,405.0312,186.561,405.6054,186.2806,406.1356,185.894,406.738,185.6817,407.2917,185.3516" style="stroke:#333333;stroke-width:1.0416666666666667;"/><text fill="#2E2E2E" font-family="&quot;&quot;" font-size="12.5" lengthAdjust="spacing" textLength="177.0833" x="414.5833" y="208.4127">放到 pattern space buffer中</text><polygon fill="#FFFACD" points="79.6875,239.4694,79.6875,239.6883,90.0429,239.0378,100.3983,239.6707,110.7537,239.8857,121.1091,238.7263,131.4645,239.3884,141.8199,239.0251,152.1752,239.0699,162.5306,239.3984,172.886,238.7492,183.2414,240.0461,193.5968,238.8129,203.9522,239.2634,214.3076,239.9193,224.663,239.3801,235.0184,239.5405,245.3738,239.4361,255.7292,239.6554,266.0846,239.7185,276.44,240.0795,286.7953,240.1684,297.1507,240.177,307.5061,239.7346,317.8615,239.9523,328.2169,240.2009,338.5723,238.7182,348.9277,240.1762,359.2831,239.1605,369.6385,240.0255,379.9939,238.9538,390.3493,239.398,400.7047,240.2419,411.06,239.4186,421.4154,239.5791,431.7708,239.8221,442.1262,239.903,452.4816,239.4653,462.837,239.7686,473.1924,238.8731,483.5478,239.7656,493.9032,240.0404,504.2586,239.9325,514.614,240.108,524.9694,238.9662,535.3248,238.79,545.6801,238.8221,556.0355,239.4081,566.3909,239.2647,576.7463,240.1792,587.1017,239.2874,597.4571,239.1121,607.8125,239.4694,607.8428,239.5426,608.4605,239.5606,609.2167,239.9131,610.1084,240.5929,610.8167,240.8295,611.4953,240.9949,611.731,241.0925,611.6972,241.6887,612.2079,242.5104,612.6,243.283,612.5642,243.8784,613.0208,244.6777,612.921,244.6777,613.1521,254.9515,613.6997,265.2253,613.0165,275.4991,613.5027,285.7729,612.444,296.0467,612.3154,306.3205,613.5454,316.5943,612.274,326.8681,613.551,337.1419,613.2361,347.4157,612.7418,357.6895,612.6523,367.9633,613.4987,378.2371,612.709,388.5109,613.6374,398.7847,612.4451,409.0585,613.664,419.3323,613.5253,429.6061,613.276,439.8799,613.07,450.1537,613.7777,460.4275,613.66,470.7013,613.1971,480.9751,613.3002,491.2489,612.8851,501.5227,613.7671,511.7965,613.0208,522.0703,613.0705,522.0909,612.7711,522.8298,612.2155,523.4626,611.9756,524.2262,611.9707,525.0871,611.4953,525.7532,611.5525,525.891,610.7531,526.0445,609.9794,526.26,609.2565,526.5982,608.4579,526.7534,607.8125,527.2786,607.8125,527.7107,597.4571,528.049,587.1017,527.827,576.7463,528.0025,566.3909,527.1362,556.0355,527.3695,545.6801,526.8749,535.3248,527.5745,524.9694,527.5357,514.614,527.8541,504.2586,527.0394,493.9032,527.1386,483.5478,527.7406,473.1924,527.8696,462.837,526.7448,452.4816,527.0767,442.1262,527.4341,431.7708,526.6423,421.4154,527.6468,411.06,527.5474,400.7047,527.1737,390.3493,527.4268,379.9939,528.0377,369.6385,526.9527,359.2831,527.6068,348.9277,527.5762,338.5723,527.3992,328.2169,527.4254,317.8615,527.3969,307.5061,526.6285,297.1507,526.8611,286.7953,526.7979,276.44,527.3451,266.0846,527.3704,255.7292,527.4471,245.3738,526.9755,235.0184,527.2083,224.663,527.1534,214.3076,527.8795,203.9522,527.723,193.5968,526.7729,183.2414,527.2027,172.886,526.6774,162.5306,527.579,152.1752,527.9125,141.8199,527.8459,131.4645,526.8249,121.1091,527.7619,110.7537,526.5049,100.3983,527.4871,90.0429,526.9669,79.6875,527.2786,79.7004,527.3097,78.9829,527.0506,78.2771,526.8199,77.3821,526.1324,76.8044,526.2108,76.0047,525.7532,76.0618,525.7768,75.8135,525.0638,75.6343,524.3794,75.0911,523.5442,74.8405,522.8302,74.4792,522.0703,74.7015,522.0703,74.6846,511.7965,74.4783,501.5227,75.2195,491.2489,73.844,480.9751,75.068,470.7013,73.8292,460.4275,73.9163,450.1537,74.5208,439.8799,74.5086,429.6061,73.9658,419.3323,74.9101,409.0585,74.5926,398.7847,75.2361,388.5109,75.1741,378.2371,74.0122,367.9633,74.0647,357.6895,74.3446,347.4157,74.8495,337.1419,74.8989,326.8681,74.7929,316.5943,74.123,306.3205,75.142,296.0467,75.1394,285.7729,74.4299,275.4991,74.2301,265.2253,74.0611,254.9515,74.4792,244.6777,74.4103,244.6492,74.8283,243.9594,75.0674,243.1955,75.2604,242.4125,75.8559,241.7962,76.0047,240.9949,75.9437,240.8477,76.808,240.8509,77.5346,240.5217,78.2638,240.1989,79.0429,239.9966,79.6875,239.4694" style="stroke:#333333;stroke-width:1.0416666666666667;"/><path d="M326.5625,239.4694 L326.7571,239.4694 L326.1789,243.0046 L326.7415,246.5397 L326.9326,250.0749 L325.9019,253.61 L326.5625,257.1452 L326.5116,257.0943 L324.1999,258.9493 L322.1447,261.0608 L320.2679,263.3506 L317.7765,265.0259 L316.1458,267.5618 L316.1458,269.0997 L305.6386,265.8111 L295.1313,267.0125 L284.6241,268.7617 L274.1168,267.3236 L263.6096,267.7514 L253.1024,267.4731 L242.5951,268.0578 L232.0879,268.2261 L221.5806,269.1888 L211.0734,269.4259 L200.5661,269.4487 L190.0589,268.2691 L179.5516,268.8496 L169.0444,269.5125 L158.5371,265.5586 L148.0299,269.4466 L137.5226,266.7382 L127.0154,269.0447 L116.5082,266.1868 L106.0009,267.3716 L95.4937,269.6219 L84.9864,267.4265 L74.4792,267.5618 " fill="none" style="stroke:#333333;stroke-width:1.0416666666666667;"/><text fill="#FF4500" font-family="&quot;&quot;" font-size="12.5" font-weight="bold" lengthAdjust="spacing" textLength="231.25" x="82.8125" y="257.3222">script执行 [有多个就执行多次类似步骤]</text><path d="M95.3125,343.571 L95.8963,343.571 L94.1616,354.3848 L95.8494,365.1986 L96.4227,376.0124 L93.3308,386.8262 L95.0966,397.64 L94.1278,408.4538 L94.2472,419.2676 L95.1232,430.0814 L93.392,440.8952 L95.3125,451.709 L95.3125,453.2469 L105.6597,449.9582 L116.0069,451.1596 L126.3542,452.9088 L136.7014,451.4707 L147.0486,451.8985 L157.3958,451.6202 L167.7431,452.2049 L178.0903,452.3732 L188.4375,453.3359 L198.7847,453.573 L209.1319,453.5958 L219.4792,452.4163 L229.8264,452.9967 L240.1736,453.6596 L250.5208,449.7057 L260.8681,453.5937 L271.2153,450.8854 L281.5625,453.1918 L291.9097,450.3339 L302.2569,451.5187 L312.6042,453.769 L322.9514,451.5736 L333.2986,452.0015 L343.6458,452.6496 L353.9931,452.8652 L364.3403,451.6981 L374.6875,452.5068 L385.0347,450.1189 L395.3819,452.4989 L405.7292,451.709 L407.2519,451.709 L406.964,440.8511 L407.432,429.9931 L404.3873,419.1352 L403.9175,408.2773 L404.0031,397.4193 L405.5656,386.5614 L405.1833,375.7035 L407.622,364.8456 L405.7292,353.9876 L405.6148,353.8733 L403.4212,351.6797 L401.712,349.9704 L399.0426,347.301 L397.0559,345.3144 L395.3125,343.571 L395.3125,345.3736 L384.9677,344.7812 L374.6228,345.6112 L364.278,342.6771 L353.9332,344.4576 L343.5884,345.211 L333.2435,342.2587 L322.8987,343.3047 L312.5539,343.9209 L302.2091,345.3814 L291.8642,343.5593 L281.5194,344.8559 L271.1746,342.0327 L260.8297,341.6897 L250.4849,344.9699 L240.1401,341.5795 L229.7953,344.9847 L219.4504,344.1449 L209.1056,342.8267 L198.7608,342.5883 L188.4159,344.8453 L178.0711,342.7395 L167.7263,345.215 L157.3815,342.0356 L147.0366,345.286 L136.6918,344.9163 L126.347,344.2514 L116.0022,343.7021 L105.6573,345.5893 L95.3125,343.571 " fill="#17A2B8" style="stroke:#2E2E2E;stroke-width:1.0416666666666667;"/><path d="M395.3125,343.571 L395.5071,343.571 L394.9289,345.6543 L395.4915,347.7376 L395.6826,349.821 L394.6519,351.9043 L395.3125,353.9876 L395.3125,353.9157 L397.3958,353.5927 L399.4792,353.6325 L401.5625,353.9245 L403.6458,353.3475 L405.7292,353.9876 L406.0917,354.3501 L403.2332,351.4916 L401.433,349.6915 L399.762,348.0204 L397.3397,345.5981 L395.3125,343.571 " fill="#17A2B8" style="stroke:#2E2E2E;stroke-width:1.0416666666666667;"/><text fill="#FFFFFF" font-family="&quot;&quot;" font-size="12.5" lengthAdjust="spacing" textLength="100" x="106.7708" y="365.5904">这里的操作都是对</text><text fill="#FFFFFF" font-family="&quot;&quot;" font-size="12.5" lengthAdjust="spacing" textLength="135.4167" x="106.7708" y="380.1412">pattern space buffer</text><text fill="#FFFFFF" font-family="&quot;&quot;" font-size="12.5" lengthAdjust="spacing" textLength="91.6667" x="106.7708" y="394.692">里的内容进行的,</text><text fill="#FFFFFF" font-family="&quot;&quot;" font-size="12.5" lengthAdjust="spacing" textLength="165.625" x="106.7708" y="409.2428">注意:多个X处理时,很可能这个</text><text fill="#FFFFFF" font-family="&quot;&quot;" font-size="12.5" lengthAdjust="spacing" textLength="135.4167" x="106.7708" y="423.7935">pattern space buffer</text><text fill="#FFFFFF" font-family="&quot;&quot;" font-size="12.5" lengthAdjust="spacing" textLength="278.125" x="106.7708" y="438.3443">是已经被上一个X修改过的,而不是最开始的行内容.</text><polygon fill="none" points="466.1458,285.2702,466.1458,285.4891,476.7113,284.8386,487.2768,285.4715,497.8423,285.6865,508.4077,284.5271,518.9732,285.1892,529.5387,284.8259,540.1042,285.2702,540.0532,285.1472,540.6844,285.4924,541.1908,285.5366,541.9455,286.18,542.3774,286.0443,543.0504,286.4906,542.987,286.4643,543.4331,287.1372,543.5111,287.6577,543.8046,288.2674,544.0165,288.8433,544.2708,289.4368,544.3328,289.4368,544.3539,295.2637,544.4742,301.0905,544.5038,306.9173,544.5067,312.7441,544.2708,318.571,544.3525,318.6048,544.1755,319.2218,544.0079,319.8428,543.3073,320.2429,543.5122,321.0181,543.0504,321.5172,543.011,321.4221,542.5321,321.9326,541.8062,321.8466,541.2736,322.2275,540.792,322.7315,540.1042,322.7376,540.1042,322.6869,529.5387,322.8473,518.9732,323.0904,508.4077,323.1712,497.8423,322.7336,487.2768,323.0368,476.7113,322.1414,466.1458,322.7376,466.1836,322.8289,465.6294,322.6694,465.0264,322.3921,464.4595,322.2021,463.7246,321.6064,463.1996,321.5172,462.9903,321.4306,462.7561,320.8454,462.6925,320.3309,462.4043,319.7234,462.4418,319.2508,461.9792,318.571,461.9185,318.571,461.8601,312.7441,462.0584,306.9173,461.7476,301.0905,461.7989,295.2637,461.9792,289.4368,462.1873,289.5231,462.363,288.9055,462.7029,288.3559,462.6082,287.6263,463.0579,287.1222,463.1996,286.4906,463.278,286.68,463.726,286.0949,464.3653,285.9717,464.9841,285.7988,465.6432,285.7233,466.1458,285.2702" style="stroke:#333333;stroke-width:1.0416666666666667;"/><text fill="#2E2E2E" font-family="&quot;&quot;" font-size="12.5" lengthAdjust="spacing" textLength="59.375" x="473.4375" y="308.3313">addr 验证</text><polygon fill="none" points="430.7292,410.6608,430.7292,410.8797,441.0714,410.2292,451.4137,410.8621,461.756,411.0771,472.0982,409.9177,482.4405,410.5799,492.7827,410.2165,503.125,410.2613,513.4673,410.5898,523.8095,409.9406,534.1518,411.2375,544.494,410.0043,554.8363,410.4548,565.1786,411.1108,575.5208,410.6608,575.5094,410.6333,576.1192,410.9268,576.6951,411.1387,577.3123,411.4503,577.9096,411.7138,578.4671,411.8812,578.655,411.959,578.9265,412.5596,579.1732,413.15,579.281,413.6828,579.5921,414.2998,579.6875,414.8275,579.9313,414.8275,579.4371,420.6543,579.9231,426.4811,579.5845,432.3079,579.8729,438.1348,579.6875,443.9616,579.5287,443.8958,579.4214,444.5417,579.4372,445.2386,578.9396,445.7229,578.745,446.3326,578.4671,446.9079,578.5121,447.0165,577.9332,447.2855,577.2881,447.3948,576.7375,447.7322,576.034,447.7006,575.5208,448.1283,575.5208,448.4245,565.1786,448.6993,554.8363,448.5913,544.494,448.7668,534.1518,447.625,523.8095,447.4489,513.4673,447.481,503.125,448.0669,492.7827,447.9235,482.4405,448.8381,472.0982,447.9463,461.756,447.7709,451.4137,448.366,441.0714,447.4336,430.7292,448.1283,430.6602,447.9617,430.2261,448.0924,429.6085,447.7799,429.059,447.6316,428.3294,447.0487,427.7829,446.9079,427.8853,446.9503,427.7282,446.3971,427.1432,445.6666,427.0199,445.1274,426.847,444.5676,426.5625,443.9616,426.7888,443.9616,426.561,438.1348,426.7231,432.3079,426.3702,426.4811,426.3273,420.6543,426.5625,414.8275,426.7241,414.8944,426.5766,414.143,427.2139,413.7166,427.361,413.0872,427.4529,412.4349,427.7829,411.8812,427.7359,411.7677,428.4331,411.7843,428.9216,411.297,429.6293,411.3388,430.0665,410.7276,430.7292,410.6608" style="stroke:#333333;stroke-width:1.0416666666666667;"/><text fill="#2E2E2E" font-family="&quot;&quot;" font-size="12.5" lengthAdjust="spacing" textLength="130.2083" x="438.0208" y="433.7219">执行X操作(可以有多个)</text><polygon fill="none" points="457.2917,354.4271,457.2917,354.646,467.4769,353.9955,477.662,354.6284,487.8472,354.8434,498.0324,353.684,508.2176,354.3461,518.4028,353.9828,528.588,354.0276,538.7731,354.3561,548.9583,354.4271,548.7886,354.2573,551.5943,357.063,553.8036,359.2723,556.4098,361.8785,559.0644,364.5331,561.4583,366.9271,561.4373,366.906,558.9751,369.4438,556.4505,371.9192,554.0022,374.4709,551.517,376.9858,548.9583,379.4271,548.9583,380.0372,538.7731,380.1261,528.588,380.1346,518.4028,379.6923,508.2176,379.91,498.0324,380.1586,487.8472,378.6758,477.662,380.1339,467.4769,379.1182,457.2917,379.4271,457.4227,379.5581,454.6701,376.8055,452.2748,374.4103,449.9737,372.1092,447.2797,369.4151,444.7917,366.9271,444.8175,366.9529,447.3748,364.5102,449.8939,362.0293,452.2907,359.4261,454.8622,356.9976,457.2917,354.4271" style="stroke:#4D4D4D;stroke-width:1.0416666666666667;"/><text fill="#2E2E2E" font-family="&quot;&quot;" font-size="12.5" lengthAdjust="spacing" textLength="21.875" x="512.5" y="396.2382">yes</text><text fill="#2E2E2E" font-family="&quot;&quot;" font-size="12.5" lengthAdjust="spacing" textLength="81.25" x="462.5" y="371.2545">内容是否匹配?</text><text fill="#2E2E2E" font-family="&quot;&quot;" font-size="12.5" lengthAdjust="spacing" textLength="16.6667" x="566.6667" y="358.7708">no</text><polygon fill="none" points="503.125,489.7786,503.1766,489.8303,505.5233,492.1769,508.1725,494.8261,510.7231,497.3768,512.9498,499.6035,515.625,502.2786,515.6059,502.2596,513.0203,504.6739,510.5308,507.1845,508.1083,509.7619,505.4553,512.1089,503.125,514.7786,503.2609,514.9146,500.4703,512.1239,498.0764,509.7301,495.7311,507.3847,493.1039,504.7576,490.625,502.2786,490.6418,502.2954,493.1172,499.7708,495.6688,497.3225,498.1837,494.8374,500.7688,492.4224,503.125,489.7786" style="stroke:#4D4D4D;stroke-width:1.0416666666666667;"/><polygon fill="none" points="331.25,604.3457,331.25,604.5646,341.6667,603.9141,352.0833,604.547,362.5,604.762,372.9167,603.6026,383.3333,604.2648,393.75,603.9014,404.1667,603.9462,414.5833,604.2747,425,603.6255,435.4167,604.9224,445.8333,603.6892,456.25,604.1397,466.6667,604.7956,477.0833,604.2564,487.5,604.4168,497.9167,604.3124,508.3333,604.5317,518.75,604.5948,529.1667,604.9558,539.5833,605.0447,550,605.0533,560.4167,604.6109,570.8333,604.8286,581.25,605.0772,591.6667,603.5945,602.0833,605.0525,612.5,604.0368,622.9167,604.9018,633.3333,603.8301,643.75,604.2744,654.1667,605.1182,664.5833,604.2949,675,604.3457,675.014,604.3795,675.6343,604.6984,676.2338,604.9674,676.7672,605.0767,677.3952,605.4141,677.9463,605.5661,677.7627,605.49,678.2816,606.1931,678.6103,606.8174,678.8211,607.3929,679.1192,608.0046,679.1667,608.5124,678.9989,608.5124,678.9402,614.3392,678.9509,620.166,679.1462,625.9928,679.0984,631.8197,679.1667,637.6465,679.3853,637.737,678.8666,638.2125,678.5685,638.7794,678.5077,639.4446,677.9764,639.9149,677.9463,640.5928,677.8773,640.4262,677.4433,641.045,676.8257,641.2207,676.2761,641.5606,675.5465,641.4658,675,641.8132,675,642.1456,664.5833,642.4282,654.1667,641.3211,643.75,641.7133,633.3333,641.9444,622.9167,642.4921,612.5,641.8088,602.0833,642.295,591.6667,641.2363,581.25,641.1077,570.8333,642.3377,560.4167,641.0663,550,642.3433,539.5833,642.0284,529.1667,641.5341,518.75,641.4446,508.3333,642.291,497.9167,641.5013,487.5,642.4297,477.0833,641.2374,466.6667,642.4563,456.25,642.3176,445.8333,642.0683,435.4167,641.8623,425,642.57,414.5833,642.4523,404.1667,641.9895,393.75,642.0925,383.3333,641.6775,372.9167,642.5595,362.5,641.9745,352.0833,641.9929,341.6667,641.1795,331.25,641.8132,331.1962,641.6832,330.7313,641.7393,330.1286,641.4629,329.4765,641.0671,328.8502,640.7335,328.3037,640.5928,328.2335,640.5637,327.8395,639.9123,327.9486,639.4694,327.8087,638.9233,327.4963,638.3057,327.0833,637.6465,327.3246,637.6465,327.0359,631.8197,327.1136,625.9928,326.9488,620.166,327.182,614.3392,327.0833,608.5124,327.1625,608.5452,327.5046,607.9965,327.4978,607.3033,327.7725,606.7267,328.2019,606.2143,328.3037,605.5661,328.3791,605.7481,328.8249,605.1576,329.4565,605.0157,330.0913,604.8817,330.5796,604.3938,331.25,604.3457" style="stroke:#333333;stroke-width:1.0416666666666667;"/><text fill="#2E2E2E" font-family="&quot;&quot;" font-size="12.5" lengthAdjust="spacing" textLength="329.1667" x="338.5417" y="627.4068">打印pattern space buffer里的内容 + 原来移除的换行符</text><polygon fill="none" points="452.0833,548.112,452.0833,548.3309,462.2917,547.6804,472.5,548.3133,482.7083,548.5283,492.9167,547.3689,503.125,548.031,513.3333,547.6677,523.5417,547.7125,533.75,548.041,543.9583,547.3918,554.1667,548.112,554.3026,548.2479,556.5119,550.4572,559.1181,553.0634,561.7727,555.718,564.1456,558.0909,566.6667,560.612,566.6834,560.6287,564.1588,563.1041,561.7105,565.6558,559.2254,568.1707,556.8105,570.7558,554.1667,573.112,554.1667,573.811,543.9583,573.8195,533.75,573.3772,523.5417,573.5949,513.3333,573.8435,503.125,572.3607,492.9167,573.8188,482.7083,572.8031,472.5,573.668,462.2917,572.5963,452.0833,573.112,452.0665,573.0952,449.7654,570.7941,447.0714,568.1,444.6092,565.6378,442.1665,563.1951,439.5833,560.612,439.6855,560.7142,442.0824,558.111,444.6539,555.6825,446.9428,552.9714,449.6532,550.6818,452.0833,548.112" style="stroke:#4D4D4D;stroke-width:1.0416666666666667;"/><text fill="#2E2E2E" font-family="&quot;&quot;" font-size="12.5" lengthAdjust="spacing" textLength="16.6667" x="512.5" y="589.9231">no</text><text fill="#2E2E2E" font-family="&quot;&quot;" font-size="12.5" lengthAdjust="spacing" textLength="91.6667" x="457.2917" y="564.9394">-n 参数是否指定</text><text fill="#2E2E2E" font-family="&quot;&quot;" font-size="12.5" lengthAdjust="spacing" textLength="21.875" x="571.875" y="552.4556">yes</text><polygon fill="none" points="503.125,662.6465,503.1766,662.6981,505.5233,665.0448,508.1725,667.6939,510.7231,670.2446,512.9498,672.4713,515.625,675.1465,515.6059,675.1274,513.0203,677.5418,510.5308,680.0523,508.1083,682.6298,505.4553,684.9767,503.125,687.6465,503.2609,687.7824,500.4703,684.9917,498.0764,682.5979,495.7311,680.2525,493.1039,677.6254,490.625,675.1465,490.6418,675.1632,493.1172,672.6386,495.6688,670.1903,498.1837,667.7052,500.7688,665.2903,503.125,662.6465" style="stroke:#4D4D4D;stroke-width:1.0416666666666667;"/><path d="M46.875,698.0632 L47.4588,698.0632 L45.7241,708.8108 L47.4119,719.5584 L47.9852,730.306 L44.8933,741.0536 L46.6591,751.8012 L46.875,762.5488 L46.875,762.5488 L46.875,761.3641 L57.3589,761.4836 L67.8427,762.3595 L78.3266,760.6284 L88.8105,764.0867 L99.2944,760.798 L109.7782,761.9995 L120.2621,763.7487 L130.746,762.3106 L141.2298,762.7384 L151.7137,762.4601 L162.1976,763.0447 L172.6815,763.2131 L183.1653,764.1757 L193.6492,764.4129 L204.1331,764.4357 L214.6169,763.2561 L225.1008,763.8366 L235.5847,764.4995 L246.0685,760.5455 L256.5524,764.4336 L267.0363,761.7252 L277.5202,764.0316 L288.004,761.1738 L298.4879,762.3586 L308.9718,764.6088 L319.4556,762.4135 L329.9395,762.8413 L340.4234,763.4895 L350.9073,763.705 L361.3911,762.538 L371.875,762.5488 L371.875,762.5488 L372.1409,762.5488 L371.345,756.9336 L372.1383,751.3184 L372.3826,745.7031 L372.2866,740.0879 L371.875,734.4727 L371.9863,735.0292 L375.9539,733.2007 L380.0899,732.2138 L384.2622,731.4085 L388.531,731.0859 L392.7083,730.306 L392.6726,730.1276 L388.6654,730.0913 L384.3433,728.4807 L380.146,727.4945 L376.0831,727.1799 L371.875,726.1393 L371.2576,726.1393 L371.3943,722.6074 L372.4759,719.0755 L372.2784,715.5436 L372.5551,712.0117 L371.875,708.4798 L371.6643,708.2691 L370.0007,706.6055 L368.0949,704.6997 L365.3157,701.9205 L363.4789,700.0837 L361.4583,698.0632 L361.4583,698.4131 L350.9722,699.8736 L340.4861,698.0515 L330,699.3481 L319.5139,696.5249 L309.0278,696.1819 L298.5417,699.4621 L288.0556,696.0716 L277.5694,699.4769 L267.0833,698.6371 L256.5972,697.3189 L246.1111,697.0804 L235.625,699.3375 L225.1389,697.2317 L214.6528,699.7072 L204.1667,696.5277 L193.6806,699.7782 L183.1944,699.4084 L172.7083,698.7436 L162.2222,698.1943 L151.7361,700.0815 L141.25,699.7675 L130.7639,698.5333 L120.2778,698.8081 L109.7917,697.7013 L99.3056,700.0533 L88.8194,698.4933 L78.3333,698.5425 L67.8472,696.3733 L57.3611,696.9375 L46.875,698.0632 L46.875,698.0632 " fill="#17A2B8" style="stroke:#2E2E2E;stroke-width:1.0416666666666667;"/><path d="M361.4583,698.0632 L361.6529,698.0632 L361.0747,700.1465 L361.6373,702.2298 L361.8284,704.3132 L360.7978,706.3965 L361.4583,708.4798 L361.4583,708.4079 L363.5417,708.0849 L365.625,708.1247 L367.7083,708.4167 L369.7917,707.8397 L371.875,708.4798 L372.2375,708.8423 L369.379,705.9838 L367.5788,704.1837 L365.9078,702.5126 L363.4855,700.0903 L361.4583,698.0632 " fill="#17A2B8" style="stroke:#2E2E2E;stroke-width:1.0416666666666667;"/><text fill="#FFFFFF" font-family="&quot;&quot;" font-size="12.5" lengthAdjust="spacing" textLength="148.9583" x="58.3333" y="720.0826">如果X是比较特殊的指令时,</text><text fill="#FFFFFF" font-family="&quot;&quot;" font-size="12.5" lengthAdjust="spacing" textLength="209.375" x="58.3333" y="734.6334">pattern space可能不会做删除操作,</text><text fill="#FFFFFF" font-family="&quot;&quot;" font-size="12.5" lengthAdjust="spacing" textLength="292.7083" x="58.3333" y="749.1842">还有一个hold space 可能会有操作 比如h,g等命令.</text><polygon fill="none" points="396.875,711.5723,396.875,711.7912,407.5,711.1407,418.125,711.7736,428.75,711.9886,439.375,710.8291,450,711.4913,460.625,711.128,471.25,711.1728,481.875,711.5013,492.5,710.8521,503.125,712.149,513.75,710.9157,524.375,711.3663,535,712.0222,545.625,711.4829,556.25,711.6433,566.875,711.539,577.5,711.7582,588.125,711.8214,598.75,712.1824,609.375,711.5723,609.4642,711.7875,610.0545,712.0342,610.5873,712.1421,611.2044,712.4532,611.8253,712.7738,612.3213,712.7927,612.0899,712.6968,612.783,713.4721,612.7143,713.9318,613.2248,714.6314,613.1388,715.0839,613.5417,715.7389,613.5179,715.7389,613.7992,721.5658,613.5247,727.3926,613.5782,733.2194,613.6592,739.0462,613.5417,744.873,613.6752,744.9284,613.2963,745.4618,613.1456,746.0897,612.6258,746.5648,612.6566,747.2679,612.3213,747.8193,612.3941,747.9952,611.7911,748.206,611.2242,748.5041,610.4893,748.3966,609.8776,748.5864,609.375,749.0397,609.375,748.3924,598.75,748.9784,588.125,748.835,577.5,749.7495,566.875,748.8578,556.25,748.6824,545.625,749.2775,535,748.3451,524.375,748.499,513.75,749.7157,503.125,749.4935,492.5,749.8048,481.875,748.7045,471.25,749.3722,460.625,749.6547,450,748.5476,439.375,748.9399,428.75,749.1709,418.125,749.7186,407.5,749.0353,396.875,749.0397,396.9365,749.1881,396.2122,748.618,395.6065,748.3343,395.1742,748.469,394.4227,747.8334,393.9287,747.8193,394.092,747.887,393.7509,747.2575,393.3546,746.6052,393.083,746.0046,393.0996,745.5233,392.7083,744.873,392.6044,744.873,392.9138,739.0462,392.5164,733.2194,392.9227,727.3926,392.8765,721.5658,392.7083,715.7389,392.7869,715.7715,392.9676,715.156,393.4296,714.657,393.6374,714.0527,393.7389,713.4044,393.9287,712.7927,393.9644,712.8787,394.5007,712.5068,395.2024,712.5343,395.7171,712.1101,396.3087,711.8717,396.875,711.5723" style="stroke:#333333;stroke-width:1.0416666666666667;"/><text fill="#2E2E2E" font-family="&quot;&quot;" font-size="12.5" lengthAdjust="spacing" textLength="197.9167" x="404.1667" y="734.6334">删除pattern space buffer的内容</text><polygon fill="none" points="464.5833,783.3822,464.5833,783.6011,475.5952,782.9506,486.6071,783.5835,497.619,783.7985,508.631,782.639,519.6429,783.3012,530.6548,782.9379,541.6667,783.3822,541.6157,783.2591,542.2469,783.6044,542.7533,783.6485,543.508,784.292,543.9399,784.1563,544.6129,784.6025,544.5495,784.5763,544.9956,785.2492,545.0736,785.7697,545.3671,786.3794,545.579,786.9553,545.8333,787.5488,545.8953,787.5488,545.9164,793.3757,546.0367,799.2025,546.0663,805.0293,546.0692,810.8561,545.8333,816.6829,545.915,816.7168,545.738,817.3338,545.5704,817.9548,544.8698,818.3549,545.0747,819.1301,544.6129,819.6292,544.5735,819.5341,544.0946,820.0445,543.3687,819.9586,542.8361,820.3395,542.3545,820.8434,541.6667,820.8496,541.6667,820.7988,530.6548,820.9593,519.6429,821.2023,508.631,821.2832,497.619,820.8455,486.6071,821.1488,475.5952,820.2533,464.5833,820.8496,464.6211,820.9408,464.0669,820.7814,463.4639,820.5041,462.897,820.314,462.1621,819.7183,461.6371,819.6292,461.4278,819.5426,461.1936,818.9574,461.13,818.4429,460.8418,817.8353,460.8793,817.3627,460.4167,816.6829,460.356,816.6829,460.2976,810.8561,460.4959,805.0293,460.1851,799.2025,460.2364,793.3757,460.4167,787.5488,460.6248,787.6351,460.8005,787.0175,461.1404,786.4679,461.0457,785.7383,461.4954,785.2342,461.6371,784.6025,461.7155,784.792,462.1635,784.2069,462.8028,784.0836,463.4216,783.9107,464.0807,783.8353,464.5833,783.3822" style="stroke:#333333;stroke-width:1.0416666666666667;"/><text fill="#2E2E2E" font-family="&quot;&quot;" font-size="12.5" lengthAdjust="spacing" textLength="62.5" x="471.875" y="806.4433">读取下一行</text><polygon fill="none" points="429.1667,52.0833,429.1667,52.3023,439.7321,51.6517,450.2976,52.2847,460.8631,52.4997,471.4286,51.3402,481.994,52.0024,492.5595,51.6391,503.125,51.6839,513.6905,52.0123,524.256,51.3632,534.8214,52.66,545.3869,51.4268,555.9524,51.8773,566.5179,52.5333,577.0833,52.0833,577.0623,52.0623,579.6001,54.6001,582.0755,57.0755,584.6272,59.6272,587.142,62.142,589.5833,64.5833,589.7271,64.7271,587.2481,67.2481,584.7501,69.7501,582.1459,72.1459,579.6972,74.6972,577.0833,77.0833,577.0833,77.8148,566.5179,76.3321,555.9524,77.7901,545.3869,76.7745,534.8214,77.6394,524.256,76.5677,513.6905,77.012,503.125,77.8558,492.5595,77.0326,481.994,77.193,471.4286,77.4361,460.8631,77.5169,450.2976,77.0793,439.7321,77.3825,429.1667,77.0833,429.0261,76.9428,426.7365,74.6532,424.3013,72.2179,421.7758,69.6925,419.3172,67.2338,416.6667,64.5833,416.5481,64.4647,419.0065,61.9232,421.5141,59.4308,424.1522,57.0689,426.6184,54.5351,429.1667,52.0833" style="stroke:#4D4D4D;stroke-width:1.0416666666666667;"/><text fill="#2E2E2E" font-family="&quot;&quot;" font-size="12.5" lengthAdjust="spacing" textLength="12.5" x="512.5" y="93.8944">是</text><text fill="#2E2E2E" font-family="&quot;&quot;" font-size="12.5" lengthAdjust="spacing" textLength="137.5" x="434.375" y="68.9107">文件或输入是否有行可读</text><text fill="#2E2E2E" font-family="&quot;&quot;" font-size="12.5" lengthAdjust="spacing" textLength="12.5" x="398.9583" y="56.427">否</text><polygon fill="none" points="36.5216,116.3288,34.842,118.6237,32.8554,121.9851,30.0142,124.2504,27.0285,125.4892,24.6479,125.5967,21.5882,124.0474,18.7012,123.0353,16.5099,120.9804,15.3605,118.6279,14.6788,116.7547,14.011,114.308,12.9271,112.2026,13.76,110.1469,14.4898,107.895,17.2284,106.114,19.1552,103.8032,21.54,103.0359,24.3751,102.3751,28.0108,102.7677,30.0022,103.7068,32.3174,104.1325,35.1325,107.0166,36.1138,110.0614,36.5402,112.1389,36.0572,115.5624" style="stroke:#2E2E2E;stroke-width:1.0416666666666667;"/><polygon fill="#2E2E2E" points="31.2845,115.0619,30.3684,116.3137,29.2848,118.1472,27.735,119.3828,26.1065,120.0585,24.808,120.1171,23.139,119.2721,21.5643,118.72,20.3691,117.5992,19.7421,116.316,19.3703,115.2942,19.006,113.9597,18.4148,112.8113,18.8691,111.69,19.2672,110.4617,20.761,109.4902,21.8119,108.2298,23.1127,107.8112,24.6592,107.4508,26.6423,107.6649,27.7285,108.1772,28.9913,108.4094,30.5268,109.9826,31.0621,111.6433,31.2946,112.7765,31.0312,114.6439" style="stroke:#171717;stroke-width:1.0416666666666667;"/><path d="M503.125,164.5182 L503.2223,164.5182 L502.9332,168.6849 L503.2145,172.8516 L503.31,177.0182 L502.7947,181.1849 L503.125,185.3516 " fill="#333333" style="stroke:#333333;stroke-width:3.125;"/><polygon fill="#333333" points="498.9583,174.9349,499.0261,174.962,499.6581,176.9648,500.6873,179.1265,501.5872,181.2364,502.0617,183.1762,503.125,185.3516,503.0999,185.3415,503.8208,183.2132,504.668,181.1354,505.603,179.0928,506.2354,176.9291,507.2917,174.9349,507.4276,175.0708,506.3036,175.6135,505.5764,176.553,504.8977,177.5409,503.9373,178.2472,503.125,179.1016,503.1418,179.1183,502.2838,178.2604,501.5022,177.4787,500.6837,176.6603,499.9355,175.912,498.9583,174.9349" style="stroke:#333333;stroke-width:1.0416666666666667;"/><path d="M503.125,379.4271 L503.2223,379.4271 L502.9332,385.6738 L503.2145,391.9206 L503.31,398.1673 L502.7947,404.4141 L503.125,410.6608 " fill="#333333" style="stroke:#333333;stroke-width:3.125;"/><polygon fill="#333333" points="498.9583,400.2441,499.0261,400.2712,499.6581,402.274,500.6873,404.4357,501.5872,406.5457,502.0617,408.4855,503.125,410.6608,503.0999,410.6508,503.8208,408.5225,504.668,406.4447,505.603,404.402,506.2354,402.2383,507.2917,400.2441,507.4276,400.3801,506.3036,400.9227,505.5764,401.8623,504.8977,402.8502,503.9373,403.5564,503.125,404.4108,503.1418,404.4276,502.2838,403.5696,501.5022,402.788,500.6837,401.9695,499.9355,401.2213,498.9583,400.2441" style="stroke:#333333;stroke-width:1.0416666666666667;"/><path d="M561.4583,366.9271 L561.4583,367.0244 L567.1875,366.7353 L572.9167,367.0166 L578.6458,367.1121 L584.375,366.5968 L590.1042,366.9271 " fill="#333333" style="stroke:#333333;stroke-width:3.125;"/><polygon fill="#333333" points="585.9375,424.1862,586.0053,424.2133,586.6373,426.2161,587.6665,428.3778,588.5664,430.4877,589.0408,432.4275,590.1042,434.6029,590.0791,434.5928,590.8,432.4645,591.6472,430.3867,592.5822,428.3441,593.2146,426.1804,594.2708,424.1862,594.4068,424.3221,593.2828,424.8648,592.5556,425.8043,591.8769,426.7923,590.9164,427.4985,590.1042,428.3529,590.1209,428.3696,589.263,427.5117,588.4813,426.73,587.6629,425.9116,586.9146,425.1633,585.9375,424.1862" style="stroke:#333333;stroke-width:3.125;"/><path d="M590.1042,366.9271 L590.3961,366.9271 L589.5287,377.3387 L590.3726,387.7504 L590.6593,398.1621 L589.1133,408.5737 L589.9962,418.9854 L589.5118,429.397 L589.5715,439.8087 L590.0095,450.2204 L589.1439,460.632 L590.8731,471.0437 L589.2288,481.4553 L589.8295,491.867 L590.1042,502.2786 " fill="#333333" style="stroke:#333333;stroke-width:3.125;"/><path d="M590.1042,502.2786 L590.1042,502.5706 L579.4643,501.7032 L568.8244,502.5471 L558.1845,502.8338 L547.5446,501.2878 L536.9048,502.1707 L526.2649,501.6863 L515.625,502.2786 " fill="#333333" style="stroke:#333333;stroke-width:3.125;"/><polygon fill="#333333" points="526.0417,498.112,526.0688,498.1797,523.9049,498.8117,521.8999,499.841,519.8432,500.7408,517.6163,501.2153,515.625,502.2786,515.615,502.2536,517.6533,502.9745,519.7422,503.8217,521.8662,504.7567,523.8692,505.3891,526.0417,506.4453,526.1776,506.5812,525.0536,505.4572,524.3264,504.7301,523.6477,504.0514,522.6873,503.0909,521.875,502.2786,521.8918,502.2954,522.7005,501.4375,523.5855,500.6558,524.4337,499.8374,525.3521,499.0891,526.0417,498.112" style="stroke:#333333;stroke-width:1.0416666666666667;"/><path d="M503.125,448.1283 L503.2223,448.1283 L502.9332,456.4583 L503.2145,464.7884 L503.31,473.1185 L502.7947,481.4486 L503.125,489.7786 " fill="#333333" style="stroke:#333333;stroke-width:3.125;"/><polygon fill="#333333" points="498.9583,479.362,499.0261,479.3891,499.6581,481.3919,500.6873,483.5536,501.5872,485.6635,502.0617,487.6033,503.125,489.7786,503.0999,489.7686,503.8208,487.6403,504.668,485.5625,505.603,483.5199,506.2354,481.3562,507.2917,479.362,507.4276,479.4979,506.3036,480.0406,505.5764,480.9801,504.8977,481.968,503.9373,482.6743,503.125,483.5286,503.1418,483.5454,502.2838,482.6875,501.5022,481.9058,500.6837,481.0874,499.9355,480.3391,498.9583,479.362" style="stroke:#333333;stroke-width:1.0416666666666667;"/><path d="M503.125,322.7376 L503.2223,322.7376 L502.9332,329.0755 L503.2145,335.4134 L503.31,341.7513 L502.7947,348.0892 L503.125,354.4271 " fill="#333333" style="stroke:#333333;stroke-width:3.125;"/><polygon fill="#333333" points="498.9583,344.0104,499.0261,344.0375,499.6581,346.0403,500.6873,348.202,501.5872,350.312,502.0617,352.2518,503.125,354.4271,503.0999,354.4171,503.8208,352.2888,504.668,350.211,505.603,348.1683,506.2354,346.0046,507.2917,344.0104,507.4276,344.1463,506.3036,344.689,505.5764,345.6285,504.8977,346.6165,503.9373,347.3227,503.125,348.1771,503.1418,348.1938,502.2838,347.3359,501.5022,346.5542,500.6837,345.7358,499.9355,344.9876,498.9583,344.0104" style="stroke:#333333;stroke-width:1.0416666666666667;"/><path d="M503.125,222.819 L503.4169,222.819 L502.5496,233.2275 L503.3935,243.6361 L503.6801,254.0446 L502.1342,264.4531 L503.0171,274.8617 L503.125,285.2702 " fill="#333333" style="stroke:#333333;stroke-width:3.125;"/><polygon fill="#333333" points="498.9583,274.8535,499.0261,274.8806,499.6581,276.8834,500.6873,279.0451,501.5872,281.1551,502.0617,283.0949,503.125,285.2702,503.0999,285.2602,503.8208,283.1319,504.668,281.0541,505.603,279.0114,506.2354,276.8477,507.2917,274.8535,507.4276,274.9894,506.3036,275.5321,505.5764,276.4716,504.8977,277.4596,503.9373,278.1658,503.125,279.0202,503.1418,279.0369,502.2838,278.179,501.5022,277.3973,500.6837,276.5789,499.9355,275.8306,498.9583,274.8535" style="stroke:#333333;stroke-width:1.0416666666666667;"/><path d="M503.125,573.112 L503.2223,573.112 L502.9332,579.3587 L503.2145,585.6055 L503.31,591.8522 L502.7947,598.099 L503.125,604.3457 " fill="#333333" style="stroke:#333333;stroke-width:3.125;"/><polygon fill="#333333" points="498.9583,593.929,499.0261,593.9561,499.6581,595.9589,500.6873,598.1206,501.5872,600.2306,502.0617,602.1704,503.125,604.3457,503.0999,604.3357,503.8208,602.2074,504.668,600.1296,505.603,598.0869,506.2354,595.9232,507.2917,593.929,507.4276,594.065,506.3036,594.6076,505.5764,595.5471,504.8977,596.5351,503.9373,597.2413,503.125,598.0957,503.1418,598.1125,502.2838,597.2545,501.5022,596.4729,500.6837,595.6544,499.9355,594.9062,498.9583,593.929" style="stroke:#333333;stroke-width:1.0416666666666667;"/><path d="M566.6667,560.612 L566.6667,560.9039 L576.9097,560.0365 L587.1528,560.8804 L597.3958,561.1671 L607.6389,559.6212 L617.8819,560.504 L628.125,560.0196 L638.3681,560.0793 L648.6111,560.5173 L658.8542,559.6517 L669.0972,561.3809 L679.3403,559.7366 L689.5833,560.612 " fill="#333333" style="stroke:#333333;stroke-width:3.125;"/><polygon fill="#333333" points="685.4167,617.8711,685.4844,617.8982,686.1164,619.901,687.1456,622.0627,688.0455,624.1726,688.52,626.1124,689.5833,628.2878,689.5583,628.2777,690.2792,626.1494,691.1264,624.0716,692.0614,622.029,692.6938,619.8653,693.75,617.8711,693.8859,618.007,692.7619,618.5497,692.0348,619.4892,691.3561,620.4771,690.3956,621.1834,689.5833,622.0378,689.6001,622.0545,688.7422,621.1966,687.9605,620.4149,687.142,619.5965,686.3938,618.8482,685.4167,617.8711" style="stroke:#333333;stroke-width:3.125;"/><path d="M689.5833,560.612 L689.8753,560.612 L689.0079,571.0242 L689.8518,581.4364 L690.1384,591.8487 L688.5925,602.2609 L689.4754,612.6731 L688.991,623.0853 L689.0507,633.4976 L689.4887,643.9098 L688.6231,654.322 L690.3523,664.7343 L689.5833,675.1465 " fill="#333333" style="stroke:#333333;stroke-width:3.125;"/><path d="M689.5833,675.1465 L689.5833,675.4384 L679.3505,674.571 L669.1176,675.4149 L658.8848,675.7016 L648.652,674.1557 L638.4191,675.0385 L628.1863,674.5541 L617.9534,674.6138 L607.7206,675.0518 L597.4877,674.1862 L587.2549,675.9154 L577.0221,674.2711 L566.7892,674.8718 L556.5564,675.7464 L546.3235,675.0274 L536.0907,675.2413 L525.8578,675.1021 L515.625,675.1465 " fill="#333333" style="stroke:#333333;stroke-width:3.125;"/><polygon fill="#333333" points="526.0417,670.9798,526.0688,671.0476,523.9049,671.6796,521.8999,672.7088,519.8432,673.6087,517.6163,674.0832,515.625,675.1465,515.615,675.1214,517.6533,675.8423,519.7422,676.6895,521.8662,677.6245,523.8692,678.2569,526.0417,679.3132,526.1776,679.4491,525.0536,678.3251,524.3264,677.5979,523.6477,676.9192,522.6873,675.9588,521.875,675.1465,521.8918,675.1632,522.7005,674.3053,523.5855,673.5236,524.4337,672.7052,525.3521,671.957,526.0417,670.9798" style="stroke:#333333;stroke-width:1.0416666666666667;"/><path d="M503.125,641.8132 L503.2223,641.8132 L502.9332,645.9798 L503.2145,650.1465 L503.31,654.3132 L502.7947,658.4798 L503.125,662.6465 " fill="#333333" style="stroke:#333333;stroke-width:3.125;"/><polygon fill="#333333" points="498.9583,652.2298,499.0261,652.2569,499.6581,654.2597,500.6873,656.4214,501.5872,658.5314,502.0617,660.4712,503.125,662.6465,503.0999,662.6365,503.8208,660.5082,504.668,658.4304,505.603,656.3877,506.2354,654.224,507.2917,652.2298,507.4276,652.3657,506.3036,652.9084,505.5764,653.8479,504.8977,654.8359,503.9373,655.5421,503.125,656.3965,503.1418,656.4132,502.2838,655.5553,501.5022,654.7736,500.6837,653.9552,499.9355,653.207,498.9583,652.2298" style="stroke:#333333;stroke-width:1.0416666666666667;"/><path d="M503.125,514.7786 L503.2223,514.7786 L502.9332,521.4453 L503.2145,528.112 L503.31,534.7786 L502.7947,541.4453 L503.125,548.112 " fill="#333333" style="stroke:#333333;stroke-width:3.125;"/><polygon fill="#333333" points="498.9583,537.6953,499.0261,537.7224,499.6581,539.7252,500.6873,541.8869,501.5872,543.9969,502.0617,545.9366,503.125,548.112,503.0999,548.102,503.8208,545.9736,504.668,543.8959,505.603,541.8532,506.2354,539.6895,507.2917,537.6953,507.4276,537.8312,506.3036,538.3739,505.5764,539.3134,504.8977,540.3014,503.9373,541.0076,503.125,541.862,503.1418,541.8787,502.2838,541.0208,501.5022,540.2391,500.6837,539.4207,499.9355,538.6724,498.9583,537.6953" style="stroke:#333333;stroke-width:1.0416666666666667;"/><path d="M503.125,687.6465 L503.2223,687.6465 L502.9332,692.4316 L503.2145,697.2168 L503.31,702.002 L502.7947,706.7871 L503.125,711.5723 " fill="#333333" style="stroke:#333333;stroke-width:3.125;"/><polygon fill="#333333" points="498.9583,701.1556,499.0261,701.1827,499.6581,703.1855,500.6873,705.3472,501.5872,707.4571,502.0617,709.3969,503.125,711.5723,503.0999,711.5622,503.8208,709.4339,504.668,707.3561,505.603,705.3135,506.2354,703.1498,507.2917,701.1556,507.4276,701.2915,506.3036,701.8342,505.5764,702.7737,504.8977,703.7617,503.9373,704.4679,503.125,705.3223,503.1418,705.339,502.2838,704.4811,501.5022,703.6994,500.6837,702.881,499.9355,702.1327,498.9583,701.1556" style="stroke:#333333;stroke-width:1.0416666666666667;"/><path d="M503.125,749.0397 L503.2223,749.0397 L502.9332,755.9082 L503.2145,762.7767 L503.31,769.6452 L502.7947,776.5137 L503.125,783.3822 " fill="#333333" style="stroke:#333333;stroke-width:3.125;"/><polygon fill="#333333" points="498.9583,772.9655,499.0261,772.9926,499.6581,774.9954,500.6873,777.1571,501.5872,779.267,502.0617,781.2068,503.125,783.3822,503.0999,783.3721,503.8208,781.2438,504.668,779.166,505.603,777.1234,506.2354,774.9597,507.2917,772.9655,507.4276,773.1014,506.3036,773.6441,505.5764,774.5836,504.8977,775.5715,503.9373,776.2778,503.125,777.1322,503.1418,777.1489,502.2838,776.291,501.5022,775.5093,500.6837,774.6909,499.9355,773.9426,498.9583,772.9655" style="stroke:#333333;stroke-width:1.0416666666666667;"/><path d="M503.125,77.0833 L503.4169,77.0833 L502.5496,87.0768 L503.3935,97.0703 L503.6801,107.0638 L502.1342,117.0573 L503.125,127.0508 " fill="#333333" style="stroke:#333333;stroke-width:3.125;"/><polygon fill="#333333" points="498.9583,116.6341,499.0261,116.6612,499.6581,118.664,500.6873,120.8257,501.5872,122.9357,502.0617,124.8755,503.125,127.0508,503.0999,127.0408,503.8208,124.9124,504.668,122.8347,505.603,120.792,506.2354,118.6283,507.2917,116.6341,507.4276,116.77,506.3036,117.3127,505.5764,118.2522,504.8977,119.2402,503.9373,119.9464,503.125,120.8008,503.1418,120.8175,502.2838,119.9596,501.5022,119.1779,500.6837,118.3595,499.9355,117.6112,498.9583,116.6341" style="stroke:#333333;stroke-width:1.0416666666666667;"/><path d="M503.125,820.8496 L503.2223,820.8496 L502.9332,822.9329 L503.2145,825.0163 L503.31,827.0996 L502.7947,829.1829 L503.125,831.2663 " fill="#333333" style="stroke:#333333;stroke-width:3.125;"/><path d="M503.125,831.2663 L503.125,831.5582 L513.3854,830.6908 L523.6458,831.5347 L533.9063,831.8214 L544.1667,830.2754 L554.4271,831.1583 L564.6875,830.6739 L574.9479,830.7336 L585.2083,831.1716 L595.4688,830.306 L605.7292,832.0352 L615.9896,830.3909 L626.25,830.9916 L636.5104,831.8662 L646.7708,831.1471 L657.0313,831.3611 L667.2917,831.2219 L677.5521,831.5142 L687.8125,831.5984 L698.0729,832.0797 L708.3333,831.2663 " fill="#333333" style="stroke:#333333;stroke-width:3.125;"/><polygon fill="#333333" points="704.1667,476.2695,704.2344,476.2966,704.8664,474.1328,705.8956,472.1278,706.7955,470.0711,707.27,467.8442,708.3333,465.8529,708.3083,465.8428,709.0292,467.8812,709.8764,469.9701,710.8114,472.0941,711.4438,474.097,712.5,476.2695,712.6359,476.4055,711.5119,475.2814,710.7848,474.5543,710.1061,473.8756,709.1456,472.9151,708.3333,472.1029,708.3501,472.1196,707.4922,472.9284,706.7105,473.8134,705.892,474.6616,705.1438,475.58,704.1667,476.2695" style="stroke:#333333;stroke-width:3.125;"/><path d="M708.3333,64.5833 L708.6253,64.5833 L707.7579,74.9439 L708.6018,85.3045 L708.8884,95.6651 L707.3425,106.0257 L708.2254,116.3862 L707.741,126.7468 L707.8007,137.1074 L708.2387,147.468 L707.3731,157.8286 L709.1023,168.1891 L707.4579,178.5497 L708.0587,188.9103 L708.9333,199.2709 L708.2142,209.6315 L708.4281,219.992 L708.289,230.3526 L708.5813,240.7132 L708.6655,251.0738 L709.1468,261.4344 L709.2654,271.7949 L709.2767,282.1555 L708.687,292.5161 L708.9772,302.8767 L709.3087,313.2373 L707.3317,323.5978 L709.2757,333.9584 L707.9215,344.319 L709.0747,354.6796 L707.6458,365.0402 L708.2382,375.4007 L709.3633,385.7613 L708.2656,396.1219 L708.4796,406.4825 L708.8036,416.8431 L708.9114,427.2036 L708.3279,437.5642 L708.7322,447.9248 L707.5383,458.2854 L708.7283,468.646 L709.0947,479.0065 L708.9507,489.3671 L709.1848,499.7277 L707.6624,510.0883 L707.4275,520.4489 L707.4703,530.8094 L708.2516,541.17 L708.0604,551.5306 L709.2797,561.8912 L708.0907,572.2518 L707.8569,582.6123 L708.6504,592.9729 L707.4072,603.3335 L707.6123,613.6941 L709.2347,624.0547 L708.9384,634.4153 L709.3535,644.7758 L707.8864,655.1364 L708.7767,665.497 L709.1534,675.8576 L707.6772,686.2182 L708.2002,696.5787 L708.5083,706.9393 L709.2386,717.2999 L708.3275,727.6605 L708.9758,738.0211 L707.5642,748.3816 L707.3927,758.7422 L709.0328,769.1028 L707.3376,779.4634 L709.0402,789.824 L708.6203,800.1845 L707.9612,810.5451 L707.842,820.9057 L708.3333,831.2663 " fill="#333333" style="stroke:#333333;stroke-width:3.125;"/><path d="M708.3333,64.5833 L708.3333,64.8753 L697.5379,64.0079 L686.7424,64.8518 L675.947,65.1384 L665.1515,63.5925 L654.3561,64.4754 L643.5606,63.991 L632.7652,64.0507 L621.9697,64.4887 L611.1742,63.6231 L600.3788,65.3523 L589.5833,64.5833 " fill="#333333" style="stroke:#333333;stroke-width:3.125;"/><polygon fill="#333333" points="600,60.4167,600.0271,60.4844,597.8632,61.1164,595.8583,62.1456,593.8015,63.0455,591.5747,63.52,589.5833,64.5833,589.5733,64.5583,591.6117,65.2792,593.7005,66.1264,595.8245,67.0614,597.8275,67.6938,600,68.75,600.1359,68.8859,599.0119,67.7619,598.2848,67.0348,597.6061,66.3561,596.6456,65.3956,595.8333,64.5833,595.8501,64.6001,596.6588,63.7422,597.5438,62.9605,598.392,62.142,599.3105,61.3938,600,60.4167" style="stroke:#333333;stroke-width:1.0416666666666667;"/><path d="M416.6667,64.5833 L416.6667,64.8753 L406.3596,64.0079 L396.0526,64.8518 L385.7456,65.1384 L375.4386,63.5925 L365.1316,64.4754 L354.8246,63.991 L344.5175,64.0507 L334.2105,64.4887 L323.9035,63.6231 L313.5965,65.3523 L303.2895,63.7079 L292.9825,64.3087 L282.6754,65.1833 L272.3684,64.4642 L262.0614,64.6781 L251.7544,64.539 L241.4474,64.8313 L231.1404,64.9155 L220.8333,65.3968 L210.5263,65.5154 L200.2193,65.5267 L189.9123,64.937 L179.6053,65.2272 L169.2982,65.5587 L158.9912,63.5817 L148.6842,65.5257 L138.3772,64.1715 L128.0702,65.3247 L117.7632,63.8958 L107.4561,64.4882 L97.1491,65.6133 L86.8421,64.5156 L76.5351,64.7296 L66.2281,65.0536 L55.9211,65.1614 L45.614,64.5779 L35.307,64.9822 L25,64.5833 " fill="#333333" style="stroke:#333333;stroke-width:3.125;"/><path d="M25,64.5833 L25.0973,64.5833 L24.8082,72.0833 L25.0895,79.5833 L25.185,87.0833 L24.6697,94.5833 L25,102.0833 " fill="#333333" style="stroke:#333333;stroke-width:3.125;"/><polygon fill="#333333" points="20.8333,91.6667,20.9011,91.6938,21.5331,93.6966,22.5623,95.8583,23.4622,97.9682,23.9367,99.908,25,102.0833,24.9749,102.0733,25.6958,99.945,26.543,97.8672,27.478,95.8245,28.1104,93.6608,29.1667,91.6667,29.3026,91.8026,28.1786,92.3453,27.4514,93.2848,26.7727,94.2727,25.8123,94.9789,25,95.8333,25.0168,95.8501,24.1588,94.9922,23.3772,94.2105,22.5587,93.392,21.8105,92.6438,20.8333,91.6667" style="stroke:#333333;stroke-width:1.0416666666666667;"/><path d="M503.125,31.25 L503.2223,31.25 L502.9332,35.4167 L503.2145,39.5833 L503.31,43.75 L502.7947,47.9167 L503.125,52.0833 " fill="#333333" style="stroke:#333333;stroke-width:3.125;"/><polygon fill="#333333" points="498.9583,41.6667,499.0261,41.6938,499.6581,43.6966,500.6873,45.8583,501.5872,47.9682,502.0617,49.908,503.125,52.0833,503.0999,52.0733,503.8208,49.945,504.668,47.8672,505.603,45.8245,506.2354,43.6608,507.2917,41.6667,507.4276,41.8026,506.3036,42.3453,505.5764,43.2848,504.8977,44.2727,503.9373,44.9789,503.125,45.8333,503.1418,45.8501,502.2838,44.9922,501.5022,44.2105,500.6837,43.392,499.9355,42.6438,498.9583,41.6667" style="stroke:#333333;stroke-width:1.0416666666666667;"/><!--SRC=[RLDRJnf157wVNp6r3nMAlJs2iObj-bHjKbzCcZvisK4sBZjaTz0GO-85L1IAZTOgjHSDNk8DRHCB0VNFxCmk_w9d65JQk0-Rp9nllk-SxvnpZyL9Wc1dbB1eFDr3KymqB8ASKSDAQhQMm3g9QIcJlQ8M6zG0sTM5UXsMDaaVqcaqbI0MmnC8OzolHKT7R9goz1VKf3OUZnkCe4caHPanPh3qIqCRaOGjC7w0RnZV98cjCMeFK8iE3ILw1eXkf18j5AJ036PGg_rAVc-LX6qH6pzzqhgURFqjoaW7JYceNFfDIAuZyXfgL951RIpT4VY_Y3GnJJhU5fb4lO_RfJiCCaDGeabmjrYRT-ldOc7DlrpXsHsnNk7Bks8pvs_bUR7YL-e1R3W0Mwy4K1YElBZcLgTaT2xBJseXRw_Ut2ZpxBaeRCEjTxGRGM6nUiaNJi41neXjOIUfHGd-a8h5YErMZoEeLQr9OWmvHCUydF6Mv_ohUMz_2S90pxDdaC8pjtgW7eKGB-xoibI6Eruyn75gweeN4KjlsOTk3RzlaWIred4Z5eDJRrJQ4QQsPeqGc-XzmQ0JjOqa4xazI1c_0orUBadcqpDr1qTnjEMTrTr6GnplD0_AxuF1YOwy_QkDvdpUAsN4Ii6zs6pENaZdAZLqLyr8GPLZ_jLNwLCf4qBYzxx85CDAUrZP8BwSX_ZbWlH-zW9K878tfzJxyykh5_tjGxUwgAmPTgzEn6fDUWa2_bJUhHO0A3QdU6EAxot1xKth7jqw5zPqtSRDWxnVcOuW8uQx5KHD0y_Ncjd2ym26TRDmTveuC0hAfs5LVZUawzPtRdmCH10n7PWkYmQaYX63-PEqFHRcnHdn-RGzP_bvVbAw9fPWu5tXXTExAkuq4J_4_ECFyMr7ZP_im-tuIMcLfP8EyuMV0BgByuQmSoRvxepulZaiVQki-fUpNgucJXQbHXvsfImxz6zBLBF0QhTHujCb9QUS2S6ah8ClgZstKulRRneb22ee1ZMGZeT6lECS_tG1Kfqjkjwz9RL-4Hbgxp0u6O2jfic_]--></g></svg>