<?xml version="1.0" encoding="us-ascii" standalone="no"?><svg xmlns="http://www.w3.org/2000/svg" xmlns:xlink="http://www.w3.org/1999/xlink" contentStyleType="text/css" height="941.6667px" preserveAspectRatio="none" style="width:895px;height:941px;background:#FFFFFF;" version="1.1" viewBox="0 0 895 941" width="895.8333px" zoomAndPan="magnify"><defs/><g><polygon fill="#17A2B8" points="626.62,23.3671,625.0931,25.4534,623.2871,28.5092,620.7042,30.5686,617.9899,31.6947,615.8258,31.7924,613.0442,30.384,610.4197,29.4639,608.4276,27.5958,607.3826,25.4572,606.7629,23.7543,606.1558,21.53,605.1704,19.616,605.9277,17.7472,606.5911,15.7,609.0808,14.0809,610.8324,11.9802,613.0004,11.2826,615.5778,10.6819,618.883,11.0388,620.6933,11.8925,622.798,12.2795,625.3572,14.9015,626.2493,17.6695,626.6369,19.5581,626.1979,22.6703" style="stroke:#2E2E2E;stroke-width:1.0416666666666667;"/><polygon fill="none" points="506.25,138.3708,506.25,138.5897,516.7163,137.9392,527.1825,138.5721,537.6488,138.7871,548.1151,137.6276,558.5813,138.2898,569.0476,137.9265,579.5139,137.9713,589.9802,138.2998,600.4464,137.6506,610.9127,138.9475,621.379,137.7142,631.8452,138.1648,642.3115,138.8207,652.7778,138.2814,663.244,138.4418,673.7103,138.3375,684.1766,138.5567,694.6429,138.6199,705.1091,138.9809,715.5754,139.0698,726.0417,138.3708,726.1319,138.5887,726.6648,138.6965,727.2818,139.0076,727.9027,139.3283,728.3029,139.1157,728.9879,139.5912,729.2056,139.6813,729.1369,140.141,729.6473,140.8406,729.5614,141.2931,729.9423,141.9391,730.2083,142.5374,730.4658,142.5374,730.1914,149.3343,730.2449,156.1312,730.3259,162.9281,730.3529,169.7249,730.2083,176.5218,730.2071,176.5213,730.0564,177.1492,729.5366,177.6243,729.5673,178.3274,729.4079,178.9517,728.9879,179.4681,729.047,179.6107,728.4801,179.9088,727.7452,179.8013,727.1335,179.9911,726.5484,180.2451,726.0417,180.6885,726.0417,180.6271,715.5754,180.4838,705.1091,181.3983,694.6429,180.5065,684.1766,180.3311,673.7103,180.9263,663.244,179.9939,652.7778,180.1477,642.3115,181.3645,631.8452,181.1423,621.379,181.4536,610.9127,180.3533,600.4464,181.021,589.9802,181.3035,579.5139,180.1964,569.0476,180.5886,558.5813,180.8197,548.1151,181.3674,537.6488,180.6841,527.1825,181.1703,516.7163,180.1116,506.25,180.6885,506.16,180.4712,505.7277,180.606,504.9762,179.9703,504.5499,180.1195,503.9204,179.7785,503.3037,179.4681,503.2178,179.4325,502.9462,178.8318,502.9627,178.3505,502.4755,177.6605,502.5173,177.1897,502.0833,176.5218,501.8914,176.5218,502.2977,169.7249,502.2515,162.9281,502.1684,156.1312,502.0997,149.3343,502.0833,142.5374,502.3164,142.634,502.5242,142.0297,502.6258,141.3814,502.9016,140.8053,503.0179,140.1631,503.3037,139.5912,503.3989,139.821,503.9136,139.3968,504.5052,139.1584,504.9907,138.6638,505.6069,138.4849,506.25,138.3708" style="stroke:#333333;stroke-width:1.0416666666666667;"/><text fill="#2E2E2E" font-family="" font-size="16.6667" lengthAdjust="spacing" textLength="205.2083" x="513.5417" y="165.2995">&#35835;&#21462;&#19968;&#34892;&#20869;&#23481;,&#31227;&#38500;&#20854;&#25442;&#34892;&#31526;</text><path d="M190.1042,192.863 L190.688,192.863 L188.9533,202.8022 L190.6411,212.7414 L191.2144,222.6807 L188.1225,232.6199 L189.8883,242.5591 L190.1042,252.4984 L190.1042,252.4984 L190.1042,251.3137 L200.5594,251.4331 L211.0147,252.309 L221.4699,250.5779 L231.9252,254.0363 L242.3804,250.7476 L252.8356,251.949 L263.2909,253.6982 L273.7461,252.2601 L284.2014,252.6879 L294.6566,252.4096 L305.1119,252.9943 L315.5671,253.1626 L326.0224,254.1253 L336.4776,254.3624 L346.9329,254.3852 L357.3881,253.2057 L367.8434,253.7861 L378.2986,254.449 L388.7539,250.4951 L399.2091,254.3831 L409.6644,251.6748 L420.1196,253.9812 L430.5748,251.1233 L441.0301,252.3081 L451.4853,254.5584 L461.9406,252.363 L472.3958,252.4984 L472.3958,252.4984 L472.4933,252.4984 L472.7094,247.3682 L472.7812,242.238 L472.3922,237.1077 L472.6618,231.9775 L472.3958,226.8473 L472.2919,226.3276 L476.6141,226.2722 L480.8287,225.6784 L484.9766,224.7509 L489.1738,224.0706 L493.2292,222.6807 L493.1414,222.2421 L488.9441,221.2552 L484.783,220.4498 L480.7185,220.1272 L476.5268,219.1689 L472.3958,218.514 L473.0268,218.514 L472.2341,215.4671 L472.0782,212.4202 L472.6072,209.3734 L471.7784,206.3265 L472.3958,203.2796 L472.0559,202.9397 L470.7374,201.6212 L468.5144,199.3982 L466.6267,197.5105 L463.8518,194.7356 L461.9792,192.863 L461.9792,193.7496 L451.5224,194.503 L441.0657,191.5507 L430.609,192.5967 L420.1522,193.2129 L409.6955,194.6734 L399.2388,192.8513 L388.7821,194.1479 L378.3253,191.3247 L367.8686,190.9817 L357.4119,194.2619 L346.9551,190.8715 L336.4984,194.2767 L326.0417,193.4369 L315.5849,192.1187 L305.1282,191.8803 L294.6715,194.1373 L284.2147,192.0315 L273.758,194.507 L263.3013,191.3276 L252.8446,194.578 L242.3878,194.2082 L231.9311,193.5434 L221.4744,192.9941 L211.0176,194.8813 L200.5609,194.5673 L190.1042,192.863 L190.1042,192.863 " fill="#17A2B8" style="stroke:#1592A6;stroke-width:1.0416666666666667;"/><path d="M461.9792,192.863 L462.1738,192.863 L461.5955,194.9463 L462.1581,197.0296 L462.3492,199.113 L461.3186,201.1963 L461.9792,203.2796 L461.9792,203.2077 L464.0625,202.8847 L466.1458,202.9245 L468.2292,203.2165 L470.3125,202.6395 L472.3958,203.2796 L472.7583,203.6421 L469.8998,200.7836 L468.0997,198.9835 L466.4286,197.3124 L464.0063,194.8901 L461.9792,192.863 " fill="#17A2B8" style="stroke:#1592A6;stroke-width:1.0416666666666667;"/><text fill="#FFFFFF" font-family="" font-size="16.6667" lengthAdjust="spacing" textLength="250" x="201.5625" y="218.75">sed &#22788;&#29702;&#36807;&#31243;&#20013;&#19968;&#20849;&#26377;2&#20010;buffer,</text><text fill="#FFFFFF" font-family="" font-size="16.6667" lengthAdjust="spacing" textLength="176.0417" x="201.5625" y="238.151">&#21478;&#22806;&#19968;&#20010;&#21483; hold space</text><polygon fill="none" points="497.3958,201.5218,497.3958,201.7407,507.7219,201.0902,518.048,201.7231,528.3741,201.9381,538.7002,200.7787,549.0263,201.4409,559.3524,201.0775,569.6784,201.1223,580.0045,201.4508,590.3306,200.8016,600.6567,202.0985,610.9828,200.8653,621.3089,201.3158,631.635,201.9718,641.9611,201.4325,652.2871,201.5929,662.6132,201.4885,672.9393,201.7078,683.2654,201.7709,693.5915,202.1319,703.9176,202.2208,714.2437,202.2294,724.5697,201.787,734.8958,201.5218,734.9574,201.6705,735.5784,201.9912,735.9785,201.7786,736.7538,202.4717,737.2135,202.403,737.8421,202.7422,738.0134,202.8131,737.9274,203.2657,738.3083,203.9116,738.8122,204.6085,738.8028,205.0927,739.0625,205.6885,739.0991,205.6885,739.1801,212.4854,739.207,219.2822,739.0611,226.0791,739.1622,232.876,739.0625,239.6729,738.8789,239.5968,738.9097,240.2999,738.7502,240.9242,738.4729,241.4997,738.2828,242.1113,737.8421,242.6191,737.7779,242.4642,737.1662,242.654,736.581,242.9079,736.0665,243.3325,735.459,243.5324,734.8958,243.8395,734.8958,244.5493,724.5697,243.6576,714.2437,243.4822,703.9176,244.0773,693.5915,243.1449,683.2654,243.2988,672.9393,244.5155,662.6132,244.2933,652.2871,244.6046,641.9611,243.5043,631.635,244.172,621.3089,244.4545,610.9828,243.3474,600.6567,243.7397,590.3306,243.9708,580.0045,244.5184,569.6784,243.8352,559.3524,244.3214,549.0263,243.2627,538.7002,243.134,528.3741,244.3641,518.048,243.0927,507.7219,244.3697,497.3958,243.8395,497.4233,243.9058,496.771,243.5095,496.1703,243.2379,495.689,243.2545,494.999,242.7672,494.4496,242.6191,494.6394,242.6978,494.0282,241.9564,494.1595,241.5227,493.8727,240.9157,493.5518,240.2947,493.2292,239.6729,493.2456,239.6729,493.4815,232.876,493.4422,226.0791,493.2879,219.2822,493.3223,212.4854,493.2292,205.6885,493.1874,205.6712,493.7031,205.1944,493.767,204.5305,494.0168,203.9436,494.0103,203.2506,494.4496,202.7422,494.3957,202.6122,495.1093,202.6684,495.6852,202.3919,496.2116,201.9962,496.7638,201.6625,497.3958,201.5218" style="stroke:#333333;stroke-width:1.0416666666666667;"/><text fill="#2E2E2E" font-family="" font-size="16.6667" lengthAdjust="spacing" textLength="222.9167" x="504.6875" y="228.4505">&#25918;&#21040; pattern space buffer&#20013;</text><polygon fill="#FFFACD" points="77.0833,262.915,77.0833,263.134,87.4837,262.4835,97.8841,263.1164,108.2845,263.3314,118.6849,262.1719,129.0853,262.8341,139.4857,262.4708,149.8861,262.5156,160.2865,262.844,170.6868,262.1949,181.0872,263.4917,191.4876,262.2585,201.888,262.709,212.2884,263.365,222.6888,262.8257,233.0892,262.9861,243.4896,262.8818,253.89,263.101,264.2904,263.1641,274.6908,263.5251,285.0911,263.6141,295.4915,263.6226,305.8919,263.1803,316.2923,263.3979,326.6927,263.6465,337.0931,262.1638,347.4935,263.6218,357.8939,262.6062,368.2943,263.4711,378.6947,262.3994,389.0951,262.8437,399.4954,263.6875,409.8958,262.8643,420.2962,263.0247,430.6966,263.2678,441.097,263.3486,451.4974,262.911,461.8978,263.2142,472.2982,262.3188,482.6986,263.2113,493.099,263.4861,503.4993,263.3781,513.8997,263.5536,524.3001,262.4118,534.7005,262.2357,545.1009,262.2677,555.5013,262.8537,565.9017,262.7103,576.3021,263.6248,586.7025,262.7331,597.1029,262.5577,607.5033,263.1528,617.9036,262.2204,628.304,262.3743,638.7044,263.591,649.1048,263.3689,659.5052,263.6801,669.9056,262.5798,680.306,263.2475,690.7064,263.5301,701.1068,262.4229,711.5072,262.8152,721.9076,263.0463,732.3079,263.594,742.7083,262.915,742.7078,262.9137,743.5064,263.3685,744.1079,263.3476,744.8281,263.6131,745.7215,264.297,746.3912,264.4405,746.1612,264.3453,746.8595,265.2447,747.0677,265.9411,747.2205,266.6146,747.4981,267.3398,747.9167,268.1234,748.3945,268.1234,747.6049,278.6882,748.5332,289.253,747.3409,299.8179,748.5598,310.3827,748.4211,320.9475,748.1718,331.5124,747.9659,342.0772,748.6736,352.6421,748.5558,363.2069,748.093,373.7717,748.196,384.3366,747.781,394.9014,748.663,405.4662,748.078,416.0311,748.0964,426.5959,747.283,437.1607,747.4946,447.7256,748.4695,458.2904,748.3643,468.8552,747.8719,479.4201,747.5811,489.9849,747.6886,500.5497,747.2019,511.1146,748.3487,521.6794,748.687,532.2442,748.465,542.8091,748.6406,553.3739,747.7742,563.9387,747.9167,574.5036,747.9446,574.5152,747.4872,575.1886,747.3976,576.0145,747.0805,576.7461,746.8735,577.5233,746.3912,578.1864,746.3607,578.1128,745.6368,578.4484,744.977,578.9389,744.2569,579.2837,743.3768,579.2424,742.7083,579.7119,742.7083,579.51,732.3079,579.8674,721.9076,579.0756,711.5072,580.08,701.1068,579.9807,690.7064,579.607,680.306,579.8601,669.9056,580.471,659.5052,579.386,649.1048,580.04,638.7044,580.0095,628.304,579.8325,617.9036,579.8587,607.5033,579.8301,597.1029,579.0618,586.7025,579.2944,576.3021,579.2311,565.9017,579.7784,555.5013,579.8037,545.1009,579.8804,534.7005,579.4088,524.3001,579.6416,513.8997,579.5867,503.4993,580.3128,493.099,580.1563,482.6986,579.2062,472.2982,579.636,461.8978,579.1106,451.4974,580.0123,441.097,580.3458,430.6966,580.2792,420.2962,579.2582,409.8958,580.1952,399.4954,578.9382,389.0951,579.9204,378.6947,579.4001,368.2943,579.8127,357.8939,579.9623,347.4935,580.2037,337.0931,578.962,326.6927,580.2072,316.2923,579.8975,305.8919,580.082,295.4915,580.4909,285.0911,579.7176,274.6908,579.8945,264.2904,579.9342,253.89,579.9174,243.4896,579.7111,233.0892,580.4522,222.6888,579.0768,212.2884,580.3007,201.888,579.0619,191.4876,579.1491,181.0872,579.7536,170.6868,579.7414,160.2865,579.1986,149.8861,580.1429,139.4857,579.8253,129.0853,580.4689,118.6849,580.4068,108.2845,579.245,97.8841,579.2974,87.4837,579.5774,77.0833,579.7119,77.1306,579.826,76.4003,579.5361,75.6502,579.1983,74.8282,578.6869,74.2216,578.6957,73.4005,578.1864,73.6038,578.2706,73.0802,577.4436,72.7136,576.6815,72.3564,575.9234,72.1113,575.2116,71.875,574.5036,72.0181,574.5036,71.8038,563.9387,71.4398,553.3739,72.3827,542.8091,71.3969,532.2442,72.3983,521.6794,72.32,511.1146,72.2624,500.5497,72.5964,489.9849,71.6189,479.4201,71.5618,468.8552,72.4155,458.2904,71.2532,447.7256,71.6313,437.1607,71.9953,426.5959,71.9465,416.0311,71.5016,405.4662,71.8302,394.9014,72.6506,384.3366,72.5505,373.7717,71.2539,363.2069,71.9568,352.6421,71.3397,342.0772,71.8476,331.5124,72.1802,320.9475,72.3124,310.3827,71.1826,299.8179,72.2922,289.253,71.8838,278.6882,71.875,268.1234,71.6969,268.0496,72.029,267.3242,72.59,266.6936,72.8704,265.9469,73.0901,265.1749,73.4005,264.4405,73.3112,264.2249,74.2245,264.3466,74.8322,263.7303,75.54,263.3558,76.3378,263.1985,77.0833,262.915" style="stroke:#333333;stroke-width:1.0416666666666667;"/><path d="M400,262.915 L400.1946,262.915 L399.6164,267.4202 L400.179,271.9255 L400.3701,276.4307 L399.3394,280.9359 L400,285.4411 L399.9491,285.3902 L397.6374,287.2452 L395.5822,289.3567 L393.7054,291.6465 L391.214,293.3218 L389.5833,295.8577 L389.5833,297.3956 L379.3347,294.107 L369.086,295.3084 L358.8374,297.0576 L348.5887,295.6195 L338.3401,296.0473 L328.0914,295.769 L317.8427,296.3537 L307.5941,296.522 L297.3454,297.4847 L287.0968,297.7218 L276.8481,297.7446 L266.5995,296.565 L256.3508,297.1455 L246.1022,297.8084 L235.8535,293.8545 L225.6048,297.7425 L215.3562,295.0341 L205.1075,297.3406 L194.8589,294.4827 L184.6102,295.6675 L174.3616,297.9178 L164.1129,295.7224 L153.8642,296.1503 L143.6156,296.7984 L133.3669,297.0139 L123.1183,295.8469 L112.8696,296.6556 L102.621,294.2677 L92.3723,296.6477 L82.1237,297.3805 L71.875,295.8577 " fill="none" style="stroke:#333333;stroke-width:1.0416666666666667;"/><text fill="#FF4500" font-family="" font-size="16.6667" font-weight="bold" lengthAdjust="spacing" textLength="307.2917" x="80.2083" y="284.6354">script&#25191;&#34892; [&#26377;&#22810;&#20010;&#23601;&#25191;&#34892;&#22810;&#27425;&#31867;&#20284;&#27493;&#39588;]</text><path d="M92.7083,371.7692 L93.2922,371.7692 L91.5574,382.3261 L93.2452,392.883 L93.8186,403.4399 L90.7267,413.9968 L92.4925,424.5537 L91.5236,435.1106 L91.6431,445.6674 L92.519,456.2243 L90.7879,466.7812 L94.2462,477.3381 L90.9576,487.895 L92.159,498.4519 L92.7083,509.0088 L92.7083,510.2086 L103.0716,508.7705 L113.4348,509.1983 L123.7981,508.92 L134.1613,509.5047 L144.5246,509.673 L154.8878,510.6357 L165.2511,510.8728 L175.6143,510.8956 L185.9776,509.7161 L196.3408,510.2965 L206.7041,510.9594 L217.0673,507.0055 L227.4306,510.8935 L237.7938,508.1852 L248.1571,510.4916 L258.5203,507.6337 L268.8835,508.8185 L279.2468,511.0688 L289.61,508.8734 L299.9733,509.3013 L310.3365,509.9494 L320.6998,510.165 L331.063,508.9979 L341.4263,509.8066 L351.7895,507.4187 L362.1528,509.7988 L372.516,510.5316 L382.8793,510.2436 L393.2425,510.7116 L403.6058,507.6669 L413.969,507.1972 L424.3323,507.2827 L434.6955,508.8452 L445.0588,508.4629 L455.422,510.9016 L465.7853,508.5236 L476.1485,508.0559 L486.5118,509.6429 L496.875,509.0088 L495.0227,509.0088 L495.433,498.4402 L498.6776,487.8716 L498.0852,477.3031 L498.9153,466.7345 L495.9811,456.1659 L497.7617,445.5973 L498.5151,435.0288 L495.5628,424.4602 L496.6087,413.8916 L497.225,403.323 L498.6854,392.7544 L496.875,382.1859 L496.8723,382.1831 L495.0945,380.4054 L492.3458,377.6566 L490.1816,375.4925 L488.8714,374.1823 L486.4583,371.7692 L486.4583,369.7777 L476.0965,373.183 L465.7346,372.3432 L455.3728,371.025 L445.011,370.7865 L434.6491,373.0435 L424.2873,370.9377 L413.9254,373.4133 L403.5636,370.2338 L393.2018,373.4843 L382.8399,373.1145 L372.4781,372.4497 L362.1162,371.9004 L351.7544,373.7876 L341.3925,373.4736 L331.0307,372.2394 L320.6689,372.5142 L310.307,371.4074 L299.9452,373.7593 L289.5833,372.1994 L279.2215,372.2486 L268.8596,370.0793 L258.4978,370.6436 L248.136,373.2435 L237.7741,372.963 L227.4123,371.65 L217.0504,370.8743 L206.6886,371.1611 L196.3268,369.8632 L185.9649,372.9213 L175.6031,373.8236 L165.2412,373.2314 L154.8794,373.6996 L144.5175,371.3894 L134.1557,372.0115 L123.7939,370.6926 L113.432,372.5582 L103.0702,372.4547 L92.7083,371.7692 " fill="#17A2B8" style="stroke:#1592A6;stroke-width:1.0416666666666667;"/><path d="M486.4583,371.7692 L486.6529,371.7692 L486.0747,373.8525 L486.6373,375.9359 L486.8284,378.0192 L485.7978,380.1025 L486.4583,382.1859 L486.4583,382.1139 L488.5417,381.791 L490.625,381.8308 L492.7083,382.1228 L494.7917,381.5457 L496.875,382.1859 L497.2375,382.5484 L494.379,379.6899 L492.5788,377.8897 L490.9078,376.2187 L488.4855,373.7964 L486.4583,371.7692 " fill="#17A2B8" style="stroke:#1592A6;stroke-width:1.0416666666666667;"/><text fill="#FFFFFF" font-family="" font-size="16.6667" lengthAdjust="spacing" textLength="133.3333" x="104.1667" y="397.6563">&#36825;&#37324;&#30340;&#25805;&#20316;&#37117;&#26159;&#23545;</text><text fill="#FFFFFF" font-family="" font-size="16.6667" lengthAdjust="spacing" textLength="167.7083" x="104.1667" y="417.0573">pattern space buffer</text><text fill="#FFFFFF" font-family="" font-size="16.6667" lengthAdjust="spacing" textLength="121.875" x="104.1667" y="436.4583">&#37324;&#30340;&#20869;&#23481;&#36827;&#34892;&#30340;,</text><text fill="#FFFFFF" font-family="" font-size="16.6667" lengthAdjust="spacing" textLength="221.875" x="104.1667" y="455.8594">&#27880;&#24847;:&#22810;&#20010;X&#22788;&#29702;&#26102;,&#24456;&#21487;&#33021;&#36825;&#20010;</text><text fill="#FFFFFF" font-family="" font-size="16.6667" lengthAdjust="spacing" textLength="167.7083" x="104.1667" y="475.2604">pattern space buffer</text><text fill="#FFFFFF" font-family="" font-size="16.6667" lengthAdjust="spacing" textLength="371.875" x="104.1667" y="494.6615">&#26159;&#24050;&#32463;&#34987;&#19978;&#19968;&#20010;X&#20462;&#25913;&#36807;&#30340;,&#32780;&#19981;&#26159;&#26368;&#24320;&#22987;&#30340;&#34892;&#20869;&#23481;.</text><polygon fill="none" points="570.8333,313.5661,570.8333,313.785,580.9028,313.1345,590.9722,313.7674,601.0417,313.9824,611.1111,312.823,621.1806,313.4851,631.25,313.1218,641.3194,313.1666,651.3889,313.4951,661.4583,313.5661,661.3665,313.3443,662.1212,313.9878,662.5531,313.852,663.1998,314.2349,663.8728,314.681,664.4046,314.7865,664.3771,314.7751,664.6706,315.3848,664.8825,315.9607,665.1941,316.578,665.4576,317.1753,665.625,317.7327,665.8284,317.7327,665.858,324.5296,665.8609,331.3265,665.7134,338.1234,665.786,344.9202,665.625,351.7171,665.8503,351.8104,665.1496,352.2105,665.3545,352.9858,664.7977,353.4455,664.8199,354.1451,664.4046,354.6634,664.3388,354.5046,663.8063,354.8855,663.3246,355.3895,662.6304,355.38,662.0616,355.6735,661.4583,355.8838,661.4583,356.2365,651.3889,356.3174,641.3194,355.8797,631.25,356.183,621.1806,355.2875,611.1111,356.18,601.0417,356.4548,590.9722,356.3468,580.9028,356.5224,570.8333,355.8838,570.7691,355.7288,570.1574,355.4305,569.5723,355.1963,569.0577,355.1327,568.4502,354.8444,567.8871,354.6634,568.1056,354.7539,567.5869,354.0509,567.2889,353.4393,567.228,352.926,566.6968,352.2178,566.6667,351.7171,566.4864,351.7171,566.892,344.9202,566.8179,338.1234,566.9217,331.3265,566.5549,324.5296,566.6667,317.7327,566.7691,317.7752,567.1001,317.2219,567.0033,316.4915,567.3681,315.9522,567.6834,315.3925,567.8871,314.7865,567.9737,314.9955,568.4758,314.541,569.127,314.4467,569.5812,313.8766,570.1541,313.5929,570.8333,313.5661" style="stroke:#333333;stroke-width:1.0416666666666667;"/><text fill="#2E2E2E" font-family="" font-size="16.6667" lengthAdjust="spacing" textLength="76.0417" x="578.125" y="340.4948">addr &#39564;&#35777;</text><polygon fill="none" points="521.875,455.8187,521.875,456.0376,532.3495,455.3871,542.8241,456.02,553.2986,456.235,563.7731,455.0756,574.2477,455.7377,584.7222,455.3744,595.1968,455.4192,605.6713,455.7477,616.1458,455.0985,626.6204,456.3954,637.0949,455.1621,647.5694,455.6127,658.044,456.2686,668.5185,455.7293,678.9931,455.8898,689.4676,455.7854,699.9421,456.0046,710.4167,455.8187,710.4484,455.8954,711.0837,456.2506,711.6843,456.5221,712.2747,456.7688,712.8075,456.8767,713.3629,457.0391,713.5117,457.1007,713.8323,457.7216,713.6198,458.1218,714.3128,458.897,714.2441,459.3567,714.5833,459.9854,714.7687,459.9854,714.4115,466.7822,714.5595,473.5791,714.8408,480.376,714.5664,487.1729,714.5833,493.9697,714.6171,493.9837,714.4479,494.604,714.2287,495.2035,713.8498,495.737,713.6992,496.3649,713.3629,496.916,713.2869,496.7324,712.8115,497.2513,712.2573,497.58,711.6542,497.7908,711.0874,498.089,710.4167,498.1364,710.4167,497.6332,699.9421,497.457,689.4676,497.4891,678.9931,498.0751,668.5185,497.9317,658.044,498.8462,647.5694,497.9544,637.0949,497.779,626.6204,498.3742,616.1458,497.4418,605.6713,497.5956,595.1968,498.8124,584.7222,498.5902,574.2477,498.9015,563.7731,497.8012,553.2986,498.4689,542.8241,498.7514,532.3495,497.6443,521.875,498.1364,521.8623,498.1056,521.3025,497.9327,520.7831,497.8573,520.1067,497.4028,519.5794,497.3085,518.9287,496.916,518.7511,496.8424,518.4674,496.2368,518.6021,495.8044,517.9665,495.053,518.1157,494.6266,517.7083,493.9697,517.7801,493.9697,517.6153,487.1729,517.5855,480.376,517.8676,473.5791,517.6044,466.7822,517.7083,459.9854,517.8982,460.064,517.7751,459.3226,518.3946,458.8889,518.5959,458.2819,518.7632,457.6609,518.9287,457.0391,518.935,457.0542,519.6145,457.0281,520.1888,456.7477,520.719,456.3611,521.3214,456.1488,521.875,455.8187" style="stroke:#333333;stroke-width:1.0416666666666667;"/><text fill="#2E2E2E" font-family="" font-size="16.6667" lengthAdjust="spacing" textLength="173.9583" x="529.1667" y="482.7474">&#25191;&#34892;X&#25805;&#20316;(&#21487;&#20197;&#26377;&#22810;&#20010;)</text><polygon fill="none" points="556.25,392.3421,556.25,392.5611,566.2326,391.9105,576.2153,392.5435,586.1979,392.7585,596.1806,391.599,606.1632,392.2612,616.1458,391.8979,626.1285,391.9426,636.1111,392.2711,646.0938,391.6219,656.0764,392.9188,666.059,391.6856,676.0417,392.3421,675.989,392.298,678.6566,395.4203,681.0188,398.2865,683.5598,401.3027,686.0332,404.2621,688.5417,407.251,688.5892,407.2908,686.1053,410.2861,683.6975,413.3452,681.2202,416.346,678.7224,419.3296,676.0417,422.1598,676.0417,422.4251,666.059,422.6427,656.0764,422.8913,646.0938,421.4086,636.1111,422.8666,626.1285,421.851,616.1458,422.7159,606.1632,421.6442,596.1806,422.0885,586.1979,422.9323,576.2153,422.1091,566.2326,422.2695,556.25,422.1598,556.3401,422.2354,553.8607,419.2709,551.249,416.1954,548.8264,413.2786,546.0977,410.105,543.75,407.251,543.8257,407.3144,546.3959,404.3915,548.8683,401.3866,551.4131,398.4424,553.6215,395.2161,556.25,392.3421" style="stroke:#4D4D4D;stroke-width:1.0416666666666667;"/><text fill="#2E2E2E" font-family="" font-size="16.6667" lengthAdjust="spacing" textLength="28.125" x="625.5208" y="442.8385">yes</text><text fill="#2E2E2E" font-family="" font-size="16.6667" lengthAdjust="spacing" textLength="109.375" x="561.4583" y="413.0208">&#20869;&#23481;&#26159;&#21542;&#21305;&#37197;?</text><text fill="#2E2E2E" font-family="" font-size="16.6667" lengthAdjust="spacing" textLength="20.8333" x="693.75" y="398.112">no</text><polygon fill="none" points="616.1458,542.2119,616.1974,542.2635,618.5441,544.6102,621.1933,547.2594,623.744,549.81,625.9707,552.0368,628.6458,554.7119,628.6268,554.6928,626.0411,557.1072,623.5517,559.6178,621.1291,562.1952,618.4761,564.5422,616.1458,567.2119,616.2818,567.3478,613.4911,564.5572,611.0973,562.1634,608.7519,559.818,606.1248,557.1909,603.6458,554.7119,603.6626,554.7287,606.138,552.2041,608.6897,549.7557,611.2045,547.2706,613.7896,544.8557,616.1458,542.2119" style="stroke:#4D4D4D;stroke-width:1.0416666666666667;"/><polygon fill="none" points="396.3542,665.6738,396.3542,665.8928,406.8204,665.2422,417.2867,665.8752,427.753,666.0902,438.2192,664.9307,448.6855,665.5929,459.1518,665.2296,469.6181,665.2744,480.0843,665.6028,490.5506,664.9537,501.0169,666.2505,511.4831,665.0173,521.9494,665.4678,532.4157,666.1238,542.8819,665.5845,553.3482,665.7449,563.8145,665.6405,574.2808,665.8598,584.747,665.9229,595.2133,666.2839,605.6796,666.3728,616.1458,666.3814,626.6121,665.9391,637.0784,666.1567,647.5446,666.4053,658.0109,664.9226,668.4772,666.3806,678.9435,665.365,689.4097,666.2299,699.876,665.1582,710.3423,665.6025,720.8085,666.4463,731.2748,665.6231,741.7411,665.7835,752.2073,666.0266,762.6736,666.1074,773.1399,665.6698,783.6062,665.973,794.0724,665.0776,804.5387,665.9701,815.005,666.2449,825.4712,666.1369,835.9375,665.6738,836.019,665.8705,836.4626,665.7629,837.0294,665.9528,837.6227,666.2067,838.2867,666.6313,838.8838,666.8942,838.8207,666.8681,839.3464,667.574,839.3159,668.0495,839.506,668.6164,839.9333,669.2816,840.1042,669.8405,839.8726,669.8405,839.9239,676.6374,840.3295,683.4342,840.2554,690.2311,840.3592,697.028,840.1042,703.8249,840.0009,703.7821,839.9625,704.4565,839.8054,705.0818,839.2204,705.5299,839.0971,706.1692,838.8838,706.7711,838.9005,706.8116,838.3811,707.2243,837.7047,707.258,837.1775,707.6518,836.4532,707.5698,835.9375,707.9915,835.9375,707.2861,825.4712,708.5161,815.005,707.2447,804.5387,708.5217,794.0724,708.2068,783.6062,707.7125,773.1399,707.623,762.6736,708.4694,752.2073,707.6797,741.7411,708.6081,731.2748,707.4158,720.8085,708.6347,710.3423,708.496,699.876,708.2467,689.4097,708.0407,678.9435,708.7484,668.4772,708.6307,658.0109,708.1678,647.5446,708.2709,637.0784,707.8558,626.6121,708.7378,616.1458,708.1529,605.6796,708.1713,595.2133,707.3578,584.747,707.5694,574.2808,708.5444,563.8145,708.4392,553.3482,707.9468,542.8819,707.6559,532.4157,707.7635,521.9494,707.2768,511.4831,708.4236,501.0169,708.7619,490.5506,708.5399,480.0843,708.7154,469.6181,707.8491,459.1518,708.0824,448.6855,707.5878,438.2192,708.2874,427.753,708.2486,417.2867,708.5669,406.8204,707.7523,396.3542,707.9915,396.3363,707.9484,395.8238,707.8897,395.251,707.6854,394.5183,707.0949,393.9714,706.953,393.4079,706.7711,393.4558,706.791,392.9679,706.1007,393.0331,705.6396,392.7584,705.0377,392.3993,704.4007,392.1875,703.8249,392.2369,703.8249,392.4405,697.028,392.0789,690.2311,392.2969,683.4342,392.2867,676.6374,392.1875,669.8405,392.2246,669.8559,392.4768,669.27,392.7121,668.6771,392.7195,667.9898,393.0352,667.4302,393.4079,666.8942,393.3466,666.7462,394.0056,666.6706,394.5981,666.4343,395.1971,666.2139,395.7262,665.8246,396.3542,665.6738" style="stroke:#333333;stroke-width:1.0416666666666667;"/><text fill="#2E2E2E" font-family="" font-size="16.6667" lengthAdjust="spacing" textLength="425" x="403.6458" y="692.6025">&#25171;&#21360;pattern space buffer&#37324;&#30340;&#20869;&#23481; + &#21407;&#26469;&#31227;&#38500;&#30340;&#25442;&#34892;&#31526;</text><polygon fill="none" points="550,602.1973,550,602.4162,560.1763,601.7657,570.3526,602.3986,580.5288,602.6136,590.7051,601.4541,600.8814,602.1163,611.0577,601.753,621.234,601.7978,631.4103,602.1263,641.5865,601.4771,651.7628,602.774,661.9391,601.5407,672.1154,601.9913,682.2917,602.1973,682.4066,602.2936,684.7688,605.1599,687.3098,608.176,689.7832,611.1355,692.3392,614.1642,694.7917,617.1061,694.8553,617.1595,692.4475,620.2185,689.9702,623.2194,687.4724,626.203,684.8594,629.09,682.2917,632.015,682.2917,632.4979,672.1154,632.7465,661.9391,631.2637,651.7628,632.7218,641.5865,631.7061,631.4103,632.571,621.234,631.4993,611.0577,631.9436,600.8814,632.7875,590.7051,631.9642,580.5288,632.1247,570.3526,632.3677,560.1763,632.4485,550,632.015,549.999,632.0141,547.5764,629.0973,544.8477,625.9237,542.5757,623.1331,540.1459,620.2102,537.5,617.1061,537.6183,617.2053,540.1631,614.2611,542.3715,611.0348,544.8265,608.0153,547.3347,605.0404,550,602.1973" style="stroke:#4D4D4D;stroke-width:1.0416666666666667;"/><text fill="#2E2E2E" font-family="" font-size="16.6667" lengthAdjust="spacing" textLength="20.8333" x="625.5208" y="652.6937">no</text><text fill="#2E2E2E" font-family="" font-size="16.6667" lengthAdjust="spacing" textLength="121.875" x="555.2083" y="622.876">-n &#21442;&#25968;&#26159;&#21542;&#25351;&#23450;</text><text fill="#2E2E2E" font-family="" font-size="16.6667" lengthAdjust="spacing" textLength="28.125" x="700" y="607.9671">yes</text><polygon fill="none" points="616.1458,728.8249,616.1974,728.8765,618.5441,731.2231,621.1933,733.8723,623.744,736.423,625.9707,738.6497,628.6458,741.3249,628.6268,741.3058,626.0411,743.7202,623.5517,746.2307,621.1291,748.8081,618.4761,751.1551,616.1458,753.8249,616.2818,753.9608,613.4911,751.1701,611.0973,748.7763,608.7519,746.4309,606.1248,743.8038,603.6458,741.3249,603.6626,741.3416,606.138,738.817,608.6897,736.3687,611.2045,733.8836,613.7896,731.4687,616.1458,728.8249" style="stroke:#4D4D4D;stroke-width:1.0416666666666667;"/><path d="M46.875,764.2415 L47.4588,764.2415 L45.7241,774.1211 L47.4119,784.0007 L47.9852,793.8802 L44.8933,803.7598 L46.6591,813.6393 L45.6903,823.5189 L45.8097,833.3984 L46.875,843.278 L46.875,843.278 L46.875,843.0887 L57.1615,841.3575 L67.4479,844.8159 L77.7344,841.5272 L88.0208,842.7286 L98.3073,844.4778 L108.5938,843.0397 L118.8802,843.4675 L129.1667,843.1893 L139.4531,843.7739 L149.7396,843.9423 L160.026,844.9049 L170.3125,845.142 L180.599,845.1648 L190.8854,843.9853 L201.1719,844.5657 L211.4583,845.2286 L221.7448,841.2747 L232.0313,845.1627 L242.3177,842.4544 L252.6042,844.7608 L262.8906,841.9029 L273.1771,843.0877 L283.4635,845.338 L293.75,843.1426 L304.0365,843.5705 L314.3229,844.2186 L324.6094,844.4342 L334.8958,843.2671 L345.1823,844.0758 L355.4688,841.6879 L365.7552,844.068 L376.0417,844.8008 L386.3281,844.5128 L396.6146,844.9808 L406.901,841.9361 L417.1875,841.4664 L427.474,841.5519 L437.7604,843.1144 L448.0469,842.7321 L458.3333,843.278 L458.3333,843.278 L458.9643,843.278 L458.1716,836.2077 L458.0157,829.1374 L458.5447,822.0671 L457.7159,814.9967 L458.3333,807.9264 L458.2391,807.4551 L462.6178,807.6823 L466.7458,806.6553 L470.9667,806.0933 L474.9416,804.3009 L479.1667,803.7598 L479.2246,804.0496 L475.1072,803.4625 L470.7475,801.6642 L466.6493,801.1727 L462.5229,800.5408 L458.3333,799.5931 L458.9368,799.5931 L458.3295,794.6061 L458.7616,789.6191 L457.8206,784.6322 L457.7062,779.6452 L458.3333,774.6582 L458.6631,774.9879 L455.7806,772.1055 L454.4999,770.8248 L452.2186,768.5435 L449.8246,766.1495 L447.9167,764.2415 L447.9167,763.2588 L437.6335,765.5159 L427.3504,763.4101 L417.0673,765.8856 L406.7842,762.7061 L396.5011,765.9566 L386.2179,765.5868 L375.9348,764.922 L365.6517,764.3727 L355.3686,766.2599 L345.0855,765.9459 L334.8024,764.7117 L324.5192,764.9865 L314.2361,763.8797 L303.953,766.2317 L293.6699,764.6717 L283.3868,764.7209 L273.1036,762.5517 L262.8205,763.1159 L252.5374,765.7158 L242.2543,765.4353 L231.9712,764.1223 L221.688,763.3466 L211.4049,763.6334 L201.1218,762.3355 L190.8387,765.3936 L180.5556,766.2959 L170.2724,765.7037 L159.9893,766.1719 L149.7062,763.8617 L139.4231,764.4838 L129.14,763.1649 L118.8568,765.0305 L108.5737,764.927 L98.2906,765.776 L88.0075,763.6036 L77.7244,763.8682 L67.4412,765.4734 L57.1581,765.8175 L46.875,764.2415 L46.875,764.2415 " fill="#17A2B8" style="stroke:#1592A6;stroke-width:1.0416666666666667;"/><path d="M447.9167,764.2415 L448.1113,764.2415 L447.533,766.3249 L448.0956,768.4082 L448.2867,770.4915 L447.2561,772.5749 L447.9167,774.6582 L447.9167,774.5862 L450,774.2633 L452.0833,774.3031 L454.1667,774.5951 L456.25,774.018 L458.3333,774.6582 L458.6958,775.0207 L455.8373,772.1622 L454.0372,770.3621 L452.3661,768.691 L449.9438,766.2687 L447.9167,764.2415 " fill="#17A2B8" style="stroke:#1592A6;stroke-width:1.0416666666666667;"/><text fill="#FFFFFF" font-family="" font-size="16.6667" lengthAdjust="spacing" textLength="200" x="58.3333" y="790.1286">&#22914;&#26524;X&#26159;&#27604;&#36739;&#29305;&#27530;&#30340;&#25351;&#20196;&#26102;,</text><text fill="#FFFFFF" font-family="" font-size="16.6667" lengthAdjust="spacing" textLength="267.7083" x="58.3333" y="809.5296">pattern space&#21487;&#33021;&#19981;&#20250;&#20570;&#21024;&#38500;&#25805;&#20316;,</text><text fill="#FFFFFF" font-family="" font-size="16.6667" lengthAdjust="spacing" textLength="379.1667" x="58.3333" y="828.9307">&#36824;&#26377;&#19968;&#20010;hold space &#21487;&#33021;&#20250;&#26377;&#25805;&#20316; &#27604;&#22914;h,g&#31561;&#21629;&#20196;.</text><polygon fill="none" points="483.3333,782.6009,483.3333,782.8199,493.5497,782.1693,503.766,782.8023,513.9824,783.0172,524.1987,781.8578,534.4151,782.52,544.6314,782.1566,554.8478,782.2014,565.0641,782.5299,575.2804,781.8807,585.4968,783.1776,595.7131,781.9444,605.9295,782.3949,616.1458,783.0509,626.3622,782.5116,636.5785,782.672,646.7949,782.5676,657.0112,782.7869,667.2276,782.85,677.4439,783.211,687.6603,783.2999,697.8766,783.3085,708.0929,782.8661,718.3093,783.0838,728.5256,783.3324,738.742,781.8497,748.9583,782.6009,749.0485,782.8186,749.5082,782.7499,750.2078,783.2603,750.6603,783.1743,751.3063,783.5552,751.9046,783.8213,752.1425,783.9198,752.1331,784.4041,752.4265,785.0138,752.7455,785.6341,753.0144,786.2336,753.125,786.7676,753.1236,786.7676,753.2247,793.5645,752.9262,800.3613,753.2237,807.1582,753.3153,813.9551,753.125,820.752,753.2676,820.811,753.0776,821.4227,752.4819,821.8663,752.1836,822.4331,751.9493,823.0264,751.9046,823.6982,751.8968,823.6793,751.2892,823.8793,750.8166,824.405,750.1136,824.3744,749.502,824.5645,748.9583,824.9186,748.9583,825.1564,738.742,824.224,728.5256,824.3779,718.3093,825.5946,708.0929,825.3724,697.8766,825.6837,687.6603,824.5834,677.4439,825.2511,667.2276,825.5336,657.0112,824.4265,646.7949,824.8188,636.5785,825.0499,626.3622,825.5975,616.1458,824.9143,605.9295,825.4005,595.7131,824.3418,585.4968,824.2131,575.2804,825.4432,565.0641,824.1718,554.8478,825.4488,544.6314,825.1339,534.4151,824.6395,524.1987,824.5501,513.9824,825.3965,503.766,824.6068,493.5497,825.5351,483.3333,824.9186,483.2599,824.7413,482.8261,824.8726,482.2192,824.5858,481.5981,824.265,480.9826,823.9575,480.3871,823.6982,480.6201,823.7948,480.3398,823.1905,479.9532,822.5422,479.7409,821.9661,479.369,821.3239,479.1667,820.752,479.4154,820.752,479.2204,813.9551,479.2266,807.1582,478.9554,800.3613,479.026,793.5645,479.1667,786.7676,479.3369,786.8381,479.5486,786.2354,479.641,785.5834,479.7956,784.957,480.0727,784.3815,480.3871,783.8213,480.2959,783.6012,481.0314,783.7103,481.6638,783.5704,482.2248,783.2579,482.8364,783.0679,483.3333,782.6009" style="stroke:#333333;stroke-width:1.0416666666666667;"/><text fill="#2E2E2E" font-family="" font-size="16.6667" lengthAdjust="spacing" textLength="251.0417" x="490.625" y="809.5296">&#21024;&#38500;pattern space buffer&#30340;&#20869;&#23481;</text><polygon fill="none" points="567.1875,864.1113,567.1875,864.3303,578.0671,863.6797,588.9468,864.3127,599.8264,864.5277,610.706,863.3682,621.5856,864.0304,632.4653,863.6671,643.3449,863.7119,654.2245,864.0403,665.1042,864.1113,665.0123,863.8895,665.767,864.533,666.1989,864.3973,666.8457,864.7801,667.5186,865.2262,668.0504,865.3317,668.0229,865.3203,668.3164,865.93,668.5284,866.506,668.8399,867.1232,669.1035,867.7205,669.2708,868.278,669.4742,868.278,669.5038,875.0749,669.5067,881.8717,669.3592,888.6686,669.4318,895.4655,669.2708,902.2624,669.4961,902.3557,668.7954,902.7558,669.0003,903.531,668.4435,903.9907,668.4658,904.6903,668.0504,905.2086,667.9847,905.0498,667.4521,905.4308,666.9705,905.9347,666.2762,905.9252,665.7074,906.2187,665.1042,906.429,665.1042,906.7818,654.2245,906.8626,643.3449,906.425,632.4653,906.7282,621.5856,905.8328,610.706,906.7253,599.8264,907.0001,588.9468,906.8921,578.0671,907.0676,567.1875,906.429,567.1233,906.2741,566.5116,905.9757,565.9264,905.7415,565.4119,905.6779,564.8044,905.3897,564.2412,905.2086,564.4598,905.2992,563.9411,904.5962,563.643,903.9846,563.5822,903.4712,563.051,902.763,563.0208,902.2624,562.8406,902.2624,563.2462,895.4655,563.1721,888.6686,563.2759,881.8717,562.9091,875.0749,563.0208,868.278,563.1232,868.3204,563.4543,867.7672,563.3574,867.0367,563.7223,866.4975,564.0376,865.9377,564.2412,865.3317,564.3278,865.5408,564.8299,865.0863,565.4812,864.9919,565.9354,864.4218,566.5083,864.1381,567.1875,864.1113" style="stroke:#333333;stroke-width:1.0416666666666667;"/><text fill="#2E2E2E" font-family="" font-size="16.6667" lengthAdjust="spacing" textLength="83.3333" x="574.4792" y="891.04">&#35835;&#21462;&#19979;&#19968;&#34892;</text><polygon fill="none" points="519.2708,53.7354,519.2708,53.9543,529.4682,53.3038,539.6656,53.9367,549.8629,54.1517,560.0603,52.9922,570.2577,53.6544,580.455,53.2911,590.6524,53.3359,600.8498,53.6644,611.0471,53.0152,621.2445,54.3121,631.4419,53.0788,641.6393,53.5293,651.8366,54.1853,662.034,53.646,672.2314,53.8064,682.4287,53.7021,692.6261,53.9213,702.8235,53.9844,713.0208,53.7354,713.1767,53.866,715.6994,56.8668,718.2016,59.8504,720.5886,62.7375,723.1442,65.7659,725.5208,68.6442,725.7077,68.8009,722.8289,71.4651,720.7014,74.7591,717.9419,77.5234,715.6629,80.6904,713.0208,83.5531,713.0208,83.0374,702.8235,83.4817,692.6261,84.3256,682.4287,83.5023,672.2314,83.6627,662.034,83.9058,651.8366,83.9866,641.6393,83.549,631.4419,83.8522,621.2445,82.9568,611.0471,83.8493,600.8498,84.1241,590.6524,84.0161,580.455,84.1916,570.2577,83.0499,560.0603,82.8737,549.8629,82.9058,539.6656,83.4917,529.4682,83.3483,519.2708,83.5531,519.4521,83.7051,516.7244,80.5323,514.1796,77.513,511.8316,74.6587,509.0934,71.4772,506.7708,68.6442,506.6327,68.5284,509.4435,65.8072,511.8868,62.7779,514.4663,59.8627,516.6852,56.6453,519.2708,53.7354" style="stroke:#4D4D4D;stroke-width:1.0416666666666667;"/><text fill="#2E2E2E" font-family="" font-size="16.6667" lengthAdjust="spacing" textLength="16.6667" x="625.5208" y="104.2318">&#26159;</text><text fill="#2E2E2E" font-family="" font-size="16.6667" lengthAdjust="spacing" textLength="183.3333" x="524.4792" y="74.4141">&#25991;&#20214;&#25110;&#36755;&#20837;&#26159;&#21542;&#26377;&#34892;&#21487;&#35835;</text><text fill="#2E2E2E" font-family="" font-size="16.6667" lengthAdjust="spacing" textLength="16.6667" x="484.8958" y="59.5052">&#21542;</text><polygon fill="none" points="36.5216,117.9808,34.842,120.2758,32.8554,123.6371,30.0142,125.9024,27.0285,127.1412,24.6479,127.2487,21.5882,125.6995,18.7012,124.6874,16.5099,122.6324,15.3605,120.2799,14.6788,118.4067,14.011,115.96,12.9271,113.8546,13.76,111.7989,14.4898,109.547,17.2284,107.7661,19.1552,105.4552,21.54,104.6879,24.3751,104.0271,28.0108,104.4197,30.0022,105.3588,32.3174,105.7845,35.1325,108.6687,36.1138,111.7134,36.5402,113.7909,36.0572,117.2144" style="stroke:#2E2E2E;stroke-width:1.0416666666666667;"/><polygon fill="#2E2E2E" points="31.2845,116.7139,30.3684,117.9657,29.2848,119.7992,27.735,121.0348,26.1065,121.7105,24.808,121.7692,23.139,120.9241,21.5643,120.372,20.3691,119.2512,19.7421,117.968,19.3703,116.9463,19.006,115.6117,18.4148,114.4633,18.8691,113.342,19.2672,112.1137,20.761,111.1423,21.8119,109.8818,23.1127,109.4633,24.6592,109.1028,26.6423,109.317,27.7285,109.8292,28.9913,110.0614,30.5268,111.6346,31.0621,113.2954,31.2946,114.4285,31.0312,116.2959" style="stroke:#171717;stroke-width:1.0416666666666667;"/><path d="M616.1458,180.6885 L616.2431,180.6885 L615.954,184.8551 L616.2353,189.0218 L616.3309,193.1885 L615.8156,197.3551 L616.1458,201.5218 " fill="#333333" style="stroke:#333333;stroke-width:3.125;"/><polygon fill="#333333" points="611.9792,191.1051,612.0469,191.1322,612.6789,193.135,613.7081,195.2967,614.608,197.4067,615.0825,199.3465,616.1458,201.5218,616.1208,201.5118,616.8417,199.3835,617.6889,197.3057,618.6239,195.263,619.2563,193.0993,620.3125,191.1051,620.4484,191.2411,619.3244,191.7837,618.5973,192.7233,617.9186,193.7112,616.9581,194.4174,616.1458,195.2718,616.1626,195.2886,615.3047,194.4306,614.523,193.649,613.7045,192.8305,612.9563,192.0823,611.9792,191.1051" style="stroke:#333333;stroke-width:1.0416666666666667;"/><path d="M616.1458,422.1598 L616.2431,422.1598 L615.954,428.8916 L616.2353,435.6234 L616.3309,442.3551 L615.8156,449.0869 L616.1458,455.8187 " fill="#333333" style="stroke:#333333;stroke-width:3.125;"/><polygon fill="#333333" points="611.9792,445.402,612.0469,445.4291,612.6789,447.4319,613.7081,449.5936,614.608,451.7036,615.0825,453.6434,616.1458,455.8187,616.1208,455.8087,616.8417,453.6804,617.6889,451.6026,618.6239,449.5599,619.2563,447.3962,620.3125,445.402,620.4484,445.538,619.3244,446.0806,618.5973,447.0201,617.9186,448.0081,616.9581,448.7143,616.1458,449.5687,616.1626,449.5854,615.3047,448.7275,614.523,447.9459,613.7045,447.1274,612.9563,446.3792,611.9792,445.402" style="stroke:#333333;stroke-width:1.0416666666666667;"/><path d="M688.5417,407.251 L688.5417,407.3483 L695.8333,407.0592 L703.125,407.3405 L710.4167,407.436 L717.7083,406.9207 L725,407.251 " fill="#333333" style="stroke:#333333;stroke-width:3.125;"/><polygon fill="#333333" points="720.8333,470.5648,720.9011,470.5919,721.5331,472.5947,722.5623,474.7564,723.4622,476.8663,723.9367,478.8061,725,480.9814,724.9749,480.9714,725.6958,478.8431,726.543,476.7653,727.478,474.7227,728.1104,472.559,729.1667,470.5648,729.3026,470.7007,728.1786,471.2434,727.4514,472.1829,726.7727,473.1708,725.8123,473.8771,725,474.7314,725.0168,474.7482,724.1588,473.8903,723.3772,473.1086,722.5587,472.2902,721.8105,471.5419,720.8333,470.5648" style="stroke:#333333;stroke-width:3.125;"/><path d="M725,407.251 L725.2919,407.251 L724.4246,417.7839 L725.2685,428.3168 L725.5551,438.8497 L724.0092,449.3827 L724.8921,459.9156 L724.4076,470.4485 L724.4674,480.9814 L724.9053,491.5144 L724.0398,502.0473 L725.7689,512.5802 L724.1246,523.1131 L724.7253,533.6461 L725.5999,544.179 L725,554.7119 " fill="#333333" style="stroke:#333333;stroke-width:3.125;"/><path d="M725,554.7119 L725,555.0038 L714.294,554.1365 L703.588,554.9804 L692.8819,555.267 L682.1759,553.7211 L671.4699,554.604 L660.7639,554.1196 L650.0579,554.1793 L639.3519,554.6173 L628.6458,554.7119 " fill="#333333" style="stroke:#333333;stroke-width:3.125;"/><polygon fill="#333333" points="639.0625,550.5452,639.0896,550.613,636.9257,551.245,634.9208,552.2742,632.864,553.1741,630.6372,553.6486,628.6458,554.7119,628.6358,554.6869,630.6742,555.4078,632.763,556.2549,634.887,557.1899,636.89,557.8224,639.0625,558.8786,639.1984,559.0145,638.0744,557.8905,637.3473,557.1634,636.6686,556.4846,635.7081,555.5242,634.8958,554.7119,634.9126,554.7287,635.7213,553.8707,636.6063,553.0891,637.4545,552.2706,638.373,551.5224,639.0625,550.5452" style="stroke:#333333;stroke-width:1.0416666666666667;"/><path d="M616.1458,498.1364 L616.2431,498.1364 L615.954,506.9515 L616.2353,515.7666 L616.3309,524.5817 L615.8156,533.3968 L616.1458,542.2119 " fill="#333333" style="stroke:#333333;stroke-width:3.125;"/><polygon fill="#333333" points="611.9792,531.7952,612.0469,531.8224,612.6789,533.8252,613.7081,535.9868,614.608,538.0968,615.0825,540.0366,616.1458,542.2119,616.1208,542.2019,616.8417,540.0736,617.6889,537.9958,618.6239,535.9531,619.2563,533.7894,620.3125,531.7952,620.4484,531.9312,619.3244,532.4738,618.5973,533.4134,617.9186,534.4013,616.9581,535.1075,616.1458,535.9619,616.1626,535.9787,615.3047,535.1207,614.523,534.3391,613.7045,533.5206,612.9563,532.7724,611.9792,531.7952" style="stroke:#333333;stroke-width:1.0416666666666667;"/><path d="M616.1458,355.8838 L616.2431,355.8838 L615.954,363.1755 L616.2353,370.4671 L616.3309,377.7588 L615.8156,385.0505 L616.1458,392.3421 " fill="#333333" style="stroke:#333333;stroke-width:3.125;"/><polygon fill="#333333" points="611.9792,381.9255,612.0469,381.9526,612.6789,383.9554,613.7081,386.117,614.608,388.227,615.0825,390.1668,616.1458,392.3421,616.1208,392.3321,616.8417,390.2038,617.6889,388.126,618.6239,386.0833,619.2563,383.9196,620.3125,381.9255,620.4484,382.0614,619.3244,382.604,618.5973,383.5436,617.9186,384.5315,616.9581,385.2377,616.1458,386.0921,616.1626,386.1089,615.3047,385.2509,614.523,384.4693,613.7045,383.6508,612.9563,382.9026,611.9792,381.9255" style="stroke:#333333;stroke-width:1.0416666666666667;"/><path d="M616.1458,243.8395 L616.4378,243.8395 L615.5704,253.8005 L616.4143,263.7614 L616.7009,273.7223 L615.155,283.6833 L616.0379,293.6442 L615.5535,303.6051 L616.1458,313.5661 " fill="#333333" style="stroke:#333333;stroke-width:3.125;"/><polygon fill="#333333" points="611.9792,303.1494,612.0469,303.1765,612.6789,305.1793,613.7081,307.341,614.608,309.451,615.0825,311.3908,616.1458,313.5661,616.1208,313.5561,616.8417,311.4277,617.6889,309.35,618.6239,307.3073,619.2563,305.1436,620.3125,303.1494,620.4484,303.2853,619.3244,303.828,618.5973,304.7675,617.9186,305.7555,616.9581,306.4617,616.1458,307.3161,616.1626,307.3328,615.3047,306.4749,614.523,305.6932,613.7045,304.8748,612.9563,304.1265,611.9792,303.1494" style="stroke:#333333;stroke-width:1.0416666666666667;"/><path d="M616.1458,632.015 L616.2431,632.015 L615.954,638.7467 L616.2353,645.4785 L616.3309,652.2103 L615.8156,658.9421 L616.1458,665.6738 " fill="#333333" style="stroke:#333333;stroke-width:3.125;"/><polygon fill="#333333" points="611.9792,655.2572,612.0469,655.2843,612.6789,657.2871,613.7081,659.4488,614.608,661.5587,615.0825,663.4985,616.1458,665.6738,616.1208,665.6638,616.8417,663.5355,617.6889,661.4577,618.6239,659.415,619.2563,657.2513,620.3125,655.2572,620.4484,655.3931,619.3244,655.9357,618.5973,656.8753,617.9186,657.8632,616.9581,658.5694,616.1458,659.4238,616.1626,659.4406,615.3047,658.5827,614.523,657.801,613.7045,656.9825,612.9563,656.2343,611.9792,655.2572" style="stroke:#333333;stroke-width:1.0416666666666667;"/><path d="M694.7917,617.1061 L694.7917,617.398 L705.1736,616.5307 L715.5556,617.3746 L725.9375,617.6612 L736.3194,616.1153 L746.7014,616.9982 L757.0833,616.5138 L767.4653,616.5735 L777.8472,617.0115 L788.2292,616.1459 L798.6111,617.8751 L808.9931,616.2307 L819.375,616.8314 L829.7569,617.706 L840.1389,616.987 L850.5208,617.1061 " fill="#333333" style="stroke:#333333;stroke-width:3.125;"/><polygon fill="#333333" points="846.3542,680.4199,846.4219,680.447,847.0539,682.4498,848.0831,684.6115,848.983,686.7215,849.4575,688.6613,850.5208,690.8366,850.4958,690.8266,851.2167,688.6983,852.0639,686.6205,852.9989,684.5778,853.6313,682.4141,854.6875,680.4199,854.8234,680.5559,853.6994,681.0985,852.9723,682.038,852.2936,683.026,851.3331,683.7322,850.5208,684.5866,850.5376,684.6033,849.6797,683.7454,848.898,682.9638,848.0795,682.1453,847.3313,681.3971,846.3542,680.4199" style="stroke:#333333;stroke-width:3.125;"/><path d="M850.5208,617.1061 L850.8128,617.1061 L849.9454,627.4577 L850.7893,637.8092 L851.0759,648.1608 L849.53,658.5124 L850.4129,668.8639 L849.9285,679.2155 L849.9882,689.5671 L850.4262,699.9186 L849.5606,710.2702 L851.2898,720.6217 L849.6454,730.9733 L850.5208,741.3249 " fill="#333333" style="stroke:#333333;stroke-width:3.125;"/><path d="M850.5208,741.3249 L850.5208,741.6168 L839.9554,740.7494 L829.3899,741.5933 L818.8244,741.88 L808.2589,740.334 L797.6935,741.2169 L787.128,740.7325 L776.5625,740.7922 L765.997,741.2302 L755.4315,740.3646 L744.8661,742.0938 L734.3006,740.4495 L723.7351,741.0502 L713.1696,741.9248 L702.6042,741.2057 L692.0387,741.4196 L681.4732,741.2805 L670.9077,741.5728 L660.3423,741.657 L649.7768,742.1383 L639.2113,742.2569 L628.6458,741.3249 " fill="#333333" style="stroke:#333333;stroke-width:3.125;"/><polygon fill="#333333" points="639.0625,737.1582,639.0896,737.226,636.9257,737.858,634.9208,738.8872,632.864,739.7871,630.6372,740.2615,628.6458,741.3249,628.6358,741.2998,630.6742,742.0207,632.763,742.8679,634.887,743.8029,636.89,744.4353,639.0625,745.4915,639.1984,745.6275,638.0744,744.5035,637.3473,743.7763,636.6686,743.0976,635.7081,742.1371,634.8958,741.3249,634.9126,741.3416,635.7213,740.4837,636.6063,739.702,637.4545,738.8836,638.373,738.1353,639.0625,737.1582" style="stroke:#333333;stroke-width:1.0416666666666667;"/><path d="M616.1458,707.9915 L616.2431,707.9915 L615.954,712.1582 L616.2353,716.3249 L616.3309,720.4915 L615.8156,724.6582 L616.1458,728.8249 " fill="#333333" style="stroke:#333333;stroke-width:3.125;"/><polygon fill="#333333" points="611.9792,718.4082,612.0469,718.4353,612.6789,720.4381,613.7081,722.5998,614.608,724.7097,615.0825,726.6495,616.1458,728.8249,616.1208,728.8148,616.8417,726.6865,617.6889,724.6087,618.6239,722.5661,619.2563,720.4024,620.3125,718.4082,620.4484,718.5441,619.3244,719.0868,618.5973,720.0263,617.9186,721.0143,616.9581,721.7205,616.1458,722.5749,616.1626,722.5916,615.3047,721.7337,614.523,720.952,613.7045,720.1336,612.9563,719.3853,611.9792,718.4082" style="stroke:#333333;stroke-width:1.0416666666666667;"/><path d="M616.1458,567.2119 L616.2431,567.2119 L615.954,574.209 L616.2353,581.2061 L616.3309,588.2031 L615.8156,595.2002 L616.1458,602.1973 " fill="#333333" style="stroke:#333333;stroke-width:3.125;"/><polygon fill="#333333" points="611.9792,591.7806,612.0469,591.8077,612.6789,593.8105,613.7081,595.9722,614.608,598.0821,615.0825,600.0219,616.1458,602.1973,616.1208,602.1872,616.8417,600.0589,617.6889,597.9811,618.6239,595.9385,619.2563,593.7748,620.3125,591.7806,620.4484,591.9165,619.3244,592.4592,618.5973,593.3987,617.9186,594.3867,616.9581,595.0929,616.1458,595.9473,616.1626,595.964,615.3047,595.1061,614.523,594.3244,613.7045,593.506,612.9563,592.7577,611.9792,591.7806" style="stroke:#333333;stroke-width:1.0416666666666667;"/><path d="M616.1458,753.8249 L616.2431,753.8249 L615.954,759.5801 L616.2353,765.3353 L616.3309,771.0905 L615.8156,776.8457 L616.1458,782.6009 " fill="#333333" style="stroke:#333333;stroke-width:3.125;"/><polygon fill="#333333" points="611.9792,772.1842,612.0469,772.2113,612.6789,774.2141,613.7081,776.3758,614.608,778.4858,615.0825,780.4256,616.1458,782.6009,616.1208,782.5909,616.8417,780.4626,617.6889,778.3848,618.6239,776.3421,619.2563,774.1784,620.3125,772.1842,620.4484,772.3202,619.3244,772.8628,618.5973,773.8024,617.9186,774.7903,616.9581,775.4965,616.1458,776.3509,616.1626,776.3677,615.3047,775.5097,614.523,774.7281,613.7045,773.9096,612.9563,773.1614,611.9792,772.1842" style="stroke:#333333;stroke-width:1.0416666666666667;"/><path d="M616.1458,824.9186 L616.2431,824.9186 L615.954,832.7572 L616.2353,840.5957 L616.3309,848.4342 L615.8156,856.2728 L616.1458,864.1113 " fill="#333333" style="stroke:#333333;stroke-width:3.125;"/><polygon fill="#333333" points="611.9792,853.6947,612.0469,853.7218,612.6789,855.7246,613.7081,857.8863,614.608,859.9962,615.0825,861.936,616.1458,864.1113,616.1208,864.1013,616.8417,861.973,617.6889,859.8952,618.6239,857.8525,619.2563,855.6888,620.3125,853.6947,620.4484,853.8306,619.3244,854.3732,618.5973,855.3128,617.9186,856.3007,616.9581,857.0069,616.1458,857.8613,616.1626,857.8781,615.3047,857.0202,614.523,856.2385,613.7045,855.42,612.9563,854.6718,611.9792,853.6947" style="stroke:#333333;stroke-width:1.0416666666666667;"/><path d="M616.1458,83.5531 L616.4378,83.5531 L615.5704,94.5166 L616.4143,105.4801 L616.7009,116.4437 L615.155,127.4072 L616.1458,138.3708 " fill="#333333" style="stroke:#333333;stroke-width:3.125;"/><polygon fill="#333333" points="611.9792,127.9541,612.0469,127.9812,612.6789,129.984,613.7081,132.1457,614.608,134.2556,615.0825,136.1954,616.1458,138.3708,616.1208,138.3607,616.8417,136.2324,617.6889,134.1546,618.6239,132.112,619.2563,129.9483,620.3125,127.9541,620.4484,128.09,619.3244,128.6327,618.5973,129.5722,617.9186,130.5602,616.9581,131.2664,616.1458,132.1208,616.1626,132.1375,615.3047,131.2796,614.523,130.4979,613.7045,129.6795,612.9563,128.9312,611.9792,127.9541" style="stroke:#333333;stroke-width:1.0416666666666667;"/><path d="M616.1458,906.429 L616.2431,906.429 L615.954,908.5124 L616.2353,910.5957 L616.3309,912.679 L615.8156,914.7624 L616.1458,916.8457 " fill="#333333" style="stroke:#333333;stroke-width:3.125;"/><path d="M616.1458,916.8457 L616.1458,917.1376 L626.6927,916.2703 L637.2396,917.1142 L647.7865,917.4008 L658.3333,915.8549 L668.8802,916.7378 L679.4271,916.2534 L689.974,916.3131 L700.5208,916.751 L711.0677,915.8855 L721.6146,917.6147 L732.1615,915.9703 L742.7083,916.571 L753.2552,917.4456 L763.8021,916.7266 L774.349,916.9405 L784.8958,916.8013 L795.4427,917.0937 L805.9896,917.1778 L816.5365,917.6592 L827.0833,917.7777 L837.6302,917.7891 L848.1771,917.1994 L858.724,917.4896 L869.2708,916.8457 " fill="#333333" style="stroke:#333333;stroke-width:3.125;"/><polygon fill="#333333" points="865.1042,522.6481,865.1719,522.6752,865.8039,520.5113,866.8331,518.5064,867.733,516.4497,868.2075,514.2228,869.2708,512.2314,869.2458,512.2214,869.9667,514.2598,870.8139,516.3487,871.7489,518.4727,872.3813,520.4756,873.4375,522.6481,873.5734,522.784,872.4494,521.66,871.7223,520.9329,871.0436,520.2542,870.0831,519.2937,869.2708,518.4814,869.2876,518.4982,868.4297,519.3069,867.648,520.1919,866.8295,521.0402,866.0813,521.9586,865.1042,522.6481" style="stroke:#333333;stroke-width:3.125;"/><path d="M869.2708,68.6442 L869.5628,68.6442 L868.6954,79.1158 L869.5393,89.5875 L869.8259,100.0591 L868.28,110.5307 L869.1629,121.0023 L868.6785,131.4739 L868.7382,141.9456 L869.1762,152.4172 L868.3106,162.8888 L870.0398,173.3604 L868.3954,183.8321 L868.9962,194.3037 L869.8708,204.7753 L869.1517,215.2469 L869.3656,225.7186 L869.2265,236.1902 L869.5188,246.6618 L869.603,257.1334 L870.0843,267.6051 L870.2029,278.0767 L870.2142,288.5483 L869.6245,299.0199 L869.9147,309.4915 L870.2462,319.9632 L868.2692,330.4348 L870.2132,340.9064 L868.859,351.378 L870.0122,361.8497 L868.5833,372.3213 L869.1757,382.7929 L870.3008,393.2645 L869.2031,403.7362 L869.4171,414.2078 L869.7411,424.6794 L869.8489,435.151 L869.2654,445.6226 L869.6697,456.0943 L868.4758,466.5659 L869.6658,477.0375 L870.0322,487.5091 L869.8882,497.9808 L870.1223,508.4524 L868.5999,518.924 L868.365,529.3956 L868.4078,539.8673 L869.1891,550.3389 L868.9979,560.8105 L870.2172,571.2821 L869.0282,581.7538 L868.7944,592.2254 L869.5879,602.697 L868.3447,613.1686 L868.5498,623.6402 L870.1722,634.1119 L869.8759,644.5835 L870.291,655.0551 L868.8239,665.5267 L869.7142,675.9984 L870.0909,686.47 L868.6147,696.9416 L869.1377,707.4132 L869.4458,717.8849 L870.1761,728.3565 L869.265,738.8281 L869.9133,749.2997 L868.5017,759.7714 L868.3302,770.243 L869.9703,780.7146 L868.2751,791.1862 L869.9777,801.6578 L869.5578,812.1295 L868.8987,822.6011 L868.7795,833.0727 L869.908,843.5443 L868.8551,854.016 L870.0929,864.4876 L868.5031,874.9592 L870.1284,885.4308 L869.9435,895.9025 L869.6111,906.3741 L869.2708,916.8457 " fill="#333333" style="stroke:#333333;stroke-width:3.125;"/><path d="M869.2708,68.6442 L869.2708,68.9361 L859.003,68.0688 L848.7351,68.9127 L838.4673,69.1993 L828.1994,67.6534 L817.9315,68.5363 L807.6637,68.0519 L797.3958,68.1116 L787.128,68.5495 L776.8601,67.684 L766.5923,69.4132 L756.3244,67.7688 L746.0565,68.3695 L735.7887,69.2441 L725.5208,68.6442 " fill="#333333" style="stroke:#333333;stroke-width:3.125;"/><polygon fill="#333333" points="735.9375,64.4775,735.9646,64.5453,733.8007,65.1773,731.7958,66.2065,729.739,67.1064,727.5122,67.5809,725.5208,68.6442,725.5108,68.6192,727.5492,69.34,729.638,70.1872,731.762,71.1222,733.765,71.7547,735.9375,72.8109,736.0734,72.9468,734.9494,71.8228,734.2223,71.0956,733.5436,70.4169,732.5831,69.4565,731.7708,68.6442,731.7876,68.661,732.5963,67.803,733.4813,67.0214,734.3295,66.2029,735.248,65.4547,735.9375,64.4775" style="stroke:#333333;stroke-width:1.0416666666666667;"/><path d="M506.7708,68.6442 L506.7708,68.9361 L496.2976,68.0688 L485.8243,68.9127 L475.351,69.1993 L464.8777,67.6534 L454.4044,68.5363 L443.9312,68.0519 L433.4579,68.1116 L422.9846,68.5495 L412.5113,67.684 L402.038,69.4132 L391.5648,67.7688 L381.0915,68.3695 L370.6182,69.2441 L360.1449,68.5251 L349.6716,68.739 L339.1984,68.5998 L328.7251,68.8922 L318.2518,68.9763 L307.7785,69.4577 L297.3053,69.5762 L286.832,69.5876 L276.3587,68.9979 L265.8854,69.2881 L255.4121,69.6195 L244.9389,67.6426 L234.4656,69.5866 L223.9923,68.2324 L213.519,69.3856 L203.0457,67.9567 L192.5725,68.5491 L182.0992,69.6742 L171.6259,68.5765 L161.1526,68.7905 L150.6793,69.1145 L140.2061,69.2223 L129.7328,68.6388 L119.2595,69.0431 L108.7862,67.8492 L98.313,69.0392 L87.8397,69.4056 L77.3664,69.2616 L66.8931,69.4956 L56.4198,67.9733 L45.9466,67.7384 L35.4733,67.7811 L25,68.6442 " fill="#333333" style="stroke:#333333;stroke-width:3.125;"/><path d="M25,68.6442 L25.0973,68.6442 L24.8082,75.6624 L25.0895,82.6807 L25.185,89.6989 L24.6697,96.7171 L25,103.7354 " fill="#333333" style="stroke:#333333;stroke-width:3.125;"/><polygon fill="#333333" points="20.8333,93.3187,20.9011,93.3458,21.5331,95.3486,22.5623,97.5103,23.4622,99.6202,23.9367,101.56,25,103.7354,24.9749,103.7253,25.6958,101.597,26.543,99.5192,27.478,97.4766,28.1104,95.3129,29.1667,93.3187,29.3026,93.4546,28.1786,93.9973,27.4514,94.9368,26.7727,95.9247,25.8123,96.631,25,97.4854,25.0168,97.5021,24.1588,96.6442,23.3772,95.8625,22.5587,95.0441,21.8105,94.2958,20.8333,93.3187" style="stroke:#333333;stroke-width:1.0416666666666667;"/><path d="M616.1458,31.25 L616.2431,31.25 L615.954,35.7471 L616.2353,40.2441 L616.3309,44.7412 L615.8156,49.2383 L616.1458,53.7354 " fill="#333333" style="stroke:#333333;stroke-width:3.125;"/><polygon fill="#333333" points="611.9792,43.3187,612.0469,43.3458,612.6789,45.3486,613.7081,47.5103,614.608,49.6202,615.0825,51.56,616.1458,53.7354,616.1208,53.7253,616.8417,51.597,617.6889,49.5192,618.6239,47.4766,619.2563,45.3129,620.3125,43.3187,620.4484,43.4546,619.3244,43.9973,618.5973,44.9368,617.9186,45.9247,616.9581,46.631,616.1458,47.4854,616.1626,47.5021,615.3047,46.6442,614.523,45.8625,613.7045,45.0441,612.9563,44.2958,611.9792,43.3187" style="stroke:#333333;stroke-width:1.0416666666666667;"/><!--SRC=[RLDRJnD157wVNp7YWxGM5HzyQ0acQ7mIJEI5nFYmTgVjXkrEipk5L4A2GBcs5WCYLBn0oYNS2ffWcnRuCpkpst_XcKw1QkX3apdds-yxvpldt649aYJO6IOiciXqqJGp3OiWPzYmKfgj9R5EObhQP2-enGOqG7Pqe1w7PKpIYv1Ee-aaiHWUGnZZFYqw7BTfsjAVKPFQU3HXC8B6aHPbneZ1CiyDBIuPcs0i2GUDzmHtFsc-x-5h2OnVfOYjCMhtKuiE3YQx-ebkf9DD75J536PGgyKZVw-Lg6qH6tS_QeR7c_yMPQGDfpHKTNqcbDkMUGbjgyo0Df9fI_pVLeQO9XrjYOoZdeSjDnm6bI5esYIuKwpEkhKpCRVgNoppxBPOA_Eb7R4nxs_cUA7ibsi1R3W0Moi7K1YUlB3gLYPaTYRBZwiXRxVMM2_nx9d8Rq7KEzo9eB1OkU1p9-00OyIsi9FIeWI_IyTYn7OhHn7KxDOaCOOSecDUclQMPlpBMMzl4T90pxEdKC9ZjxAlFWeXNjZX9QaCCLuum0bgweeN4KjlseTk3BzhaYIreWaZ5eDNJrJQ4QQsPiM9JVJUOD29saQAYVbTA1c_0IrUAahcarCLWwSutFHEQswzBews6_kbjy7WM5lT_kLwOpRd5QV5SjuztsXCdKldobLqMyz8GPLZ_kLNwLDnEeJ4xpqnNGWhxI5bW_Xo5k8NSzBxgNDGWSpjd5Blpo-lLl2t3jpAWh9coBqy5YjLwIK8-1Cvjv87eDYOuFK9lhi8qUlHFRXnBgpfkeqR-pc__262Z1ZkL12r3JnNRMJpJmCOBj32dHdYm2eeduPK-vrGhblRllOn4474T62xB1gGAaOCza_ITbcO5oR5vvFMdkLc-N7nYbY2WNUPvqzkwxZTH7mVyuy_nBTjjNvo3ZVh9wLLbKewpET-0kWspcl2zftaEvFY-yQGzAsyubzCUVDLSRmWDN9mAoKveNz7eeO5Lhlr8lzGL7BAcH1ioXhueiPpixMuzKsz24a5nQ06qebGt3kQvv_EGQfzH5UtjwZEBo9JhHi69mDmrJJr5m00]--></g></svg>