<svg version="1.1" xmlns="http://www.w3.org/2000/svg" viewBox="0 0 548.1817016601562 181.126953125" width="548.1817016601562" height="181.126953125">
  <!-- svg-source:excalidraw -->
  
  <defs>
    <style class="style-fonts">
      @font-face {
        font-family: "Virgil";
        src: url("https://unpkg.com/@excalidraw/excalidraw@0.15.3/dist/excalidraw-assets/Virgil.woff2");
      }
      @font-face {
        font-family: "Cascadia";
        src: url("https://unpkg.com/@excalidraw/excalidraw@0.15.3/dist/excalidraw-assets/Cascadia.woff2");
      }
    </style>
  </defs>
  <rect x="0" y="0" width="548.1817016601562" height="181.126953125" fill="#ffffff"></rect><g transform="translate(26.02197265625 12.57635498046875) rotate(0 141 14.5)"><text x="0" y="0" font-family="Segoe UI Emoji" font-size="28px" fill="#d9480f" text-anchor="start" style="white-space: pre;" direction="ltr" dominant-baseline="text-before-edge">/regexp/replacement/</text></g><g transform="translate(313.01373291015625 12.43707275390625) rotate(0 36 14.5)"><text x="0" y="0" font-family="Segoe UI Emoji" font-size="28px" fill="#495057" text-anchor="start" style="white-space: pre;" direction="ltr" dominant-baseline="text-before-edge">flags</text></g><g transform="translate(10 10) rotate(0 8 14.5)"><text x="0" y="0" font-family="Segoe UI Emoji" font-size="28px" fill="#0b7285" text-anchor="start" style="white-space: pre;" direction="ltr" dominant-baseline="text-before-edge">s</text></g><g transform="translate(129.94305419921875 89.126953125) rotate(0 200.5 41)"><text x="0" y="0" font-family="Segoe UI Emoji" font-size="20px" fill="#5c940d" text-anchor="start" style="white-space: pre;" direction="ltr" dominant-baseline="text-before-edge">很多人可能以为</text><text x="0" y="20.5" font-family="Segoe UI Emoji" font-size="20px" fill="#5c940d" text-anchor="start" style="white-space: pre;" direction="ltr" dominant-baseline="text-before-edge">s/hello/world/p 这样的操作里的p</text><text x="0" y="41" font-family="Segoe UI Emoji" font-size="20px" fill="#5c940d" text-anchor="start" style="white-space: pre;" direction="ltr" dominant-baseline="text-before-edge">是和s一个类别的那个p, 实际这里的p是flags</text><text x="0" y="61.5" font-family="Segoe UI Emoji" font-size="20px" fill="#5c940d" text-anchor="start" style="white-space: pre;" direction="ltr" dominant-baseline="text-before-edge">只不过行为与身份为X的p一样.</text></g><g stroke-linecap="round" transform="translate(346.07244873046875 127.22869873046875) rotate(0 96.05462646484375 12.827972412109375)"><path d="M1.39 0.93 C58.3 0.22, 120.06 1, 192.38 -1.87 M190.57 1.81 C190.51 11.27, 191.53 18.33, 190.94 25.4 M192.74 26.1 C136.88 24.79, 82.17 22.2, -1.17 26.07 M0.67 25.29 C0.42 20.71, -0.49 11.46, 1.94 -0.46" stroke="#c92a2a" stroke-width="1.5" fill="none" stroke-dasharray="8 9"></path></g><g stroke-linecap="round"><g transform="translate(477.07147216796875 121.44036865234375) rotate(0 -56.23565673828125 -35.32359313964844)"><path d="M-1.26 -0.35 C-42.35 -26.9, -85.29 -51.4, -111.16 -70.34" stroke="#c92a2a" stroke-width="1.5" fill="none" stroke-dasharray="8 9"></path></g><g transform="translate(477.07147216796875 121.44036865234375) rotate(0 -56.23565673828125 -35.32359313964844)"><path d="M-111.34 -69.68 L-95.69 -68.03 L-103.35 -59.19 L-111.73 -68.88" stroke="none" stroke-width="0" fill="#c92a2a" fill-rule="evenodd"></path><path d="M-112.1 -70.6 C-106.03 -69.14, -101.61 -67.08, -95.35 -67.77 M-95.59 -68.48 C-98.98 -66.46, -99.57 -63.6, -103.15 -58.52 M-102.89 -58.71 C-107.43 -62.67, -108.27 -66.58, -112.05 -71.7 M-111.16 -70.34 C-111.16 -70.34, -111.16 -70.34, -111.16 -70.34" stroke="#c92a2a" stroke-width="1.5" fill="none"></path></g></g><mask></mask></svg>