<?xml version="1.0" encoding="us-ascii" standalone="no"?><svg xmlns="http://www.w3.org/2000/svg" xmlns:xlink="http://www.w3.org/1999/xlink" contentStyleType="text/css" height="691.6667px" preserveAspectRatio="none" style="width:782px;height:691px;background:#FFFFFF;" version="1.1" viewBox="0 0 782 691" width="782.2917px" zoomAndPan="magnify"><defs/><g><polygon fill="#17A2B8" points="170.8909,23.3671,169.364,25.4534,167.558,28.5092,164.975,30.5686,162.2608,31.6947,160.0966,31.7924,157.315,30.384,154.6905,29.4639,152.6984,27.5958,151.6535,25.4572,151.0338,23.7543,150.4267,21.53,149.4413,19.616,150.1985,17.7472,150.8619,15.7,153.3516,14.0809,155.1032,11.9802,157.2712,11.2826,159.8486,10.6819,163.1538,11.0388,164.9641,11.8925,167.0689,12.2795,169.628,14.9015,170.5201,17.6695,170.9077,19.5581,170.4687,22.6703" style="stroke:#2E2E2E;stroke-width:1.0416666666666667;"/><polygon fill="none" points="16.6667,41.6667,16.6667,41.8856,27.0761,41.2351,37.4855,41.868,47.895,42.083,58.3044,40.9235,68.7138,41.5857,79.1233,41.2224,89.5327,41.2672,99.9421,41.5957,110.3516,40.9465,120.761,42.2434,131.1704,41.0101,141.5799,41.4607,151.9893,42.1166,162.3987,41.5773,172.8082,41.7377,183.2176,41.6334,193.627,41.8526,204.0365,41.9158,214.4459,42.2768,224.8553,42.3657,235.2648,42.3742,245.6742,41.9319,256.0836,42.1496,266.4931,42.3982,276.9025,40.9154,287.3119,42.3734,297.7214,41.3578,308.1308,42.2227,318.5402,41.151,328.9497,41.5953,339.3591,42.4392,349.7685,41.6159,360.178,41.7764,370.5874,42.0194,380.9968,42.1002,391.4063,41.6626,401.8157,41.9658,412.2251,41.0704,422.6345,41.9629,433.044,42.2377,443.4534,42.1297,453.8628,42.3052,464.2723,41.1635,474.6817,40.9873,485.0911,41.0194,495.5006,41.6053,505.91,41.4619,516.3194,42.3765,526.7289,41.4847,537.1383,41.3093,547.5477,41.9044,557.9572,40.972,568.3666,41.1259,578.776,42.3427,589.1855,42.1205,599.5949,42.4318,610.0043,41.3315,620.4138,41.9992,630.8232,42.2817,641.2326,41.1746,651.6421,41.5668,662.0515,41.7979,672.4609,42.3456,682.8704,41.6623,693.2798,42.1485,703.6892,41.0898,714.0987,40.9612,724.5081,42.1913,734.9175,40.9199,745.327,42.1968,755.7364,41.8819,766.1458,41.6667,766.1102,41.5807,766.8354,41.8583,767.6799,42.424,768.3158,42.4859,769.1708,43.0769,769.8287,43.1922,769.6514,43.1187,770.3318,44.0108,770.5942,44.7296,770.8226,45.4344,771.0642,46.1447,771.3542,46.875,772.1111,46.875,771.9933,57.3126,771.5305,67.7502,771.6335,78.1878,771.2185,88.6254,772.1005,99.063,771.5155,109.5006,771.5339,119.9382,770.7205,130.3757,770.9321,140.8133,771.907,151.2509,771.8018,161.6885,771.3094,172.1261,771.0186,182.5637,771.1261,193.0013,770.6394,203.4389,771.7862,213.8765,772.1245,224.3141,771.9025,234.7517,772.0781,245.1893,771.2117,255.6269,771.445,266.0645,770.9504,276.502,771.65,286.9396,771.6112,297.3772,771.9296,307.8148,771.1149,318.2524,771.2142,328.69,771.8161,339.1276,771.9451,349.5652,770.8203,360.0028,771.1522,370.4404,771.5096,380.878,770.7179,391.3156,771.7223,401.7532,771.6229,412.1908,771.2492,422.6283,771.5023,433.0659,772.1132,443.5035,771.0283,453.9411,771.6823,464.3787,771.6517,474.8163,771.4748,485.2539,771.501,495.6915,771.4724,506.1291,770.704,516.5667,770.9366,527.0043,770.8734,537.4419,771.4207,547.8795,771.446,558.3171,771.5227,568.7547,771.0511,579.1922,771.2838,589.6298,771.2289,600.0674,771.9551,610.505,771.7985,620.9426,771.3542,631.3802,771.1984,631.3157,771.0257,632.1071,770.5588,632.7766,770.5314,633.6282,770.329,634.4073,769.8287,635.0631,769.901,635.2377,769.0342,635.2284,768.4172,635.8221,767.5203,635.7401,766.909,636.3477,766.1458,636.5885,766.1458,636.2768,755.7364,636.6893,745.327,636.8389,734.9175,637.0803,724.5081,635.8386,714.0987,637.0838,703.6892,636.7741,693.2798,636.9587,682.8704,637.3675,672.4609,636.5943,662.0515,636.7711,651.6421,636.8109,641.2326,636.794,630.8232,636.5877,620.4138,637.3289,610.0043,635.9534,599.5949,637.1774,589.1855,635.9385,578.776,636.0257,568.3666,636.6302,557.9572,636.618,547.5477,636.0752,537.1383,637.0195,526.7289,636.7019,516.3194,637.3455,505.91,637.2834,495.5006,636.1216,485.0911,636.174,474.6817,636.454,464.2723,636.9589,453.8628,637.0083,443.4534,636.9022,433.044,636.2323,422.6345,637.2514,412.2251,637.2487,401.8157,636.5393,391.4063,636.3395,380.9968,636.1704,370.5874,636.365,360.178,636.7317,349.7685,636.5173,339.3591,636.1533,328.9497,637.0962,318.5402,636.1105,308.1308,637.1119,297.7214,637.0336,287.3119,636.9759,276.9025,637.3099,266.4931,636.3324,256.0836,636.2754,245.6742,637.129,235.2648,635.9668,224.8553,636.3448,214.4459,636.7088,204.0365,636.6601,193.627,636.2152,183.2176,636.5438,172.8082,637.3642,162.3987,637.264,151.9893,635.9674,141.5799,636.6703,131.1704,636.0532,120.761,636.5611,110.3516,636.8937,99.9421,637.0259,89.5327,635.8961,79.1233,637.0058,68.7138,636.5973,58.3044,636.0101,47.895,636.0979,37.4855,636.9287,27.0761,636.8488,16.6667,636.5885,16.6645,636.5833,15.8408,636.0678,15.281,636.1895,14.4155,635.5732,13.6502,635.1988,12.9838,635.0631,12.9622,635.0541,12.8679,634.4048,12.571,633.6717,12.0798,632.858,11.7149,632.0967,11.4583,631.3802,11.6352,631.3802,11.6523,620.9426,10.9294,610.505,11.8895,600.0674,12.0404,589.6298,11.2336,579.1922,11.0113,568.7547,12.1611,558.3171,11.4802,547.8795,11.4582,537.4419,11.7698,527.0043,10.7857,516.5667,12.0104,506.1291,11.4422,495.6915,12.155,485.2539,11.2335,474.8163,11.8844,464.3787,10.9959,453.9411,11.7136,443.5035,11.8534,433.0659,11.1173,422.6283,11.8365,412.1908,10.8631,401.7532,10.9682,391.3156,12.1696,380.878,12.1712,370.4404,12.0505,360.0028,11.0829,349.5652,11.8586,339.1276,10.9666,328.69,11.5189,318.2524,11.457,307.8148,11.185,297.3772,12.0999,286.9396,11.9201,276.502,11.1242,266.0645,12.0069,255.6269,11.554,245.1893,10.8504,234.7517,11.2153,224.3141,10.9112,213.8765,11.3135,203.4389,10.8032,193.0013,10.8332,182.5637,11.5316,172.1261,11.3329,161.6885,11.3973,151.2509,11.3092,140.8133,11.6326,130.3757,10.8801,119.9382,11.6251,109.5006,10.6842,99.063,11.7667,88.6254,12.0758,78.1878,12.0022,67.7502,11.8347,57.3126,11.4583,46.875,11.52,46.9005,11.7973,46.1525,11.8632,45.3168,12.5169,44.7246,12.7845,43.9725,12.9838,43.1922,12.9634,43.143,13.7196,42.8852,14.4292,42.515,15.2225,42.3467,16.0205,42.1901,16.6667,41.6667" style="stroke:#333333;stroke-width:1.0416666666666667;"/><path d="M98.9583,41.6667 L99.1529,41.6667 L98.5747,46.1719 L99.1373,50.6771 L99.3284,55.1823 L98.2978,59.6875 L98.9583,64.1927 L98.9075,64.1418 L96.5958,65.9968 L94.5406,68.1083 L92.6637,70.3981 L90.1723,72.0734 L88.5417,74.6094 L88.5417,76.1473 L77.5298,72.8586 L66.5179,74.06 L55.506,75.8092 L44.494,74.3711 L33.4821,74.7989 L22.4702,74.5206 L11.4583,74.6094 " fill="none" style="stroke:#333333;stroke-width:1.0416666666666667;"/><text fill="#333333" font-family="" font-size="16.6667" lengthAdjust="spacing" textLength="66.6667" x="19.7917" y="63.387">server.c</text><polygon fill="#474747" points="127.6042,92.3177,127.6042,92.5366,138.5417,91.8861,149.4792,92.519,160.4167,92.734,171.3542,91.5746,182.2917,92.2368,193.2292,92.3177,193.1725,92.1809,193.7675,92.4388,194.3986,92.784,194.9051,92.8282,195.6598,93.4716,196.1754,93.5381,195.9733,93.4543,196.3561,94.1011,196.8022,94.774,196.8802,95.2945,197.1736,95.9042,197.3958,96.4844,197.3847,96.4844,197.4578,103.2813,197.4789,110.0781,197.5992,116.875,197.6288,123.6719,197.3958,130.4688,197.6137,130.559,197.2334,131.0918,197.0564,131.7089,196.8889,132.3298,196.1882,132.7299,196.1754,133.415,196.2656,133.6327,195.5468,133.564,195.0679,134.0744,194.3419,133.9885,193.8093,134.3694,193.2292,134.6354,193.2292,135.4079,182.2917,134.5847,171.3542,134.7451,160.4167,134.9882,149.4792,135.069,138.5417,134.6313,127.6042,134.6354,127.6423,134.7276,126.9389,134.2077,126.4634,134.2385,125.9092,134.079,125.3062,133.8017,124.6579,133.415,124.8545,133.4965,124.2588,132.7616,123.9605,132.1499,123.7263,131.5647,123.6627,131.0502,123.4375,130.4688,123.3693,130.4688,123.6741,123.6719,123.3768,116.875,123.3184,110.0781,123.5168,103.2813,123.4375,96.4844,123.2236,96.3958,123.515,95.8261,124.1338,95.3921,124.3095,94.7745,124.6494,94.2249,124.6579,93.5381,124.6151,93.4349,125.2896,93.3964,125.9149,93.2393,126.3629,92.6543,127.0022,92.531,127.6042,92.3177" style="stroke:#333333;stroke-width:1.0416666666666667;"/><text fill="#FFFFFF" font-family="" font-size="16.6667" lengthAdjust="spacing" textLength="51.0417" x="134.8958" y="119.2464">main()</text><polygon fill="#474747" points="82.8125,155.4688,82.8125,155.6877,93.1597,155.0372,103.5069,155.6701,113.8542,155.8851,124.2014,154.7256,134.5486,155.3878,144.8958,155.0245,155.2431,155.0693,165.5903,155.3978,175.9375,154.7486,186.2847,156.0455,196.6319,154.8122,206.9792,155.2627,217.3264,155.9187,227.6736,155.3794,238.0208,155.4688,238.0299,155.4906,238.6058,155.7026,239.2231,156.0142,239.8204,156.2777,240.4557,156.6329,240.9671,156.6891,241.1824,156.7783,241.4291,157.3687,241.5369,157.9015,241.8481,158.5185,242.1687,159.1395,242.1875,159.6354,241.9371,159.6354,242.4231,166.4323,242.0845,173.2292,242.3729,180.026,242.0156,186.8229,242.1875,193.6198,242.1655,193.6107,242.1813,194.3076,241.6837,194.7918,241.489,195.4016,241.3198,196.0218,240.9671,196.5661,241.0224,196.6996,240.3773,196.8089,239.8268,197.1464,239.1233,197.1147,238.6479,197.6336,238.0208,197.7865,238.0208,198.3575,227.6736,198.2495,217.3264,198.425,206.9792,197.2832,196.6319,197.1071,186.2847,197.1392,175.9375,197.7251,165.5903,197.5817,155.2431,198.4963,144.8958,197.6045,134.5486,197.4291,124.2014,198.0242,113.8542,197.0918,103.5069,197.2457,93.1597,198.4624,82.8125,197.7865,82.8704,197.9262,82.3208,197.778,81.5912,197.1951,81.0871,197.1566,80.5339,196.9995,79.8662,196.5661,79.7147,196.5033,79.5914,195.9641,79.4185,195.4043,79.3431,194.8849,78.8886,194.2085,78.6458,193.6198,78.8064,193.6198,78.4535,186.8229,78.4107,180.026,78.8207,173.2292,78.3969,166.4323,78.6458,159.6354,78.8091,159.703,78.9562,159.0736,79.048,158.4213,79.2646,157.8206,79.7693,157.3394,79.8662,156.6891,79.8264,156.5931,80.5341,156.6349,80.9713,156.0237,81.716,156.155,82.2876,155.8682,82.8125,155.4688" style="stroke:#333333;stroke-width:1.0416666666666667;"/><text fill="#FFFFFF" font-family="" font-size="16.6667" lengthAdjust="spacing" textLength="140.625" x="90.1042" y="182.3975">initServerConfig()</text><polygon fill="#FFFACD" points="40.1042,208.2031,40.1042,208.4221,50.4755,207.7715,60.8469,208.4045,71.2183,208.6195,81.5897,207.46,91.9611,208.1222,102.3324,207.7589,112.7038,207.8036,123.0752,208.1321,133.4466,207.4829,143.8179,208.7798,154.1893,207.5466,164.5607,207.9971,174.9321,208.6531,185.3034,208.1138,195.6748,208.2742,206.0462,208.1698,216.4176,208.3891,226.7889,208.4522,237.1603,208.8132,247.5317,208.9021,257.9031,208.9107,268.2745,208.4684,278.6458,208.686,289.0172,208.9346,299.3886,207.4519,309.76,208.9099,320.1313,207.8943,330.5027,208.7592,340.8741,207.6875,351.2455,208.1318,361.6168,208.9756,371.9882,208.1524,382.3596,208.3128,392.731,208.5559,403.1024,208.6367,413.4737,208.1991,423.8451,208.5023,434.2165,207.6069,444.5879,208.4994,454.9592,208.7742,465.3306,208.6662,475.702,208.8417,486.0734,207.6999,496.4447,207.5238,506.8161,207.5558,517.1875,208.1418,527.5589,207.9984,537.9303,208.9129,548.3016,208.0212,558.673,207.8458,569.0444,208.4409,579.4158,207.5085,589.7871,207.6624,600.1585,208.8791,610.5299,208.6569,620.9013,208.9682,631.2726,207.8679,641.644,208.5356,652.0154,208.8181,662.3868,207.711,672.7582,208.1033,683.1295,208.3344,693.5009,208.882,703.8723,208.1988,714.2437,208.685,724.615,207.6263,734.9864,207.4976,745.3578,208.7277,755.7292,208.2031,755.6339,207.9731,756.5334,208.6715,757.2298,208.8796,757.9033,209.0325,758.6284,209.31,759.412,209.7286,759.5592,209.7896,759.6211,210.4254,760.2121,211.2804,760.15,211.8649,760.8305,212.7569,760.9375,213.4115,761.442,213.4115,761.1927,223.7802,760.9867,234.1488,761.6944,244.5175,761.5766,254.8862,761.1138,265.2549,761.2169,275.6236,760.8018,285.9923,761.6838,296.361,761.0988,306.7297,761.1173,317.0984,760.3038,327.4671,760.5154,337.8358,761.4904,348.2045,761.3852,358.5732,760.8928,368.9419,760.6019,379.3106,760.7094,389.6793,760.2227,400.048,760.9375,410.4167,761.0705,410.4718,760.8696,411.2515,760.4962,411.9598,760.2451,412.7187,759.6733,413.3448,759.412,414.0995,759.4236,414.1275,758.6239,414.2803,757.9766,414.8008,757.2351,415.094,756.5391,415.4971,755.7292,415.625,755.7292,415.3858,745.3578,415.485,734.9864,416.0869,724.615,416.216,714.2437,415.0911,703.8723,415.423,693.5009,415.7805,683.1295,414.9887,672.7582,415.9931,662.3868,415.8937,652.0154,415.52,641.644,415.7732,631.2726,416.384,620.9013,415.2991,610.5299,415.9531,600.1585,415.9225,589.7871,415.7456,579.4158,415.7718,569.0444,415.7432,558.673,414.9748,548.3016,415.2075,537.9303,415.1442,527.5589,415.6915,517.1875,415.7168,506.8161,415.7935,496.4447,415.3219,486.0734,415.5547,475.702,415.4998,465.3306,416.2259,454.9592,416.0693,444.5879,415.1192,434.2165,415.549,423.8451,415.0237,413.4737,415.9254,403.1024,416.2588,392.731,416.1923,382.3596,415.1713,371.9882,416.1083,361.6168,414.8512,351.2455,415.8335,340.8741,415.3132,330.5027,415.7258,320.1313,415.8753,309.76,416.1168,299.3886,414.8751,289.0172,416.1203,278.6458,415.8106,268.2745,415.9951,257.9031,416.404,247.5317,415.6307,237.1603,415.8076,226.7889,415.8473,216.4176,415.8305,206.0462,415.6242,195.6748,416.3653,185.3034,414.9899,174.9321,416.2138,164.5607,414.975,154.1893,415.0622,143.8179,415.6667,133.4466,415.6545,123.0752,415.1116,112.7038,416.056,102.3324,415.7384,91.9611,416.3819,81.5897,416.3199,71.2183,415.1581,60.8469,415.2105,50.4755,415.4904,40.1042,415.625,40.1514,415.739,39.4211,415.4492,38.671,415.1114,37.849,414.6,37.2424,414.6087,36.4213,414.0995,36.6246,414.1837,36.1011,413.3567,35.7344,412.5946,35.3773,411.8365,35.1321,411.1247,34.8958,410.4167,35.039,410.4167,34.8246,400.048,34.4606,389.6793,35.4035,379.3106,34.4178,368.9419,35.4191,358.5732,35.3409,348.2045,35.2832,337.8358,35.6172,327.4671,34.6397,317.0984,34.5827,306.7297,35.4363,296.361,34.2741,285.9923,34.6521,275.6236,35.0161,265.2549,34.9674,254.8862,34.5224,244.5175,34.8511,234.1488,35.6714,223.7802,34.8958,213.4115,35.1039,213.4976,35.0096,212.5957,35.5312,211.9488,35.6463,211.1335,36.1078,210.4617,36.4213,209.7286,36.4603,209.8226,37.2137,209.5582,37.8061,208.9052,38.6842,208.9418,39.3687,208.5109,40.1042,208.2031" style="stroke:#333333;stroke-width:1.0416666666666667;"/><path d="M223.4375,208.2031 L223.6321,208.2031 L223.0539,212.7083 L223.6165,217.2135 L223.8076,221.7188 L222.7769,226.224 L223.4375,230.7292 L223.3866,230.6783 L221.0749,232.5333 L219.0197,234.6447 L217.1429,236.9345 L214.6515,238.6098 L213.0208,241.1458 L213.0208,242.6837 L202.5429,239.3951 L192.065,240.5965 L181.587,242.3457 L171.1091,240.9076 L160.6311,241.3354 L150.1532,241.0571 L139.6752,241.6417 L129.1973,241.8101 L118.7194,242.7727 L108.2414,243.0099 L97.7635,243.0327 L87.2855,241.8531 L76.8076,242.4336 L66.3297,243.0965 L55.8517,239.1425 L45.3738,243.0306 L34.8958,241.1458 " fill="none" style="stroke:#333333;stroke-width:1.0416666666666667;"/><text fill="#FF4500" font-family="" font-size="16.6667" lengthAdjust="spacing" textLength="5.2083" x="43.2292" y="229.9235">&#160;</text><text fill="#FF4500" font-family="" font-size="16.6667" font-weight="bold" lengthAdjust="spacing" textLength="162.5" x="48.4375" y="229.9235">initServerConfig()</text><polygon fill="#474747" points="54.1667,258.8542,54.1667,259.0731,64.7917,258.4226,75.4167,259.0555,86.0417,259.2705,96.6667,258.111,107.2917,258.7732,117.9167,258.4099,128.5417,258.4547,139.1667,258.7832,149.7917,258.134,160.4167,259.4309,171.0417,258.1976,181.6667,258.6482,192.2917,259.3041,202.9167,258.7648,213.5417,258.9252,224.1667,258.8209,234.7917,259.0401,245.4167,259.1033,256.0417,259.4643,266.6667,258.8542,266.7558,259.0694,267.3462,259.3161,267.879,259.424,268.496,259.7351,269.117,260.0557,269.6129,260.0746,269.3816,259.9787,270.0747,260.754,270.006,261.2137,270.5164,261.9133,270.4305,262.3658,270.8333,263.0208,270.8095,263.0208,271.0908,269.8177,270.8164,276.6146,270.8699,283.4115,270.9509,290.2083,270.8333,297.0052,270.9669,297.0605,270.588,297.5939,270.4373,298.2219,269.9175,298.6969,269.9483,299.4,269.6129,299.9515,269.6858,300.1273,269.0828,300.3382,268.5159,300.6363,267.781,300.5288,267.1693,300.7186,266.6667,301.1719,266.6667,300.5246,256.0417,301.1105,245.4167,300.9672,234.7917,301.8817,224.1667,300.9899,213.5417,300.8145,202.9167,301.4097,192.2917,300.4773,181.6667,300.6311,171.0417,301.8479,160.4167,301.6257,149.7917,301.937,139.1667,300.8367,128.5417,301.5044,117.9167,301.7869,107.2917,300.6798,96.6667,301.072,86.0417,301.3031,75.4167,301.8508,64.7917,301.1675,54.1667,301.1719,54.2281,301.3203,53.5038,300.7501,52.8982,300.4665,52.4658,300.6012,51.7144,299.9656,51.2204,299.9515,51.3837,300.0191,51.0426,299.3897,50.6463,298.7374,50.3747,298.1367,50.3912,297.6554,50,297.0052,49.8961,297.0052,50.2055,290.2083,49.8081,283.4115,50.2144,276.6146,50.1682,269.8177,50,263.0208,50.0786,263.0534,50.2592,262.4379,50.7212,261.9389,50.9291,261.3346,51.0306,260.6863,51.2204,260.0746,51.256,260.1606,51.7923,259.7887,52.4941,259.8162,53.0087,259.392,53.6003,259.1536,54.1667,258.8542" style="stroke:#333333;stroke-width:1.0416666666666667;"/><text fill="#FFFFFF" font-family="" font-size="16.6667" lengthAdjust="spacing" textLength="197.9167" x="61.4583" y="285.7829">&#21021;&#22987;&#21270;server.commands</text><path d="M296.3542,332.7474 L296.5488,332.7474 L295.9705,337.8776 L296.5331,343.0078 L296.7242,348.138 L295.6936,353.2682 L296.3542,358.3984 L296.3401,358.3279 L292.1101,358.8445 L287.9512,359.7169 L283.8418,360.8366 L279.562,361.104 L275.5208,362.5651 L275.6214,363.0678 L279.573,362.8262 L283.8183,364.0522 L288.0993,365.4573 L292.1719,365.8206 L296.3542,366.7318 L296.4174,366.7318 L296.3246,371.862 L296.5195,376.9922 L296.5756,382.1224 L296.8965,387.2526 L296.3542,392.3828 L296.3542,392.3828 L296.3542,394.2469 L306.6761,394.2696 L316.9981,393.0901 L327.3201,393.6705 L337.642,394.3335 L347.964,390.3795 L358.286,394.2676 L368.608,391.5592 L378.9299,393.8656 L389.2519,391.0077 L399.5739,392.1925 L409.8958,394.4428 L420.2178,392.2474 L430.5398,392.6753 L440.8617,393.3234 L451.1837,393.539 L461.5057,392.372 L471.8277,393.1806 L482.1496,390.7928 L492.4716,393.1728 L502.7936,393.9056 L513.1155,393.6176 L523.4375,394.0857 L533.7595,391.0409 L544.0814,390.5712 L554.4034,390.6567 L564.7254,392.2193 L575.0473,391.8369 L585.3693,394.2756 L595.6913,391.8976 L606.0133,391.4299 L616.3352,393.0169 L626.6572,390.5305 L636.9792,390.9408 L647.3011,394.1855 L657.6231,393.593 L667.9451,394.4231 L678.267,391.4889 L688.589,393.2695 L698.911,394.0229 L709.233,391.0706 L719.5549,392.1165 L729.8769,392.7328 L740.1989,394.1933 L750.5208,392.3828 L750.5208,392.3828 L750.5092,392.3828 L751.8057,382.5391 L748.9825,372.6953 L748.6396,362.8516 L751.9198,353.0078 L750.5208,343.1641 L750.0514,342.6947 L748.7707,341.414 L746.4895,339.1327 L744.0954,336.7386 L741.9559,334.5991 L740.1042,332.7474 L740.1042,334.0217 L729.7844,331.9159 L719.4646,334.3915 L709.1449,331.212 L698.8251,334.4625 L688.5053,334.0927 L678.1856,333.4279 L667.8658,332.8786 L657.546,334.7658 L647.2263,334.4518 L636.9065,333.2176 L626.5867,333.4924 L616.267,332.3855 L605.9472,334.7375 L595.6274,333.1776 L585.3077,333.2268 L574.9879,331.0575 L564.6681,331.6218 L554.3484,334.2217 L544.0286,333.9412 L533.7088,332.6281 L523.3891,331.8525 L513.0693,332.1393 L502.7495,330.8414 L492.4297,333.8994 L482.11,334.8017 L471.7902,334.2096 L461.4704,334.6778 L451.1507,332.3676 L440.8309,332.9897 L430.5111,331.6707 L420.1914,333.5364 L409.8716,333.4329 L399.5518,334.2818 L389.2321,332.1095 L378.9123,332.374 L368.5925,333.9792 L358.2728,334.3233 L347.953,331.3237 L337.6332,332.2088 L327.3135,333.162 L316.9937,331.0506 L306.6739,333.729 L296.3542,332.7474 L296.3542,332.7474 " fill="#17A2B8" style="stroke:#1592A6;stroke-width:1.0416666666666667;"/><path d="M740.1042,332.7474 L740.2988,332.7474 L739.7205,334.8307 L740.2831,336.9141 L740.4742,338.9974 L739.4436,341.0807 L740.1042,343.1641 L740.1042,343.0921 L742.1875,342.7692 L744.2708,342.809 L746.3542,343.101 L748.4375,342.5239 L750.5208,343.1641 L750.8833,343.5265 L748.0248,340.6681 L746.2247,338.8679 L744.5536,337.1969 L742.1313,334.7746 L740.1042,332.7474 " fill="#17A2B8" style="stroke:#1592A6;stroke-width:1.0416666666666667;"/><text fill="#FFFFFF" font-family="" font-size="16.6667" lengthAdjust="spacing" textLength="364.5833" x="307.8125" y="358.6344">redisCommandTable&#37324;&#38754;&#26159;&#21629;&#20196;&#23545;&#24212;&#30340;&#22788;&#29702;&#20989;&#25968;</text><text fill="#FFFFFF" font-family="" font-size="16.6667" lengthAdjust="spacing" textLength="421.875" x="307.8125" y="378.0355">&#23558;&#26469;&#35299;&#26512;&#23458;&#25143;&#31471;&#20256;&#26469;&#30340;&#21629;&#20196;,&#25191;&#34892;&#30340;&#23545;&#24212;&#20989;&#25968;&#23601;&#22312;&#36825;&#37324;&#23450;&#20041;</text><polygon fill="#474747" points="49.4792,322.0052,49.4792,322.2241,60.0446,321.5736,70.6101,322.2065,81.1756,322.4215,91.7411,321.2621,102.3065,321.9243,112.872,321.5609,123.4375,321.6057,134.003,321.9342,144.5685,321.285,155.1339,322.5819,165.6994,321.3487,176.2649,321.7992,186.8304,322.4552,197.3958,321.9159,207.9613,322.0763,218.5268,321.9719,229.0923,322.1912,239.6577,322.2543,250.2232,322.6153,260.7887,322.7042,271.3542,322.0052,271.4444,322.2231,271.9773,322.331,272.5943,322.6421,273.2152,322.9627,273.6154,322.7502,274.3004,323.2256,274.5181,323.3158,274.4494,323.7755,274.9598,324.475,274.8739,324.9276,275.2548,325.5735,275.5208,326.1719,276.2933,326.1719,275.4701,336.5699,275.6305,346.968,275.8736,357.3661,275.9544,367.7641,275.5168,378.1622,275.82,388.5603,275.5208,398.9583,275.3372,398.8823,275.368,399.5854,275.2085,400.2097,274.9312,400.7852,274.7412,401.3968,274.3004,401.9046,274.2363,401.7496,273.6245,401.9395,273.0394,402.1934,272.5249,402.618,271.9173,402.8179,271.3542,403.125,271.3542,403.8348,260.7887,402.943,250.2232,402.7677,239.6577,403.3628,229.0923,402.4304,218.5268,402.5842,207.9613,403.801,197.3958,403.5788,186.8304,403.8901,176.2649,402.7898,165.6994,403.4575,155.1339,403.74,144.5685,402.6329,134.003,403.0251,123.4375,403.2562,112.872,403.8039,102.3065,403.1206,91.7411,403.6068,81.1756,402.5481,70.6101,402.4195,60.0446,403.6496,49.4792,403.125,49.3839,402.895,48.9575,403.0442,48.3281,402.7031,47.6758,402.3068,47.0751,402.0352,46.5329,401.9046,46.6801,401.9656,46.1928,401.2756,46.2346,400.8047,45.6233,400.0634,45.7546,399.6296,45.3125,398.9583,45.817,398.9583,45.5677,388.5603,45.3617,378.1622,46.0694,367.7641,45.9516,357.3661,45.4888,346.968,45.5919,336.5699,45.3125,326.1719,45.2707,326.1546,45.7864,325.6778,45.8503,325.0139,46.1001,324.427,46.0937,323.734,46.5329,323.2256,46.479,323.0956,47.1927,323.1518,47.7685,322.8753,48.295,322.4796,48.8471,322.1459,49.4792,322.0052" style="stroke:#333333;stroke-width:1.0416666666666667;"/><text fill="#FFFFFF" font-family="" font-size="16.6667" lengthAdjust="spacing" textLength="207.2917" x="56.7708" y="348.9339">populateCommandTable()</text><text fill="#FFFFFF" font-family="" font-size="16.6667" lengthAdjust="spacing" textLength="181.25" x="56.7708" y="368.335">&#25226;redisCommandTable</text><text fill="#FFFFFF" font-family="" font-size="16.6667" lengthAdjust="spacing" textLength="197.9167" x="56.7708" y="387.736">&#22635;&#20805;&#21040;server.commands</text><polygon fill="#474747" points="108.8542,436.4583,108.8542,436.6773,119.1667,436.0267,129.4792,436.6597,139.7917,436.8747,150.1042,435.7152,160.4167,436.3774,170.7292,436.0141,181.0417,436.0589,191.3542,436.3873,201.6667,435.7382,211.9792,436.4583,212.0527,436.6359,212.4847,436.5002,213.1314,436.883,213.8043,437.3291,214.3248,437.4071,214.9254,437.6787,214.9473,437.6878,215.1593,438.2637,215.4709,438.881,215.7344,439.4783,216.0896,440.1136,216.1458,440.625,216.3788,440.625,216.3817,447.4219,216.2342,454.2188,216.3068,461.0156,216.3897,467.8125,216.1458,474.6094,215.9145,474.5135,216.1194,475.2888,215.5626,475.7485,215.5848,476.4481,215.0107,476.9006,214.9254,477.5557,214.9163,477.5337,214.4347,478.0376,213.7405,478.0282,213.1717,478.3217,212.6134,478.6406,211.9792,478.776,211.9792,479.2096,201.6667,478.772,191.3542,479.0752,181.0417,478.1798,170.7292,479.0723,160.4167,479.3471,150.1042,479.2391,139.7917,479.4146,129.4792,478.2728,119.1667,478.0967,108.8542,478.776,108.7716,478.5767,108.2571,478.5131,107.6495,478.2248,107.1769,478.2624,106.4739,477.7437,105.9079,477.5557,105.7978,477.5101,105.737,476.9967,105.2058,476.2885,105.0091,475.7189,105.1398,475.2849,104.6875,474.6094,104.8388,474.6094,104.9425,467.8125,104.5758,461.0156,104.7983,454.2188,104.8925,447.4219,104.6875,440.625,104.536,440.5622,104.9008,440.023,105.2161,439.4632,105.6288,438.9438,105.6625,438.2674,105.9079,437.6787,105.9694,437.8271,106.4236,437.257,106.9964,436.9733,107.7426,437.108,108.1696,436.4724,108.8542,436.4583" style="stroke:#333333;stroke-width:1.0416666666666667;"/><text fill="#FFFFFF" font-family="" font-size="16.6667" lengthAdjust="spacing" textLength="88.5417" x="116.1458" y="463.387">initServer()</text><polygon fill="#F0E68C" points="27.0833,489.1927,27.0833,489.4116,37.5488,488.7611,48.0143,489.394,58.4798,489.609,68.9453,488.4496,79.4108,489.1118,89.8763,488.7484,100.3418,488.7932,110.8073,489.1217,121.2728,488.4725,131.7383,489.7694,142.2038,488.5362,152.6693,488.9867,163.1348,489.6427,173.6003,489.1034,184.0658,489.2638,194.5313,489.1594,204.9967,489.3787,215.4622,489.4418,225.9277,489.8028,236.3932,489.8917,246.8587,489.9003,257.3242,489.4579,267.7897,489.6756,278.2552,489.9242,288.7207,488.4415,299.1862,489.8995,309.6517,488.8839,320.1172,489.7488,330.5827,488.6771,341.0482,489.1214,351.5137,489.9652,361.9792,489.1419,372.4447,489.3024,382.9102,489.5454,393.3757,489.6263,403.8411,489.1886,414.3066,489.4919,424.7721,488.5964,435.2376,489.4889,445.7031,489.7637,456.1686,489.6558,466.6341,489.8313,477.0996,488.6895,487.5651,488.5134,498.0306,488.5454,508.4961,489.1314,518.9616,488.988,529.4271,489.9025,539.8926,489.0108,550.3581,488.8354,560.8236,489.4305,571.2891,488.4981,581.7546,488.652,592.2201,489.8687,602.6855,489.6465,613.151,489.9578,623.6165,488.8575,634.082,489.5252,644.5475,489.8077,655.013,488.7006,665.4785,489.0929,675.944,489.3239,686.4095,489.8716,696.875,489.1927,696.8744,489.1914,697.673,489.6462,698.2746,489.6253,698.9947,489.8907,699.8882,490.5747,700.5578,490.7182,700.3279,490.6229,701.0262,491.5224,701.2343,492.2188,701.3872,492.8923,701.6647,493.6175,702.0833,494.401,702.5612,494.401,701.7715,504.7743,702.6999,515.1476,701.5076,525.5208,702.7265,535.8941,702.5878,546.2674,702.3385,556.6406,702.1325,567.0139,702.8402,577.3872,702.7225,587.7604,702.2596,598.1337,702.3627,608.5069,702.0833,618.8802,702.0415,618.8629,702.0081,619.712,701.5228,620.3739,701.2234,621.1128,700.6678,621.7457,700.5578,622.5631,700.504,622.4331,699.8918,623.0384,699.1418,623.3111,698.3424,623.4646,697.5688,623.6801,696.875,624.0885,696.875,623.8605,686.4095,623.3738,675.944,624.5206,665.4785,624.8589,655.013,624.6369,644.5475,624.8124,634.082,623.9461,623.6165,624.1794,613.151,623.6848,602.6855,624.3844,592.2201,624.3456,581.7546,624.6639,571.2891,623.8493,560.8236,623.9485,550.3581,624.5505,539.8926,624.6795,529.4271,623.5547,518.9616,623.8866,508.4961,624.244,498.0306,623.4522,487.5651,624.4567,477.0996,624.3573,466.6341,623.9836,456.1686,624.2367,445.7031,624.8476,435.2376,623.7626,424.7721,624.4167,414.3066,624.3861,403.8411,624.2091,393.3757,624.2353,382.9102,624.2067,372.4447,623.4384,361.9792,623.671,351.5137,623.6078,341.0482,624.155,330.5827,624.1803,320.1172,624.257,309.6517,623.7854,299.1862,624.0182,288.7207,623.9633,278.2552,624.6894,267.7897,624.5329,257.3242,623.5828,246.8587,624.0126,236.3932,623.4873,225.9277,624.3889,215.4622,624.7224,204.9967,624.6558,194.5313,623.6348,184.0658,624.5718,173.6003,623.3148,163.1348,624.297,152.6693,623.7768,142.2038,624.1893,131.7383,624.3389,121.2728,624.5803,110.8073,623.3386,100.3418,624.5838,89.8763,624.2741,79.4108,624.4587,68.9453,624.8675,58.4798,624.0943,48.0143,624.2711,37.5488,624.3109,27.0833,624.0885,27.1095,624.1518,26.3467,623.7832,25.7046,623.7063,24.7926,622.9776,24.2122,623.0495,23.4005,622.5631,23.2003,622.4801,22.9221,621.7547,22.8031,621.0952,22.4943,620.3571,22.022,619.5513,21.875,618.8802,22.306,618.8802,21.9884,608.5069,22.6319,598.1337,22.5699,587.7604,21.4081,577.3872,21.4605,567.0139,21.7404,556.6406,22.2453,546.2674,22.2948,535.8941,22.1887,525.5208,21.5188,515.1476,22.5379,504.7743,21.875,494.401,22.0783,494.4853,22.1649,493.6582,22.4085,492.8961,22.6615,492.138,23.0266,491.4263,23.4005,490.7182,23.4187,490.7623,24.128,490.3912,24.8181,489.974,25.675,489.9593,26.2858,489.3506,27.0833,489.1927" style="stroke:#333333;stroke-width:1.0416666666666667;"/><path d="M152.0833,489.1927 L152.2779,489.1927 L151.6997,493.6979 L152.2623,498.2031 L152.4534,502.7083 L151.4228,507.2135 L152.0833,511.7188 L152.0325,511.6679 L149.7208,513.5228 L147.6656,515.6343 L145.7887,517.9241 L143.2973,519.5994 L141.6667,522.1354 L141.6667,523.6733 L131.684,520.3846 L121.7014,521.5861 L111.7188,523.3353 L101.7361,521.8971 L91.7535,522.325 L81.7708,522.0467 L71.7882,522.6313 L61.8056,522.7997 L51.8229,523.7623 L41.8403,523.9995 L31.8576,524.0222 L21.875,522.1354 " fill="none" style="stroke:#333333;stroke-width:1.0416666666666667;"/><text fill="#FF4500" font-family="" font-size="16.6667" lengthAdjust="spacing" textLength="5.2083" x="30.2083" y="510.9131">&#160;</text><text fill="#FF4500" font-family="" font-size="16.6667" font-weight="bold" lengthAdjust="spacing" textLength="104.1667" x="35.4167" y="510.9131">initServer()</text><path d="M309.375,532.5521 L309.5696,532.5521 L308.9914,539.6224 L309.554,546.6927 L309.7451,553.763 L308.7144,560.8333 L309.375,567.9036 L309.3609,567.8331 L305.1309,568.3497 L300.972,569.2221 L296.8626,570.3418 L292.5828,570.6093 L288.5417,572.0703 L288.6422,572.573 L292.5939,572.3314 L296.8391,573.5574 L301.1201,574.9625 L305.1928,575.3258 L309.375,576.237 L309.4382,576.237 L309.3454,583.3073 L309.5403,590.3776 L309.5964,597.4479 L309.9173,604.5182 L309.375,611.5885 L309.375,611.5885 L309.375,613.4526 L319.7072,613.4754 L330.0394,612.2958 L340.3716,612.8763 L350.7038,613.5392 L361.036,609.5852 L371.3682,613.4733 L381.7005,610.7649 L392.0327,613.0714 L402.3649,610.2135 L412.6971,611.3983 L423.0293,613.6486 L433.3615,611.4532 L443.6937,611.881 L454.0259,612.5292 L464.3581,612.7447 L474.6903,611.5777 L485.0225,612.3864 L495.3547,609.9985 L505.6869,612.3785 L516.0191,613.1113 L526.3514,612.8234 L536.6836,613.2914 L547.0158,610.2467 L557.348,609.7769 L567.6802,609.8624 L578.0124,611.425 L588.3446,611.0426 L598.6768,613.4814 L609.009,611.1033 L619.3412,610.6356 L629.6734,612.2226 L640.0056,609.7362 L650.3378,610.1465 L660.67,613.3912 L671.0023,612.7987 L681.3345,613.6288 L691.6667,611.5885 L691.6667,611.5885 L690.7728,611.5885 L692.5533,601.7857 L693.3067,591.9829 L690.3544,582.1801 L691.4004,572.3772 L692.0166,562.5744 L693.4771,552.7716 L691.6667,542.9688 L691.6639,542.966 L689.8862,541.1883 L687.1374,538.4395 L684.9732,536.2753 L683.6631,534.9651 L681.25,532.5521 L681.25,530.5606 L670.9201,533.9659 L660.5903,533.1261 L650.2604,531.8079 L639.9306,531.5694 L629.6007,533.8264 L619.2708,531.7206 L608.941,534.1961 L598.6111,531.0167 L588.2813,534.2672 L577.9514,533.8974 L567.6215,533.2326 L557.2917,532.6832 L546.9618,534.5704 L536.6319,534.2565 L526.3021,533.0222 L515.9722,533.2971 L505.6424,532.1902 L495.3125,534.5422 L484.9826,532.9823 L474.6528,533.0315 L464.3229,530.8622 L453.9931,531.4265 L443.6632,534.0264 L433.3333,533.7459 L423.0035,532.4328 L412.6736,531.6572 L402.3438,531.9439 L392.0139,530.646 L381.684,533.7041 L371.3542,534.6064 L361.0243,534.0143 L350.6944,534.4824 L340.3646,532.1723 L330.0347,532.7944 L319.7049,531.4754 L309.375,532.5521 L309.375,532.5521 " fill="#17A2B8" style="stroke:#1592A6;stroke-width:1.0416666666666667;"/><path d="M681.25,532.5521 L681.4446,532.5521 L680.8664,534.6354 L681.429,536.7188 L681.6201,538.8021 L680.5894,540.8854 L681.25,542.9688 L681.25,542.8968 L683.3333,542.5738 L685.4167,542.6137 L687.5,542.9056 L689.5833,542.3286 L691.6667,542.9688 L692.0292,543.3312 L689.1707,540.4728 L687.3705,538.6726 L685.6995,537.0016 L683.2772,534.5793 L681.25,532.5521 " fill="#17A2B8" style="stroke:#1592A6;stroke-width:1.0416666666666667;"/><text fill="#FFFFFF" font-family="" font-size="16.6667" lengthAdjust="spacing" textLength="310.4167" x="320.8333" y="558.4391">&#25105;&#20204;select 0 ,&#36873;&#25321;redis&#25968;&#25454;&#24211;, &#19968;&#20849;16&#20010;</text><text fill="#FFFFFF" font-family="" font-size="16.6667" lengthAdjust="spacing" textLength="244.7917" x="320.8333" y="577.8402">0&#21495;&#25968;&#25454;&#24211;&#23545;&#24212;&#30340;&#26159;server.db[0]</text><text fill="#FFFFFF" font-family="" font-size="16.6667" lengthAdjust="spacing" textLength="350" x="320.8333" y="597.2412">&#20320;&#22312;&#36825;&#20010;&#25968;&#25454;&#24211;&#37324;&#28155;&#21152;&#30340;&#25152;&#26377;&#25968;&#25454;&#37117;&#20250;&#20889;&#20837;&#36825;&#37324;</text><polygon fill="#474747" points="36.4583,550.9115,36.4583,551.1304,46.7882,550.4799,57.1181,551.1128,67.4479,551.3278,77.7778,550.1683,88.1076,550.8305,98.4375,550.4672,108.7674,550.512,119.0972,550.8405,129.4271,550.1913,139.7569,551.4882,150.0868,550.2549,160.4167,550.7055,170.7465,551.3614,181.0764,550.8221,191.4063,550.9825,201.7361,550.8782,212.066,551.0974,222.3958,551.1606,232.7257,551.5216,243.0556,551.6105,253.3854,551.619,263.7153,551.1767,274.0451,551.3944,284.375,550.9115,284.4683,551.1367,284.8684,550.9242,285.6437,551.6173,286.1034,551.5486,286.803,552.059,287.3213,552.1318,287.1625,552.0661,287.5434,552.712,288.0473,553.4089,288.0379,553.8931,288.3314,554.5029,288.5417,555.0781,288.6592,555.0781,288.6862,561.875,288.5403,568.6719,288.6414,575.4688,288.3429,582.2656,288.5417,589.0625,288.6329,589.1003,288.4734,589.7246,288.1961,590.3001,288.0061,590.9117,287.4104,591.3553,287.3213,592.0088,287.2346,591.7996,286.6495,592.0535,286.1349,592.478,285.5274,592.678,285.0548,593.2037,284.375,593.2292,284.375,593.0472,274.0451,592.8718,263.7153,593.4669,253.3854,592.5345,243.0556,592.6884,232.7257,593.9052,222.3958,593.683,212.066,593.9943,201.7361,592.894,191.4063,593.5617,181.0764,593.8442,170.7465,592.7371,160.4167,593.1293,150.0868,593.3604,139.7569,593.9081,129.4271,593.2248,119.0972,593.711,108.7674,592.6523,98.4375,592.5237,88.1076,593.7538,77.7778,592.4824,67.4479,593.7593,57.1181,593.4444,46.7882,592.9501,36.4583,593.2292,36.4113,593.1157,35.93,593.1323,35.24,592.645,34.7692,592.6868,34.0279,592.0755,33.5121,592.0088,33.7101,592.0908,33.4233,591.4839,33.1025,590.8628,32.795,590.2473,32.7688,589.7483,32.2917,589.0625,32.5047,589.0625,32.3504,582.2656,32.3848,575.4688,32.2464,568.6719,32.5404,561.875,32.2917,555.0781,32.3413,555.0987,32.5911,554.5118,32.5847,553.8188,32.8939,553.2565,33.4382,552.7916,33.5121,552.1318,33.5692,552.2697,34.0956,551.874,34.6478,551.5403,35.2507,551.3294,35.7779,550.9354,36.4583,550.9115" style="stroke:#333333;stroke-width:1.0416666666666667;"/><text fill="#FFFFFF" font-family="" font-size="16.6667" lengthAdjust="spacing" textLength="233.3333" x="43.75" y="577.8402">&#32473;server.db&#20998;&#37197;&#20869;&#23384;,&#24182;&#21021;&#22987;&#21270;</text><polygon fill="none" points="171.9383,671.6673,170.2587,673.9623,168.2721,677.3237,165.4309,679.589,162.4452,680.8277,160.0646,680.9352,157.0049,679.386,154.1179,678.3739,151.9266,676.3189,150.7771,673.9664,150.0955,672.0933,149.4277,669.6466,148.3437,667.5411,149.1767,665.4854,149.9065,663.2336,152.6451,661.4526,154.5718,659.1418,156.9567,658.3744,159.7918,657.7136,163.4275,658.1062,165.4188,659.0453,167.7341,659.471,170.5491,662.3552,171.5305,665.3999,171.9568,667.4775,171.4739,670.9009" style="stroke:#2E2E2E;stroke-width:1.0416666666666667;"/><polygon fill="#2E2E2E" points="166.7012,670.4005,165.7851,671.6522,164.7014,673.4857,163.1517,674.7213,161.5231,675.397,160.2246,675.4557,158.5557,674.6106,156.981,674.0586,155.7857,672.9377,155.1587,671.6545,154.7869,670.6328,154.4227,669.2982,153.8314,668.1498,154.2858,667.0285,154.6838,665.8002,156.1776,664.8288,157.2286,663.5683,158.5294,663.1498,160.0758,662.7893,162.0589,663.0035,163.1451,663.5157,164.408,663.7479,165.9435,665.3211,166.4787,666.9819,166.7113,668.1151,166.4479,669.9824" style="stroke:#171717;stroke-width:1.0416666666666667;"/><path d="M160.4167,134.6354 L160.514,134.6354 L160.2249,138.8021 L160.5062,142.9688 L160.6017,147.1354 L160.0864,151.3021 L160.4167,155.4688 " fill="#333333" style="stroke:#333333;stroke-width:3.125;"/><polygon fill="#333333" points="156.25,145.0521,156.3178,145.0792,156.9498,147.082,157.979,149.2437,158.8789,151.3536,159.3533,153.2934,160.4167,155.4688,160.3916,155.4587,161.1125,153.3304,161.9597,151.2526,162.8947,149.21,163.5271,147.0463,164.5833,145.0521,164.7193,145.188,163.5953,145.7307,162.8681,146.6702,162.1894,147.6581,161.2289,148.3644,160.4167,149.2188,160.4334,149.2355,159.5755,148.3776,158.7938,147.5959,157.9754,146.7775,157.2271,146.0292,156.25,145.0521" style="stroke:#333333;stroke-width:1.0416666666666667;"/><path d="M160.4167,301.1719 L160.514,301.1719 L160.2249,305.3385 L160.5062,309.5052 L160.6017,313.6719 L160.0864,317.8385 L160.4167,322.0052 " fill="#333333" style="stroke:#333333;stroke-width:3.125;"/><polygon fill="#333333" points="156.25,311.5885,156.3178,311.6156,156.9498,313.6184,157.979,315.7801,158.8789,317.8901,159.3533,319.8299,160.4167,322.0052,160.3916,321.9952,161.1125,319.8669,161.9597,317.7891,162.8947,315.7464,163.5271,313.5827,164.5833,311.5885,164.7193,311.7245,163.5953,312.2671,162.8681,313.2067,162.1894,314.1946,161.2289,314.9008,160.4167,315.7552,160.4334,315.772,159.5755,314.914,158.7938,314.1324,157.9754,313.3139,157.2271,312.5657,156.25,311.5885" style="stroke:#333333;stroke-width:1.0416666666666667;"/><path d="M160.4167,197.7865 L160.7086,197.7865 L159.8412,207.9644 L160.6851,218.1424 L160.9718,228.3203 L159.4258,238.4983 L160.3087,248.6762 L160.4167,258.8542 " fill="#333333" style="stroke:#333333;stroke-width:3.125;"/><polygon fill="#333333" points="156.25,248.4375,156.3178,248.4646,156.9498,250.4674,157.979,252.6291,158.8789,254.739,159.3533,256.6788,160.4167,258.8542,160.3916,258.8441,161.1125,256.7158,161.9597,254.638,162.8947,252.5954,163.5271,250.4317,164.5833,248.4375,164.7193,248.5734,163.5953,249.1161,162.8681,250.0556,162.1894,251.0436,161.2289,251.7498,160.4167,252.6042,160.4334,252.6209,159.5755,251.763,158.7938,250.9813,157.9754,250.1629,157.2271,249.4146,156.25,248.4375" style="stroke:#333333;stroke-width:1.0416666666666667;"/><path d="M160.4167,403.125 L160.514,403.125 L160.2249,409.7917 L160.5062,416.4583 L160.6017,423.125 L160.0864,429.7917 L160.4167,436.4583 " fill="#333333" style="stroke:#333333;stroke-width:3.125;"/><polygon fill="#333333" points="156.25,426.0417,156.3178,426.0688,156.9498,428.0716,157.979,430.2333,158.8789,432.3432,159.3533,434.283,160.4167,436.4583,160.3916,436.4483,161.1125,434.32,161.9597,432.2422,162.8947,430.1995,163.5271,428.0358,164.5833,426.0417,164.7193,426.1776,163.5953,426.7203,162.8681,427.6598,162.1894,428.6477,161.2289,429.3539,160.4167,430.2083,160.4334,430.2251,159.5755,429.3672,158.7938,428.5855,157.9754,427.767,157.2271,427.0188,156.25,426.0417" style="stroke:#333333;stroke-width:1.0416666666666667;"/><path d="M160.4167,478.776 L160.7086,478.776 L159.8412,489.0811 L160.6851,499.3862 L160.9718,509.6912 L159.4258,519.9963 L160.3087,530.3013 L159.8243,540.6064 L160.4167,550.9115 " fill="#333333" style="stroke:#333333;stroke-width:3.125;"/><polygon fill="#333333" points="156.25,540.4948,156.3178,540.5219,156.9498,542.5247,157.979,544.6864,158.8789,546.7963,159.3533,548.7361,160.4167,550.9115,160.3916,550.9014,161.1125,548.7731,161.9597,546.6953,162.8947,544.6527,163.5271,542.489,164.5833,540.4948,164.7193,540.6307,163.5953,541.1734,162.8681,542.1129,162.1894,543.1008,161.2289,543.8071,160.4167,544.6615,160.4334,544.6782,159.5755,543.8203,158.7938,543.0386,157.9754,542.2202,157.2271,541.4719,156.25,540.4948" style="stroke:#333333;stroke-width:1.0416666666666667;"/><path d="M160.4167,31.25 L160.7086,31.25 L159.8412,41.428 L160.6851,51.6059 L160.9718,61.7839 L159.4258,71.9618 L160.3087,82.1398 L160.4167,92.3177 " fill="#333333" style="stroke:#333333;stroke-width:3.125;"/><polygon fill="#333333" points="156.25,81.901,156.3178,81.9281,156.9498,83.9309,157.979,86.0926,158.8789,88.2026,159.3533,90.1424,160.4167,92.3177,160.3916,92.3077,161.1125,90.1794,161.9597,88.1016,162.8947,86.0589,163.5271,83.8952,164.5833,81.901,164.7193,82.037,163.5953,82.5796,162.8681,83.5192,162.1894,84.5071,161.2289,85.2133,160.4167,86.0677,160.4334,86.0845,159.5755,85.2265,158.7938,84.4449,157.9754,83.6264,157.2271,82.8782,156.25,81.901" style="stroke:#333333;stroke-width:1.0416666666666667;"/><path d="M160.4167,593.2292 L160.7086,593.2292 L159.8412,603.928 L160.6851,614.6267 L160.9718,625.3255 L159.4258,636.0243 L160.3087,646.7231 L160.4167,657.4219 " fill="#333333" style="stroke:#333333;stroke-width:3.125;"/><polygon fill="#333333" points="156.25,647.0052,156.3178,647.0323,156.9498,649.0351,157.979,651.1968,158.8789,653.3067,159.3533,655.2465,160.4167,657.4219,160.3916,657.4119,161.1125,655.2835,161.9597,653.2058,162.8947,651.1631,163.5271,648.9994,164.5833,647.0052,164.7193,647.1411,163.5953,647.6838,162.8681,648.6233,162.1894,649.6113,161.2289,650.3175,160.4167,651.1719,160.4334,651.1886,159.5755,650.3307,158.7938,649.549,157.9754,648.7306,157.2271,647.9823,156.25,647.0052" style="stroke:#333333;stroke-width:1.0416666666666667;"/><!--SRC=[XLDDJzj04BtxLspfeH2bRUY10o2aGjLJeLB3hUfXiIVEAlQkPMz0QHK9gIGa0LHGFmG8Ag0Wsj92k9IF4FNFU1toBxgsWsD1QNsmDFDctfjvOz_XMJ01EJdWQhQWE3b2BMnZ4zcOvXomqAEK4ijQMCrX7IO9D-2nGNHg0kN8W0oF5McGmNc3FsMKJs19tjEZ33kyOC28ecXCpGSzRnI4qAYaqssMfzeOCvYDPhA4Wr9KiCh9DE659mJhFcDGZ7p2D7aDg7yWYE-XI0AXvnROc3Dxd56MJfltnq4ZUJEearDnmWcZ7Hx_UH6AsXHir9yAqiNWJHc7M5se4KutQiXnOyWpGY549l1q8GPSNwi0Xi5cEY95PVXXnms7oycKxdWEsDDWFr13-K4J4zhRDnG6X1AU3l0nHZD4lmAwtNSDC1bLioIJaT6mwaiFCdb77MpGHb0YSPCZaOZjEYWgcs9_GIn-kXg4cIQccZFKBR6ObJSmbti7q2IUCg2tByAzMarg4ISEHw3OFX2bagZKRwKFpBU9dkLHwWPTUtwnlRdZhHw9bQRRs1L7P-ByGsjzJkpEjPRBOhxfVQnt9UjbRtFlSl-BztbP7EvubPFMmP5xiIMJVal0aFIg-vVRYtuSS8KKeduiDhvU_bwJUk9mtJshHgH0jM3Is5SJEyzV3fFBuXpvpqNyMyHEqMgiTLpIfaIbt2ujYN99_5nDYhDVqPd-QPnNMN4RFnmmGEKeXPBjsQgty2smKwxdBHsAy_T9v9xEYj9n_u1x-ZtgJ8bt9r59vAzqF9hePUfLLEqsjqAZ94NK9KtpJXgYjkKtLcUzZMe8jTystOjrKLuJfRtGszjSBSg_Wrb_0000]--></g></svg>