<?xml version="1.0" encoding="us-ascii" standalone="no"?><svg xmlns="http://www.w3.org/2000/svg" xmlns:xlink="http://www.w3.org/1999/xlink" contentStyleType="text/css" height="1265.625px" preserveAspectRatio="none" style="width:500px;height:1265px;" version="1.1" viewBox="0 0 500 1265" width="500px" zoomAndPan="magnify"><defs/><g><!--class redisDb--><g id="elem_redisDb"><polygon fill="none" points="311.4583,17.7083,311.4583,17.9273,321.7361,17.2767,332.0139,17.9097,342.2917,18.1247,352.5694,16.9652,362.8472,17.6274,373.125,17.2641,383.4028,17.3089,393.6806,17.6373,403.9583,16.9882,414.2361,18.285,424.5139,17.0518,434.7917,17.5023,445.0694,18.1583,455.3472,17.619,465.625,17.7083,465.6341,17.7302,466.21,17.9422,466.8272,18.2538,467.4245,18.5173,468.0598,18.8725,468.5713,18.9287,468.7865,19.0179,469.0333,19.6082,469.1411,20.1411,469.4522,20.7581,469.7729,21.3791,469.7917,21.875,469.0404,21.875,470.4984,32.4764,469.4828,43.0777,470.3477,53.6791,469.276,64.2805,469.7203,74.8818,470.5642,85.4832,469.7409,96.0846,469.9014,106.6859,470.1444,117.2873,470.2252,127.8886,469.7876,138.49,470.0908,149.0914,469.1954,159.6927,470.0879,170.2941,470.3627,180.8955,470.2547,191.4968,470.4302,202.0982,469.2885,212.6996,469.1123,223.3009,469.1444,233.9023,469.7303,244.5037,469.5869,255.105,469.7917,265.7064,470.0103,265.7969,469.4916,266.2724,469.1935,266.8393,469.1327,267.5045,468.6014,267.9748,468.5713,268.6527,468.5023,268.4861,468.0683,269.1049,467.4507,269.2806,466.9011,269.6205,466.1715,269.5257,465.625,269.873,465.625,270.2055,455.3472,270.4881,445.0694,269.381,434.7917,269.7732,424.5139,270.0043,414.2361,270.552,403.9583,269.8687,393.6806,270.3549,383.4028,269.2962,373.125,269.1676,362.8472,270.3976,352.5694,269.1262,342.2917,270.4032,332.0139,270.0883,321.7361,269.594,311.4583,269.873,311.4113,269.7596,310.93,269.7761,310.24,269.2889,309.7692,269.3307,309.0279,268.7194,308.5121,268.6527,308.7101,268.7347,308.4233,268.1278,308.1025,267.5067,307.795,266.8912,307.7688,266.3922,307.2917,265.7064,307.9308,265.7064,307.468,255.105,307.571,244.5037,307.156,233.9023,308.038,223.3009,307.453,212.6996,307.4714,202.0982,306.658,191.4968,306.8696,180.8955,307.8445,170.2941,307.7393,159.6927,307.2469,149.0914,306.9561,138.49,307.0636,127.8886,306.5769,117.2873,307.7237,106.6859,308.062,96.0846,307.84,85.4832,308.0156,74.8818,307.1492,64.2805,307.3825,53.6791,306.8879,43.0777,307.5875,32.4764,307.2917,21.875,307.3708,21.9078,307.7129,21.3591,307.7061,20.666,307.9808,20.0894,308.4102,19.5769,308.5121,18.9287,308.5874,19.1107,309.0332,18.5202,309.6648,18.3784,310.2997,18.2444,310.7879,17.7565,311.4583,17.7083" style="stroke:#333333;stroke-width:1.0416666666666667;"/><polygon fill="none" points="361.5159,39.1467,359.989,41.233,358.183,44.2888,355.6,46.3482,352.8858,47.4743,350.7216,47.5721,347.94,46.1637,345.3155,45.2436,343.3234,43.3754,342.2785,41.2368,341.6588,39.5339,341.0517,37.3096,340.0663,35.3956,340.8235,33.5268,341.4869,31.4796,343.9766,29.8606,345.7282,27.7598,347.8962,27.0622,350.4736,26.4615,353.7788,26.8184,355.5891,27.6722,357.6939,28.0592,360.253,30.6811,361.1451,33.4491,361.5327,35.3377,361.0937,38.45" style="stroke:#2E2E2E;stroke-width:1.0416666666666667;"/><path d="M349.9837,37.1501 Q348.4049,36.5479 347.8353,35.8805 Q347.2656,35.2132 347.2656,34.0902 Q347.2656,32.6416 348.1934,31.8278 Q349.1211,30.9977 350.7487,30.9977 Q351.4811,30.9977 352.2135,31.1768 Q352.946,31.3395 353.6621,31.665 L353.6621,33.7158 Q352.9785,33.2275 352.2786,32.9834 Q351.5951,32.7393 350.9115,32.7393 Q350.1465,32.7393 349.7396,33.0485 Q349.3327,33.3415 349.3327,33.9111 Q349.3327,34.3506 349.6257,34.6436 Q349.9186,34.9365 350.8626,35.2783 L351.7741,35.6201 Q353.0436,36.0921 353.6458,36.8734 Q354.2643,37.6546 354.2643,38.8265 Q354.2643,40.4378 353.304,41.2354 Q352.36,42.0329 350.4395,42.0329 Q349.6419,42.0329 348.8444,41.8376 Q348.0632,41.6423 347.3145,41.2842 L347.3145,39.1032 Q348.1608,39.7054 348.9421,39.9984 Q349.7233,40.2913 350.5046,40.2913 Q351.2695,40.2913 351.6927,39.9495 Q352.1322,39.5915 352.1322,38.9567 Q352.1322,38.4684 351.8392,38.1104 Q351.5625,37.7523 351.0254,37.5407 L349.9837,37.1501 Z " fill="#2E2E2E"/><text fill="#555555" font-family="Segoe Print" font-size="14.5833" lengthAdjust="spacing" textLength="56.25" x="376.0417" y="41.6616">redisDb</text><path d="M308.3333,55.5176 L308.3333,55.8095 L319.0278,54.9421 L329.7222,55.786 L340.4167,56.0727 L351.1111,54.5268 L361.8056,55.4096 L372.5,54.9252 L383.1944,54.9849 L393.8889,55.4229 L404.5833,54.5573 L415.2778,56.2865 L425.9722,54.6422 L436.6667,55.2429 L447.3611,56.1175 L458.0556,55.3984 L468.75,55.5176 " fill="none" style="stroke:#333333;stroke-width:1.0416666666666667;"/><text fill="#555555" font-family="Segoe Print" font-size="14.5833" lengthAdjust="spacing" textLength="63.5417" x="318.75" y="78.4292">dict *dict</text><path d="M308.3333,91.2435 L308.3333,91.5354 L319.0278,90.668 L329.7222,91.5119 L340.4167,91.7986 L351.1111,90.2527 L361.8056,91.1356 L372.5,90.6511 L383.1944,90.7109 L393.8889,91.1488 L404.5833,90.2833 L415.2778,92.0124 L425.9722,90.3681 L436.6667,90.9688 L447.3611,91.8434 L458.0556,91.1244 L468.75,91.2435 " fill="none" style="stroke:#333333;stroke-width:1.0416666666666667;stroke-dasharray:1.0,2.0;"/><text fill="#555555" font-family="Segoe Print" font-size="14.5833" lengthAdjust="spacing" textLength="89.5833" x="318.75" y="114.1551">dict *expires</text><path d="M308.3333,126.9694 L308.3333,127.2613 L319.0278,126.394 L329.7222,127.2379 L340.4167,127.5245 L351.1111,125.9786 L361.8056,126.8615 L372.5,126.377 L383.1944,126.4368 L393.8889,126.8747 L404.5833,126.0092 L415.2778,127.7383 L425.9722,126.094 L436.6667,126.6947 L447.3611,127.5693 L458.0556,126.8503 L468.75,126.9694 " fill="none" style="stroke:#333333;stroke-width:1.0416666666666667;stroke-dasharray:1.0,2.0;"/><text fill="#555555" font-family="Segoe Print" font-size="14.5833" lengthAdjust="spacing" textLength="138.5417" x="318.75" y="149.881">dict *blocking_keys</text><path d="M308.3333,162.6953 L308.3333,162.9872 L319.0278,162.1199 L329.7222,162.9638 L340.4167,163.2504 L351.1111,161.7045 L361.8056,162.5874 L372.5,162.103 L383.1944,162.1627 L393.8889,162.6007 L404.5833,161.7351 L415.2778,163.4643 L425.9722,161.8199 L436.6667,162.4206 L447.3611,163.2952 L458.0556,162.5762 L468.75,162.6953 " fill="none" style="stroke:#333333;stroke-width:1.0416666666666667;stroke-dasharray:1.0,2.0;"/><text fill="#555555" font-family="Segoe Print" font-size="14.5833" lengthAdjust="spacing" textLength="117.7083" x="318.75" y="185.6069">dict *ready_keys</text><path d="M308.3333,198.4212 L308.3333,198.7131 L319.0278,197.8458 L329.7222,198.6897 L340.4167,198.9763 L351.1111,197.4304 L361.8056,198.3133 L372.5,197.8289 L383.1944,197.8886 L393.8889,198.3266 L404.5833,197.461 L415.2778,199.1902 L425.9722,197.5458 L436.6667,198.1465 L447.3611,199.0212 L458.0556,198.3021 L468.75,198.4212 " fill="none" style="stroke:#333333;stroke-width:1.0416666666666667;stroke-dasharray:1.0,2.0;"/><text fill="#555555" font-family="Segoe Print" font-size="14.5833" lengthAdjust="spacing" textLength="139.5833" x="318.75" y="221.3328">dict *watched_keys</text><path d="M308.3333,234.1471 L308.3333,234.4391 L319.0278,233.5717 L329.7222,234.4156 L340.4167,234.7022 L351.1111,233.1563 L361.8056,234.0392 L372.5,233.5548 L383.1944,233.6145 L393.8889,234.0525 L404.5833,233.1869 L415.2778,234.9161 L425.9722,233.2717 L436.6667,233.8725 L447.3611,234.7471 L458.0556,234.028 L468.75,234.1471 " fill="none" style="stroke:#333333;stroke-width:1.0416666666666667;stroke-dasharray:1.0,2.0;"/><text fill="#555555" font-family="Segoe Print" font-size="14.5833" lengthAdjust="spacing" textLength="34.375" x="318.75" y="257.0587">int id</text></g><!--class dict--><g id="elem_dict"><polygon fill="none" points="307.2917,332.375,307.2917,332.5939,317.4479,331.9434,327.6042,332.5763,337.7604,332.7913,347.9167,331.6319,358.0729,332.294,368.2292,331.9307,378.3854,331.9755,388.5417,332.304,398.6979,331.6548,408.8542,332.9517,419.0104,331.7185,429.1667,332.169,439.3229,332.8249,449.4792,332.2856,459.6354,332.4461,469.7917,332.375,469.7874,332.3648,470.4046,332.6763,471.002,332.9399,471.6373,333.2951,472.2379,333.5666,472.7379,333.5954,472.9558,333.6856,473.0637,334.2185,473.3748,334.8355,473.6954,335.4565,473.4829,335.8566,473.9583,336.5417,474.6651,336.5417,473.6495,346.9469,474.5144,357.3522,473.4427,367.7575,473.887,378.1628,474.7308,388.568,473.9076,398.9733,474.068,409.3786,474.3111,419.7839,474.3919,430.1891,473.9543,440.5944,474.2575,450.9997,473.3621,461.4049,474.2546,471.8102,474.5294,482.2155,474.4214,492.6208,474.5969,503.026,473.4551,513.4313,473.279,523.8366,473.311,534.2419,473.9583,544.6471,473.9394,544.6393,473.6512,545.2103,473.6888,545.9162,473.1701,546.3917,472.872,546.9586,472.7379,547.5934,472.7683,547.6666,472.0601,547.6236,471.4905,547.915,471.0564,548.5338,470.4388,548.7095,469.7917,548.8138,469.7917,549.5789,459.6354,548.4786,449.4792,549.1463,439.3229,549.4288,429.1667,548.3217,419.0104,548.7139,408.8542,548.945,398.6979,549.4927,388.5417,548.8094,378.3854,549.2956,368.2292,548.2369,358.0729,548.1083,347.9167,549.3384,337.7604,548.067,327.6042,549.344,317.4479,549.029,307.2917,548.8138,307.2561,548.7279,306.6554,548.4562,306.1741,548.4728,305.4841,547.9855,305.0133,548.0274,304.3454,547.5934,304.1681,547.52,304.2994,547.0862,304.0126,546.4793,303.6917,545.8582,303.3842,545.2427,303.125,544.6471,303.8819,544.6471,303.7641,534.2419,303.3013,523.8366,303.4044,513.4313,302.9893,503.026,303.8713,492.6208,303.2863,482.2155,303.3048,471.8102,302.4913,461.4049,302.7029,450.9997,303.6779,440.5944,303.5727,430.1891,303.0803,419.7839,302.7894,409.3786,302.8969,398.9733,302.4102,388.568,303.557,378.1628,303.8954,367.7575,303.6733,357.3522,303.8489,346.9469,303.125,336.5417,303.0811,336.5235,303.3971,335.964,303.4888,335.3117,303.9484,334.8116,304.1805,334.2174,304.3454,333.5954,304.4188,333.7726,304.9041,333.2776,305.506,333.0641,306.1721,333.0054,306.7778,332.8011,307.2917,332.375" style="stroke:#333333;stroke-width:1.0416666666666667;"/><polygon fill="none" points="376.62,353.8134,375.0931,355.8997,373.2871,358.9555,370.7042,361.0148,367.9899,362.141,365.8258,362.2387,363.0442,360.8303,360.4197,359.9102,358.4276,358.0421,357.3826,355.9035,356.7629,354.2006,356.1558,351.9763,355.1704,350.0623,355.9277,348.1935,356.5911,346.1463,359.0808,344.5272,360.8324,342.4265,363.0004,341.7289,365.5778,341.1282,368.883,341.4851,370.6933,342.3388,372.798,342.7258,375.3572,345.3478,376.2493,348.1157,376.6369,350.0044,376.1979,353.1166" style="stroke:#2E2E2E;stroke-width:1.0416666666666667;"/><path d="M365.0879,351.8167 Q363.5091,351.2145 362.9395,350.5472 Q362.3698,349.8799 362.3698,348.7568 Q362.3698,347.3083 363.2975,346.4945 Q364.2253,345.6644 365.8529,345.6644 Q366.5853,345.6644 367.3177,345.8434 Q368.0501,346.0062 368.7663,346.3317 L368.7663,348.3825 Q368.0827,347.8942 367.3828,347.6501 Q366.6992,347.4059 366.0156,347.4059 Q365.2507,347.4059 364.8438,347.7152 Q364.4368,348.0081 364.4368,348.5778 Q364.4368,349.0173 364.7298,349.3102 Q365.0228,349.6032 365.9668,349.945 L366.8783,350.2868 Q368.1478,350.7588 368.75,351.54 Q369.3685,352.3213 369.3685,353.4932 Q369.3685,355.1045 368.4082,355.902 Q367.4642,356.6995 365.5436,356.6995 Q364.7461,356.6995 363.9486,356.5042 Q363.1673,356.3089 362.4186,355.9508 L362.4186,353.7699 Q363.265,354.3721 364.0462,354.665 Q364.8275,354.958 365.6087,354.958 Q366.3737,354.958 366.7969,354.6162 Q367.2363,354.2581 367.2363,353.6234 Q367.2363,353.1351 366.9434,352.777 Q366.6667,352.4189 366.1296,352.2074 L365.0879,351.8167 Z " fill="#2E2E2E"/><text fill="#555555" font-family="Segoe Print" font-size="14.5833" lengthAdjust="spacing" textLength="26.0417" x="391.1458" y="356.3282">dict</text><path d="M304.1667,370.1842 L304.1667,370.4762 L314.7135,369.6088 L325.2604,370.4527 L335.8073,370.7394 L346.3542,369.1934 L356.901,370.0763 L367.4479,369.5919 L377.9948,369.6516 L388.5417,370.0896 L399.0885,369.224 L409.6354,370.9532 L420.1823,369.3089 L430.7292,369.9096 L441.276,370.7842 L451.8229,370.0651 L462.3698,370.279 L472.9167,370.1842 " fill="none" style="stroke:#333333;stroke-width:1.0416666666666667;"/><text fill="#555555" font-family="Segoe Print" font-size="14.5833" lengthAdjust="spacing" textLength="104.1667" x="314.5833" y="393.0958">dictType *type</text><path d="M304.1667,405.9102 L304.1667,406.2021 L314.7135,405.3347 L325.2604,406.1786 L335.8073,406.4653 L346.3542,404.9193 L356.901,405.8022 L367.4479,405.3178 L377.9948,405.3775 L388.5417,405.8155 L399.0885,404.9499 L409.6354,406.6791 L420.1823,405.0348 L430.7292,405.6355 L441.276,406.5101 L451.8229,405.791 L462.3698,406.0049 L472.9167,405.9102 " fill="none" style="stroke:#333333;stroke-width:1.0416666666666667;stroke-dasharray:1.0,2.0;"/><text fill="#555555" font-family="Segoe Print" font-size="14.5833" lengthAdjust="spacing" textLength="96.875" x="314.5833" y="428.8217">void *privdata</text><path d="M304.1667,441.6361 L304.1667,441.928 L314.7135,441.0606 L325.2604,441.9045 L335.8073,442.1912 L346.3542,440.6452 L356.901,441.5281 L367.4479,441.0437 L377.9948,441.1034 L388.5417,441.5414 L399.0885,440.6758 L409.6354,442.405 L420.1823,440.7607 L430.7292,441.3614 L441.276,442.236 L451.8229,441.5169 L462.3698,441.7308 L472.9167,441.6361 " fill="none" style="stroke:#333333;stroke-width:1.0416666666666667;stroke-dasharray:1.0,2.0;"/><text fill="#555555" font-family="Segoe Print" font-size="14.5833" lengthAdjust="spacing" textLength="79.1667" x="314.5833" y="464.5476">dictht ht[2]</text><path d="M304.1667,477.362 L304.1667,477.6539 L314.7135,476.7865 L325.2604,477.6304 L335.8073,477.9171 L346.3542,476.3712 L356.901,477.254 L367.4479,476.7696 L377.9948,476.8293 L388.5417,477.2673 L399.0885,476.4017 L409.6354,478.1309 L420.1823,476.4866 L430.7292,477.0873 L441.276,477.9619 L451.8229,477.2428 L462.3698,477.4568 L472.9167,477.362 " fill="none" style="stroke:#333333;stroke-width:1.0416666666666667;stroke-dasharray:1.0,2.0;"/><text fill="#555555" font-family="Segoe Print" font-size="14.5833" lengthAdjust="spacing" textLength="105.2083" x="314.5833" y="500.2736">long rehashidx</text><path d="M304.1667,513.0879 L304.1667,513.3798 L314.7135,512.5124 L325.2604,513.3563 L335.8073,513.643 L346.3542,512.0971 L356.901,512.98 L367.4479,512.4955 L377.9948,512.5553 L388.5417,512.9932 L399.0885,512.1277 L409.6354,513.8568 L420.1823,512.2125 L430.7292,512.8132 L441.276,513.6878 L451.8229,512.9688 L462.3698,513.1827 L472.9167,513.0879 " fill="none" style="stroke:#333333;stroke-width:1.0416666666666667;stroke-dasharray:1.0,2.0;"/><text fill="#555555" font-family="Segoe Print" font-size="14.5833" lengthAdjust="spacing" textLength="147.9167" x="314.5833" y="535.9995">int16_t pauserehash</text></g><path d="M16.6667,408 L17.2505,408 L15.5158,418.957 L17.2036,429.9141 L17.7769,440.8711 L14.685,451.8281 L16.6667,462.7852 L16.6667,462.7852 L16.6667,462.5693 L27.0833,461.6005 L37.5,461.7199 L47.9167,462.5958 L58.3333,460.8647 L68.75,464.3231 L79.1667,461.0344 L89.5833,462.2358 L100,463.985 L110.4167,462.5469 L120.8333,462.9747 L131.25,462.6964 L141.6667,463.2811 L152.0833,463.4494 L162.5,464.4121 L172.9167,464.6492 L183.3333,464.672 L193.75,463.4925 L204.1667,464.0729 L214.5833,464.7358 L225,460.7819 L235.4167,464.6699 L245.8333,461.9615 L256.25,464.268 L266.6667,462.7852 L266.6667,462.7852 L266.2083,462.7852 L266.6032,458.14 L267.3533,453.4948 L266.6215,448.8496 L266.7642,444.2044 L266.6667,439.5592 L266.8048,439.8407 L274.9615,443.8932 L282.9151,447.5319 L291.1588,451.7618 L298.9331,455.0353 L307.2917,459.499 L307.7429,460.1474 L300.0365,455.0943 L291.747,449.2033 L283.8894,443.9328 L274.0251,435.7791 L266.6667,431.2259 L266.0628,431.2259 L266.0913,428.6641 L266.6121,426.1022 L266.4847,423.5404 L267.2976,420.9785 L266.6667,418.4167 L266.5523,418.3023 L264.3587,416.1087 L262.6495,414.3995 L259.9801,411.7301 L257.9934,409.7434 L256.25,408 L256.25,409.8026 L245.8333,409.2102 L235.4167,410.0403 L225,407.1061 L214.5833,408.8867 L204.1667,409.6401 L193.75,406.6878 L183.3333,407.7337 L172.9167,408.35 L162.5,409.8104 L152.0833,407.9884 L141.6667,409.2849 L131.25,406.4617 L120.8333,406.1187 L110.4167,409.3989 L100,406.0085 L89.5833,409.4138 L79.1667,408.574 L68.75,407.2558 L58.3333,407.0173 L47.9167,409.2743 L37.5,407.1685 L27.0833,409.6441 L16.6667,408 L16.6667,408 " fill="#17A2B8" style="stroke:#1592A6;stroke-width:1.0416666666666667;"/><path d="M256.25,408 L255.7382,408 L256.8217,410.0833 L256.6984,412.1667 L256.4768,414.25 L256.2937,416.3333 L256.25,418.4167 L256.25,419.0895 L258.3333,418.9848 L260.4167,418.5734 L262.5,418.665 L264.5833,418.2961 L266.6667,418.4167 L267.1357,418.8857 L264.6847,416.4347 L262.613,414.363 L260.0184,411.7684 L258.068,409.818 L256.25,408 " fill="#17A2B8" style="stroke:#1592A6;stroke-width:1.0416666666666667;"/><text fill="#FFFFFF" font-family="Segoe Print" font-size="14.5833" lengthAdjust="spacing" textLength="217.7083" x="28.125" y="431.9532">&#21704;&#24076;&#34920;,0&#21495;&#34920;&#31034;&#27491;&#22312;&#20351;&#29992;&#30340;&#21704;&#24076;&#34920;</text><text fill="#FFFFFF" font-family="Segoe Print" font-size="14.5833" lengthAdjust="spacing" textLength="161.4583" x="28.125" y="448.9292">1&#21495;&#34920;&#31034;rehash&#30340;&#21704;&#24076;&#34920;</text><!--class dictht--><g id="elem_dictht"><polygon fill="none" points="293.75,611.3125,293.75,611.5314,304.2824,610.8809,314.8148,611.5138,325.3472,611.7288,335.8796,610.5694,346.412,611.2315,356.9444,610.8682,367.4769,610.913,378.0093,611.2415,388.5417,610.5923,399.0741,611.8892,409.6065,610.656,420.1389,611.1065,430.6713,611.7624,441.2037,611.2231,451.7361,611.3836,462.2685,611.2792,472.8009,611.4985,483.3333,611.3125,483.3651,611.3892,484.0004,611.7445,484.601,612.0159,485.1914,612.2626,485.7242,612.3705,486.2796,612.5329,486.4283,612.5945,486.749,613.2155,486.5364,613.6156,487.2295,614.3908,487.1608,614.8505,487.5,615.4792,488.0561,615.4792,486.9844,625.6191,487.4286,635.7591,488.2725,645.8991,487.4492,656.0391,487.6097,666.179,487.8527,676.319,487.9336,686.459,487.4959,696.599,487.7992,706.7389,486.9037,716.8789,487.7962,727.0189,488.071,737.1589,487.9631,747.2988,488.1386,757.4388,486.9968,767.5788,486.8206,777.7188,487.5,787.8587,487.3007,787.7762,487.237,788.4402,486.9488,789.0111,486.9864,789.717,486.4677,790.1925,486.2796,790.805,486.234,790.695,485.7207,791.1223,485.0125,791.0792,484.4429,791.3707,484.0088,791.9895,483.3333,792.0254,483.3333,792.4792,472.8009,792.7905,462.2685,791.6902,451.7361,792.3579,441.2037,792.6404,430.6713,791.5333,420.1389,791.9255,409.6065,792.1566,399.0741,792.7043,388.5417,792.021,378.0093,792.5072,367.4769,791.4485,356.9444,791.3199,346.412,792.55,335.8796,791.2786,325.3472,792.5556,314.8148,792.2406,304.2824,791.7463,293.75,792.0254,293.703,791.9119,293.2217,791.9285,292.5317,791.4412,292.0609,791.483,291.3195,790.8718,290.8037,790.805,291.0018,790.887,290.715,790.2801,290.3942,789.659,290.0866,789.0435,290.0605,788.5445,289.5833,787.8587,290.2225,787.8587,289.7596,777.7188,289.8627,767.5788,289.4476,757.4388,290.3296,747.2988,289.7447,737.1589,289.7631,727.0189,288.9496,716.8789,289.1612,706.7389,290.1362,696.599,290.031,686.459,289.5386,676.319,289.2477,666.179,289.3553,656.0391,288.8686,645.8991,290.0154,635.7591,290.3537,625.6191,289.5833,615.4792,289.7522,615.5491,290.0503,614.9823,290.0276,614.2825,290.3435,613.723,290.4353,613.0706,290.8037,612.5329,290.8415,612.624,291.4258,612.368,292.0556,612.2219,292.541,611.727,293.1429,611.5135,293.75,611.3125" style="stroke:#333333;stroke-width:1.0416666666666667;"/><polygon fill="none" points="369.3284,632.7509,367.8015,634.8372,365.9955,637.893,363.4125,639.9523,360.6983,641.0785,358.5341,641.1762,355.7525,639.7678,353.128,638.8477,351.1359,636.9796,350.091,634.841,349.4713,633.1381,348.8642,630.9138,347.8788,628.9998,348.636,627.131,349.2994,625.0838,351.7891,623.4647,353.5407,621.364,355.7087,620.6664,358.2861,620.0657,361.5913,620.4226,363.4016,621.2763,365.5064,621.6633,368.0655,624.2853,368.9576,627.0532,369.3452,628.9419,368.9062,632.0541" style="stroke:#2E2E2E;stroke-width:1.0416666666666667;"/><path d="M357.7962,630.7542 Q356.2174,630.152 355.6478,629.4847 Q355.0781,628.8174 355.0781,627.6943 Q355.0781,626.2458 356.0059,625.432 Q356.9336,624.6019 358.5612,624.6019 Q359.2936,624.6019 360.026,624.7809 Q360.7585,624.9437 361.4746,625.2692 L361.4746,627.32 Q360.791,626.8317 360.0911,626.5876 Q359.4076,626.3434 358.724,626.3434 Q357.959,626.3434 357.5521,626.6527 Q357.1452,626.9456 357.1452,627.5153 Q357.1452,627.9548 357.4382,628.2477 Q357.7311,628.5407 358.6751,628.8825 L359.5866,629.2243 Q360.8561,629.6963 361.4583,630.4775 Q362.0768,631.2588 362.0768,632.4307 Q362.0768,634.042 361.1165,634.8395 Q360.1725,635.637 358.252,635.637 Q357.4544,635.637 356.6569,635.4417 Q355.8757,635.2464 355.127,634.8883 L355.127,632.7074 Q355.9733,633.3096 356.7546,633.6025 Q357.5358,633.8955 358.3171,633.8955 Q359.082,633.8955 359.5052,633.5537 Q359.9447,633.1956 359.9447,632.5609 Q359.9447,632.0726 359.6517,631.7145 Q359.375,631.3564 358.8379,631.1449 L357.7962,630.7542 Z " fill="#2E2E2E"/><text fill="#555555" font-family="Segoe Print" font-size="14.5833" lengthAdjust="spacing" textLength="40.625" x="383.8542" y="635.2657">dictht</text><path d="M290.625,649.1217 L290.625,649.4137 L300.932,648.5463 L311.239,649.3902 L321.5461,649.6769 L331.8531,648.1309 L342.1601,649.0138 L352.4671,648.5294 L362.7741,648.5891 L373.0811,649.0271 L383.3882,648.1615 L393.6952,649.8907 L404.0022,648.2464 L414.3092,648.8471 L424.6162,649.7217 L434.9232,649.0026 L445.2303,649.2165 L455.5373,649.0774 L465.8443,649.3697 L476.1513,649.4539 L486.4583,649.1217 " fill="none" style="stroke:#333333;stroke-width:1.0416666666666667;"/><text fill="#555555" font-family="Segoe Print" font-size="14.5833" lengthAdjust="spacing" textLength="116.6667" x="301.0417" y="672.0333">dictEntry **table</text><path d="M290.625,684.8477 L290.625,685.1396 L300.932,684.2722 L311.239,685.1161 L321.5461,685.4028 L331.8531,683.8568 L342.1601,684.7397 L352.4671,684.2553 L362.7741,684.315 L373.0811,684.753 L383.3882,683.8874 L393.6952,685.6166 L404.0022,683.9723 L414.3092,684.573 L424.6162,685.4476 L434.9232,684.7285 L445.2303,684.9424 L455.5373,684.8033 L465.8443,685.0956 L476.1513,685.1798 L486.4583,684.8477 " fill="none" style="stroke:#333333;stroke-width:1.0416666666666667;stroke-dasharray:1.0,2.0;"/><text fill="#555555" font-family="Segoe Print" font-size="14.5833" lengthAdjust="spacing" textLength="136.4583" x="301.0417" y="707.7592">unsigned long size</text><path d="M290.625,720.5736 L290.625,720.8655 L300.932,719.9981 L311.239,720.842 L321.5461,721.1287 L331.8531,719.5827 L342.1601,720.4656 L352.4671,719.9812 L362.7741,720.0409 L373.0811,720.4789 L383.3882,719.6133 L393.6952,721.3425 L404.0022,719.6982 L414.3092,720.2989 L424.6162,721.1735 L434.9232,720.4544 L445.2303,720.6683 L455.5373,720.5292 L465.8443,720.8215 L476.1513,720.9057 L486.4583,720.5736 " fill="none" style="stroke:#333333;stroke-width:1.0416666666666667;stroke-dasharray:1.0,2.0;"/><text fill="#555555" font-family="Segoe Print" font-size="14.5833" lengthAdjust="spacing" textLength="175" x="301.0417" y="743.4851">unsigned long sizemask</text><path d="M290.625,756.2995 L290.625,756.5914 L300.932,755.724 L311.239,756.5679 L321.5461,756.8546 L331.8531,755.3087 L342.1601,756.1915 L352.4671,755.7071 L362.7741,755.7668 L373.0811,756.2048 L383.3882,755.3392 L393.6952,757.0684 L404.0022,755.4241 L414.3092,756.0248 L424.6162,756.8994 L434.9232,756.1803 L445.2303,756.3943 L455.5373,756.2551 L465.8443,756.5474 L476.1513,756.6316 L486.4583,756.2995 " fill="none" style="stroke:#333333;stroke-width:1.0416666666666667;stroke-dasharray:1.0,2.0;"/><text fill="#555555" font-family="Segoe Print" font-size="14.5833" lengthAdjust="spacing" textLength="143.75" x="301.0417" y="779.2111">unsigned long used</text></g><!--class v--><g id="elem_v"><polygon fill="none" points="229.6875,1062.0208,229.6875,1062.2398,240.2083,1061.5892,250.7292,1062.2222,261.25,1062.4372,271.7708,1061.2777,282.2917,1061.9399,292.8125,1061.5766,303.3333,1061.6214,313.8542,1061.9498,324.375,1061.3007,334.8958,1062.0208,334.9694,1062.1984,335.4013,1062.0627,336.0481,1062.4455,336.721,1062.8916,337.2415,1062.9696,337.8421,1063.2412,337.864,1063.2503,338.0759,1063.8262,338.3875,1064.4435,338.6511,1065.0408,339.0063,1065.6761,339.0625,1066.1875,339.7615,1066.1875,339.7701,1076.3428,339.3277,1086.4982,339.5454,1096.6535,339.794,1106.8089,338.3113,1116.9642,339.7693,1127.1196,338.7536,1137.2749,339.6186,1147.4303,338.5469,1157.5856,338.9911,1167.741,339.835,1177.8963,339.0117,1188.0516,339.1722,1198.207,339.4152,1208.3623,339.4961,1218.5177,339.0584,1228.673,339.3617,1238.8284,339.0625,1248.9837,338.8789,1248.9077,338.9097,1249.6108,338.7502,1250.2351,338.4729,1250.8106,338.2828,1251.4222,337.8421,1251.93,337.7779,1251.775,337.1662,1251.9649,336.581,1252.2188,336.0665,1252.6433,335.459,1252.8433,334.8958,1253.1504,334.8958,1253.8602,324.375,1252.9684,313.8542,1252.793,303.3333,1253.3882,292.8125,1252.4558,282.2917,1252.6096,271.7708,1253.8264,261.25,1253.6042,250.7292,1253.9155,240.2083,1252.8152,229.6875,1253.1504,229.7299,1253.2528,229.1767,1253.0957,228.4462,1252.5107,227.907,1252.3874,227.3472,1252.2145,226.7412,1251.93,226.9503,1252.0166,226.4958,1251.3402,226.4015,1250.813,225.8313,1250.0887,225.5477,1249.483,225.5208,1248.9837,226.0454,1248.9837,224.774,1238.8284,226.051,1228.673,225.7361,1218.5177,225.2418,1208.3623,225.1523,1198.207,225.9987,1188.0516,225.209,1177.8963,226.1374,1167.741,224.9451,1157.5856,226.164,1147.4303,226.0253,1137.2749,225.776,1127.1196,225.57,1116.9642,226.2777,1106.8089,226.16,1096.6535,225.6971,1086.4982,225.8002,1076.3428,225.5208,1066.1875,225.479,1066.1702,225.9947,1065.6934,226.0587,1065.0296,226.3084,1064.4427,226.302,1063.7496,226.7412,1063.2412,226.6874,1063.1112,227.401,1063.1674,227.9768,1062.8909,228.5033,1062.4952,229.0554,1062.1616,229.6875,1062.0208" style="stroke:#333333;stroke-width:1.0416666666666667;"/><polygon fill="#DA70D6" points="279.745,1088.6675,278.2181,1090.7539,276.4121,1093.8096,273.8292,1095.869,271.1149,1096.9952,268.9508,1097.0929,266.1692,1095.6845,263.5447,1094.7644,261.5526,1092.8963,260.5076,1090.7576,259.8879,1089.0548,259.2808,1086.8305,258.2954,1084.9164,259.0527,1083.0476,259.7161,1081.0005,262.2058,1079.3814,263.9574,1077.2807,266.1254,1076.5831,268.7028,1075.9823,272.008,1076.3392,273.8183,1077.193,275.923,1077.58,278.4822,1080.202,279.3743,1082.9699,279.7619,1084.8586,279.3229,1087.9708" style="stroke:#2E2E2E;stroke-width:1.0416666666666667;"/><path d="M265.332,1087.68 L265.332,1080.9743 L267.4316,1080.9743 L267.4316,1088.2008 Q267.4316,1088.9984 267.8385,1089.4541 Q268.2454,1089.9098 268.9779,1089.9098 Q269.694,1089.9098 270.1009,1089.4541 Q270.5078,1088.9984 270.5078,1088.2008 L270.5078,1080.9743 L272.6074,1080.9743 L272.6074,1087.68 Q272.6074,1089.8447 271.7448,1090.8376 Q270.8822,1091.8141 268.9779,1091.8141 Q267.0736,1091.8141 266.1947,1090.8376 Q265.332,1089.8447 265.332,1087.68 Z " fill="#2E2E2E"/><text fill="#555555" font-family="Segoe Print" font-size="14.5833" lengthAdjust="spacing" textLength="7.2917" x="294.2708" y="1096.3907">v</text><path d="M226.5625,1110.2467 L226.5625,1110.5387 L236.6951,1109.6713 L246.8277,1110.5152 L256.9602,1110.8019 L267.0928,1109.2559 L277.2254,1110.1388 L287.358,1109.6544 L297.4905,1109.7141 L307.6231,1110.1521 L317.7557,1109.2865 L327.8883,1111.0157 L338.0208,1110.2467 " fill="none" style="stroke:#333333;stroke-width:1.0416666666666667;"/><text fill="#555555" font-family="Segoe Print" font-size="14.5833" lengthAdjust="spacing" textLength="59.375" x="236.9792" y="1133.1583">void *val</text><path d="M226.5625,1145.9727 L226.5625,1146.2646 L236.6951,1145.3972 L246.8277,1146.2411 L256.9602,1146.5278 L267.0928,1144.9818 L277.2254,1145.8647 L287.358,1145.3803 L297.4905,1145.44 L307.6231,1145.878 L317.7557,1145.0124 L327.8883,1146.7416 L338.0208,1145.9727 " fill="none" style="stroke:#333333;stroke-width:1.0416666666666667;stroke-dasharray:1.0,2.0;"/><text fill="#555555" font-family="Segoe Print" font-size="14.5833" lengthAdjust="spacing" textLength="90.625" x="236.9792" y="1168.8842">uint64_t u64</text><path d="M226.5625,1181.6986 L226.5625,1181.9905 L236.6951,1181.1231 L246.8277,1181.967 L256.9602,1182.2537 L267.0928,1180.7077 L277.2254,1181.5906 L287.358,1181.1062 L297.4905,1181.1659 L307.6231,1181.6039 L317.7557,1180.7383 L327.8883,1182.4675 L338.0208,1181.6986 " fill="none" style="stroke:#333333;stroke-width:1.0416666666666667;stroke-dasharray:1.0,2.0;"/><text fill="#555555" font-family="Segoe Print" font-size="14.5833" lengthAdjust="spacing" textLength="80.2083" x="236.9792" y="1204.6101">int64_t s64</text><path d="M226.5625,1217.4245 L226.5625,1217.7164 L236.6951,1216.849 L246.8277,1217.6929 L256.9602,1217.9796 L267.0928,1216.4337 L277.2254,1217.3165 L287.358,1216.8321 L297.4905,1216.8918 L307.6231,1217.3298 L317.7557,1216.4642 L327.8883,1218.1934 L338.0208,1217.4245 " fill="none" style="stroke:#333333;stroke-width:1.0416666666666667;stroke-dasharray:1.0,2.0;"/><text fill="#555555" font-family="Segoe Print" font-size="14.5833" lengthAdjust="spacing" textLength="63.5417" x="236.9792" y="1240.3361">double d</text></g><g id="elem_GMN8"><path d="M86.4583,912.2813 L86.6529,912.2813 L86.0747,918.1764 L86.6373,924.0716 L86.8284,929.9668 L85.7978,935.862 L86.4583,941.7572 L90.625,945.9238 L90.625,945.708 L100.5984,944.7391 L110.5718,944.8586 L120.5451,945.7345 L130.5185,944.0034 L140.4919,947.4617 L150.4653,944.173 L160.4387,945.3745 L170.412,947.1237 L180.3854,945.9238 L180.1722,945.8174 L185.364,955.6399 L189.9241,965.1469 L195.2562,975.0394 L200.2158,984.746 L205.8861,994.8073 L210.9073,1004.5446 L215.7367,1014.1861 L219.4904,1023.2906 L224.8188,1033.1812 L230.2209,1043.1087 L231.4924,1050.9737 L238.0938,1061.5 L239.827,1062.2404 L233.2218,1051.5451 L231.2282,1042.8198 L224.4855,1032.0658 L221.4604,1022.8999 L219.4152,1014.1526 L213.2818,1003.6587 L209.5607,994.1955 L206.0421,984.8188 L202.1257,975.2721 L196.9379,965.1823 L193.567,955.8686 L188.7188,945.9238 L188.7188,944.3338 L199.1101,946.7138 L209.5015,947.4466 L219.8929,947.1586 L230.2842,947.6267 L240.6756,944.5819 L251.067,944.1122 L261.4583,945.9238 L265.625,941.7572 L265.0496,941.7572 L265.5705,937.112 L265.443,932.4668 L266.2559,927.8216 L265.4633,923.1764 L265.625,918.5313 L265.4004,918.3066 L263.6911,916.5974 L261.0217,913.928 L259.0351,911.9414 L257.7166,910.6228 L255.2083,908.1146 L255.2083,909.3248 L244.9219,910.1548 L234.6354,907.2207 L224.349,909.0012 L214.0625,909.7546 L203.776,906.8023 L193.4896,907.8483 L183.2031,908.4645 L172.9167,909.925 L162.6302,908.1029 L152.3438,909.3995 L142.0573,906.5763 L131.7708,906.2333 L121.4844,909.5135 L111.1979,906.1231 L100.9115,909.5284 L90.625,908.1146 L86.4583,912.2813 " fill="#17A2B8" style="stroke:#1592A6;stroke-width:1.0416666666666667;"/><path d="M255.2083,908.1146 L255.4029,908.1146 L254.8247,909.7813 L255.3873,911.4479 L255.5784,913.1146 L254.5478,914.7813 L255.2083,916.4479 L257.2917,918.5313 L257.2917,918.4593 L258.9583,918.1363 L260.625,918.1762 L262.2917,918.4681 L263.9583,917.8911 L265.625,918.5313 L265.9875,918.8937 L263.129,916.0353 L261.3288,914.2351 L259.6578,912.5641 L257.2355,910.1418 L255.2083,908.1146 " fill="#17A2B8" style="stroke:#1592A6;stroke-width:1.0416666666666667;"/><text fill="#FFFFFF" font-family="Segoe Print" font-size="14.5833" lengthAdjust="spacing" textLength="146.875" x="97.9167" y="932.0678">&#36825;&#26159;&#19968;&#20010;&#32852;&#21512;&#20307; union</text></g><!--class dictEntry--><g id="elem_dictEntry"><polygon fill="none" points="305.7292,854.5313,305.7292,854.7502,316.0807,854.0997,326.4323,854.7326,336.7839,854.9476,347.1354,853.7881,357.487,854.4503,367.8385,854.087,378.1901,854.1318,388.5417,854.4603,398.8932,853.8111,409.2448,855.108,419.5964,853.8747,429.9479,854.3252,440.2995,854.9812,450.651,854.4419,461.0026,854.6023,471.3542,854.5313,471.3499,854.521,471.9671,854.8326,472.5645,855.0961,473.1998,855.4514,473.8004,855.7228,474.3004,855.7516,474.5183,855.8419,474.6262,856.3747,474.9373,856.9917,475.2579,857.6127,475.0454,858.0128,475.5208,858.6979,476.2276,858.6979,475.212,869.2097,476.0769,879.7216,475.0052,890.2334,475.4495,900.7452,476.2933,911.257,475.4701,921.7688,475.6305,932.2806,475.8736,942.7925,475.9544,953.3043,475.5168,963.8161,475.82,974.3279,474.9246,984.8397,475.5208,995.3516,475.6121,995.3894,475.4526,996.0137,475.1753,996.5891,474.9853,997.2008,474.3896,997.6444,474.3004,998.2978,474.2138,998.0886,473.6286,998.3426,473.1141,998.7671,472.5066,998.967,472.034,999.4927,471.3542,999.5182,471.3542,999.3363,461.0026,999.1609,450.651,999.756,440.2995,998.8236,429.9479,998.9775,419.5964,1000.1942,409.2448,999.972,398.8932,1000.2833,388.5417,999.183,378.1901,999.8507,367.8385,1000.1332,357.487,999.0261,347.1354,999.4184,336.7839,999.6495,326.4323,1000.1971,316.0807,999.5139,305.7292,999.5182,305.7906,999.6666,305.0663,999.0965,304.4607,998.8128,304.0283,998.9476,303.2769,998.3119,302.7829,998.2978,302.9462,998.3655,302.6051,997.736,302.2088,997.0837,301.9372,996.4831,301.9537,996.0018,301.5625,995.3516,301.2507,995.3516,302.179,984.8397,300.9867,974.3279,302.2057,963.8161,302.067,953.3043,301.8177,942.7925,301.6117,932.2806,302.3194,921.7688,302.2016,911.257,301.7388,900.7452,301.8419,890.2334,301.4268,879.7216,302.3088,869.2097,301.5625,858.6979,301.6122,858.7185,301.8619,858.1316,301.8555,857.4386,302.1647,856.8763,302.7091,856.4114,302.7829,855.7516,302.84,855.8895,303.3664,855.4938,303.9186,855.1601,304.5216,854.9492,305.0487,854.5552,305.7292,854.5313" style="stroke:#333333;stroke-width:1.0416666666666667;"/><polygon fill="none" points="358.3909,875.9696,356.864,878.0559,355.058,881.1117,352.475,883.1711,349.7608,884.2972,347.5966,884.395,344.815,882.9866,342.1905,882.0665,340.1984,880.1984,339.1535,878.0597,338.5338,876.3568,337.9267,874.1326,336.9413,872.2185,337.6985,870.3497,338.3619,868.3026,340.8516,866.6835,342.6032,864.5827,344.7712,863.8852,347.3486,863.2844,350.6538,863.6413,352.4641,864.4951,354.5689,864.8821,357.128,867.504,358.0201,870.272,358.4077,872.1606,357.9687,875.2729" style="stroke:#2E2E2E;stroke-width:1.0416666666666667;"/><path d="M346.8587,873.973 Q345.2799,873.3708 344.7103,872.7035 Q344.1406,872.0361 344.1406,870.9131 Q344.1406,869.4645 345.0684,868.6507 Q345.9961,867.8206 347.6237,867.8206 Q348.3561,867.8206 349.0885,867.9997 Q349.821,868.1624 350.5371,868.488 L350.5371,870.5387 Q349.8535,870.0505 349.1536,869.8063 Q348.4701,869.5622 347.7865,869.5622 Q347.0215,869.5622 346.6146,869.8714 Q346.2077,870.1644 346.2077,870.734 Q346.2077,871.1735 346.5007,871.4665 Q346.7936,871.7594 347.7376,872.1012 L348.6491,872.443 Q349.9186,872.915 350.5208,873.6963 Q351.1393,874.4775 351.1393,875.6494 Q351.1393,877.2607 350.179,878.0583 Q349.235,878.8558 347.3145,878.8558 Q346.5169,878.8558 345.7194,878.6605 Q344.9382,878.4652 344.1895,878.1071 L344.1895,875.9261 Q345.0358,876.5283 345.8171,876.8213 Q346.5983,877.1143 347.3796,877.1143 Q348.1445,877.1143 348.5677,876.7725 Q349.0072,876.4144 349.0072,875.7796 Q349.0072,875.2913 348.7142,874.9333 Q348.4375,874.5752 347.9004,874.3636 L346.8587,873.973 Z " fill="#2E2E2E"/><text fill="#555555" font-family="Segoe Print" font-size="14.5833" lengthAdjust="spacing" textLength="62.5" x="372.9167" y="878.4845">dictEntry</text><path d="M302.6042,892.3405 L302.6042,892.6324 L312.7145,891.765 L322.8248,892.6089 L332.935,892.8956 L343.0453,891.3497 L353.1556,892.2326 L363.2659,891.7481 L373.3762,891.8079 L383.4865,892.2458 L393.5968,891.3803 L403.7071,893.1094 L413.8174,891.4651 L423.9277,892.0658 L434.038,892.9404 L444.1483,892.2214 L454.2586,892.4353 L464.3689,892.2961 L474.4792,892.3405 " fill="none" style="stroke:#333333;stroke-width:1.0416666666666667;"/><text fill="#555555" font-family="Segoe Print" font-size="14.5833" lengthAdjust="spacing" textLength="65.625" x="313.0208" y="915.2521">void *key</text><path d="M302.6042,928.0664 L302.6042,928.3583 L312.7145,927.491 L322.8248,928.3349 L332.935,928.6215 L343.0453,927.0756 L353.1556,927.9585 L363.2659,927.4741 L373.3762,927.5338 L383.4865,927.9717 L393.5968,927.1062 L403.7071,928.8354 L413.8174,927.191 L423.9277,927.7917 L434.038,928.6663 L444.1483,927.9473 L454.2586,928.1612 L464.3689,928.022 L474.4792,928.0664 " fill="none" style="stroke:#333333;stroke-width:1.0416666666666667;stroke-dasharray:1.0,2.0;"/><text fill="#555555" font-family="Segoe Print" font-size="14.5833" lengthAdjust="spacing" textLength="52.0833" x="313.0208" y="950.978">union v</text><path d="M302.6042,963.7923 L302.6042,964.0842 L312.7145,963.2169 L322.8248,964.0608 L332.935,964.3474 L343.0453,962.8015 L353.1556,963.6844 L363.2659,963.2 L373.3762,963.2597 L383.4865,963.6977 L393.5968,962.8321 L403.7071,964.5613 L413.8174,962.9169 L423.9277,963.5176 L434.038,964.3922 L444.1483,963.6732 L454.2586,963.8871 L464.3689,963.7479 L474.4792,963.7923 " fill="none" style="stroke:#333333;stroke-width:1.0416666666666667;stroke-dasharray:1.0,2.0;"/><text fill="#555555" font-family="Segoe Print" font-size="14.5833" lengthAdjust="spacing" textLength="151.0417" x="313.0208" y="986.7039">struct dictEntry *next</text></g><!--reverse link redisDb to dict--><g id="link_redisDb_dict"><path d="M388.5417,284.7604 L388.8336,284.7604 L387.9662,294.1938 L388.8101,303.6271 L389.0968,313.0604 L387.5508,322.4938 L388.5417,331.9271 " fill="none" style="stroke:#333333;stroke-width:3.125;"/><polygon fill="none" points="388.5417,271.2917,388.6024,271.3321,387.5886,272.4619,386.9308,273.8289,386.1571,275.1186,385.0022,276.1543,384.375,277.5417,384.3525,277.5267,385.0851,278.7095,385.9309,279.9678,386.8553,281.2785,387.5086,282.4085,388.5417,283.7917,388.7016,283.8983,389.1929,282.4203,390.1512,281.2536,391.1665,280.1249,391.8502,278.7751,392.7083,277.5417,392.728,277.5548,391.8658,276.2855,391.0932,275.0761,390.2774,273.8377,389.5442,272.6545,388.5417,271.2917" style="stroke:#333333;stroke-width:3.125;"/></g><!--reverse link dict to dictht--><g id="link_dict_dictht"><path d="M388.5417,563.7813 L388.8336,563.7813 L387.9662,573.2354 L388.8101,582.6896 L389.0968,592.1438 L387.5508,601.5979 L388.5417,611.0521 " fill="none" style="stroke:#333333;stroke-width:3.125;"/><polygon fill="none" points="388.5417,550.2708,388.6024,550.3113,387.5886,551.441,386.9308,552.8081,386.1571,554.0978,385.0022,555.1334,384.375,556.5208,384.3525,556.5059,385.0851,557.6887,385.9309,558.947,386.8553,560.2577,387.5086,561.3877,388.5417,562.7708,388.7016,562.8775,389.1929,561.3994,390.1512,560.2327,391.1665,559.104,391.8502,557.7543,392.7083,556.5208,392.728,556.534,391.8658,555.2647,391.0932,554.0552,390.2774,552.8169,389.5442,551.6336,388.5417,550.2708" style="stroke:#333333;stroke-width:3.125;"/></g><!--reverse link dictht to dictEntry--><g id="link_dictht_dictEntry"><path d="M388.5417,806.3854 L388.8336,806.3854 L387.9662,815.9667 L388.8101,825.5479 L389.0968,835.1292 L387.5508,844.7104 L388.5417,854.2917 " fill="none" style="stroke:#333333;stroke-width:3.125;"/><polygon fill="none" points="388.5417,793.2813,388.6024,793.3217,387.5886,794.4515,386.9308,795.8185,386.1571,797.1082,385.0022,798.1438,384.375,799.5313,384.3525,799.5163,385.0851,800.6991,385.9309,801.9574,386.8553,803.2681,387.5086,804.3981,388.5417,805.7813,388.7016,805.8879,389.1929,804.4099,390.1512,803.2432,391.1665,802.1144,391.8502,800.7647,392.7083,799.5313,392.728,799.5444,391.8658,798.2751,391.0932,797.0656,390.2774,795.8273,389.5442,794.6441,388.5417,793.2813" style="stroke:#333333;stroke-width:3.125;"/></g><!--reverse link dictEntry to v--><g id="link_dictEntry_v"><path d="M349.1042,1012.8646 L349.3689,1012.9877 L344.0449,1022.3803 L340.2726,1032.4944 L335.995,1042.3736 L330.0557,1051.4802 L326.4167,1061.6563 " fill="none" style="stroke:#333333;stroke-width:3.125;"/><polygon fill="none" points="355.2188,1000.7708,355.2567,1000.8332,353.8609,1001.4296,352.6877,1002.3914,351.442,1003.2342,349.9579,1003.6857,348.8038,1004.6788,348.7772,1004.6747,348.8855,1006.1413,349.1283,1007.6284,349.4645,1009.13,349.4787,1010.582,349.944,1012.1034,350.044,1012.2676,351.1131,1011.1349,352.4742,1010.4815,353.8709,1009.8867,355.0604,1008.9515,356.3589,1008.1954,356.3823,1008.199,356.1199,1006.7088,355.9641,1005.235,355.7569,1003.7533,355.6478,1002.2866,355.2188,1000.7708" style="stroke:#333333;stroke-width:3.125;"/></g><!--SRC=[VLDDRzD04BtlhrXEWDLKf4GvL5LFm1y0JWXL6-yaNiNPjRnZ4rD50eb33qWWjGT0N10S8YJ4aGYfwf-9c_mCndRyaSR5XxNslPdnUs_NTz232N0x1dIzf6CYz9K6PiTA1o8K4ovXA28VdnYDJzLhuDqUkyjhslM5jVoKiEofgXuUR11j42gwlMH6xnbZp68OkSX3aCe-6b1JHaf5a9Ej-NP_lu72D50Xs5rYu1kN58vEnf2qq248cTp2lHAK0yWTLcdaIh9PgJAlhYK-ImBW3jBQR8gDajm9GXLBWUBcnppa7huuUDd4VQD7b80dhAVaz8Q0Rly4UI0Y2qK5gSdZzM68t0ppeOU7nSpq_2nTl5z_c-yzI3_yeVVgnz_hNz_Jh_FbvTNgOhxwygugOTsgf1YyHOAM-IasdNjDxuyrXWbt71G3Vyj-fAqQQP25Aqk7_dzs8kpuzWgotSW_vaT7_DxpFHEwbDHzVdoyKLJd7Wk_GZOJywcKPBz7IKRzNXjVqhQTbYOYcroMuQC9iknZjhxwVFtfztBnPhdukNvxaNuyMrwUamTbT6k6HModZOj2TsxRFhNIu0Qqq-vec299ANyQq-daBCllPxdpYhrN8tatg-TaUFmF]--></g></svg>