<?xml version="1.0" encoding="UTF-8" standalone="no"?><svg xmlns="http://www.w3.org/2000/svg" xmlns:xlink="http://www.w3.org/1999/xlink" contentStyleType="text/css" height="1264.5833px" preserveAspectRatio="none" style="width:500px;height:1264px;" version="1.1" viewBox="0 0 500 1264" width="500px" zoomAndPan="magnify"><defs/><g><!--class redisDb--><g id="elem_redisDb"><polygon fill="none" points="311.4583,17.7083,311.4583,17.9273,321.7361,17.2767,332.0139,17.9097,342.2917,18.1247,352.5694,16.9652,362.8472,17.6274,373.125,17.2641,383.4028,17.3089,393.6806,17.6373,403.9583,16.9882,414.2361,18.285,424.5139,17.0518,434.7917,17.5023,445.0694,18.1583,455.3472,17.619,465.625,17.7083,465.6341,17.7302,466.21,17.9422,466.8272,18.2538,467.4245,18.5173,468.0598,18.8725,468.5713,18.9287,468.7865,19.0179,469.0333,19.6082,469.1411,20.1411,469.4522,20.7581,469.7729,21.3791,469.7917,21.875,469.0404,21.875,470.4984,32.4764,469.4828,43.0777,470.3477,53.6791,469.276,64.2805,469.7203,74.8818,470.5642,85.4832,469.7409,96.0846,469.9014,106.6859,470.1444,117.2873,470.2252,127.8886,469.7876,138.49,470.0908,149.0914,469.1954,159.6927,470.0879,170.2941,470.3627,180.8955,470.2547,191.4968,470.4302,202.0982,469.2885,212.6996,469.1123,223.3009,469.1444,233.9023,469.7303,244.5037,469.5869,255.105,469.7917,265.7064,470.0103,265.7969,469.4916,266.2724,469.1935,266.8393,469.1327,267.5045,468.6014,267.9748,468.5713,268.6527,468.5023,268.4861,468.0683,269.1049,467.4507,269.2806,466.9011,269.6205,466.1715,269.5257,465.625,269.873,465.625,270.2055,455.3472,270.4881,445.0694,269.381,434.7917,269.7732,424.5139,270.0043,414.2361,270.552,403.9583,269.8687,393.6806,270.3549,383.4028,269.2962,373.125,269.1676,362.8472,270.3976,352.5694,269.1262,342.2917,270.4032,332.0139,270.0883,321.7361,269.594,311.4583,269.873,311.4113,269.7596,310.93,269.7761,310.24,269.2889,309.7692,269.3307,309.0279,268.7194,308.5121,268.6527,308.7101,268.7347,308.4233,268.1278,308.1025,267.5067,307.795,266.8912,307.7688,266.3922,307.2917,265.7064,307.9308,265.7064,307.468,255.105,307.571,244.5037,307.156,233.9023,308.038,223.3009,307.453,212.6996,307.4714,202.0982,306.658,191.4968,306.8696,180.8955,307.8445,170.2941,307.7393,159.6927,307.2469,149.0914,306.9561,138.49,307.0636,127.8886,306.5769,117.2873,307.7237,106.6859,308.062,96.0846,307.84,85.4832,308.0156,74.8818,307.1492,64.2805,307.3825,53.6791,306.8879,43.0777,307.5875,32.4764,307.2917,21.875,307.3708,21.9078,307.7129,21.3591,307.7061,20.666,307.9808,20.0894,308.4102,19.5769,308.5121,18.9287,308.5874,19.1107,309.0332,18.5202,309.6648,18.3784,310.2997,18.2444,310.7879,17.7565,311.4583,17.7083" style="stroke:#333333;stroke-width:1.0416666666666667;"/><polygon fill="none" points="361.5159,39.1467,359.989,41.233,358.183,44.2888,355.6,46.3482,352.8858,47.4743,350.7216,47.5721,347.94,46.1637,345.3155,45.2436,343.3234,43.3754,342.2785,41.2368,341.6588,39.5339,341.0517,37.3096,340.0663,35.3956,340.8235,33.5268,341.4869,31.4796,343.9766,29.8606,345.7282,27.7598,347.8962,27.0622,350.4736,26.4615,353.7788,26.8184,355.5891,27.6722,357.6939,28.0592,360.253,30.6811,361.1451,33.4491,361.5327,35.3377,361.0937,38.45" style="stroke:#2E2E2E;stroke-width:1.0416666666666667;"/><path d="M349.9837,37.1501 Q348.4049,36.5479 347.8353,35.8805 Q347.2656,35.2132 347.2656,34.0902 Q347.2656,32.6416 348.1934,31.8278 Q349.1211,30.9977 350.7487,30.9977 Q351.4811,30.9977 352.2135,31.1768 Q352.946,31.3395 353.6621,31.665 L353.6621,33.7158 Q352.9785,33.2275 352.2786,32.9834 Q351.5951,32.7393 350.9115,32.7393 Q350.1465,32.7393 349.7396,33.0485 Q349.3327,33.3415 349.3327,33.9111 Q349.3327,34.3506 349.6257,34.6436 Q349.9186,34.9365 350.8626,35.2783 L351.7741,35.6201 Q353.0436,36.0921 353.6458,36.8734 Q354.2643,37.6546 354.2643,38.8265 Q354.2643,40.4378 353.304,41.2354 Q352.36,42.0329 350.4395,42.0329 Q349.6419,42.0329 348.8444,41.8376 Q348.0632,41.6423 347.3145,41.2842 L347.3145,39.1032 Q348.1608,39.7054 348.9421,39.9984 Q349.7233,40.2913 350.5046,40.2913 Q351.2695,40.2913 351.6927,39.9495 Q352.1322,39.5915 352.1322,38.9567 Q352.1322,38.4684 351.8392,38.1104 Q351.5625,37.7523 351.0254,37.5407 L349.9837,37.1501 Z " fill="#2E2E2E"/><text fill="#555555" font-family="&quot;Segoe Print&quot;" font-size="14.5833" lengthAdjust="spacing" textLength="56.25" x="376.0417" y="41.6616">redisDb</text><path d="M308.3333,55.5176 L308.3333,55.8095 L319.0278,54.9421 L329.7222,55.786 L340.4167,56.0727 L351.1111,54.5268 L361.8056,55.4096 L372.5,54.9252 L383.1944,54.9849 L393.8889,55.4229 L404.5833,54.5573 L415.2778,56.2865 L425.9722,54.6422 L436.6667,55.2429 L447.3611,56.1175 L458.0556,55.3984 L468.75,55.5176 " fill="none" style="stroke:#333333;stroke-width:1.0416666666666667;"/><text fill="#555555" font-family="&quot;Segoe Print&quot;" font-size="14.5833" lengthAdjust="spacing" textLength="63.5417" x="318.75" y="78.4292">dict *dict</text><path d="M308.3333,91.2435 L308.3333,91.5354 L319.0278,90.668 L329.7222,91.5119 L340.4167,91.7986 L351.1111,90.2527 L361.8056,91.1356 L372.5,90.6511 L383.1944,90.7109 L393.8889,91.1488 L404.5833,90.2833 L415.2778,92.0124 L425.9722,90.3681 L436.6667,90.9688 L447.3611,91.8434 L458.0556,91.1244 L468.75,91.2435 " fill="none" style="stroke:#333333;stroke-width:1.0416666666666667;stroke-dasharray:1.0,2.0;"/><text fill="#555555" font-family="&quot;Segoe Print&quot;" font-size="14.5833" lengthAdjust="spacing" textLength="89.5833" x="318.75" y="114.1551">dict *expires</text><path d="M308.3333,126.9694 L308.3333,127.2613 L319.0278,126.394 L329.7222,127.2379 L340.4167,127.5245 L351.1111,125.9786 L361.8056,126.8615 L372.5,126.377 L383.1944,126.4368 L393.8889,126.8747 L404.5833,126.0092 L415.2778,127.7383 L425.9722,126.094 L436.6667,126.6947 L447.3611,127.5693 L458.0556,126.8503 L468.75,126.9694 " fill="none" style="stroke:#333333;stroke-width:1.0416666666666667;stroke-dasharray:1.0,2.0;"/><text fill="#555555" font-family="&quot;Segoe Print&quot;" font-size="14.5833" lengthAdjust="spacing" textLength="138.5417" x="318.75" y="149.881">dict *blocking_keys</text><path d="M308.3333,162.6953 L308.3333,162.9872 L319.0278,162.1199 L329.7222,162.9638 L340.4167,163.2504 L351.1111,161.7045 L361.8056,162.5874 L372.5,162.103 L383.1944,162.1627 L393.8889,162.6007 L404.5833,161.7351 L415.2778,163.4643 L425.9722,161.8199 L436.6667,162.4206 L447.3611,163.2952 L458.0556,162.5762 L468.75,162.6953 " fill="none" style="stroke:#333333;stroke-width:1.0416666666666667;stroke-dasharray:1.0,2.0;"/><text fill="#555555" font-family="&quot;Segoe Print&quot;" font-size="14.5833" lengthAdjust="spacing" textLength="117.7083" x="318.75" y="185.6069">dict *ready_keys</text><path d="M308.3333,198.4212 L308.3333,198.7131 L319.0278,197.8458 L329.7222,198.6897 L340.4167,198.9763 L351.1111,197.4304 L361.8056,198.3133 L372.5,197.8289 L383.1944,197.8886 L393.8889,198.3266 L404.5833,197.461 L415.2778,199.1902 L425.9722,197.5458 L436.6667,198.1465 L447.3611,199.0212 L458.0556,198.3021 L468.75,198.4212 " fill="none" style="stroke:#333333;stroke-width:1.0416666666666667;stroke-dasharray:1.0,2.0;"/><text fill="#555555" font-family="&quot;Segoe Print&quot;" font-size="14.5833" lengthAdjust="spacing" textLength="139.5833" x="318.75" y="221.3328">dict *watched_keys</text><path d="M308.3333,234.1471 L308.3333,234.4391 L319.0278,233.5717 L329.7222,234.4156 L340.4167,234.7022 L351.1111,233.1563 L361.8056,234.0392 L372.5,233.5548 L383.1944,233.6145 L393.8889,234.0525 L404.5833,233.1869 L415.2778,234.9161 L425.9722,233.2717 L436.6667,233.8725 L447.3611,234.7471 L458.0556,234.028 L468.75,234.1471 " fill="none" style="stroke:#333333;stroke-width:1.0416666666666667;stroke-dasharray:1.0,2.0;"/><text fill="#555555" font-family="&quot;Segoe Print&quot;" font-size="14.5833" lengthAdjust="spacing" textLength="34.375" x="318.75" y="257.0587">int id</text></g><!--class dict--><g id="elem_dict"><polygon fill="none" points="307.2917,332.2917,307.2917,332.5106,317.4479,331.8601,327.6042,332.493,337.7604,332.708,347.9167,331.5485,358.0729,332.2107,368.2292,331.8474,378.3854,331.8922,388.5417,332.2207,398.6979,331.5715,408.8542,332.8684,419.0104,331.6351,429.1667,332.0857,439.3229,332.7416,449.4792,332.2023,459.6354,332.3627,469.7917,332.2917,469.7874,332.2814,470.4046,332.593,471.002,332.8565,471.6373,333.2118,472.2379,333.4832,472.7379,333.5121,472.9558,333.6023,473.0637,334.1351,473.3748,334.7522,473.6954,335.3731,473.4829,335.7732,473.9583,336.4583,474.6651,336.4583,473.6495,346.8636,474.5144,357.2689,473.4427,367.6742,473.887,378.0794,474.7308,388.4847,473.9076,398.89,474.068,409.2952,474.3111,419.7005,474.3919,430.1058,473.9543,440.5111,474.2575,450.9163,473.3621,461.3216,474.2546,471.7269,474.5294,482.1322,474.4214,492.5374,474.5969,502.9427,473.4551,513.348,473.279,523.7533,473.311,534.1585,473.9583,544.5638,473.9394,544.556,473.6512,545.1269,473.6888,545.8329,473.1701,546.3084,472.872,546.8752,472.7379,547.5101,472.7683,547.5833,472.0601,547.5402,471.4905,547.8317,471.0564,548.4505,470.4388,548.6261,469.7917,548.7305,469.7917,549.4956,459.6354,548.3953,449.4792,549.063,439.3229,549.3455,429.1667,548.2384,419.0104,548.6306,408.8542,548.8617,398.6979,549.4094,388.5417,548.7261,378.3854,549.2123,368.2292,548.1536,358.0729,548.025,347.9167,549.2551,337.7604,547.9837,327.6042,549.2606,317.4479,548.9457,307.2917,548.7305,307.2561,548.6445,306.6554,548.3729,306.1741,548.3895,305.4841,547.9022,305.0133,547.944,304.3454,547.5101,304.1681,547.4366,304.2994,547.0029,304.0126,546.3959,303.6917,545.7749,303.3842,545.1593,303.125,544.5638,303.8819,544.5638,303.7641,534.1585,303.3013,523.7533,303.4044,513.348,302.9893,502.9427,303.8713,492.5374,303.2863,482.1322,303.3048,471.7269,302.4913,461.3216,302.7029,450.9163,303.6779,440.5111,303.5727,430.1058,303.0803,419.7005,302.7894,409.2952,302.8969,398.89,302.4102,388.4847,303.557,378.0794,303.8954,367.6742,303.6733,357.2689,303.8489,346.8636,303.125,336.4583,303.0811,336.4402,303.3971,335.8807,303.4888,335.2283,303.9484,334.7283,304.1805,334.1341,304.3454,333.5121,304.4188,333.6893,304.9041,333.1943,305.506,332.9808,306.1721,332.9221,306.7778,332.7177,307.2917,332.2917" style="stroke:#333333;stroke-width:1.0416666666666667;"/><polygon fill="none" points="376.62,353.73,375.0931,355.8164,373.2871,358.8721,370.7042,360.9315,367.9899,362.0577,365.8258,362.1554,363.0442,360.747,360.4197,359.8269,358.4276,357.9588,357.3826,355.8201,356.7629,354.1173,356.1558,351.893,355.1704,349.9789,355.9277,348.1101,356.5911,346.063,359.0808,344.4439,360.8324,342.3432,363.0004,341.6456,365.5778,341.0448,368.883,341.4017,370.6933,342.2555,372.798,342.6425,375.3572,345.2645,376.2493,348.0324,376.6369,349.9211,376.1979,353.0333" style="stroke:#2E2E2E;stroke-width:1.0416666666666667;"/><path d="M365.0879,351.7334 Q363.5091,351.1312 362.9395,350.4639 Q362.3698,349.7965 362.3698,348.6735 Q362.3698,347.2249 363.2975,346.4111 Q364.2253,345.5811 365.8529,345.5811 Q366.5853,345.5811 367.3177,345.7601 Q368.0501,345.9229 368.7663,346.2484 L368.7663,348.2992 Q368.0827,347.8109 367.3828,347.5667 Q366.6992,347.3226 366.0156,347.3226 Q365.2507,347.3226 364.8438,347.6318 Q364.4368,347.9248 364.4368,348.4945 Q364.4368,348.9339 364.7298,349.2269 Q365.0228,349.5199 365.9668,349.8617 L366.8783,350.2035 Q368.1478,350.6755 368.75,351.4567 Q369.3685,352.238 369.3685,353.4098 Q369.3685,355.0212 368.4082,355.8187 Q367.4642,356.6162 365.5436,356.6162 Q364.7461,356.6162 363.9486,356.4209 Q363.1673,356.2256 362.4186,355.8675 L362.4186,353.6865 Q363.265,354.2887 364.0462,354.5817 Q364.8275,354.8747 365.6087,354.8747 Q366.3737,354.8747 366.7969,354.5329 Q367.2363,354.1748 367.2363,353.54 Q367.2363,353.0518 366.9434,352.6937 Q366.6667,352.3356 366.1296,352.124 L365.0879,351.7334 Z " fill="#2E2E2E"/><text fill="#555555" font-family="&quot;Segoe Print&quot;" font-size="14.5833" lengthAdjust="spacing" textLength="26.0417" x="391.1458" y="356.2449">dict</text><path d="M304.1667,370.1009 L304.1667,370.3928 L314.7135,369.5255 L325.2604,370.3694 L335.8073,370.656 L346.3542,369.1101 L356.901,369.993 L367.4479,369.5086 L377.9948,369.5683 L388.5417,370.0062 L399.0885,369.1407 L409.6354,370.8699 L420.1823,369.2255 L430.7292,369.8262 L441.276,370.7008 L451.8229,369.9818 L462.3698,370.1957 L472.9167,370.1009 " fill="none" style="stroke:#333333;stroke-width:1.0416666666666667;"/><text fill="#555555" font-family="&quot;Segoe Print&quot;" font-size="14.5833" lengthAdjust="spacing" textLength="104.1667" x="314.5833" y="393.0125">dictType *type</text><path d="M304.1667,405.8268 L304.1667,406.1187 L314.7135,405.2514 L325.2604,406.0953 L335.8073,406.3819 L346.3542,404.836 L356.901,405.7189 L367.4479,405.2345 L377.9948,405.2942 L388.5417,405.7322 L399.0885,404.8666 L409.6354,406.5958 L420.1823,404.9514 L430.7292,405.5521 L441.276,406.4267 L451.8229,405.7077 L462.3698,405.9216 L472.9167,405.8268 " fill="none" style="stroke:#333333;stroke-width:1.0416666666666667;stroke-dasharray:1.0,2.0;"/><text fill="#555555" font-family="&quot;Segoe Print&quot;" font-size="14.5833" lengthAdjust="spacing" textLength="96.875" x="314.5833" y="428.7384">void *privdata</text><path d="M304.1667,441.5527 L304.1667,441.8447 L314.7135,440.9773 L325.2604,441.8212 L335.8073,442.1078 L346.3542,440.5619 L356.901,441.4448 L367.4479,440.9604 L377.9948,441.0201 L388.5417,441.4581 L399.0885,440.5925 L409.6354,442.3217 L420.1823,440.6773 L430.7292,441.2781 L441.276,442.1527 L451.8229,441.4336 L462.3698,441.6475 L472.9167,441.5527 " fill="none" style="stroke:#333333;stroke-width:1.0416666666666667;stroke-dasharray:1.0,2.0;"/><text fill="#555555" font-family="&quot;Segoe Print&quot;" font-size="14.5833" lengthAdjust="spacing" textLength="79.1667" x="314.5833" y="464.4643">dictht ht[2]</text><path d="M304.1667,477.2786 L304.1667,477.5706 L314.7135,476.7032 L325.2604,477.5471 L335.8073,477.8338 L346.3542,476.2878 L356.901,477.1707 L367.4479,476.6863 L377.9948,476.746 L388.5417,477.184 L399.0885,476.3184 L409.6354,478.0476 L420.1823,476.4033 L430.7292,477.004 L441.276,477.8786 L451.8229,477.1595 L462.3698,477.3734 L472.9167,477.2786 " fill="none" style="stroke:#333333;stroke-width:1.0416666666666667;stroke-dasharray:1.0,2.0;"/><text fill="#555555" font-family="&quot;Segoe Print&quot;" font-size="14.5833" lengthAdjust="spacing" textLength="105.2083" x="314.5833" y="500.1902">long rehashidx</text><path d="M304.1667,513.0046 L304.1667,513.2965 L314.7135,512.4291 L325.2604,513.273 L335.8073,513.5597 L346.3542,512.0137 L356.901,512.8966 L367.4479,512.4122 L377.9948,512.4719 L388.5417,512.9099 L399.0885,512.0443 L409.6354,513.7735 L420.1823,512.1292 L430.7292,512.7299 L441.276,513.6045 L451.8229,512.8854 L462.3698,513.0993 L472.9167,513.0046 " fill="none" style="stroke:#333333;stroke-width:1.0416666666666667;stroke-dasharray:1.0,2.0;"/><text fill="#555555" font-family="&quot;Segoe Print&quot;" font-size="14.5833" lengthAdjust="spacing" textLength="147.9167" x="314.5833" y="535.9161">int16_t pauserehash</text></g><path d="M16.6667,407.8125 L17.2505,407.8125 L15.5158,418.7695 L17.2036,429.7266 L17.7769,440.6836 L14.685,451.6406 L16.6667,462.5977 L16.6667,462.5977 L16.6667,462.3818 L27.0833,461.413 L37.5,461.5324 L47.9167,462.4083 L58.3333,460.6772 L68.75,464.1356 L79.1667,460.8469 L89.5833,462.0483 L100,463.7975 L110.4167,462.3594 L120.8333,462.7872 L131.25,462.5089 L141.6667,463.0936 L152.0833,463.2619 L162.5,464.2246 L172.9167,464.4617 L183.3333,464.4845 L193.75,463.305 L204.1667,463.8854 L214.5833,464.5483 L225,460.5944 L235.4167,464.4824 L245.8333,461.774 L256.25,464.0805 L266.6667,462.5977 L266.6667,462.5977 L266.2083,462.5977 L266.6032,457.9525 L267.3533,453.3073 L266.6215,448.6621 L266.7642,444.0169 L266.6667,439.3717 L266.8054,439.6529 L274.9622,443.7262 L282.9151,447.3861 L291.1593,451.6366 L298.9322,454.9316 L307.2917,459.4157 L307.744,460.0633 L300.0387,454.9886 L291.7488,449.0771 L283.8918,443.7853 L274.0232,435.6138 L266.6667,431.0384 L266.0628,431.0384 L266.0913,428.4766 L266.6121,425.9147 L266.4847,423.3529 L267.2976,420.791 L266.6667,418.2292 L266.5523,418.1148 L264.3587,415.9212 L262.6495,414.212 L259.9801,411.5426 L257.9934,409.5559 L256.25,407.8125 L256.25,409.6151 L245.8333,409.0227 L235.4167,409.8528 L225,406.9186 L214.5833,408.6992 L204.1667,409.4526 L193.75,406.5003 L183.3333,407.5462 L172.9167,408.1625 L162.5,409.6229 L152.0833,407.8009 L141.6667,409.0974 L131.25,406.2742 L120.8333,405.9312 L110.4167,409.2114 L100,405.821 L89.5833,409.2263 L79.1667,408.3865 L68.75,407.0683 L58.3333,406.8298 L47.9167,409.0868 L37.5,406.981 L27.0833,409.4566 L16.6667,407.8125 L16.6667,407.8125 " fill="#17A2B8" style="stroke:#2E2E2E;stroke-width:1.0416666666666667;"/><path d="M256.25,407.8125 L255.7382,407.8125 L256.8217,409.8958 L256.6984,411.9792 L256.4768,414.0625 L256.2937,416.1458 L256.25,418.2292 L256.25,418.902 L258.3333,418.7973 L260.4167,418.3859 L262.5,418.4775 L264.5833,418.1086 L266.6667,418.2292 L267.1357,418.6982 L264.6847,416.2472 L262.613,414.1755 L260.0184,411.5809 L258.068,409.6305 L256.25,407.8125 " fill="#17A2B8" style="stroke:#2E2E2E;stroke-width:1.0416666666666667;"/><text fill="#FFFFFF" font-family="&quot;Segoe Print&quot;" font-size="14.5833" lengthAdjust="spacing" textLength="217.7083" x="28.125" y="431.7657">哈希表,0号表示正在使用的哈希表</text><text fill="#FFFFFF" font-family="&quot;Segoe Print&quot;" font-size="14.5833" lengthAdjust="spacing" textLength="161.4583" x="28.125" y="448.7417">1号表示rehash的哈希表</text><!--class dictht--><g id="elem_dictht"><polygon fill="none" points="293.75,611.4583,293.75,611.6773,304.2824,611.0267,314.8148,611.6597,325.3472,611.8747,335.8796,610.7152,346.412,611.3774,356.9444,611.0141,367.4769,611.0589,378.0093,611.3873,388.5417,610.7382,399.0741,612.035,409.6065,610.8018,420.1389,611.2523,430.6713,611.9083,441.2037,611.369,451.7361,611.5294,462.2685,611.4251,472.8009,611.6443,483.3333,611.4583,483.3651,611.535,484.0004,611.8903,484.601,612.1618,485.1914,612.4085,485.7242,612.5163,486.2796,612.6787,486.4283,612.7403,486.749,613.3613,486.5364,613.7614,487.2295,614.5366,487.1608,614.9963,487.5,615.625,488.0561,615.625,486.9844,625.765,487.4286,635.9049,488.2725,646.0449,487.4492,656.1849,487.6097,666.3249,487.8527,676.4648,487.9336,686.6048,487.4959,696.7448,487.7992,706.8848,486.9037,717.0247,487.7962,727.1647,488.071,737.3047,487.9631,747.4447,488.1386,757.5846,486.9968,767.7246,486.8206,777.8646,487.5,788.0046,487.3007,787.922,487.237,788.586,486.9488,789.157,486.9864,789.8629,486.4677,790.3384,486.2796,790.9508,486.234,790.8408,485.7207,791.2681,485.0125,791.2251,484.4429,791.5165,484.0088,792.1353,483.3333,792.1712,483.3333,792.625,472.8009,792.9363,462.2685,791.836,451.7361,792.5037,441.2037,792.7862,430.6713,791.6791,420.1389,792.0714,409.6065,792.3025,399.0741,792.8501,388.5417,792.1669,378.0093,792.6531,367.4769,791.5944,356.9444,791.4657,346.412,792.6958,335.8796,791.4244,325.3472,792.7014,314.8148,792.3865,304.2824,791.8921,293.75,792.1712,293.703,792.0577,293.2217,792.0743,292.5317,791.587,292.0609,791.6289,291.3195,791.0176,290.8037,790.9508,291.0018,791.0329,290.715,790.4259,290.3942,789.8049,290.0866,789.1893,290.0605,788.6904,289.5833,788.0046,290.2225,788.0046,289.7596,777.8646,289.8627,767.7246,289.4476,757.5846,290.3296,747.4447,289.7447,737.3047,289.7631,727.1647,288.9496,717.0247,289.1612,706.8848,290.1362,696.7448,290.031,686.6048,289.5386,676.4648,289.2477,666.3249,289.3553,656.1849,288.8686,646.0449,290.0154,635.9049,290.3537,625.765,289.5833,615.625,289.7522,615.6949,290.0503,615.1281,290.0276,614.4283,290.3435,613.8688,290.4353,613.2165,290.8037,612.6787,290.8415,612.7698,291.4258,612.5138,292.0556,612.3678,292.541,611.8728,293.1429,611.6593,293.75,611.4583" style="stroke:#333333;stroke-width:1.0416666666666667;"/><polygon fill="none" points="369.3284,632.8967,367.8015,634.983,365.9955,638.0388,363.4125,640.0982,360.6983,641.2243,358.5341,641.3221,355.7525,639.9137,353.128,638.9936,351.1359,637.1254,350.091,634.9868,349.4713,633.2839,348.8642,631.0596,347.8788,629.1456,348.636,627.2768,349.2994,625.2296,351.7891,623.6106,353.5407,621.5098,355.7087,620.8122,358.2861,620.2115,361.5913,620.5684,363.4016,621.4222,365.5064,621.8092,368.0655,624.4311,368.9576,627.1991,369.3452,629.0877,368.9062,632.2" style="stroke:#2E2E2E;stroke-width:1.0416666666666667;"/><path d="M357.7962,630.9001 Q356.2174,630.2979 355.6478,629.6305 Q355.0781,628.9632 355.0781,627.8402 Q355.0781,626.3916 356.0059,625.5778 Q356.9336,624.7477 358.5612,624.7477 Q359.2936,624.7477 360.026,624.9268 Q360.7585,625.0895 361.4746,625.415 L361.4746,627.4658 Q360.791,626.9775 360.0911,626.7334 Q359.4076,626.4893 358.724,626.4893 Q357.959,626.4893 357.5521,626.7985 Q357.1452,627.0915 357.1452,627.6611 Q357.1452,628.1006 357.4382,628.3936 Q357.7311,628.6865 358.6751,629.0283 L359.5866,629.3701 Q360.8561,629.8421 361.4583,630.6234 Q362.0768,631.4046 362.0768,632.5765 Q362.0768,634.1878 361.1165,634.9854 Q360.1725,635.7829 358.252,635.7829 Q357.4544,635.7829 356.6569,635.5876 Q355.8757,635.3923 355.127,635.0342 L355.127,632.8532 Q355.9733,633.4554 356.7546,633.7484 Q357.5358,634.0413 358.3171,634.0413 Q359.082,634.0413 359.5052,633.6995 Q359.9447,633.3415 359.9447,632.7067 Q359.9447,632.2184 359.6517,631.8604 Q359.375,631.5023 358.8379,631.2907 L357.7962,630.9001 Z " fill="#2E2E2E"/><text fill="#555555" font-family="&quot;Segoe Print&quot;" font-size="14.5833" lengthAdjust="spacing" textLength="40.625" x="383.8542" y="635.4116">dictht</text><path d="M290.625,649.2676 L290.625,649.5595 L300.932,648.6921 L311.239,649.536 L321.5461,649.8227 L331.8531,648.2768 L342.1601,649.1596 L352.4671,648.6752 L362.7741,648.7349 L373.0811,649.1729 L383.3882,648.3073 L393.6952,650.0365 L404.0022,648.3922 L414.3092,648.9929 L424.6162,649.8675 L434.9232,649.1484 L445.2303,649.3624 L455.5373,649.2232 L465.8443,649.5155 L476.1513,649.5997 L486.4583,649.2676 " fill="none" style="stroke:#333333;stroke-width:1.0416666666666667;"/><text fill="#555555" font-family="&quot;Segoe Print&quot;" font-size="14.5833" lengthAdjust="spacing" textLength="116.6667" x="301.0417" y="672.1792">dictEntry **table</text><path d="M290.625,684.9935 L290.625,685.2854 L300.932,684.418 L311.239,685.2619 L321.5461,685.5486 L331.8531,684.0027 L342.1601,684.8856 L352.4671,684.4011 L362.7741,684.4609 L373.0811,684.8988 L383.3882,684.0333 L393.6952,685.7624 L404.0022,684.1181 L414.3092,684.7188 L424.6162,685.5934 L434.9232,684.8744 L445.2303,685.0883 L455.5373,684.9491 L465.8443,685.2414 L476.1513,685.3256 L486.4583,684.9935 " fill="none" style="stroke:#333333;stroke-width:1.0416666666666667;stroke-dasharray:1.0,2.0;"/><text fill="#555555" font-family="&quot;Segoe Print&quot;" font-size="14.5833" lengthAdjust="spacing" textLength="136.4583" x="301.0417" y="707.9051">unsigned long size</text><path d="M290.625,720.7194 L290.625,721.0113 L300.932,720.144 L311.239,720.9879 L321.5461,721.2745 L331.8531,719.7286 L342.1601,720.6115 L352.4671,720.127 L362.7741,720.1868 L373.0811,720.6247 L383.3882,719.7592 L393.6952,721.4883 L404.0022,719.844 L414.3092,720.4447 L424.6162,721.3193 L434.9232,720.6003 L445.2303,720.8142 L455.5373,720.675 L465.8443,720.9674 L476.1513,721.0515 L486.4583,720.7194 " fill="none" style="stroke:#333333;stroke-width:1.0416666666666667;stroke-dasharray:1.0,2.0;"/><text fill="#555555" font-family="&quot;Segoe Print&quot;" font-size="14.5833" lengthAdjust="spacing" textLength="175" x="301.0417" y="743.631">unsigned long sizemask</text><path d="M290.625,756.4453 L290.625,756.7372 L300.932,755.8699 L311.239,756.7138 L321.5461,757.0004 L331.8531,755.4545 L342.1601,756.3374 L352.4671,755.853 L362.7741,755.9127 L373.0811,756.3507 L383.3882,755.4851 L393.6952,757.2143 L404.0022,755.5699 L414.3092,756.1706 L424.6162,757.0452 L434.9232,756.3262 L445.2303,756.5401 L455.5373,756.4009 L465.8443,756.6933 L476.1513,756.7774 L486.4583,756.4453 " fill="none" style="stroke:#333333;stroke-width:1.0416666666666667;stroke-dasharray:1.0,2.0;"/><text fill="#555555" font-family="&quot;Segoe Print&quot;" font-size="14.5833" lengthAdjust="spacing" textLength="143.75" x="301.0417" y="779.3569">unsigned long used</text></g><!--class v--><g id="elem_v"><polygon fill="none" points="228.6458,1061.4583,228.6458,1061.6773,239.1667,1061.0267,249.6875,1061.6597,260.2083,1061.8747,270.7292,1060.7152,281.25,1061.3774,291.7708,1061.0141,302.2917,1061.0589,312.8125,1061.3873,323.3333,1060.7382,333.8542,1061.4583,333.9277,1061.6359,334.3597,1061.5002,335.0064,1061.883,335.6793,1062.3291,336.1998,1062.4071,336.8004,1062.6787,336.8223,1062.6878,337.0343,1063.2637,337.3459,1063.881,337.6094,1064.4783,337.9646,1065.1136,338.0208,1065.625,338.7198,1065.625,338.7284,1075.7803,338.2861,1085.9357,338.5037,1096.091,338.7523,1106.2464,337.2696,1116.4017,338.7276,1126.5571,337.712,1136.7124,338.5769,1146.8678,337.5052,1157.0231,337.9495,1167.1785,338.7933,1177.3338,337.9701,1187.4891,338.1305,1197.6445,338.3736,1207.7998,338.4544,1217.9552,338.0168,1228.1105,338.32,1238.2659,338.0208,1248.4212,337.8372,1248.3452,337.868,1249.0483,337.7085,1249.6726,337.4312,1250.2481,337.2412,1250.8597,336.8004,1251.3675,336.7363,1251.2125,336.1245,1251.4024,335.5394,1251.6563,335.0249,1252.0808,334.4173,1252.2808,333.8542,1252.5879,333.8542,1253.2977,323.3333,1252.4059,312.8125,1252.2305,302.2917,1252.8257,291.7708,1251.8933,281.25,1252.0471,270.7292,1253.2639,260.2083,1253.0417,249.6875,1253.353,239.1667,1252.2527,228.6458,1252.5879,228.6882,1252.6903,228.135,1252.5332,227.4046,1251.9482,226.8653,1251.8249,226.3056,1251.652,225.6996,1251.3675,225.9086,1251.4541,225.4541,1250.7777,225.3598,1250.2505,224.7897,1249.5262,224.506,1248.9205,224.4792,1248.4212,225.0038,1248.4212,223.7324,1238.2659,225.0093,1228.1105,224.6944,1217.9552,224.2001,1207.7998,224.1107,1197.6445,224.957,1187.4891,224.1674,1177.3338,225.0957,1167.1785,223.9034,1157.0231,225.1223,1146.8678,224.9836,1136.7124,224.7343,1126.5571,224.5284,1116.4017,225.2361,1106.2464,225.1183,1096.091,224.6555,1085.9357,224.7585,1075.7803,224.4792,1065.625,224.4374,1065.6077,224.9531,1065.1309,225.017,1064.4671,225.2668,1063.8802,225.2603,1063.1871,225.6996,1062.6787,225.6457,1062.5487,226.3593,1062.6049,226.9352,1062.3284,227.4616,1061.9327,228.0138,1061.5991,228.6458,1061.4583" style="stroke:#333333;stroke-width:1.0416666666666667;"/><polygon fill="#DA70D6" points="278.7034,1088.105,277.1765,1090.1914,275.3705,1093.2471,272.7875,1095.3065,270.0733,1096.4327,267.9091,1096.5304,265.1275,1095.122,262.503,1094.2019,260.5109,1092.3338,259.466,1090.1951,258.8463,1088.4923,258.2392,1086.268,257.2538,1084.3539,258.011,1082.4851,258.6744,1080.438,261.1641,1078.8189,262.9157,1076.7182,265.0837,1076.0206,267.6611,1075.4198,270.9663,1075.7767,272.7766,1076.6305,274.8814,1077.0175,277.4405,1079.6395,278.3326,1082.4074,278.7202,1084.2961,278.2812,1087.4083" style="stroke:#2E2E2E;stroke-width:1.0416666666666667;"/><path d="M264.2904,1087.1175 L264.2904,1080.4118 L266.39,1080.4118 L266.39,1087.6383 Q266.39,1088.4359 266.7969,1088.8916 Q267.2038,1089.3473 267.9362,1089.3473 Q268.6523,1089.3473 269.0592,1088.8916 Q269.4661,1088.4359 269.4661,1087.6383 L269.4661,1080.4118 L271.5658,1080.4118 L271.5658,1087.1175 Q271.5658,1089.2822 270.7031,1090.2751 Q269.8405,1091.2516 267.9362,1091.2516 Q266.0319,1091.2516 265.153,1090.2751 Q264.2904,1089.2822 264.2904,1087.1175 Z " fill="#2E2E2E"/><text fill="#555555" font-family="&quot;Segoe Print&quot;" font-size="14.5833" lengthAdjust="spacing" textLength="7.2917" x="293.2292" y="1095.8282">v</text><path d="M225.5208,1109.6842 L225.5208,1109.9762 L235.6534,1109.1088 L245.786,1109.9527 L255.9186,1110.2394 L266.0511,1108.6934 L276.1837,1109.5763 L286.3163,1109.0919 L296.4489,1109.1516 L306.5814,1109.5896 L316.714,1108.724 L326.8466,1110.4532 L336.9792,1109.6842 " fill="none" style="stroke:#333333;stroke-width:1.0416666666666667;"/><text fill="#555555" font-family="&quot;Segoe Print&quot;" font-size="14.5833" lengthAdjust="spacing" textLength="59.375" x="235.9375" y="1132.5958">void *val</text><path d="M225.5208,1145.4102 L225.5208,1145.7021 L235.6534,1144.8347 L245.786,1145.6786 L255.9186,1145.9653 L266.0511,1144.4193 L276.1837,1145.3022 L286.3163,1144.8178 L296.4489,1144.8775 L306.5814,1145.3155 L316.714,1144.4499 L326.8466,1146.1791 L336.9792,1145.4102 " fill="none" style="stroke:#333333;stroke-width:1.0416666666666667;stroke-dasharray:1.0,2.0;"/><text fill="#555555" font-family="&quot;Segoe Print&quot;" font-size="14.5833" lengthAdjust="spacing" textLength="90.625" x="235.9375" y="1168.3217">uint64_t u64</text><path d="M225.5208,1181.1361 L225.5208,1181.428 L235.6534,1180.5606 L245.786,1181.4045 L255.9186,1181.6912 L266.0511,1180.1452 L276.1837,1181.0281 L286.3163,1180.5437 L296.4489,1180.6034 L306.5814,1181.0414 L316.714,1180.1758 L326.8466,1181.905 L336.9792,1181.1361 " fill="none" style="stroke:#333333;stroke-width:1.0416666666666667;stroke-dasharray:1.0,2.0;"/><text fill="#555555" font-family="&quot;Segoe Print&quot;" font-size="14.5833" lengthAdjust="spacing" textLength="80.2083" x="235.9375" y="1204.0476">int64_t s64</text><path d="M225.5208,1216.862 L225.5208,1217.1539 L235.6534,1216.2865 L245.786,1217.1304 L255.9186,1217.4171 L266.0511,1215.8712 L276.1837,1216.754 L286.3163,1216.2696 L296.4489,1216.3293 L306.5814,1216.7673 L316.714,1215.9017 L326.8466,1217.6309 L336.9792,1216.862 " fill="none" style="stroke:#333333;stroke-width:1.0416666666666667;stroke-dasharray:1.0,2.0;"/><text fill="#555555" font-family="&quot;Segoe Print&quot;" font-size="14.5833" lengthAdjust="spacing" textLength="63.5417" x="235.9375" y="1239.7736">double d</text></g><g id="elem_GMN8"><path d="M85.4167,911.9792 L85.6113,911.9792 L85.033,917.8743 L85.5956,923.7695 L85.7867,929.6647 L84.7561,935.5599 L85.4167,941.4551 L89.5833,945.6217 L89.5833,945.4059 L99.537,944.437 L109.4907,944.5565 L119.4444,945.4324 L129.3981,943.7013 L139.3519,947.1596 L149.3056,943.871 L159.2593,945.0724 L169.213,946.8216 L179.1667,945.6217 L178.9538,945.5148 L184.1676,955.3243 L188.7506,964.8168 L194.1046,974.6967 L199.0866,984.3898 L204.7784,994.4394 L209.8219,1004.1633 L214.6739,1013.791 L218.4515,1022.8789 L223.8017,1032.757 L229.2257,1042.672 L230.5241,1050.5145 L237.1458,1061.0313 L238.8772,1061.776 L232.2521,1051.0883 L230.2337,1042.3823 L223.4712,1031.6355 L220.4224,1022.4862 L218.3524,1013.758 L212.1986,1003.273 L208.4545,993.8246 L204.9127,984.4633 L200.9736,974.931 L195.7643,964.8524 L192.37,955.5545 L187.5,945.6217 L187.5,944.0317 L197.9167,946.4117 L208.3333,947.1445 L218.75,946.8566 L229.1667,947.3246 L239.5833,944.2799 L250,943.8101 L260.4167,945.6217 L264.5833,941.4551 L264.008,941.4551 L264.5288,936.8099 L264.4014,932.1647 L265.2143,927.5195 L264.4216,922.8743 L264.5833,918.2292 L264.3587,918.0046 L262.6495,916.2953 L259.9801,913.6259 L257.9934,911.6393 L256.6749,910.3207 L254.1667,907.8125 L254.1667,909.0227 L243.8802,909.8528 L233.5938,906.9186 L223.3073,908.6992 L213.0208,909.4526 L202.7344,906.5003 L192.4479,907.5462 L182.1615,908.1625 L171.875,909.6229 L161.5885,907.8009 L151.3021,909.0974 L141.0156,906.2742 L130.7292,905.9312 L120.4427,909.2114 L110.1563,905.821 L99.8698,909.2263 L89.5833,907.8125 L85.4167,911.9792 " fill="#17A2B8" style="stroke:#2E2E2E;stroke-width:1.0416666666666667;"/><path d="M254.1667,907.8125 L254.3613,907.8125 L253.783,909.4792 L254.3456,911.1458 L254.5367,912.8125 L253.5061,914.4792 L254.1667,916.1458 L256.25,918.2292 L256.25,918.1572 L257.9167,917.8343 L259.5833,917.8741 L261.25,918.1661 L262.9167,917.589 L264.5833,918.2292 L264.9458,918.5917 L262.0873,915.7332 L260.2872,913.933 L258.6161,912.262 L256.1938,909.8397 L254.1667,907.8125 " fill="#17A2B8" style="stroke:#2E2E2E;stroke-width:1.0416666666666667;"/><text fill="#FFFFFF" font-family="&quot;Segoe Print&quot;" font-size="14.5833" lengthAdjust="spacing" textLength="146.875" x="96.875" y="931.7657">这是一个联合体 union</text></g><!--class dictEntry--><g id="elem_dictEntry"><polygon fill="none" points="305.7292,854.1667,305.7292,854.3856,316.0807,853.7351,326.4323,854.368,336.7839,854.583,347.1354,853.4235,357.487,854.0857,367.8385,853.7224,378.1901,853.7672,388.5417,854.0957,398.8932,853.4465,409.2448,854.7434,419.5964,853.5101,429.9479,853.9607,440.2995,854.6166,450.651,854.0773,461.0026,854.2377,471.3542,854.1667,471.3499,854.1564,471.9671,854.468,472.5645,854.7315,473.1998,855.0868,473.8004,855.3582,474.3004,855.3871,474.5183,855.4773,474.6262,856.0101,474.9373,856.6272,475.2579,857.2481,475.0454,857.6482,475.5208,858.3333,476.2276,858.3333,475.212,868.8452,476.0769,879.357,475.0052,889.8688,475.4495,900.3806,476.2933,910.8924,475.4701,921.4042,475.6305,931.9161,475.8736,942.4279,475.9544,952.9397,475.5168,963.4515,475.82,973.9633,474.9246,984.4752,475.5208,994.987,475.6121,995.0248,475.4526,995.6491,475.1753,996.2246,474.9853,996.8362,474.3896,997.2798,474.3004,997.9333,474.2138,997.724,473.6286,997.978,473.1141,998.4025,472.5066,998.6024,472.034,999.1282,471.3542,999.1536,471.3542,998.9717,461.0026,998.7963,450.651,999.3914,440.2995,998.459,429.9479,998.6129,419.5964,999.8296,409.2448,999.6075,398.8932,999.9187,388.5417,998.8184,378.1901,999.4861,367.8385,999.7687,357.487,998.6616,347.1354,999.0538,336.7839,999.2849,326.4323,999.8326,316.0807,999.1493,305.7292,999.1536,305.7906,999.302,305.0663,998.7319,304.4607,998.4482,304.0283,998.583,303.2769,997.9473,302.7829,997.9333,302.9462,998.0009,302.6051,997.3715,302.2088,996.7191,301.9372,996.1185,301.9537,995.6372,301.5625,994.987,301.2507,994.987,302.179,984.4752,300.9867,973.9633,302.2057,963.4515,302.067,952.9397,301.8177,942.4279,301.6117,931.9161,302.3194,921.4042,302.2016,910.8924,301.7388,900.3806,301.8419,889.8688,301.4268,879.357,302.3088,868.8452,301.5625,858.3333,301.6122,858.3539,301.8619,857.767,301.8555,857.074,302.1647,856.5117,302.7091,856.0468,302.7829,855.3871,302.84,855.5249,303.3664,855.1292,303.9186,854.7956,304.5216,854.5846,305.0487,854.1906,305.7292,854.1667" style="stroke:#333333;stroke-width:1.0416666666666667;"/><polygon fill="none" points="358.3909,875.605,356.864,877.6914,355.058,880.7471,352.475,882.8065,349.7608,883.9327,347.5966,884.0304,344.815,882.622,342.1905,881.7019,340.1984,879.8338,339.1535,877.6951,338.5338,875.9923,337.9267,873.768,336.9413,871.8539,337.6985,869.9851,338.3619,867.938,340.8516,866.3189,342.6032,864.2182,344.7712,863.5206,347.3486,862.9198,350.6538,863.2767,352.4641,864.1305,354.5689,864.5175,357.128,867.1395,358.0201,869.9074,358.4077,871.7961,357.9687,874.9083" style="stroke:#2E2E2E;stroke-width:1.0416666666666667;"/><path d="M346.8587,873.6084 Q345.2799,873.0062 344.7103,872.3389 Q344.1406,871.6715 344.1406,870.5485 Q344.1406,869.0999 345.0684,868.2861 Q345.9961,867.4561 347.6237,867.4561 Q348.3561,867.4561 349.0885,867.6351 Q349.821,867.7979 350.5371,868.1234 L350.5371,870.1742 Q349.8535,869.6859 349.1536,869.4417 Q348.4701,869.1976 347.7865,869.1976 Q347.0215,869.1976 346.6146,869.5068 Q346.2077,869.7998 346.2077,870.3695 Q346.2077,870.8089 346.5007,871.1019 Q346.7936,871.3949 347.7376,871.7367 L348.6491,872.0785 Q349.9186,872.5505 350.5208,873.3317 Q351.1393,874.113 351.1393,875.2848 Q351.1393,876.8962 350.179,877.6937 Q349.235,878.4912 347.3145,878.4912 Q346.5169,878.4912 345.7194,878.2959 Q344.9382,878.1006 344.1895,877.7425 L344.1895,875.5615 Q345.0358,876.1637 345.8171,876.4567 Q346.5983,876.7497 347.3796,876.7497 Q348.1445,876.7497 348.5677,876.4079 Q349.0072,876.0498 349.0072,875.415 Q349.0072,874.9268 348.7142,874.5687 Q348.4375,874.2106 347.9004,873.999 L346.8587,873.6084 Z " fill="#2E2E2E"/><text fill="#555555" font-family="&quot;Segoe Print&quot;" font-size="14.5833" lengthAdjust="spacing" textLength="62.5" x="372.9167" y="878.1199">dictEntry</text><path d="M302.6042,891.9759 L302.6042,892.2678 L312.7145,891.4005 L322.8248,892.2444 L332.935,892.531 L343.0453,890.9851 L353.1556,891.868 L363.2659,891.3836 L373.3762,891.4433 L383.4865,891.8812 L393.5968,891.0157 L403.7071,892.7449 L413.8174,891.1005 L423.9277,891.7012 L434.038,892.5758 L444.1483,891.8568 L454.2586,892.0707 L464.3689,891.9315 L474.4792,891.9759 " fill="none" style="stroke:#333333;stroke-width:1.0416666666666667;"/><text fill="#555555" font-family="&quot;Segoe Print&quot;" font-size="14.5833" lengthAdjust="spacing" textLength="65.625" x="313.0208" y="914.8875">void *key</text><path d="M302.6042,927.7018 L302.6042,927.9937 L312.7145,927.1264 L322.8248,927.9703 L332.935,928.2569 L343.0453,926.711 L353.1556,927.5939 L363.2659,927.1095 L373.3762,927.1692 L383.4865,927.6072 L393.5968,926.7416 L403.7071,928.4708 L413.8174,926.8264 L423.9277,927.4271 L434.038,928.3017 L444.1483,927.5827 L454.2586,927.7966 L464.3689,927.6575 L474.4792,927.7018 " fill="none" style="stroke:#333333;stroke-width:1.0416666666666667;stroke-dasharray:1.0,2.0;"/><text fill="#555555" font-family="&quot;Segoe Print&quot;" font-size="14.5833" lengthAdjust="spacing" textLength="52.0833" x="313.0208" y="950.6134">union v</text><path d="M302.6042,963.4277 L302.6042,963.7197 L312.7145,962.8523 L322.8248,963.6962 L332.935,963.9828 L343.0453,962.4369 L353.1556,963.3198 L363.2659,962.8354 L373.3762,962.8951 L383.4865,963.3331 L393.5968,962.4675 L403.7071,964.1967 L413.8174,962.5523 L423.9277,963.1531 L434.038,964.0277 L444.1483,963.3086 L454.2586,963.5225 L464.3689,963.3834 L474.4792,963.4277 " fill="none" style="stroke:#333333;stroke-width:1.0416666666666667;stroke-dasharray:1.0,2.0;"/><text fill="#555555" font-family="&quot;Segoe Print&quot;" font-size="14.5833" lengthAdjust="spacing" textLength="151.0417" x="313.0208" y="986.3393">struct dictEntry *next</text></g><!--reverse link redisDb to dict--><g id="link_redisDb_dict"><path d="M388.5417,285.2292 L388.639,285.2292 L388.3499,294.5688 L388.6312,303.9083 L388.7267,313.2479 L388.2114,322.5875 L388.5417,331.9271 " fill="none" style="stroke:#333333;stroke-width:3.125;"/><polygon fill="none" points="388.5417,271.8125,388.6024,271.853,387.5886,272.9827,386.9308,274.3497,386.1571,275.6395,385.0022,276.6751,384.375,278.0625,384.3525,278.0475,385.0851,279.2304,385.9309,280.4886,386.8553,281.7994,387.5086,282.9293,388.5417,284.3125,388.7016,284.4191,389.1929,282.9411,390.1512,281.7744,391.1665,280.6457,391.8502,279.296,392.7083,278.0625,392.728,278.0756,391.8658,276.8063,391.0932,275.5969,390.2774,274.3586,389.5442,273.1753,388.5417,271.8125" style="stroke:#333333;stroke-width:3.125;"/></g><!--reverse link dict to dictht--><g id="link_dict_dictht"><path d="M388.5417,564.2396 L388.639,564.2396 L388.3499,573.5896 L388.6312,582.9396 L388.7267,592.2896 L388.2114,601.6396 L388.5417,610.9896 " fill="none" style="stroke:#333333;stroke-width:3.125;"/><polygon fill="none" points="388.5417,550.7708,388.6024,550.8113,387.5886,551.941,386.9308,553.3081,386.1571,554.5978,385.0022,555.6334,384.375,557.0208,384.3525,557.0059,385.0851,558.1887,385.9309,559.447,386.8553,560.7577,387.5086,561.8877,388.5417,563.2708,388.7016,563.3775,389.1929,561.8994,390.1512,560.7327,391.1665,559.604,391.8502,558.2543,392.7083,557.0208,392.728,557.034,391.8658,555.7647,391.0932,554.5552,390.2774,553.3169,389.5442,552.1336,388.5417,550.7708" style="stroke:#333333;stroke-width:3.125;"/></g><!--reverse link dictht to dictEntry--><g id="link_dictht_dictEntry"><path d="M388.5417,807.0938 L388.639,807.0938 L388.3499,816.4625 L388.6312,825.8313 L388.7267,835.2 L388.2114,844.5688 L388.5417,853.9375 " fill="none" style="stroke:#333333;stroke-width:3.125;"/><polygon fill="none" points="388.5417,793.5625,388.6024,793.603,387.5886,794.7327,386.9308,796.0997,386.1571,797.3895,385.0022,798.4251,384.375,799.8125,384.3525,799.7975,385.0851,800.9804,385.9309,802.2386,386.8553,803.5494,387.5086,804.6793,388.5417,806.0625,388.7016,806.1691,389.1929,804.6911,390.1512,803.5244,391.1665,802.3957,391.8502,801.046,392.7083,799.8125,392.728,799.8256,391.8658,798.5563,391.0932,797.3469,390.2774,796.1086,389.5442,794.9253,388.5417,793.5625" style="stroke:#333333;stroke-width:3.125;"/></g><!--reverse link dictEntry to v--><g id="link_dictEntry_v"><path d="M348.3542,1013.0521 L348.6183,1013.1763 L343.3022,1022.4426 L339.5346,1032.4372 L335.2628,1042.1946 L329.3325,1051.1721 L325.6979,1061.2292 " fill="none" style="stroke:#333333;stroke-width:3.125;"/><polygon fill="none" points="354.0729,1000.8958,354.1106,1000.9583,352.7125,1001.5493,351.5355,1002.5064,350.2865,1003.3443,348.8007,1003.7901,347.6427,1004.7787,347.6161,1004.7747,347.7185,1006.2426,347.9555,1007.7306,348.286,1009.2325,348.2941,1010.6863,348.7538,1012.2076,348.8531,1012.3722,349.9267,1011.2437,351.2903,1010.5957,352.6894,1010.0063,353.8825,1009.0759,355.1839,1008.3248,355.2074,1008.3283,354.9508,1006.8373,354.8008,1005.3624,354.5994,1003.8797,354.4962,1002.4117,354.0729,1000.8958" style="stroke:#333333;stroke-width:3.125;"/></g><!--SRC=[VLDDRzD04BtlhrXEWDLKf4GvL5LFm1y0JWXL6-yaNiNPjRnZ4rD50eb33qWWjGT0N10S8YJ4aGYfwf-9c_mCndRyaSR5XxNslPdnUs_NTz232N0x1dIzf6CYz9K6PiTA1o8K4ovXA28VdnYDJzLhuDqUkyjhslM5jVoKiEofgXuUR11j42gwlMH6xnbZp68OkSX3aCe-6b1JHaf5a9Ej-NP_lu72D50Xs5rYu1kN58vEnf2qq248cTp2lHAK0yWTLcdaIh9PgJAlhYK-ImBW3jBQR8gDajm9GXLBWUBcnppa7huuUDd4VQD7b80dhAVaz8Q0Rly4UI0Y2qK5gSdZzM68t0ppeOU7nSpq_2nTl5z_c-yzI3_yeVVgnz_hNz_Jh_FbvTNgOhxwygugOTsgf1YyHOAM-IasdNjDxuyrXWbt71G3Vyj-fAqQQP25Aqk7_dzs8kpuzWgotSW_vaT7_DxpFHEwbDHzVdoyKLJd7Wk_GZOJywcKPBz7IKRzNXjVqhQTbYOYcroMuQC9iknZjhxwVFtfztBnPhdukNvxaNuyMrwUamTbT6k6HModZOj2TsxRFhNIu0Qqq-vec299ANyQq-daBCllPxdpYhrN8tatg-TaUFmF]--></g></svg>