<svg version="1.1" xmlns="http://www.w3.org/2000/svg" viewBox="0 0 531.4821188089976 303.0412354882233" width="531.4821188089976" height="303.0412354882233">
  <!-- svg-source:excalidraw -->
  
  <defs>
    <style class="style-fonts">
      @font-face {
        font-family: "Virgil";
        src: url("https://unpkg.com/@excalidraw/excalidraw@0.15.3/dist/excalidraw-assets/Virgil.woff2");
      }
      @font-face {
        font-family: "Cascadia";
        src: url("https://unpkg.com/@excalidraw/excalidraw@0.15.3/dist/excalidraw-assets/Cascadia.woff2");
      }
    </style>
  </defs>
  <rect x="0" y="0" width="531.4821188089976" height="303.0412354882233" fill="#ffffff"></rect><g stroke-linecap="round" transform="translate(76.48780822753906 126.2913270409577) rotate(0 70.5 20.5)"><path d="M0 0 C0 0, 0 0, 0 0 M0 0 C0 0, 0 0, 0 0 M-0.26 6.4 C1.43 4.45, 3.12 2.5, 4.99 0.36 M-0.26 6.4 C1.24 4.67, 2.74 2.94, 4.99 0.36 M0.13 12.04 C2.97 8.78, 5.8 5.52, 10.63 -0.03 M0.13 12.04 C4.26 7.29, 8.4 2.54, 10.63 -0.03 M-0.13 18.44 C5.27 12.23, 10.67 6.02, 15.62 0.33 M-0.13 18.44 C5.98 11.41, 12.09 4.38, 15.62 0.33 M0.27 24.08 C6.06 17.42, 11.86 10.75, 21.26 -0.07 M0.27 24.08 C7.07 16.26, 13.87 8.44, 21.26 -0.07 M0 30.48 C8.9 20.24, 17.8 10.01, 26.25 0.29 M0 30.48 C8.72 20.45, 17.44 10.42, 26.25 0.29 M-0.26 36.88 C7.41 28.05, 15.08 19.23, 31.89 -0.1 M-0.26 36.88 C8.36 26.97, 16.97 17.06, 31.89 -0.1 M0.79 41.77 C12.39 28.42, 23.99 15.08, 36.88 0.26 M0.79 41.77 C10.05 31.12, 19.3 20.47, 36.88 0.26 M6.44 41.37 C16.47 29.83, 26.5 18.29, 42.52 -0.14 M6.44 41.37 C18.74 27.22, 31.04 13.07, 42.52 -0.14 M11.42 41.73 C23.88 27.4, 36.33 13.08, 47.51 0.22 M11.42 41.73 C19.67 32.24, 27.92 22.75, 47.51 0.22 M16.41 42.09 C24.11 33.23, 31.81 24.37, 53.15 -0.17 M16.41 42.09 C28.83 27.8, 41.26 13.51, 53.15 -0.17 M22.05 41.7 C29.66 32.95, 37.27 24.2, 58.14 0.19 M22.05 41.7 C34.55 27.33, 47.04 12.96, 58.14 0.19 M27.04 42.06 C36.01 31.73, 44.99 21.41, 63.78 -0.21 M27.04 42.06 C35.65 32.15, 44.26 22.25, 63.78 -0.21 M32.68 41.66 C45.83 26.54, 58.98 11.41, 68.77 0.15 M32.68 41.66 C41.21 31.86, 49.73 22.06, 68.77 0.15 M37.67 42.02 C48.25 29.85, 58.83 17.68, 74.41 -0.24 M37.67 42.02 C48.1 30.02, 58.53 18.03, 74.41 -0.24 M43.31 41.63 C57.64 25.15, 71.97 8.67, 79.4 0.12 M43.31 41.63 C56.14 26.87, 68.96 12.12, 79.4 0.12 M48.3 41.99 C57.2 31.76, 66.09 21.52, 85.04 -0.28 M48.3 41.99 C60.1 28.42, 71.89 14.85, 85.04 -0.28 M53.94 41.59 C66.41 27.26, 78.87 12.92, 90.03 0.08 M53.94 41.59 C64.42 29.54, 74.9 17.48, 90.03 0.08 M58.93 41.95 C70.08 29.13, 81.23 16.3, 95.67 -0.31 M58.93 41.95 C68.47 30.98, 78 20.01, 95.67 -0.31 M64.57 41.56 C78.69 25.32, 92.8 9.08, 100.66 0.05 M64.57 41.56 C73.86 30.87, 83.15 20.19, 100.66 0.05 M69.56 41.92 C79.26 30.76, 88.96 19.6, 106.3 -0.34 M69.56 41.92 C84 25.31, 98.44 8.69, 106.3 -0.34 M75.2 41.52 C88.26 26.51, 101.31 11.5, 111.29 0.02 M75.2 41.52 C82.5 33.13, 89.8 24.73, 111.29 0.02 M80.19 41.88 C87.81 33.12, 95.43 24.36, 116.27 0.38 M80.19 41.88 C90.83 29.65, 101.46 17.42, 116.27 0.38 M85.83 41.49 C94.11 31.97, 102.39 22.44, 121.92 -0.02 M85.83 41.49 C96.68 29.02, 107.52 16.54, 121.92 -0.02 M90.82 41.85 C99.03 32.41, 107.23 22.98, 126.91 0.34 M90.82 41.85 C102.27 28.67, 113.73 15.5, 126.91 0.34 M96.46 41.46 C104.12 32.65, 111.77 23.84, 132.55 -0.05 M96.46 41.46 C105.75 30.77, 115.04 20.09, 132.55 -0.05 M101.45 41.82 C111.94 29.75, 122.43 17.68, 137.54 0.31 M101.45 41.82 C112.05 29.62, 122.65 17.43, 137.54 0.31 M107.09 41.42 C116.76 30.3, 126.43 19.18, 142.52 0.67 M107.09 41.42 C114.46 32.95, 121.82 24.48, 142.52 0.67 M112.08 41.78 C123.38 28.78, 134.68 15.78, 142.26 7.06 M112.08 41.78 C119.21 33.59, 126.33 25.39, 142.26 7.06 M117.73 41.39 C123.07 35.24, 128.42 29.09, 142 13.46 M117.73 41.39 C122.98 35.34, 128.24 29.29, 142 13.46 M122.71 41.75 C129.55 33.89, 136.38 26.02, 142.39 19.11 M122.71 41.75 C127.36 36.4, 132.01 31.05, 142.39 19.11 M128.36 41.35 C131.22 38.06, 134.08 34.77, 142.13 25.5 M128.36 41.35 C133.56 35.37, 138.76 29.38, 142.13 25.5 M133.34 41.71 C135.67 39.04, 138 36.36, 141.87 31.9 M133.34 41.71 C136.46 38.12, 139.58 34.53, 141.87 31.9 M138.33 42.07 C139.25 41.01, 140.18 39.95, 142.27 37.54 M138.33 42.07 C139.57 40.64, 140.81 39.22, 142.27 37.54" stroke="#82c91e" stroke-width="0.5" fill="none"></path><path d="M0 0 C45.17 0, 90.34 0, 141 0 M0 0 C31.84 0, 63.69 0, 141 0 M141 0 C141 16.27, 141 32.54, 141 41 M141 0 C141 12.48, 141 24.97, 141 41 M141 41 C95.3 41, 49.61 41, 0 41 M141 41 C97.19 41, 53.37 41, 0 41 M0 41 C0 32.24, 0 23.48, 0 0 M0 41 C0 27.97, 0 14.94, 0 0" stroke="#000000" stroke-width="1" fill="none"></path></g><g transform="translate(129.48780822753906 135.2913270409577) rotate(0 17.5 11.5)"><text x="17.5" y="0" font-family="Helvetica, Segoe UI Emoji" font-size="20px" fill="#000000" text-anchor="middle" style="white-space: pre;" direction="ltr" dominant-baseline="text-before-edge">Len</text></g><g stroke-linecap="round" transform="translate(76.68406677246094 167.72202162103582) rotate(0 70.5 20.5)"><path d="M0 0 C0 0, 0 0, 0 0 M0 0 C0 0, 0 0, 0 0 M-0.26 6.4 C1.47 4.41, 3.2 2.42, 4.99 0.36 M-0.26 6.4 C1.28 4.62, 2.82 2.85, 4.99 0.36 M0.13 12.04 C3.07 8.67, 6 5.29, 10.63 -0.03 M0.13 12.04 C2.86 8.9, 5.59 5.76, 10.63 -0.03 M-0.13 18.44 C3.55 14.21, 7.22 9.98, 15.62 0.33 M-0.13 18.44 C3.17 14.65, 6.46 10.86, 15.62 0.33 M0.27 24.08 C4.81 18.85, 9.36 13.62, 21.26 -0.07 M0.27 24.08 C7.39 15.89, 14.51 7.7, 21.26 -0.07 M0 30.48 C7.81 21.5, 15.61 12.53, 26.25 0.29 M0 30.48 C6.94 22.5, 13.88 14.52, 26.25 0.29 M-0.26 36.88 C12.31 22.43, 24.87 7.97, 31.89 -0.1 M-0.26 36.88 C11.45 23.41, 23.16 9.94, 31.89 -0.1 M0.79 41.77 C13.85 26.75, 26.9 11.74, 36.88 0.26 M0.79 41.77 C9.06 32.25, 17.33 22.74, 36.88 0.26 M6.44 41.37 C14.65 31.92, 22.87 22.47, 42.52 -0.14 M6.44 41.37 C13.93 32.75, 21.43 24.13, 42.52 -0.14 M11.42 41.73 C20.89 30.85, 30.35 19.96, 47.51 0.22 M11.42 41.73 C20.57 31.21, 29.71 20.69, 47.51 0.22 M16.41 42.09 C31.04 25.27, 45.66 8.44, 53.15 -0.17 M16.41 42.09 C26.39 30.61, 36.38 19.12, 53.15 -0.17 M22.05 41.7 C33.96 28, 45.87 14.29, 58.14 0.19 M22.05 41.7 C35.28 26.48, 48.52 11.26, 58.14 0.19 M27.04 42.06 C38.74 28.6, 50.43 15.15, 63.78 -0.21 M27.04 42.06 C41.3 25.66, 55.55 9.26, 63.78 -0.21 M32.68 41.66 C43.21 29.56, 53.73 17.46, 68.77 0.15 M32.68 41.66 C46.32 25.97, 59.96 10.28, 68.77 0.15 M37.67 42.02 C46.86 31.46, 56.04 20.89, 74.41 -0.24 M37.67 42.02 C49.36 28.57, 61.05 15.13, 74.41 -0.24 M43.31 41.63 C56.61 26.33, 69.91 11.04, 79.4 0.12 M43.31 41.63 C56.89 26.01, 70.47 10.39, 79.4 0.12 M48.3 41.99 C62.99 25.09, 77.68 8.19, 85.04 -0.28 M48.3 41.99 C57.61 31.28, 66.92 20.57, 85.04 -0.28 M53.94 41.59 C67.58 25.91, 81.21 10.23, 90.03 0.08 M53.94 41.59 C62.25 32.04, 70.55 22.49, 90.03 0.08 M58.93 41.95 C67.02 32.65, 75.1 23.35, 95.67 -0.31 M58.93 41.95 C70.48 28.67, 82.03 15.38, 95.67 -0.31 M64.57 41.56 C72.94 31.94, 81.3 22.32, 100.66 0.05 M64.57 41.56 C74.95 29.62, 85.33 17.68, 100.66 0.05 M69.56 41.92 C80.89 28.89, 92.21 15.87, 106.3 -0.34 M69.56 41.92 C78.81 31.27, 88.07 20.63, 106.3 -0.34 M75.2 41.52 C83.8 31.64, 92.39 21.75, 111.29 0.02 M75.2 41.52 C85.19 30.04, 95.17 18.55, 111.29 0.02 M80.19 41.88 C91.27 29.14, 102.35 16.39, 116.27 0.38 M80.19 41.88 C92.68 27.52, 105.16 13.16, 116.27 0.38 M85.83 41.49 C100.26 24.89, 114.69 8.29, 121.92 -0.02 M85.83 41.49 C93.23 32.98, 100.63 24.47, 121.92 -0.02 M90.82 41.85 C98.21 33.35, 105.59 24.86, 126.91 0.34 M90.82 41.85 C101.89 29.11, 112.97 16.38, 126.91 0.34 M96.46 41.46 C107.84 28.37, 119.21 15.29, 132.55 -0.05 M96.46 41.46 C105.84 30.67, 115.21 19.89, 132.55 -0.05 M101.45 41.82 C109.91 32.08, 118.37 22.35, 137.54 0.31 M101.45 41.82 C114.94 26.29, 128.44 10.77, 137.54 0.31 M107.09 41.42 C116.93 30.1, 126.77 18.79, 142.52 0.67 M107.09 41.42 C118.01 28.87, 128.92 16.31, 142.52 0.67 M112.08 41.78 C123.41 28.75, 134.73 15.72, 142.26 7.06 M112.08 41.78 C118.62 34.26, 125.15 26.75, 142.26 7.06 M117.73 41.39 C126.86 30.88, 135.99 20.38, 142 13.46 M117.73 41.39 C127.35 30.32, 136.97 19.25, 142 13.46 M122.71 41.75 C127.65 36.06, 132.59 30.38, 142.39 19.11 M122.71 41.75 C127.31 36.45, 131.91 31.16, 142.39 19.11 M128.36 41.35 C133.8 35.09, 139.24 28.83, 142.13 25.5 M128.36 41.35 C131.82 37.37, 135.28 33.39, 142.13 25.5 M133.34 41.71 C135.31 39.44, 137.29 37.18, 141.87 31.9 M133.34 41.71 C135.51 39.22, 137.68 36.72, 141.87 31.9 M138.33 42.07 C139.56 40.65, 140.8 39.23, 142.27 37.54 M138.33 42.07 C139.82 40.36, 141.31 38.64, 142.27 37.54" stroke="#82c91e" stroke-width="0.5" fill="none"></path><path d="M0 0 C30.16 0, 60.32 0, 141 0 M0 0 C30.9 0, 61.81 0, 141 0 M141 0 C141 8.87, 141 17.75, 141 41 M141 0 C141 12.29, 141 24.58, 141 41 M141 41 C107.1 41, 73.2 41, 0 41 M141 41 C98.95 41, 56.9 41, 0 41 M0 41 C0 31.14, 0 21.28, 0 0 M0 41 C0 31.67, 0 22.34, 0 0" stroke="#000000" stroke-width="1" fill="none"></path></g><g transform="translate(121.18406677246094 176.72202162103582) rotate(0 26 11.5)"><text x="26" y="0" font-family="Helvetica, Segoe UI Emoji" font-size="20px" fill="#000000" text-anchor="middle" style="white-space: pre;" direction="ltr" dominant-baseline="text-before-edge">*Data</text></g><g stroke-linecap="round" transform="translate(76.90708923339844 43.04419569330145) rotate(0 69.8856201171875 41.592620849609375)"><path d="M0 0 C45.82 0, 91.64 0, 139.77 0 M0 0 C46.2 0, 92.41 0, 139.77 0 M139.77 0 C139.77 27.06, 139.77 54.13, 139.77 83.19 M139.77 0 C139.77 20.45, 139.77 40.91, 139.77 83.19 M139.77 83.19 C96.97 83.19, 54.16 83.19, 0 83.19 M139.77 83.19 C108.11 83.19, 76.45 83.19, 0 83.19 M0 83.19 C0 58.56, 0 33.93, 0 0 M0 83.19 C0 54.29, 0 25.39, 0 0" stroke="#000000" stroke-width="1" fill="none"></path></g><g stroke-linecap="round" transform="translate(77.04905700683594 209.85599378900457) rotate(0 69.8856201171875 41.592620849609375)"><path d="M0 0 C37.78 0, 75.55 0, 139.77 0 M0 0 C31.03 0, 62.06 0, 139.77 0 M139.77 0 C139.77 20.6, 139.77 41.2, 139.77 83.19 M139.77 0 C139.77 30.3, 139.77 60.6, 139.77 83.19 M139.77 83.19 C88.09 83.19, 36.41 83.19, 0 83.19 M139.77 83.19 C83.92 83.19, 28.06 83.19, 0 83.19 M0 83.19 C0 64.79, 0 46.4, 0 0 M0 83.19 C0 52.38, 0 21.58, 0 0" stroke="#000000" stroke-width="1" fill="none"></path></g><g transform="translate(122.34051513671875 12.348337376353243) rotate(0 17.5 14)"><text x="0" y="0" font-family="Helvetica, Segoe UI Emoji" font-size="20px" fill="#000000" text-anchor="start" style="white-space: pre;" direction="ltr" dominant-baseline="text-before-edge">X区</text></g><g stroke-linecap="round" transform="translate(380.2306844828257 166.55394394311446) rotate(0 70.5 20.5)"><path d="M0 0 C0 0, 0 0, 0 0 M0 0 C0 0, 0 0, 0 0 M-0.26 6.4 C1.69 4.15, 3.64 1.91, 4.99 0.36 M-0.26 6.4 C1.7 4.14, 3.67 1.88, 4.99 0.36 M0.13 12.04 C2.34 9.5, 4.55 6.96, 10.63 -0.03 M0.13 12.04 C4.27 7.28, 8.41 2.52, 10.63 -0.03 M-0.13 18.44 C4.3 13.35, 8.72 8.26, 15.62 0.33 M-0.13 18.44 C4.27 13.37, 8.68 8.31, 15.62 0.33 M0.27 24.08 C4.84 18.82, 9.41 13.56, 21.26 -0.07 M0.27 24.08 C8.37 14.76, 16.47 5.44, 21.26 -0.07 M0 30.48 C9.19 19.91, 18.38 9.34, 26.25 0.29 M0 30.48 C10.16 18.8, 20.31 7.12, 26.25 0.29 M-0.26 36.88 C10.99 23.94, 22.24 11, 31.89 -0.1 M-0.26 36.88 C8.68 26.59, 17.62 16.31, 31.89 -0.1 M0.79 41.77 C14.44 26.06, 28.09 10.36, 36.88 0.26 M0.79 41.77 C10.89 30.15, 20.99 18.53, 36.88 0.26 M6.44 41.37 C18.44 27.56, 30.45 13.75, 42.52 -0.14 M6.44 41.37 C15.11 31.4, 23.78 21.42, 42.52 -0.14 M11.42 41.73 C25.64 25.38, 39.85 9.03, 47.51 0.22 M11.42 41.73 C23.63 27.69, 35.84 13.64, 47.51 0.22 M16.41 42.09 C26.42 30.58, 36.43 19.06, 53.15 -0.17 M16.41 42.09 C26.96 29.95, 37.51 17.82, 53.15 -0.17 M22.05 41.7 C34.89 26.93, 47.72 12.17, 58.14 0.19 M22.05 41.7 C30.61 31.86, 39.16 22.01, 58.14 0.19 M27.04 42.06 C40.07 27.06, 53.11 12.07, 63.78 -0.21 M27.04 42.06 C40.96 26.05, 54.87 10.04, 63.78 -0.21 M32.68 41.66 C41.76 31.23, 50.83 20.79, 68.77 0.15 M32.68 41.66 C41.57 31.44, 50.45 21.22, 68.77 0.15 M37.67 42.02 C50.35 27.44, 63.02 12.86, 74.41 -0.24 M37.67 42.02 C49.43 28.49, 61.2 14.96, 74.41 -0.24 M43.31 41.63 C57.71 25.07, 72.11 8.5, 79.4 0.12 M43.31 41.63 C55.26 27.88, 67.21 14.14, 79.4 0.12 M48.3 41.99 C58.89 29.8, 69.49 17.62, 85.04 -0.28 M48.3 41.99 C57.93 30.91, 67.57 19.83, 85.04 -0.28 M53.94 41.59 C66.42 27.24, 78.9 12.88, 90.03 0.08 M53.94 41.59 C63.06 31.11, 72.18 20.62, 90.03 0.08 M58.93 41.95 C66.63 33.1, 74.32 24.25, 95.67 -0.31 M58.93 41.95 C66.3 33.47, 73.68 24.99, 95.67 -0.31 M64.57 41.56 C77.89 26.24, 91.21 10.92, 100.66 0.05 M64.57 41.56 C74.2 30.48, 83.83 19.41, 100.66 0.05 M69.56 41.92 C77.39 32.92, 85.21 23.92, 106.3 -0.34 M69.56 41.92 C79.73 30.22, 89.91 18.51, 106.3 -0.34 M75.2 41.52 C88.75 25.94, 102.3 10.36, 111.29 0.02 M75.2 41.52 C83.33 32.18, 91.45 22.84, 111.29 0.02 M80.19 41.88 C94.01 25.99, 107.83 10.09, 116.27 0.38 M80.19 41.88 C90.2 30.37, 100.21 18.86, 116.27 0.38 M85.83 41.49 C93.1 33.13, 100.38 24.76, 121.92 -0.02 M85.83 41.49 C95.73 30.11, 105.62 18.73, 121.92 -0.02 M90.82 41.85 C101.04 30.09, 111.26 18.34, 126.91 0.34 M90.82 41.85 C102.87 27.99, 114.92 14.13, 126.91 0.34 M96.46 41.46 C107.77 28.45, 119.08 15.44, 132.55 -0.05 M96.46 41.46 C109.31 26.68, 122.15 11.9, 132.55 -0.05 M101.45 41.82 C110.74 31.13, 120.02 20.45, 137.54 0.31 M101.45 41.82 C109.53 32.53, 117.6 23.24, 137.54 0.31 M107.09 41.42 C117.97 28.91, 128.85 16.39, 142.52 0.67 M107.09 41.42 C118 28.87, 128.91 16.32, 142.52 0.67 M112.08 41.78 C122 30.38, 131.91 18.97, 142.26 7.06 M112.08 41.78 C120.21 32.43, 128.34 23.07, 142.26 7.06 M117.73 41.39 C122.78 35.58, 127.83 29.77, 142 13.46 M117.73 41.39 C126.53 31.26, 135.33 21.13, 142 13.46 M122.71 41.75 C128.61 34.96, 134.51 28.18, 142.39 19.11 M122.71 41.75 C127.41 36.34, 132.11 30.94, 142.39 19.11 M128.36 41.35 C133.47 35.46, 138.59 29.57, 142.13 25.5 M128.36 41.35 C131.77 37.42, 135.19 33.49, 142.13 25.5 M133.34 41.71 C135.5 39.23, 137.66 36.74, 141.87 31.9 M133.34 41.71 C135.43 39.31, 137.51 36.91, 141.87 31.9 M138.33 42.07 C139.84 40.34, 141.34 38.61, 142.27 37.54 M138.33 42.07 C139.46 40.77, 140.59 39.47, 142.27 37.54" stroke="#fab005" stroke-width="0.5" fill="none"></path><path d="M0 0 C37.56 0, 75.12 0, 141 0 M0 0 C43.6 0, 87.21 0, 141 0 M141 0 C141 15.81, 141 31.63, 141 41 M141 0 C141 8.53, 141 17.05, 141 41 M141 41 C90 41, 39.01 41, 0 41 M141 41 C104.06 41, 67.11 41, 0 41 M0 41 C0 26.52, 0 12.03, 0 0 M0 41 C0 25.36, 0 9.72, 0 0" stroke="#000000" stroke-width="1" fill="none"></path></g><g transform="translate(433.7306844828257 175.55394394311446) rotate(0 17 11.5)"><text x="17" y="0" font-family="Helvetica, Segoe UI Emoji" font-size="20px" fill="#000000" text-anchor="middle" style="white-space: pre;" direction="ltr" dominant-baseline="text-before-edge">abc</text></g><g stroke-linecap="round" transform="translate(380.4821188089976 125.91325790795821) rotate(0 70.5 20.5)"><path d="M0 0 C44.61 0, 89.23 0, 141 0 M0 0 C30.69 0, 61.39 0, 141 0 M141 0 C141 13.87, 141 27.73, 141 41 M141 0 C141 12.96, 141 25.92, 141 41 M141 41 C86.14 41, 31.28 41, 0 41 M141 41 C98.96 41, 56.91 41, 0 41 M0 41 C0 31.81, 0 22.62, 0 0 M0 41 C0 25.83, 0 10.67, 0 0" stroke="#000000" stroke-width="1" fill="none"></path></g><g stroke-linecap="round" transform="translate(381.24134157797477 41.94861658432043) rotate(0 69.8856201171875 41.592620849609375)"><path d="M0 0 C31.57 0, 63.13 0, 139.77 0 M0 0 C55.47 0, 110.95 0, 139.77 0 M139.77 0 C139.77 25.33, 139.77 50.66, 139.77 83.19 M139.77 0 C139.77 26.96, 139.77 53.92, 139.77 83.19 M139.77 83.19 C96.34 83.19, 52.91 83.19, 0 83.19 M139.77 83.19 C109.9 83.19, 80.03 83.19, 0 83.19 M0 83.19 C0 56.75, 0 30.32, 0 0 M0 83.19 C0 58.57, 0 33.95, 0 0" stroke="#000000" stroke-width="1" fill="none"></path></g><g stroke-linecap="round" transform="translate(381.05285855509135 208.1051219216301) rotate(0 69.8856201171875 41.592620849609375)"><path d="M0 0 C35.88 0, 71.76 0, 139.77 0 M0 0 C35.46 0, 70.91 0, 139.77 0 M139.77 0 C139.77 28.11, 139.77 56.21, 139.77 83.19 M139.77 0 C139.77 31.4, 139.77 62.79, 139.77 83.19 M139.77 83.19 C91.05 83.19, 42.32 83.19, 0 83.19 M139.77 83.19 C91.92 83.19, 44.08 83.19, 0 83.19 M0 83.19 C0 59.91, 0 36.64, 0 0 M0 83.19 C0 59.11, 0 35.04, 0 0" stroke="#000000" stroke-width="1" fill="none"></path></g><g transform="translate(435.1528663372683 10) rotate(0 17.5 14)"><text x="0" y="0" font-family="Helvetica, Segoe UI Emoji" font-size="20px" fill="#000000" text-anchor="start" style="white-space: pre;" direction="ltr" dominant-baseline="text-before-edge">Y区</text></g><g stroke-linecap="round"><g transform="translate(223.13909912109375 181.80024096902542) rotate(0 75.6745081960027 3.2147629028067097)"><path d="M0 0 C55.55 2.36, 111.1 4.72, 151.35 6.43 M0 0 C52.99 2.25, 105.98 4.5, 151.35 6.43" stroke="#000000" stroke-width="1" fill="none"></path></g><g transform="translate(223.13909912109375 181.80024096902542) rotate(0 75.6745081960027 3.2147629028067097)"><path d="M151.35 6.43 L137.5 12.19 L138.04 -0.48 L151.35 6.43" stroke="none" stroke-width="0" fill="#000000" fill-rule="evenodd"></path><path d="M151.35 6.43 C146.26 8.54, 141.18 10.66, 137.5 12.19 M151.35 6.43 C146.5 8.44, 141.65 10.46, 137.5 12.19 M137.5 12.19 C137.69 7.58, 137.89 2.98, 138.04 -0.48 M137.5 12.19 C137.7 7.41, 137.9 2.64, 138.04 -0.48 M138.04 -0.48 C141.66 1.4, 145.28 3.28, 151.35 6.43 M138.04 -0.48 C141.54 1.34, 145.04 3.15, 151.35 6.43 M151.35 6.43 C151.35 6.43, 151.35 6.43, 151.35 6.43 M151.35 6.43 C151.35 6.43, 151.35 6.43, 151.35 6.43" stroke="#000000" stroke-width="1" fill="none"></path></g></g><mask></mask><g transform="translate(10 182.057516616153) rotate(0 6.5 11.5)"><text x="0" y="0" font-family="Helvetica, Segoe UI Emoji" font-size="20px" fill="#000000" text-anchor="start" style="white-space: pre;" direction="ltr" dominant-baseline="text-before-edge">a</text></g><g stroke-linecap="round"><g transform="translate(32.7447509765625 204.9939179833405) rotate(0 20.11322021484375 0.77398681640625)"><path d="M0 0 C8.93 0.34, 17.86 0.69, 40.23 1.55 M0 0 C9.96 0.38, 19.93 0.77, 40.23 1.55" stroke="#000000" stroke-width="1" fill="none"></path></g><g transform="translate(32.7447509765625 204.9939179833405) rotate(0 20.11322021484375 0.77398681640625)"><path d="M40.23 1.55 L26.4 7.36 L26.89 -5.31 L40.23 1.55" stroke="none" stroke-width="0" fill="#000000" fill-rule="evenodd"></path><path d="M40.23 1.55 C37.16 2.84, 34.09 4.13, 26.4 7.36 M40.23 1.55 C36.8 2.99, 33.38 4.43, 26.4 7.36 M26.4 7.36 C26.58 2.75, 26.75 -1.87, 26.89 -5.31 M26.4 7.36 C26.58 2.68, 26.76 -2.01, 26.89 -5.31 M26.89 -5.31 C32.22 -2.57, 37.55 0.17, 40.23 1.55 M26.89 -5.31 C29.84 -3.79, 32.79 -2.28, 40.23 1.55 M40.23 1.55 C40.23 1.55, 40.23 1.55, 40.23 1.55 M40.23 1.55 C40.23 1.55, 40.23 1.55, 40.23 1.55" stroke="#000000" stroke-width="1" fill="none"></path></g></g><mask></mask></svg>