<svg version="1.1" xmlns="http://www.w3.org/2000/svg" viewBox="0 0 532.4195404052734 318.4913864135742" width="532.4195404052734" height="318.4913864135742">
  <!-- svg-source:excalidraw -->
  
  <defs>
    <style class="style-fonts">
      @font-face {
        font-family: "Virgil";
        src: url("https://unpkg.com/@excalidraw/excalidraw@0.15.3/dist/excalidraw-assets/Virgil.woff2");
      }
      @font-face {
        font-family: "Cascadia";
        src: url("https://unpkg.com/@excalidraw/excalidraw@0.15.3/dist/excalidraw-assets/Cascadia.woff2");
      }
    </style>
  </defs>
  <rect x="0" y="0" width="532.4195404052734" height="318.4913864135742" fill="#ffffff"></rect><g stroke-linecap="round" transform="translate(76.48780822753906 129.84852600097656) rotate(0 70.5 20.5)"><path d="M0 0 C0 0, 0 0, 0 0 M0 0 C0 0, 0 0, 0 0 M-0.26 6.4 C1.76 4.07, 3.78 1.74, 4.99 0.36 M-0.26 6.4 C1.53 4.34, 3.31 2.29, 4.99 0.36 M0.13 12.04 C3.14 8.58, 6.15 5.12, 10.63 -0.03 M0.13 12.04 C3.42 8.26, 6.71 4.47, 10.63 -0.03 M-0.13 18.44 C5.67 11.76, 11.48 5.09, 15.62 0.33 M-0.13 18.44 C4.92 12.63, 9.97 6.83, 15.62 0.33 M0.27 24.08 C7.81 15.4, 15.35 6.73, 21.26 -0.07 M0.27 24.08 C5.55 18.01, 10.83 11.93, 21.26 -0.07 M0 30.48 C7.81 21.5, 15.61 12.52, 26.25 0.29 M0 30.48 C9.69 19.33, 19.38 8.19, 26.25 0.29 M-0.26 36.88 C6.61 28.98, 13.48 21.07, 31.89 -0.1 M-0.26 36.88 C10.3 24.73, 20.86 12.58, 31.89 -0.1 M0.79 41.77 C8.47 32.93, 16.15 24.1, 36.88 0.26 M0.79 41.77 C15.04 25.38, 29.29 8.99, 36.88 0.26 M6.44 41.37 C19.22 26.66, 32.01 11.96, 42.52 -0.14 M6.44 41.37 C15.94 30.44, 25.45 19.5, 42.52 -0.14 M11.42 41.73 C23.47 27.87, 35.52 14.02, 47.51 0.22 M11.42 41.73 C21.44 30.21, 31.46 18.69, 47.51 0.22 M16.41 42.09 C29.8 26.69, 43.19 11.29, 53.15 -0.17 M16.41 42.09 C25.51 31.63, 34.6 21.16, 53.15 -0.17 M22.05 41.7 C31.35 31, 40.64 20.31, 58.14 0.19 M22.05 41.7 C31.78 30.51, 41.51 19.32, 58.14 0.19 M27.04 42.06 C38.25 29.17, 49.45 16.28, 63.78 -0.21 M27.04 42.06 C39.68 27.52, 52.32 12.98, 63.78 -0.21 M32.68 41.66 C45.65 26.75, 58.61 11.83, 68.77 0.15 M32.68 41.66 C46.93 25.28, 61.17 8.89, 68.77 0.15 M37.67 42.02 C49.26 28.69, 60.85 15.35, 74.41 -0.24 M37.67 42.02 C48.24 29.87, 58.8 17.72, 74.41 -0.24 M43.31 41.63 C57.47 25.34, 71.63 9.06, 79.4 0.12 M43.31 41.63 C52.3 31.29, 61.28 20.96, 79.4 0.12 M48.3 41.99 C56.14 32.97, 63.97 23.96, 85.04 -0.28 M48.3 41.99 C58.77 29.94, 69.25 17.89, 85.04 -0.28 M53.94 41.59 C64.34 29.63, 74.74 17.67, 90.03 0.08 M53.94 41.59 C61.16 33.29, 68.38 24.99, 90.03 0.08 M58.93 41.95 C69.73 29.53, 80.53 17.11, 95.67 -0.31 M58.93 41.95 C66.84 32.86, 74.74 23.77, 95.67 -0.31 M64.57 41.56 C77.44 26.76, 90.3 11.97, 100.66 0.05 M64.57 41.56 C78.56 25.48, 92.54 9.39, 100.66 0.05 M69.56 41.92 C81.73 27.92, 93.89 13.93, 106.3 -0.34 M69.56 41.92 C77.95 32.27, 86.34 22.61, 106.3 -0.34 M75.2 41.52 C85.48 29.7, 95.76 17.87, 111.29 0.02 M75.2 41.52 C86.85 28.13, 98.5 14.73, 111.29 0.02 M80.19 41.88 C93.78 26.25, 107.38 10.61, 116.27 0.38 M80.19 41.88 C92.72 27.47, 105.25 13.06, 116.27 0.38 M85.83 41.49 C98.08 27.4, 110.33 13.31, 121.92 -0.02 M85.83 41.49 C96.27 29.48, 106.71 17.48, 121.92 -0.02 M90.82 41.85 C103.83 26.88, 116.84 11.92, 126.91 0.34 M90.82 41.85 C100.41 30.81, 110.01 19.78, 126.91 0.34 M96.46 41.46 C109.6 26.35, 122.73 11.24, 132.55 -0.05 M96.46 41.46 C108.81 27.25, 121.16 13.05, 132.55 -0.05 M101.45 41.82 C111.94 29.75, 122.43 17.68, 137.54 0.31 M101.45 41.82 C114.1 27.27, 126.75 12.72, 137.54 0.31 M107.09 41.42 C120.58 25.91, 134.07 10.39, 142.52 0.67 M107.09 41.42 C118.03 28.84, 128.97 16.26, 142.52 0.67 M112.08 41.78 C119.73 32.98, 127.38 24.19, 142.26 7.06 M112.08 41.78 C119.3 33.48, 126.52 25.17, 142.26 7.06 M117.73 41.39 C127.19 30.5, 136.65 19.62, 142 13.46 M117.73 41.39 C127.14 30.56, 136.55 19.74, 142 13.46 M122.71 41.75 C126.9 36.93, 131.09 32.1, 142.39 19.11 M122.71 41.75 C127.47 36.27, 132.23 30.8, 142.39 19.11 M128.36 41.35 C133.45 35.49, 138.54 29.63, 142.13 25.5 M128.36 41.35 C133.18 35.8, 138 30.26, 142.13 25.5 M133.34 41.71 C135.15 39.63, 136.95 37.56, 141.87 31.9 M133.34 41.71 C136.24 38.37, 139.14 35.04, 141.87 31.9 M138.33 42.07 C139.42 40.82, 140.51 39.56, 142.27 37.54 M138.33 42.07 C139.66 40.54, 140.99 39.01, 142.27 37.54" stroke="#82c91e" stroke-width="0.5" fill="none"></path><path d="M0 0 C39.27 0, 78.54 0, 141 0 M0 0 C30.56 0, 61.12 0, 141 0 M141 0 C141 15.72, 141 31.45, 141 41 M141 0 C141 8.69, 141 17.38, 141 41 M141 41 C104.96 41, 68.92 41, 0 41 M141 41 C93.68 41, 46.36 41, 0 41 M0 41 C0 29.3, 0 17.61, 0 0 M0 41 C0 29.01, 0 17.02, 0 0" stroke="#000000" stroke-width="1" fill="none"></path></g><g transform="translate(129.48780822753906 138.84852600097656) rotate(0 17.5 11.5)"><text x="17.5" y="0" font-family="Helvetica, Segoe UI Emoji" font-size="20px" fill="#000000" text-anchor="middle" style="white-space: pre;" direction="ltr" dominant-baseline="text-before-edge">Len</text></g><g stroke-linecap="round" transform="translate(76.68406677246094 171.2792205810547) rotate(0 70.5 20.5)"><path d="M0 0 C0 0, 0 0, 0 0 M0 0 C0 0, 0 0, 0 0 M-0.26 6.4 C0.79 5.19, 1.85 3.97, 4.99 0.36 M-0.26 6.4 C1.69 4.16, 3.63 1.92, 4.99 0.36 M0.13 12.04 C3.21 8.5, 6.3 4.95, 10.63 -0.03 M0.13 12.04 C2.45 9.38, 4.76 6.71, 10.63 -0.03 M-0.13 18.44 C4.76 12.82, 9.64 7.2, 15.62 0.33 M-0.13 18.44 C3.61 14.14, 7.34 9.85, 15.62 0.33 M0.27 24.08 C7.19 16.11, 14.12 8.15, 21.26 -0.07 M0.27 24.08 C4.95 18.7, 9.63 13.31, 21.26 -0.07 M0 30.48 C6.54 22.96, 13.07 15.45, 26.25 0.29 M0 30.48 C6.01 23.58, 12.01 16.67, 26.25 0.29 M-0.26 36.88 C12.59 22.1, 25.43 7.33, 31.89 -0.1 M-0.26 36.88 C7.3 28.19, 14.85 19.5, 31.89 -0.1 M0.79 41.77 C14.07 26.5, 27.34 11.23, 36.88 0.26 M0.79 41.77 C9.22 32.07, 17.65 22.37, 36.88 0.26 M6.44 41.37 C14.15 32.5, 21.87 23.62, 42.52 -0.14 M6.44 41.37 C17.57 28.56, 28.7 15.76, 42.52 -0.14 M11.42 41.73 C21.86 29.73, 32.29 17.73, 47.51 0.22 M11.42 41.73 C22.89 28.55, 34.35 15.36, 47.51 0.22 M16.41 42.09 C25.83 31.26, 35.24 20.43, 53.15 -0.17 M16.41 42.09 C30.13 26.31, 43.85 10.52, 53.15 -0.17 M22.05 41.7 C33.14 28.95, 44.22 16.2, 58.14 0.19 M22.05 41.7 C33.78 28.21, 45.5 14.73, 58.14 0.19 M27.04 42.06 C41.08 25.91, 55.11 9.77, 63.78 -0.21 M27.04 42.06 C35.78 32, 44.52 21.95, 63.78 -0.21 M32.68 41.66 C46.69 25.56, 60.69 9.45, 68.77 0.15 M32.68 41.66 C42.69 30.15, 52.7 18.64, 68.77 0.15 M37.67 42.02 C45.69 32.8, 53.7 23.58, 74.41 -0.24 M37.67 42.02 C51.92 25.63, 66.18 9.23, 74.41 -0.24 M43.31 41.63 C56.66 26.28, 70 10.93, 79.4 0.12 M43.31 41.63 C56.86 26.05, 70.41 10.46, 79.4 0.12 M48.3 41.99 C61.66 26.62, 75.03 11.24, 85.04 -0.28 M48.3 41.99 C62.55 25.59, 76.81 9.2, 85.04 -0.28 M53.94 41.59 C67.02 26.55, 80.1 11.5, 90.03 0.08 M53.94 41.59 C68.28 25.1, 82.62 8.61, 90.03 0.08 M58.93 41.95 C73.24 25.49, 87.55 9.03, 95.67 -0.31 M58.93 41.95 C69.23 30.11, 79.53 18.26, 95.67 -0.31 M64.57 41.56 C77.12 27.13, 89.67 12.69, 100.66 0.05 M64.57 41.56 C75.39 29.12, 86.2 16.68, 100.66 0.05 M69.56 41.92 C78.31 31.85, 87.07 21.78, 106.3 -0.34 M69.56 41.92 C83.73 25.62, 97.9 9.32, 106.3 -0.34 M75.2 41.52 C88.89 25.78, 102.57 10.04, 111.29 0.02 M75.2 41.52 C83.04 32.52, 90.87 23.51, 111.29 0.02 M80.19 41.88 C88.29 32.56, 96.39 23.24, 116.27 0.38 M80.19 41.88 C91.11 29.32, 102.03 16.76, 116.27 0.38 M85.83 41.49 C99.64 25.61, 113.44 9.73, 121.92 -0.02 M85.83 41.49 C95.29 30.61, 104.75 19.73, 121.92 -0.02 M90.82 41.85 C99.3 32.1, 107.77 22.35, 126.91 0.34 M90.82 41.85 C101.93 29.07, 113.05 16.28, 126.91 0.34 M96.46 41.46 C109.28 26.72, 122.09 11.98, 132.55 -0.05 M96.46 41.46 C108.22 27.93, 119.98 14.4, 132.55 -0.05 M101.45 41.82 C113.27 28.22, 125.09 14.62, 137.54 0.31 M101.45 41.82 C114.32 27.01, 127.19 12.2, 137.54 0.31 M107.09 41.42 C120.07 26.5, 133.04 11.58, 142.52 0.67 M107.09 41.42 C116.92 30.12, 126.74 18.82, 142.52 0.67 M112.08 41.78 C122.13 30.22, 132.18 18.67, 142.26 7.06 M112.08 41.78 C120.59 32, 129.09 22.21, 142.26 7.06 M117.73 41.39 C126.39 31.42, 135.05 21.45, 142 13.46 M117.73 41.39 C126.55 31.24, 135.37 21.09, 142 13.46 M122.71 41.75 C127.69 36.02, 132.67 30.29, 142.39 19.11 M122.71 41.75 C130.48 32.81, 138.24 23.88, 142.39 19.11 M128.36 41.35 C133.04 35.96, 137.73 30.56, 142.13 25.5 M128.36 41.35 C131.24 38.03, 134.13 34.71, 142.13 25.5 M133.34 41.71 C135.57 39.14, 137.81 36.58, 141.87 31.9 M133.34 41.71 C135.77 38.92, 138.19 36.13, 141.87 31.9 M138.33 42.07 C139.12 41.16, 139.91 40.25, 142.27 37.54 M138.33 42.07 C139.19 41.08, 140.05 40.09, 142.27 37.54" stroke="#82c91e" stroke-width="0.5" fill="none"></path><path d="M0 0 C34.89 0, 69.79 0, 141 0 M0 0 C45.86 0, 91.71 0, 141 0 M141 0 C141 9.34, 141 18.67, 141 41 M141 0 C141 14.57, 141 29.15, 141 41 M141 41 C93.89 41, 46.78 41, 0 41 M141 41 C108.83 41, 76.65 41, 0 41 M0 41 C0 31.07, 0 21.14, 0 0 M0 41 C0 27.84, 0 14.67, 0 0" stroke="#000000" stroke-width="1" fill="none"></path></g><g transform="translate(121.18406677246094 180.2792205810547) rotate(0 26 11.5)"><text x="26" y="0" font-family="Helvetica, Segoe UI Emoji" font-size="20px" fill="#000000" text-anchor="middle" style="white-space: pre;" direction="ltr" dominant-baseline="text-before-edge">*Data</text></g><g stroke-linecap="round" transform="translate(76.90708923339844 46.60139465332031) rotate(0 69.8856201171875 41.592620849609375)"><path d="M0 0 C52.37 0, 104.73 0, 139.77 0 M0 0 C31.85 0, 63.7 0, 139.77 0 M139.77 0 C139.77 26.77, 139.77 53.53, 139.77 83.19 M139.77 0 C139.77 24.19, 139.77 48.38, 139.77 83.19 M139.77 83.19 C111.46 83.19, 83.16 83.19, 0 83.19 M139.77 83.19 C95.79 83.19, 51.81 83.19, 0 83.19 M0 83.19 C0 63.44, 0 43.69, 0 0 M0 83.19 C0 50.87, 0 18.56, 0 0" stroke="#000000" stroke-width="1" fill="none"></path></g><g stroke-linecap="round" transform="translate(77.04905700683594 213.41319274902344) rotate(0 69.8856201171875 41.592620849609375)"><path d="M0 0 C34.97 0, 69.95 0, 139.77 0 M0 0 C48.33 0, 96.67 0, 139.77 0 M139.77 0 C139.77 19.83, 139.77 39.66, 139.77 83.19 M139.77 0 C139.77 16.84, 139.77 33.67, 139.77 83.19 M139.77 83.19 C101.78 83.19, 63.78 83.19, 0 83.19 M139.77 83.19 C89.61 83.19, 39.45 83.19, 0 83.19 M0 83.19 C0 56.3, 0 29.41, 0 0 M0 83.19 C0 60.28, 0 37.38, 0 0" stroke="#000000" stroke-width="1" fill="none"></path></g><g transform="translate(122.34051513671875 10) rotate(0 21 14)"><text x="0" y="0" font-family="Helvetica, Segoe UI Emoji" font-size="20px" fill="#000000" text-anchor="start" style="white-space: pre;" direction="ltr" dominant-baseline="text-before-edge">栈区</text></g><g stroke-linecap="round" transform="translate(381.16810607910156 183.75496673583984) rotate(0 70.5 20.5)"><path d="M0 0 C0 0, 0 0, 0 0 M0 0 C0 0, 0 0, 0 0 M-0.26 6.4 C1.69 4.15, 3.64 1.91, 4.99 0.36 M-0.26 6.4 C1.76 4.07, 3.78 1.74, 4.99 0.36 M0.13 12.04 C4.32 7.22, 8.51 2.4, 10.63 -0.03 M0.13 12.04 C2.41 9.42, 4.69 6.8, 10.63 -0.03 M-0.13 18.44 C3.77 13.95, 7.68 9.46, 15.62 0.33 M-0.13 18.44 C3.48 14.29, 7.09 10.13, 15.62 0.33 M0.27 24.08 C8.58 14.52, 16.89 4.96, 21.26 -0.07 M0.27 24.08 C5.29 18.31, 10.3 12.53, 21.26 -0.07 M0 30.48 C5.94 23.65, 11.88 16.82, 26.25 0.29 M0 30.48 C9.01 20.12, 18.01 9.76, 26.25 0.29 M-0.26 36.88 C9.65 25.49, 19.55 14.09, 31.89 -0.1 M-0.26 36.88 C10.56 24.44, 21.37 12, 31.89 -0.1 M0.79 41.77 C10.82 30.24, 20.84 18.71, 36.88 0.26 M0.79 41.77 C12.72 28.04, 24.65 14.32, 36.88 0.26 M6.44 41.37 C18 28.07, 29.56 14.77, 42.52 -0.14 M6.44 41.37 C19.91 25.87, 33.39 10.36, 42.52 -0.14 M11.42 41.73 C20.48 31.31, 29.54 20.89, 47.51 0.22 M11.42 41.73 C21.07 30.64, 30.71 19.55, 47.51 0.22 M16.41 42.09 C30.95 25.37, 45.49 8.64, 53.15 -0.17 M16.41 42.09 C30.63 25.73, 44.85 9.37, 53.15 -0.17 M22.05 41.7 C31.9 30.37, 41.75 19.04, 58.14 0.19 M22.05 41.7 C32.89 29.23, 43.73 16.76, 58.14 0.19 M27.04 42.06 C37.14 30.44, 47.24 18.83, 63.78 -0.21 M27.04 42.06 C41.2 25.77, 55.35 9.49, 63.78 -0.21 M32.68 41.66 C45.25 27.2, 57.82 12.74, 68.77 0.15 M32.68 41.66 C41.68 31.31, 50.69 20.95, 68.77 0.15 M37.67 42.02 C47.84 30.33, 58 18.63, 74.41 -0.24 M37.67 42.02 C50.48 27.29, 63.28 12.56, 74.41 -0.24 M43.31 41.63 C56.32 26.67, 69.32 11.71, 79.4 0.12 M43.31 41.63 C50.73 33.1, 58.14 24.57, 79.4 0.12 M48.3 41.99 C59.27 29.37, 70.23 16.76, 85.04 -0.28 M48.3 41.99 C56.71 32.32, 65.12 22.65, 85.04 -0.28 M53.94 41.59 C63.69 30.38, 73.44 19.17, 90.03 0.08 M53.94 41.59 C65.91 27.83, 77.88 14.06, 90.03 0.08 M58.93 41.95 C66.84 32.85, 74.76 23.75, 95.67 -0.31 M58.93 41.95 C71.8 27.16, 84.66 12.36, 95.67 -0.31 M64.57 41.56 C76.01 28.41, 87.44 15.25, 100.66 0.05 M64.57 41.56 C74.05 30.65, 83.53 19.75, 100.66 0.05 M69.56 41.92 C79.88 30.05, 90.19 18.18, 106.3 -0.34 M69.56 41.92 C77.22 33.11, 84.87 24.31, 106.3 -0.34 M75.2 41.52 C83.08 32.47, 90.95 23.41, 111.29 0.02 M75.2 41.52 C86.23 28.84, 97.25 16.16, 111.29 0.02 M80.19 41.88 C91.96 28.34, 103.73 14.8, 116.27 0.38 M80.19 41.88 C89.97 30.63, 99.76 19.38, 116.27 0.38 M85.83 41.49 C99.17 26.15, 112.5 10.81, 121.92 -0.02 M85.83 41.49 C94.45 31.58, 103.07 21.67, 121.92 -0.02 M90.82 41.85 C103.86 26.85, 116.89 11.86, 126.91 0.34 M90.82 41.85 C104.46 26.16, 118.11 10.46, 126.91 0.34 M96.46 41.46 C105.29 31.3, 114.11 21.15, 132.55 -0.05 M96.46 41.46 C107.76 28.46, 119.05 15.47, 132.55 -0.05 M101.45 41.82 C114.94 26.3, 128.42 10.79, 137.54 0.31 M101.45 41.82 C113.75 27.67, 126.04 13.53, 137.54 0.31 M107.09 41.42 C121.1 25.32, 135.1 9.21, 142.52 0.67 M107.09 41.42 C115.97 31.21, 124.85 21, 142.52 0.67 M112.08 41.78 C122.02 30.35, 131.96 18.91, 142.26 7.06 M112.08 41.78 C122.42 29.89, 132.75 18, 142.26 7.06 M117.73 41.39 C123.82 34.37, 129.92 27.35, 142 13.46 M117.73 41.39 C123.69 34.52, 129.66 27.66, 142 13.46 M122.71 41.75 C130.04 33.32, 137.36 24.89, 142.39 19.11 M122.71 41.75 C129.37 34.09, 136.03 26.42, 142.39 19.11 M128.36 41.35 C132.78 36.27, 137.2 31.18, 142.13 25.5 M128.36 41.35 C133.38 35.57, 138.41 29.79, 142.13 25.5 M133.34 41.71 C135.26 39.51, 137.17 37.31, 141.87 31.9 M133.34 41.71 C135.52 39.2, 137.7 36.7, 141.87 31.9 M138.33 42.07 C139.87 40.31, 141.4 38.54, 142.27 37.54 M138.33 42.07 C139.69 40.51, 141.05 38.94, 142.27 37.54" stroke="#fab005" stroke-width="0.5" fill="none"></path><path d="M0 0 C46.27 0, 92.55 0, 141 0 M0 0 C47.26 0, 94.53 0, 141 0 M141 0 C141 9.68, 141 19.36, 141 41 M141 0 C141 10.34, 141 20.68, 141 41 M141 41 C98.04 41, 55.09 41, 0 41 M141 41 C112.79 41, 84.57 41, 0 41 M0 41 C0 28.45, 0 15.9, 0 0 M0 41 C0 29.53, 0 18.06, 0 0" stroke="#000000" stroke-width="1" fill="none"></path></g><g transform="translate(434.66810607910156 192.75496673583984) rotate(0 17 11.5)"><text x="17" y="0" font-family="Helvetica, Segoe UI Emoji" font-size="20px" fill="#000000" text-anchor="middle" style="white-space: pre;" direction="ltr" dominant-baseline="text-before-edge">abc</text></g><g stroke-linecap="round" transform="translate(381.41954040527344 143.1142807006836) rotate(0 70.5 20.5)"><path d="M0 0 C47.35 0, 94.69 0, 141 0 M0 0 C32.29 0, 64.59 0, 141 0 M141 0 C141 9.76, 141 19.52, 141 41 M141 0 C141 15.81, 141 31.63, 141 41 M141 41 C103.33 41, 65.66 41, 0 41 M141 41 C86.11 41, 31.23 41, 0 41 M0 41 C0 25.97, 0 10.94, 0 0 M0 41 C0 31.86, 0 22.72, 0 0" stroke="#000000" stroke-width="1" fill="none"></path></g><g stroke-linecap="round" transform="translate(381.8483123779297 58.494346618652344) rotate(0 69.8856201171875 41.592620849609375)"><path d="M0 0 C40.81 0, 81.62 0, 139.77 0 M0 0 C28.67 0, 57.35 0, 139.77 0 M139.77 0 C139.77 27.89, 139.77 55.78, 139.77 83.19 M139.77 0 C139.77 24.09, 139.77 48.18, 139.77 83.19 M139.77 83.19 C110.47 83.19, 81.16 83.19, 0 83.19 M139.77 83.19 C103.6 83.19, 67.42 83.19, 0 83.19 M0 83.19 C0 53.19, 0 23.2, 0 0 M0 83.19 C0 54.33, 0 25.47, 0 0" stroke="#000000" stroke-width="1" fill="none"></path></g><g stroke-linecap="round" transform="translate(381.9902801513672 225.30614471435547) rotate(0 69.8856201171875 41.592620849609375)"><path d="M0 0 C28.18 0, 56.37 0, 139.77 0 M0 0 C45.56 0, 91.11 0, 139.77 0 M139.77 0 C139.77 17.46, 139.77 34.92, 139.77 83.19 M139.77 0 C139.77 26.64, 139.77 53.27, 139.77 83.19 M139.77 83.19 C102.28 83.19, 64.79 83.19, 0 83.19 M139.77 83.19 C96.2 83.19, 52.64 83.19, 0 83.19 M0 83.19 C0 62.95, 0 42.71, 0 0 M0 83.19 C0 56.98, 0 30.78, 0 0" stroke="#000000" stroke-width="1" fill="none"></path></g><g transform="translate(427.28173828125 21.89295196533203) rotate(0 21 14)"><text x="0" y="0" font-family="Helvetica, Segoe UI Emoji" font-size="20px" fill="#000000" text-anchor="start" style="white-space: pre;" direction="ltr" dominant-baseline="text-before-edge">堆区</text></g><g stroke-linecap="round"><g transform="translate(223.13909912109375 187.74313354492188) rotate(0 76.14321899414062 7.202484130859375)"><path d="M0 0 C35.45 3.35, 70.9 6.71, 152.29 14.4 M0 0 C58.28 5.51, 116.57 11.03, 152.29 14.4" stroke="#000000" stroke-width="1" fill="none"></path></g><g transform="translate(223.13909912109375 187.74313354492188) rotate(0 76.14321899414062 7.202484130859375)"><path d="M152.29 14.4 L138.16 19.44 L139.35 6.81 L152.29 14.4" stroke="none" stroke-width="0" fill="#000000" fill-rule="evenodd"></path><path d="M152.29 14.4 C149 15.58, 145.71 16.75, 138.16 19.44 M152.29 14.4 C146.88 16.33, 141.47 18.26, 138.16 19.44 M138.16 19.44 C138.62 14.49, 139.09 9.55, 139.35 6.81 M138.16 19.44 C138.41 16.69, 138.67 13.95, 139.35 6.81 M139.35 6.81 C143.91 9.49, 148.48 12.17, 152.29 14.4 M139.35 6.81 C144.51 9.84, 149.66 12.86, 152.29 14.4 M152.29 14.4 C152.29 14.4, 152.29 14.4, 152.29 14.4 M152.29 14.4 C152.29 14.4, 152.29 14.4, 152.29 14.4" stroke="#000000" stroke-width="1" fill="none"></path></g></g><mask></mask><g transform="translate(10 185.61471557617188) rotate(0 6.5 11.5)"><text x="0" y="0" font-family="Helvetica, Segoe UI Emoji" font-size="20px" fill="#000000" text-anchor="start" style="white-space: pre;" direction="ltr" dominant-baseline="text-before-edge">a</text></g><g stroke-linecap="round"><g transform="translate(32.7447509765625 208.55111694335938) rotate(0 20.11322021484375 0.77398681640625)"><path d="M0 0 C13.38 0.52, 26.77 1.03, 40.23 1.55 M0 0 C14.53 0.56, 29.06 1.12, 40.23 1.55" stroke="#000000" stroke-width="1" fill="none"></path></g><g transform="translate(32.7447509765625 208.55111694335938) rotate(0 20.11322021484375 0.77398681640625)"><path d="M40.23 1.55 L26.4 7.36 L26.89 -5.31 L40.23 1.55" stroke="none" stroke-width="0" fill="#000000" fill-rule="evenodd"></path><path d="M40.23 1.55 C35.63 3.48, 31.02 5.42, 26.4 7.36 M40.23 1.55 C35.23 3.65, 30.24 5.75, 26.4 7.36 M26.4 7.36 C26.56 3.23, 26.72 -0.9, 26.89 -5.31 M26.4 7.36 C26.57 2.76, 26.75 -1.83, 26.89 -5.31 M26.89 -5.31 C30 -3.71, 33.12 -2.1, 40.23 1.55 M26.89 -5.31 C30.02 -3.7, 33.15 -2.09, 40.23 1.55 M40.23 1.55 C40.23 1.55, 40.23 1.55, 40.23 1.55 M40.23 1.55 C40.23 1.55, 40.23 1.55, 40.23 1.55" stroke="#000000" stroke-width="1" fill="none"></path></g></g><mask></mask></svg>