<svg version="1.1" xmlns="http://www.w3.org/2000/svg" viewBox="0 0 809.6048583984375 727.9658936478886" width="809.6048583984375" height="727.9658936478886">
  <!-- svg-source:excalidraw -->
  
  <defs>
    <style class="style-fonts">
      @font-face {
        font-family: "Virgil";
        src: url("https://unpkg.com/@excalidraw/excalidraw@0.14.2/dist/excalidraw-assets/Virgil.woff2");
      }
      @font-face {
        font-family: "Cascadia";
        src: url("https://unpkg.com/@excalidraw/excalidraw@0.14.2/dist/excalidraw-assets/Cascadia.woff2");
      }
    </style>
  </defs>
  <rect x="0" y="0" width="809.6048583984375" height="727.9658936478886" fill="#ffffff"></rect><g stroke-linecap="round"><g transform="translate(16.41862415674109 37.9658936478877) rotate(0 0 16)"><path d="M0 0 C0 8.45, 0 16.89, 0 32 M0 0 C0 7.75, 0 15.49, 0 32" stroke="rgb(0,0,0)" stroke-width="1" fill="none"></path></g></g><mask></mask><g stroke-linecap="round"><g transform="translate(40.41862415674109 53.9658936478877) rotate(0 0 8)"><path d="M0 0 C0 6.33, 0 12.66, 0 16 M0 0 C0 5.95, 0 11.9, 0 16" stroke="rgb(0,0,0)" stroke-width="1" fill="none"></path></g></g><mask></mask><g transform="translate(376.50698805789534 312.96841887682535) rotate(270.21292538172156 14 9.5)"><text x="0" y="15" font-family="Helvetica, Segoe UI Emoji" font-size="16px" fill="#e67700" text-anchor="start" style="white-space: pre;" direction="ltr">FIN</text></g><g stroke-linecap="round"><g transform="translate(64.41862415674109 53.9658936478877) rotate(0 0 8)"><path d="M0 0 C0 4.27, 0 8.55, 0 16 M0 0 C0 3.61, 0 7.23, 0 16" stroke="rgb(0,0,0)" stroke-width="1" fill="none"></path></g></g><mask></mask><g stroke-linecap="round"><g transform="translate(88.41862415674109 53.9658936478877) rotate(0 0 8)"><path d="M0 0 C0 6.24, 0 12.49, 0 16 M0 0 C0 4.86, 0 9.72, 0 16" stroke="rgb(0,0,0)" stroke-width="1" fill="none"></path></g></g><mask></mask><g stroke-linecap="round"><g transform="translate(112.41862415674109 53.9658936478877) rotate(0 0 8)"><path d="M0 0 C0 4.72, 0 9.45, 0 16 M0 0 C0 3.56, 0 7.12, 0 16" stroke="rgb(0,0,0)" stroke-width="1" fill="none"></path></g></g><mask></mask><g stroke-linecap="round"><g transform="translate(136.4186241567411 53.9658936478877) rotate(0 0 8)"><path d="M0 0 C0 3.49, 0 6.98, 0 16 M0 0 C0 5.58, 0 11.17, 0 16" stroke="rgb(0,0,0)" stroke-width="1" fill="none"></path></g></g><mask></mask><g stroke-linecap="round"><g transform="translate(160.4186241567411 53.9658936478877) rotate(0 0 8)"><path d="M0 0 C0 6.24, 0 12.48, 0 16 M0 0 C0 5.36, 0 10.71, 0 16" stroke="rgb(0,0,0)" stroke-width="1" fill="none"></path></g></g><mask></mask><g stroke-linecap="round"><g transform="translate(184.4186241567411 53.9658936478877) rotate(0 0 8)"><path d="M0 0 C0 4.5, 0 8.99, 0 16 M0 0 C0 4.85, 0 9.7, 0 16" stroke="rgb(0,0,0)" stroke-width="1" fill="none"></path></g></g><mask></mask><g stroke-linecap="round"><g transform="translate(208.4186241567411 37.9658936478877) rotate(0 0 16)"><path d="M0 0 C0 12.57, 0 25.14, 0 32 M0 0 C0 11.04, 0 22.08, 0 32" stroke="rgb(0,0,0)" stroke-width="1" fill="none"></path></g></g><mask></mask><g stroke-linecap="round"><g transform="translate(232.4186241567411 53.9658936478877) rotate(0 0 8)"><path d="M0 0 C0 4.72, 0 9.43, 0 16 M0 0 C0 3.88, 0 7.77, 0 16" stroke="rgb(0,0,0)" stroke-width="1" fill="none"></path></g></g><mask></mask><g stroke-linecap="round"><g transform="translate(256.4186241567411 53.9658936478877) rotate(0 0 8)"><path d="M0 0 C0 5.48, 0 10.96, 0 16 M0 0 C0 5.89, 0 11.78, 0 16" stroke="rgb(0,0,0)" stroke-width="1" fill="none"></path></g></g><mask></mask><g stroke-linecap="round"><g transform="translate(280.4186241567411 53.9658936478877) rotate(0 0 8)"><path d="M0 0 C0 3.87, 0 7.75, 0 16 M0 0 C0 5.16, 0 10.33, 0 16" stroke="rgb(0,0,0)" stroke-width="1" fill="none"></path></g></g><mask></mask><g stroke-linecap="round"><g transform="translate(304.4186241567411 53.9658936478877) rotate(0 0 8)"><path d="M0 0 C0 5.95, 0 11.9, 0 16 M0 0 C0 3.29, 0 6.58, 0 16" stroke="rgb(0,0,0)" stroke-width="1" fill="none"></path></g></g><mask></mask><g stroke-linecap="round"><g transform="translate(328.4186241567411 53.9658936478877) rotate(0 0 8)"><path d="M0 0 C0 3.61, 0 7.23, 0 16 M0 0 C0 4.37, 0 8.74, 0 16" stroke="rgb(0,0,0)" stroke-width="1" fill="none"></path></g></g><mask></mask><g stroke-linecap="round"><g transform="translate(352.4186241567411 53.9658936478877) rotate(0 0 8)"><path d="M0 0 C0 4.86, 0 9.72, 0 16 M0 0 C0 6.35, 0 12.7, 0 16" stroke="rgb(0,0,0)" stroke-width="1" fill="none"></path></g></g><mask></mask><g stroke-linecap="round"><g transform="translate(376.4186241567411 53.9658936478877) rotate(0 0 8)"><path d="M0 0 C0 3.56, 0 7.12, 0 16 M0 0 C0 6.33, 0 12.66, 0 16" stroke="rgb(0,0,0)" stroke-width="1" fill="none"></path></g></g><mask></mask><g stroke-linecap="round"><g transform="translate(400.4186241567411 37.9658936478877) rotate(0 0 16)"><path d="M0 0 C0 11.17, 0 22.33, 0 32 M0 0 C0 11.97, 0 23.93, 0 32" stroke="rgb(0,0,0)" stroke-width="1" fill="none"></path></g></g><mask></mask><g stroke-linecap="round"><g transform="translate(424.4186241567411 53.9658936478877) rotate(0 0 8)"><path d="M0 0 C0 5.36, 0 10.71, 0 16 M0 0 C0 4.18, 0 8.36, 0 16" stroke="rgb(0,0,0)" stroke-width="1" fill="none"></path></g></g><mask></mask><g stroke-linecap="round"><g transform="translate(448.4186241567411 53.9658936478877) rotate(0 0 8)"><path d="M0 0 C0 4.85, 0 9.7, 0 16 M0 0 C0 5.03, 0 10.06, 0 16" stroke="rgb(0,0,0)" stroke-width="1" fill="none"></path></g></g><mask></mask><g stroke-linecap="round"><g transform="translate(472.4186241567411 53.9658936478877) rotate(0 0 8)"><path d="M0 0 C0 5.52, 0 11.04, 0 16 M0 0 C0 4.9, 0 9.8, 0 16" stroke="rgb(0,0,0)" stroke-width="1" fill="none"></path></g></g><mask></mask><g stroke-linecap="round"><g transform="translate(496.4186241567411 53.9658936478877) rotate(0 0 8)"><path d="M0 0 C0 3.88, 0 7.77, 0 16 M0 0 C0 4.69, 0 9.38, 0 16" stroke="rgb(0,0,0)" stroke-width="1" fill="none"></path></g></g><mask></mask><g stroke-linecap="round"><g transform="translate(520.4186241567411 53.9658936478877) rotate(0 0 8)"><path d="M0 0 C0 5.89, 0 11.78, 0 16 M0 0 C0 5.28, 0 10.57, 0 16" stroke="rgb(0,0,0)" stroke-width="1" fill="none"></path></g></g><mask></mask><g stroke-linecap="round"><g transform="translate(544.4186241567412 53.9658936478877) rotate(0 0 8)"><path d="M0 0 C0 5.16, 0 10.33, 0 16 M0 0 C0 5.4, 0 10.8, 0 16" stroke="rgb(0,0,0)" stroke-width="1" fill="none"></path></g></g><mask></mask><g stroke-linecap="round"><g transform="translate(568.4186241567412 53.9658936478877) rotate(0 0 8)"><path d="M0 0 C0 3.29, 0 6.58, 0 16 M0 0 C0 4.66, 0 9.33, 0 16" stroke="rgb(0,0,0)" stroke-width="1" fill="none"></path></g></g><mask></mask><g stroke-linecap="round"><g transform="translate(592.4186241567411 37.9658936478877) rotate(0 0 16)"><path d="M0 0 C0 8.74, 0 17.47, 0 32 M0 0 C0 12.14, 0 24.28, 0 32" stroke="rgb(0,0,0)" stroke-width="1" fill="none"></path></g></g><mask></mask><g stroke-linecap="round"><g transform="translate(616.4186241567411 53.9658936478877) rotate(0 0 8)"><path d="M0 0 C0 6.35, 0 12.7, 0 16 M0 0 C0 3.28, 0 6.56, 0 16" stroke="rgb(0,0,0)" stroke-width="1" fill="none"></path></g></g><mask></mask><g stroke-linecap="round"><g transform="translate(640.4186241567411 53.9658936478877) rotate(0 0 8)"><path d="M0 0 C0 6.33, 0 12.66, 0 16 M0 0 C0 4.92, 0 9.85, 0 16" stroke="rgb(0,0,0)" stroke-width="1" fill="none"></path></g></g><mask></mask><g stroke-linecap="round"><g transform="translate(664.418624156741 53.9658936478877) rotate(0 0 8)"><path d="M0 0 C0 5.98, 0 11.97, 0 16 M0 0 C0 5.42, 0 10.84, 0 16" stroke="rgb(0,0,0)" stroke-width="1" fill="none"></path></g></g><mask></mask><g stroke-linecap="round"><g transform="translate(688.4186241567409 53.9658936478877) rotate(0 0 8)"><path d="M0 0 C0 4.18, 0 8.36, 0 16 M0 0 C0 5.16, 0 10.33, 0 16" stroke="rgb(0,0,0)" stroke-width="1" fill="none"></path></g></g><mask></mask><g stroke-linecap="round"><g transform="translate(712.4186241567409 53.9658936478877) rotate(0 0 8)"><path d="M0 0 C0 5.03, 0 10.06, 0 16 M0 0 C0 4.98, 0 9.96, 0 16" stroke="rgb(0,0,0)" stroke-width="1" fill="none"></path></g></g><mask></mask><g stroke-linecap="round"><g transform="translate(736.4186241567409 53.9658936478877) rotate(0 0 8)"><path d="M0 0 C0 4.9, 0 9.8, 0 16 M0 0 C0 6.22, 0 12.43, 0 16" stroke="rgb(0,0,0)" stroke-width="1" fill="none"></path></g></g><mask></mask><g stroke-linecap="round"><g transform="translate(760.4186241567409 53.9658936478877) rotate(0 0 8)"><path d="M0 0 C0 4.69, 0 9.38, 0 16 M0 0 C0 4.6, 0 9.2, 0 16" stroke="rgb(0,0,0)" stroke-width="1" fill="none"></path></g></g><mask></mask><g stroke-linecap="round"><g transform="translate(784.4186241567409 37.9658936478877) rotate(0 0 16)"><path d="M0 0 C0 10.57, 0 21.14, 0 32 M0 0 C0 12.37, 0 24.73, 0 32" stroke="rgb(0,0,0)" stroke-width="1" fill="none"></path></g></g><mask></mask><g stroke-linecap="round" transform="translate(16.41862415674109 69.9658936478877) rotate(0 192 36)"><path d="M0 0 L384 0 L384 72 L0 72" stroke="none" stroke-width="0" fill="rgb(255,255,255)"></path><path d="M0 0 C129.66 0, 259.31 0, 384 0 M0 0 C106.36 0, 212.73 0, 384 0 M384 0 C384 16.86, 384 33.72, 384 72 M384 0 C384 15.77, 384 31.54, 384 72 M384 72 C239.48 72, 94.96 72, 0 72 M384 72 C303.92 72, 223.84 72, 0 72 M0 72 C0 47.06, 0 22.12, 0 0 M0 72 C0 51.27, 0 30.54, 0 0" stroke="rgb(255,255,255)" stroke-width="1" fill="none"></path></g><g stroke-linecap="round"><g transform="translate(16.41862415674109 69.9658936478877) rotate(0 192 0)"><path d="M0 0 C111.94 0, 223.88 0, 384 0 M0 0 C141.21 0, 282.41 0, 384 0" stroke="rgb(0,0,0)" stroke-width="1" fill="none"></path></g></g><mask></mask><g stroke-linecap="round"><g transform="translate(400.4186241567411 69.9658936478877) rotate(0 0 36)"><path d="M0 0 C0 27.32, 0 54.64, 0 72 M0 0 C0 23.69, 0 47.39, 0 72" stroke="rgb(0,0,0)" stroke-width="1" fill="none"></path></g></g><mask></mask><g stroke-linecap="round"><g transform="translate(400.4186241567411 141.9658936478877) rotate(0 -192 0)"><path d="M0 0 C-78.7 0, -157.4 0, -384 0 M0 0 C-117.97 0, -235.93 0, -384 0" stroke="rgb(0,0,0)" stroke-width="1" fill="none"></path></g></g><mask></mask><g stroke-linecap="round"><g transform="translate(16.41862415674109 141.9658936478877) rotate(0 0 -36)"><path d="M0 0 C0 -22.16, 0 -44.31, 0 -72 M0 0 C0 -16.66, 0 -33.32, 0 -72" stroke="rgb(0,0,0)" stroke-width="1" fill="none"></path></g></g><mask></mask><g stroke-linecap="round" transform="translate(399.79919056299104 69.9658936478877) rotate(0 192 36)"><path d="M0 0 L384 0 L384 72 L0 72" stroke="none" stroke-width="0" fill="rgb(255,255,255)"></path><path d="M0 0 C130.09 0, 260.19 0, 384 0 M0 0 C136.74 0, 273.49 0, 384 0 M384 0 C384 24.67, 384 49.34, 384 72 M384 0 C384 24.58, 384 49.15, 384 72 M384 72 C266.84 72, 149.68 72, 0 72 M384 72 C293.91 72, 203.82 72, 0 72 M0 72 C0 49.45, 0 26.89, 0 0 M0 72 C0 50.17, 0 28.34, 0 0" stroke="rgb(255,255,255)" stroke-width="1" fill="none"></path></g><g transform="translate(529.799190562991 94.4658936478877) rotate(0 62 11.5)"><text x="62" y="19" font-family="Helvetica, Segoe UI Emoji" font-size="20px" fill="#000000" text-anchor="middle" style="white-space: pre;" direction="ltr">16位目标端口</text></g><g stroke-linecap="round"><g transform="translate(400.4186241567411 69.9658936478877) rotate(0 192 0)"><path d="M0 0 C123.94 0, 247.88 0, 384 0 M0 0 C117.38 0, 234.75 0, 384 0" stroke="rgb(0,0,0)" stroke-width="1" fill="none"></path></g></g><mask></mask><g stroke-linecap="round"><g transform="translate(784.4186241567409 69.9658936478877) rotate(0 0 36)"><path d="M0 0 C0 22.41, 0 44.82, 0 72 M0 0 C0 28.46, 0 56.91, 0 72" stroke="rgb(0,0,0)" stroke-width="1" fill="none"></path></g></g><mask></mask><g stroke-linecap="round"><g transform="translate(784.4186241567409 141.9658936478877) rotate(0 -192 0)"><path d="M0 0 C-149.22 0, -298.43 0, -384 0 M0 0 C-117.21 0, -234.42 0, -384 0" stroke="rgb(0,0,0)" stroke-width="1" fill="none"></path></g></g><mask></mask><g stroke-linecap="round"><g transform="translate(400.4186241567411 141.9658936478877) rotate(0 0 -36)"><path d="M0 0 C0 -20.71, 0 -41.42, 0 -72 M0 0 C0 -20.75, 0 -41.49, 0 -72" stroke="rgb(0,0,0)" stroke-width="1" fill="none"></path></g></g><mask></mask><g stroke-linecap="round"><g transform="translate(16.41862415674109 141.9658936478877) rotate(0 384 0)"><path d="M0 0 C212.73 0, 425.46 0, 768 0 M0 0 C179.83 0, 359.66 0, 768 0" stroke="rgb(0,0,0)" stroke-width="1" fill="none"></path></g></g><mask></mask><g stroke-linecap="round" transform="translate(16.41862415674109 141.9658936478877) rotate(0 384 36)"><path d="M0 0 L768 0 L768 72 L0 72" stroke="none" stroke-width="0" fill="rgb(255,255,255)"></path><path d="M0 0 C296.78 0, 593.57 0, 768 0 M0 0 C162.43 0, 324.86 0, 768 0 M768 0 C768 24.6, 768 49.2, 768 72 M768 0 C768 27.47, 768 54.93, 768 72 M768 72 C579.15 72, 390.29 72, 0 72 M768 72 C585.79 72, 403.58 72, 0 72 M0 72 C0 52.97, 0 33.95, 0 0 M0 72 C0 50.89, 0 29.79, 0 0" stroke="rgb(255,255,255)" stroke-width="1" fill="none"></path></g><g transform="translate(261.9186241567411 166.4658936478877) rotate(0 138.5 11.5)"><text x="138.5" y="19" font-family="Helvetica, Segoe UI Emoji" font-size="20px" fill="#000000" text-anchor="middle" style="white-space: pre;" direction="ltr">32位序列号 Sequence Number</text></g><g stroke-linecap="round"><g transform="translate(784.4186241567409 141.9658936478877) rotate(0 0 36)"><path d="M0 0 C0 26.48, 0 52.95, 0 72 M0 0 C0 23.83, 0 47.66, 0 72" stroke="rgb(0,0,0)" stroke-width="1" fill="none"></path></g></g><mask></mask><g stroke-linecap="round"><g transform="translate(784.4186241567409 213.9658936478877) rotate(0 -384 0)"><path d="M0 0 C-252.74 0, -505.49 0, -768 0 M0 0 C-170.22 0, -340.44 0, -768 0" stroke="rgb(0,0,0)" stroke-width="1" fill="none"></path></g></g><mask></mask><g stroke-linecap="round"><g transform="translate(16.41862415674109 213.9658936478877) rotate(0 0 -36)"><path d="M0 0 C0 -22.12, 0 -44.24, 0 -72 M0 0 C0 -21.04, 0 -42.08, 0 -72" stroke="rgb(0,0,0)" stroke-width="1" fill="none"></path></g></g><mask></mask><g stroke-linecap="round" transform="translate(16.41862415674109 213.9658936478877) rotate(0 384 36)"><path d="M0 0 L768 0 L768 72 L0 72" stroke="none" stroke-width="0" fill="rgb(255,255,255)"></path><path d="M0 0 C177.69 0, 355.37 0, 768 0 M0 0 C292.62 0, 585.24 0, 768 0 M768 0 C768 22.63, 768 45.26, 768 72 M768 0 C768 17.7, 768 35.4, 768 72 M768 72 C524.52 72, 281.05 72, 0 72 M768 72 C499.68 72, 231.36 72, 0 72 M0 72 C0 51.2, 0 30.39, 0 0 M0 72 C0 49.19, 0 26.37, 0 0" stroke="rgb(255,255,255)" stroke-width="1" fill="none"></path></g><g transform="translate(230.9186241567411 238.4658936478877) rotate(0 169.5 11.5)"><text x="169.5" y="19" font-family="Helvetica, Segoe UI Emoji" font-size="20px" fill="#000000" text-anchor="middle" style="white-space: pre;" direction="ltr">32位确认号 Acknowledgment Number</text></g><g stroke-linecap="round"><g transform="translate(16.41862415674109 213.9658936478877) rotate(0 384 0)"><path d="M0 0 C273.49 0, 546.98 0, 768 0 M0 0 C263.12 0, 526.25 0, 768 0" stroke="rgb(0,0,0)" stroke-width="1" fill="none"></path></g></g><mask></mask><g stroke-linecap="round"><g transform="translate(784.4186241567409 213.9658936478877) rotate(0 0 36)"><path d="M0 0 C0 22.01, 0 44.02, 0 72 M0 0 C0 17.13, 0 34.26, 0 72" stroke="rgb(0,0,0)" stroke-width="1" fill="none"></path></g></g><mask></mask><g stroke-linecap="round"><g transform="translate(784.4186241567409 285.9658936478877) rotate(0 -384 0)"><path d="M0 0 C-303.54 0, -607.08 0, -768 0 M0 0 C-265.09 0, -530.17 0, -768 0" stroke="rgb(0,0,0)" stroke-width="1" fill="none"></path></g></g><mask></mask><g stroke-linecap="round"><g transform="translate(16.41862415674109 285.9658936478877) rotate(0 0 -36)"><path d="M0 0 C0 -21.98, 0 -43.95, 0 -72 M0 0 C0 -19.17, 0 -38.35, 0 -72" stroke="rgb(0,0,0)" stroke-width="1" fill="none"></path></g></g><mask></mask><g stroke-linecap="round" transform="translate(16.41862415674109 285.9658936478877) rotate(0 48 36)"><path d="M0 0 L96 0 L96 72 L0 72" stroke="none" stroke-width="0" fill="rgb(255,255,255)"></path><path d="M0 0 C27.66 0, 55.32 0, 96 0 M0 0 C26.46 0, 52.91 0, 96 0 M96 0 C96 18.67, 96 37.34, 96 72 M96 0 C96 15.88, 96 31.77, 96 72 M96 72 C74.86 72, 53.72 72, 0 72 M96 72 C69.82 72, 43.64 72, 0 72 M0 72 C0 53.76, 0 35.52, 0 0 M0 72 C0 47.98, 0 23.96, 0 0" stroke="rgb(255,255,255)" stroke-width="1" fill="none"></path></g><g transform="translate(28.91862415674109 298.9658936478877) rotate(0 35.5 23)"><text x="35.5" y="19" font-family="Helvetica, Segoe UI Emoji" font-size="20px" fill="#000000" text-anchor="middle" style="white-space: pre;" direction="ltr">4位data</text><text x="35.5" y="42" font-family="Helvetica, Segoe UI Emoji" font-size="20px" fill="#000000" text-anchor="middle" style="white-space: pre;" direction="ltr">offset</text></g><g stroke-linecap="round"><g transform="translate(16.41862415674109 285.9658936478877) rotate(0 48 0)"><path d="M0 0 C20.3 0, 40.61 0, 96 0 M0 0 C32.8 0, 65.6 0, 96 0" stroke="rgb(0,0,0)" stroke-width="1" fill="none"></path></g></g><mask></mask><g stroke-linecap="round"><g transform="translate(112.41862415674109 285.9658936478877) rotate(0 0 36)"><path d="M0 0 C0 16.86, 0 33.72, 0 72 M0 0 C0 15.77, 0 31.54, 0 72" stroke="rgb(0,0,0)" stroke-width="1" fill="none"></path></g></g><mask></mask><g stroke-linecap="round"><g transform="translate(112.41862415674109 357.9658936478877) rotate(0 -48 0)"><path d="M0 0 C-31.78 0, -63.55 0, -96 0 M0 0 C-28.22 0, -56.44 0, -96 0" stroke="rgb(0,0,0)" stroke-width="1" fill="none"></path></g></g><mask></mask><g stroke-linecap="round"><g transform="translate(16.41862415674109 357.9658936478877) rotate(0 0 -36)"><path d="M0 0 C0 -15.96, 0 -31.92, 0 -72 M0 0 C0 -19.23, 0 -38.45, 0 -72" stroke="rgb(0,0,0)" stroke-width="1" fill="none"></path></g></g><mask></mask><g stroke-linecap="round" transform="translate(112.41862415674109 285.9658936478877) rotate(0 72 36)"><path d="M0 0 L144 0 L144 72 L0 72" stroke="none" stroke-width="0" fill="rgb(255,255,255)"></path><path d="M0 0 C42.08 0, 84.17 0, 144 0 M0 0 C51.98 0, 103.97 0, 144 0 M144 0 C144 20.62, 144 41.25, 144 72 M144 0 C144 23.24, 144 46.48, 144 72 M144 72 C100.24 72, 56.48 72, 0 72 M144 72 C112.84 72, 81.68 72, 0 72 M0 72 C0 45.22, 0 18.44, 0 0 M0 72 C0 46.13, 0 20.26, 0 0" stroke="rgb(255,255,255)" stroke-width="1" fill="none"></path></g><g transform="translate(137.9186241567411 310.4658936478877) rotate(0 46.5 11.5)"><text x="46.5" y="19" font-family="Helvetica, Segoe UI Emoji" font-size="20px" fill="#000000" text-anchor="middle" style="white-space: pre;" direction="ltr">6位保留位</text></g><g stroke-linecap="round"><g transform="translate(112.41862415674109 285.9658936478877) rotate(0 72 0)"><path d="M0 0 C54.87 0, 109.73 0, 144 0 M0 0 C45.26 0, 90.51 0, 144 0" stroke="rgb(0,0,0)" stroke-width="1" fill="none"></path></g></g><mask></mask><g stroke-linecap="round"><g transform="translate(256.4186241567411 285.9658936478877) rotate(0 0 36)"><path d="M0 0 C0 24.67, 0 49.34, 0 72 M0 0 C0 24.58, 0 49.15, 0 72" stroke="rgb(0,0,0)" stroke-width="1" fill="none"></path></g></g><mask></mask><g stroke-linecap="round"><g transform="translate(256.4186241567411 357.9658936478877) rotate(0 -72 0)"><path d="M0 0 C-34.26 0, -68.52 0, -144 0 M0 0 C-51.21 0, -102.41 0, -144 0" stroke="rgb(0,0,0)" stroke-width="1" fill="none"></path></g></g><mask></mask><g stroke-linecap="round"><g transform="translate(112.41862415674109 357.9658936478877) rotate(0 0 -36)"><path d="M0 0 C0 -24.85, 0 -49.7, 0 -72 M0 0 C0 -17.82, 0 -35.65, 0 -72" stroke="rgb(0,0,0)" stroke-width="1" fill="none"></path></g></g><mask></mask><g stroke-linecap="round" transform="translate(256.4186241567411 285.9658936478877) rotate(0 12 36)"><path d="M0 0 L24 0 L24 72 L0 72" stroke="none" stroke-width="0" fill="rgb(255,255,255)"></path><path d="M0 0 C6.39 0, 12.78 0, 24 0 M0 0 C6.79 0, 13.57 0, 24 0 M24 0 C24 27.21, 24 54.42, 24 72 M24 0 C24 20.69, 24 41.37, 24 72 M24 72 C17.45 72, 10.89 72, 0 72 M24 72 C15.9 72, 7.8 72, 0 72 M0 72 C0 44.21, 0 16.43, 0 0 M0 72 C0 47.65, 0 23.3, 0 0" stroke="rgb(255,255,255)" stroke-width="1" fill="none"></path></g><g stroke-linecap="round"><g transform="translate(256.4186241567411 285.9658936478877) rotate(0 12 0)"><path d="M0 0 C6.61 0, 13.23 0, 24 0 M0 0 C6.22 0, 12.45 0, 24 0" stroke="rgb(0,0,0)" stroke-width="1" fill="none"></path></g></g><mask></mask><g stroke-linecap="round"><g transform="translate(280.4186241567411 285.9658936478877) rotate(0 0 36)"><path d="M0 0 C0 24.6, 0 49.2, 0 72 M0 0 C0 27.47, 0 54.93, 0 72" stroke="rgb(0,0,0)" stroke-width="1" fill="none"></path></g></g><mask></mask><g stroke-linecap="round"><g transform="translate(280.4186241567411 357.9658936478877) rotate(0 -11.999999999999986 0)"><path d="M0 0 C-5.26 0, -10.51 0, -24 0 M0 0 C-9.03 0, -18.06 0, -24 0" stroke="rgb(0,0,0)" stroke-width="1" fill="none"></path></g></g><mask></mask><g stroke-linecap="round"><g transform="translate(256.4186241567411 357.9658936478877) rotate(0 0 -36)"><path d="M0 0 C0 -21.17, 0 -42.33, 0 -72 M0 0 C0 -23.62, 0 -47.24, 0 -72" stroke="rgb(0,0,0)" stroke-width="1" fill="none"></path></g></g><mask></mask><g stroke-linecap="round" transform="translate(280.4186241567411 285.9658936478877) rotate(0 12 36)"><path d="M0 0 L24 0 L24 72 L0 72" stroke="none" stroke-width="0" fill="rgb(255,255,255)"></path><path d="M0 0 C6.41 0, 12.82 0, 24 0 M0 0 C8.93 0, 17.86 0, 24 0 M24 0 C24 23.95, 24 47.91, 24 72 M24 0 C24 28.11, 24 56.22, 24 72 M24 72 C16.76 72, 9.52 72, 0 72 M24 72 C18.92 72, 13.83 72, 0 72 M0 72 C0 50.76, 0 29.51, 0 0 M0 72 C0 51.82, 0 31.64, 0 0" stroke="rgb(255,255,255)" stroke-width="1" fill="none"></path></g><g stroke-linecap="round"><g transform="translate(280.4186241567411 285.9658936478877) rotate(0 12 0)"><path d="M0 0 C8.66 0, 17.33 0, 24 0 M0 0 C6.87 0, 13.75 0, 24 0" stroke="rgb(0,0,0)" stroke-width="1" fill="none"></path></g></g><mask></mask><g stroke-linecap="round"><g transform="translate(304.4186241567411 285.9658936478877) rotate(0 0 36)"><path d="M0 0 C0 22.63, 0 45.26, 0 72 M0 0 C0 17.7, 0 35.4, 0 72" stroke="rgb(0,0,0)" stroke-width="1" fill="none"></path></g></g><mask></mask><g stroke-linecap="round"><g transform="translate(304.4186241567411 357.9658936478877) rotate(0 -12 0)"><path d="M0 0 C-8.19 0, -16.38 0, -24 0 M0 0 C-7.32 0, -14.65 0, -24 0" stroke="rgb(0,0,0)" stroke-width="1" fill="none"></path></g></g><mask></mask><g stroke-linecap="round"><g transform="translate(280.4186241567411 357.9658936478877) rotate(0 0 -36)"><path d="M0 0 C0 -25.6, 0 -51.21, 0 -72 M0 0 C0 -27.16, 0 -54.31, 0 -72" stroke="rgb(0,0,0)" stroke-width="1" fill="none"></path></g></g><mask></mask><g stroke-linecap="round" transform="translate(304.4186241567411 285.9658936478877) rotate(0 12 36)"><path d="M0 0 L24 0 L24 72 L0 72" stroke="none" stroke-width="0" fill="rgb(255,255,255)"></path><path d="M0 0 C5.94 0, 11.88 0, 24 0 M0 0 C5.13 0, 10.26 0, 24 0 M24 0 C24 16.26, 24 32.52, 24 72 M24 0 C24 22.71, 24 45.42, 24 72 M24 72 C18 72, 12 72, 0 72 M24 72 C15.53 72, 7.06 72, 0 72 M0 72 C0 54.69, 0 37.38, 0 0 M0 72 C0 46.81, 0 21.63, 0 0" stroke="rgb(255,255,255)" stroke-width="1" fill="none"></path></g><g stroke-linecap="round"><g transform="translate(304.4186241567411 285.9658936478877) rotate(0 12 0)"><path d="M0 0 C6.79 0, 13.57 0, 24 0 M0 0 C9.07 0, 18.14 0, 24 0" stroke="rgb(0,0,0)" stroke-width="1" fill="none"></path></g></g><mask></mask><g stroke-linecap="round"><g transform="translate(328.4186241567411 285.9658936478877) rotate(0 0 36)"><path d="M0 0 C0 18.67, 0 37.34, 0 72 M0 0 C0 15.88, 0 31.77, 0 72" stroke="rgb(0,0,0)" stroke-width="1" fill="none"></path></g></g><mask></mask><g stroke-linecap="round"><g transform="translate(328.4186241567411 357.9658936478877) rotate(0 -12 0)"><path d="M0 0 C-9.16 0, -18.31 0, -24 0 M0 0 C-5.9 0, -11.8 0, -24 0" stroke="rgb(0,0,0)" stroke-width="1" fill="none"></path></g></g><mask></mask><g stroke-linecap="round"><g transform="translate(304.4186241567411 357.9658936478877) rotate(0 0 -36)"><path d="M0 0 C0 -27.1, 0 -54.19, 0 -72 M0 0 C0 -15.01, 0 -30.03, 0 -72" stroke="rgb(0,0,0)" stroke-width="1" fill="none"></path></g></g><mask></mask><g stroke-linecap="round" transform="translate(328.4186241567411 285.9658936478877) rotate(0 12 36)"><path d="M0 0 L24 0 L24 72 L0 72" stroke="none" stroke-width="0" fill="rgb(255,255,255)"></path><path d="M0 0 C7.87 0, 15.75 0, 24 0 M0 0 C5.23 0, 10.46 0, 24 0 M24 0 C24 19.37, 24 38.74, 24 72 M24 0 C24 16.51, 24 33.02, 24 72 M24 72 C16.69 72, 9.39 72, 0 72 M24 72 C19 72, 13.99 72, 0 72 M0 72 C0 52.95, 0 33.89, 0 0 M0 72 C0 53.24, 0 34.48, 0 0" stroke="rgb(255,255,255)" stroke-width="1" fill="none"></path></g><g stroke-linecap="round"><g transform="translate(328.4186241567411 285.9658936478877) rotate(0 12 0)"><path d="M0 0 C8.93 0, 17.86 0, 24 0 M0 0 C7.98 0, 15.97 0, 24 0" stroke="rgb(0,0,0)" stroke-width="1" fill="none"></path></g></g><mask></mask><g stroke-linecap="round"><g transform="translate(352.4186241567411 285.9658936478877) rotate(0 0 36)"><path d="M0 0 C0 20.62, 0 41.25, 0 72 M0 0 C0 23.24, 0 46.48, 0 72" stroke="rgb(0,0,0)" stroke-width="1" fill="none"></path></g></g><mask></mask><g stroke-linecap="round"><g transform="translate(352.4186241567411 357.9658936478877) rotate(0 -12 0)"><path d="M0 0 C-5.9 0, -11.8 0, -24 0 M0 0 C-7.61 0, -15.22 0, -24 0" stroke="rgb(0,0,0)" stroke-width="1" fill="none"></path></g></g><mask></mask><g stroke-linecap="round"><g transform="translate(328.4186241567411 357.9658936478877) rotate(0 0 -36)"><path d="M0 0 C0 -21.97, 0 -43.94, 0 -72 M0 0 C0 -16.89, 0 -33.78, 0 -72" stroke="rgb(0,0,0)" stroke-width="1" fill="none"></path></g></g><mask></mask><g stroke-linecap="round" transform="translate(352.4186241567411 285.9658936478877) rotate(0 12 36)"><path d="M0 0 L24 0 L24 72 L0 72" stroke="none" stroke-width="0" fill="rgb(255,255,255)"></path><path d="M0 0 C9.05 0, 18.1 0, 24 0 M0 0 C6.03 0, 12.06 0, 24 0 M24 0 C24 20.47, 24 40.93, 24 72 M24 0 C24 25.63, 24 51.27, 24 72 M24 72 C14.78 72, 5.56 72, 0 72 M24 72 C15.05 72, 6.09 72, 0 72 M0 72 C0 49.16, 0 26.33, 0 0 M0 72 C0 53.27, 0 34.55, 0 0" stroke="rgb(255,255,255)" stroke-width="1" fill="none"></path></g><g stroke-linecap="round"><g transform="translate(352.4186241567411 285.9658936478877) rotate(0 12 0)"><path d="M0 0 C5.13 0, 10.26 0, 24 0 M0 0 C5.42 0, 10.84 0, 24 0" stroke="rgb(0,0,0)" stroke-width="1" fill="none"></path></g></g><mask></mask><g stroke-linecap="round"><g transform="translate(376.4186241567411 285.9658936478877) rotate(0 0 36)"><path d="M0 0 C0 27.21, 0 54.42, 0 72 M0 0 C0 20.69, 0 41.37, 0 72" stroke="rgb(0,0,0)" stroke-width="1" fill="none"></path></g></g><mask></mask><g stroke-linecap="round"><g transform="translate(376.4186241567411 357.9658936478877) rotate(0 -12 0)"><path d="M0 0 C-5.29 0, -10.59 0, -24 0 M0 0 C-5.29 0, -10.57 0, -24 0" stroke="rgb(0,0,0)" stroke-width="1" fill="none"></path></g></g><mask></mask><g stroke-linecap="round"><g transform="translate(352.4186241567411 357.9658936478877) rotate(0 0 -36)"><path d="M0 0 C0 -17.71, 0 -35.41, 0 -72 M0 0 C0 -17.08, 0 -34.16, 0 -72" stroke="rgb(0,0,0)" stroke-width="1" fill="none"></path></g></g><mask></mask><g stroke-linecap="round"><g transform="translate(376.4186241567411 285.9658936478877) rotate(0 12 0)"><path d="M0 0 C5.23 0, 10.46 0, 24 0 M0 0 C6.46 0, 12.91 0, 24 0" stroke="rgb(0,0,0)" stroke-width="1" fill="none"></path></g></g><mask></mask><g stroke-linecap="round"><g transform="translate(400.4186241567411 285.9658936478877) rotate(0 0 36)"><path d="M0 0 C0 23.95, 0 47.91, 0 72 M0 0 C0 28.11, 0 56.22, 0 72" stroke="rgb(0,0,0)" stroke-width="1" fill="none"></path></g></g><mask></mask><g stroke-linecap="round"><g transform="translate(400.4186241567411 357.9658936478877) rotate(0 -12 0)"><path d="M0 0 C-7.75 0, -15.49 0, -24 0 M0 0 C-7.29 0, -14.59 0, -24 0" stroke="rgb(0,0,0)" stroke-width="1" fill="none"></path></g></g><mask></mask><g stroke-linecap="round"><g transform="translate(376.4186241567411 357.9658936478877) rotate(0 0 -36)"><path d="M0 0 C0 -22.83, 0 -45.65, 0 -72 M0 0 C0 -25.16, 0 -50.31, 0 -72" stroke="rgb(0,0,0)" stroke-width="1" fill="none"></path></g></g><mask></mask><g stroke-linecap="round" transform="translate(400.4186241567411 285.9658936478877) rotate(0 192 36)"><path d="M0 0 L384 0 L384 72 L0 72" stroke="none" stroke-width="0" fill="rgb(255,255,255)"></path><path d="M0 0 C90.09 0, 180.18 0, 384 0 M0 0 C120.28 0, 240.56 0, 384 0 M384 0 C384 21.83, 384 43.66, 384 72 M384 0 C384 15.25, 384 30.51, 384 72 M384 72 C264.52 72, 145.04 72, 0 72 M384 72 C261.36 72, 138.73 72, 0 72 M0 72 C0 46.53, 0 21.07, 0 0 M0 72 C0 54.48, 0 36.96, 0 0" stroke="rgb(255,255,255)" stroke-width="1" fill="none"></path></g><g transform="translate(513.9186241567411 310.4658936478877) rotate(0 78.5 11.5)"><text x="78.5" y="19" font-family="Helvetica, Segoe UI Emoji" font-size="20px" fill="#000000" text-anchor="middle" style="white-space: pre;" direction="ltr">16位窗口 window</text></g><g stroke-linecap="round"><g transform="translate(400.4186241567411 285.9658936478877) rotate(0 192 0)"><path d="M0 0 C96.44 0, 192.89 0, 384 0 M0 0 C109.15 0, 218.3 0, 384 0" stroke="rgb(0,0,0)" stroke-width="1" fill="none"></path></g></g><mask></mask><g stroke-linecap="round"><g transform="translate(784.4186241567409 285.9658936478877) rotate(0 0 36)"><path d="M0 0 C0 16.26, 0 32.52, 0 72 M0 0 C0 22.71, 0 45.42, 0 72" stroke="rgb(0,0,0)" stroke-width="1" fill="none"></path></g></g><mask></mask><g stroke-linecap="round"><g transform="translate(784.4186241567409 357.9658936478877) rotate(0 -192 0)"><path d="M0 0 C-110.33 0, -220.66 0, -384 0 M0 0 C-104.87 0, -209.75 0, -384 0" stroke="rgb(0,0,0)" stroke-width="1" fill="none"></path></g></g><mask></mask><g stroke-linecap="round"><g transform="translate(400.4186241567411 357.9658936478877) rotate(0 0 -36)"><path d="M0 0 C0 -15.86, 0 -31.71, 0 -72 M0 0 C0 -19.63, 0 -39.27, 0 -72" stroke="rgb(0,0,0)" stroke-width="1" fill="none"></path></g></g><mask></mask><g stroke-linecap="round" transform="translate(16.41862415674109 357.9658936478877) rotate(0 192 36)"><path d="M0 0 L384 0 L384 72 L0 72" stroke="none" stroke-width="0" fill="rgb(255,255,255)"></path><path d="M0 0 C91.11 0, 182.21 0, 384 0 M0 0 C101.47 0, 202.95 0, 384 0 M384 0 C384 21.11, 384 42.21, 384 72 M384 0 C384 25.14, 384 50.28, 384 72 M384 72 C231.82 72, 79.63 72, 0 72 M384 72 C240.07 72, 96.13 72, 0 72 M0 72 C0 54.54, 0 37.07, 0 0 M0 72 C0 45.24, 0 18.48, 0 0" stroke="rgb(255,255,255)" stroke-width="1" fill="none"></path></g><g transform="translate(106.41862415674109 382.4658936478877) rotate(0 102 11.5)"><text x="102" y="19" font-family="Helvetica, Segoe UI Emoji" font-size="20px" fill="#000000" text-anchor="middle" style="white-space: pre;" direction="ltr">16位校验和 Checksum</text></g><g stroke-linecap="round"><g transform="translate(16.41862415674109 357.9658936478877) rotate(0 192 0)"><path d="M0 0 C133.01 0, 266.02 0, 384 0 M0 0 C110.57 0, 221.14 0, 384 0" stroke="rgb(0,0,0)" stroke-width="1" fill="none"></path></g></g><mask></mask><g stroke-linecap="round"><g transform="translate(400.4186241567411 357.9658936478877) rotate(0 0 36)"><path d="M0 0 C0 19.37, 0 38.74, 0 72 M0 0 C0 16.51, 0 33.02, 0 72" stroke="rgb(0,0,0)" stroke-width="1" fill="none"></path></g></g><mask></mask><g stroke-linecap="round"><g transform="translate(400.4186241567411 429.9658936478877) rotate(0 -192 0)"><path d="M0 0 C-149.92 0, -299.84 0, -384 0 M0 0 C-115.85 0, -231.7 0, -384 0" stroke="rgb(0,0,0)" stroke-width="1" fill="none"></path></g></g><mask></mask><g stroke-linecap="round"><g transform="translate(16.41862415674109 429.9658936478877) rotate(0 0 -36)"><path d="M0 0 C0 -21.88, 0 -43.76, 0 -72 M0 0 C0 -15.58, 0 -31.16, 0 -72" stroke="rgb(0,0,0)" stroke-width="1" fill="none"></path></g></g><mask></mask><g stroke-linecap="round" transform="translate(400.4186241567411 357.9658936478877) rotate(0 192 36)"><path d="M0 0 L384 0 L384 72 L0 72" stroke="none" stroke-width="0" fill="rgb(255,255,255)"></path><path d="M0 0 C134.16 0, 268.32 0, 384 0 M0 0 C110.95 0, 221.91 0, 384 0 M384 0 C384 22.81, 384 45.63, 384 72 M384 0 C384 26.76, 384 53.52, 384 72 M384 72 C235.84 72, 87.68 72, 0 72 M384 72 C301.53 72, 219.06 72, 0 72 M0 72 C0 47.47, 0 22.93, 0 0 M0 72 C0 51.03, 0 30.05, 0 0" stroke="rgb(255,255,255)" stroke-width="1" fill="none"></path></g><g transform="translate(462.9186241567411 382.4658936478877) rotate(0 129.5 11.5)"><text x="129.5" y="19" font-family="Helvetica, Segoe UI Emoji" font-size="20px" fill="#000000" text-anchor="middle" style="white-space: pre;" direction="ltr">16位紧急指针 Urgent Pointer</text></g><g stroke-linecap="round"><g transform="translate(400.4186241567411 357.9658936478877) rotate(0 192 0)"><path d="M0 0 C120.28 0, 240.56 0, 384 0 M0 0 C116.42 0, 232.85 0, 384 0" stroke="rgb(0,0,0)" stroke-width="1" fill="none"></path></g></g><mask></mask><g stroke-linecap="round"><g transform="translate(784.4186241567409 357.9658936478877) rotate(0 0 36)"><path d="M0 0 C0 20.47, 0 40.93, 0 72 M0 0 C0 25.63, 0 51.27, 0 72" stroke="rgb(0,0,0)" stroke-width="1" fill="none"></path></g></g><mask></mask><g stroke-linecap="round"><g transform="translate(784.4186241567409 429.9658936478877) rotate(0 -192 0)"><path d="M0 0 C-121.13 0, -242.26 0, -384 0 M0 0 C-96.03 0, -192.06 0, -384 0" stroke="rgb(0,0,0)" stroke-width="1" fill="none"></path></g></g><mask></mask><g stroke-linecap="round"><g transform="translate(400.4186241567411 429.9658936478877) rotate(0 0 -36)"><path d="M0 0 C0 -19.66, 0 -39.33, 0 -72 M0 0 C0 -24.3, 0 -48.61, 0 -72" stroke="rgb(0,0,0)" stroke-width="1" fill="none"></path></g></g><mask></mask><g stroke-linecap="round" transform="translate(16.41862415674109 429.9658936478877) rotate(0 384 36)"><path d="M0 0 L768 0 L768 72 L0 72" stroke="none" stroke-width="0" fill="rgb(255,255,255)"></path><path d="M0 0 C209.44 0, 418.87 0, 768 0 M0 0 C194.56 0, 389.11 0, 768 0 M768 0 C768 24.02, 768 48.04, 768 72 M768 0 C768 17.56, 768 35.13, 768 72 M768 72 C482.09 72, 196.17 72, 0 72 M768 72 C526.23 72, 284.47 72, 0 72 M0 72 C0 54.67, 0 37.35, 0 0 M0 72 C0 46.05, 0 20.09, 0 0" stroke="rgb(255,255,255)" stroke-width="1" fill="none"></path></g><g transform="translate(299.4186241567411 454.4658936478877) rotate(0 101 11.5)"><text x="101" y="19" font-family="Helvetica, Segoe UI Emoji" font-size="20px" fill="#000000" text-anchor="middle" style="white-space: pre;" direction="ltr">(Options and Padding)</text></g><g stroke-linecap="round"><g transform="translate(16.41862415674109 429.9658936478877) rotate(0 384 0)"><path d="M0 0 C202.95 0, 405.9 0, 768 0 M0 0 C225.13 0, 450.25 0, 768 0" stroke="rgb(0,0,0)" stroke-width="1" fill="none"></path></g></g><mask></mask><g stroke-linecap="round"><g transform="translate(784.4186241567409 429.9658936478877) rotate(0 0 36)"><path d="M0 0 C0 20.73, 0 41.46, 0 72 M0 0 C0 28.67, 0 57.33, 0 72" stroke="rgb(0,0,0)" stroke-width="1" fill="none"></path></g></g><mask></mask><g stroke-linecap="round"><g transform="translate(784.4186241567409 501.9658936478877) rotate(0 -384 0)"><path d="M0 0 C-176.12 0, -352.24 0, -768 0 M0 0 C-233.81 0, -467.61 0, -768 0" stroke="rgb(0,0,0)" stroke-width="1" fill="none"></path></g></g><mask></mask><g stroke-linecap="round"><g transform="translate(16.41862415674109 501.9658936478877) rotate(0 0 -36)"><path d="M0 0 C0 -21.72, 0 -43.44, 0 -72 M0 0 C0 -15.25, 0 -30.5, 0 -72" stroke="rgb(0,0,0)" stroke-width="1" fill="none"></path></g></g><mask></mask><g stroke-linecap="round" transform="translate(16.41862415674109 501.9658936478877) rotate(0 384 108)"><path d="M0 0 L768 0 L768 216 L0 216" stroke="none" stroke-width="0" fill="rgb(255,255,255)"></path><path d="M0 0 C166.2 0, 332.39 0, 768 0 M0 0 C285.65 0, 571.3 0, 768 0 M768 0 C768 77.62, 768 155.23, 768 216 M768 0 C768 52.85, 768 105.7, 768 216 M768 216 C539.84 216, 311.67 216, 0 216 M768 216 C523.46 216, 278.92 216, 0 216 M0 216 C0 164.68, 0 113.36, 0 0 M0 216 C0 162.56, 0 109.13, 0 0" stroke="rgb(255,255,255)" stroke-width="1" fill="none"></path></g><g stroke-linecap="round"><g transform="translate(16.41862415674109 501.9658936478877) rotate(0 384 0)"><path d="M0 0 C221.91 0, 443.81 0, 768 0 M0 0 C243.33 0, 486.67 0, 768 0" stroke="rgb(0,0,0)" stroke-width="1" fill="none"></path></g></g><mask></mask><g stroke-linecap="round"><g transform="translate(784.4186241567409 501.9658936478877) rotate(0 0 108)"><path d="M0 0 C0 65.49, 0 130.98, 0 216 M0 0 C0 45.76, 0 91.52, 0 216" stroke="rgb(0,0,0)" stroke-width="1" fill="none"></path></g></g><mask></mask><g stroke-linecap="round"><g transform="translate(784.4186241567409 717.9658936478886) rotate(0 -384 0)"><path d="M0 0 C-273.44 0, -546.87 0, -768 0 M0 0 C-294.99 0, -589.98 0, -768 0" stroke="rgb(0,0,0)" stroke-width="1" fill="none"></path></g></g><mask></mask><g stroke-linecap="round"><g transform="translate(16.41862415674109 717.9658936478886) rotate(0 0 -108)"><path d="M0 0 C0 -54.02, 0 -108.04, 0 -216 M0 0 C0 -76.24, 0 -152.49, 0 -216" stroke="rgb(0,0,0)" stroke-width="1" fill="none"></path></g></g><mask></mask><g transform="translate(10 10.771270751953125) rotate(0 5.5 9.5)"><text x="0" y="15" font-family="Helvetica, Segoe UI Emoji" font-size="16px" fill="#343a40" text-anchor="start" style="white-space: pre;" direction="ltr">0</text></g><g transform="translate(388.6048583984375 10) rotate(0 10 9.5)"><text x="0" y="15" font-family="Helvetica, Segoe UI Emoji" font-size="16px" fill="#343a40" text-anchor="start" style="white-space: pre;" direction="ltr">16</text></g><g transform="translate(779.6048583984375 11) rotate(0 10 9.5)"><text x="0" y="15" font-family="Helvetica, Segoe UI Emoji" font-size="16px" fill="#343a40" text-anchor="start" style="white-space: pre;" direction="ltr">31</text></g><g transform="translate(158.86494484733345 92.86899876324287) rotate(0 52 14)"><text x="0" y="21" font-family="Helvetica, Segoe UI Emoji" font-size="20px" fill="#000000" text-anchor="start" style="white-space: pre;" direction="ltr">16位源端口</text></g><g transform="translate(347.48201914443393 312.43245458414435) rotate(270.21292538172156 18 9.5)"><text x="0" y="15" font-family="Helvetica, Segoe UI Emoji" font-size="16.54855658517111px" fill="#e67700" text-anchor="start" style="white-space: pre;" direction="ltr">SYN</text></g><g transform="translate(323.7197096697255 311.2449243853733) rotate(270.21292538172156 17.5 9.5)"><text x="0" y="15" font-family="Helvetica, Segoe UI Emoji" font-size="16.54855658517111px" fill="#343a40" text-anchor="start" style="white-space: pre;" direction="ltr">RST</text></g><g transform="translate(298.13612617966453 312.41785327068635) rotate(270.21292538172156 18 9.5)"><text x="0" y="15" font-family="Helvetica, Segoe UI Emoji" font-size="16.54855658517111px" fill="#343a40" text-anchor="start" style="white-space: pre;" direction="ltr">PSH</text></g><g transform="translate(275.3158456940972 312.1346840619994) rotate(270.21292538172156 17.5 9.5)"><text x="0" y="15" font-family="Helvetica, Segoe UI Emoji" font-size="16px" fill="#e67700" text-anchor="start" style="white-space: pre;" direction="ltr">ACK</text></g><g transform="translate(249.36521482749316 312.51887358111446) rotate(270.21292538172156 19.5 9.5)"><text x="0" y="15" font-family="Helvetica, Segoe UI Emoji" font-size="16.54855658517111px" fill="#343a40" text-anchor="start" style="white-space: pre;" direction="ltr">URG</text></g><g transform="translate(365.682329910597 579.310576711146) rotate(0 43 14)"><text x="0" y="21" font-family="Helvetica, Segoe UI Emoji" font-size="20px" fill="#000000" text-anchor="start" style="white-space: pre;" direction="ltr">数据 data</text></g></svg>