<svg version="1.1" xmlns="http://www.w3.org/2000/svg" viewBox="0 0 1375.337425220067 1855.2662339460906" width="1375.337425220067" height="1855.2662339460906">
  <!-- svg-source:excalidraw -->
  
  <defs>
    <style class="style-fonts">
      @font-face {
        font-family: "Virgil";
        src: url("/stylesheets/font/Virgil-hand.woff2");
      }
      @font-face {
        font-family: "Cascadia";
        src: url("https://unpkg.com/@excalidraw/excalidraw@0.15.3/dist/excalidraw-assets/Cascadia.woff2");
      }
    </style>
  </defs>
  <rect x="0" y="0" width="1375.337425220067" height="1855.2662339460906" fill="#ffffff"></rect><g transform="translate(373.9779143521467 15.106218851891299) rotate(0 25 11.5)"><text x="0" y="0" font-family="Helvetica, Segoe UI Emoji" font-size="16px" fill="#343a40" text-anchor="start" style="white-space: pre;" direction="ltr" dominant-baseline="text-before-edge">客户端</text></g><g transform="translate(772.9630654376092 10) rotate(0 25 11.5)"><text x="0" y="0" font-family="Helvetica, Segoe UI Emoji" font-size="16px" fill="#343a40" text-anchor="start" style="white-space: pre;" direction="ltr" dominant-baseline="text-before-edge">服务端</text></g><g mask="url(#mask-1yTtmUg6YWDVn-MS7lXfH)" stroke-linecap="round"><g transform="translate(412.292178213748 95.60850601433026) rotate(0 175.67085922169775 31.944139844531264)"><path d="M-0.93 -1.11 C135.04 23.78, 269.79 47.48, 350.34 63.61 M0.07 -0.57 C115.14 21.01, 231.19 42.42, 351.28 64.51" stroke="#343a40" stroke-width="1" fill="none"></path></g><g transform="translate(412.292178213748 95.60850601433026) rotate(0 175.67085922169775 31.944139844531264)"><path d="M349.78 65.4 L335.38 68.62 L340.58 56.5 L350.66 62.84" stroke="none" stroke-width="0" fill="#343a40" fill-rule="evenodd"></path><path d="M350.19 63.21 C346.56 65.73, 341.07 66.25, 335.58 67.95 M351.36 63.84 C346 65.98, 342.04 67.73, 336.69 69.02 M335.75 69.05 C337.47 64.81, 337.9 60.85, 339.11 54.56 M336.57 67.86 C337.95 63.51, 337.83 59.7, 339.69 56.28 M338.42 55.8 C343.02 59.14, 343.31 60.39, 350.06 63.81 M339.01 56.25 C343.57 58.43, 347.83 61.91, 351.42 63.91 M351.28 64.51 C351.28 64.51, 351.28 64.51, 351.28 64.51 M351.28 64.51 C351.28 64.51, 351.28 64.51, 351.28 64.51" stroke="#343a40" stroke-width="1" fill="none"></path></g></g><mask id="mask-1yTtmUg6YWDVn-MS7lXfH"><rect x="0" y="0" fill="#fff" width="863.6338966571435" height="259.4967857033928"></rect><rect x="506.4630374354457" y="109.05264585886152" fill="#000" width="163" height="37" opacity="1"></rect></mask><g transform="translate(506.46303743544576 109.05264585886152) rotate(0 81.00471642758563 18.25852646770511)"><text x="81.5" y="0" font-family="Helvetica, Segoe UI Emoji" font-size="16px" fill="#343a40" text-anchor="middle" style="white-space: pre;" direction="ltr" dominant-baseline="text-before-edge">SYN + 1000(0)</text><text x="81.5" y="18.5" font-family="Helvetica, Segoe UI Emoji" font-size="16px" fill="#343a40" text-anchor="middle" style="white-space: pre;" direction="ltr" dominant-baseline="text-before-edge">win 4096 &lt;mss 1460&gt; </text></g><g transform="translate(10 41.43075186322244) rotate(0 174.5 54)"><text x="0" y="0" font-family="Helvetica, Segoe UI Emoji" font-size="12.688001997015453px" fill="#343a40" text-anchor="start" style="white-space: pre;" direction="ltr" dominant-baseline="text-before-edge">1000: 32位随机 序列号</text><text x="0" y="18" font-family="Helvetica, Segoe UI Emoji" font-size="12.688001997015453px" fill="#343a40" text-anchor="start" style="white-space: pre;" direction="ltr" dominant-baseline="text-before-edge">(0) 携带的数据字节长度,</text><text x="0" y="36" font-family="Helvetica, Segoe UI Emoji" font-size="12.688001997015453px" fill="#343a40" text-anchor="start" style="white-space: pre;" direction="ltr" dominant-baseline="text-before-edge">请求连接时一般无需传递数据</text><text x="0" y="54" font-family="Helvetica, Segoe UI Emoji" font-size="12.688001997015453px" fill="#343a40" text-anchor="start" style="white-space: pre;" direction="ltr" dominant-baseline="text-before-edge">0表示不带</text><text x="0" y="72" font-family="Helvetica, Segoe UI Emoji" font-size="12.688001997015453px" fill="#343a40" text-anchor="start" style="white-space: pre;" direction="ltr" dominant-baseline="text-before-edge">win 4096: 告诉对方 我这边读缓冲区大小剩余4096个字节</text><text x="0" y="90" font-family="Helvetica, Segoe UI Emoji" font-size="12.688001997015453px" fill="#343a40" text-anchor="start" style="white-space: pre;" direction="ltr" dominant-baseline="text-before-edge">mss 1460 :告诉对方 我这边一次最大能接收1460个字节的数据</text></g><g transform="translate(808.9834503090844 106.57861878215294) rotate(0 162 103.5)"><text x="0" y="0" font-family="Helvetica, Segoe UI Emoji" font-size="15.104502735794295px" fill="#343a40" text-anchor="start" style="white-space: pre;" direction="ltr" dominant-baseline="text-before-edge">服务端判断传递过来的SYN标志的值是不是1,</text><text x="0" y="20.7" font-family="Helvetica, Segoe UI Emoji" font-size="15.104502735794295px" fill="#343a40" text-anchor="start" style="white-space: pre;" direction="ltr" dominant-baseline="text-before-edge">1表示第一次握手成功,</text><text x="0" y="41.4" font-family="Helvetica, Segoe UI Emoji" font-size="15.104502735794295px" fill="#343a40" text-anchor="start" style="white-space: pre;" direction="ltr" dominant-baseline="text-before-edge">0表示握手失败</text><text x="0" y="62.099999999999994" font-family="Helvetica, Segoe UI Emoji" font-size="15.104502735794295px" fill="#343a40" text-anchor="start" style="white-space: pre;" direction="ltr" dominant-baseline="text-before-edge">1001: 是客户端发来的1000+1的结果</text><text x="0" y="82.8" font-family="Helvetica, Segoe UI Emoji" font-size="15.104502735794295px" fill="#343a40" text-anchor="start" style="white-space: pre;" direction="ltr" dominant-baseline="text-before-edge">返回给客户端是让客户端判断</text><text x="0" y="103.5" font-family="Helvetica, Segoe UI Emoji" font-size="15.104502735794295px" fill="#343a40" text-anchor="start" style="white-space: pre;" direction="ltr" dominant-baseline="text-before-edge">我们这边是否接收数据成功</text><text x="0" y="124.19999999999999" font-family="Helvetica, Segoe UI Emoji" font-size="15.104502735794295px" fill="#343a40" text-anchor="start" style="white-space: pre;" direction="ltr" dominant-baseline="text-before-edge">10000: 32位序列号</text><text x="0" y="144.9" font-family="Helvetica, Segoe UI Emoji" font-size="15.104502735794295px" fill="#343a40" text-anchor="start" style="white-space: pre;" direction="ltr" dominant-baseline="text-before-edge">win 6144 告知对方,这边读缓冲区剩余6k字节数</text><text x="0" y="165.6" font-family="Helvetica, Segoe UI Emoji" font-size="15.104502735794295px" fill="#343a40" text-anchor="start" style="white-space: pre;" direction="ltr" dominant-baseline="text-before-edge">mss 1024告知对方这边一次最大能接收1k字节数</text><text x="0" y="186.29999999999998" font-family="Helvetica, Segoe UI Emoji" font-size="15.104502735794295px" fill="#343a40" text-anchor="start" style="white-space: pre;" direction="ltr" dominant-baseline="text-before-edge"></text></g><g mask="url(#mask-cvrXtrqWk1m1uYaMN0oXi)" stroke-linecap="round"><g transform="translate(758.3329556944902 169.92425018422227) rotate(0 -168.90591120505405 65.17210669260828)"><path d="M-0.48 -0.52 C-130.14 48.6, -260.45 100.17, -336.85 130.87 M-0.51 -0.49 C-101.91 41.73, -202.72 80.24, -337.67 130.87" stroke="#343a40" stroke-width="1" fill="none"></path></g><g transform="translate(758.3329556944902 169.92425018422227) rotate(0 -168.90591120505405 65.17210669260828)"><path d="M-337.6 130.27 L-327.68 121.06 L-321.83 133.18 L-337.98 132.06" stroke="none" stroke-width="0" fill="#343a40" fill-rule="evenodd"></path><path d="M-338.24 130.25 C-334.13 126.32, -330.11 123.73, -326.05 120.76 M-338.28 130.28 C-335.26 128.13, -331.32 124.14, -327.02 120.76 M-328.44 119.43 C-326.47 124.24, -324.37 128.75, -322.09 133.26 M-326.68 120.65 C-326.7 123.27, -325.5 126.2, -322.62 132.35 M-323.24 133.41 C-326.92 132.8, -332.51 132.23, -337.47 131.13 M-323.25 131.42 C-326.58 132.15, -332.09 131.77, -338.33 131.51 M-337.67 130.87 C-337.67 130.87, -337.67 130.87, -337.67 130.87 M-337.67 130.87 C-337.67 130.87, -337.67 130.87, -337.67 130.87" stroke="#343a40" stroke-width="1" fill="none"></path></g></g><mask id="mask-cvrXtrqWk1m1uYaMN0oXi"><rect x="0" y="0" fill="#fff" width="1196.1447781045983" height="400.26846356943884"></rect><rect x="493.4270444894362" y="216.59635687683044" fill="#000" width="192" height="37" opacity="1"></rect></mask><g transform="translate(493.4270444894362 216.59635687683044) rotate(0 95.83089332316351 18.501697636005815)"><text x="96" y="0" font-family="Helvetica, Segoe UI Emoji" font-size="16px" fill="#343a40" text-anchor="middle" style="white-space: pre;" direction="ltr" dominant-baseline="text-before-edge">ACK + 1001  SYN + 10000</text><text x="96" y="18.5" font-family="Helvetica, Segoe UI Emoji" font-size="16px" fill="#343a40" text-anchor="middle" style="white-space: pre;" direction="ltr" dominant-baseline="text-before-edge">win 6144 &lt;mss 1024&gt;</text></g><g transform="translate(118.29127016562353 300.7321115123473) rotate(0 111.5 114)"><text x="0" y="0" font-family="Helvetica, Segoe UI Emoji" font-size="15.221671275369642px" fill="#343a40" text-anchor="start" style="white-space: pre;" direction="ltr" dominant-baseline="text-before-edge">客户端接收,查看</text><text x="0" y="20.727272727272727" font-family="Helvetica, Segoe UI Emoji" font-size="15.221671275369642px" fill="#343a40" text-anchor="start" style="white-space: pre;" direction="ltr" dominant-baseline="text-before-edge">1. ACK是否=1</text><text x="0" y="41.45454545454545" font-family="Helvetica, Segoe UI Emoji" font-size="15.221671275369642px" fill="#343a40" text-anchor="start" style="white-space: pre;" direction="ltr" dominant-baseline="text-before-edge">2. 发来的确认号用来判断服务端</text><text x="0" y="62.18181818181818" font-family="Helvetica, Segoe UI Emoji" font-size="15.221671275369642px" fill="#343a40" text-anchor="start" style="white-space: pre;" direction="ltr" dominant-baseline="text-before-edge">是否接收到客户端完整的数据.</text><text x="0" y="82.9090909090909" font-family="Helvetica, Segoe UI Emoji" font-size="15.221671275369642px" fill="#343a40" text-anchor="start" style="white-space: pre;" direction="ltr" dominant-baseline="text-before-edge">这次只有SYN标志,没有发送数据,</text><text x="0" y="103.63636363636363" font-family="Helvetica, Segoe UI Emoji" font-size="15.221671275369642px" fill="#343a40" text-anchor="start" style="white-space: pre;" direction="ltr" dominant-baseline="text-before-edge">所以值=</text><text x="0" y="124.36363636363636" font-family="Helvetica, Segoe UI Emoji" font-size="15.221671275369642px" fill="#343a40" text-anchor="start" style="white-space: pre;" direction="ltr" dominant-baseline="text-before-edge">(第一次请求连接发给服务端</text><text x="0" y="145.0909090909091" font-family="Helvetica, Segoe UI Emoji" font-size="15.221671275369642px" fill="#343a40" text-anchor="start" style="white-space: pre;" direction="ltr" dominant-baseline="text-before-edge">的序列号+1)</text><text x="0" y="165.8181818181818" font-family="Helvetica, Segoe UI Emoji" font-size="15.221671275369642px" fill="#343a40" text-anchor="start" style="white-space: pre;" direction="ltr" dominant-baseline="text-before-edge">3. SYN是否=1</text><text x="0" y="186.54545454545453" font-family="Helvetica, Segoe UI Emoji" font-size="15.221671275369642px" fill="#343a40" text-anchor="start" style="white-space: pre;" direction="ltr" dominant-baseline="text-before-edge">然后发送 ACK+确认号</text><text x="0" y="207.27272727272725" font-family="Helvetica, Segoe UI Emoji" font-size="15.221671275369642px" fill="#343a40" text-anchor="start" style="white-space: pre;" direction="ltr" dominant-baseline="text-before-edge"></text></g><g mask="url(#mask-N1GFCBfGN_RtQdpqgqO5L)" stroke-linecap="round"><g transform="translate(417.31372656054566 308.9380630582766) rotate(0 173.3880935708782 88.55879790867584)"><path d="M-0.94 0.86 C110.1 56.69, 216.66 112.9, 347.31 176.88 M-0.42 -0.5 C122.53 61.95, 245.9 124.39, 346.39 176.79" stroke="#343a40" stroke-width="1" fill="none"></path></g><g transform="translate(417.31372656054566 308.9380630582766) rotate(0 173.3880935708782 88.55879790867584)"><path d="M346.09 177.65 L331.2 174.66 L337.96 163.95 L347.1 178.3" stroke="none" stroke-width="0" fill="#343a40" fill-rule="evenodd"></path><path d="M345.18 177.9 C343.13 176.58, 336.02 177.44, 332.09 175.87 M345.84 176.15 C340.35 176.98, 336.29 176.65, 330.9 175.75 M331.97 175.26 C333.89 171.13, 335.25 167.44, 337.52 164.7 M331.91 175.64 C333.01 173.13, 334.92 169.7, 337.53 164.78 M336.82 164.64 C339.33 165.89, 340.63 168.99, 345.8 176.28 M336.6 165.45 C340.64 169.03, 343.11 172.71, 346.55 177.32 M346.39 176.79 C346.39 176.79, 346.39 176.79, 346.39 176.79 M346.39 176.79 C346.39 176.79, 346.39 176.79, 346.39 176.79" stroke="#343a40" stroke-width="1" fill="none"></path></g></g><mask id="mask-N1GFCBfGN_RtQdpqgqO5L"><rect x="0" y="0" fill="#fff" width="864.089913702302" height="586.0556588756283"></rect><rect x="542.2018201314238" y="378.99686096695245" fill="#000" width="97" height="37" opacity="1"></rect></mask><g transform="translate(542.2018201314238 378.99686096695245) rotate(0 48.29539103228129 18.132372853746006)"><text x="48.5" y="0" font-family="Helvetica, Segoe UI Emoji" font-size="16px" fill="#343a40" text-anchor="middle" style="white-space: pre;" direction="ltr" dominant-baseline="text-before-edge">ACK + 10001</text><text x="48.5" y="18.5" font-family="Helvetica, Segoe UI Emoji" font-size="16px" fill="#343a40" text-anchor="middle" style="white-space: pre;" direction="ltr" dominant-baseline="text-before-edge">win 4096</text></g><g transform="translate(842.0683072569898 494.37554412953455) rotate(0 247.5 22.5)"><text x="0" y="0" font-family="Helvetica, Segoe UI Emoji" font-size="16px" fill="#343a40" text-anchor="start" style="white-space: pre;" direction="ltr" dominant-baseline="text-before-edge">服务端检查 ACK是否= 1 </text><text x="0" y="22.5" font-family="Helvetica, Segoe UI Emoji" font-size="16px" fill="#343a40" text-anchor="start" style="white-space: pre;" direction="ltr" dominant-baseline="text-before-edge">客户端发来的32位确认号 是否= 之前给客户端发送的32位随机序号+1 </text></g><g transform="translate(855.8753406089543 369.8807885827755) rotate(0 202.99999999999997 22.5)"><text x="0" y="0" font-family="Helvetica, Segoe UI Emoji" font-size="16px" fill="#e67700" text-anchor="start" style="white-space: pre;" direction="ltr" dominant-baseline="text-before-edge">确认号= 序列号 + 携带的数据字节数 + 标志位(1)</text><text x="0" y="22.5" font-family="Helvetica, Segoe UI Emoji" font-size="16px" fill="#e67700" text-anchor="start" style="white-space: pre;" direction="ltr" dominant-baseline="text-before-edge">确认号是用来让对方知道我方 接收了多少他们发来的数据</text></g><g mask="url(#mask-a87VBZg4GbQOjA265e85Q)" stroke-linecap="round"><g transform="translate(411.96482096088977 628.6338695845106) rotate(0 177.25597342450655 62.1059582867623)"><path d="M0.76 0.26 C70.85 26.18, 141.89 50.98, 354.12 124.5 M0.4 -0.28 C118.28 40.19, 238.29 82.18, 354.04 124.81" stroke="#343a40" stroke-width="1" fill="none"></path></g><g transform="translate(411.96482096088977 628.6338695845106) rotate(0 177.25597342450655 62.1059582867623)"><path d="M355.16 123.49 L338.96 125.18 L342.75 112.89 L355.44 122.99" stroke="none" stroke-width="0" fill="#343a40" fill-rule="evenodd"></path><path d="M354.97 125.14 C350.64 124.15, 346.65 123.97, 338.62 126.49 M354.53 124.47 C348.38 124.78, 344.22 125.46, 338.51 126.87 M339.26 126.75 C341.18 121.97, 341.14 117.69, 344.56 115.1 M338.96 125.77 C340.62 122.04, 342.52 118, 343.45 113.75 M344.19 113.99 C345.7 117.46, 348.66 117.64, 353.46 125.21 M343.15 113.98 C347.42 117.95, 350.62 121.55, 354.67 124.5 M354.04 124.81 C354.04 124.81, 354.04 124.81, 354.04 124.81 M354.04 124.81 C354.04 124.81, 354.04 124.81, 354.04 124.81" stroke="#343a40" stroke-width="1" fill="none"></path></g></g><mask id="mask-a87VBZg4GbQOjA265e85Q"><rect x="0" y="0" fill="#fff" width="866.4767678099029" height="852.8457861580353"></rect><rect x="500.2207943853963" y="671.7398278712728" fill="#000" width="178" height="38" opacity="1"></rect></mask><g transform="translate(500.22079438539635 671.7398278712726) rotate(0 89.00695647491767 19.161741282568073)"><text x="89" y="0" font-family="Helvetica, Segoe UI Emoji" font-size="16px" fill="#343a40" text-anchor="middle" style="white-space: pre;" direction="ltr" dominant-baseline="text-before-edge">1001(1024), ACK+10001</text><text x="89" y="19" font-family="Helvetica, Segoe UI Emoji" font-size="16px" fill="#343a40" text-anchor="middle" style="white-space: pre;" direction="ltr" dominant-baseline="text-before-edge">win 4096</text></g><g transform="translate(551.442932795565 609.8664594882773) rotate(0 97.5 22.5)"><text x="0" y="0" font-family="Helvetica, Segoe UI Emoji" font-size="16px" fill="#343a40" text-anchor="start" style="white-space: pre;" direction="ltr" dominant-baseline="text-before-edge">发送1024个字节的数据</text><text x="0" y="22.5" font-family="Helvetica, Segoe UI Emoji" font-size="16px" fill="#343a40" text-anchor="start" style="white-space: pre;" direction="ltr" dominant-baseline="text-before-edge">注意传输阶段没有SYN标志</text></g><g mask="url(#mask-67b9VG0kj8KTiRFGpn_7J)" stroke-linecap="round"><g transform="translate(763.584024416419 769.6801065504928) rotate(0 -171.56383770623012 9.666719650253526)"><path d="M-0.89 -1.09 C-118.3 5.6, -234.63 11.67, -342.61 20.07 M0.29 -0.18 C-82.94 6.89, -167.02 11.96, -343.6 19.69" stroke="#343a40" stroke-width="1" fill="none"></path></g><g transform="translate(763.584024416419 769.6801065504928) rotate(0 -171.56383770623012 9.666719650253526)"><path d="M-342.1 19.54 L-329.37 13.24 L-329.75 23.75 L-343.67 20.4" stroke="none" stroke-width="0" fill="#343a40" fill-rule="evenodd"></path><path d="M-344.62 18.45 C-339.61 18.33, -333.5 15.3, -329.74 13.56 M-343.27 19.48 C-339.7 17.84, -336.88 16.53, -330.86 13.13 M-331.16 13.78 C-329.2 17.4, -330.42 21.5, -329.57 25.52 M-330.33 12.35 C-330.15 16.46, -329.96 19.26, -329.25 25.45 M-329.8 25.92 C-332.28 22.58, -335.78 23.41, -342.16 20.88 M-329.49 25.41 C-333.95 24.03, -338.75 21.9, -343.43 20.14 M-343.6 19.69 C-343.6 19.69, -343.6 19.69, -343.6 19.69 M-343.6 19.69 C-343.6 19.69, -343.6 19.69, -343.6 19.69" stroke="#343a40" stroke-width="1" fill="none"></path></g></g><mask id="mask-67b9VG0kj8KTiRFGpn_7J"><rect x="0" y="0" fill="#fff" width="1206.7116998288793" height="889.0135458509999"></rect><rect x="514.0201867101889" y="760.3468262007466" fill="#000" width="156" height="38" opacity="1"></rect></mask><g transform="translate(514.0201867101887 760.3468262007461) rotate(0 77.90724338743468 18.822652646549273)"><text x="78" y="0" font-family="Helvetica, Segoe UI Emoji" font-size="16px" fill="#343a40" text-anchor="middle" style="white-space: pre;" direction="ltr" dominant-baseline="text-before-edge">10001(10),ACK+2025</text><text x="78" y="19" font-family="Helvetica, Segoe UI Emoji" font-size="16px" fill="#343a40" text-anchor="middle" style="white-space: pre;" direction="ltr" dominant-baseline="text-before-edge">win 6144</text></g><g transform="translate(851.5933998275054 765.9428396033225) rotate(0 241 34)"><text x="0" y="0" font-family="Helvetica, Segoe UI Emoji" font-size="16px" fill="#343a40" text-anchor="start" style="white-space: pre;" direction="ltr" dominant-baseline="text-before-edge">服务端, 返回确认号 2025 表示这边接收到1024个字节</text><text x="0" y="22.666666666666668" font-family="Helvetica, Segoe UI Emoji" font-size="16px" fill="#343a40" text-anchor="start" style="white-space: pre;" direction="ltr" dominant-baseline="text-before-edge">10001(20), 表示发送10个字节给客户端</text><text x="0" y="45.333333333333336" font-family="Helvetica, Segoe UI Emoji" font-size="16px" fill="#343a40" text-anchor="start" style="white-space: pre;" direction="ltr" dominant-baseline="text-before-edge">这里发送的win还是6144的意思说明 服务端已经从缓冲区读取了数据</text></g><g transform="translate(40.81667255314085 783.2156588303692) rotate(0 155 22.5)"><text x="0" y="0" font-family="Helvetica, Segoe UI Emoji" font-size="16px" fill="#343a40" text-anchor="start" style="white-space: pre;" direction="ltr" dominant-baseline="text-before-edge">如果发现确认号小于2025,</text><text x="0" y="22.5" font-family="Helvetica, Segoe UI Emoji" font-size="16px" fill="#343a40" text-anchor="start" style="white-space: pre;" direction="ltr" dominant-baseline="text-before-edge">那么客户端会再发送一次1024个字节的数据</text></g><g mask="url(#mask-quY8HRFv9tVzh4PB8Gq1S)" stroke-linecap="round"><g transform="translate(412.4157418473825 1343.4992918019223) rotate(0 190.5522140509741 54.940015288961604)"><path d="M0.19 0.05 C132.34 38.05, 264.13 75.22, 381.96 109.98 M0 -0.41 C141.69 39.75, 283.27 80.17, 381.04 110.07" stroke="#343a40" stroke-width="1" fill="none"></path></g><g transform="translate(412.4157418473825 1343.4992918019223) rotate(0 190.5522140509741 54.940015288961604)"><path d="M381.99 109.53 L364.68 111.12 L368.32 99.12 L382.56 111.41" stroke="none" stroke-width="0" fill="#343a40" fill-rule="evenodd"></path><path d="M381.29 110.13 C377.06 110.92, 371.66 110.51, 367.32 112.39 M381.04 109.53 C375.15 110.83, 369.56 111.1, 366.13 112.51 M366.08 111.83 C367.34 107.56, 368.81 102.81, 369.21 98.9 M365.92 111.83 C367.44 108.22, 368.35 103.42, 370.43 100.04 M370.62 101.11 C374.25 103.99, 376.89 106.44, 380.25 110.29 M370.56 100.11 C373.38 103.16, 377.47 107.77, 380.95 109.74 M381.04 110.07 C381.04 110.07, 381.04 110.07, 381.04 110.07 M381.04 110.07 C381.04 110.07, 381.04 110.07, 381.04 110.07" stroke="#343a40" stroke-width="1" fill="none"></path></g></g><mask id="mask-quY8HRFv9tVzh4PB8Gq1S"><rect x="0" y="0" fill="#fff" width="893.5201699493307" height="1553.3793223798455"></rect><rect x="522.9679558983566" y="1379.4393070908836" fill="#000" width="160" height="38" opacity="1"></rect></mask><g transform="translate(522.9679558983566 1379.439307090884) rotate(0 80.42537548887086 18.89091430122221)"><text x="80" y="0" font-family="Helvetica, Segoe UI Emoji" font-size="16px" fill="#343a40" text-anchor="middle" style="white-space: pre;" direction="ltr" dominant-baseline="text-before-edge">FIN+5097(1024)</text><text x="80" y="19" font-family="Helvetica, Segoe UI Emoji" font-size="16px" fill="#343a40" text-anchor="middle" style="white-space: pre;" direction="ltr" dominant-baseline="text-before-edge">ACK+10011  win 4096</text></g><g transform="translate(820.0211584845392 1430.6718534318522) rotate(0 82 32)"><text x="0" y="0" font-family="Helvetica, Segoe UI Emoji" font-size="16px" fill="#343a40" text-anchor="start" style="white-space: pre;" direction="ltr" dominant-baseline="text-before-edge">检测FIN标志位是否为1</text><text x="0" y="21.333333333333332" font-family="Helvetica, Segoe UI Emoji" font-size="16px" fill="#343a40" text-anchor="start" style="white-space: pre;" direction="ltr" dominant-baseline="text-before-edge">然后回一个ack+确认号</text><text x="0" y="42.666666666666664" font-family="Helvetica, Segoe UI Emoji" font-size="16px" fill="#343a40" text-anchor="start" style="white-space: pre;" direction="ltr" dominant-baseline="text-before-edge"></text></g><g mask="url(#mask-FuSUdRlnsSjtbZBh1Avc-)" stroke-linecap="round"><g transform="translate(774.190823080753 1495.2221356120551) rotate(0 -175.5342338949989 55.54442989916561)"><path d="M-1.03 0.9 C-114.48 34.69, -226.62 68.91, -350.41 110.39 M0.35 -0.07 C-134.55 43.89, -270.97 86.43, -350.66 110.7" stroke="#343a40" stroke-width="1" fill="none"></path></g><g transform="translate(774.190823080753 1495.2221356120551) rotate(0 -175.5342338949989 55.54442989916561)"><path d="M-349.25 111.08 L-339.49 102.49 L-335.11 112.74 L-349.09 110.02" stroke="none" stroke-width="0" fill="#343a40" fill-rule="evenodd"></path><path d="M-351.91 111.79 C-347.48 108.72, -342.4 103.47, -338.74 99.8 M-350.24 110.62 C-345.67 107.08, -342.55 102.81, -339.04 100.18 M-338.8 100.95 C-339.35 105.13, -336.25 108.63, -335.86 112.92 M-340.03 101.24 C-338.23 103, -337.97 105.61, -335.75 113.02 M-336.22 111.48 C-338.31 113.02, -343 113.39, -350.52 110.95 M-335.81 112.45 C-338.34 111.7, -341.7 111.59, -350.98 111.22 M-350.66 110.7 C-350.66 110.7, -350.66 110.7, -350.66 110.7 M-350.66 110.7 C-350.66 110.7, -350.66 110.7, -350.66 110.7" stroke="#343a40" stroke-width="1" fill="none"></path></g></g><mask id="mask-FuSUdRlnsSjtbZBh1Avc-"><rect x="0" y="0" fill="#fff" width="1225.2592908707509" height="1706.3109954103863"></rect><rect x="557.1565891857542" y="1531.7665655112205" fill="#000" width="83" height="38" opacity="1"></rect></mask><g transform="translate(557.1565891857541 1531.766565511221) rotate(0 41.87712419654537 18.773501007450704)"><text x="41.5" y="0" font-family="Helvetica, Segoe UI Emoji" font-size="16px" fill="#343a40" text-anchor="middle" style="white-space: pre;" direction="ltr" dominant-baseline="text-before-edge">ACK+ 6121</text><text x="41.5" y="19" font-family="Helvetica, Segoe UI Emoji" font-size="16px" fill="#343a40" text-anchor="middle" style="white-space: pre;" direction="ltr" dominant-baseline="text-before-edge">win 6144</text></g><g mask="url(#mask-8ZPvrXOpWTjfknbeKi0LT)" stroke-linecap="round"><g transform="translate(791.7798159751513 1608.0696028920536) rotate(0 -187.85792805024394 64.80318009549705)"><path d="M0.02 1.05 C-126.88 44.48, -254.18 88.19, -374.9 128.5 M0.22 0.16 C-87.02 29.84, -174.14 59.95, -375.97 129.38" stroke="#343a40" stroke-width="1" fill="none"></path></g><g transform="translate(791.7798159751513 1608.0696028920536) rotate(0 -187.85792805024394 64.80318009549705)"><path d="M-376.61 127.88 L-365.29 118.84 L-360.95 130.11 L-375.23 128.35" stroke="none" stroke-width="0" fill="#343a40" fill-rule="evenodd"></path><path d="M-375.94 130.77 C-371.86 125.81, -367.53 121.76, -364.11 117.51 M-375.69 129.6 C-373 126.81, -371.19 124.71, -365.52 118.67 M-364.6 119.8 C-365.07 122.64, -363.48 124.73, -360.06 130.82 M-365.74 118.86 C-364.71 121.6, -363.28 123.68, -360.91 131.03 M-360.25 132.12 C-366.18 129.6, -371.7 131.23, -376.65 130.77 M-360.7 130.38 C-364.99 130.61, -368.03 129.92, -376.43 129.62 M-375.97 129.38 C-375.97 129.38, -375.97 129.38, -375.97 129.38 M-375.97 129.38 C-375.97 129.38, -375.97 129.38, -375.97 129.38" stroke="#343a40" stroke-width="1" fill="none"></path></g></g><mask id="mask-8ZPvrXOpWTjfknbeKi0LT"><rect x="0" y="0" fill="#fff" width="1267.4956720756393" height="1837.6759630830477"></rect><rect x="559.9218879249074" y="1644.3727829875506" fill="#000" width="88" height="57" opacity="1"></rect></mask><g transform="translate(559.9218879249074 1644.3727829875506) rotate(0 43.97976423156186 28.470672322425344)"><text x="44" y="0" font-family="Helvetica, Segoe UI Emoji" font-size="16px" fill="#343a40" text-anchor="middle" style="white-space: pre;" direction="ltr" dominant-baseline="text-before-edge">FIN+10011  </text><text x="44" y="19" font-family="Helvetica, Segoe UI Emoji" font-size="16px" fill="#343a40" text-anchor="middle" style="white-space: pre;" direction="ltr" dominant-baseline="text-before-edge">ACK+6121</text><text x="44" y="38" font-family="Helvetica, Segoe UI Emoji" font-size="16px" fill="#343a40" text-anchor="middle" style="white-space: pre;" direction="ltr" dominant-baseline="text-before-edge">win 6144</text></g><g stroke-linecap="round"><g transform="translate(796.61376694806 38.355811651693216) rotate(0 0.4914787934642959 258.9111649878675)"><path d="M0.12 0.79 C0.54 144.83, 2.04 289.04, 1.39 518.36 M-0.19 0.22 C0.82 200.29, 1.29 399.99, 0.99 518.19" stroke="#343a40" stroke-width="1" fill="none"></path></g></g><mask></mask><g mask="url(#mask-Q0ItzufnuyVCL8pBvnfEc)" stroke-linecap="round"><g transform="translate(420.2233381983811 848.5705233355461) rotate(0 184.674274205895 54.854118256273864)"><path d="M1.14 -0.63 C126.28 37.7, 255.82 76.4, 368.99 108.84 M0.03 -0.51 C129.04 39.6, 259.05 78.44, 368.93 110.09" stroke="#343a40" stroke-width="1" fill="none"></path></g><g transform="translate(420.2233381983811 848.5705233355461) rotate(0 184.674274205895 54.854118256273864)"><path d="M367.57 110.55 L353.41 111.21 L355.79 98.7 L367.92 110.38" stroke="none" stroke-width="0" fill="#343a40" fill-rule="evenodd"></path><path d="M370.38 109.29 C362.33 109.96, 359.76 111.78, 353.65 111.26 M368.97 109.45 C363.66 111.06, 359.09 112.33, 353.57 112.85 M353.16 113.58 C356.04 109.12, 355.71 106.75, 357.92 101.22 M353.89 111.87 C354.78 108.72, 356.81 104.04, 358.24 100.71 M359.02 100.4 C360.32 105.02, 364.72 108.23, 370.42 110.11 M357.42 100.24 C361.36 104.39, 365.73 107.79, 369.62 109.9 M368.93 110.09 C368.93 110.09, 368.93 110.09, 368.93 110.09 M368.93 110.09 C368.93 110.09, 368.93 110.09, 368.93 110.09" stroke="#343a40" stroke-width="1" fill="none"></path></g></g><mask id="mask-Q0ItzufnuyVCL8pBvnfEc"><rect x="0" y="0" fill="#fff" width="889.5718866101711" height="1058.2787598480938"></rect><rect x="516.8976124042761" y="875.4246415918199" fill="#000" width="176" height="56" opacity="1"></rect></mask><g transform="translate(516.8976124042761 875.4246415918196) rotate(0 87.8372505044583 27.87642467525086)"><text x="88" y="0" font-family="Helvetica, Segoe UI Emoji" font-size="16px" fill="#343a40" text-anchor="middle" style="white-space: pre;" direction="ltr" dominant-baseline="text-before-edge">2025(1024), ACK+10011</text><text x="88" y="18.666666666666668" font-family="Helvetica, Segoe UI Emoji" font-size="16px" fill="#343a40" text-anchor="middle" style="white-space: pre;" direction="ltr" dominant-baseline="text-before-edge">win 4096</text><text x="88" y="37.333333333333336" font-family="Helvetica, Segoe UI Emoji" font-size="16px" fill="#343a40" text-anchor="middle" style="white-space: pre;" direction="ltr" dominant-baseline="text-before-edge"></text></g><g mask="url(#mask-NlCWy7ZcdFSepRxOALzew)" stroke-linecap="round"><g transform="translate(415.5097678564057 919.6757144710666) rotate(0 187.24547320459857 48.142539482462325)"><path d="M-0.87 0.43 C79.13 20.92, 159.41 39.44, 375.63 95.67 M-0.19 -0.07 C138.13 33.45, 275.32 69.3, 374.54 96.39" stroke="#343a40" stroke-width="1" fill="none"></path></g><g transform="translate(415.5097678564057 919.6757144710666) rotate(0 187.24547320459857 48.142539482462325)"><path d="M375.97 94.96 L359.95 98.64 L362.12 85.55 L373.86 96.83" stroke="none" stroke-width="0" fill="#343a40" fill-rule="evenodd"></path><path d="M373.44 96.94 C371.21 98.14, 369.74 96.41, 361.22 98.21 M374.3 96.31 C369.75 96.93, 364.38 98.62, 359.84 99.13 M359.95 98.99 C361.26 97.04, 362.36 92.99, 363.15 85.54 M359.9 99.48 C360.21 95.51, 361.4 92.39, 363.11 86.62 M362.28 87.68 C366.99 88.89, 369.32 92.27, 373.98 95.13 M363.78 87.29 C366.01 88.44, 368.45 90.45, 374.73 95.9 M374.54 96.39 C374.54 96.39, 374.54 96.39, 374.54 96.39 M374.54 96.39 C374.54 96.39, 374.54 96.39, 374.54 96.39" stroke="#343a40" stroke-width="1" fill="none"></path></g></g><mask id="mask-NlCWy7ZcdFSepRxOALzew"><rect x="0" y="0" fill="#fff" width="890.0007142656028" height="1115.9607934359913"></rect><rect x="514.7552410610042" y="939.8182539535287" fill="#000" width="176" height="56" opacity="1"></rect></mask><g transform="translate(514.7552410610042 939.8182539535292) rotate(0 88.13240005303888 28.0211169600708)"><text x="88" y="0" font-family="Helvetica, Segoe UI Emoji" font-size="16px" fill="#343a40" text-anchor="middle" style="white-space: pre;" direction="ltr" dominant-baseline="text-before-edge">3049(1024), ACK+10011</text><text x="88" y="18.666666666666668" font-family="Helvetica, Segoe UI Emoji" font-size="16px" fill="#343a40" text-anchor="middle" style="white-space: pre;" direction="ltr" dominant-baseline="text-before-edge">win 4096</text><text x="88" y="37.333333333333336" font-family="Helvetica, Segoe UI Emoji" font-size="16px" fill="#343a40" text-anchor="middle" style="white-space: pre;" direction="ltr" dominant-baseline="text-before-edge"></text></g><g mask="url(#mask-7Olg4SQ_ojCtgiQ-5MSvJ)" stroke-linecap="round"><g transform="translate(419.37330276793887 990.584568647927) rotate(0 184.71165043551423 43.697593105366195)"><path d="M0.92 0.93 C118.26 28.79, 238.38 55.96, 368.72 87.1 M-0.27 0.2 C139.29 32.23, 279.07 65.32, 369.62 86.96" stroke="#343a40" stroke-width="1" fill="none"></path></g><g transform="translate(419.37330276793887 990.584568647927) rotate(0 184.71165043551423 43.697593105366195)"><path d="M367.67 85.67 L354.86 88.16 L358.8 77.65 L367.74 86.99" stroke="none" stroke-width="0" fill="#343a40" fill-rule="evenodd"></path><path d="M370.77 88.12 C363.73 87.73, 360.49 87.51, 354.05 89.61 M369.28 87.21 C363.79 88.74, 357.97 89.85, 355.18 89.44 M355.22 89.88 C354.74 86.44, 355.43 83.36, 358.1 77.59 M354.58 90.06 C355.91 86.43, 356.54 82.83, 358.38 78.06 M357.03 78.47 C361.89 81.17, 364.08 83.05, 368.89 85.62 M357.45 77.85 C361.4 80.26, 364.84 84.1, 370.35 87.01 M369.62 86.96 C369.62 86.96, 369.62 86.96, 369.62 86.96 M369.62 86.96 C369.62 86.96, 369.62 86.96, 369.62 86.96" stroke="#343a40" stroke-width="1" fill="none"></path></g></g><mask id="mask-7Olg4SQ_ojCtgiQ-5MSvJ"><rect x="0" y="0" fill="#fff" width="888.7966036389673" height="1177.9797548586594"></rect><rect x="516.0849532034531" y="1006.2821617532934" fill="#000" width="176" height="56" opacity="1"></rect></mask><g transform="translate(516.0849532034531 1006.2821617532929) rotate(0 87.9629704695008 27.952230966233515)"><text x="88" y="0" font-family="Helvetica, Segoe UI Emoji" font-size="16px" fill="#343a40" text-anchor="middle" style="white-space: pre;" direction="ltr" dominant-baseline="text-before-edge">4073(1024), ACK+10011</text><text x="88" y="18.666666666666668" font-family="Helvetica, Segoe UI Emoji" font-size="16px" fill="#343a40" text-anchor="middle" style="white-space: pre;" direction="ltr" dominant-baseline="text-before-edge">win 4096</text><text x="88" y="37.333333333333336" font-family="Helvetica, Segoe UI Emoji" font-size="16px" fill="#343a40" text-anchor="middle" style="white-space: pre;" direction="ltr" dominant-baseline="text-before-edge"></text></g><g stroke-linecap="round"><g transform="translate(799.4747869432115 567.4915289778883) rotate(0 -0.4741565873783884 356.0081059503967)"><path d="M-0.05 0.29 C-0.74 226.1, -1.69 451.93, -0.81 712.19 M0.12 -0.23 C-0.14 210.99, -0.23 421.57, -1.08 712.15" stroke="#343a40" stroke-width="1" fill="none"></path></g></g><mask></mask><g stroke-linecap="round"><g transform="translate(401.6367973284156 43.128420905555686) rotate(0 -1.7763568394002505e-14 263.75073481257084)"><path d="M0.27 0 C-0.15 126.59, -0.02 254.89, -0.1 527.71 M-0.01 -0.1 C-0.38 156.7, 0.15 313.91, -0.2 527.18" stroke="#343a40" stroke-width="1" fill="none"></path></g></g><mask></mask><g stroke-linecap="round"><g transform="translate(401.39773346618273 576.2231625804211) rotate(0 -1.5568565545116435 355.1151276006368)"><path d="M0.48 -0.46 C-0.35 204.68, -1.79 409.71, -3.51 711.01 M-0.25 -0.01 C-0.71 214.58, -1.87 430.08, -2.74 710.41" stroke="#343a40" stroke-width="1" fill="none"></path></g></g><mask></mask><g transform="translate(812.337425220067 1075.9501075436167) rotate(0 276.5 34)"><text x="0" y="0" font-family="Helvetica, Segoe UI Emoji" font-size="16px" fill="#343a40" text-anchor="start" style="white-space: pre;" direction="ltr" dominant-baseline="text-before-edge">客户端发来好几次</text><text x="0" y="22.666666666666668" font-family="Helvetica, Segoe UI Emoji" font-size="16px" fill="#343a40" text-anchor="start" style="white-space: pre;" direction="ltr" dominant-baseline="text-before-edge">服务端返回 win 4096 表示 现在我这边缓冲区还有4k, 你不是发来3k的数据了吗</text><text x="0" y="45.333333333333336" font-family="Helvetica, Segoe UI Emoji" font-size="16px" fill="#343a40" text-anchor="start" style="white-space: pre;" direction="ltr" dominant-baseline="text-before-edge">总共6k缓冲, 按理说应该剩余3k才对, 这是因为这边已经处理了1k ,所以空余4k</text></g><g mask="url(#mask-KBs84TDPeSmh4miCrdsn5)" stroke-linecap="round"><g transform="translate(788.6394055592564 1103.9322503315523) rotate(0 -191.82899723038247 20.04064383640457)"><path d="M0.53 0.54 C-148.53 18.52, -295.03 31.83, -383.75 39.15 M-0.12 -0.27 C-124.76 15.3, -248.49 28.09, -383.09 39.81" stroke="#343a40" stroke-width="1" fill="none"></path></g><g transform="translate(788.6394055592564 1103.9322503315523) rotate(0 -191.82899723038247 20.04064383640457)"><path d="M-384.55 39.87 L-368.75 32.93 L-369.42 45.67 L-383.25 39.97" stroke="none" stroke-width="0" fill="#343a40" fill-rule="evenodd"></path><path d="M-382.41 40.49 C-379.07 37.98, -372.63 32.38, -370.24 31.06 M-383.24 39.46 C-378.99 37.9, -373.9 35.17, -369.4 31.9 M-370.42 32.32 C-370.28 36.62, -370.57 41.02, -368.44 45.66 M-369.56 32.87 C-370.18 35.97, -369.46 40.61, -368.58 44.4 M-370.06 44.72 C-373.65 44.21, -377.37 41.54, -382.48 38.94 M-368.3 44.45 C-372.89 44.19, -376.22 42.05, -383 40.24 M-383.09 39.81 C-383.09 39.81, -383.09 39.81, -383.09 39.81 M-383.09 39.81 C-383.09 39.81, -383.09 39.81, -383.09 39.81" stroke="#343a40" stroke-width="1" fill="none"></path></g></g><mask id="mask-KBs84TDPeSmh4miCrdsn5"><rect x="0" y="0" fill="#fff" width="1272.2974000200213" height="1244.0135380043614"></rect><rect x="552.810408328874" y="1105.4728941679568" fill="#000" width="88" height="37" opacity="1"></rect></mask><g transform="translate(552.8104083288738 1105.4728941679568) rotate(0 44.219775763332194 18.22749819999899)"><text x="44" y="0" font-family="Helvetica, Segoe UI Emoji" font-size="16px" fill="#343a40" text-anchor="middle" style="white-space: pre;" direction="ltr" dominant-baseline="text-before-edge">ACK + 5097</text><text x="44" y="18.5" font-family="Helvetica, Segoe UI Emoji" font-size="16px" fill="#343a40" text-anchor="middle" style="white-space: pre;" direction="ltr" dominant-baseline="text-before-edge">win 4096</text></g><g mask="url(#mask-ChuX_lT_UyT25_HQPUz-R)" stroke-linecap="round"><g transform="translate(787.7133618556699 1199.5140755737295) rotate(0 -191.82899723038247 20.04064383640457)"><path d="M0.29 -0.63 C-100.68 11.86, -201.83 22.13, -383.22 40.12 M0.37 0.06 C-128.98 11.36, -258.66 25.01, -383.55 39.74" stroke="#343a40" stroke-width="1" fill="none"></path></g><g transform="translate(787.7133618556699 1199.5140755737295) rotate(0 -191.82899723038247 20.04064383640457)"><path d="M-385.34 37.74 L-370.18 30.98 L-367.77 46.27 L-384.42 38.64" stroke="none" stroke-width="0" fill="#343a40" fill-rule="evenodd"></path><path d="M-383.18 38.94 C-380.41 39.11, -378.08 36.79, -370.2 31.95 M-383.08 39.82 C-378.89 36.5, -375.24 34.06, -370.62 31.47 M-370.43 31.03 C-370.46 36.61, -368.77 40.34, -369.81 44.07 M-370.3 31.69 C-370.23 36.72, -370.4 40.08, -369.93 44.77 M-368.29 45.28 C-375.12 41.95, -379.42 39.92, -383.46 38.67 M-368.6 44.68 C-373.94 43.58, -379.78 41.38, -383.37 39.67 M-383.55 39.74 C-383.55 39.74, -383.55 39.74, -383.55 39.74 M-383.55 39.74 C-383.55 39.74, -383.55 39.74, -383.55 39.74" stroke="#343a40" stroke-width="1" fill="none"></path></g></g><mask id="mask-ChuX_lT_UyT25_HQPUz-R"><rect x="0" y="0" fill="#fff" width="1271.3713563164347" height="1339.5953632465387"></rect><rect x="551.8843646252874" y="1200.554719410134" fill="#000" width="88" height="38" opacity="1"></rect></mask><g transform="translate(551.8843646252874 1200.554719410134) rotate(0 44.23959024619239 18.703366824913246)"><text x="44" y="0" font-family="Helvetica, Segoe UI Emoji" font-size="16px" fill="#343a40" text-anchor="middle" style="white-space: pre;" direction="ltr" dominant-baseline="text-before-edge">ACK + 5097</text><text x="44" y="19" font-family="Helvetica, Segoe UI Emoji" font-size="16px" fill="#343a40" text-anchor="middle" style="white-space: pre;" direction="ltr" dominant-baseline="text-before-edge">win 5120</text></g><g transform="translate(815.8519083659539 1197.5611520642512) rotate(0 267 11.5)"><text x="0" y="0" font-family="Helvetica, Segoe UI Emoji" font-size="16px" fill="#343a40" text-anchor="start" style="white-space: pre;" direction="ltr" dominant-baseline="text-before-edge">再返回信息一次给客户端, 说明这次这边又处理了1k数据, 现在缓冲区还有5k</text></g><g stroke-linecap="round"><g transform="translate(268.7956548460767 572.3099582607551) rotate(0 345.3059472320649 -2.800764794412771)"><path d="M0 0 C179.38 -1.45, 358.76 -2.91, 690.61 -5.6" stroke="#343a40" stroke-width="1.5" fill="none" stroke-dasharray="8 9"></path></g></g><mask></mask><g stroke-linecap="round"><g transform="translate(397.62469041018295 1295.1706803122167) rotate(0 -1.4210854715202004e-14 268.39407943177366)"><path d="M0 0 C0 115.41, 0 230.82, 0 536.79 M0 0 C0 177.17, 0 354.33, 0 536.79" stroke="#343a40" stroke-width="1" fill="none"></path></g></g><mask></mask><g stroke-linecap="round"><g transform="translate(799.1602554162166 1291.5820946051042) rotate(0 0.5250677307134879 276.8420696704932)"><path d="M0 0 C0.23 123.54, 0.47 247.07, 1.05 553.68 M0 0 C0.23 118.75, 0.45 237.5, 1.05 553.68" stroke="#343a40" stroke-width="1" fill="none"></path></g></g><mask></mask><g stroke-linecap="round"><g transform="translate(333.77193282891295 1292.0064265674503) rotate(0 292.31142057286627 0)"><path d="M0 0 C120.23 0, 240.47 0, 584.62 0" stroke="#343a40" stroke-width="1.5" fill="none" stroke-dasharray="8 9"></path></g></g><mask></mask><g transform="translate(211.61759811345524 1358.6628033237246) rotate(0 91 22.5)"><text x="0" y="0" font-family="Helvetica, Segoe UI Emoji" font-size="16px" fill="#343a40" text-anchor="start" style="white-space: pre;" direction="ltr" dominant-baseline="text-before-edge">5097(1024)  请求断开时 </text><text x="0" y="22.5" font-family="Helvetica, Segoe UI Emoji" font-size="16px" fill="#343a40" text-anchor="start" style="white-space: pre;" direction="ltr" dominant-baseline="text-before-edge">也发送了1024个字节数据</text></g><g mask="url(#mask-WVbptoQK6QjZ07T03In8N)" stroke-linecap="round"><g transform="translate(417.2482027380446 1778.744243982191) rotate(0 187.6931808321467 32.01376510037926)"><path d="M0 0 C81.98 13.98, 163.96 27.97, 375.39 64.03 M0 0 C147.54 25.16, 295.08 50.33, 375.39 64.03" stroke="#343a40" stroke-width="1" fill="none"></path></g><g transform="translate(417.2482027380446 1778.744243982191) rotate(0 187.6931808321467 32.01376510037926)"><path d="M375.39 64.03 L360.92 67.99 L363.05 55.49 L375.39 64.03" stroke="none" stroke-width="0" fill="#343a40" fill-rule="evenodd"></path><path d="M375.39 64.03 C372.23 64.89, 369.07 65.76, 360.92 67.99 M375.39 64.03 C369.7 65.59, 364.01 67.14, 360.92 67.99 M360.92 67.99 C361.71 63.35, 362.5 58.71, 363.05 55.49 M360.92 67.99 C361.43 65.03, 361.93 62.06, 363.05 55.49 M363.05 55.49 C366.89 58.15, 370.72 60.8, 375.39 64.03 M363.05 55.49 C366.57 57.93, 370.09 60.36, 375.39 64.03 M375.39 64.03 C375.39 64.03, 375.39 64.03, 375.39 64.03 M375.39 64.03 C375.39 64.03, 375.39 64.03, 375.39 64.03" stroke="#343a40" stroke-width="1" fill="none"></path></g></g><mask id="mask-WVbptoQK6QjZ07T03In8N"><rect x="0" y="0" fill="#fff" width="892.634564402338" height="1942.7717741829495"></rect><rect x="555.9413835701913" y="1801.25800908257" fill="#000" width="98" height="19" opacity="1"></rect></mask><g transform="translate(555.9413835701912 1801.2580090825704) rotate(0 49.00000000000003 9.5)"><text x="49" y="0" font-family="Helvetica, Segoe UI Emoji" font-size="16px" fill="#343a40" text-anchor="middle" style="white-space: pre;" direction="ltr" dominant-baseline="text-before-edge">ACK + 10012</text></g><g stroke-linecap="round"><g transform="translate(335.1804330700105 44.70207192869111) rotate(0 289.3580775653486 0)"><path d="M0 0 C195.94 0, 391.88 0, 578.72 0" stroke="#343a40" stroke-width="1.5" fill="none" stroke-dasharray="8 9"></path></g></g><mask></mask><g transform="translate(568.026272318745 48.58723157390534) rotate(0 33 11.5)"><text x="0" y="0" font-family="Helvetica, Segoe UI Emoji" font-size="16px" fill="#2b8a3e" text-anchor="start" style="white-space: pre;" direction="ltr" dominant-baseline="text-before-edge">三次握手</text></g><g transform="translate(547.3033260315094 568.9133343268049) rotate(0 33 11.5)"><text x="0" y="0" font-family="Helvetica, Segoe UI Emoji" font-size="16px" fill="#2b8a3e" text-anchor="start" style="white-space: pre;" direction="ltr" dominant-baseline="text-before-edge">数据传输</text></g><g stroke-linecap="round" transform="translate(558.0891000940932 44.42060160148435) rotate(0 42.31277896327113 17.394071510860954)"><path d="M0 0 C29.7 0, 59.41 0, 84.63 0 M84.63 0 C84.63 10.94, 84.63 21.87, 84.63 34.79 M84.63 34.79 C65.76 34.79, 46.9 34.79, 0 34.79 M0 34.79 C0 24.88, 0 14.97, 0 0" stroke="#2b8a3e" stroke-width="1.5" fill="none" stroke-dasharray="8 9"></path></g><g stroke-linecap="round" transform="translate(537.9168012827593 569.0016031586156) rotate(0 43.618805006717096 13.902250032434267)"><path d="M0 0 C34.49 0, 68.98 0, 87.24 0 M87.24 0 C87.24 10.35, 87.24 20.7, 87.24 27.8 M87.24 27.8 C55.35 27.8, 23.45 27.8, 0 27.8 M0 27.8 C0 17.9, 0 8, 0 0" stroke="#2b8a3e" stroke-width="1.5" fill="none" stroke-dasharray="8 9"></path></g><g transform="translate(559.5100797739842 1299.2840999182088) rotate(0 29.5 11.5)"><text x="0" y="0" font-family="Helvetica, Segoe UI Emoji" font-size="16px" fill="#2b8a3e" text-anchor="start" style="white-space: pre;" direction="ltr" dominant-baseline="text-before-edge">4次挥手</text></g><g stroke-linecap="round" transform="translate(541.2334139240011 1291.2379166501316) rotate(0 46.977574558110746 17.40088553278906)"><path d="M0 0 C25.09 0, 50.18 0, 93.96 0 M93.96 0 C93.96 12.48, 93.96 24.97, 93.96 34.8 M93.96 34.8 C73.77 34.8, 53.59 34.8, 0 34.8 M0 34.8 C0 21.78, 0 8.75, 0 0" stroke="#2b8a3e" stroke-width="1.5" fill="none" stroke-dasharray="8 9"></path></g></svg>