<svg version="1.1" xmlns="http://www.w3.org/2000/svg" viewBox="0 0 704.0506836140873 731.4579467773438" width="704.0506836140873" height="731.4579467773438">
  <!-- svg-source:excalidraw -->
  
  <defs>
    <style class="style-fonts">
      @font-face {
        font-family: "Virgil";
        src: url("https://unpkg.com/@excalidraw/excalidraw@0.15.2/dist/excalidraw-assets/Virgil.woff2");
      }
      @font-face {
        font-family: "Cascadia";
        src: url("https://unpkg.com/@excalidraw/excalidraw@0.15.2/dist/excalidraw-assets/Cascadia.woff2");
      }
    </style>
  </defs>
  <rect x="0" y="0" width="704.0506836140873" height="731.4579467773438" fill="#ffffff"></rect><g transform="translate(17.85341987723325 320.7785716993571) rotate(0 68.5 32.5)"><text x="0" y="0" font-family="Helvetica, Segoe UI Emoji" font-size="56.353054656356946px" fill="#000000" text-anchor="start" style="white-space: pre;" direction="ltr" dominant-baseline="text-before-edge">User </text></g><g stroke-linecap="round"><g transform="translate(10 293.57997834765206) rotate(0 69.41205896540615 -61.809445105475945)" fill-rule="evenodd"><path d="M25.77 -96.85 C25.77 -96.85, 25.77 -96.85, 25.77 -96.85 M25.77 -96.85 C25.77 -96.85, 25.77 -96.85, 25.77 -96.85 M14.09 -71.23 C22.61 -81.02, 31.13 -90.82, 54.77 -118.02 M14.09 -71.23 C28.87 -88.23, 43.65 -105.22, 54.77 -118.02 M13.57 -58.43 C31.73 -79.32, 49.89 -100.21, 68.68 -121.83 M13.57 -58.43 C31.72 -79.32, 49.88 -100.2, 68.68 -121.83 M5.83 -37.33 C30.97 -66.26, 56.12 -95.18, 78 -120.35 M5.83 -37.33 C33.09 -68.69, 60.35 -100.05, 78 -120.35 M3.99 -23.03 C26.11 -48.47, 48.23 -73.92, 85.34 -116.61 M3.99 -23.03 C27.66 -50.26, 51.33 -77.49, 85.34 -116.61 M2.16 -8.72 C31.96 -43.01, 61.77 -77.3, 94.01 -114.38 M2.16 -8.72 C25.46 -35.53, 48.75 -62.33, 94.01 -114.38 M2.95 2.56 C30.69 -29.35, 58.43 -61.26, 100.7 -109.89 M2.95 2.56 C38.88 -38.78, 74.82 -80.12, 100.7 -109.89 M13.58 2.53 C42.9 -31.2, 72.21 -64.92, 106.74 -104.64 M13.58 2.53 C38.51 -26.15, 63.43 -54.82, 106.74 -104.64 M24.21 2.49 C51.13 -28.48, 78.05 -59.44, 112.78 -99.39 M24.21 2.49 C45.18 -21.63, 66.14 -45.75, 112.78 -99.39 M34.18 3.21 C58.72 -25.01, 83.25 -53.23, 117.5 -92.63 M34.18 3.21 C52.72 -18.12, 71.26 -39.44, 117.5 -92.63 M44.81 3.18 C61.95 -16.54, 79.1 -36.26, 122.88 -86.63 M44.81 3.18 C72.3 -28.45, 99.79 -60.07, 122.88 -86.63 M55.44 3.14 C79.59 -24.63, 103.73 -52.41, 126.95 -79.12 M55.44 3.14 C80.34 -25.49, 105.23 -54.13, 126.95 -79.12 M66.07 3.11 C89.62 -23.98, 113.17 -51.07, 130.37 -70.85 M66.07 3.11 C81.77 -14.95, 97.47 -33.01, 130.37 -70.85 M75.39 4.59 C93.88 -16.69, 112.37 -37.96, 133.78 -62.58 M75.39 4.59 C87.1 -8.89, 98.81 -22.36, 133.78 -62.58 M86.02 4.55 C97.84 -9.05, 109.66 -22.65, 137.85 -55.07 M86.02 4.55 C97.42 -8.56, 108.81 -21.67, 137.85 -55.07 M96.65 4.52 C105.67 -5.86, 114.7 -16.24, 141.26 -46.8 M96.65 4.52 C112.83 -14.09, 129 -32.7, 141.26 -46.8 M107.94 3.73 C120.12 -10.28, 132.3 -24.3, 144.02 -37.78 M107.94 3.73 C117.42 -7.18, 126.9 -18.08, 144.02 -37.78 M117.91 4.45 C129.36 -8.73, 140.81 -21.9, 149.4 -31.78 M117.91 4.45 C128.73 -7.99, 139.54 -20.44, 149.4 -31.78 M0 0 C0 0, 0 0, 0 0 M0 0 C0 0, 0 0, 0 0 M12.04 -0.13 C9.2 -2.6, 6.37 -5.06, 1.47 -9.32 M12.04 -0.13 C9.09 -2.7, 6.14 -5.26, 1.47 -9.32 M24.84 0.39 C18.69 -4.95, 12.54 -10.3, 2.2 -19.29 M24.84 0.39 C18.8 -4.86, 12.76 -10.11, 2.2 -19.29 M36.88 0.26 C24.17 -10.79, 11.45 -21.84, 3.67 -28.61 M36.88 0.26 C29.18 -6.44, 21.48 -13.13, 3.67 -28.61 M49.67 0.78 C35.94 -11.16, 22.21 -23.09, 4.39 -38.58 M49.67 0.78 C37.1 -10.15, 24.52 -21.09, 4.39 -38.58 M61.71 0.65 C46.57 -12.52, 31.42 -25.69, 5.87 -47.9 M61.71 0.65 C45.48 -13.47, 29.24 -27.58, 5.87 -47.9 M72.25 -0.8 C46.78 -22.93, 21.32 -45.06, 8.09 -56.56 M72.25 -0.8 C55.85 -15.05, 39.45 -29.31, 8.09 -56.56 M84.29 -0.93 C62.57 -19.81, 40.86 -38.68, 11.08 -64.57 M84.29 -0.93 C64.42 -18.2, 44.56 -35.47, 11.08 -64.57 M94.82 -2.38 C76.12 -18.63, 57.43 -34.88, 12.55 -73.89 M94.82 -2.38 C72.88 -21.45, 50.94 -40.52, 12.55 -73.89 M106.1 -3.17 C77.08 -28.4, 48.06 -53.62, 15.54 -81.89 M106.1 -3.17 C86.56 -20.15, 67.02 -37.14, 15.54 -81.89 M115.88 -5.27 C85.7 -31.5, 55.52 -57.73, 20.79 -87.93 M115.88 -5.27 C91.74 -26.25, 67.6 -47.23, 20.79 -87.93 M128.68 -4.74 C107.73 -22.95, 86.79 -41.16, 25.28 -94.62 M128.68 -4.74 C98.41 -31.05, 68.15 -57.36, 25.28 -94.62 M136.19 -8.81 C100.13 -40.16, 64.08 -71.5, 29.77 -101.32 M136.19 -8.81 C100.38 -39.95, 64.56 -71.08, 29.77 -101.32 M142.95 -13.54 C110.44 -41.8, 77.93 -70.06, 35.02 -107.36 M142.95 -13.54 C110.85 -41.44, 78.76 -69.34, 35.02 -107.36 M147.44 -20.23 C124.92 -39.81, 102.4 -59.39, 41.03 -112.74 M147.44 -20.23 C114.37 -48.98, 81.29 -77.73, 41.03 -112.74 M148.92 -29.55 C111.18 -62.35, 73.45 -95.15, 47.78 -117.46 M148.92 -29.55 C113.36 -60.46, 77.81 -91.36, 47.78 -117.46 M148.13 -40.84 C129.17 -57.32, 110.21 -73.8, 55.3 -121.53 M148.13 -40.84 C115.71 -69.02, 83.29 -97.19, 55.3 -121.53 M145.07 -54.09 C122.58 -73.64, 100.09 -93.19, 62.81 -125.6 M145.07 -54.09 C128.32 -68.65, 111.57 -83.22, 62.81 -125.6 M123.91 -83.09 C111.57 -93.81, 99.24 -104.53, 71.08 -129.02 M123.91 -83.09 C108.01 -96.91, 92.11 -110.73, 71.08 -129.02" stroke="#ced4da" stroke-width="1" fill="none"></path><path d="M0 0 C2.59 -13.65, 4.44 -61.31, 15.55 -81.92 C26.65 -102.52, 49.61 -122.13, 66.64 -123.62 C83.66 -125.11, 105.69 -110.04, 117.72 -90.85 C129.75 -71.67, 158.44 -23.65, 138.82 -8.51 C119.2 6.64, 23.14 -1.42, 0 0 M0 0 C2.59 -13.65, 4.44 -61.31, 15.55 -81.92 C26.65 -102.52, 49.61 -122.13, 66.64 -123.62 C83.66 -125.11, 105.69 -110.04, 117.72 -90.85 C129.75 -71.67, 158.44 -23.65, 138.82 -8.51 C119.2 6.64, 23.14 -1.42, 0 0" stroke="#000000" stroke-width="2" fill="none"></path></g></g><mask></mask><g stroke-linecap="round" transform="translate(45.090683196105346 105.66776529934805) rotate(0 35.53897419028799 31.096602416502094)"><path d="M6.93 12.65 C6.93 12.65, 6.93 12.65, 6.93 12.65 M6.93 12.65 C6.93 12.65, 6.93 12.65, 6.93 12.65 M1.16 31.48 C8.2 23.39, 15.24 15.29, 26.09 2.81 M1.16 31.48 C6.38 25.48, 11.6 19.47, 26.09 2.81 M2.61 42.02 C15.24 27.48, 27.87 12.95, 37.38 2.02 M2.61 42.02 C14.06 28.83, 25.52 15.65, 37.38 2.02 M6.68 49.53 C20.08 34.11, 33.48 18.7, 47.35 2.74 M6.68 49.53 C20.85 33.23, 35.02 16.92, 47.35 2.74 M12.71 54.78 C28.57 36.53, 44.43 18.29, 54.7 6.48 M12.71 54.78 C24.13 41.64, 35.55 28.51, 54.7 6.48 M19.41 59.27 C31.81 45, 44.22 30.72, 62.05 10.21 M19.41 59.27 C33.25 43.35, 47.08 27.43, 62.05 10.21 M26.76 63.01 C37.24 50.95, 47.73 38.89, 68.09 15.46 M26.76 63.01 C38.49 49.52, 50.22 36.02, 68.09 15.46 M36.73 63.73 C49.51 49.03, 62.3 34.32, 71.5 23.73 M36.73 63.73 C47.67 51.14, 58.62 38.55, 71.5 23.73 M48.67 62.19 C54.64 55.32, 60.61 48.45, 70.98 36.53 M48.67 62.19 C55.45 54.39, 62.23 46.59, 70.98 36.53 M10.65 53.29 C10.65 53.29, 10.65 53.29, 10.65 53.29 M10.65 53.29 C10.65 53.29, 10.65 53.29, 10.65 53.29 M30.99 60.38 C24.44 54.68, 17.89 48.99, 1.56 34.79 M30.99 60.38 C24.53 54.76, 18.07 49.14, 1.56 34.79 M43.03 60.24 C28.68 47.77, 14.33 35.29, 2.28 24.82 M43.03 60.24 C29.27 48.28, 15.51 36.32, 2.28 24.82 M52.81 58.14 C35.99 43.52, 19.18 28.91, 4.51 16.15 M52.81 58.14 C35.12 42.76, 17.43 27.38, 4.51 16.15 M58.81 52.76 C46.83 42.35, 34.85 31.93, 9.76 10.12 M58.81 52.76 C43.28 39.26, 27.74 25.75, 9.76 10.12 M65.57 48.04 C55.58 39.35, 45.59 30.67, 15.76 4.74 M65.57 48.04 C54.21 38.16, 42.85 28.28, 15.76 4.74 M70.06 41.34 C59.61 32.25, 49.16 23.17, 22.52 0.01 M70.06 41.34 C60.45 32.98, 50.83 24.62, 22.52 0.01 M73.05 33.34 C58.27 20.49, 43.49 7.65, 32.29 -2.09 M73.05 33.34 C59.29 21.38, 45.53 9.42, 32.29 -2.09 M69.99 20.08 C64.05 14.91, 58.1 9.74, 47.35 0.4 M69.99 20.08 C61.76 12.92, 53.53 5.77, 47.35 0.4" stroke="#ced4da" stroke-width="1" fill="none"></path><path d="M71.08 31.1 C71.08 32.72, 70.93 34.36, 70.64 35.96 C70.35 37.56, 69.91 39.16, 69.34 40.71 C68.77 42.25, 68.05 43.77, 67.2 45.21 C66.36 46.66, 65.38 48.06, 64.29 49.37 C63.2 50.69, 61.98 51.94, 60.67 53.09 C59.36 54.23, 57.93 55.3, 56.43 56.25 C54.93 57.21, 53.32 58.07, 51.67 58.8 C50.02 59.54, 48.28 60.17, 46.52 60.67 C44.76 61.17, 42.93 61.56, 41.1 61.81 C39.27 62.06, 37.39 62.19, 35.54 62.19 C33.69 62.19, 31.81 62.06, 29.98 61.81 C28.15 61.56, 26.32 61.17, 24.56 60.67 C22.79 60.17, 21.06 59.54, 19.4 58.8 C17.75 58.07, 16.15 57.21, 14.65 56.25 C13.15 55.3, 11.72 54.23, 10.41 53.09 C9.1 51.94, 7.88 50.69, 6.79 49.37 C5.7 48.06, 4.71 46.66, 3.87 45.21 C3.03 43.77, 2.31 42.25, 1.74 40.71 C1.17 39.16, 0.73 37.56, 0.44 35.96 C0.15 34.36, 0 32.72, 0 31.1 C0 29.48, 0.15 27.83, 0.44 26.23 C0.73 24.63, 1.17 23.03, 1.74 21.49 C2.31 19.95, 3.03 18.42, 3.87 16.98 C4.71 15.53, 5.7 14.13, 6.79 12.82 C7.88 11.51, 9.1 10.25, 10.41 9.11 C11.72 7.96, 13.15 6.89, 14.65 5.94 C16.15 4.99, 17.75 4.13, 19.4 3.39 C21.06 2.65, 22.79 2.02, 24.56 1.52 C26.32 1.02, 28.15 0.64, 29.98 0.38 C31.81 0.13, 33.69 0, 35.54 0 C37.39 0, 39.27 0.13, 41.1 0.38 C42.93 0.64, 44.76 1.02, 46.52 1.52 C48.28 2.02, 50.02 2.65, 51.67 3.39 C53.32 4.13, 54.93 4.99, 56.43 5.94 C57.93 6.89, 59.36 7.96, 60.67 9.11 C61.98 10.25, 63.2 11.51, 64.29 12.82 C65.38 14.13, 66.36 15.53, 67.2 16.98 C68.05 18.42, 68.77 19.95, 69.34 21.49 C69.91 23.03, 70.35 24.63, 70.64 26.23 C70.93 27.83, 71.01 30.29, 71.08 31.1 C71.15 31.91, 71.15 30.29, 71.08 31.1" stroke="#000000" stroke-width="2" fill="none"></path></g><g transform="translate(474.13845700769167 317.95742142017656) rotate(0 66 31.5)"><text x="0" y="0" font-family="Helvetica, Segoe UI Emoji" font-size="54.52669664140674px" fill="#000000" text-anchor="start" style="white-space: pre;" direction="ltr" dominant-baseline="text-before-edge">User </text></g><g stroke-linecap="round"><g transform="translate(466.5395602690003 291.64031300777384) rotate(0 67.16246892989301 -59.80624978347618)" fill-rule="evenodd"><path d="M24.88 -93.65 C24.88 -93.65, 24.88 -93.65, 24.88 -93.65 M24.88 -93.65 C24.88 -93.65, 24.88 -93.65, 24.88 -93.65 M13.86 -68.78 C27.41 -84.38, 40.97 -99.97, 53.22 -114.06 M13.86 -68.78 C28.14 -85.21, 42.43 -101.65, 53.22 -114.06 M13.33 -55.98 C29.86 -75, 46.39 -94.01, 67.13 -117.87 M13.33 -55.98 C24.93 -69.32, 36.52 -82.65, 67.13 -117.87 M6.25 -35.64 C24.49 -56.62, 42.73 -77.6, 77.76 -117.9 M6.25 -35.64 C34.36 -67.98, 62.48 -100.32, 77.76 -117.9 M4.42 -21.34 C33.61 -54.92, 62.8 -88.5, 85.11 -114.17 M4.42 -21.34 C31.24 -52.2, 58.07 -83.06, 85.11 -114.17 M2.58 -7.03 C22.93 -30.44, 43.28 -53.85, 92.46 -110.43 M2.58 -7.03 C35.43 -44.82, 68.28 -82.61, 92.46 -110.43 M4.03 3.5 C23.6 -19.01, 43.16 -41.52, 98.5 -105.18 M4.03 3.5 C26.24 -22.05, 48.46 -47.61, 98.5 -105.18 M14.66 3.47 C37.65 -22.99, 60.65 -49.44, 104.54 -99.93 M14.66 3.47 C42.62 -28.7, 70.59 -60.88, 104.54 -99.93 M25.29 3.43 C46.65 -21.14, 68.01 -45.71, 109.92 -93.93 M25.29 3.43 C51.14 -26.3, 76.98 -56.04, 109.92 -93.93 M35.26 4.15 C54.24 -17.68, 73.22 -39.52, 114.64 -87.17 M35.26 4.15 C58.11 -22.14, 80.96 -48.42, 114.64 -87.17 M45.89 4.12 C71.98 -25.89, 98.07 -55.91, 119.37 -80.41 M45.89 4.12 C60.72 -12.94, 75.55 -30.01, 119.37 -80.41 M56.52 4.08 C74.97 -17.14, 93.42 -38.37, 124.75 -74.41 M56.52 4.08 C75.62 -17.89, 94.72 -39.86, 124.75 -74.41 M69.12 1.78 C88.07 -20.02, 107.03 -41.83, 128.16 -66.14 M69.12 1.78 C90.34 -22.63, 111.57 -47.05, 128.16 -66.14 M79.75 1.75 C97.72 -18.93, 115.7 -39.61, 132.23 -58.63 M79.75 1.75 C95.4 -16.26, 111.05 -34.26, 132.23 -58.63 M90.38 1.71 C99.65 -8.95, 108.91 -19.61, 135.65 -50.36 M90.38 1.71 C103.51 -13.39, 116.63 -28.49, 135.65 -50.36 M101.67 0.93 C111.04 -9.86, 120.41 -20.64, 139.72 -42.85 M101.67 0.93 C112.33 -11.34, 122.99 -23.6, 139.72 -42.85 M111.64 1.65 C117.94 -5.61, 124.25 -12.86, 141.82 -33.07 M111.64 1.65 C120.14 -8.13, 128.63 -17.9, 141.82 -33.07 M125.55 -2.16 C130.36 -7.69, 135.17 -13.23, 143.26 -22.54 M125.55 -2.16 C132.45 -10.1, 139.36 -18.05, 143.26 -22.54 M0 0 C0 0, 0 0, 0 0 M0 0 C0 0, 0 0, 0 0 M12.04 -0.13 C8.81 -2.94, 5.58 -5.75, 1.47 -9.32 M12.04 -0.13 C8.69 -3.05, 5.33 -5.97, 1.47 -9.32 M24.84 0.39 C17.32 -6.15, 9.79 -12.69, 2.2 -19.29 M24.84 0.39 C18.42 -5.19, 12 -10.77, 2.2 -19.29 M36.88 0.26 C25.72 -9.44, 14.56 -19.14, 3.67 -28.61 M36.88 0.26 C24.24 -10.73, 11.6 -21.71, 3.67 -28.61 M49.67 0.78 C36.36 -10.8, 23.04 -22.37, 5.14 -37.93 M49.67 0.78 C38.4 -9.02, 27.13 -18.82, 5.14 -37.93 M61.71 0.65 C42.61 -15.96, 23.51 -32.56, 6.62 -47.25 M61.71 0.65 C49.45 -10.01, 37.19 -20.67, 6.62 -47.25 M70.74 -2.11 C53.06 -17.47, 35.39 -32.83, 8.09 -56.56 M70.74 -2.11 C58.06 -13.13, 45.39 -24.14, 8.09 -56.56 M82.78 -2.24 C67.09 -15.88, 51.4 -29.52, 11.83 -63.91 M82.78 -2.24 C60.51 -21.6, 38.25 -40.95, 11.83 -63.91 M93.31 -3.69 C67.21 -26.38, 41.11 -49.06, 13.31 -73.23 M93.31 -3.69 C77.15 -17.74, 60.98 -31.79, 13.31 -73.23 M108.37 -1.2 C86.17 -20.5, 63.97 -39.79, 16.29 -81.24 M108.37 -1.2 C85.25 -21.29, 62.13 -41.39, 16.29 -81.24 M118.9 -2.64 C96.83 -21.82, 74.77 -41.01, 20.79 -87.93 M118.9 -2.64 C89.48 -28.22, 60.06 -53.79, 20.79 -87.93 M126.41 -6.71 C87.3 -40.71, 48.19 -74.71, 25.28 -94.62 M126.41 -6.71 C100.35 -29.37, 74.28 -52.03, 25.28 -94.62 M135.43 -9.47 C112.52 -29.39, 89.61 -49.3, 31.28 -100.01 M135.43 -9.47 C112.52 -29.39, 89.61 -49.3, 31.28 -100.01 M139.93 -16.16 C115.46 -37.43, 90.99 -58.7, 36.53 -106.04 M139.93 -16.16 C110.6 -41.66, 81.26 -67.16, 36.53 -106.04 M141.4 -25.48 C111.57 -51.42, 81.73 -77.35, 42.54 -111.43 M141.4 -25.48 C115.39 -48.09, 89.38 -70.7, 42.54 -111.43 M140.61 -36.77 C116.16 -58.03, 91.7 -79.29, 49.29 -116.15 M140.61 -36.77 C112.72 -61.01, 84.83 -85.26, 49.29 -116.15 M138.31 -49.37 C112.89 -71.46, 87.47 -93.56, 56.05 -120.88 M138.31 -49.37 C121.33 -64.13, 104.35 -78.89, 56.05 -120.88 M125.45 -71.15 C104.51 -89.35, 83.57 -107.56, 66.58 -122.32 M125.45 -71.15 C112.14 -82.72, 98.84 -94.28, 66.58 -122.32 M115.6 -90.31 C110.08 -95.11, 104.55 -99.92, 91.45 -111.3 M115.6 -90.31 C110.68 -94.59, 105.76 -98.87, 91.45 -111.3" stroke="#ced4da" stroke-width="1" fill="none"></path><path d="M0 0 C2.51 -13.21, 4.3 -59.33, 15.04 -79.26 C25.79 -99.2, 48 -118.17, 64.48 -119.61 C80.95 -121.05, 102.27 -106.47, 113.91 -87.91 C125.55 -69.34, 153.31 -22.88, 134.32 -8.23 C115.34 6.42, 22.39 -1.37, 0 0 M0 0 C2.51 -13.21, 4.3 -59.33, 15.04 -79.26 C25.79 -99.2, 48 -118.17, 64.48 -119.61 C80.95 -121.05, 102.27 -106.47, 113.91 -87.91 C125.55 -69.34, 153.31 -22.88, 134.32 -8.23 C115.34 6.42, 22.39 -1.37, 0 0" stroke="#000000" stroke-width="2" fill="none"></path></g></g><mask></mask><g stroke-linecap="round" transform="translate(500.4929821241526 109.81818644192617) rotate(0 34.38718409210527 30.088786080592214)"><path d="M6.6 12.36 C6.6 12.36, 6.6 12.36, 6.6 12.36 M6.6 12.36 C6.6 12.36, 6.6 12.36, 6.6 12.36 M0.83 31.2 C7.6 23.41, 14.36 15.63, 25.1 3.27 M0.83 31.2 C9.19 21.58, 17.55 11.96, 25.1 3.27 M2.93 40.97 C15.31 26.73, 27.69 12.49, 37.05 1.73 M2.93 40.97 C13.41 28.92, 23.9 16.86, 37.05 1.73 M7 48.49 C15.48 38.73, 23.96 28.97, 46.36 3.2 M7 48.49 C17.04 36.94, 27.08 25.39, 46.36 3.2 M13.04 53.73 C29.29 35.04, 45.54 16.35, 54.37 6.19 M13.04 53.73 C27.99 36.53, 42.94 19.33, 54.37 6.19 M19.73 58.23 C33.47 42.42, 47.22 26.61, 61.06 10.68 M19.73 58.23 C29.09 47.46, 38.45 36.7, 61.06 10.68 M27.08 61.97 C41.23 45.69, 55.38 29.42, 65.79 17.44 M27.08 61.97 C35.1 52.74, 43.12 43.52, 65.79 17.44 M37.06 62.69 C44.62 53.99, 52.17 45.3, 69.2 25.71 M37.06 62.69 C45.28 53.23, 53.5 43.77, 69.2 25.71 M54.9 54.35 C58.78 49.89, 62.66 45.43, 67.37 40.01 M54.9 54.35 C58.05 50.73, 61.2 47.11, 67.37 40.01 M9.85 51.17 C9.85 51.17, 9.85 51.17, 9.85 51.17 M9.85 51.17 C9.85 51.17, 9.85 51.17, 9.85 51.17 M30.19 58.25 C21.93 51.08, 13.68 43.9, 1.51 33.32 M30.19 58.25 C20.01 49.4, 9.82 40.55, 1.51 33.32 M41.47 57.46 C33.55 50.58, 25.63 43.69, 2.23 23.35 M41.47 57.46 C30.86 48.24, 20.25 39.01, 2.23 23.35 M51.25 55.36 C38.36 44.16, 25.48 32.96, 5.21 15.34 M51.25 55.36 C36.47 42.51, 21.69 29.67, 5.21 15.34 M58.76 51.29 C41.13 35.96, 23.5 20.63, 9.71 8.65 M58.76 51.29 C41.96 36.69, 25.16 22.08, 9.71 8.65 M64.01 45.25 C49.61 32.73, 35.2 20.21, 15.71 3.27 M64.01 45.25 C54.12 36.66, 44.24 28.06, 15.71 3.27 M67.75 37.9 C55.28 27.06, 42.8 16.22, 24.73 0.51 M67.75 37.9 C57.16 28.69, 46.56 19.48, 24.73 0.51 M69.98 29.24 C60.25 20.79, 50.53 12.33, 35.26 -0.94 M69.98 29.24 C62.73 22.94, 55.48 16.63, 35.26 -0.94 M62.4 12.05 C60.27 10.2, 58.15 8.36, 54.85 5.49 M62.4 12.05 C60.35 10.27, 58.3 8.49, 54.85 5.49" stroke="#ced4da" stroke-width="1" fill="none"></path><path d="M68.77 30.09 C68.77 31.66, 68.63 33.25, 68.35 34.8 C68.07 36.35, 67.65 37.89, 67.09 39.39 C66.54 40.88, 65.84 42.35, 65.03 43.75 C64.21 45.15, 63.26 46.51, 62.21 47.77 C61.15 49.04, 59.97 50.26, 58.7 51.36 C57.43 52.47, 56.05 53.51, 54.6 54.43 C53.15 55.35, 51.6 56.19, 50 56.9 C48.4 57.61, 46.72 58.22, 45.01 58.7 C43.31 59.19, 41.54 59.56, 39.77 59.81 C38 60.05, 36.18 60.18, 34.39 60.18 C32.59 60.18, 30.78 60.05, 29.01 59.81 C27.24 59.56, 25.47 59.19, 23.76 58.7 C22.06 58.22, 20.37 57.61, 18.78 56.9 C17.18 56.19, 15.63 55.35, 14.17 54.43 C12.72 53.51, 11.34 52.47, 10.07 51.36 C8.8 50.26, 7.62 49.04, 6.57 47.77 C5.51 46.51, 4.56 45.15, 3.75 43.75 C2.93 42.35, 2.24 40.88, 1.68 39.39 C1.13 37.89, 0.7 36.35, 0.42 34.8 C0.14 33.25, 0 31.66, 0 30.09 C0 28.52, 0.14 26.93, 0.42 25.38 C0.7 23.83, 1.13 22.28, 1.68 20.79 C2.24 19.3, 2.93 17.83, 3.75 16.43 C4.56 15.03, 5.51 13.67, 6.57 12.4 C7.62 11.13, 8.8 9.92, 10.07 8.81 C11.34 7.7, 12.72 6.67, 14.17 5.75 C15.63 4.82, 17.18 3.99, 18.78 3.28 C20.37 2.57, 22.06 1.96, 23.76 1.47 C25.47 0.99, 27.24 0.62, 29.01 0.37 C30.78 0.13, 32.59 0, 34.39 0 C36.18 0, 38 0.13, 39.77 0.37 C41.54 0.62, 43.31 0.99, 45.01 1.47 C46.72 1.96, 48.4 2.57, 50 3.28 C51.6 3.99, 53.15 4.82, 54.6 5.75 C56.05 6.67, 57.43 7.7, 58.7 8.81 C59.97 9.92, 61.15 11.13, 62.21 12.4 C63.26 13.67, 64.21 15.03, 65.03 16.43 C65.84 17.83, 66.54 19.3, 67.09 20.79 C67.65 22.28, 68.07 23.83, 68.35 25.38 C68.63 26.93, 68.7 29.3, 68.77 30.09 C68.84 30.87, 68.84 29.3, 68.77 30.09" stroke="#000000" stroke-width="2" fill="none"></path></g><g transform="translate(149.00665692137898 10) rotate(0 190.5 14)"><text x="0" y="0" font-family="Helvetica, Segoe UI Emoji" font-size="20px" fill="#000000" text-anchor="start" style="white-space: pre;" direction="ltr" dominant-baseline="text-before-edge">2个人打电话,实际上我们是要确认4件事的!!</text></g><g mask="url(#mask-Oi_e88G-7I3JVFuBovgFa)" stroke-linecap="round"><g transform="translate(169.01379803466023 125.08074951171875) rotate(0 125.36813354492188 19.835662841796875)"><path d="M1.04 -0.47 C43.16 6.39, 210.08 33.31, 251.51 39.96 M0.13 -1.76 C42.26 4.82, 208.99 30.93, 250.97 37.99" stroke="#000000" stroke-width="1" fill="none"></path></g><g transform="translate(169.01379803466023 125.08074951171875) rotate(0 125.36813354492188 19.835662841796875)"><path d="M251.07 39.69 L235.9 42.23 L239.29 27.62 L249.08 38.37" stroke="none" stroke-width="0" fill="#000000" fill-rule="evenodd"></path><path d="M250.38 38.96 C248.38 37.59, 244.78 40.88, 237.21 41.15 M250.63 38.68 C246.26 39.53, 239.47 41.42, 236.88 42.03 M236.04 41.73 C236.71 37, 236.74 32.56, 239.75 30.59 M237.13 41.62 C236.56 39.51, 237.85 37.39, 238.5 29.82 M237.42 29.74 C242.83 30.89, 246.69 35.21, 251.02 37.75 M239.27 29.74 C243.02 32.72, 247.02 35.8, 251.26 37.53 M250.97 37.99 C250.97 37.99, 250.97 37.99, 250.97 37.99 M250.97 37.99 C250.97 37.99, 250.97 37.99, 250.97 37.99" stroke="#000000" stroke-width="1" fill="none"></path></g></g><mask id="mask-Oi_e88G-7I3JVFuBovgFa"><rect x="0" y="0" fill="#fff" width="519.750065124504" height="264.7520751953125"></rect><rect x="232.3819315795821" y="130.91641235351562" fill="#000" width="124" height="28" opacity="1"></rect></mask><g transform="translate(232.3819315795821 130.91641235351562) rotate(0 62.45172864881344 13.263606873629612)"><text x="62" y="0" font-family="Helvetica, Segoe UI Emoji" font-size="20px" fill="#000000" text-anchor="middle" style="white-space: pre;" direction="ltr" dominant-baseline="text-before-edge">1.喂,能听到吗</text></g><g mask="url(#mask-gsph59fHCkRuOHp4ksRRc)" stroke-linecap="round"><g transform="translate(418.3639567260665 186.29196166992188) rotate(0 -119.80670166015625 23.3482666015625)"><path d="M0.56 0.04 C-39.67 8.03, -200.47 39.17, -240.66 46.85 M-0.6 -0.98 C-40.53 7.32, -198.9 40.45, -238.49 48.47" stroke="#000000" stroke-width="1" fill="none"></path></g><g transform="translate(418.3639567260665 186.29196166992188) rotate(0 -119.80670166015625 23.3482666015625)"><path d="M-240.46 47.68 L-226.07 40.45 L-223.37 52.74 L-237.13 49.53" stroke="none" stroke-width="0" fill="#000000" fill-rule="evenodd"></path><path d="M-238.44 47.17 C-233.9 44, -230.46 40.53, -227.56 38.4 M-237.85 48.5 C-236.2 46.89, -233.67 44.22, -226.9 39.36 M-225.33 39.11 C-225.24 45.44, -224.07 48.04, -223.95 51.1 M-226.9 40.09 C-225.18 42.72, -225.55 46.74, -224.49 51.82 M-222.95 51.69 C-229.92 50.84, -234.44 49.25, -237.43 48.21 M-223.19 52.34 C-228.06 50.65, -230.83 50.12, -239.17 49.04 M-238.49 48.47 C-238.49 48.47, -238.49 48.47, -238.49 48.47 M-238.49 48.47 C-238.49 48.47, -238.49 48.47, -238.49 48.47" stroke="#000000" stroke-width="1" fill="none"></path></g></g><mask id="mask-gsph59fHCkRuOHp4ksRRc"><rect x="0" y="0" fill="#fff" width="757.977360046379" height="332.9884948730469"></rect><rect x="259.0572550659102" y="195.64022827148438" fill="#000" width="79" height="28" opacity="1"></rect></mask><g transform="translate(259.0572550659102 195.64022827148438) rotate(0 39.25881379731 14.399645827841013)"><text x="39.5" y="0" font-family="Helvetica, Segoe UI Emoji" font-size="20px" fill="#000000" text-anchor="middle" style="white-space: pre;" direction="ltr" dominant-baseline="text-before-edge">2.能听到</text></g><g mask="url(#mask-iWm1beHPlaVAHLrNye7yC)" stroke-linecap="round"><g transform="translate(181.91656903075398 259.86431884765625) rotate(0 122.54763793945312 17.21234130859375)"><path d="M0.19 -0.28 C40.96 5.21, 204.18 27.73, 245.13 33.63 M-1.16 -1.47 C39.4 4.1, 203.08 28.97, 244.2 34.76" stroke="#000000" stroke-width="1" fill="none"></path></g><g transform="translate(181.91656903075398 259.86431884765625) rotate(0 122.54763793945312 17.21234130859375)"><path d="M242.4 34.93 L231.25 39.35 L231.17 28.09 L245.31 36.37" stroke="none" stroke-width="0" fill="#000000" fill-rule="evenodd"></path><path d="M243.85 34.8 C238.26 37.3, 235.21 38.04, 229.32 39.08 M244.44 34.35 C239.2 36.95, 232.94 38.75, 229.66 38.79 M228.66 38.58 C229.85 36.37, 229.5 34.79, 231.84 25.52 M229.6 39.57 C230.1 35.09, 230.66 30.29, 232.28 26.02 M231.05 26.27 C236.32 29.51, 238.24 30.93, 244.77 35.69 M231.5 25.83 C234.37 28.39, 238 31.29, 243.91 34.74 M244.2 34.76 C244.2 34.76, 244.2 34.76, 244.2 34.76 M244.2 34.76 C244.2 34.76, 244.2 34.76, 244.2 34.76" stroke="#000000" stroke-width="1" fill="none"></path></g></g><mask id="mask-iWm1beHPlaVAHLrNye7yC"><rect x="0" y="0" fill="#fff" width="527.0118449096602" height="394.28900146484375"></rect><rect x="272.4642069702071" y="263.07666015625" fill="#000" width="64" height="28" opacity="1"></rect></mask><g transform="translate(272.4642069702071 263.07666015625) rotate(0 31.43544632274657 13.430724811106924)"><text x="32" y="0" font-family="Helvetica, Segoe UI Emoji" font-size="20px" fill="#000000" text-anchor="middle" style="white-space: pre;" direction="ltr" dominant-baseline="text-before-edge">3. 好的</text></g><g stroke-linecap="round" transform="translate(169.01178387450398 477.0253601074219) rotate(0 30 30)"><path d="M16.34 2.28 C16.34 2.28, 16.34 2.28, 16.34 2.28 M16.34 2.28 C16.34 2.28, 16.34 2.28, 16.34 2.28 M5.69 21.63 C12.71 13.54, 15.73 6.64, 19.47 4.6 M5.06 19.96 C9.94 14.67, 14.7 9.7, 20.96 3.49 M3.54 25.8 C9.62 21.83, 12.7 17.47, 28.68 2.02 M5.69 28.01 C10.1 20.65, 15.56 14.97, 27.21 2.42 M5.02 34.27 C14.38 24.96, 21.24 15.3, 31.82 2.02 M4.8 34.5 C15.87 22, 26.48 8.45, 32.01 2.48 M3.78 39.73 C12.16 30.53, 17.85 21.93, 38.6 2.27 M3.66 40.03 C11.46 32.57, 20.56 23.34, 38.53 2.61 M4.63 42.74 C14.37 35.89, 24.45 22.91, 42.1 5.78 M5.87 45.04 C18.1 31.27, 28.77 18.98, 40.76 3.27 M8.09 46.05 C18.96 35.92, 31.21 23.1, 43.1 5.38 M8.89 47.54 C16.16 38.25, 22.91 31.36, 45.85 5.34 M11.17 49.2 C20.44 39.83, 31.45 26.74, 47.12 8.16 M10.92 50.17 C19.65 42.33, 28.82 33.17, 48.17 8.02 M12.42 52.97 C23.8 41.5, 35.26 26.68, 51.33 9.38 M12.92 54.16 C21.86 44.72, 28.65 35.73, 52.31 11.24 M14.25 58.09 C27.23 44.86, 37.4 29.8, 55.56 14.17 M15 58.49 C30.63 40.65, 44.77 23.08, 55.04 12.85 M21.17 59.62 C33.02 45.24, 40.55 33.18, 58 15.76 M19.69 57.73 C31.72 44.68, 44.02 32.34, 57.1 17.24 M24.23 60.49 C35.85 48.36, 44.43 39.01, 58.7 23.31 M24.38 60.06 C36.54 44.09, 50.66 29.45, 57.7 20.72 M27.91 60.58 C38.15 49.33, 46.84 39.28, 58.7 25.47 M29.27 59.84 C40.09 47.41, 52.52 35.17, 59.7 25.5 M36.44 60 C45.24 51.3, 52.89 40.35, 59.58 30.75 M33.72 61.28 C45.42 47.76, 54.41 36.88, 60.19 29.54 M44.74 56.17 C49.08 50.97, 53.03 48.07, 61.16 35.45 M44.21 55.09 C50.68 47.64, 57.25 39.95, 62.22 34.97" stroke="#12b886" stroke-width="0.5" fill="none"></path><path d="M37.42 1.65 C43.64 2.57, 50.73 6.53, 54.6 11.75 C58.48 16.97, 61.28 26.54, 60.68 32.98 C60.08 39.43, 55.57 45.93, 51 50.41 C46.43 54.89, 39.49 59, 33.27 59.88 C27.06 60.75, 18.93 59.15, 13.71 55.67 C8.49 52.18, 3.79 45.19, 1.96 38.97 C0.13 32.76, 0.37 24.42, 2.71 18.36 C5.05 12.31, 9.08 5.29, 16.02 2.65 C22.96 0.01, 38.65 1.54, 44.35 2.54 C50.05 3.55, 50.55 8.07, 50.23 8.69 M43.37 3.16 C49.32 5.09, 55.82 10.85, 58.55 16.45 C61.28 22.04, 61.83 30.26, 59.75 36.73 C57.67 43.2, 51.64 51.45, 46.07 55.24 C40.51 59.03, 32.64 60.04, 26.34 59.46 C20.05 58.88, 12.76 56, 8.3 51.76 C3.84 47.52, 0.22 40.7, -0.43 34.02 C-1.09 27.34, 0.81 17.33, 4.38 11.7 C7.95 6.07, 14.45 1.74, 20.97 0.22 C27.5 -1.29, 40.13 2.08, 43.52 2.6 C46.91 3.11, 41.67 2.72, 41.31 3.33" stroke="#000000" stroke-width="1" fill="none"></path></g><g stroke-linecap="round"><g transform="translate(195.96776640164774 494.68216006357375) rotate(299.4109972382423 4.482599662544274 10.033862755028935)" fill-rule="evenodd"><path d="M1 0.06 L-1.4 9.67 L17.23 9.08 L16.59 19.17 L-7.75 21.96 L-8.49 1.87 L0.8 -1.14" stroke="none" stroke-width="0" fill="#ffffff" fill-rule="evenodd"></path><path d="M0.49 -0.92 C0.55 2.31, 0.77 4.67, -0.64 10.79 M0.08 0.02 C0.2 4.28, 0.35 8.12, 0.05 10.33 M-1.68 11.23 C5.01 9.6, 7.97 11.53, 17.84 11.14 M-0.48 10.48 C5.71 9.15, 12.99 9.2, 17.68 9.71 M17.26 9.26 C17.09 12.83, 18.5 16.6, 17.23 20.07 M18 9.72 C17.88 12.56, 17.71 16.44, 17.97 20.53 M17.92 20.7 C9.28 20.31, -3.26 20.39, -10.26 21.96 M18.84 19.75 C11.86 20.66, 6.51 19.83, -9.43 19.46 M-10.78 21.03 C-10.21 14.33, -10.24 10.63, -9.99 -0.17 M-8.07 21.05 C-10.03 14.11, -9.2 9.62, -9.81 0.62 M-8.64 0.42 C-5.18 0.82, -2.38 -0.29, -0.12 -0.04 M-9.1 -0.13 C-6.07 0.17, -2.91 0.15, -0.02 0.07 M0 0 C0 0, 0 0, 0 0 M0 0 C0 0, 0 0, 0 0" stroke="#000000" stroke-width="1" fill="none"></path></g></g><mask></mask><g transform="translate(249.73358563231648 471.1231384277344) rotate(0 133.5 42)"><text x="0" y="0" font-family="Helvetica, Segoe UI Emoji" font-size="20px" fill="#000000" text-anchor="start" style="white-space: pre;" direction="ltr" dominant-baseline="text-before-edge">1.  B确认 A能说话</text><text x="0" y="28" font-family="Helvetica, Segoe UI Emoji" font-size="20px" fill="#000000" text-anchor="start" style="white-space: pre;" direction="ltr" dominant-baseline="text-before-edge">2.  A确认 B能听到,并且能说话</text><text x="0" y="56" font-family="Helvetica, Segoe UI Emoji" font-size="20px" fill="#000000" text-anchor="start" style="white-space: pre;" direction="ltr" dominant-baseline="text-before-edge">3.  B确认 A能听到 </text></g><g stroke-linecap="round"><g transform="translate(289.8513224487227 590.8406066894531) rotate(0 0.52459716796875 41.205047607421875)"><path d="M-0.06 1.03 C-0.2 14.72, -0.21 68.45, 0.04 82.18 M-1.55 0.53 C-1.4 14.4, 1.81 70.08, 2.22 83.6" stroke="#000000" stroke-width="1" fill="none"></path></g><g transform="translate(289.8513224487227 590.8406066894531) rotate(0 0.52459716796875 41.205047607421875)"><path d="M1.59 84.55 L-3.18 71.64 L9.64 70.21 L2.66 84.89" stroke="none" stroke-width="0" fill="#000000" fill-rule="evenodd"></path><path d="M3.51 82.33 C-0.66 79.13, -1.69 73.39, -4.43 71.51 M2.93 83.95 C-0.39 79.43, -2.86 74.16, -4.04 69.63 M-5.94 69.61 C-2.48 70.41, 1.56 69.43, 7.51 69.19 M-4.83 70.26 C-1.41 69.83, 1.97 69.8, 8.48 69.9 M7.85 70 C7.18 74.32, 4.52 81.07, 1.53 85.06 M8.34 70.04 C5.96 73.62, 5.85 75.64, 1.92 83.51 M2.22 83.6 C2.22 83.6, 2.22 83.6, 2.22 83.6 M2.22 83.6 C2.22 83.6, 2.22 83.6, 2.22 83.6" stroke="#000000" stroke-width="1" fill="none"></path></g></g><mask></mask><g stroke-linecap="round"><g transform="translate(317.41790321112023 592.805609131027) rotate(0 0.52459716796875 41.205047607421875)"><path d="M-0.19 1.09 C-0.1 14.58, 0.95 68.22, 1.1 81.78 M-1.75 0.61 C-1.87 14.18, -0.07 69.13, 0.17 82.98" stroke="#000000" stroke-width="1" fill="none"></path></g><g transform="translate(317.41790321112023 592.805609131027) rotate(0 0.52459716796875 41.205047607421875)"><path d="M2.14 82.79 L-7.96 68.47 L4.61 68.22 L-1.03 81.93" stroke="none" stroke-width="0" fill="#000000" fill-rule="evenodd"></path><path d="M1.53 83.04 C-3.04 77.82, -4.57 72.82, -6.33 69.08 M0.81 83.16 C-2.09 78.84, -3.89 73.85, -7.05 69.63 M-5.73 70.11 C-4.1 69.98, -0.13 69.49, 7.14 69.9 M-6.13 69.45 C-2.35 69.65, 2.19 69, 6.52 69.04 M6.34 69.12 C4.72 73.23, 3.16 77.49, -0.76 83.74 M6.21 68.68 C4.29 73.87, 2.38 78.08, 0.87 82.68 M0.17 82.98 C0.17 82.98, 0.17 82.98, 0.17 82.98 M0.17 82.98 C0.17 82.98, 0.17 82.98, 0.17 82.98" stroke="#000000" stroke-width="1" fill="none"></path></g></g><mask></mask><g transform="translate(169.05068361408735 693.4579467773438) rotate(0 262.5 14)"><text x="0" y="0" font-family="Helvetica, Segoe UI Emoji" font-size="20px" fill="#000000" text-anchor="start" style="white-space: pre;" direction="ltr" dominant-baseline="text-before-edge">如果A不能听到,那么B说的长篇大伦可能白说了,气不气人吧.</text></g><g transform="translate(67.24762371825398 115.36895751953125) rotate(0 13 21)"><text x="0" y="0" font-family="Helvetica, Segoe UI Emoji" font-size="36px" fill="#000000" text-anchor="start" style="white-space: pre;" direction="ltr" dominant-baseline="text-before-edge">A</text></g><g transform="translate(524.684879577629 119.86849975585938) rotate(0 13 21)"><text x="0" y="0" font-family="Helvetica, Segoe UI Emoji" font-size="36px" fill="#000000" text-anchor="start" style="white-space: pre;" direction="ltr" dominant-baseline="text-before-edge">B</text></g></svg>