<svg version="1.1" xmlns="http://www.w3.org/2000/svg" viewBox="0 0 1025.1158447265625 383.6731872558594" width="1025.1158447265625" height="383.6731872558594">
  <!-- svg-source:excalidraw -->
  
  <defs>
    <style class="style-fonts">
      @font-face {
        font-family: "Virgil";
        src: url("https://unpkg.com/@excalidraw/excalidraw@0.15.3/dist/excalidraw-assets/Virgil.woff2");
      }
      @font-face {
        font-family: "Cascadia";
        src: url("https://unpkg.com/@excalidraw/excalidraw@0.15.3/dist/excalidraw-assets/Cascadia.woff2");
      }
    </style>
  </defs>
  <rect x="0" y="0" width="1025.1158447265625" height="383.6731872558594" fill="#ffffff"></rect><g transform="translate(47.90625 31.752609252929688) rotate(0 -18.953125 73.7645263671875)" stroke="none"><path fill="#0161fe" d="M 0.34,4.02 Q 0.34,4.02 -0.69,4.09 -1.72,4.16 -2.94,4.95 -4.15,5.74 -5.38,7.11 -6.61,8.48 -7.28,9.53 -7.96,10.58 -8.72,11.69 -9.48,12.79 -10.44,14.24 -11.40,15.68 -12.08,16.60 -12.75,17.53 -13.44,18.95 -14.12,20.37 -14.54,21.62 -14.96,22.87 -15.41,24.38 -15.85,25.90 -16.16,26.96 -16.47,28.02 -16.75,29.35 -17.03,30.67 -17.18,31.89 -17.33,33.12 -17.52,34.25 -17.71,35.38 -18.00,36.94 -18.30,38.50 -18.54,39.57 -18.77,40.65 -19.21,42.25 -19.66,43.86 -19.93,44.97 -20.20,46.08 -20.66,47.59 -21.11,49.10 -21.53,50.31 -21.96,51.52 -22.58,52.92 -23.20,54.32 -23.65,55.28 -24.11,56.25 -24.73,57.41 -25.36,58.58 -26.19,59.83 -27.03,61.09 -27.92,62.03 -28.81,62.97 -29.87,63.60 -30.93,64.24 -32.46,64.94 -34.00,65.63 -34.96,63.57 -35.93,61.50 -33.97,62.42 -32.02,63.33 -30.23,64.95 -28.45,66.56 -27.58,67.42 -26.71,68.29 -25.46,69.76 -24.22,71.23 -23.35,72.43 -22.49,73.63 -21.30,75.42 -20.11,77.20 -19.34,78.59 -18.57,79.97 -17.65,81.99 -16.73,84.02 -16.11,85.58 -15.49,87.15 -14.88,89.12 -14.27,91.08 -13.84,92.36 -13.40,93.63 -13.08,94.82 -12.76,96.01 -12.42,97.45 -12.08,98.89 -11.84,100.03 -11.60,101.18 -11.31,102.42 -11.02,103.66 -10.54,105.61 -10.06,107.56 -9.60,109.26 -9.14,110.96 -8.86,112.61 -8.58,114.27 -8.42,115.88 -8.25,117.48 -8.19,119.11 -8.13,120.74 -8.14,122.08 -8.15,123.42 -8.05,124.91 -7.94,126.40 -7.85,127.59 -7.76,128.78 -7.76,129.94 -7.76,131.11 -7.80,132.39 -7.85,133.68 -7.90,134.85 -7.96,136.01 -8.05,137.15 -8.14,138.28 -8.22,139.46 -8.30,140.65 -7.90,141.68 -7.51,142.71 -6.43,143.43 -5.34,144.14 -4.21,144.62 -3.07,145.09 -1.23,145.99 0.60,146.88 0.66,147.09 0.73,147.30 0.72,147.51 0.71,147.73 0.64,147.93 0.56,148.14 0.42,148.30 0.29,148.47 0.10,148.59 -0.07,148.70 -0.28,148.75 -0.49,148.80 -0.71,148.78 -0.92,148.77 -1.12,148.68 -1.32,148.59 -1.48,148.45 -1.64,148.30 -1.75,148.11 -1.85,147.92 -1.89,147.71 -1.93,147.50 -1.90,147.28 -1.87,147.07 -1.77,146.87 -1.67,146.68 -1.52,146.53 -1.36,146.38 -1.17,146.28 -0.98,146.19 -0.76,146.16 -0.55,146.13 -0.33,146.17 -0.12,146.22 0.06,146.32 0.24,146.43 0.39,146.59 0.53,146.76 0.62,146.96 0.70,147.16 0.72,147.37 0.73,147.59 0.68,147.80 0.62,148.01 0.51,148.19 0.39,148.37 0.22,148.50 0.05,148.64 -0.15,148.71 -0.35,148.79 -0.57,148.79 -0.78,148.79 -0.99,148.73 -1.20,148.66 -1.37,148.54 -1.55,148.41 -1.67,148.23 -1.80,148.06 -1.80,148.06 -1.80,148.06 -2.76,148.13 -3.72,148.20 -5.07,147.75 -6.43,147.30 -7.49,146.75 -8.56,146.20 -9.55,145.47 -10.55,144.74 -11.22,143.85 -11.90,142.95 -12.10,141.80 -12.30,140.65 -12.38,139.46 -12.46,138.28 -12.55,137.15 -12.64,136.01 -12.70,134.85 -12.76,133.68 -12.80,132.41 -12.85,131.15 -12.91,129.90 -12.98,128.65 -13.15,127.21 -13.32,125.78 -13.46,124.62 -13.61,123.47 -13.64,122.17 -13.67,120.88 -13.75,119.53 -13.83,118.18 -14.02,116.70 -14.20,115.22 -14.44,113.93 -14.67,112.64 -15.19,110.86 -15.72,109.08 -16.26,107.06 -16.80,105.04 -17.11,103.75 -17.43,102.47 -17.68,101.38 -17.93,100.29 -18.54,97.96 -19.15,95.63 -19.63,94.27 -20.11,92.91 -20.66,91.18 -21.21,89.44 -21.79,88.01 -22.37,86.59 -23.19,84.80 -24.01,83.00 -24.66,81.85 -25.31,80.70 -26.45,79.02 -27.59,77.34 -28.33,76.33 -29.07,75.32 -30.11,74.09 -31.15,72.86 -32.00,72.04 -32.86,71.22 -33.81,70.32 -34.77,69.43 -36.04,68.26 -37.31,67.08 -38.34,66.51 -39.37,65.93 -39.80,64.04 -40.23,62.14 -38.98,61.02 -37.72,59.91 -36.39,59.29 -35.05,58.68 -33.99,57.95 -32.93,57.22 -32.29,56.22 -31.64,55.23 -30.70,53.33 -29.76,51.42 -29.26,50.29 -28.77,49.16 -28.41,48.10 -28.05,47.04 -27.65,45.71 -27.26,44.38 -26.98,43.16 -26.69,41.93 -26.10,39.54 -25.52,37.14 -25.10,34.69 -24.68,32.25 -24.54,30.98 -24.39,29.72 -24.03,27.85 -23.66,25.98 -23.10,23.95 -22.53,21.93 -22.09,20.51 -21.66,19.08 -21.22,17.91 -20.79,16.73 -20.26,15.61 -19.73,14.49 -18.86,13.07 -17.99,11.66 -17.30,10.54 -16.62,9.41 -15.70,8.08 -14.78,6.75 -14.09,5.57 -13.39,4.40 -12.57,3.42 -11.76,2.44 -10.77,1.27 -9.78,0.09 -8.55,-0.82 -7.32,-1.74 -6.25,-2.36 -5.17,-2.99 -3.82,-3.39 -2.47,-3.80 -1.40,-3.91 -0.34,-4.02 0.14,-4.01 0.62,-3.99 1.09,-3.85 1.56,-3.72 1.98,-3.48 2.41,-3.24 2.76,-2.90 3.11,-2.57 3.38,-2.16 3.64,-1.75 3.79,-1.28 3.95,-0.82 3.99,-0.34 4.03,0.14 3.96,0.62 3.88,1.10 3.69,1.55 3.51,2.00 3.21,2.39 2.92,2.78 2.55,3.09 2.17,3.40 1.73,3.61 1.29,3.82 0.82,3.92 0.34,4.02 0.34,4.02 L 0.34,4.02 Z"></path></g><g stroke-linecap="round" transform="translate(207.3753662109375 59.824310302734375) rotate(0 61 21)"><path d="M0 0 C48.15 0, 96.31 0, 122 0 M0 0 C46.95 0, 93.91 0, 122 0 M122 0 C122 8.4, 122 16.8, 122 42 M122 0 C122 16.06, 122 32.12, 122 42 M122 42 C80.96 42, 39.91 42, 0 42 M122 42 C83.19 42, 44.39 42, 0 42 M0 42 C0 28.86, 0 15.72, 0 0 M0 42 C0 31.23, 0 20.46, 0 0" stroke="#5c940e" stroke-width="1" fill="none"></path></g><g transform="translate(229.3753662109375 71.82431030273438) rotate(0 39 9)"><text x="39" y="0" font-family="Helvetica, Segoe UI Emoji" font-size="16px" fill="#5c940e" text-anchor="middle" style="white-space: pre;" direction="ltr" dominant-baseline="text-before-edge">0000 0000</text></g><g stroke-linecap="round" transform="translate(206.3753662109375 144.82431030273438) rotate(0 62 21)"><path d="M0 0 C45.72 0, 91.44 0, 124 0 M0 0 C31.39 0, 62.78 0, 124 0 M124 0 C124 10.89, 124 21.78, 124 42 M124 0 C124 12.92, 124 25.84, 124 42 M124 42 C79.19 42, 34.38 42, 0 42 M124 42 C82.85 42, 41.71 42, 0 42 M0 42 C0 26.72, 0 11.43, 0 0 M0 42 C0 29.01, 0 16.02, 0 0" stroke="#5c940e" stroke-width="1" fill="none"></path></g><g transform="translate(229.3753662109375 156.82431030273438) rotate(0 39 9)"><text x="39" y="0" font-family="Helvetica, Segoe UI Emoji" font-size="16px" fill="#5c940e" text-anchor="middle" style="white-space: pre;" direction="ltr" dominant-baseline="text-before-edge">0000 1000</text></g><g stroke-linecap="round" transform="translate(207.28730910306567 102.37171853995221) rotate(0 61 21)"><path d="M0 0 C30.75 0, 61.5 0, 122 0 M0 0 C36.28 0, 72.57 0, 122 0 M122 0 C122 12.48, 122 24.95, 122 42 M122 0 C122 11.08, 122 22.16, 122 42 M122 42 C73.79 42, 25.57 42, 0 42 M122 42 C94.77 42, 67.54 42, 0 42 M0 42 C0 27.93, 0 13.86, 0 0 M0 42 C0 29.15, 0 16.29, 0 0" stroke="#5c940e" stroke-width="1" fill="none"></path></g><g transform="translate(230.78730910306567 114.37171853995221) rotate(0 37.5 9)"><text x="37.5" y="0" font-family="Helvetica, Segoe UI Emoji" font-size="16px" fill="#5c940e" text-anchor="middle" style="white-space: pre;" direction="ltr" dominant-baseline="text-before-edge">0000 0111</text></g><g stroke-linecap="round" transform="translate(207.95750196246058 18.147216796875) rotate(0 61 21)"><path d="M0 0 C30.53 0, 61.06 0, 122 0 M0 0 C31.4 0, 62.81 0, 122 0 M122 0 C122 14.58, 122 29.16, 122 42 M122 0 C122 16.33, 122 32.66, 122 42 M122 42 C73.64 42, 25.28 42, 0 42 M122 42 C96.34 42, 70.68 42, 0 42 M0 42 C0 26.52, 0 11.04, 0 0 M0 42 C0 33.45, 0 24.89, 0 0" stroke="#5c940e" stroke-width="1" fill="none"></path></g><g transform="translate(229.95750196246058 30.147216796875) rotate(0 39 9)"><text x="39" y="0" font-family="Helvetica, Segoe UI Emoji" font-size="16px" fill="#5c940e" text-anchor="middle" style="white-space: pre;" direction="ltr" dominant-baseline="text-before-edge">0000 0000</text></g><g stroke-linecap="round" transform="translate(207.37109375 228.53988647460938) rotate(0 61 21)"><path d="M0 0 C40.35 0, 80.71 0, 122 0 M0 0 C25.07 0, 50.13 0, 122 0 M122 0 C122 12.45, 122 24.91, 122 42 M122 0 C122 9.16, 122 18.33, 122 42 M122 42 C81.56 42, 41.11 42, 0 42 M122 42 C79.74 42, 37.49 42, 0 42 M0 42 C0 27.54, 0 13.09, 0 0 M0 42 C0 31.22, 0 20.44, 0 0" stroke="#0161fe" stroke-width="1" fill="none"></path></g><g stroke-linecap="round" transform="translate(206.37109375 313.5398864746094) rotate(0 62 21)"><path d="M0 0 C32.91 0, 65.82 0, 124 0 M0 0 C37.64 0, 75.29 0, 124 0 M124 0 C124 8.56, 124 17.12, 124 42 M124 0 C124 11.84, 124 23.68, 124 42 M124 42 C85.6 42, 47.19 42, 0 42 M124 42 C82.16 42, 40.32 42, 0 42 M0 42 C0 29.31, 0 16.62, 0 0 M0 42 C0 31.63, 0 21.26, 0 0" stroke="#0161fe" stroke-width="1" fill="none"></path></g><g transform="translate(229.37109375 325.5398864746094) rotate(0 39 9)"><text x="39" y="0" font-family="Helvetica, Segoe UI Emoji" font-size="16px" fill="#0f0f0f" text-anchor="middle" style="white-space: pre;" direction="ltr" dominant-baseline="text-before-edge">0000 0001</text></g><g stroke-linecap="round" transform="translate(207.2830366421282 271.0872947118272) rotate(0 61 21)"><path d="M0 0 C27.42 0, 54.85 0, 122 0 M0 0 C24.51 0, 49.02 0, 122 0 M122 0 C122 15.21, 122 30.43, 122 42 M122 0 C122 14.31, 122 28.61, 122 42 M122 42 C85.16 42, 48.33 42, 0 42 M122 42 C92.17 42, 62.35 42, 0 42 M0 42 C0 31.6, 0 21.2, 0 0 M0 42 C0 26.08, 0 10.16, 0 0" stroke="#0161fe" stroke-width="1" fill="none"></path></g><g transform="translate(230.2830366421282 283.0872947118272) rotate(0 38 9)"><text x="38" y="0" font-family="Helvetica, Segoe UI Emoji" font-size="16px" fill="#1a1b18" text-anchor="middle" style="white-space: pre;" direction="ltr" dominant-baseline="text-before-edge">0000 0011</text></g><g stroke-linecap="round" transform="translate(207.95322950152308 186.86279296875) rotate(0 61 21)"><path d="M0 0 C48.53 0, 97.06 0, 122 0 M0 0 C41.32 0, 82.64 0, 122 0 M122 0 C122 9.41, 122 18.82, 122 42 M122 0 C122 10.88, 122 21.75, 122 42 M122 42 C93.12 42, 64.25 42, 0 42 M122 42 C76.98 42, 31.96 42, 0 42 M0 42 C0 30.63, 0 19.26, 0 0 M0 42 C0 26.9, 0 11.8, 0 0" stroke="#0161fe" stroke-width="1" fill="none"></path></g><g transform="translate(229.95322950152308 198.86279296875) rotate(0 39 9)"><text x="39" y="0" font-family="Helvetica, Segoe UI Emoji" font-size="16px" fill="#0f100f" text-anchor="middle" style="white-space: pre;" direction="ltr" dominant-baseline="text-before-edge">0000 0010</text></g><g transform="translate(61.66571044921875 166.83807835062862) rotate(0 53 9)"><text x="0" y="0" font-family="Helvetica, Segoe UI Emoji" font-size="16px" fill="#5c940e" text-anchor="start" style="white-space: pre;" direction="ltr" dominant-baseline="text-before-edge">0xc00004c754</text></g><g stroke-linecap="round"><g transform="translate(179.61328125 184.64961843558183) rotate(0 12.347315851722641 -0.14728552783185478)"><path d="M0 0 C4.12 -0.05, 20.58 -0.25, 24.69 -0.29 M0 0 C4.12 -0.05, 20.58 -0.25, 24.69 -0.29" stroke="#5c940e" stroke-width="1" fill="none"></path></g><g transform="translate(179.61328125 184.64961843558183) rotate(0 12.347315851722641 -0.14728552783185478)"><path d="M24.69 -0.29 L13.57 5.06 L13.44 -5.38 L24.69 -0.29" stroke="none" stroke-width="0" fill="#5c940e" fill-rule="evenodd"></path><path d="M24.69 -0.29 C21.03 1.47, 17.36 3.23, 13.57 5.06 M24.69 -0.29 C20.36 1.79, 16.03 3.87, 13.57 5.06 M13.57 5.06 C13.52 1.11, 13.47 -2.84, 13.44 -5.38 M13.57 5.06 C13.53 2.21, 13.5 -0.63, 13.44 -5.38 M13.44 -5.38 C16.88 -3.82, 20.32 -2.27, 24.69 -0.29 M13.44 -5.38 C17.25 -3.66, 21.06 -1.94, 24.69 -0.29 M24.69 -0.29 C24.69 -0.29, 24.69 -0.29, 24.69 -0.29 M24.69 -0.29 C24.69 -0.29, 24.69 -0.29, 24.69 -0.29" stroke="#5c940e" stroke-width="1" fill="none"></path></g></g><mask></mask><g transform="translate(59.27252197265625 47.90074157714844) rotate(0 53 9)"><text x="0" y="0" font-family="Helvetica, Segoe UI Emoji" font-size="16px" fill="#5c940e" text-anchor="start" style="white-space: pre;" direction="ltr" dominant-baseline="text-before-edge">0xc00004c757</text></g><g stroke-linecap="round"><g transform="translate(165.404296875 58.78172869512207) rotate(0 19.467904722702293 0.9995517150595106)"><path d="M0 0 C6.49 0.33, 32.45 1.67, 38.94 2 M0 0 C6.49 0.33, 32.45 1.67, 38.94 2" stroke="#5c940e" stroke-width="1" fill="none"></path></g><g transform="translate(165.404296875 58.78172869512207) rotate(0 19.467904722702293 0.9995517150595106)"><path d="M38.94 2 L25.03 7.63 L25.68 -5.03 L38.94 2" stroke="none" stroke-width="0" fill="#5c940e" fill-rule="evenodd"></path><path d="M38.94 2 C35.18 3.52, 31.42 5.04, 25.03 7.63 M38.94 2 C34.21 3.91, 29.49 5.83, 25.03 7.63 M25.03 7.63 C25.25 3.45, 25.46 -0.73, 25.68 -5.03 M25.03 7.63 C25.19 4.55, 25.35 1.46, 25.68 -5.03 M25.68 -5.03 C30.89 -2.27, 36.09 0.49, 38.94 2 M25.68 -5.03 C29.77 -2.86, 33.85 -0.7, 38.94 2 M38.94 2 C38.94 2, 38.94 2, 38.94 2 M38.94 2 C38.94 2, 38.94 2, 38.94 2" stroke="#5c940e" stroke-width="1" fill="none"></path></g></g><mask></mask><g transform="translate(355.56463623046875 192.2294158935547) rotate(0 6.5 11.5)"><text x="0" y="0" font-family="Helvetica, Segoe UI Emoji" font-size="20px" fill="#5c940e" text-anchor="start" style="white-space: pre;" direction="ltr" dominant-baseline="text-before-edge">a</text></g><g transform="translate(355.2684326171875 232.76048278808594) rotate(0 6.5 11.5)"><text x="0" y="0" font-family="Helvetica, Segoe UI Emoji" font-size="20px" fill="#5c940e" text-anchor="start" style="white-space: pre;" direction="ltr" dominant-baseline="text-before-edge">b</text></g><g transform="translate(354.61590576171875 277.7649383544922) rotate(0 6 11.5)"><text x="0" y="0" font-family="Helvetica, Segoe UI Emoji" font-size="20px" fill="#5c940e" text-anchor="start" style="white-space: pre;" direction="ltr" dominant-baseline="text-before-edge">c</text></g><g transform="translate(355.409423828125 328.6674041748047) rotate(0 6.5 11.5)"><text x="0" y="0" font-family="Helvetica, Segoe UI Emoji" font-size="20px" fill="#5c940e" text-anchor="start" style="white-space: pre;" direction="ltr" dominant-baseline="text-before-edge">d</text></g><g transform="translate(98.70703125 217.85972595214844) rotate(0 53 9)"><text x="0" y="0" font-family="Helvetica, Segoe UI Emoji" font-size="16px" fill="#5c940e" text-anchor="start" style="white-space: pre;" direction="ltr" dominant-baseline="text-before-edge">0xc00004c753</text></g><g transform="translate(93.875 260.91709899902344) rotate(0 53 9)"><text x="0" y="0" font-family="Helvetica, Segoe UI Emoji" font-size="16px" fill="#5c940e" text-anchor="start" style="white-space: pre;" direction="ltr" dominant-baseline="text-before-edge">0xc00004c752</text></g><g transform="translate(97.76104736328125 303.03440856933594) rotate(0 53 9)"><text x="0" y="0" font-family="Helvetica, Segoe UI Emoji" font-size="16px" fill="#5c940e" text-anchor="start" style="white-space: pre;" direction="ltr" dominant-baseline="text-before-edge">0xc00004c751</text></g><g transform="translate(93.63714599609375 342.1083221435547) rotate(0 53 9)"><text x="0" y="0" font-family="Helvetica, Segoe UI Emoji" font-size="16px" fill="#5c940e" text-anchor="start" style="white-space: pre;" direction="ltr" dominant-baseline="text-before-edge">0xc00004c750</text></g><g transform="translate(234.017333984375 242.1102752685547) rotate(0 39 9)"><text x="0" y="0" font-family="Helvetica, Segoe UI Emoji" font-size="16px" fill="#0d0d0c" text-anchor="start" style="white-space: pre;" direction="ltr" dominant-baseline="text-before-edge">0000 0100</text></g><g stroke-linecap="round" transform="translate(207.07232666015625 19.101486206054688) rotate(0 62.939605712890625 83.5467529296875)"><path d="M0 0 C29.08 0, 58.16 0, 125.88 0 M0 0 C26.66 0, 53.31 0, 125.88 0 M125.88 0 C125.88 34.77, 125.88 69.54, 125.88 167.09 M125.88 0 C125.88 37.39, 125.88 74.78, 125.88 167.09 M125.88 167.09 C95.03 167.09, 64.17 167.09, 0 167.09 M125.88 167.09 C84.73 167.09, 43.58 167.09, 0 167.09 M0 167.09 C0 122.31, 0 77.53, 0 0 M0 167.09 C0 102.01, 0 36.92, 0 0" stroke="#0161fe" stroke-width="4" fill="none"></path></g><g stroke-linecap="round"><g transform="translate(431.4366455078125 153.6738739013672) rotate(0 72.0018310546875 -0.022918701171875)"><path d="M0 0 C45.98 -0.01, 91.95 -0.03, 144 -0.05 M0 0 C29.05 -0.01, 58.11 -0.02, 144 -0.05" stroke="#c3e93a" stroke-width="4" fill="none"></path></g><g transform="translate(431.4366455078125 153.6738739013672) rotate(0 72.0018310546875 -0.022918701171875)"><path d="M144 -0.05 L130.41 6.3 L130.41 -6.38 L144 -0.05" stroke="none" stroke-width="0" fill="#c3e93a" fill-rule="evenodd"></path><path d="M144 -0.05 C139.66 1.98, 135.32 4, 130.41 6.3 M144 -0.05 C141.26 1.23, 138.52 2.51, 130.41 6.3 M130.41 6.3 C130.41 3.14, 130.41 -0.01, 130.41 -6.38 M130.41 6.3 C130.41 2.74, 130.41 -0.81, 130.41 -6.38 M130.41 -6.38 C135.83 -3.85, 141.25 -1.33, 144 -0.05 M130.41 -6.38 C135.27 -4.11, 140.13 -1.85, 144 -0.05 M144 -0.05 C144 -0.05, 144 -0.05, 144 -0.05 M144 -0.05 C144 -0.05, 144 -0.05, 144 -0.05" stroke="#c3e93a" stroke-width="4" fill="none"></path></g></g><mask></mask><g stroke-linecap="round"><g transform="translate(432.4241943359375 173.10792541503906) rotate(0 70.99066547937781 0.0621500735517202)"><path d="M0 0 C55.33 0.05, 110.65 0.1, 141.98 0.12 M0 0 C38.52 0.03, 77.03 0.07, 141.98 0.12" stroke="#c3e93a" stroke-width="4" fill="none"></path></g><g transform="translate(432.4241943359375 173.10792541503906) rotate(0 70.99066547937781 0.0621500735517202)"><path d="M141.98 0.12 L128.38 6.45 L128.39 -6.23 L141.98 0.12" stroke="none" stroke-width="0" fill="#c3e93a" fill-rule="evenodd"></path><path d="M141.98 0.12 C136.68 2.59, 131.38 5.06, 128.38 6.45 M141.98 0.12 C138.29 1.84, 134.6 3.56, 128.38 6.45 M128.38 6.45 C128.38 3.22, 128.39 -0.02, 128.39 -6.23 M128.38 6.45 C128.38 3.7, 128.39 0.95, 128.39 -6.23 M128.39 -6.23 C133.21 -3.98, 138.02 -1.73, 141.98 0.12 M128.39 -6.23 C131.19 -4.92, 133.99 -3.61, 141.98 0.12 M141.98 0.12 C141.98 0.12, 141.98 0.12, 141.98 0.12 M141.98 0.12 C141.98 0.12, 141.98 0.12, 141.98 0.12" stroke="#c3e93a" stroke-width="4" fill="none"></path></g></g><mask></mask><g transform="translate(464.0618896484375 122.73155212402344) rotate(0 41 14)"><text x="0" y="0" font-family="Helvetica, Segoe UI Emoji" font-size="20px" fill="#5c940e" text-anchor="start" style="white-space: pre;" direction="ltr" dominant-baseline="text-before-edge">格式化后</text></g><g stroke-linecap="round" transform="translate(628.0088806152344 246.67318725585938) rotate(0 61 21)"><path d="M0 0 C46.19 0, 92.39 0, 122 0 M0 0 C38.89 0, 77.78 0, 122 0 M122 0 C122 10.46, 122 20.92, 122 42 M122 0 C122 12.47, 122 24.93, 122 42 M122 42 C87.14 42, 52.29 42, 0 42 M122 42 C86.73 42, 51.46 42, 0 42 M0 42 C0 32.7, 0 23.41, 0 0 M0 42 C0 26.2, 0 10.41, 0 0" stroke="#5c940e" stroke-width="1" fill="none"></path></g><g stroke-linecap="round" transform="translate(627.0088806152344 331.6731872558594) rotate(0 62 21)"><path d="M0 0 C47.55 0, 95.1 0, 124 0 M0 0 C39.31 0, 78.62 0, 124 0 M124 0 C124 11.84, 124 23.67, 124 42 M124 0 C124 12.53, 124 25.07, 124 42 M124 42 C91.1 42, 58.19 42, 0 42 M124 42 C93.87 42, 63.73 42, 0 42 M0 42 C0 27.26, 0 12.51, 0 0 M0 42 C0 26.79, 0 11.57, 0 0" stroke="#5c940e" stroke-width="1" fill="none"></path></g><g transform="translate(650.0088806152344 343.6731872558594) rotate(0 39 9)"><text x="39" y="0" font-family="Helvetica, Segoe UI Emoji" font-size="16px" fill="#0f0f0f" text-anchor="middle" style="white-space: pre;" direction="ltr" dominant-baseline="text-before-edge">0000 0001</text></g><g stroke-linecap="round" transform="translate(627.9208235073626 289.2205954930773) rotate(0 61 21)"><path d="M0 0 C31.12 0, 62.25 0, 122 0 M0 0 C29.63 0, 59.26 0, 122 0 M122 0 C122 11.37, 122 22.75, 122 42 M122 0 C122 11.95, 122 23.89, 122 42 M122 42 C90.89 42, 59.79 42, 0 42 M122 42 C79.67 42, 37.34 42, 0 42 M0 42 C0 31.46, 0 20.92, 0 0 M0 42 C0 33.15, 0 24.3, 0 0" stroke="#5c940e" stroke-width="1" fill="none"></path></g><g transform="translate(650.9208235073626 301.2205954930773) rotate(0 38 9)"><text x="38" y="0" font-family="Helvetica, Segoe UI Emoji" font-size="16px" fill="#1a1b18" text-anchor="middle" style="white-space: pre;" direction="ltr" dominant-baseline="text-before-edge">0000 0011</text></g><g stroke-linecap="round" transform="translate(628.5910163667575 204.99609375) rotate(0 61 21)"><path d="M0 0 C36.24 0, 72.48 0, 122 0 M0 0 C24.72 0, 49.44 0, 122 0 M122 0 C122 9.54, 122 19.08, 122 42 M122 0 C122 12.57, 122 25.13, 122 42 M122 42 C91.39 42, 60.78 42, 0 42 M122 42 C95.33 42, 68.65 42, 0 42 M0 42 C0 25.57, 0 9.14, 0 0 M0 42 C0 29.11, 0 16.22, 0 0" stroke="#5c940e" stroke-width="1" fill="none"></path></g><g transform="translate(650.5910163667575 216.99609375) rotate(0 39 9)"><text x="39" y="0" font-family="Helvetica, Segoe UI Emoji" font-size="16px" fill="#0f100f" text-anchor="middle" style="white-space: pre;" direction="ltr" dominant-baseline="text-before-edge">0000 0010</text></g><g transform="translate(654.6551208496094 260.2435760498047) rotate(0 39 9)"><text x="0" y="0" font-family="Helvetica, Segoe UI Emoji" font-size="16px" fill="#0d0d0c" text-anchor="start" style="white-space: pre;" direction="ltr" dominant-baseline="text-before-edge">0000 0100</text></g><g transform="translate(351.017333984375 93.11027526855469) rotate(0 39.5 11.5)"><text x="0" y="0" font-family="Helvetica, Segoe UI Emoji" font-size="20px" fill="#5c940e" text-anchor="start" style="white-space: pre;" direction="ltr" dominant-baseline="text-before-edge">z = 1800</text></g><g transform="translate(796.1158447265625 245.01707458496094) rotate(0 109.5 14)"><text x="0" y="0" font-family="Helvetica, Segoe UI Emoji" font-size="20px" fill="#5c940e" text-anchor="start" style="white-space: pre;" direction="ltr" dominant-baseline="text-before-edge">ff.i 一次直接读取4个字节</text></g><g transform="translate(819.5347900390625 280.4576873779297) rotate(0 75.5 14)"><text x="0" y="0" font-family="Helvetica, Segoe UI Emoji" font-size="20px" fill="#5c940e" text-anchor="start" style="white-space: pre;" direction="ltr" dominant-baseline="text-before-edge">结果是33817345</text></g><g stroke-linecap="round" transform="translate(626.18212890625 51.677093505859375) rotate(0 61 21)"><path d="M0 0 C31.56 0, 63.12 0, 122 0 M0 0 C26.16 0, 52.33 0, 122 0 M122 0 C122 11.69, 122 23.39, 122 42 M122 0 C122 11.84, 122 23.68, 122 42 M122 42 C92.01 42, 62.01 42, 0 42 M122 42 C89.36 42, 56.72 42, 0 42 M0 42 C0 26.57, 0 11.15, 0 0 M0 42 C0 29.09, 0 16.19, 0 0" stroke="#5c940e" stroke-width="1" fill="none"></path></g><g transform="translate(648.18212890625 63.677093505859375) rotate(0 39 9)"><text x="39" y="0" font-family="Helvetica, Segoe UI Emoji" font-size="16px" fill="#5c940e" text-anchor="middle" style="white-space: pre;" direction="ltr" dominant-baseline="text-before-edge">0000 0000</text></g><g stroke-linecap="round" transform="translate(625.18212890625 136.67709350585938) rotate(0 62 21)"><path d="M0 0 C49.21 0, 98.41 0, 124 0 M0 0 C27.11 0, 54.22 0, 124 0 M124 0 C124 8.6, 124 17.19, 124 42 M124 0 C124 9.3, 124 18.61, 124 42 M124 42 C83.82 42, 43.63 42, 0 42 M124 42 C91.52 42, 59.03 42, 0 42 M0 42 C0 28.21, 0 14.42, 0 0 M0 42 C0 31.32, 0 20.64, 0 0" stroke="#1864ab" stroke-width="1" fill="none"></path></g><g transform="translate(648.18212890625 148.67709350585938) rotate(0 39 9)"><text x="39" y="0" font-family="Helvetica, Segoe UI Emoji" font-size="16px" fill="#1864ab" text-anchor="middle" style="white-space: pre;" direction="ltr" dominant-baseline="text-before-edge">0000 1000</text></g><g stroke-linecap="round" transform="translate(626.0940717983782 94.22450174307721) rotate(0 61 21)"><path d="M0 0 C38.69 0, 77.39 0, 122 0 M0 0 C44.43 0, 88.86 0, 122 0 M122 0 C122 12.15, 122 24.31, 122 42 M122 0 C122 14.48, 122 28.96, 122 42 M122 42 C97.51 42, 73.02 42, 0 42 M122 42 C90.96 42, 59.92 42, 0 42 M0 42 C0 31.72, 0 21.43, 0 0 M0 42 C0 30.13, 0 18.26, 0 0" stroke="#1864ab" stroke-width="1" fill="none"></path></g><g transform="translate(649.5940717983782 106.22450174307721) rotate(0 37.5 9)"><text x="37.5" y="0" font-family="Helvetica, Segoe UI Emoji" font-size="16px" fill="#1864ab" text-anchor="middle" style="white-space: pre;" direction="ltr" dominant-baseline="text-before-edge">0000 0111</text></g><g stroke-linecap="round" transform="translate(626.7642646577731 10) rotate(0 61 21)"><path d="M0 0 C43.04 0, 86.07 0, 122 0 M0 0 C34.13 0, 68.27 0, 122 0 M122 0 C122 14.47, 122 28.93, 122 42 M122 0 C122 12.99, 122 25.98, 122 42 M122 42 C82.23 42, 42.47 42, 0 42 M122 42 C94.88 42, 67.76 42, 0 42 M0 42 C0 30.9, 0 19.8, 0 0 M0 42 C0 30.23, 0 18.46, 0 0" stroke="#5c940e" stroke-width="1" fill="none"></path></g><g transform="translate(648.7642646577731 22) rotate(0 39 9)"><text x="39" y="0" font-family="Helvetica, Segoe UI Emoji" font-size="16px" fill="#5c940e" text-anchor="middle" style="white-space: pre;" direction="ltr" dominant-baseline="text-before-edge">0000 0000</text></g><g transform="translate(802.017333984375 148.1102752685547) rotate(0 91 14)"><text x="0" y="0" font-family="Helvetica, Segoe UI Emoji" font-size="20px" fill="#5c940e" text-anchor="start" style="white-space: pre;" direction="ltr" dominant-baseline="text-before-edge">ff.j 读取一个字节 = 8</text></g><g transform="translate(804.017333984375 104.11027526855469) rotate(0 94 14)"><text x="0" y="0" font-family="Helvetica, Segoe UI Emoji" font-size="20px" fill="#5c940e" text-anchor="start" style="white-space: pre;" direction="ltr" dominant-baseline="text-before-edge">ff.k 读取一个字节 = 7</text></g></svg>