<svg version="1.1" xmlns="http://www.w3.org/2000/svg" viewBox="0 0 857.85465238354 466.84966075816067" width="857.85465238354" height="466.84966075816067">
  <!-- svg-source:excalidraw -->
  
  <defs>
    <style class="style-fonts">
      @font-face {
        font-family: "Virgil";
        src: url("https://unpkg.com/@excalidraw/excalidraw@0.14.2/dist/excalidraw-assets/Virgil.woff2");
      }
      @font-face {
        font-family: "Cascadia";
        src: url("https://unpkg.com/@excalidraw/excalidraw@0.14.2/dist/excalidraw-assets/Cascadia.woff2");
      }
    </style>
  </defs>
  <rect x="0" y="0" width="857.85465238354" height="466.84966075816067" fill="#ffffff"></rect><g stroke-linecap="round" transform="translate(238.009537814851 228.30544829625435) rotate(0 61 21)"><path d="M0 0 C30.23 0, 60.47 0, 122 0 M0 0 C42.72 0, 85.43 0, 122 0 M122 0 C122 10.86, 122 21.72, 122 42 M122 0 C122 12.4, 122 24.81, 122 42 M122 42 C75.7 42, 29.4 42, 0 42 M122 42 C73.67 42, 25.33 42, 0 42 M0 42 C0 32.89, 0 23.78, 0 0 M0 42 C0 25.67, 0 9.35, 0 0" stroke="#5c940d" stroke-width="1" fill="none"></path></g><g stroke-linecap="round" transform="translate(237.009537814851 313.3054482962543) rotate(0 61.999999999999986 21)"><path d="M0 0 C45.16 0, 90.32 0, 124 0 M0 0 C38.85 0, 77.7 0, 124 0 M124 0 C124 12.15, 124 24.3, 124 42 M124 0 C124 10.77, 124 21.54, 124 42 M124 42 C84.07 42, 44.13 42, 0 42 M124 42 C96.27 42, 68.54 42, 0 42 M0 42 C0 29.98, 0 17.96, 0 0 M0 42 C0 25.3, 0 8.6, 0 0" stroke="#5c940d" stroke-width="1" fill="none"></path></g><g stroke-linecap="round" transform="translate(237.92148070697917 270.85285653347216) rotate(0 61 21)"><path d="M0 0 C47.73 0, 95.47 0, 122 0 M0 0 C30.23 0, 60.47 0, 122 0 M122 0 C122 14.71, 122 29.41, 122 42 M122 0 C122 10.86, 122 21.72, 122 42 M122 42 C85.97 42, 49.94 42, 0 42 M122 42 C75.7 42, 29.4 42, 0 42 M0 42 C0 25.36, 0 8.72, 0 0 M0 42 C0 32.89, 0 23.78, 0 0" stroke="#5c940d" stroke-width="1" fill="none"></path></g><g stroke-linecap="round" transform="translate(238.59167356637408 186.62835479039498) rotate(0 61 21)"><path d="M0 0 C47.49 0, 94.98 0, 122 0 M0 0 C31.94 0, 63.87 0, 122 0 M122 0 C122 16.46, 122 32.92, 122 42 M122 0 C122 13.11, 122 26.22, 122 42 M122 42 C78.57 42, 35.14 42, 0 42 M122 42 C86.56 42, 51.12 42, 0 42 M0 42 C0 33.36, 0 24.72, 0 0 M0 42 C0 25.3, 0 8.6, 0 0" stroke="#5c940d" stroke-width="1" fill="none"></path></g><g stroke-linecap="round" transform="translate(449.31668687777477 134.6825045185017) rotate(0 61 21)"><path d="M0 0 C25.53 0, 51.05 0, 122 0 M0 0 C37.63 0, 75.26 0, 122 0 M122 0 C122 13.27, 122 26.53, 122 42 M122 0 C122 15.68, 122 31.36, 122 42 M122 42 C75.19 42, 28.37 42, 0 42 M122 42 C82.5 42, 43 42, 0 42 M0 42 C0 31.87, 0 21.74, 0 0 M0 42 C0 32, 0 21.99, 0 0" stroke="#5c940d" stroke-width="1" fill="none"></path></g><g stroke-linecap="round" transform="translate(448.31668687777477 219.6825045185017) rotate(0 61.99999999999997 21)"><path d="M0 0 C25.91 0, 51.83 0, 124 0 M0 0 C27.82 0, 55.64 0, 124 0 M124 0 C124 13.54, 124 27.07, 124 42 M124 0 C124 10.45, 124 20.9, 124 42 M124 42 C76.4 42, 28.81 42, 0 42 M124 42 C94.03 42, 64.07 42, 0 42 M0 42 C0 29.56, 0 17.12, 0 0 M0 42 C0 27.94, 0 13.87, 0 0" stroke="#5c940d" stroke-width="1" fill="none"></path></g><g stroke-linecap="round" transform="translate(449.2286297699029 177.2299127557195) rotate(0 60.999999999999986 21)"><path d="M0 0 C44.34 0, 88.68 0, 122 0 M0 0 C31.78 0, 63.56 0, 122 0 M122 0 C122 13.13, 122 26.25, 122 42 M122 0 C122 13.66, 122 27.32, 122 42 M122 42 C90.69 42, 59.38 42, 0 42 M122 42 C96.85 42, 71.71 42, 0 42 M0 42 C0 31.53, 0 21.07, 0 0 M0 42 C0 32.08, 0 22.16, 0 0" stroke="#5c940d" stroke-width="1" fill="none"></path></g><g stroke-linecap="round" transform="translate(449.89882262929785 93.00541101264233) rotate(0 61 21)"><path d="M0 0 C44.82 0, 89.63 0, 122 0 M0 0 C46.82 0, 93.64 0, 122 0 M122 0 C122 12.92, 122 25.83, 122 42 M122 0 C122 14.21, 122 28.42, 122 42 M122 42 C74.92 42, 27.84 42, 0 42 M122 42 C93.79 42, 65.59 42, 0 42 M0 42 C0 25.46, 0 8.91, 0 0 M0 42 C0 29.37, 0 16.75, 0 0" stroke="#5c940d" stroke-width="1" fill="none"></path></g><g stroke-linecap="round" transform="translate(450.28467086214573 329.84966075816067) rotate(0 61 21)"><path d="M0 0 C43.56 0, 87.11 0, 122 0 M0 0 C26.34 0, 52.69 0, 122 0 M122 0 C122 8.99, 122 17.97, 122 42 M122 0 C122 12.97, 122 25.94, 122 42 M122 42 C78.68 42, 35.35 42, 0 42 M122 42 C88.95 42, 55.91 42, 0 42 M0 42 C0 33, 0 24.01, 0 0 M0 42 C0 32.02, 0 22.03, 0 0" stroke="#5c940d" stroke-width="1" fill="none"></path></g><g stroke-linecap="round" transform="translate(449.28467086214573 414.84966075816067) rotate(0 62 21.000000000000014)"><path d="M0 0 C45.51 0, 91.03 0, 124 0 M0 0 C28.61 0, 57.22 0, 124 0 M124 0 C124 16.48, 124 32.96, 124 42 M124 0 C124 11.56, 124 23.12, 124 42 M124 42 C90.61 42, 57.22 42, 0 42 M124 42 C94.93 42, 65.86 42, 0 42 M0 42 C0 30.15, 0 18.3, 0 0 M0 42 C0 25.37, 0 8.75, 0 0" stroke="#5c940d" stroke-width="1" fill="none"></path></g><g stroke-linecap="round" transform="translate(450.1966137542739 372.3970689953785) rotate(0 61.000000000000014 21)"><path d="M0 0 C31.96 0, 63.92 0, 122 0 M0 0 C38.19 0, 76.38 0, 122 0 M122 0 C122 14, 122 28, 122 42 M122 0 C122 12.76, 122 25.52, 122 42 M122 42 C92.85 42, 63.69 42, 0 42 M122 42 C77.42 42, 32.84 42, 0 42 M0 42 C0 30.96, 0 19.92, 0 0 M0 42 C0 30.95, 0 19.9, 0 0" stroke="#5c940d" stroke-width="1" fill="none"></path></g><g stroke-linecap="round" transform="translate(450.8668066136688 288.1725672523013) rotate(0 61 21)"><path d="M0 0 C26.8 0, 53.6 0, 122 0 M0 0 C37.35 0, 74.71 0, 122 0 M122 0 C122 9.6, 122 19.2, 122 42 M122 0 C122 13.57, 122 27.13, 122 42 M122 42 C82.36 42, 42.73 42, 0 42 M122 42 C74.32 42, 26.64 42, 0 42 M0 42 C0 31.2, 0 20.39, 0 0 M0 42 C0 28.2, 0 14.4, 0 0" stroke="#5c940d" stroke-width="1" fill="none"></path></g><g transform="translate(126.76566177800353 331.98431318459814) rotate(0 53.5 9)"><text x="0" y="15" font-family="Helvetica, Segoe UI Emoji" font-size="16px" fill="#5c940d" text-anchor="start" style="white-space: pre;" direction="ltr">0xc00001419a</text></g><g transform="translate(125.93339303415155 295.4347427021497) rotate(0 53.5 9)"><text x="0" y="15" font-family="Helvetica, Segoe UI Emoji" font-size="16px" fill="#5c940d" text-anchor="start" style="white-space: pre;" direction="ltr">0xc00001419b</text></g><g transform="translate(129.8023922468586 253.89620793104152) rotate(0 53 9)"><text x="0" y="15" font-family="Helvetica, Segoe UI Emoji" font-size="16px" fill="#5c940d" text-anchor="start" style="white-space: pre;" direction="ltr">0xc00001419c</text></g><g transform="translate(129.013208282978 211.2220006595904) rotate(0 53.5 9)"><text x="0" y="15" font-family="Helvetica, Segoe UI Emoji" font-size="16px" fill="#5c940d" text-anchor="start" style="white-space: pre;" direction="ltr">0xc00001419d</text></g><g transform="translate(10 391.1464470861579) rotate(0 211 14)"><text x="0" y="21" font-family="Helvetica, Segoe UI Emoji" font-size="20px" fill="#0061fe" text-anchor="start" style="white-space: pre;" direction="ltr">数据一定是从内存的低地址往高地址读取和写入</text></g><g transform="translate(124.56327102460227 185.92668830492167) rotate(0 -12.745442969263365 81.40637767464997)" stroke="none"><path fill="#0061fe" d="M 0,1.61 Q 0,1.61 -1.17,1.56 -2.35,1.50 -3.86,1.84 -5.37,2.17 -6.23,2.82 -7.09,3.46 -7.85,4.98 -8.61,6.51 -9.33,7.72 -10.05,8.93 -10.56,9.87 -11.07,10.80 -11.47,11.85 -11.86,12.90 -11.83,15.16 -11.80,17.42 -11.52,18.96 -11.24,20.49 -10.90,21.55 -10.55,22.61 -10.37,23.92 -10.19,25.22 -10.11,26.48 -10.04,27.74 -9.77,29.60 -9.50,31.46 -9.39,32.80 -9.27,34.13 -9.00,35.54 -8.73,36.96 -8.59,38.88 -8.46,40.81 -8.90,42.76 -9.34,44.70 -9.76,46.60 -10.17,48.49 -10.85,50.35 -11.52,52.22 -12.27,54.16 -13.03,56.10 -13.84,57.90 -14.66,59.70 -15.73,61.88 -16.79,64.07 -17.73,65.74 -18.67,67.42 -19.58,68.66 -20.50,69.91 -21.07,70.82 -21.65,71.74 -22.60,72.72 -23.55,73.71 -22.18,73.76 -20.81,73.81 -20.04,74.80 -19.27,75.79 -18.14,77.33 -17.01,78.88 -16.02,80.56 -15.04,82.25 -14.00,84.60 -12.96,86.94 -12.65,89.07 -12.34,91.19 -12.08,92.75 -11.81,94.31 -11.64,96.46 -11.46,98.60 -11.44,99.80 -11.42,101.01 -11.41,102.70 -11.40,104.39 -11.39,105.58 -11.39,106.77 -11.39,108.46 -11.40,110.15 -11.40,112.22 -11.40,114.29 -11.40,115.95 -11.40,117.60 -11.41,118.78 -11.41,119.95 -11.39,121.16 -11.37,122.37 -11.36,123.60 -11.35,124.82 -11.35,126.28 -11.35,127.75 -11.35,129.08 -11.34,130.41 -11.34,131.92 -11.35,133.43 -11.12,134.63 -10.90,135.83 -10.79,137.45 -10.67,139.06 -10.40,140.55 -10.13,142.05 -9.80,143.09 -9.47,144.13 -9.28,145.48 -9.10,146.83 -8.81,148.21 -8.51,149.60 -8.16,150.87 -7.81,152.14 -7.63,153.27 -7.46,154.40 -6.50,156.22 -5.54,158.04 -3.40,159.99 -1.25,161.93 -1.08,162.06 -0.91,162.18 -0.79,162.36 -0.67,162.53 -0.61,162.73 -0.55,162.94 -0.56,163.15 -0.57,163.36 -0.64,163.56 -0.72,163.76 -0.86,163.92 -0.99,164.09 -1.17,164.20 -1.35,164.31 -1.56,164.36 -1.77,164.41 -1.98,164.39 -2.19,164.37 -2.38,164.28 -2.58,164.19 -2.73,164.05 -2.89,163.91 -2.99,163.72 -3.09,163.53 -3.13,163.32 -3.17,163.11 -3.14,162.90 -3.10,162.69 -3.01,162.51 -2.91,162.32 -2.76,162.17 -2.61,162.02 -2.41,161.93 -2.22,161.84 -2.01,161.81 -1.80,161.79 -1.59,161.83 -1.38,161.87 -1.20,161.98 -1.02,162.09 -0.88,162.25 -0.74,162.41 -0.66,162.60 -0.58,162.80 -0.56,163.01 -0.55,163.22 -0.60,163.43 -0.66,163.63 -0.77,163.81 -0.89,163.99 -1.06,164.12 -1.22,164.25 -1.42,164.32 -1.63,164.39 -1.84,164.39 -2.05,164.40 -2.25,164.33 -2.45,164.27 -2.45,164.27 -2.45,164.27 -4.63,163.18 -6.81,162.09 -7.90,160.94 -8.98,159.80 -9.44,158.80 -9.90,157.80 -10.62,155.45 -11.35,153.11 -11.72,151.72 -12.10,150.34 -12.53,147.77 -12.95,145.20 -13.33,143.94 -13.71,142.68 -14.00,140.99 -14.28,139.30 -14.37,137.88 -14.46,136.45 -14.71,134.95 -14.96,133.44 -14.96,131.93 -14.96,130.41 -14.95,129.08 -14.95,127.75 -14.95,126.28 -14.95,124.82 -14.94,123.60 -14.93,122.37 -14.92,121.16 -14.90,119.95 -14.90,118.78 -14.90,117.60 -14.90,115.95 -14.90,114.29 -14.90,112.22 -14.91,110.16 -14.92,108.47 -14.93,106.79 -14.93,105.60 -14.93,104.41 -14.94,102.74 -14.95,101.07 -14.97,99.91 -14.99,98.76 -15.14,96.82 -15.29,94.89 -15.57,93.17 -15.85,91.46 -16.08,89.72 -16.32,87.97 -17.19,86.05 -18.06,84.12 -18.72,83.04 -19.38,81.95 -19.94,80.82 -20.50,79.68 -21.30,78.79 -22.09,77.91 -23.44,76.69 -24.79,75.48 -25.45,74.13 -26.10,72.78 -25.18,71.44 -24.25,70.11 -23.62,69.09 -22.99,68.07 -22.18,66.98 -21.37,65.90 -20.47,64.31 -19.58,62.72 -18.55,60.57 -17.53,58.42 -16.76,56.68 -16.00,54.95 -15.25,53.03 -14.50,51.12 -13.88,49.46 -13.26,47.81 -12.84,45.88 -12.42,43.95 -12.02,42.46 -11.63,40.97 -11.73,39.26 -11.84,37.55 -12.14,35.98 -12.43,34.40 -12.54,33.15 -12.64,31.89 -12.90,29.90 -13.16,27.90 -13.33,25.73 -13.49,23.57 -13.85,22.50 -14.20,21.43 -14.58,19.59 -14.96,17.76 -15.10,16.10 -15.24,14.45 -14.99,13.10 -14.74,11.75 -14.22,10.56 -13.71,9.38 -13.19,8.40 -12.66,7.42 -12.06,6.35 -11.47,5.28 -10.41,3.32 -9.35,1.36 -8.53,0.59 -7.71,-0.16 -6.18,-0.57 -4.66,-0.97 -3.52,-1.24 -2.37,-1.50 -1.18,-1.56 0,-1.61 0.19,-1.59 0.38,-1.56 0.56,-1.49 0.75,-1.42 0.91,-1.31 1.07,-1.20 1.19,-1.06 1.32,-0.91 1.41,-0.74 1.50,-0.57 1.55,-0.38 1.60,-0.19 1.60,0.00 1.60,0.19 1.55,0.38 1.50,0.57 1.41,0.74 1.32,0.91 1.19,1.06 1.07,1.20 0.91,1.31 0.74,1.42 0.56,1.49 0.38,1.56 0.19,1.59 -0.00,1.61 -0.00,1.61 L 0,1.61 Z"></path></g><g transform="translate(15.970112749883356 242.11708350909154) rotate(0 37.5 22.5)"><text x="0" y="16.5" font-family="Helvetica, Segoe UI Emoji" font-size="16px" fill="#5c940e" text-anchor="start" style="white-space: pre;" direction="ltr">val变量</text><text x="0" y="39" font-family="Helvetica, Segoe UI Emoji" font-size="16px" fill="#5c940e" text-anchor="start" style="white-space: pre;" direction="ltr">的4个字节</text></g><g transform="translate(467.64488883181116 238.1025773064463) rotate(0 39 9)"><text x="0" y="15" font-family="Helvetica, Segoe UI Emoji" font-size="16px" fill="#ca822f" text-anchor="start" style="white-space: pre;" direction="ltr">0000 0001</text></g><g transform="translate(468.5797593005277 191.77525702595742) rotate(0 38 9)"><text x="0" y="15" font-family="Helvetica, Segoe UI Emoji" font-size="16px" fill="#ca822f" text-anchor="start" style="white-space: pre;" direction="ltr">0000 0011</text></g><g transform="translate(464.6309341369165 144.66998176471228) rotate(0 39 9)"><text x="0" y="15" font-family="Helvetica, Segoe UI Emoji" font-size="16px" fill="#ca822f" text-anchor="start" style="white-space: pre;" direction="ltr">0100 0000</text></g><g transform="translate(467.2060201379861 104.44423961681721) rotate(0 39 9)"><text x="0" y="15" font-family="Helvetica, Segoe UI Emoji" font-size="16px" fill="#ca822f" text-anchor="start" style="white-space: pre;" direction="ltr">0000 0010</text></g><g transform="translate(597.9984293860047 152.9583571756726) rotate(0 17 11)"><text x="0" y="17" font-family="Helvetica, Segoe UI Emoji" font-size="16px" fill="#ca822f" text-anchor="start" style="white-space: pre;" direction="ltr">小端</text></g><g transform="translate(599.5781618043645 175.85350059810233) rotate(0 121 11)"><text x="0" y="17" font-family="Helvetica, Segoe UI Emoji" font-size="16px" fill="#ca822f" text-anchor="start" style="white-space: pre;" direction="ltr">数字的低位存储到内存的低地址处</text></g><g transform="translate(466.32852933666504 302.7084344743299) rotate(0 39 9)"><text x="0" y="15" font-family="Helvetica, Segoe UI Emoji" font-size="16px" fill="#ca822f" text-anchor="start" style="white-space: pre;" direction="ltr">0000 0001</text></g><g transform="translate(467.1081313874463 344.71374453292367) rotate(0 38 9)"><text x="0" y="15" font-family="Helvetica, Segoe UI Emoji" font-size="16px" fill="#ca822f" text-anchor="start" style="white-space: pre;" direction="ltr">0000 0011</text></g><g transform="translate(469.3956069733838 386.31225527511117) rotate(0 39 9)"><text x="0" y="15" font-family="Helvetica, Segoe UI Emoji" font-size="16px" fill="#ca822f" text-anchor="start" style="white-space: pre;" direction="ltr">0100 0000</text></g><g transform="translate(471.5458755280713 429.6676629899549) rotate(0 39 9)"><text x="0" y="15" font-family="Helvetica, Segoe UI Emoji" font-size="16px" fill="#ca822f" text-anchor="start" style="white-space: pre;" direction="ltr">0000 0010</text></g><g stroke-linecap="round"><g transform="translate(445.0247573640088 276.50976504073617) rotate(0 185.41244506835938 -0.6617431640625)"><path d="M0 0 C61.8 -0.22, 309.02 -1.1, 370.82 -1.32 M0 0 C61.8 -0.22, 309.02 -1.1, 370.82 -1.32" stroke="#c3e93a" stroke-width="4" fill="none"></path></g></g><mask></mask><g transform="translate(600.850013711665 298.98132265792367) rotate(0 17 11)"><text x="0" y="17" font-family="Helvetica, Segoe UI Emoji" font-size="16px" fill="#ca8230" text-anchor="start" style="white-space: pre;" direction="ltr">大端</text></g><g transform="translate(605.85465238354 329.0619500993299) rotate(0 121 11)"><text x="0" y="17" font-family="Helvetica, Segoe UI Emoji" font-size="16px" fill="#ca8230" text-anchor="start" style="white-space: pre;" direction="ltr">数字的高位存储到内存的低地址处</text></g><g stroke-linecap="round"><g transform="translate(379.4250608661414 352.66511674466255) rotate(0 -0.548095703125 -85.01177978515625)"><path d="M0 0 C-0.18 -28.34, -0.91 -141.69, -1.1 -170.02 M0 0 C-0.18 -28.34, -0.91 -141.69, -1.1 -170.02" stroke="#c3e93a" stroke-width="4" fill="none"></path></g><g transform="translate(379.4250608661414 352.66511674466255) rotate(0 -0.548095703125 -85.01177978515625)"><path d="M-1.1 -170.02 L5.33 -156.47 L-7.35 -156.39 L-1.1 -170.02" stroke="none" stroke-width="0" fill="#c3e93a" fill-rule="evenodd"></path><path d="M-1.1 -170.02 C0.74 -166.16, 2.57 -162.3, 5.33 -156.47 M-1.1 -170.02 C0.25 -167.18, 1.6 -164.34, 5.33 -156.47 M5.33 -156.47 C1.47 -156.45, -2.39 -156.42, -7.35 -156.39 M5.33 -156.47 C1.87 -156.45, -1.58 -156.43, -7.35 -156.39 M-7.35 -156.39 C-5.03 -161.44, -2.72 -166.49, -1.1 -170.02 M-7.35 -156.39 C-5.65 -160.09, -3.95 -163.8, -1.1 -170.02 M-1.1 -170.02 C-1.1 -170.02, -1.1 -170.02, -1.1 -170.02 M-1.1 -170.02 C-1.1 -170.02, -1.1 -170.02, -1.1 -170.02" stroke="#c3e93a" stroke-width="4" fill="none"></path></g></g><mask></mask><g transform="translate(394.1085325458289 335.68513627591255) rotate(0 25 11)"><text x="0" y="17" font-family="Helvetica, Segoe UI Emoji" font-size="16px" fill="#1864ab" text-anchor="start" style="white-space: pre;" direction="ltr">低地址</text></g><g transform="translate(395.4395872333289 185.68513627591258) rotate(0 25 11)"><text x="0" y="17" font-family="Helvetica, Segoe UI Emoji" font-size="16px" fill="#1864ab" text-anchor="start" style="white-space: pre;" direction="ltr">高地址</text></g><g stroke-linecap="round" transform="translate(61.0781450777676 11.445316414956636) rotate(0 118.26059420953024 27.6911513561125)"><path d="M0 0 C70.97 0, 141.93 0, 236.52 0 M0 0 C72.47 0, 144.94 0, 236.52 0 M236.52 0 C236.52 12.77, 236.52 25.53, 236.52 55.38 M236.52 0 C236.52 12.38, 236.52 24.76, 236.52 55.38 M236.52 55.38 C154.02 55.38, 71.51 55.38, 0 55.38 M236.52 55.38 C187.57 55.38, 138.62 55.38, 0 55.38 M0 55.38 C0 40.91, 0 26.43, 0 0 M0 55.38 C0 41.27, 0 27.16, 0 0" stroke="#1864ab" stroke-width="2" fill="none"></path></g><g transform="translate(72.93362305085543 29.44266759800314) rotate(0 111 11.5)"><text x="0" y="19" font-family="Helvetica, Segoe UI Emoji" font-size="20px" fill="#1864ab" text-anchor="start" style="white-space: pre;" direction="ltr">var val int32 = 33817345</text></g><g stroke-linecap="round" transform="translate(367.6982892795776 10) rotate(0 210.56099983394137 27.831635939964244)"><path d="M0 0 C103.68 0, 207.36 0, 421.12 0 M0 0 C129.08 0, 258.16 0, 421.12 0 M421.12 0 C421.12 15.11, 421.12 30.22, 421.12 55.66 M421.12 0 C421.12 12.99, 421.12 25.98, 421.12 55.66 M421.12 55.66 C267.99 55.66, 114.85 55.66, 0 55.66 M421.12 55.66 C332.83 55.66, 244.54 55.66, 0 55.66 M0 55.66 C0 35.32, 0 14.97, 0 0 M0 55.66 C0 44.52, 0 33.38, 0 0" stroke="#1864ab" stroke-width="2" fill="none"></path></g><g transform="translate(382.8797726215955 27.008852173565742) rotate(0 197.5 11.5)"><text x="0" y="19" font-family="Helvetica, Segoe UI Emoji" font-size="20px" fill="#1864ab" text-anchor="start" style="white-space: pre;" direction="ltr">0000 0010 0000 0100 0000 0011 0000 0001</text></g><g stroke-linecap="round"><g transform="translate(302.0576111869998 40.699487279386545) rotate(0 29.841522216796875 -0.1178131103515625)"><path d="M0 0 C14.67 -0.06, 29.34 -0.12, 59.68 -0.24 M0 0 C23.65 -0.09, 47.31 -0.19, 59.68 -0.24" stroke="#1864ab" stroke-width="2" fill="none"></path></g><g transform="translate(302.0576111869998 40.699487279386545) rotate(0 29.841522216796875 -0.1178131103515625)"><path d="M59.68 -0.24 L46.11 6.16 L46.06 -6.52 L59.68 -0.24" stroke="none" stroke-width="0" fill="#1864ab" fill-rule="evenodd"></path><path d="M59.68 -0.24 C56.35 1.34, 53.01 2.91, 46.11 6.16 M59.68 -0.24 C54.31 2.3, 48.93 4.83, 46.11 6.16 M46.11 6.16 C46.1 2.11, 46.08 -1.95, 46.06 -6.52 M46.11 6.16 C46.1 2.53, 46.08 -1.09, 46.06 -6.52 M46.06 -6.52 C51.26 -4.12, 56.46 -1.72, 59.68 -0.24 M46.06 -6.52 C49.89 -4.75, 53.72 -2.99, 59.68 -0.24 M59.68 -0.24 C59.68 -0.24, 59.68 -0.24, 59.68 -0.24 M59.68 -0.24 C59.68 -0.24, 59.68 -0.24, 59.68 -0.24" stroke="#1864ab" stroke-width="2" fill="none"></path></g></g><mask></mask></svg>